<svg width="291" height="295" viewBox="0 0 291 295" xmlns="http://www.w3.org/2000/svg" xmlns:xlink="http://www.w3.org/1999/xlink"><title>Page 1</title><defs><path id="a" d="M297.747 294.31V.663H0V294.31h297.747V6.596H14.71V294.31z"/></defs><g fill="none" fill-rule="evenodd"><g transform="translate(0 .058)"><mask id="b" fill="#fff"><use xlink:href="#a"/></mask><path d="M297.747 150.59c-.002 4.024-.116 8.063-.356 12.1-1.822 51.826-35.725 100.156-83.21 120.302-2.872 1.214-5.79 2.338-8.755 3.368-2.964 1.03-5.97 1.967-9.02 2.805-12.19 3.354-25.03 5.145-38.288 5.145-22.726 0-44.224-5.264-63.34-14.64-4.78-2.343-9.408-4.944-13.87-7.785-10.478-7.256-20.15-15.777-28.69-25.293-2.846-3.173-5.567-6.456-8.15-9.84-6.253-8.487-11.573-17.67-15.893-27.315-4.32-9.164-7.637-20.462-9.886-30.07-1.125-5.867-1.982-10.534-2.56-15.623-.5-4.388-.826-6.792-.98-11.323-.213-10.117.45-16.884 1.887-24.688 1.438-6.87 3.652-16.643 6.54-23.806 2.89-7.53 6.452-14.514 10.59-21.72C37.9 75.26 42.61 67.74 47.794 60.93c2.962-2.718 6.078-6.566 9.336-10.717 7.293-7.975 15.435-14.803 24.192-19.697 8.757-5.552 18.13-9.922 27.884-14.277 4.877-.604 9.85-3.558 14.888-4.887 8.02-1.58 16.166-2.153 24.337-4.193 8.17-1.008 16.365-.54 24.48.426 16.23 1.746 32.145 6.336 46.927 13.302 14.78 6.966 28.43 16.307 40.125 27.552 3.258 3.126 6.358 6.26 9.27 9.682 8.48 11.11 14.703 23.7 19.292 36.948 1.53 4.416 2.868 8.903 4.013 13.43 2.31 8.634 3.03 18.01 4.215 27.392.518 5.586.89 11.25.995 14.7" fill="#F6F3F1" mask="url(#b)"/></g><path d="M247.83 252.138c-.213.42-.448.815-.7 1.19-.242.38-.488.75-.754 1.1-.524.715-1.083 1.393-1.673 2.046-1.18 1.302-2.497 2.484-3.797 3.702-1.313 1.203-2.667 2.384-4.107 3.494-.722.554-1.465 1.087-2.235 1.595-.384.255-.788.49-1.18.734-.405.232-.82.45-1.232.676l.27-.175c-2.808 2.3-5.806 4.35-8.896 6.202-3.09 1.855-6.268 3.517-9.447 5.118l.163-.093-1.213.764-1.242.708c-.84.447-1.69.864-2.548 1.252-.86.378-1.723.735-2.588 1.07-.865.33-1.727.65-2.585.957-1.714.617-3.403 1.213-5.04 1.875-.817.332-1.62.68-2.414 1.043-.79.367-1.563.764-2.327 1.174l-.162.086-.157.047c-3.475 1.043-6.96 2.31-10.584 3.346-.907.256-1.822.497-2.745.723-.927.218-1.862.415-2.806.587l-1.427.226-1.44.17-1.454.11-1.463.04.62-.126-1.403.545-1.43.466c-.962.28-1.932.52-2.908.71-.976.184-1.956.327-2.934.435-.978.103-1.953.174-2.924.22-3.883.18-7.668-.02-11.34.133l-.183.007-.173-.03c-3.476-.642-7.03-.96-10.614-1.132-3.588-.175-7.212-.21-10.867-.335l-1.397-.078-1.43-.13c-.942-.107-1.867-.24-2.79-.394-1.844-.314-3.656-.723-5.442-1.176-3.57-.904-7.044-1.986-10.512-2.87l-.108-.027-.098-.042c-4.81-2-9.887-3.475-14.95-5.303-1.263-.46-2.525-.944-3.78-1.463-1.265-.533-2.466-1.076-3.7-1.664-2.435-1.167-4.81-2.428-7.146-3.74-2.335-1.315-4.63-2.68-6.91-4.058l-1.706-1.034-.426-.26-.254-.157-.208-.136-.833-.545c-1.127-.748-2.233-1.5-3.333-2.27-4.388-3.086-8.646-6.364-12.692-9.892l.58.323c-1.117-.354-2.042-.916-2.88-1.51-.837-.603-1.543-1.275-2.24-1.947-1.355-1.363-2.55-2.79-3.718-4.188l-1.736-2.063-.87-.992-.92-.99-.917-1.007-.928-1.068c-.607-.717-1.2-1.423-1.773-2.152-2.32-2.888-4.41-5.914-6.455-8.942l-6.012-9.084-.06-.09-.044-.087c-2.517-4.856-5.174-9.66-7.68-14.61-1.25-2.473-2.456-4.986-3.563-7.552-.28-.64-.547-1.285-.814-1.93l-.1-.244-.027-.06-.012-.03c-.044-.102.048.105.033.073l-.056-.116-.22-.464-.445-.917c-.603-1.238-1.224-2.555-1.737-3.92-.515-1.362-.937-2.754-1.284-4.142-.172-.694-.33-1.388-.474-2.082l-.207-1.04-.1-.52-.095-.422-1.85-8.034c-.61-2.688-1.208-5.392-1.723-8.132l-.188-1.028-.093-.515-.085-.558-.29-2.073c-.18-1.384-.335-2.77-.47-4.154-.27-2.77-.458-5.546-.577-8.323-.118-2.785-.164-5.543-.134-8.34.034-2.786.15-5.57.353-8.35.104-1.387.226-2.774.37-4.16l.228-2.073.137-1.113.17-1.016c.906-5.427 1.845-10.89 3.232-16.323l.54-2.015c.174-.652.392-1.38.596-2.04.42-1.352.88-2.67 1.334-3.968.917-2.59 1.764-5.128 2.487-7.73l.037-.128.057-.13c1.47-3.332 2.84-6.79 4.342-10.216 1.513-3.427 3.093-6.86 5.213-10.154l.04-.065.118-.144c.27-.332.55-.64.813-.993.266-.344.533-.687.79-1.05.52-.712 1.023-1.46 1.52-2.212.996-1.51 1.963-3.067 2.936-4.633 1.95-3.134 3.905-6.316 6.16-9.382l.18-.244.258-.183c.54-.38 1.102-.92 1.646-1.497.547-.576 1.08-1.224 1.61-1.88 1.062-1.322 2.103-2.724 3.215-4.125.554-.7 1.134-1.4 1.743-2.092.31-.345.62-.69.954-1.027l.424-.442.448-.48c.583-.633 1.228-1.284 1.855-1.93.638-.626 1.265-1.26 1.92-1.87 2.59-2.458 5.338-4.753 8.204-6.874 2.863-2.13 5.85-4.075 8.905-5.888l.056-.034.067-.033c3.876-1.933 7.65-4.24 11.498-6.502 1.924-1.133 3.867-2.262 5.852-3.343.994-.54 2-1.064 3.014-1.577 1.02-.507 2.05-.995 3.097-1.464l-.137.067c5.242-2.836 10.676-5.354 16.31-7.387 2.817-1.018 5.68-1.917 8.588-2.666 1.426-.373 2.85-.737 4.313-1.083 1.448-.345 2.902-.668 4.36-.97 5.835-1.204 11.77-2.05 17.764-2.33l1.055-.048L139.79.75c.83-.032 1.61-.037 2.375-.016 1.54.04 3.035.164 4.492.272 2.908.223 5.693.37 8.264-.16l.228-.046.205.01 2.08.086 2.073.143c1.38.118 2.753.263 4.122.434 1.366.18 2.728.38 4.083.603 1.354.227 2.703.47 4.047.732 5.37 1.047 10.647 2.35 15.9 3.536l.103.023.098.033c3.908 1.358 7.884 2.632 11.845 4.078.99.362 1.98.733 2.965 1.122l.37.145-.062-.023.013.004.023.008.046.016.092.032.184.065.75.264 1.505.56c2.002.767 3.998 1.655 5.91 2.73.957.536 1.892 1.118 2.798 1.744l1.28.87 1.25.792c1.717 1.057 3.518 2.033 5.354 3.04.917.504 1.843 1.017 2.765 1.557.92.543 1.844 1.1 2.745 1.71.906.6 1.787 1.25 2.65 1.928.428.34.842.703 1.264 1.054l1.215 1.112-.243-.196c3.102 2.106 5.97 4.46 8.732 6.882 2.763 2.425 5.418 4.93 8.073 7.394l-.22-.174c.803.556 1.585 1.134 2.323 1.75.74.616 1.455 1.253 2.136 1.914.687.657 1.347 1.334 1.984 2.026.644.69 1.263 1.394 1.864 2.108 2.414 2.857 4.585 5.857 6.663 8.894l1.58 2.172 1.596 2.24c1.058 1.498 2.102 3.01 3.122 4.543 2.042 3.064 3.99 6.21 5.774 9.453l-.16-.238c.756.978 1.316 1.96 1.835 2.94.515.98.973 1.96 1.41 2.936.878 1.95 1.67 3.902 2.523 5.75l.07.15.037.148c.604 2.365 1.285 4.7 2.007 7.053.72 2.35 1.478 4.748 2.078 7.213.615 2.46 1.06 4.957 1.415 7.444.338 2.444.72 4.857 1.108 7.304.39 2.445.752 4.952.968 7.46.223 2.507.345 5.005.424 7.492l.105 3.705c.04 1.24.065 2.502.074 3.745.022 2.5-.026 5-.13 7.492-.107 2.492-.268 4.978-.463 7.456l-.152 1.856-.08.927-.024.28-.028.23-.054.46c-.147 1.23-.31 2.48-.48 3.705-.682 4.926-1.486 9.807-2.27 14.687-.406 2.448-.768 4.856-1.203 7.337-.44 2.463-.994 4.968-1.755 7.39-.752 2.438-1.71 4.77-2.583 7.047-.874 2.28-1.658 4.567-2.33 6.906l-.02.07-.026.066c-1.47 3.675-3.026 7.314-4.667 10.915l-1.246 2.693c-.418.897-.86 1.78-1.37 2.634-.505.854-1.06 1.684-1.68 2.478-.62.793-1.304 1.555-2.12 2.243.076-1.065.28-2.062.532-3.03.252-.97.56-1.908.91-2.826.342-.92.742-1.813 1.157-2.7l1.22-2.668c1.605-3.57 3.128-7.174 4.563-10.813l-.046.137c.682-2.415 1.49-4.812 2.375-7.15.884-2.34 1.796-4.59 2.49-6.88.708-2.297 1.214-4.63 1.633-7.03.408-2.39.77-4.872 1.16-7.3.763-4.882 1.543-9.758 2.195-14.627.164-1.222.315-2.425.455-3.65l.052-.46.027-.23.014-.182.076-.92.143-1.838c.18-2.45.327-4.897.42-7.342.09-2.446.127-4.888.095-7.332-.014-1.227-.045-2.436-.09-3.665l-.122-3.705c-.09-2.45-.22-4.892-.445-7.306-.22-2.415-.575-4.802-.974-7.236-.398-2.43-.8-4.897-1.15-7.347-.353-2.403-.788-4.775-1.383-7.108-.578-2.335-1.32-4.65-2.058-7.02-.74-2.37-1.454-4.776-2.083-7.198l.105.297c-.915-1.96-1.71-3.9-2.566-5.778-.427-.937-.864-1.858-1.33-2.735-.464-.873-.964-1.714-1.497-2.395l-.09-.117-.07-.123c-1.743-3.134-3.648-6.182-5.66-9.173-1.007-1.496-2.04-2.978-3.09-4.45l-3.222-4.453c-2.04-2.974-4.155-5.88-6.45-8.588-.573-.678-1.158-1.342-1.76-1.984-.597-.647-1.21-1.274-1.84-1.875-.627-.606-1.276-1.18-1.938-1.73-.66-.55-1.346-1.054-2.04-1.534l-.127-.09-.094-.086c-2.673-2.474-5.307-4.95-8.008-7.315-2.7-2.36-5.467-4.62-8.382-6.59l-.106-.07-.137-.125-1.09-.996c-.38-.314-.75-.64-1.137-.944-.777-.608-1.572-1.196-2.405-1.743-.823-.56-1.687-1.077-2.56-1.59-.875-.51-1.773-1.007-2.682-1.504-1.818-.995-3.684-2-5.517-3.125-.46-.277-.927-.586-1.39-.88l-1.305-.884c-.808-.557-1.644-1.075-2.506-1.556-1.722-.964-3.543-1.774-5.43-2.495l-1.425-.527-.725-.256-.44-.155-.36-.14c-.952-.373-1.914-.733-2.88-1.084-3.87-1.405-7.832-2.67-11.797-4.038l.202.057c-5.305-1.19-10.543-2.474-15.797-3.49-1.313-.252-2.626-.488-3.94-.707-1.316-.213-2.632-.405-3.948-.575-1.316-.163-2.633-.3-3.95-.41l-1.976-.134-1.976-.08.434-.037c-3.215.657-6.373.453-9.31.24-1.473-.108-2.91-.22-4.308-.257-.703-.02-1.394-.012-2.033.01-.34.015-.725.05-1.086.073l-1.146.053c-5.756.267-11.496 1.08-17.174 2.25-1.42.295-2.836.608-4.25.945-1.397.33-2.82.693-4.238 1.064-2.785.717-5.537 1.58-8.25 2.56-5.427 1.956-10.693 4.392-15.79 7.15l-.064.034-.073.033c-.984.44-1.963.903-2.936 1.386-.972.49-1.94.995-2.9 1.516-1.924 1.046-3.83 2.153-5.74 3.277-3.823 2.245-7.65 4.588-11.74 6.628l.122-.067c-2.955 1.755-5.83 3.628-8.577 5.67-2.75 2.034-5.378 4.23-7.858 6.58-.626.58-1.227 1.19-1.835 1.787-.59.608-1.177 1.196-1.777 1.848l-.93.983c-.28.28-.554.587-.83.892-.543.62-1.08 1.264-1.61 1.936-1.06 1.335-2.102 2.74-3.228 4.142-.57.702-1.147 1.406-1.802 2.098-.654.69-1.35 1.378-2.238 2.01l.438-.427c-2.123 2.882-4.042 5.993-5.99 9.127-.977 1.568-1.956 3.148-2.994 4.72-1.042 1.572-2.125 3.14-3.432 4.66l.16-.21c-1.898 2.94-3.445 6.256-4.917 9.6-1.472 3.358-2.83 6.79-4.352 10.236l.093-.26c-.75 2.695-1.644 5.37-2.56 7.96-.454 1.295-.9 2.57-1.295 3.842-.2.65-.378 1.24-.56 1.913l-.527 1.965c-1.333 5.216-2.265 10.595-3.168 16.002l-.17 1.017-.11.932-.223 2.02c-.14 1.35-.26 2.7-.36 4.05-.198 2.7-.312 5.408-.347 8.117-.03 2.696.014 5.434.13 8.138.113 2.71.297 5.42.56 8.118.13 1.348.28 2.694.455 4.034l.28 2.008.07.46.088.5.183.998c.5 2.66 1.086 5.322 1.692 7.992l1.846 8.028.13.584.093.492.194.98c.136.65.283 1.296.44 1.935.32 1.277.698 2.52 1.153 3.725.456 1.208 1.004 2.38 1.605 3.612l.453.937.224.466.055.116.094.22.096.234.787 1.864c1.07 2.48 2.24 4.924 3.467 7.352 2.456 4.857 5.117 9.67 7.656 14.572l-.103-.177 5.972 9.11c1.992 3.01 4.038 5.962 6.2 8.79.534.71 1.097 1.405 1.65 2.085l.838 1.005.9 1.022.912 1.024.907 1.072 1.727 2.14c1.13 1.413 2.247 2.794 3.43 4.032.596.598 1.2 1.193 1.83 1.662.628.47 1.276.856 1.896 1.06l.34.112.24.212c3.933 3.48 8.04 6.774 12.347 9.784 1.077.753 2.165 1.494 3.252 2.215l.832.546.21.135.168.104.425.258 1.7 1.03c2.264 1.37 4.533 2.72 6.826 4.01 2.293 1.29 4.612 2.52 6.967 3.65 1.16.554 2.38 1.106 3.56 1.602 1.2.497 2.418.964 3.648 1.413 4.925 1.782 10.07 3.276 15.074 5.355l-.208-.07c3.57.91 7.042 1.97 10.515 2.835 1.735.433 3.47.816 5.208 1.106.867.14 1.74.26 2.603.355l1.282.113 1.32.07c3.605.11 7.246.13 10.914.294 3.667.164 7.366.475 11.04 1.137l-.357-.025c3.88-.177 7.66.025 11.33-.155.917-.045 1.827-.112 2.728-.21.9-.098 1.79-.23 2.67-.398.88-.172 1.744-.386 2.597-.635l1.264-.414 1.238-.48.303-.12.32-.008 1.303-.04 1.31-.1 1.308-.156 1.31-.21c.872-.16 1.744-.344 2.615-.55.87-.215 1.74-.445 2.61-.692 3.48-.997 6.942-2.26 10.54-3.348l-.32.135c.835-.45 1.675-.883 2.528-1.28.855-.395 1.716-.763 2.582-1.106 1.73-.687 3.468-1.284 5.17-1.884.85-.298 1.69-.603 2.52-.914.83-.314 1.644-.644 2.445-.99.797-.353 1.578-.73 2.342-1.13l1.125-.63 1.093-.678.106-.066.057-.03c3.163-1.564 6.282-3.17 9.284-4.943 3.002-1.77 5.883-3.713 8.576-5.888l.11-.087.16-.087 1.08-.585c.353-.218.71-.42 1.06-.65.7-.454 1.386-.938 2.06-1.45 1.35-1.023 2.654-2.142 3.936-3.302l1.913-1.77c.63-.603 1.275-1.194 1.952-1.756.678-.563 1.39-1.096 2.142-1.585.764-.493 1.553-.934 2.425-1.274.184-.07.39.02.463.205.04.098.03.205-.014.293" fill="#4B5170"/><path d="M167.495 134.1l-48.898-4.245-32.64.477c0 .387-1.253 8.34-1.253 9.015 0-1.39-4.758 9.153-4.758 11.018 0 2.992-.75 11.192 0 13.773.752.68 9.767 17.19 10.517 17.78.752 1.163 2.755 12.284 2.755 13.02 0 1.6 7.262 9.69 7.262 10.017 0-1.83 7.512 13.378 7.512 13.272 0 1.424 2.004-3.11 2.004-1.753 0 .498-8.514-11.737-8.514-14.023 0 1.647-4.758-11.93-4.758-12.27 0 .504 3.756-.244 3.756 0 0 .708 3.005 10.407 3.756 9.516.748.728 11.92 14.024 12.02 13.777-.204.513 1.844 3.36 2.077 3.768l3.36 5.857c.325.567.658 1.157.728 1.808.12 1.104-.532 2.13-1.156 3.048 3.075 1.5 5.645 3.84 8.7 5.317 1.89.913 3.914 1.224 5.766 2.23 2.156 1.172 4.21 2.515 6.337 3.733 1.7.974 4.87 3.422 6.993 3.033 1.173-.214 3.502.813 4.89.83 1.983.026 3.76-.26 5.237-1.733l11.517 5.363c1.357.632 2.817 1.28 4.295 1.046 1.707-.27 3.736-2.66 5.38-2.107.42.142.752.467 1.067.782l7.153 7.16c.972.974 1.965 1.963 3.187 2.594 1.415.734 3.036.938 4.618 1.13l6.943.84c.725.088 1.495.17 2.157-.143 1.777-.838 1.578-3.813 3.342-4.677.477.257.737.858.6 1.38l-3.092-1.92c-.31-.194-.64-.393-1.005-.403-1.46-.04-1.374 2.378-2.503 3.302-1.077.88-2.66.032-3.768-.81-1.776-1.35-10-6.095-9.2-8.274.593-1.61 2.493-4.964 1.876-6.725-.37-1.05-2.414-1.08-3.626-1.333-.66-.138-7.018-1.072-7.018-1.81 0-.908-5.258 1.087-5.258 1.753 0-1.154.75-8.834.75-9.015 0 .592 2.755-7.074 2.755-7.012 0-2.212-9.266.38-9.266 1.002 0 1.12-3.505 5.927-3.505 7.513 0-1.302-14.024 3.04-14.024 1.752 0-.134-8.972-10.115-7.992-11.017.98.58 3.36-13.364 3.36-12.522 0-1.077.375-5.622 1.126-7.26.75-2.703 10.768-6.3 12.52-5.26 1.753-1.99 16.528-2.29 17.78-2.405 1.252-.65 10.266 2.338 10.266 2.907 0-.876 4.007 5.25 4.007 7.512 0 2.335 3.757 4.53 3.506-.5-.252-1.142-4.76-13.928-4.76-14.023 0 1.075-1.25-5.763-.5-6.01.752-1.332 9.766-11.15 9.766-12.27 0-.824-2.253-13.155-2.253-13.02 0-.2 6.51-8.195 6.51-9.015 0 .83 5.76-4.167 5.76-4.508 0-1.296-5.51-.68-4.758-2.504.75-.788 4.758-8.426 4.758-9.266 0-.255 2.754 1.94 4.507 1.753 1.753.647 7.763-7.62 7.763-8.764 0 .127-9.266-2.01-9.266-1.503 0-.535-3.254-5.968-3.254-5.008 0 1.417-5.51-.01-5.51 0 0 1.965-6.26 16.233-6.26 14.775 0 .717-15.776 18.365-15.776 17.403l-3.475-9.803-5.54-3.093-7.357-5.246" fill="#FFF"/><path d="M213.225 125.074v.003-.003zm2.885.004zm0 .005zm0 .005zm0 .004v.003-.003zm0 .005v.002-.003zm0 .005zm0 .005zm-5.89 8.478v.003-.003zm-12.02 1.25v.005-.004zm2.886 0v.005-.004zm-117.824 4.512v.003-.003zm121.2 10.514v.004-.003zm2.884 0v.004-.003zM78.92 165.153c.022.023.042.04.058.055l-.058-.055zm12.434 15.63h0zm101.07 4.724c-.028.012-.056.023-.086.032.03-.01.058-.02.087-.032zm-.087.033h-.003.003zm-.003 0h-.004.004zm-90.413 4.563l.003.077c0-.02 0-.046-.002-.077zm-2.883.077c0 .233.055.442.144.622-.092-.38-.143-.608-.143-.622zm-4.385 4.637c.005.057.01.098.01.12 0-.053-.006-.095-.01-.12zm85.373.747l-.003.002.003-.002zm11.044 1.628v.003-.003zm-2.886 0v.004-.004zm0 .006v.002-.002zm0 .004v.004-.004zm0 .006zm-70.585 16.79h-.002zm-.002.004l-.002.004.002-.004zm27.71 6.488h0zm19.838 10.507V231v-.003zm14.72 13.142c.32 0 .645.047.973.158.75.253 1.257.76 1.626 1.13l7.155 7.16c.884.883 1.796 1.797 2.83 2.333 1.2.622 2.69.802 4.128.977l1.7.206-.073-.055c-.322-.245-.947-.658-1.67-1.136-5.122-3.385-8.964-6.18-8.008-8.784.15-.412.36-.88.6-1.422.48-1.088 1.46-3.296 1.3-4.207-.322-.167-1.166-.29-1.638-.36-.344-.052-.67-.102-.955-.16-.096-.02-.325-.06-.642-.113-4.018-.678-6.048-1.126-6.937-1.848-.89.185-2.576.83-3.162 1.227-.252.423-.712.706-1.24.706-.797 0-1.443-.647-1.443-1.443 0-.825.303-4.157.61-7.5.078-.826.133-1.426.143-1.574v-.016c.003-.377.148-.713.387-.96.447-1.04 1.58-4.115 2.04-5.36.007-.023.016-.046.025-.07-1.57-.03-4.956.745-6.236 1.31-.24.717-.755 1.636-1.56 3.045-.606 1.064-1.734 3.04-1.79 3.624v.037c-.017.78-.656 1.4-1.442 1.4-.304 0-.586-.094-.818-.255-1.06.038-3.944.664-5.914 1.092-5.76 1.253-7.2 1.468-8.13.717-.192-.153-.342-.343-.445-.555-.15-.182-.42-.497-.77-.908-7.63-8.936-8.332-10.56-6.913-11.866.06-.055.124-.104.19-.148.652-1.512 1.84-7.412 2.248-9.432.133-.662.246-1.218.33-1.608.032-.156.07-.344.13-.538.048-1.336.382-5.575 1.21-7.5.68-2.07 3.9-3.742 6.51-4.79 1.536-.617 4.934-1.843 7.075-1.536 1.74-.984 5.883-1.738 16.594-2.204.585-.026 1.018-.044 1.244-.06 2.556-.55 9.76 2.153 10.96 2.848.546.134 1.323.765 2.993 3.697.91 1.596 1.996 3.814 1.996 5.305 0 .4.287.79.522.984.065-.234.127-.643.106-1.28-.305-1.103-2.5-7.426-3.574-10.522-.508-1.462-.8-2.302-.966-2.805-.23-.368-.324-.8-.375-1.04-1.045-4.862-.53-6.384.058-6.93.52-.732 1.66-2.07 3.55-4.28 1.95-2.28 5.15-6.016 5.785-7.13-.218-1.705-1.963-11.4-2.186-12.46-.03-.117-.048-.24-.048-.364 0-.56 0-.56 1.963-3.093 1.357-1.752 4.148-5.352 4.582-6.24.146-.647.737-1.098 1.422-1.126.725-.453 2.194-1.658 3.277-2.617l-.046-.008c-1.418-.252-2.883-.51-3.506-1.645-.307-.558-.332-1.214-.07-1.847.067-.165.166-.317.29-.446.718-.855 4.06-7.298 4.367-8.422.05-.462.322-.887.727-1.118.78-.444 1.41-.07 2.137.363.6.357 2.2 1.306 2.922 1.226.114-.012.23-.01.344.004.917-.44 4.08-3.92 5.51-6.24l-.622-.125c-1.695-.345-5.102-1.037-6.124-1.102-.143.047-.297.073-.457.073-.706 0-1.292-.506-1.418-1.175-.213-.55-1.212-2.267-1.938-3.358-.696.194-1.938.265-4.314-.2-.555 1.883-1.68 4.67-2.67 6.99-2.284 5.36-3.177 6.947-3.84 7.417-.82 1.165-2.757 3.486-7.346 8.597-8.025 8.937-8.51 8.937-9.242 8.937-.383 0-.766-.172-1.037-.442-.156-.155-.278-.348-.353-.558h-.003l-3.292-9.29-5.066-2.827c-.047-.026-.092-.055-.135-.085l-7.037-5.018-48.432-4.205-31.32.457c-.076.528-.185 1.266-.34 2.313-.285 1.93-.715 4.84-.74 5.296-.006.546-.317 1.02-.77 1.258-1.1 1.864-3.933 8.54-3.987 9.75 0 .89-.064 2.19-.136 3.695-.148 3.062-.368 7.62.018 9.425.58.81 1.77 2.853 4.94 8.422 1.992 3.494 4.707 8.262 5.26 8.97.078.074.146.157.204.247.983 1.523 2.82 12.24 2.974 13.67.253.877 2.657 3.903 4.284 5.9-.373-.943-.823-2.153-1.39-3.705-1.41-3.866-1.942-5.503-2.142-6.225-.076-.18-.118-.376-.12-.576v-.02c0-.796.646-1.442 1.442-1.442.253 0 .49.065.698.18.396-.007 1.107-.082 1.525-.126 1.366-.145 1.93-.205 2.49.298.28.252.457.62.483.996.17 1.086 1.996 6.74 2.856 8.272.17.07.33.172.466.304.308.3 1.526 1.717 4.44 5.126 2.643 3.09 6.588 7.702 7.373 8.484.403.266.64.72.644 1.193.152.373.65 1.192 1.484 2.44.198.296.345.52.4.618l3.36 5.855c.36.63.808 1.41.91 2.374.108.996-.18 1.892-.563 2.65 1.09.63 2.12 1.33 3.125 2.013 1.41.957 2.74 1.86 4.177 2.556.786.38 1.616.65 2.495.936 1.09.355 2.22.723 3.332 1.327 1.278.695 2.527 1.45 3.736 2.184.872.53 1.743 1.058 2.628 1.564.356.205.774.47 1.23.76 1.362.866 3.645 2.318 4.786 2.107.963-.177 2.082.115 3.268.423.682.178 1.454.378 1.9.384 2.043.03 3.226-.34 4.2-1.313.43-.426 1.08-.54 1.63-.285l11.515 5.363c1.294.603 2.448 1.09 3.46.93.42-.068 1.103-.494 1.705-.87.976-.61 2.142-1.34 3.387-1.34zm23.957 12.633c.402.043.823.064 1.064-.05.388-.183.668-.864.964-1.585.1-.238.203-.49.32-.745l-.576-.358-.147-.09c-.094.186-.202.453-.28.65-.282.697-.628 1.56-1.344 2.178zm.54 2.92c-.435 0-.84-.048-1.19-.09l-6.942-.842c-1.613-.194-3.443-.416-5.107-1.276-1.432-.743-2.554-1.866-3.544-2.857l-7.154-7.16c-.14-.14-.4-.398-.508-.435-.318-.11-1.353.544-1.91.892-.877.548-1.784 1.115-2.783 1.273-1.964.313-3.795-.54-5.13-1.162l-10.673-4.97c-1.768 1.322-3.743 1.5-5.49 1.474-.798-.01-1.71-.248-2.59-.476-.632-.165-1.687-.44-2.022-.38-2.257.413-4.806-1.207-6.854-2.51-.415-.263-.792-.504-1.115-.688-.906-.52-1.798-1.06-2.69-1.602-1.18-.715-2.4-1.454-3.618-2.116-.88-.478-1.836-.79-2.847-1.118-.933-.302-1.897-.616-2.86-1.082-1.628-.787-3.11-1.793-4.54-2.766-1.402-.95-2.725-1.85-4.163-2.553-.376-.183-.655-.522-.762-.926-.108-.403-.035-.834.2-1.18.52-.766.98-1.5.917-2.086-.04-.36-.297-.81-.546-1.244l-3.358-5.855c-.045-.078-.155-.24-.297-.45-1.108-1.66-1.713-2.66-1.914-3.413-1.074-1.06-3.073-3.397-7.38-8.434-1.59-1.858-3.22-3.767-3.93-4.57-1.675-.64-3.43-6.62-4.166-9.448l-.144.016-.523.055c.968 2.825 2.832 7.95 3.58 9.55.373.26.618.695.618 1.185.166 1.542 5.69 10.03 7.574 12.45.48.21.94.71.94 1.573 0 .383-.158.757-.43 1.028-.173.174-.388.302-.62.372-.06.09-.115.177-.16.25-.696 1.09-1.353 2.12-2.557 1.767-.233-.07-.933-.35-1.09-1.27-.178-.313-.376-.702-.617-1.174-3.126-6.145-5.134-9.882-5.983-11.136-.353-.13-.642-.394-.804-.73-.2-.28-.882-1.107-1.488-1.843-4.645-5.637-5.916-7.528-5.916-8.8-.072-1.08-1.882-10.733-2.514-12.203-.553-.686-1.693-2.607-5.555-9.39-1.928-3.382-4.32-7.584-4.803-8.21-.16-.166-.278-.37-.343-.593-.556-1.914-.422-5.77-.188-10.61.07-1.468.132-2.736.132-3.564 0-1.275 1.24-4.403 2.278-6.803 1.264-2.917 2.014-4.363 2.56-5.08.102-.833.315-2.3.69-4.835.213-1.444.455-3.077.483-3.376.03-.76.652-1.37 1.42-1.382l32.64-.478c.05 0 .1 0 .147.006l48.898 4.246c.256.022.502.113.712.262l7.293 5.2 5.47 3.054c.307.17.54.447.657.777l2.783 7.852c3.57-3.606 12.715-13.827 13.76-15.487.117-.305.335-.56.61-.724 1.29-2.215 5.456-12.03 5.557-13.553 0-.442.2-.84.547-1.114.55-.434 1.125-.296 1.312-.25 2.124.505 3.317.587 3.863.564.26-.44.775-.738 1.287-.738.845 0 1.397.443 2.997 3.067.538.884.9 1.532 1.142 2.014 1.077.114 2.902.454 6.21 1.127.85.173 1.802.367 2.12.417.792.004 1.434.648 1.434 1.442v.003c0 .137-.02.272-.06.402-.545 2.17-4.79 7.562-7.005 9.107-.325.227-1.245.87-2.262.703-1.164.026-2.442-.517-3.605-1.16-.958 2.208-2.733 5.44-3.766 7.132.326.074.7.14.974.19 1.46.257 3.456.61 3.456 2.402 0 .59 0 .948-3.065 3.523-1.674 1.408-2.594 2.03-3.16 2.304-.583.987-1.87 2.738-4.687 6.37-.46.596-.965 1.246-1.274 1.655.077.366.158.804.254 1.327.213 1.16.494 2.713.775 4.292 1.14 6.413 1.14 6.857 1.14 7.07 0 .972-.64 1.963-6.5 8.81-1.425 1.665-3.2 3.738-3.455 4.17-.016.03-.033.055-.05.08-.065.87.282 3.387.512 4.445.08.124.14.26.18.407.085.266.568 1.66 1.08 3.13 2.272 6.547 3.534 10.233 3.69 10.953.018.077.03.157.032.237.104 2.1-.397 3.508-1.49 4.188-.814.51-1.823.5-2.765-.022-1.257-.7-2.135-2.177-2.135-3.593 0-1.245-2.188-5.018-3.09-6.17-.222-.087-.416-.227-.57-.404-1.267-.72-7.316-2.62-8.66-2.496-.12.045-.25.075-.378.087-.2.02-.726.044-1.483.076-12.057.526-14.808 1.402-15.375 1.877-.442.503-1.142.606-1.726.295-1.7-.427-9.92 2.688-10.46 4.37-.018.054-.055.16-.08.213-.592 1.296-.994 5.542-.994 6.662 0 .215-.048.42-.133.605-.08.353-.23 1.108-.38 1.843-1.398 6.937-2.083 9.52-2.73 10.605.536.987 2.19 3.27 6.57 8.398.323.377.566.662.75.884 1.106-.064 3.88-.667 5.79-1.082 3.236-.704 5.118-1.082 6.312-1.147.37-.9.975-1.988 1.76-3.363.49-.856 1.22-2.138 1.34-2.56.046-1.068.95-1.64 3.736-2.407.904-.248 3.208-.825 5.093-.825.787 0 1.412.102 1.91.312.883.37 1.41 1.122 1.41 2.01 0 .204-.045.404-.126.587-.052.132-.19.51-.38 1.026-.37 1-.92 2.496-1.396 3.737-.36.944-.63 1.644-.887 2.143l-.12 1.296c-.107 1.17-.28 3.045-.412 4.608 1.42-.53 2.863-.8 3.183-.8.37 0 .685.065.96.2.284.138.513.344.674.594.55.212 1.958.57 5.376 1.146.37.063.638.11.75.132.237.05.506.09.788.13 1.405.208 3.33.493 3.906 2.14.667 1.898-.453 4.422-1.352 6.45-.183.413-.35.79-.474 1.105.467 1.316 5.243 4.472 6.835 5.525.798.528 1.43.944 1.827 1.246 1.077.82 1.806.988 1.98.843.187-.15.4-.684.557-1.073.39-.975 1.04-2.604 2.898-2.555.767.02 1.37.395 1.73.62l.91.566c.06-.033.123-.065.185-.095.42-.206.91-.195 1.32.025 1.066.576 1.616 1.844 1.308 3.017-.115.442-.434.804-.86.974-.428.17-.907.127-1.296-.114l-.038-.025-.126.305c-.447 1.086-1.002 2.437-2.4 3.097-.595.28-1.2.362-1.758.362z" fill="#4B5170"/><path d="M76.69 81.252c.502 1.257 19.533-23.137 19.533-24.29 0 1.714 26.043 16.237 26.043 15.275 0 .612 16.903 1.017 16.903 2.254 0 2.705 8.137-8.295 8.137-8.514 0 .446 10.016 12.034 10.016 11.52 0-.38-9.515 19.74-9.515 19.782 0 2.163 7.012 12.21 7.012 11.27 0 .45 13.27 4.22 13.27 5.006 0-.158 5.01-2.724 5.01-2.003 0 1.022 6.51 10.924 6.51 11.02 0 .847 2.504-1.22 2.504-3.256 0 .133-3.506-11.285-3.506-9.265 0 .512 2.254-6.56 2.254-8.014 0-.544-4.758-4.75-4.758-6.51 0 .953-4.507-10.147-4.507-10.518 0-.3 21.536 10.588 21.536 8.514 0 .855 2.503-5.21 2.503-3.756 0-.313 23.54 9.53 23.54 11.018 0-.34-1.253 7.383-1.253 6.01 0 .643-1.002 5.003-1.002 5.008 0 1.056-10.015 4.758-10.015 4.507 0-.602-4.758 8.487-4.758 7.51 0-1.154-2.504 12.047-2.504 11.02 0-.824-12.02 11.95-12.02 12.52 0 1.354-5.008 3.885-5.008 4.883 0 2.85-.25-10.573-.25-8.89 0-.437 2.754-2.002 2.754-2.253 0-.18-10.268-2.24-10.268-1.753 0 1.924-4.507-6.178-4.507-5.26 0 1.205-8.764-1.544-8.764-1.752 0-1.432-1 4.1-1 4.508 0-1.062-34.808-.328-34.808-2.504 0-1.034-8.89-3.1-17.78-3.257-8.89-.9-17.778-3.703-17.778-3.255 0-1.63-6.26-11.695-6.26-10.768 0 .404.5-9.206.5-10.266 0 .282-4.758-16.908-4.758-15.275 0 1.518-3.005-8.805-3.005-10.268" fill="#FFDD14"/><path d="M176.834 112.635c-.138-.238-.263-.455-.373-.65.066.072.135.143.208.21.052.132.106.28.166.44m-80.61-58.56c-1.272 0-2.35.824-2.736 1.964-1.522 2.708-14.817 19.7-17.817 22.512-1.106.418-1.864 1.483-1.864 2.7 0 .937.49 3.13 1.46 6.515.372 1.298.742 2.502 1.043 3.393.27.8.597 1.766 1.216 2.463.758 2.26 2.402 7.966 3.168 10.624.282.98.525 1.822.7 2.418.05.17.103.354.164.543-.063 1.834-.393 8.34-.47 9.493-.013.12-.02.24-.02.36 0 1.005.514 1.895 1.293 2.415 1.248 1.682 4.527 7.173 4.984 8.66.153 1.45 1.38 2.58 2.87 2.58.085 0 .17-.005.253-.013.52.1 1.548.34 2.474.556 3.395.794 9.077 2.12 14.762 2.696.08.008.16.013.24.014 7.196.128 13.637 1.51 15.54 2.234.995 1.305 2.973 1.626 3.866 1.77 1.302.213 3.108.387 5.522.532 4.31.26 9.894.385 14.82.497 4.507.103 10.043.228 11.634.442.38.183.805.286 1.255.286 1.534 0 2.79-1.198 2.88-2.71.02-.18.075-.52.147-.932l.41.12c2.276.642 4.03.998 5.227 1.06.12.178.235.354.343.515 2.17 3.26 3.16 4.75 5.122 4.75.436 0 .88-.1 1.292-.293.864.113 2.18.337 3.51.584-.033.233-.033.422-.033.534 0 .112.006.224.018.334.02.65.05 2.105.082 3.52.03 1.296.06 2.673.086 3.727.013.533.025.984.036 1.302l.014.406c.087 1.893 1.52 2.884 2.893 2.884.1 0 2.21-.028 2.76-2.167.33-.27.818-.628 1.177-.893 1.656-1.22 3.238-2.387 3.77-3.955 1.473-1.846 8.212-9.017 10.316-10.89.757-.265 1.578-.928 1.963-2.49.075-.31.176-.75.29-1.282.22-1.005.497-2.352.78-3.717.323-1.565.737-3.568.986-4.666.696-.884 1.514-2.315 2.808-4.578.374-.656.836-1.465 1.18-2.05 1.35-.412 3.125-1.11 4.622-1.73 4.302-1.78 6.27-2.91 6.518-4.867.544-2.403.8-3.687.92-4.418.077-.197.143-.414.198-.652.07-.295.153-.694.254-1.22.175-.903.377-2.038.542-2.966.094-.53.2-1.12.252-1.395.072-.248.112-.51.114-.78v-.057c-.02-2.032-1.664-3.096-5.15-4.883-2.508-1.286-5.77-2.77-8.064-3.79-2.667-1.185-5.628-2.452-8.124-3.477-1.646-.676-2.69-1.088-3.387-1.34-.52-.397-1.155-.61-1.78-.61-1.994 0-2.747 1.485-3.992 3.947l-.002.005c-3.384-1.093-11.442-4.872-14.746-6.422-4.412-2.068-4.412-2.068-5.205-2.068-1.595 0-2.898 1.297-2.898 2.89 0 .58 0 .9 2.335 6.528.42 1.017 1.035 2.473 1.562 3.636.267.593.522 1.157.818 1.646.526 1.664 2 3.373 3.92 5.465.15.162.318.347.477.522-.327 1.427-1.09 4.022-1.558 5.384-.335.487-.544 1.11-.544 1.863 0 .102.005.203.016.303-.468-1.077-1.554-1.814-2.85-1.814-.664 0-1.608.155-3.995 1.292-.278.133-.546.26-.802.387-.515-.222-1.067-.424-1.627-.628-1.582-.58-3.565-1.23-5.482-1.86-1.605-.53-3.75-1.235-4.496-1.54-.077-.055-.157-.105-.24-.153-1.312-1.566-4.53-6.48-5.387-8.485 1.698-3.61 7.893-16.656 8.83-18.41.327-.47.52-1.038.52-1.65 0-1.035-.548-1.947-1.37-2.458-1.513-1.494-7.91-8.888-8.957-10.36-.475-.94-1.45-1.586-2.576-1.586-1.11 0-2.072.627-2.555 1.545-.707 1.083-3.61 4.855-5.358 6.71-1.056-.34-2.282-.486-3.395-.62-2.12-.252-4.843-.458-7.246-.64-1.97-.148-4.377-.33-5.28-.47-.312-.144-.656-.234-1.02-.258-3.577-1.398-21.09-11.365-23.69-13.763-.487-.904-1.442-1.518-2.54-1.518m86.143 89.13s.004.036.006.102c-.005.016-.008.03-.008.046 0-.1 0-.147.002-.147M83.96 117.022l-.007.05v-.01c0-.018.002-.03.006-.04m94.714-7.213c.017 0 .036.01.06.034-.06.148-.1.23-.117.23-.006 0-.01-.007-.01-.025 0-.165.025-.24.067-.24M157.32 77.49c.002 0 .003.002.003.006 0 .01-.004.016-.013.016h-.008c.01-.015.015-.022.02-.022m-61.1-20.528c0 1.66 24.402 15.32 25.966 15.32.052 0 .078-.014.078-.045 0 .612 16.902 1.017 16.902 2.253 0 .296.098.428.272.428 1.41 0 7.867-8.747 7.867-8.942 0 .434 9.477 11.41 9.995 11.535-.503.716-9.494 19.728-9.494 19.768 0 2.067 6.4 11.33 6.97 11.33.028 0 .04-.02.04-.06 0 .45 13.273 4.22 13.273 5.007 0-.14 3.855-2.13 4.8-2.13.134 0 .21.038.21.126 0 1.022 6.51 10.924 6.51 11.02 0 .134.063.194.168.194.56 0 2.336-1.736 2.336-3.45-.036 0-2.76-8.85-3.38-9.47.472-1.186 2.128-6.56 2.128-7.808 0-.544-4.758-4.75-4.758-6.51 0 .04-.008.057-.022.057-.34 0-4.485-10.22-4.485-10.575 0-.004.004-.006.012-.006.517 0 17.98 8.783 21.06 8.783.3 0 .462-.082.462-.263 0 .057.01.083.032.083.256 0 1.993-4.065 2.39-4.065.053 0 .082.07.082.226 0-.005.006-.008.017-.008.71 0 23.508 9.555 23.522 11.024 0-.006 0-.01-.002-.01-.047 0-1.057 6.186-1.226 6.186-.015 0-.024-.052-.024-.164 0 .643-1.002 5.003-1.002 5.008 0 1.022-9.373 4.52-9.984 4.52-.02 0-.03-.005-.03-.013 0-.02-.006-.03-.015-.03-.27 0-4.284 7.615-4.707 7.615-.024 0-.036-.023-.036-.074 0-.047-.004-.07-.013-.07-.185 0-2.314 11.147-2.48 11.147-.008 0-.01-.02-.01-.057 0-.026-.013-.038-.035-.038-.705 0-11.987 12.006-11.987 12.558 0 1.353-5.008 3.885-5.008 4.883 0 .275-.002.4-.006.4-.036 0-.198-8.323-.237-9.335.168-.492 2.746-1.965 2.746-2.208 0-.162-8.22-1.827-9.95-1.828-.204 0-.318.024-.318.075 0 .205-.05.297-.143.297-.722 0-3.94-5.628-4.327-5.63-.025 0-.038.024-.038.074 0 .215-.28.304-.737.304-2.112 0-8.027-1.886-8.027-2.057 0-.163-.012-.236-.035-.236-.18 0-.966 4.38-.966 4.743 0-1.063-34.81-.328-34.81-2.505 0-1.032-8.888-3.097-17.778-3.254-8.24-.834-16.48-3.304-17.64-3.304-.09 0-.14.015-.14.048 0-1.56-5.72-10.827-6.224-10.828-.014 0-.024.007-.03.022.056-.74.496-9.235.496-10.228v.003c-.073 0-4.34-15.388-4.73-15.388-.018 0-.028.034-.028.11 0 .102-.014.15-.04.15-.356 0-2.965-9.055-2.965-10.418.014.03.038.046.073.046 1.372 0 19.46-23.212 19.46-24.336" fill="#4B5170"/><path d="M122.016 60.39c0-.38-8.263-15.36-8.263-13.52 0 1.113 5.76-6.602 5.76-4.258 0-.004 3.253 4.097 6.51 6.386 3.254 3.43 6.51 5.19 6.51 6.385 0-1.09 6.635 6.004 6.635 6.26 0 .907-8.638.86-8.638 1.503 0 .16-8.514-1.694-8.514-2.755" fill="#FFDD14"/><path d="M119.234 39.28c-1.772 0-3.1 1.32-5.484 3.845-.246.26-.537.57-.795.835-.74.23-1.372.748-1.742 1.462-.23.44-.345.927-.345 1.448 0 1.208.674 2.228 1.67 2.705 1.665 2.43 5.84 9.86 6.69 11.626.557 2.226 3.44 3.024 6.016 3.736.844.233 4.207 1.105 5.244 1.105.518 0 1.005-.133 1.427-.367.603-.09 1.786-.188 2.617-.258 1.217-.1 2.477-.205 3.498-.357.995-.15 4.024-.6 4.024-3.415 0-1.134-.15-1.584-3.788-5.296-1.712-1.746-2.807-2.745-3.646-3.303-.633-.873-1.6-1.673-2.742-2.62-1.092-.905-2.45-2.03-3.763-3.412-.132-.14-.277-.265-.433-.375-1.87-1.314-4.05-3.596-5.515-5.342-.504-1.317-1.747-2.014-2.933-2.014m-5.4 7.433c.053 0 .132.053.234.152-.103.074-.184.115-.238.115-.05 0-.077-.035-.077-.11 0-.107.028-.157.08-.157m5.4-4.547c.178 0 .28.134.28.446.004 0 3.256 4.098 6.51 6.385 3.254 3.43 6.51 5.193 6.51 6.386 0-.078.034-.114.096-.114.815 0 6.538 6.135 6.538 6.373 0 .906-8.638.86-8.638 1.503 0 .006-.015.01-.042.01-.636 0-8.473-1.747-8.473-2.765 0-.334-6.438-12.05-7.947-13.525 1.015-.73 4.202-4.7 5.166-4.7" fill="#4B5170"/><path d="M161.905 61.616c0-1.993-8.514-4.235-8.514-4.257 0 .154 4.26-8.23 4.26-8.765 0 1.548 21.033 10.934 21.784 8.764.75-.49 10.017 5.79 10.017 5.508v6.76c0-.324-7.01-2.53-7.01-2.253 0-.78 4.006 5.924 4.006 5.26 0 2.272 5.258 7.09 5.258 5.007 0 1.09-9.766.65-9.766 0 0 1.546-6.01-13.18-6.01-12.52 0 1.483-14.023-5.066-14.023-3.506" fill="#FFDD14"/><path d="M157.648 45.71c-1.367 0-2.51.95-2.81 2.225-.454 1.175-3.253 6.756-3.835 7.805-.314.462-.497 1.02-.497 1.62 0 1.344.92 2.477 2.168 2.796l.136.04c4.266 1.23 5.89 2.13 6.41 2.477.42 1.07 1.465 1.828 2.685 1.828.32 0 .626-.05.913-.146 1.186.29 3.584 1.15 5.258 1.75 2.772.994 4.7 1.67 6.1 1.963.357.8.795 1.798 1.182 2.682.8 1.82 1.703 3.887 2.45 5.5 1.236 2.668 1.948 4.207 3.744 4.376.727.22 1.456.3 1.944.353 1.237.134 2.77.21 4.206.21 1.28 0 2.344-.06 3.18-.177.138.016.277.025.414.025 1.878 0 3.294-1.46 3.294-3.396 0-1.594-1.292-2.885-2.885-2.885-.176 0-.35.015-.516.045-.73-.66-1.595-1.677-1.84-2.274.034.002.067.002.1.002 1.594 0 2.886-1.292 2.886-2.886V62.867c0-1.258-.804-2.328-1.928-2.723-.417-.24-1.34-.813-2.1-1.286-5.837-3.63-7.39-4.414-8.754-4.414-.487 0-.958.11-1.382.317-3.48-.48-15.656-5.817-18.068-7.684-.508-.823-1.418-1.37-2.456-1.37m34.057 31.932c0 .356-.154.51-.41.51-.104 0-.226-.026-.36-.075.48-.104.77-.247.77-.435m-2.255-8.013v.014-.015m-36.058-12.27h0m4.256-8.766c0 1.39 16.933 9.09 20.957 9.09.46 0 .752-.102.83-.325.028-.02.068-.03.12-.03 1.283 0 9.507 5.547 9.882 5.547.01 0 .013-.003.013-.01v6.762c0-.302-5.99-2.21-6.896-2.277-.034-.027-.06-.04-.08-.04-.023 0-.035.02-.035.062 0-.016.023-.024.07-.024l.044.003c.62.496 3.557 5.327 3.865 5.327.017 0 .025-.015.025-.046 0 1.724 3.027 4.912 4.49 5.443-.746.16-1.948.228-3.233.228-2.696 0-5.764-.298-5.764-.663 0 .078-.015.114-.043.114-.53 0-5.72-12.656-5.958-12.656-.006 0-.01.007-.01.02 0 .154-.148.222-.414.222-2.045 0-11.026-3.968-13.154-3.968-.292 0-.455.073-.455.242 0-1.972-8.34-4.19-8.51-4.256.12-.09 4.253-8.237 4.253-8.766" fill="#4B5170"/><path d="M143.05 28.65c0 2.205 11.52-7.26 11.52-7.262v15.275c0 1.392 1.752 5.26 0 5.26-1.754 1.812-8.515-.835-8.515 0 0 .628-3.005-5.422-3.005-7.013v-6.26z" fill="#FFDD14"/><path d="M154.57 18.502c-.707 0-1.353.254-1.856.674-2.693 2.224-6.855 5.367-8.877 6.543-.25-.072-.514-.11-.787-.11-1.594 0-2.886 1.292-2.886 2.886V34.91c0 .45 0 1.642 1.65 5.285 1.313 2.904 2.106 4.658 4.22 4.658.31 0 .608-.05.888-.14.28.05.622.115.905.17 1.32.255 2.965.574 4.496.574 1.44 0 2.6-.285 3.507-.865.627-.223 1.177-.614 1.59-1.143 1.3-1.667.766-3.8.294-5.68-.094-.375-.236-.937-.26-1.15V21.387c0-1.593-1.292-2.885-2.885-2.885zm0 2.885V36.75v-.087c0 1.392 1.75 5.258 0 5.258-.468.485-1.29.65-2.247.65-2.117 0-4.887-.816-5.887-.816-.243 0-.38.048-.38.167 0 .032-.008.047-.022.047-.267 0-2.984-5.544-2.984-7.057v-6.414.153c0 .23.125.332.35.332 1.928 0 11.17-7.593 11.17-7.595z" fill="#4B5170"/><path d="M139.486 48.9c.5.354 4.007-3.635 4.007-2.754 0 .817 1.753 7.174 1.753 8.264 0-1.02-2.88 2.416-2.88 2.253 0 .62-2.88-3.86-2.88-7.762" fill="#FFDD14"/><path d="M143.394 43.134c-1.367 0-2.25.792-3.71 2.104-.292.262-.732.657-1.03.9-.17.05-.336.118-.497.202-.956.496-1.556 1.484-1.556 2.56 0 2.474.848 4.88 1.558 6.463 1.585 3.534 2.773 4.244 4.175 4.244.86 0 1.63-.376 2.166-.972.18-.17.35-.352.527-.536.177-.188.532-.56.85-.873 1.29-.288 2.254-1.44 2.254-2.817 0-.842-.303-2.192-1.05-5.303-.27-1.127-.638-2.657-.705-3.11-.076-1.618-1.358-2.863-2.98-2.863m0 2.885c.063 0 .098.04.098.127 0 .816 1.753 7.173 1.753 8.263 0-.132-.05-.19-.133-.19-.55 0-2.632 2.45-2.742 2.45-.003 0-.004-.002-.004-.006 0 .04-.01.058-.033.058-.318 0-2.847-4.165-2.847-7.82.022.014.048.02.08.02.64 0 3.283-2.903 3.828-2.903" fill="#4B5170"/><path d="M130.972 35.158c0-.637 6.26 5.832 6.26 6.01 0 .3-3.13.7-3.13 2.004 0-1.004-6.198-3.225-6.198-3.506 0-.235 3.068-2.647 3.068-4.508" fill="#FFDD14"/><path d="M131.012 32.23c-1.56 0-2.836 1.226-2.92 2.765-.154.378-.728 1.066-1.708 2.047-.67.673-1.365 1.368-1.365 2.624 0 1.973 1.436 2.61 3.425 3.494.784.348 2.497 1.11 3.222 1.56.512.804 1.412 1.337 2.435 1.337 1.113 0 2.08-.63 2.56-1.554.236-.09.522-.185.693-.24.755-.25 2.762-.906 2.762-3.094 0-1.33-.534-1.904-3.752-5.13-3.232-3.24-4.033-3.81-5.353-3.81m0 2.884c.533 0 6.22 5.884 6.22 6.055 0 .3-3.13.7-3.13 2.002 0-1.004-6.198-3.225-6.198-3.506 0-.235 3.068-2.647 3.068-4.508 0-.03.014-.044.04-.044" fill="#4B5170"/><path d="M94.723 54.96c0-.332-5.134 6.17-10.268 12.645C79.322 72.95 74.19 78.985 74.19 80.25c0 .423-5.76-10.686-5.76-9.766 0-.06-10.77 2.345-10.77 3.256 0-.695-2.753-11.507-2.753-10.768 0 .843 11.783-10.788 11.783-10.01C70.508 44.964 77 42.56 85.093 44.02c0 1.53 9.63 12.262 9.63 10.94" fill="#FFF"/><path d="M80.853 40.73c-7.226 0-12.853 3.493-16.33 10.115-1.01.744-2.565 2.164-5.5 4.86-1.636 1.5-4 3.673-5.02 4.494-1.15.386-1.982 1.483-1.982 2.772 0 .5.126.968.347 1.38.52 1.71 2.234 8.5 2.418 9.622.12 1.485 1.362 2.65 2.876 2.65.8 0 1.522-.323 2.044-.846 1.3-.556 5.14-1.538 7.465-2.08.728 1.265 1.734 3.097 2.43 4.363.54.985 1.04 1.893 1.414 2.556.735 1.302 1.43 2.532 3.168 2.532 1.403 0 2.576-1.01 2.837-2.338.594-1.164 3.89-5.348 9.516-11.207.063-.065.124-.134.18-.205l1.123-1.417c3.22-4.064 7.15-9.02 8.437-10.507.807-.53 1.332-1.45 1.332-2.514 0-1.345-.928-2.485-2.176-2.807-1.847-1.63-6.66-7.114-7.527-8.773-.25-1.11-1.144-1.992-2.302-2.2-1.65-.298-3.248-.45-4.752-.45M54.915 62.937c.01 0 .025.027.046.08h-.01c-.03 0-.043-.014-.043-.044 0-.024.002-.036.008-.036m39.8-7.99c.005 0 .008.005.008.013 0 .076-.032.112-.093.112-.018 0-.038-.003-.06-.01.076-.075.125-.115.144-.115m-13.862-11.33c1.357 0 2.772.137 4.24.402 0 1.415 8.245 10.71 9.478 11.043-.89.885-5.503 6.725-10.115 12.542-5.133 5.345-10.267 11.38-10.267 12.646 0 .01-.002.012-.006.012-.2 0-5.312-9.83-5.726-9.832-.018 0-.027.018-.027.055h-.006c-.26 0-10.763 2.355-10.763 3.255 0-.637-2.313-9.776-2.7-10.725.833-.098 11.008-10.09 11.694-10.09.023 0 .036.012.036.037 3.125-6.546 8.042-9.346 14.162-9.346" fill="#4B5170"/><path d="M111.23 106.89c0 .39 4.537 24.284 8.337 24.103 4.367-.958 8.337-21.405 8.337-24.103 0-4.014-3.732-7.09-8.337-8.338-4.604.595-8.337 3.422-8.337 8.338" fill="#F37631"/><path d="M112.673 106.803c.118.76 1.13 6.055 2.558 11.466 2.255 8.55 3.78 10.67 4.28 11.167.617-.472 2.316-2.42 4.472-10.227 1.514-5.48 2.48-11.17 2.48-12.32 0-3.572-3.704-5.905-6.992-6.866-1.907.3-6.744 1.575-6.797 6.78m6.847 25.633c-.692 0-1.355-.297-1.97-.884-4.124-3.932-7.762-24.49-7.762-24.663 0-5.182 3.766-9.016 9.594-9.768l.285-.037.277.075c5.712 1.547 9.403 5.366 9.403 9.73 0 1.16-3.44 24.19-9.47 25.512l-.24.032-.117.003" fill="#4B5170"/><path d="M119.567 111.22c-.15 0-.3-.016-.45-.048-2.215-.47-3.886-2.314-3.886-4.29 0-2.574 1.638-3.207 2.337-3.476.285-.11.39-.155.534-.287.32-.294.72-.485 1.148-.55.96-.14 1.945.17 2.77.88.892.77 1.885 2.368 1.885 3.433 0 2.26-1.626 3.138-2.5 3.61-.205.11-.43.23-.664.382-.353.227-.76.344-1.173.344" fill="#FFF"/><path d="M166.455 219.632c-.104 0-.21-.007-.313-.023-.57-.084-1.083-.39-1.426-.853-.335-.452-.578-.593-.886-.77-.468-.27-1.71-.99-1.71-2.69 0-.912.666-3.8 2.708-4.552 1.086-.4 2.222-.11 3.088.772.2.15.39.286.568.414 1.027.74 2.305 1.66 2.307 3.36v.006c0 .88-.524 1.637-1.278 1.975-.445.62-1.025 1.38-1.76 1.93-.377.282-.832.432-1.297.432" fill="#F1F1F2"/><path d="M181.93 123.31c0 .88 4.538 25.485 8.338 24.103 4.367 1.833 8.336-22.562 8.336-24.103 0-3.935-3.732-8.91-8.336-8.338-4.605-1.78-8.338 1.302-8.338 8.338" fill="#F37631"/><path d="M190.268 145.97c.155 0 .312.026.46.076.322-.21 2.015-1.725 4.228-10.912 1.355-5.622 2.19-11.192 2.206-11.833 0-1.86-1.072-4.063-2.667-5.47-.872-.773-2.278-1.645-4.05-1.426-.236.03-.476 0-.698-.086-1.06-.41-2.606-.71-3.93.198-1.547 1.06-2.436 3.52-2.444 6.752.247 2.77 4.146 20.97 6.645 22.724.083-.014.166-.022.25-.022m.47 2.984c-.18 0-.356-.02-.533-.056-.593.065-1.203-.103-1.76-.492-4.352-3.05-7.957-24.902-7.957-25.097 0-4.283 1.313-7.54 3.696-9.174 1.758-1.204 3.974-1.425 6.27-.63 2.103-.152 4.193.606 5.952 2.16 2.212 1.955 3.642 4.955 3.642 7.643 0 .92-3.03 22.02-7.715 25.135-.508.338-1.053.51-1.596.51" fill="#4B5170"/><path d="M190.268 127.64c-.105 0-.21-.008-.313-.024-.57-.083-1.083-.39-1.426-.852-.336-.452-.58-.592-.887-.77-.468-.27-1.712-.99-1.712-2.69 0-.912.668-3.8 2.71-4.552 1.087-.4 2.223-.11 3.09.772.197.15.387.286.566.414 1.027.74 2.305 1.66 2.308 3.36v.005c0 .88-.526 1.636-1.28 1.975-.444.62-1.024 1.38-1.76 1.93-.377.28-.83.43-1.296.43" fill="#F1F1F2"/></g></svg>