<svg width="46" height="49" viewBox="0 0 46 49" xmlns="http://www.w3.org/2000/svg" xmlns:xlink="http://www.w3.org/1999/xlink"><title>Page 1</title><defs><path id="a" d="M.012 5.84h12.88V.005H.013z"/><path id="c" d="M.005 5.84h12.88V.005H.006V5.84z"/></defs><g fill="none" fill-rule="evenodd"><path d="M33.947 45.503s-2.393 2.06-5.342 2.06c-2.95 0-5.344-.923-5.344-2.06 0-1.138 2.394-2.06 5.345-2.06 2.95 0 5.342 2.06 5.342 2.06" fill="#BAC1E1"/><g transform="translate(22.378 42.58)"><mask id="b" fill="#fff"><use xlink:href="#a"/></mask><path d="M1.754 2.922c.027.08.277.397 1.146.706.897.32 2.078.495 3.326.495 1.565 0 2.97-.667 3.844-1.2-.877-.532-2.287-1.2-3.844-1.2-1.248 0-2.43.174-3.326.493-.868.308-1.12.625-1.146.706m4.472 2.92c-1.532 0-2.987-.237-4.095-.664C.29 4.468.013 3.458.013 2.922c0-.538.276-1.546 2.12-2.256C3.24.24 4.692.004 6.226.004c3.24 0 5.807 2.177 5.915 2.27l.753.647-.752.65c-.107.092-2.675 2.27-5.914 2.27" fill="#57585A" mask="url(#b)"/></g><path d="M41.734 41.375s-2.03 2.408-4.944 2.87c-2.914.462-5.424-.072-5.606-1.195-.185-1.124 2.03-2.41 4.944-2.87 2.912-.463 5.606 1.195 5.606 1.195" fill="#BAC1E1"/><path d="M32.044 42.913c.038.075.336.35 1.244.518.937.175 2.13.163 3.364-.033 1.535-.243 2.82-1.123 3.6-1.786-.952-.388-2.45-.827-3.986-.583-1.234.196-2.373.554-3.207 1.01-.81.442-1.004.794-1.016.876m2.71 2.357c-.714 0-1.385-.062-1.975-.188-1.935-.412-2.37-1.364-2.455-1.895-.055-.335-.032-.858.392-1.437.808-1.105 2.83-2.03 5.272-2.42 3.197-.506 6.083 1.242 6.204 1.317l.847.52-.637.758c-.092.108-2.277 2.66-5.475 3.168-.745.118-1.48.177-2.173.177" fill="#57585A"/><path d="M43.316 31.97s-.12 3.13-2.14 5.254c-2.023 2.12-4.34 3.21-5.182 2.43-.838-.78.12-3.132 2.14-5.252 2.024-2.123 5.182-2.43 5.182-2.43" fill="#BAC1E1"/><path d="M36.592 39.027c.077.036.48.074 1.303-.338.85-.427 1.79-1.156 2.647-2.055 1.072-1.126 1.544-2.593 1.75-3.586-.995.264-2.456.82-3.523 1.94-.855.896-1.535 1.865-1.914 2.728-.367.836-.305 1.234-.264 1.31m.136 1.734c-.474 0-.945-.127-1.33-.484-.924-.857-.53-2.29-.213-3.068.444-1.09 1.266-2.295 2.316-3.397 2.222-2.33 5.588-2.683 5.73-2.697l.993-.097-.037.983c-.006.14-.158 3.48-2.376 5.81-1.052 1.102-2.22 1.986-3.295 2.49-.448.21-1.12.46-1.787.46" fill="#57585A"/><path d="M44.73 22.996s.96 2.986-.22 5.657c-1.178 2.67-2.99 4.467-4.045 4.013-1.057-.454-.96-2.987.22-5.658 1.178-2.67 4.046-4.012 4.046-4.012" fill="#BAC1E1"/><path d="M40.813 31.877c.085.008.48-.093 1.113-.755.654-.684 1.288-1.682 1.786-2.81.62-1.41.564-2.952.42-3.958-.846.58-2.03 1.59-2.65 2.997-.498 1.13-.807 2.27-.868 3.21-.06.907.134 1.26.2 1.317m0 1.716c-.29 0-.526-.067-.697-.14-.5-.215-1.326-.866-1.25-2.818.045-1.172.407-2.582 1.02-3.97 1.293-2.932 4.342-4.385 4.47-4.445l.902-.422.3.938c.044.135 1.042 3.327-.252 6.26-.612 1.387-1.41 2.61-2.25 3.44-.918.912-1.685 1.157-2.244 1.157" fill="#57585A"/><path d="M35.817 16.86s2.453 1.988 2.94 4.86c.487 2.874-.04 5.354-1.177 5.542-1.135.187-2.452-1.99-2.94-4.86-.487-2.874 1.177-5.543 1.177-5.543" fill="#BAC1E1"/><path d="M36.064 18.32c-.387.942-.822 2.424-.565 3.94.205 1.213.575 2.334 1.042 3.154.45.792.808.986.895 1 .077-.04.35-.338.516-1.23.17-.927.15-2.106-.055-3.32-.257-1.516-1.156-2.778-1.834-3.544m1.385 9.81c-.58 0-1.468-.286-2.33-1.71-.61-1.01-1.085-2.386-1.337-3.878-.536-3.154 1.218-6.013 1.293-6.133l.522-.84.77.626c.112.09 2.712 2.228 3.246 5.383.254 1.49.26 2.945.015 4.094-.407 1.91-1.368 2.346-1.905 2.435-.08.012-.174.02-.276.02" fill="#57585A"/><path d="M35.6 26.767s1.713 2.637 1.28 5.52c-.432 2.88-1.707 5.08-2.847 4.914-1.14-.166-1.713-2.638-1.28-5.517.432-2.882 2.846-4.916 2.846-4.916" fill="#BAC1E1"/><path d="M35.382 28.23c-.663.778-1.54 2.058-1.768 3.578-.183 1.218-.18 2.397.007 3.32.183.89.463 1.182.54 1.222.087-.016.44-.215.876-1.015.45-.83.8-1.957.983-3.175.23-1.53-.233-3-.638-3.93m-1.233 9.838c-.09 0-.17-.007-.243-.017-.54-.08-1.51-.495-1.952-2.4-.266-1.144-.288-2.598-.063-4.094.474-3.163 3.034-5.35 3.142-5.442l.76-.64.538.83c.077.118 1.884 2.944 1.41 6.108-.226 1.496-.674 2.88-1.265 3.9-.85 1.468-1.752 1.756-2.328 1.756" fill="#57585A"/><path d="M34.122 37.81s-1.12 2.93-3.722 4.308c-2.6 1.376-5.15 1.68-5.694.678-.545-1.003 1.12-2.932 3.722-4.31 2.6-1.375 5.694-.677 5.694-.677" fill="#BAC1E1"/><path d="M25.474 42.39c.063.058.436.22 1.348.087.943-.138 2.067-.534 3.167-1.116 1.38-.73 2.298-1.974 2.813-2.85-1.028-.06-2.592.008-3.964.734-1.102.583-2.06 1.29-2.697 1.99-.616.676-.684 1.07-.67 1.155m.734 1.853c-.817 0-1.808-.195-2.268-1.04-.6-1.105.234-2.34.785-2.978.772-.894 1.94-1.78 3.29-2.495 2.856-1.51 6.162-.79 6.3-.76l.973.22-.352.922c-.05.132-1.27 3.25-4.124 4.762-1.35.716-2.745 1.187-3.925 1.327-.197.025-.43.043-.68.043" fill="#57585A"/><path d="M42.43 12.418s1.743 2.617 1.345 5.504c-.4 2.884-1.648 5.1-2.79 4.946-1.14-.154-1.744-2.617-1.345-5.504.398-2.884 2.79-4.946 2.79-4.946" fill="#BAC1E1"/><path d="M42.23 13.883c-.655.786-1.518 2.075-1.728 3.597-.17 1.222-.152 2.402.048 3.323.193.89.477 1.176.554 1.213.085-.016.437-.22.864-1.027.44-.835.776-1.965.944-3.184.212-1.532-.267-2.997-.683-3.923m-1.136 9.85c-.082 0-.158-.005-.225-.014-.54-.074-1.516-.48-1.98-2.378-.28-1.14-.32-2.594-.113-4.094.438-3.167 2.972-5.384 3.08-5.477l.752-.647.547.823c.078.118 1.918 2.923 1.48 6.092-.207 1.498-.64 2.888-1.217 3.914-.842 1.494-1.75 1.782-2.326 1.782" fill="#57585A"/><path d="M36.273 7.08s2.544 1.876 3.165 4.723c.62 2.847.213 5.348-.915 5.59-1.126.238-2.542-1.876-3.165-4.723-.62-2.847.915-5.59.915-5.59" fill="#BAC1E1"/><path d="M36.59 8.526c-.343.958-.71 2.46-.38 3.963.262 1.202.685 2.305 1.19 3.103.487.772.853.948.94.958.074-.042.335-.35.458-1.25.127-.932.053-2.11-.21-3.317-.33-1.51-1.286-2.727-1.998-3.457m1.762 9.742c-.578 0-1.44-.285-2.326-1.606-.656-.98-1.195-2.332-1.52-3.81-.68-3.127.936-6.063 1.006-6.187l.482-.862.8.59c.114.084 2.813 2.103 3.495 5.23.322 1.478.395 2.93.206 4.088-.316 1.93-1.256 2.407-1.79 2.52-.1.022-.22.038-.354.038" fill="#57585A"/><path d="M28.165 2.756s3.067.806 4.716 3.222c1.65 2.416 2.21 4.89 1.257 5.525-.957.634-3.068-.808-4.717-3.224-1.65-2.415-1.255-5.524-1.255-5.524" fill="#BAC1E1"/><path d="M29.004 3.98c.042 1.016.268 2.545 1.138 3.82.698 1.022 1.506 1.89 2.276 2.447.742.536 1.147.565 1.232.542.053-.07.178-.452-.047-1.332-.233-.913-.746-1.978-1.444-3-.876-1.282-2.22-2.06-3.156-2.477m4.607 8.53c-.79 0-1.582-.437-2.067-.77-.978-.667-1.988-1.726-2.844-2.98-1.812-2.652-1.416-5.97-1.4-6.11l.125-.978.964.254c.137.036 3.402.92 5.213 3.572.856 1.255 1.47 2.577 1.73 3.722.187.818.342 2.295-.71 2.995-.32.213-.666.296-1.012.296" fill="#57585A"/><path d="M26.992 10.16s3.172.105 5.33 2.093c2.158 1.987 3.27 4.272 2.483 5.103-.787.832-3.173-.105-5.33-2.092-2.158-1.988-2.483-5.104-2.483-5.104" fill="#BAC1E1"/><path d="M28.09 11.168c.27.98.84 2.42 1.978 3.468.914.842 1.9 1.51 2.776 1.88.848.358 1.25.294 1.324.253.036-.078.07-.48-.35-1.29-.435-.836-1.177-1.76-2.09-2.6-1.145-1.054-2.633-1.513-3.64-1.712m5.877 7.347c-.607 0-1.214-.185-1.633-.35-1.105-.433-2.33-1.24-3.45-2.273-2.37-2.183-2.74-5.503-2.756-5.643l-.102-.98.997.032c.144.005 3.526.14 5.896 2.323 1.12 1.032 2.02 2.183 2.536 3.24.367.757.855 2.16-.01 3.076-.407.43-.942.575-1.477.575" fill="#57585A"/><path d="M12.022 45.503s2.393 2.06 5.342 2.06c2.95 0 5.344-.923 5.344-2.06 0-1.138-2.393-2.06-5.344-2.06-2.95 0-5.342 2.06-5.342 2.06" fill="#BAC1E1"/><g transform="translate(10.692 42.58)"><mask id="d" fill="#fff"><use xlink:href="#c"/></mask><path d="M2.828 2.92c.877.534 2.288 1.203 3.844 1.203 1.248 0 2.43-.176 3.327-.495.867-.31 1.118-.626 1.144-.706-.026-.08-.277-.398-1.145-.706-.898-.32-2.08-.494-3.328-.494-1.565 0-2.97.666-3.844 1.198m3.844 2.92C3.434 5.84.865 3.663.758 3.57l-.753-.65.753-.646C.866 2.18 3.434.004 6.672.004c1.533 0 2.987.235 4.095.662 1.844.71 2.12 1.718 2.12 2.256 0 .537-.276 1.545-2.12 2.256-1.108.427-2.562.663-4.095.663" fill="#57585A" mask="url(#d)"/></g><path d="M4.235 41.375s2.03 2.408 4.944 2.87c2.913.462 5.422-.072 5.605-1.195.184-1.124-2.03-2.41-4.944-2.87-2.912-.463-5.605 1.195-5.605 1.195" fill="#BAC1E1"/><path d="M5.717 41.61c.78.664 2.065 1.544 3.6 1.787 1.232.196 2.427.208 3.363.034.91-.168 1.206-.442 1.245-.517-.012-.082-.206-.434-1.015-.876-.834-.456-1.973-.814-3.207-1.01-1.535-.244-3.034.195-3.986.584m5.496 3.66c-.693 0-1.428-.06-2.172-.177-3.198-.507-5.383-3.06-5.474-3.168l-.638-.757.846-.52c.12-.076 3.007-1.824 6.205-1.317 2.443.39 4.463 1.315 5.272 2.42.424.58.447 1.102.392 1.438-.086.53-.52 1.482-2.454 1.894-.59.126-1.26.188-1.977.188" fill="#57585A"/><path d="M2.652 31.97s.12 3.13 2.14 5.254c2.024 2.12 4.342 3.21 5.182 2.43.84-.78-.12-3.132-2.14-5.252-2.023-2.123-5.182-2.43-5.182-2.43" fill="#BAC1E1"/><path d="M3.68 33.047c.208.996.68 2.47 1.747 3.59.857.897 1.796 1.626 2.646 2.052.822.41 1.227.373 1.304.337.04-.075.103-.473-.265-1.31-.38-.862-1.058-1.83-1.912-2.727-1.074-1.126-2.53-1.68-3.52-1.943m5.56 7.715c-.666 0-1.338-.25-1.787-.46-1.073-.503-2.243-1.387-3.294-2.49-2.22-2.33-2.372-5.668-2.377-5.81l-.038-.983.993.096c.142.014 3.51.367 5.73 2.697 1.05 1.102 1.872 2.308 2.316 3.397.317.778.71 2.21-.214 3.07-.384.355-.855.482-1.33.482" fill="#57585A"/><path d="M1.238 22.996s-.958 2.986.22 5.657c1.178 2.67 2.99 4.467 4.046 4.013 1.056-.454.958-2.987-.22-5.658-1.178-2.67-4.046-4.012-4.046-4.012" fill="#BAC1E1"/><path d="M1.837 24.354c-.145 1.006-.202 2.548.42 3.956.498 1.13 1.132 2.128 1.786 2.812.633.662 1.027.763 1.113.755.064-.057.26-.41.2-1.318-.063-.94-.37-2.08-.87-3.21-.62-1.407-1.803-2.415-2.65-2.996m3.32 9.24c-.56 0-1.328-.246-2.246-1.157-.84-.832-1.638-2.054-2.25-3.44-1.294-2.934-.295-6.126-.252-6.26l.3-.94.903.423c.13.06 3.178 1.513 4.473 4.445.61 1.388.973 2.798 1.02 3.97.074 1.952-.752 2.603-1.25 2.818-.172.074-.407.14-.698.14" fill="#57585A"/><path d="M10.152 16.86s-2.453 1.988-2.94 4.86c-.488 2.874.04 5.354 1.176 5.542 1.136.187 2.453-1.99 2.94-4.86.488-2.874-1.176-5.543-1.176-5.543" fill="#BAC1E1"/><path d="M9.904 18.32c-.677.766-1.577 2.028-1.833 3.542-.206 1.216-.225 2.395-.054 3.32.164.894.44 1.19.516 1.232.087-.014.444-.208.895-1 .466-.82.837-1.94 1.042-3.155.257-1.515-.178-2.998-.566-3.94M8.52 28.13c-.102 0-.194-.007-.275-.02-.538-.09-1.5-.525-1.905-2.436-.244-1.15-.24-2.603.014-4.095.534-3.156 3.135-5.295 3.246-5.384l.77-.625.523.84c.075.12 1.83 2.978 1.293 6.133-.253 1.49-.728 2.868-1.337 3.876-.863 1.424-1.753 1.71-2.33 1.71" fill="#57585A"/><path d="M10.37 26.767s-1.715 2.637-1.28 5.52c.43 2.88 1.706 5.08 2.845 4.914 1.14-.166 1.714-2.638 1.28-5.517-.43-2.882-2.846-4.916-2.846-4.916" fill="#BAC1E1"/><path d="M10.59 28.233c-.407.934-.87 2.408-.64 3.927.182 1.218.53 2.346.982 3.175.435.8.79 1 .875 1.015.08-.04.36-.332.54-1.223.188-.922.19-2.1.008-3.318-.228-1.52-1.103-2.8-1.766-3.577m1.23 9.835c-.577 0-1.48-.288-2.33-1.756-.59-1.02-1.038-2.404-1.262-3.9-.476-3.164 1.33-5.99 1.41-6.11l.537-.827.76.64c.108.09 2.667 2.278 3.14 5.442.226 1.495.204 2.95-.062 4.094-.442 1.905-1.41 2.322-1.95 2.4-.072.01-.154.018-.243.018" fill="#57585A"/><path d="M11.847 37.81s1.12 2.93 3.72 4.308c2.602 1.376 5.15 1.68 5.695.678.545-1.003-1.12-2.932-3.72-4.31-2.602-1.375-5.695-.677-5.695-.677" fill="#BAC1E1"/><path d="M13.168 38.506c.517.88 1.44 2.127 2.812 2.855 1.1.583 2.224.98 3.167 1.117.912.133 1.285-.03 1.348-.088.015-.085-.054-.48-.67-1.156-.637-.7-1.594-1.407-2.695-1.99-1.38-.73-2.938-.8-3.962-.738m6.594 5.737c-.25 0-.483-.018-.68-.042-1.18-.14-2.574-.61-3.925-1.326-2.856-1.513-4.074-4.63-4.124-4.762l-.353-.92.973-.22c.14-.032 3.444-.753 6.3.758 1.35.715 2.52 1.6 3.29 2.495.55.638 1.386 1.873.787 2.977-.46.846-1.45 1.04-2.268 1.04" fill="#57585A"/><path d="M3.54 12.418s-1.745 2.617-1.346 5.504c.398 2.884 1.647 5.1 2.788 4.946 1.143-.154 1.745-2.617 1.347-5.504-.4-2.884-2.79-4.946-2.79-4.946" fill="#BAC1E1"/><path d="M3.742 13.886c-.416.93-.896 2.398-.686 3.92.17 1.22.504 2.35.944 3.183.427.807.78 1.01.864 1.026.078-.037.362-.323.555-1.213.198-.92.215-2.1.047-3.323-.21-1.52-1.07-2.808-1.725-3.594m1.133 9.848c-.576 0-1.484-.288-2.326-1.782-.58-1.026-1.01-2.416-1.218-3.914-.438-3.17 1.4-5.974 1.48-6.092l.548-.823.752.648c.107.094 2.642 2.31 3.08 5.478.206 1.5.167 2.954-.113 4.094-.465 1.9-1.44 2.304-1.98 2.377-.068.008-.143.014-.225.014" fill="#57585A"/><path d="M9.695 7.08S7.15 8.957 6.53 11.804c-.62 2.847-.212 5.348.915 5.59 1.126.238 2.543-1.876 3.165-4.723.62-2.847-.915-5.59-.915-5.59" fill="#BAC1E1"/><path d="M9.38 8.53c-.713.733-1.672 1.953-2 3.453-.262 1.207-.337 2.385-.21 3.318.124.9.384 1.208.46 1.25.085-.01.452-.185.94-.957.504-.798.926-1.9 1.19-3.105.327-1.5-.038-3-.38-3.96m-1.764 9.74c-.134 0-.253-.015-.354-.037-.533-.113-1.474-.59-1.79-2.52-.19-1.157-.115-2.61.207-4.088.68-3.126 3.38-5.145 3.495-5.23l.8-.59.482.863c.07.124 1.686 3.06 1.004 6.186-.322 1.48-.862 2.833-1.518 3.812-.885 1.32-1.748 1.606-2.326 1.606" fill="#57585A"/><path d="M17.804 2.756s-3.068.806-4.717 3.222c-1.65 2.416-2.21 4.89-1.255 5.525.956.634 3.067-.808 4.716-3.224 1.65-2.415 1.256-5.524 1.256-5.524" fill="#BAC1E1"/><path d="M12.32 10.79c.083.022.49-.007 1.23-.543.77-.556 1.578-1.425 2.276-2.448.876-1.282 1.1-2.805 1.142-3.817-.938.42-2.29 1.2-3.16 2.475-.696 1.022-1.21 2.087-1.442 3-.225.88-.1 1.262-.047 1.33m.037 1.723c-.345 0-.69-.082-1.01-.294-1.053-.7-.9-2.178-.713-2.996.26-1.145.875-2.467 1.732-3.722 1.81-2.652 5.075-3.536 5.214-3.572l.963-.254.124.977c.018.14.413 3.458-1.397 6.11-.857 1.254-1.867 2.313-2.844 2.98-.486.333-1.278.77-2.07.77" fill="#57585A"/><path d="M18.977 10.16s-3.172.105-5.33 2.093c-2.158 1.987-3.27 4.272-2.484 5.103.787.832 3.174-.105 5.33-2.092 2.158-1.988 2.484-5.104 2.484-5.104" fill="#BAC1E1"/><path d="M11.8 16.77c.076.04.477.104 1.324-.255.877-.37 1.863-1.037 2.776-1.88 1.137-1.047 1.706-2.484 1.98-3.464-1.01.202-2.502.663-3.64 1.71-.912.84-1.654 1.764-2.09 2.6-.42.81-.385 1.212-.35 1.29m.203 1.745c-.535 0-1.07-.144-1.476-.574-.865-.914-.378-2.318-.01-3.074.514-1.058 1.415-2.21 2.535-3.24 2.37-2.183 5.753-2.32 5.895-2.324l.998-.033-.103.98c-.014.14-.386 3.46-2.754 5.642-1.12 1.032-2.347 1.84-3.452 2.273-.42.165-1.026.35-1.633.35" fill="#57585A"/><path d="M22.965 1.356S25.05 3.718 25.05 6.63c0 2.91-.933 5.273-2.085 5.273-1.153 0-2.088-2.362-2.088-5.273 0-2.912 2.088-5.274 2.088-5.274" fill="#FFCD20"/><path d="M22.964 2.838c-.54.866-1.217 2.257-1.217 3.792 0 1.232.178 2.397.502 3.282.312.857.633 1.104.715 1.13.08-.026.402-.273.715-1.13.322-.885.5-2.05.5-3.283 0-1.535-.676-2.926-1.216-3.792m0 9.924c-.544 0-1.566-.272-2.286-2.09-.433-1.095-.67-2.53-.67-4.042 0-3.197 2.207-5.732 2.3-5.84l.657-.74.656.742c.095.106 2.3 2.64 2.3 5.837 0 1.512-.237 2.947-.67 4.04-.72 1.82-1.74 2.092-2.285 2.092" fill="#57585A"/></g></svg>