<svg width="58" height="53" viewBox="0 0 58 53" xmlns="http://www.w3.org/2000/svg" xmlns:xlink="http://www.w3.org/1999/xlink"><title>Page 1</title><defs><path id="a" d="M24.995 5.508V.048H.017v5.46h24.978z"/></defs><g fill="none" fill-rule="evenodd"><path d="M53.51 42.328c-3.356 7.916-12.51 11.62-20.45 8.274-7.936-3.346-11.65-12.476-8.296-20.392 3.356-7.915 12.51-11.62 20.45-8.274 7.936 3.347 11.65 12.476 8.295 20.392" fill="#FFCD20"/><path d="M39.138 21.802c-1.845 0-3.69.356-5.453 1.07-3.588 1.45-6.395 4.21-7.903 7.767-1.508 3.557-1.537 7.487-.08 11.066 1.456 3.578 4.222 6.378 7.79 7.88 3.567 1.505 7.508 1.534 11.097.08 3.587-1.45 6.394-4.21 7.902-7.767l1.018.428-1.018-.43c1.508-3.556 1.537-7.487.08-11.065-1.456-3.58-4.222-6.378-7.79-7.882-1.816-.765-3.73-1.148-5.644-1.148m-.003 31.138c-2.206 0-4.41-.44-6.504-1.324-4.11-1.733-7.297-4.958-8.975-9.082-1.678-4.124-1.645-8.653.092-12.752 1.738-4.1 4.972-7.28 9.108-8.952 4.135-1.674 8.677-1.64 12.787.092 4.11 1.733 7.3 4.958 8.977 9.082 1.677 4.124 1.644 8.653-.093 12.753-1.738 4.1-4.973 7.278-9.108 8.95-2.03.823-4.158 1.233-6.285 1.233" fill="#57585A"/><path d="M45.213 21.936L33.06 50.602" fill="#FFCD20"/><path fill="#57585A" d="M34.08 51.03l-2.036-.857 12.15-28.665 2.036.857"/><path d="M24.764 30.21L53.51 42.328" fill="#FFCD20"/><path fill="#57585A" d="M53.08 43.342L24.333 31.225l.86-2.03L53.94 41.314"/><path d="M43.66 51.254c-.887-2.045-1.35-4.206-1.376-6.425-.028-2.298.417-4.545 1.32-6.677 1.74-4.1 4.973-7.28 9.11-8.952l.83 2.042c-3.59 1.452-6.396 4.21-7.904 7.768-.785 1.852-1.17 3.8-1.148 5.793.023 1.925.425 3.802 1.195 5.577l-2.028.874zM25.415 44.033l-.704-2.088c3.936-1.32 7.12-4.264 8.735-8.075 1.615-3.81 1.514-8.14-.278-11.875l1.993-.95c2.064 4.304 2.18 9.29.32 13.682-1.862 4.392-5.53 7.783-10.065 9.306" fill="#57585A"/><path d="M15.196 42.53c-1.002 2.707-4.015 4.09-6.73 3.09-2.712-1-4.1-4.004-3.097-6.71 1.002-2.707 4.014-4.09 6.728-3.09 2.714 1 4.1 4.004 3.098 6.71" fill="#FEFEFE"/><path d="M10.28 36.595c-.588 0-1.175.127-1.726.38-1.003.46-1.766 1.283-2.15 2.316-.79 2.133.308 4.51 2.446 5.297 2.138.788 4.52-.306 5.31-2.438.79-2.134-.306-4.51-2.445-5.297-.467-.172-.95-.258-1.435-.258m-.004 10.45c-.73 0-1.47-.126-2.192-.392-3.28-1.21-4.963-4.854-3.75-8.125.586-1.585 1.757-2.847 3.296-3.553 1.54-.707 3.262-.774 4.85-.188 3.28 1.21 4.964 4.854 3.752 8.125-.945 2.55-3.376 4.133-5.956 4.133" fill="#57585A"/><path d="M11.372 45.996c-.767-1.567-.856-3.33-.25-4.967.587-1.586 1.758-2.847 3.297-3.554l.923 2c-1.003.46-1.766 1.284-2.15 2.317-.394 1.066-.336 2.215.164 3.237l-1.985.966zM6.067 44.217l-.8-2.053c1.104-.428 1.972-1.308 2.382-2.415.41-1.107.323-2.34-.237-3.38l1.947-1.04c.858 1.596.99 3.485.36 5.183-.63 1.697-1.96 3.047-3.653 3.704" fill="#57585A"/><path d="M21.886 27.547c-3.945 4.49-9.292 5.686-14.81 1.36C.302 23.593-.887 13.818 4.434 7.056c5.32-6.76 15.13-7.94 21.908-2.634C29.88 7.19 19.9 16.2 20.262 20.34c.332 3.796 4.34 4.115 1.624 7.207" fill="#BAC1E1"/><path d="M16.738 2.203c-.586 0-1.175.035-1.765.106-3.845.462-7.28 2.39-9.67 5.428-2.39 3.038-3.452 6.822-2.987 10.655.464 3.833 2.397 7.26 5.443 9.647 2.41 1.89 4.823 2.698 7.172 2.4 2.167-.274 4.285-1.526 6.123-3.618.33-.377.714-.9.66-1.25-.046-.294-.36-.687-.725-1.142-.7-.873-1.66-2.07-1.83-3.994-.188-2.166 1.636-4.943 3.567-7.883 1.125-1.713 2.29-3.485 2.88-4.927.738-1.8.24-2.19.053-2.337-2.58-2.02-5.694-3.087-8.922-3.087m-2.775 30.5c-2.543 0-5.083-.982-7.57-2.93-3.508-2.753-5.735-6.7-6.27-11.116C-.412 14.24.81 9.88 3.565 6.377 6.32 2.878 10.278.656 14.708.123c4.43-.532 8.805.687 12.316 3.435.732.573 1.14 1.385 1.18 2.348.03.74-.15 1.575-.552 2.554-.672 1.638-1.895 3.5-3.077 5.3-1.564 2.38-3.336 5.08-3.213 6.485.11 1.26.742 2.048 1.353 2.81.923 1.152 2.188 2.73 0 5.218-2.198 2.504-4.794 4.01-7.505 4.352-.415.053-.83.08-1.247.08" fill="#57585A"/><g transform="translate(32.752 7.377)"><mask id="b" fill="#fff"><use xlink:href="#a"/></mask><path d="M2.326 3.17l.004.04c.544-.052 1.092-.108 1.642-.167-.552.04-1.1.082-1.646.126m-.994 2.338C.768 5.508.288 5.08.234 4.51L.022 2.27c-.027-.292.063-.583.25-.808.187-.225.456-.366.748-.393l.01-.002c10.3-.9 22.726-1.02 22.85-1.02h.01c.567 0 1.043.428 1.1.992.057.566-.33 1.083-.89 1.19-.122.024-12.356 2.374-22.67 3.274-.033.003-.066.004-.098.004" fill="#57585A" mask="url(#b)"/></g><path d="M28.187 11.183l.005.05 4.695-.44-.005-.05-4.695.44zm-.992 2.352c-.563 0-1.044-.427-1.098-.998l-.212-2.244c-.057-.606.39-1.143.996-1.2l6.895-.647c.29-.028.582.062.807.248.226.186.368.455.396.745l.212 2.244c.057.605-.39 1.142-.997 1.2l-6.893.647c-.035.004-.07.005-.105.005z" fill="#57585A"/><path d="M24.145 9.78c3.79-.357 2.66.874 2.755 1.864.093.99 1.373 1.366-2.416 1.722-3.79.356-6.937-.16-7.03-1.15-.094-.99 2.902-2.082 6.69-2.437" fill="#57585A"/><path d="M12.127 9.593c-.307 1.047-1.416 1.653-2.466 1.347-1.048-.305-1.656-1.412-1.35-2.458.307-1.047 1.416-1.653 2.466-1.347 1.05.305 1.657 1.412 1.35 2.458" fill="#FFCD20"/><path d="M10.22 8.156c-.383 0-.737.25-.85.635-.065.224-.038.462.076.67.114.208.3.358.525.423.225.066.464.04.672-.075.208-.114.36-.3.425-.523.136-.467-.133-.957-.6-1.093-.083-.024-.166-.036-.248-.036m0 3.966c-.29 0-.583-.04-.868-.124-.79-.23-1.445-.756-1.843-1.48-.4-.724-.49-1.556-.26-2.345.478-1.632 2.2-2.572 3.836-2.095 1.636.476 2.58 2.192 2.1 3.824-.23.79-.757 1.44-1.483 1.838-.463.253-.972.382-1.484.382" fill="#57585A"/><path d="M19.192 6.683c-.307 1.047-1.416 1.653-2.466 1.347-1.05-.305-1.657-1.412-1.35-2.458.306-1.047 1.415-1.653 2.465-1.348 1.05.306 1.658 1.413 1.352 2.46" fill="#86AC5A"/><path d="M17.287 5.247c-.147 0-.293.037-.427.11-.208.114-.36.3-.424.523-.137.467.132.957.6 1.093.468.136.96-.132 1.096-.6.065-.222.04-.46-.076-.668-.114-.208-.3-.358-.525-.423-.08-.024-.16-.035-.243-.035m-.005 3.964c-.286 0-.577-.04-.865-.123-1.637-.476-2.58-2.192-2.102-3.824.23-.79.758-1.44 1.484-1.838.725-.396 1.56-.488 2.35-.258.79.23 1.446.756 1.843 1.48.398.724.49 1.556.26 2.345-.395 1.344-1.632 2.22-2.97 2.22" fill="#57585A"/><path d="M8.7 16.34c-.308 1.048-1.417 1.654-2.467 1.348-1.05-.305-1.657-1.412-1.35-2.458.306-1.047 1.415-1.653 2.465-1.347 1.05.305 1.657 1.412 1.35 2.458" fill="#F37630"/><path d="M6.794 14.905c-.147 0-.293.037-.427.11-.208.114-.36.3-.425.524-.136.465.133.955.6 1.09.47.137.96-.13 1.097-.597.064-.224.037-.462-.077-.67-.114-.207-.3-.358-.525-.423-.08-.024-.162-.035-.244-.035M6.79 18.87c-.287 0-.578-.04-.866-.124-1.637-.477-2.58-2.193-2.102-3.825.23-.787.758-1.44 1.484-1.837.726-.396 1.56-.488 2.35-.257.792.23 1.447.755 1.844 1.48.398.723.49 1.555.26 2.344-.395 1.345-1.632 2.22-2.97 2.22" fill="#57585A"/><path d="M10.02 23.854C9.716 24.9 8.606 25.507 7.557 25.2c-1.05-.304-1.658-1.41-1.35-2.457.305-1.047 1.415-1.653 2.464-1.348 1.05.306 1.658 1.413 1.35 2.46" fill="#BAC1E1"/><path d="M8.116 22.418c-.147 0-.293.037-.426.11-.21.114-.36.3-.425.523-.137.468.133.958.6 1.094.468.136.96-.132 1.096-.6.138-.465-.132-.955-.6-1.09-.08-.025-.162-.036-.244-.036m-.004 3.964c-.287 0-.578-.04-.866-.124-1.637-.476-2.58-2.192-2.1-3.824.23-.79.757-1.44 1.482-1.838.726-.396 1.56-.488 2.352-.258 1.637.477 2.58 2.193 2.1 3.825-.393 1.344-1.63 2.22-2.968 2.22" fill="#57585A"/><path d="M29.063 30.203c-.165 0-.333-.037-.49-.115-.547-.27-.77-.932-.498-1.477 1.08-2.163 1.796-2.7 4.156-3.887.545-.274 1.21-.055 1.484.488.275.544.056 1.206-.49 1.48-2.16 1.087-2.41 1.377-3.17 2.902-.194.387-.585.61-.99.61" fill="#FEFEFE"/></g></svg>