<svg width="56" height="47" viewBox="0 0 56 47" xmlns="http://www.w3.org/2000/svg" xmlns:xlink="http://www.w3.org/1999/xlink"><title>Page 1</title><defs><path id="a" d="M13.69 9.94V.042H.06V9.94H13.69z"/></defs><g fill="none" fill-rule="evenodd"><path fill="#BAC1E1" d="M10.9 9.795l5.865 20.423 25.765-3.01-3.507-17.413"/><path d="M46.893 40.87c0 2.405-1.954 4.356-4.363 4.356-2.41 0-4.363-1.95-4.363-4.357 0-2.408 1.953-4.36 4.363-4.36s4.363 1.952 4.363 4.36" fill="#FFCD20"/><path d="M42.53 37.88c-1.65 0-2.993 1.34-2.993 2.988 0 1.65 1.342 2.99 2.993 2.99 1.65 0 2.993-1.34 2.993-2.99 0-1.648-1.343-2.99-2.993-2.99m0 8.716c-3.16 0-5.733-2.568-5.733-5.726 0-3.157 2.572-5.725 5.733-5.725 3.16 0 5.732 2.568 5.732 5.725 0 3.158-2.57 5.726-5.732 5.726" fill="#57585A"/><path d="M34.34 29.233c0 8.787-7.132 15.91-15.93 15.91S2.48 38.02 2.48 29.233c0-8.787 7.132-15.91 15.93-15.91s15.93 7.123 15.93 15.91" fill="#FFCD20"/><path d="M18.41 14.69c-8.028 0-14.56 6.524-14.56 14.543 0 8.018 6.532 14.542 14.56 14.542 8.03 0 14.56-6.524 14.56-14.542 0-8.02-6.53-14.542-14.56-14.542m0 31.82c-4.62 0-8.965-1.796-12.233-5.06C2.91 38.187 1.11 33.848 1.11 29.233c0-4.616 1.8-8.955 5.067-12.218 3.268-3.263 7.612-5.06 12.233-5.06 4.62 0 8.966 1.797 12.233 5.06 3.268 3.263 5.067 7.602 5.067 12.218 0 4.615-1.8 8.954-5.067 12.217-3.267 3.264-7.612 5.06-12.233 5.06" fill="#57585A"/><path d="M12.498 15.824c-.57 0-1.1-.358-1.296-.926L7.626 4.464c-.114-.333-.62-.757-.968-.81l-5.5-.855C.413 2.68-.1 1.982.017 1.235.133.49.833-.022 1.58.096l5.5.853c1.347.208 2.697 1.338 3.138 2.627l3.576 10.435c.245.715-.136 1.493-.852 1.737-.147.05-.297.074-.444.074" fill="#57585A"/><path d="M41.067 35.748l-.746-6.732c-.012-.105-.116-.188-.22-.176l-5.615.594-.29-2.72 5.615-.595c.063-.008.126-.013.19-.015L38.38 11.5c-.018-.16-.215-.337-.377-.337H10.9V8.426h27.105c1.566 0 2.928 1.218 3.1 2.772l1.94 17.508v.012l.745 6.73-2.723.3z" fill="#57585A"/><g transform="translate(41.724 28.378)"><mask id="b" fill="#fff"><use xlink:href="#a"/></mask><path d="M9.38 9.94c-1.162 0-2.282-.68-2.768-1.794L4.538 3.39c-.127-.29-.616-.61-.935-.61H.063V.042h3.54c1.405 0 2.886.97 3.447 2.255l2.074 4.755c.05.114.213.182.33.137l3.238-1.266.997 2.55-3.24 1.264c-.348.136-.71.2-1.07.2" fill="#57585A" mask="url(#b)"/></g><path d="M22.773 29.233c0 2.406-1.953 4.357-4.363 4.357s-4.363-1.95-4.363-4.357S16 24.875 18.41 24.875c2.41 0 4.363 1.95 4.363 4.358" fill="#F5F3F1"/><path d="M18.41 26.243c-1.65 0-2.993 1.34-2.993 2.99 0 1.648 1.343 2.99 2.993 2.99s2.993-1.342 2.993-2.99c0-1.65-1.342-2.99-2.993-2.99m0 8.715c-3.16 0-5.733-2.568-5.733-5.725 0-3.157 2.572-5.726 5.733-5.726 3.16 0 5.733 2.57 5.733 5.726 0 3.157-2.572 5.725-5.733 5.725" fill="#57585A"/><path d="M8.393 24.11c-.205 0-.413-.046-.61-.144-.677-.336-.953-1.157-.616-1.834 1.34-2.69 2.227-3.356 5.154-4.83.677-.34 1.5-.07 1.842.605.34.675.07 1.498-.607 1.838-2.68 1.35-2.992 1.71-3.935 3.605-.24.48-.724.76-1.227.76" fill-opacity=".6" fill="#FEFEFE"/></g></svg>