<svg width="46" height="58" viewBox="0 0 46 58" xmlns="http://www.w3.org/2000/svg"><title>Page 1</title><g fill="none" fill-rule="evenodd"><path fill="#BAC1E1" d="M44.163 55.89H1.283V1.39h31.642l11.238 11.215"/><path d="M2.568 54.61h40.31V13.135L32.394 2.67H2.568v51.94zm41.595 2.562H1.283c-.708 0-1.283-.574-1.283-1.28V1.39C0 .682.575.108 1.284.108h31.64c.342 0 .67.135.91.376L45.07 11.7c.242.24.377.565.377.905V55.89c0 .708-.575 1.282-1.284 1.282z" fill="#57585A"/><path d="M32.925 13.886c-.71 0-1.284-.574-1.284-1.28V1.39c0-.708.576-1.282 1.285-1.282.71 0 1.284.574 1.284 1.282v11.215c0 .707-.576 1.28-1.285 1.28" fill="#57585A"/><path d="M44.163 13.886H32.925c-.71 0-1.284-.574-1.284-1.28 0-.71.576-1.283 1.285-1.283h11.238c.71 0 1.284.574 1.284 1.282 0 .707-.575 1.28-1.284 1.28M26.62 33.39H5.972c-.71 0-1.284-.575-1.284-1.283 0-.707.575-1.28 1.284-1.28H26.62c.71 0 1.284.573 1.284 1.28 0 .708-.575 1.282-1.284 1.282M26.793 40.606H6.145c-.71 0-1.284-.574-1.284-1.28 0-.71.576-1.283 1.285-1.283h20.648c.71 0 1.284.574 1.284 1.282 0 .707-.575 1.28-1.284 1.28M26.793 47.823H6.145c-.71 0-1.284-.574-1.284-1.28 0-.71.576-1.283 1.285-1.283h20.648c.71 0 1.284.574 1.284 1.282 0 .707-.575 1.28-1.284 1.28M8.506 11.19h.61c.48 0 1.165-.13 1.554-.5.24-.24.407-.645.407-1.033 0-.37-.148-.775-.426-1.034-.295-.295-.83-.48-1.534-.48h-.61v3.046zM10.3 5.67c.925 0 2.11.148 3.015 1.09.703.72 1.054 1.79 1.054 2.768 0 1.052-.37 1.975-.98 2.566-.482.46-1.13.738-1.703.85l5.512 7.405h-3.39l-5.304-7.093v4.725h-3.2V5.67H10.3z" fill="#57585A"/><path fill="#57585A" d="M14.334 11.97l-2.543 3.907-3.284 4.472h2.63l1.89-2.727 3.99-5.653M44.163 13.886c-.33 0-.657-.125-.908-.375L32.017 2.297c-.5-.5-.5-1.312 0-1.812.502-.5 1.315-.5 1.816 0L45.07 11.698c.502.5.502 1.312 0 1.813-.25.25-.578.376-.907.376"/><path fill="#FFCD20" d="M32.925 1.355V12.57h11.238"/><path d="M34.21 11.288h6.853l-6.854-6.84v6.84zm9.953 2.563H32.925c-.71 0-1.284-.573-1.284-1.28V1.355c0-.52.314-.986.794-1.184.48-.197 1.032-.088 1.4.28L45.07 11.663c.368.366.478.917.28 1.396-.2.48-.668.79-1.187.79z" fill="#57585A"/></g></svg>