<svg width="50" height="49" viewBox="0 0 50 49" xmlns="http://www.w3.org/2000/svg" xmlns:xlink="http://www.w3.org/1999/xlink"><title>Page 1 Copy 12</title><defs><path id="a" d="M0 48.758h49.078V.013H0z"/></defs><g fill="none" fill-rule="evenodd"><path d="M36.51 36.323c-5.933 5.893-15.176 6.497-21.788 1.812L38.334 14.68c4.72 6.567 4.11 15.75-1.823 21.643M12.57 12.543c5.846-5.808 14.907-6.48 21.497-2.016L10.51 33.93c-4.413-6.536-3.756-15.613 2.058-21.388M24.538 1.1C11.566 1.1 1.05 11.546 1.05 24.432c0 12.886 10.517 23.332 23.49 23.332 12.975 0 23.493-10.446 23.493-23.332C48.03 11.546 37.514 1.1 24.54 1.1" fill="#FFCD20"/><g transform="translate(0 .047)"><mask id="b" fill="#fff"><use xlink:href="#a"/></mask><path d="M24.554 8.608c-4.1 0-8.173 1.572-11.246 4.623-2.61 2.595-4.23 6.062-4.56 9.766-.288 3.22.405 6.446 1.96 9.218L32.392 10.67c-2.44-1.384-5.145-2.062-7.84-2.062zM10.348 35.514l-.71-1.05c-2.288-3.39-3.346-7.53-2.978-11.652.373-4.19 2.208-8.114 5.167-11.053 6.105-6.064 15.705-6.964 22.828-2.14l1.044.708-25.352 25.186zm6.025 2.406c2.813 1.674 6.11 2.45 9.416 2.192 3.762-.294 7.307-1.917 9.98-4.572 2.673-2.655 4.308-6.176 4.603-9.914.26-3.283-.52-6.56-2.208-9.353L16.373 37.92zm8.17 4.32c-3.732 0-7.39-1.15-10.43-3.304l-1.007-.714 25.362-25.194.72 1c2.44 3.4 3.604 7.575 3.274 11.76-.334 4.232-2.185 8.218-5.21 11.224-3.026 3.005-7.04 4.842-11.3 5.174-.47.037-.94.055-1.408.055zM24.54 2.095c-3.03 0-5.97.59-8.737 1.75-2.672 1.124-5.072 2.73-7.134 4.78-2.063 2.046-3.68 4.43-4.81 7.085-1.17 2.746-1.765 5.666-1.765 8.675 0 3.01.594 5.93 1.764 8.677 1.13 2.654 2.747 5.038 4.81 7.086 2.06 2.047 4.46 3.655 7.133 4.778 2.767 1.162 5.706 1.75 8.736 1.75 3.03 0 5.97-.588 8.735-1.75 2.672-1.123 5.073-2.73 7.134-4.778 2.06-2.048 3.68-4.432 4.81-7.086 1.17-2.748 1.763-5.667 1.763-8.677s-.593-5.93-1.763-8.676c-1.13-2.656-2.75-5.04-4.81-7.087-2.062-2.048-4.463-3.655-7.135-4.778-2.766-1.162-5.706-1.75-8.736-1.75zm0 46.664c-3.313 0-6.527-.644-9.553-1.916-2.922-1.227-5.546-2.984-7.8-5.223-2.253-2.24-4.022-4.845-5.258-7.747C.65 30.867 0 27.675 0 24.385c0-3.29.65-6.482 1.93-9.487 1.235-2.902 3.004-5.51 5.257-7.747 2.254-2.237 4.878-3.994 7.8-5.222C18.013.658 21.227.013 24.54.013c3.31 0 6.525.644 9.55 1.915 2.923 1.228 5.548 2.985 7.8 5.223 2.254 2.24 4.023 4.846 5.26 7.748 1.28 3.005 1.928 6.197 1.928 9.487s-.65 6.482-1.93 9.488c-1.235 2.902-3.004 5.508-5.257 7.746-2.252 2.238-4.877 3.995-7.8 5.222-3.025 1.272-6.24 1.916-9.55 1.916z" fill="#57585A" mask="url(#b)"/></g><path d="M6.11 16.316c-.16 0-.322-.037-.474-.113-.516-.26-.723-.886-.46-1.4 2.306-4.517 5.81-7.84 10.414-9.873.528-.233 1.148.003 1.383.528.235.525-.003 1.14-.532 1.374-4.15 1.834-7.313 4.833-9.396 8.913-.185.362-.553.57-.935.57" fill-opacity=".6" fill="#FEFEFE"/></g></svg>