<svg width="217" height="230" viewBox="0 0 217 230" xmlns="http://www.w3.org/2000/svg" xmlns:xlink="http://www.w3.org/1999/xlink"><title>Page 1</title><defs><path id="a" d="M53.838 54.224V.584H.088v53.64h53.75z"/><path id="c" d="M93.554.46H.407v92.944h93.147z"/></defs><g fill="none" fill-rule="evenodd"><path d="M187.788 136.442c0 2.606-.075 5.222-.23 7.837-1.185 33.57-23.194 64.88-54.02 77.93-1.864.786-3.76 1.514-5.684 2.182-1.924.666-3.876 1.273-5.855 1.816-7.916 2.172-16.25 3.333-24.857 3.333-14.754 0-28.71-3.41-41.12-9.483-3.102-1.517-6.108-3.202-9.004-5.042-6.803-4.7-13.082-10.22-18.625-16.386-1.85-2.055-3.615-4.182-5.292-6.375-4.06-5.498-7.513-11.447-10.317-17.694-2.804-5.935-4.958-13.254-6.418-19.477-.73-3.8-1.287-6.825-1.663-10.12-.323-2.843-.536-4.4-.634-7.336-.138-6.554.29-10.938 1.225-15.993.933-4.45 2.37-10.78 4.245-15.422 1.876-4.877 4.19-9.4 6.875-14.07 2.685-4.498 5.743-9.37 9.11-13.782 1.92-1.76 3.944-4.253 6.06-6.94 4.733-5.168 10.018-9.59 15.703-12.76 5.686-3.598 11.77-6.428 18.103-9.25 3.166-.39 6.394-2.304 9.665-3.165 5.206-1.023 10.496-1.395 15.8-2.716 5.303-.654 10.623-.35 15.89.275 10.538 1.13 20.87 4.104 30.465 8.617 9.596 4.512 18.456 10.563 26.048 17.848 2.115 2.024 4.128 4.055 6.02 6.272 5.504 7.198 9.543 15.352 12.522 23.933.993 2.862 1.863 5.768 2.606 8.7 1.5 5.594 1.967 11.668 2.736 17.745.337 3.62.577 7.288.646 9.522" fill="#F6F3F1"/><path d="M27.53 172.453c0 4.72-3.834 8.545-8.563 8.545-4.73 0-8.564-3.826-8.564-8.545 0-4.72 3.834-8.545 8.564-8.545s8.564 3.826 8.564 8.545" fill="#BAC2E2"/><path d="M18.967 165.355c-3.923 0-7.114 3.183-7.114 7.098s3.19 7.1 7.114 7.1c3.922 0 7.113-3.185 7.113-7.1 0-3.915-3.19-7.098-7.113-7.098m0 17.09c-5.52 0-10.013-4.482-10.013-9.992 0-5.51 4.492-9.992 10.013-9.992 5.52 0 10.012 4.484 10.012 9.993 0 5.51-4.492 9.992-10.013 9.992" fill="#4B5170"/><path d="M36.094 182.445c0 4.718-3.834 8.544-8.563 8.544-4.73 0-8.563-3.827-8.563-8.545 0-4.72 3.834-8.546 8.564-8.546s8.564 3.825 8.564 8.545" fill="#BAC2E2"/><path d="M27.53 175.346c-3.922 0-7.113 3.184-7.113 7.098 0 3.915 3.19 7.1 7.114 7.1s7.114-3.185 7.114-7.1c0-3.914-3.19-7.098-7.113-7.098m0 17.09c-5.52 0-10.012-4.482-10.012-9.992 0-5.51 4.492-9.99 10.013-9.99 5.522 0 10.014 4.48 10.014 9.99s-4.492 9.992-10.013 9.992" fill="#4B5170"/><path d="M107.053 124.014l-37.68 51.54c-.708.968-2.068 1.18-3.038.474l-23.193-16.882c-.97-.706-1.183-2.064-.475-3.032l37.68-51.54c.708-.968 2.068-1.18 3.04-.474l23.19 16.882c.97.706 1.184 2.063.476 3.032" fill="#86AC5B"/><path d="M107.053 124.014h.007-.007zm-24.95-18.884c-.042 0-.08.003-.11.008-.113.017-.32.078-.475.288l-37.68 51.54c-.154.21-.148.428-.13.54.017.11.078.318.29.47l23.19 16.884c.324.236.778.163 1.013-.16l37.68-51.54c.237-.32.166-.774-.157-1.01L82.53 105.27c-.153-.113-.31-.14-.426-.14zm-14.492 72.76c-.74 0-1.486-.225-2.13-.693L42.29 160.315c-.782-.57-1.296-1.41-1.445-2.363-.15-.954.083-1.91.653-2.69l37.68-51.54c.57-.782 1.41-1.294 2.368-1.443.955-.15 1.913.08 2.695.65l23.192 16.883c1.614 1.176 1.97 3.443.792 5.053l-37.68 51.54c-.708.97-1.813 1.484-2.933 1.484z" fill="#4B5170"/><path d="M108.275 131.81l-37.68 51.54c-.708.967-2.068 1.18-3.04.473l-23.19-16.882c-.972-.705-1.184-2.063-.476-3.03l37.68-51.54c.706-.97 2.067-1.182 3.037-.475l23.193 16.882c.97.706 1.183 2.064.475 3.032" fill="#86AC5B"/><path d="M83.327 112.925c-.224 0-.445.103-.588.296l-37.68 51.542c-.154.21-.147.427-.13.537.017.11.078.318.29.472l23.19 16.882c.324.237.778.164 1.013-.158l37.68-51.54c.155-.21.148-.427.13-.538-.017-.11-.077-.32-.288-.473l-23.192-16.882c-.13-.094-.28-.138-.426-.138M68.83 185.688c-.76 0-1.5-.24-2.128-.695L43.51 168.11c-.783-.57-1.295-1.41-1.445-2.364-.15-.954.082-1.91.654-2.69l37.678-51.54c1.178-1.61 3.45-1.965 5.063-.79l23.194 16.882c.782.57 1.295 1.41 1.445 2.363.148.956-.084 1.91-.655 2.69l-37.68 51.54c-.57.782-1.41 1.294-2.367 1.443-.19.03-.38.045-.568.045" fill="#4B5170"/><path d="M81.76 140.093c4.298 3.13 5.24 9.142 2.104 13.43-3.135 4.29-9.16 5.23-13.46 2.102-4.298-3.13-5.24-9.142-2.105-13.432 3.135-4.288 9.16-5.228 13.46-2.1" fill="#FFF"/><path d="M76.092 139.696c-2.527 0-5.022 1.16-6.622 3.35-2.66 3.638-1.857 8.756 1.788 11.41 3.646 2.654 8.776 1.853 11.435-1.785 2.66-3.637 1.857-8.754-1.788-11.41v.002c-1.452-1.057-3.14-1.566-4.813-1.566m-.034 19.224c-2.33 0-4.59-.73-6.508-2.127-4.937-3.593-6.024-10.525-2.422-15.452 3.602-4.924 10.547-6.008 15.486-2.416 4.937 3.594 6.023 10.525 2.422 15.452-1.745 2.387-4.316 3.953-7.24 4.41-.582.09-1.16.134-1.738.134" fill="#4B5170"/><path d="M133.02 134.37l-3.236-3.23c-2.17-2.164-2.17-5.705 0-7.87l25.677-25.62c2.17-2.166 5.72-2.166 7.888 0l3.238 3.23c2.17 2.163 2.17 5.705 0 7.87l-25.678 25.62c-2.168 2.165-5.718 2.165-7.887 0" fill="#FFCC1F"/><path d="M159.404 97.467c-1.057 0-2.113.402-2.918 1.204l-25.677 25.624c-.777.773-1.203 1.807-1.203 2.91 0 1.107.426 2.14 1.202 2.914l3.237 3.23c.775.774 1.81 1.2 2.918 1.2 1.107 0 2.143-.426 2.918-1.2l25.678-25.62c1.61-1.607 1.61-4.22 0-5.826l-3.237-3.23c-.804-.803-1.862-1.205-2.92-1.205m-22.438 39.977c-1.8 0-3.6-.683-4.97-2.05l-3.236-3.23c-2.742-2.735-2.742-7.183 0-9.916l25.676-25.622c2.74-2.734 7.196-2.734 9.937 0l3.238 3.23c2.74 2.734 2.74 7.182 0 9.916l-25.677 25.622c-1.37 1.367-3.17 2.05-4.968 2.05" fill="#58595B"/><path fill="#FFCC1F" d="M168.515 111.534l-15.844-15.81 5.578-5.566 15.844 15.81"/><path d="M154.72 95.723l13.795 13.765 3.527-3.52-13.795-13.764-3.527 3.52zm13.795 17.856L150.62 95.722l7.627-7.61 17.895 17.856-7.627 7.61z" fill="#58595B"/><path fill="#FFCC1F" d="M214.576 52.544l-7.015 9.65-1.876-.778-38.12 38.04-2.79-2.784 38.123-38.038-.72-1.81 9.61-7.063"/><g transform="translate(162.638 47.277)"><mask id="b" fill="#fff"><use xlink:href="#a"/></mask><path d="M4.188 49.396l.74.737 37.78-37.7 1.714.71 5.616-7.726-1.032-1.03-7.706 5.665.657 1.657-37.77 37.686zm.74 4.828l-4.84-4.828 38.473-38.39-.778-1.962 11.51-8.46 4.546 4.534-8.413 11.576-2.04-.847L4.928 54.224z" fill="#58595B" mask="url(#b)"/></g><path d="M127.65 84.184c-1.78 1.777-4.67 1.777-6.45 0-1.782-1.778-1.782-4.66 0-6.44 1.78-1.777 4.67-1.777 6.45 0 1.783 1.78 1.783 4.662 0 6.44m5.687-9.46L88.444 29.928c2.093-7.35.24-15.582-5.557-21.368-5.604-5.592-13.5-7.507-20.672-5.743l9.206 9.186-3.37 12.547-12.573 3.362-9.205-9.185c-1.768 7.157.15 15.034 5.755 20.627 5.8 5.786 14.048 7.633 21.414 5.545l44.894 44.795c3.376 3.368 8.9 3.368 12.275 0l2.727-2.722c3.376-3.37 3.376-8.88 0-12.25" fill="#FFCC1F"/><g transform="translate(43.765 .264)"><mask id="d" fill="#fff"><use xlink:href="#c"/></mask><path d="M80.66 77.594c-.83 0-1.613.323-2.2.91-1.214 1.21-1.214 3.18 0 4.393.587.586 1.37.91 2.2.91.83 0 1.613-.324 2.2-.91.59-.587.913-1.367.913-2.197 0-.83-.324-1.61-.912-2.196-.587-.587-1.37-.91-2.2-.91zm0 9.103c-1.54 0-3.08-.585-4.25-1.755-2.345-2.338-2.345-6.145 0-8.484 2.342-2.34 6.157-2.34 8.5 0 1.137 1.133 1.763 2.64 1.763 4.242 0 1.603-.626 3.11-1.762 4.242-1.17 1.17-2.71 1.755-4.25 1.755zM30.1 43.01l.6.602 44.894 44.796c2.82 2.813 7.405 2.813 10.225 0l2.727-2.722c2.82-2.813 2.82-7.39 0-10.203L43.052 30.086l.233-.817c2.02-7.097.03-14.74-5.188-19.95-4.45-4.442-10.53-6.528-16.663-5.835l7.84 7.822-3.805 14.16-14.192 3.794-7.838-7.82c-.698 6.122 1.397 12.186 5.847 16.627 5.22 5.208 12.882 7.193 19.992 5.177l.82-.233zm50.606 50.394c-2.712 0-5.256-1.048-7.162-2.95L29.24 46.246c-7.88 1.922-16.243-.386-22.003-6.133-5.812-5.8-8.107-14.024-6.14-21.996l.617-2.49 10.43 10.408 10.96-2.93 2.935-10.934L15.606 1.763l2.496-.613c7.993-1.965 16.232.324 22.044 6.123 5.76 5.75 8.075 14.09 6.147 21.956l44.303 44.207c1.906 1.902 2.957 4.44 2.957 7.148 0 2.706-1.05 5.245-2.957 7.147l-2.728 2.722c-1.908 1.902-4.45 2.95-7.164 2.95z" fill="#58595B" mask="url(#d)"/></g><path d="M45.635 105.824c0 7.956-1.29 13.968-2.87 13.36-1.577-.61-4.053-.61-5.5 0-1.45.608-3.82.608-5.27 0-1.45-.61-3.82-.61-5.268 0-1.45.608-3.82.608-5.268 0-1.45-.61-3.82-.61-5.27 0-1.448.608-3.82.608-5.268 0-1.45-.61-3.947-.61-5.55 0-1.606.608-2.92-5.403-2.92-13.36L2.455 74.1c0-7.956 1.313-13.918 2.918-13.25 1.604.67 4.102.67 5.55 0 1.45-.67 3.82-.672 5.27-.003 1.448.67 3.818.668 5.267 0 1.45-.67 3.82-.672 5.268-.002 1.45.67 3.82.668 5.268-.002 1.45-.67 3.82-.67 5.268 0 1.45.668 3.925.668 5.503-.003 1.578-.67 2.87 5.29 2.87 13.246l-.002 31.74z" fill="#BAC2E2"/><path d="M18.824 117.275c1.143 0 2.286.192 3.198.575 1.084.455 3.058.455 4.142 0 1.822-.766 4.57-.768 6.394 0 1.083.455 3.058.455 4.143 0 1.604-.676 4.114-.747 5.996-.214.607-1.198 1.49-5.227 1.49-11.812v-31.74c0-6.49-.862-10.477-1.46-11.692-1.924.603-4.418.523-6.07-.24-1.06-.49-2.99-.49-4.05 0-1.85.86-4.64.86-6.488.003-1.058-.49-2.99-.488-4.05 0-1.848.858-4.636.858-6.485.004-1.062-.493-2.992-.49-4.05 0-1.63.754-4.202.835-6.135.235-.61 1.19-1.494 5.18-1.494 11.703v31.727c0 6.614.903 10.643 1.52 11.82 1.907-.543 4.45-.472 6.06.205 1.086.455 3.06.455 4.144 0 .912-.383 2.054-.575 3.196-.575m5.27 3.816c-1.144 0-2.287-.19-3.198-.574-1.085-.455-3.06-.454-4.143 0-1.823.767-4.57.767-6.394 0-1.098-.462-3.23-.453-4.474.02-.65.247-1.36.154-1.95-.252-2.72-1.872-2.932-11.54-2.932-14.46V74.1c0-2.914.213-12.565 2.946-14.38.604-.402 1.326-.477 1.98-.204 1.22.51 3.308.518 4.384.02 1.85-.854 4.64-.856 6.487 0 1.06.487 2.99.487 4.05-.002 1.85-.855 4.638-.857 6.487-.002 1.06.49 2.99.49 4.05-.002 1.85-.854 4.638-.856 6.487 0 1.072.493 3.134.483 4.325-.022.648-.277 1.365-.207 1.967.19 2.708 1.786 2.918 11.464 2.918 14.387v31.74c0 2.93-.21 12.624-2.907 14.47-.585.4-1.29.488-1.934.24-1.216-.47-3.322-.477-4.418-.018-1.822.767-4.57.767-6.393 0-1.086-.454-3.06-.453-4.143 0-.912.385-2.055.576-3.197.576" fill="#4C5271"/><path d="M18.824 117.275c1.143 0 2.286.192 3.198.575 1.084.455 3.058.455 4.142 0 1.822-.766 4.57-.768 6.394 0 1.083.455 3.058.455 4.143 0 1.604-.676 4.114-.747 5.996-.214.607-1.198 1.49-5.227 1.49-11.812v-31.74c0-6.49-.862-10.477-1.46-11.692-1.924.603-4.418.523-6.07-.24-1.06-.49-2.99-.49-4.05 0-1.85.86-4.64.86-6.488.003-1.058-.49-2.99-.488-4.05 0-1.848.858-4.636.858-6.485.004-1.062-.493-2.992-.49-4.05 0-1.63.754-4.202.835-6.135.235-.61 1.19-1.494 5.18-1.494 11.703v31.727c0 6.614.903 10.643 1.52 11.82 1.907-.543 4.45-.472 6.06.205 1.086.455 3.06.455 4.144 0 .912-.383 2.054-.575 3.196-.575zm5.27 3.816c-1.144 0-2.287-.19-3.198-.574-1.085-.455-3.06-.454-4.143 0-1.823.767-4.57.767-6.394 0-1.098-.462-3.23-.453-4.474.02-.65.247-1.36.154-1.95-.252-2.72-1.872-2.932-11.54-2.932-14.46V74.1c0-2.914.213-12.565 2.946-14.38.604-.402 1.326-.477 1.98-.204 1.22.51 3.308.518 4.384.02 1.85-.854 4.64-.856 6.487 0 1.06.487 2.99.487 4.05-.002 1.85-.855 4.638-.857 6.487-.002 1.06.49 2.99.49 4.05-.002 1.85-.854 4.638-.856 6.487 0 1.072.493 3.134.483 4.325-.022.648-.277 1.365-.207 1.967.19 2.708 1.786 2.918 11.464 2.918 14.387v31.74c0 2.93-.21 12.624-2.907 14.47-.585.4-1.29.488-1.934.24-1.216-.47-3.322-.477-4.418-.018-1.822.767-4.57.767-6.393 0-1.086-.454-3.06-.453-4.143 0-.912.385-2.055.576-3.197.576z" stroke="#4B5170" stroke-width=".01"/><path d="M34.45 84.515H12.263c-.8 0-1.45-.648-1.45-1.447 0-.798.65-1.446 1.45-1.446h22.19c.8 0 1.45.648 1.45 1.446 0 .8-.65 1.447-1.45 1.447M34.638 93.306h-22.19c-.8 0-1.45-.648-1.45-1.447 0-.8.65-1.447 1.45-1.447h22.19c.8 0 1.45.648 1.45 1.446 0 .798-.65 1.446-1.45 1.446M34.638 102.097h-22.19c-.8 0-1.45-.648-1.45-1.447 0-.798.65-1.446 1.45-1.446h22.19c.8 0 1.45.648 1.45 1.446 0 .8-.65 1.447-1.45 1.447M34.638 110.47h-8.275c-.8 0-1.45-.647-1.45-1.445 0-.8.65-1.447 1.45-1.447h8.275c.8 0 1.45.648 1.45 1.447 0 .798-.65 1.446-1.45 1.446M30.277 70.883H16.622c-.8 0-1.45-.648-1.45-1.447 0-.798.65-1.446 1.45-1.446h13.655c.8 0 1.45.648 1.45 1.446 0 .8-.65 1.447-1.45 1.447" fill="#58595B"/><path d="M150.776 169.05c0 3.592-2.92 6.505-6.52 6.505-3.604 0-6.523-2.913-6.523-6.506 0-3.595 2.92-6.507 6.523-6.507 3.6 0 6.52 2.912 6.52 6.506" fill="#B9C1E1"/><path d="M144.256 163.99c-2.797 0-5.073 2.27-5.073 5.06 0 2.79 2.276 5.058 5.073 5.058 2.795 0 5.07-2.268 5.07-5.06 0-2.788-2.275-5.06-5.07-5.06m0 13.014c-4.396 0-7.973-3.568-7.973-7.953 0-4.386 3.577-7.954 7.973-7.954 4.394 0 7.97 3.568 7.97 7.953 0 4.384-3.576 7.952-7.97 7.952" fill="#58595B"/><path fill="#B9C1E1" d="M154.202 180.294H134.31l-3.34 19.972h5.446l2.107 24.82h11.464l2.108-24.82h5.444"/><path d="M139.855 223.64h8.8l1.995-23.495c.063-.75.69-1.325 1.445-1.325h3.732l-2.853-17.08h-17.438l-2.854 17.08h3.734c.753 0 1.38.575 1.444 1.325l1.995 23.494zm10.132 2.892h-11.464c-.753 0-1.38-.575-1.445-1.324l-1.995-23.495h-4.112c-.425 0-.83-.187-1.105-.51-.276-.326-.394-.755-.324-1.175l3.34-19.972c.115-.698.72-1.21 1.43-1.21H154.2c.71 0 1.312.512 1.43 1.21l3.337 19.972c.07.42-.05.85-.324 1.174-.276.324-.68.51-1.107.51h-4.113l-1.995 23.496c-.064.75-.69 1.324-1.445 1.324z" fill="#58595B"/><path d="M178.016 182.64c0 2.657-2.16 4.81-4.823 4.81-2.664 0-4.824-2.153-4.824-4.81 0-2.658 2.16-4.813 4.823-4.813 2.663 0 4.823 2.155 4.823 4.813" fill="#FFCC1F"/><path d="M173.192 179.273c-1.86 0-3.373 1.51-3.373 3.366 0 1.855 1.512 3.365 3.372 3.365 1.86 0 3.374-1.51 3.374-3.366 0-1.857-1.514-3.367-3.374-3.367m0 9.625c-3.46 0-6.272-2.807-6.272-6.26 0-3.45 2.813-6.258 6.272-6.258 3.46 0 6.273 2.808 6.273 6.26 0 3.45-2.814 6.258-6.273 6.258" fill="#58595B"/><path fill="#FFCC1F" d="M180.55 192.014h-14.714l-2.467 13.794h4.025l1.56 19.332h8.476l1.56-19.332h4.026"/><path d="M170.292 223.694h5.8l1.453-18.002c.06-.75.69-1.33 1.445-1.33h2.295l-1.95-10.902H167.05l-1.95 10.9h2.295c.755 0 1.385.58 1.445 1.332l1.452 18.002zm7.14 2.893h-8.478c-.755 0-1.384-.58-1.444-1.33l-1.453-18.003h-2.688c-.43 0-.837-.188-1.112-.517-.276-.328-.392-.76-.316-1.183l2.468-13.794c.123-.69.724-1.193 1.427-1.193h14.712c.7 0 1.303.503 1.426 1.193l2.467 13.794c.076.422-.04.855-.315 1.183-.276.33-.683.517-1.11.517h-2.69l-1.452 18.002c-.06.75-.69 1.33-1.445 1.33z" fill="#58595B"/><path d="M141.177 170.07c-.8 0-1.45-.65-1.45-1.447 0-2.252 1.836-4.084 4.092-4.084.8 0 1.45.646 1.45 1.446 0 .798-.65 1.446-1.45 1.446-.66 0-1.194.534-1.194 1.19 0 .8-.65 1.447-1.45 1.447M171.64 183.815c-.8 0-1.45-.648-1.45-1.447 0-1.524 1.244-2.765 2.772-2.765.8 0 1.45.648 1.45 1.447 0 .758-.584 1.38-1.327 1.44-.062.742-.685 1.325-1.444 1.325M136.638 191.413c-.08 0-.162-.006-.244-.02-.79-.134-1.32-.88-1.187-1.668l1.232-7.253 5.328-.008c.8 0 1.45.648 1.45 1.447 0 .8-.65 1.448-1.45 1.448h-2.88l-.822 4.85c-.12.706-.734 1.205-1.428 1.205" fill="#FFF"/><path d="M121.097 169.05c0 3.592-2.92 6.505-6.52 6.505-3.604 0-6.524-2.913-6.524-6.506 0-3.595 2.92-6.507 6.524-6.507 3.6 0 6.52 2.912 6.52 6.506" fill="#B9C1E1"/><path d="M114.576 163.99c-2.797 0-5.073 2.27-5.073 5.06 0 2.79 2.276 5.058 5.073 5.058 2.796 0 5.07-2.268 5.07-5.06 0-2.788-2.274-5.06-5.07-5.06m0 13.014c-4.396 0-7.973-3.568-7.973-7.953 0-4.386 3.577-7.954 7.973-7.954 4.395 0 7.97 3.568 7.97 7.953 0 4.384-3.575 7.952-7.97 7.952" fill="#58595B"/><path fill="#B9C1E1" d="M124.522 180.294H104.63l-3.338 19.972h5.444l2.108 24.82h11.464l2.107-24.82h5.445"/><path d="M110.176 223.64h8.8l1.995-23.495c.064-.75.692-1.325 1.445-1.325h3.733l-2.853-17.08h-17.438l-2.854 17.08h3.733c.754 0 1.38.575 1.445 1.325l1.996 23.494zm10.132 2.892h-11.464c-.754 0-1.38-.575-1.445-1.324l-1.996-23.495h-4.112c-.427 0-.83-.187-1.107-.51-.275-.326-.393-.755-.323-1.175l3.337-19.972c.116-.698.72-1.21 1.43-1.21h19.892c.71 0 1.313.512 1.43 1.21l3.338 19.972c.07.42-.048.85-.324 1.174-.275.324-.68.51-1.106.51h-4.112l-1.995 23.496c-.064.75-.692 1.324-1.445 1.324z" fill="#58595B"/><path d="M111.497 170.07c-.8 0-1.45-.65-1.45-1.447 0-2.252 1.836-4.084 4.092-4.084.8 0 1.45.646 1.45 1.446 0 .798-.65 1.446-1.45 1.446-.66 0-1.194.534-1.194 1.19 0 .8-.65 1.447-1.45 1.447M106.958 191.413c-.08 0-.162-.006-.244-.02-.79-.134-1.32-.88-1.187-1.668l1.232-7.253 5.33-.008c.8 0 1.45.648 1.45 1.447 0 .8-.65 1.448-1.45 1.448h-2.88l-.824 4.85c-.12.706-.734 1.205-1.428 1.205M167.976 201.058c-.08 0-.16-.006-.243-.02-.79-.134-1.32-.88-1.188-1.668l.933-5.486 4.13-.007c.8 0 1.45.648 1.45 1.446 0 .8-.65 1.447-1.45 1.447h-1.68l-.524 3.083c-.12.706-.733 1.205-1.428 1.205" fill="#FFF"/><path d="M65.69 214.237c-.186-.567-.546-.993-1.08-1.278-.537-.283-1.39-.426-2.56-.426H46.036c-1.205 0-2.126.15-2.762.45-.468.235-.795.644-.978 1.228-.184.585-.276 1.344-.276 2.278 0 .936.084 1.696.25 2.28.17.585.504 1.01 1.005 1.277.503.267 1.306.4 2.41.4H62.3c1.105 0 1.958-.15 2.56-.45.402-.233.686-.634.853-1.202.168-.567.252-1.327.252-2.28 0-.95-.093-1.71-.276-2.278M185.026 127.53c-.092-.282-.272-.496-.54-.637-.267-.142-.694-.213-1.28-.213H175.2c-.602 0-1.062.075-1.38.226-.235.116-.398.32-.49.613-.092.29-.138.67-.138 1.14 0 .466.042.846.126 1.138.084.292.25.505.502.64.25.132.652.2 1.205.2H183.332c.552 0 .98-.076 1.28-.227.2-.115.343-.316.427-.6.082-.283.124-.664.124-1.14 0-.475-.046-.855-.138-1.14M147.617 52.15c-.093-.284-.273-.498-.54-.64-.268-.14-.695-.212-1.28-.212h-8.007c-.602 0-1.062.075-1.38.226-.234.116-.398.32-.49.612-.092.293-.138.673-.138 1.14 0 .468.042.848.126 1.14.084.292.25.505.502.64.25.132.652.2 1.205.2H145.922c.552 0 .98-.076 1.28-.227.2-.117.343-.317.427-.602.082-.283.124-.664.124-1.14 0-.475-.046-.855-.137-1.14" fill="#B9C1E1"/></g></svg>