<svg width="32" height="33" viewBox="0 0 32 33" xmlns="http://www.w3.org/2000/svg" xmlns:xlink="http://www.w3.org/1999/xlink"><title>Page 1</title><defs><path id="a" d="M31.98 32.112V.02H0V32.11z"/></defs><g fill="none" fill-rule="evenodd"><g transform="translate(0 .083)"><mask id="b" fill="#fff"><use xlink:href="#a"/></mask><path d="M15.99 1.757c-7.86 0-14.257 6.42-14.257 14.308 0 7.89 6.396 14.308 14.258 14.308 7.863 0 14.26-6.418 14.26-14.308S23.852 1.757 15.99 1.757m0 30.355C7.174 32.112 0 24.914 0 16.065 0 7.217 7.173.02 15.99.02c8.818 0 15.99 7.197 15.99 16.045 0 8.85-7.172 16.047-15.99 16.047" fill="#EC664E" mask="url(#b)"/></g><path d="M15.858 17.626c-2.69.01-8.803.98-9.112 4.433-.247 2.75 2.936 2.684 2.936 2.684l5.29.05-.002.017 1.02-.008 1.02.01v-.02l5.29-.048s3.182.067 2.935-2.685c-.31-3.454-6.63-4.443-9.377-4.434M19.61 11.113c0 2.007-1.62 3.633-3.62 3.633s-3.62-1.626-3.62-3.633c0-2.006 1.62-3.632 3.62-3.632s3.62 1.627 3.62 3.633" fill="#EC664E"/></g></svg>