<svg width="28" height="35" viewBox="0 0 28 35" xmlns="http://www.w3.org/2000/svg" xmlns:xlink="http://www.w3.org/1999/xlink"><title>Page 1</title><defs><path id="a" d="M13.996 34.85h13.996V0H0v34.85h13.996z"/></defs><g fill="none" fill-rule="evenodd"><g transform="translate(0 .09)"><mask id="b" fill="#fff"><use xlink:href="#a"/></mask><path d="M26.967 34.88H1.027C.458 34.88 0 34.424 0 33.86V1.05C0 .486.46.03 1.026.03h19.142c.567 0 1.026.457 1.026 1.02 0 .562-.46 1.018-1.026 1.018H2.052v30.774h23.89V7.802c0-.563.458-1.02 1.025-1.02.566 0 1.025.457 1.025 1.02v26.06c0 .562-.46 1.018-1.025 1.018" fill="#424242" mask="url(#b)"/></g><path d="M21.194 6.872V3.6L24.49 6.87h-3.296zm6.793.918c0-.014-.004-.028-.006-.043l-.007-.055-.013-.05-.012-.047c-.005-.016-.01-.032-.017-.047-.004-.016-.01-.032-.016-.047l-.02-.043-.023-.046c-.006-.013-.015-.027-.023-.04l-.027-.044c-.01-.016-.022-.03-.033-.045-.01-.01-.018-.023-.027-.035-.022-.026-.044-.05-.068-.075L20.894.42c-.024-.025-.05-.047-.076-.07l-.034-.024c-.016-.012-.03-.024-.046-.034l-.043-.026c-.015-.01-.03-.017-.044-.025l-.043-.02c-.016-.008-.03-.016-.047-.022l-.044-.016c-.016-.006-.033-.013-.05-.018l-.044-.01-.054-.014-.05-.007-.05-.008c-.03-.002-.06-.004-.09-.004h-.02c-.03 0-.06.003-.09.005l-.05.008-.05.007c-.018.004-.036.01-.053.013l-.044.01-.05.02c-.015.004-.03.01-.044.015l-.046.02-.045.023-.043.026-.043.026c-.017.01-.032.022-.048.034l-.034.025c-.052.044-.1.092-.143.144-.01.01-.018.023-.027.035-.01.014-.023.028-.033.044-.01.014-.018.03-.027.044l-.025.04-.022.047-.02.044c-.006.014-.01.03-.017.045l-.016.048c-.005.016-.01.032-.013.047l-.012.05c-.004.018-.006.037-.008.055l-.007.044c-.003.032-.005.066-.005.1v6.75c0 .564.46 1.02 1.026 1.02h6.8c.032 0 .066-.002.1-.005l.045-.007c.018-.002.036-.004.054-.008.017-.003.034-.008.05-.012.017-.004.032-.007.047-.012.017-.005.033-.01.05-.017.015-.007.03-.01.045-.018l.044-.02.046-.022.043-.025c.014-.01.03-.017.043-.027.016-.01.03-.022.046-.033l.035-.026c.052-.044.1-.09.143-.143l.026-.035.034-.045.027-.044c.008-.014.017-.027.024-.042.01-.014.016-.03.024-.045l.02-.044c.007-.014.012-.03.017-.045l.018-.048c.005-.015.008-.03.012-.047.005-.016.01-.033.013-.05l.008-.055c.003-.014.006-.03.007-.043.007-.067.007-.135 0-.202zM3.862 6.606h12.49c.568 0 1.027-.457 1.027-1.02 0-.562-.46-1.018-1.027-1.018H3.863c-.567 0-1.027.456-1.027 1.02 0 .56.46 1.018 1.026 1.018M16.458 8.913H3.968c-.568 0-1.027.456-1.027 1.02 0 .562.46 1.018 1.027 1.018h12.49c.568 0 1.027-.455 1.027-1.018s-.46-1.02-1.026-1.02M16.458 13.258H3.968c-.568 0-1.027.456-1.027 1.02 0 .562.46 1.018 1.027 1.018h12.49c.568 0 1.027-.456 1.027-1.02 0-.562-.46-1.018-1.026-1.018M11.23 28.102V25.36c.727.164 1.173.59 1.322 1.15 0 .87-.595 1.297-1.323 1.592zM9.36 22.93c-.876-.28-1.454-.59-1.454-1.314 0-.87.578-1.264 1.455-1.412v2.726zm1.87.41v-2.988c.446.13.727.28 1.008.394 1.04.74 2.215-.87 1.04-1.708-.594-.427-1.32-.607-2.05-.74v-.393c0-1.46-1.867-1.46-1.867 0v.263c-1.735.263-3.322 1.166-3.488 3.02-.297 2.596 1.604 3.187 3.49 3.597v3.317c-.745-.148-1.456-.427-1.886-.722-.562-.41-1.19-.148-1.44.18-.296.394-.296 1.117.117 1.544.877.607 1.87 1.018 3.208 1.166v.262c0 1.462 1.87 1.462 1.87 0v-.41c1.917-.28 3.455-1.445 3.455-3.48 0-2.12-1.72-2.858-3.456-3.302z" fill="#424242"/></g></svg>