<svg width="334" height="273" viewBox="0 0 334 273" xmlns="http://www.w3.org/2000/svg" xmlns:xlink="http://www.w3.org/1999/xlink"><title>Page 1</title><defs><path id="a" d="M156.897.474H.075v159.66h156.822V.475z"/><path id="c" d="M156.822.474H0v159.66h156.822V.475z"/></defs><g fill="none" fill-rule="evenodd"><g transform="translate(177.112 .155)"><mask id="b" fill="#fff"><use xlink:href="#a"/></mask><path d="M156.897 80.38c0 2.234-.065 4.475-.198 6.716-1.01 28.76-19.795 55.58-46.105 66.758-1.59.675-3.21 1.3-4.85 1.87-1.643.57-3.31 1.09-4.998 1.557-6.755 1.86-13.87 2.855-21.215 2.855-12.592 0-24.503-2.92-35.095-8.123-2.647-1.3-5.213-2.745-7.685-4.32-5.805-4.028-11.164-8.756-15.895-14.037-1.577-1.76-3.085-3.583-4.516-5.46-3.464-4.71-6.412-9.807-8.805-15.158-2.393-5.085-4.232-11.355-5.478-16.686-.623-3.255-1.098-5.846-1.42-8.67-.275-2.435-.456-3.77-.54-6.283-.12-5.615.248-9.37 1.044-13.7.798-3.813 2.025-9.237 3.625-13.212 1.6-4.178 3.575-8.054 5.867-12.053 2.293-3.854 4.902-8.026 7.774-11.806 1.64-1.508 3.368-3.644 5.173-5.947 4.04-4.427 8.55-8.216 13.402-10.932 4.853-3.08 10.046-5.506 15.45-7.923 2.702-.334 5.457-1.974 8.25-2.71 4.443-.878 8.957-1.196 13.483-2.328 4.527-.56 9.067-.3 13.563.236 8.993.97 17.81 3.517 26 7.382 8.19 3.865 15.753 9.05 22.233 15.29 1.806 1.734 3.523 3.473 5.138 5.372 4.698 6.166 8.146 13.152 10.688 20.504.848 2.45 1.59 4.942 2.224 7.453 1.28 4.792 1.68 9.996 2.335 15.202.287 3.1.493 6.243.552 8.156" fill="#F6F3F1" mask="url(#b)"/></g><path d="M292.22 160.222c0-1.608-18.312.56-36.623 0-18.31.76-36.62-.42-36.62 0 0-7.636 4.098-14.64 10.725-19.937 6.627-5.747 15.783-8.34 25.895-8.258 10.113 1.407 19.27 2.776 25.895 8.258 6.628 5.614 10.727 12.788 10.727 19.937" fill="#F37631"/><path d="M220.34 158.868c1.05 0 2.673.04 5.253.107 6.903.175 18.456.467 29.952-.01.03 0 .06-.002.09 0 8.607.26 17.106-.076 23.935-.347 6.2-.247 9.473-.342 11.302-.17-.608-5.988-4.246-12.167-10.19-17.202-6.46-5.346-15.55-6.622-25.176-7.96-10.246-.048-18.903 2.678-24.982 7.95-6.218 4.972-9.805 11.178-10.246 17.632h.06zm-.108 1.357zm0 .004zm0 .003v.002-.002zm0 .003c0 .072-.008.14-.02.21.012-.067.02-.137.02-.21zm21.652 1.504c-6.447 0-12.227-.145-16.354-.25-2.902-.073-5.433-.137-6.12-.087-.135.05-.282.076-.434.076-.694 0-1.257-.564-1.257-1.26 0-7.716 3.976-15.145 11.198-20.918 6.526-5.66 15.793-8.604 26.69-8.533.054 0 .108.004.162.01 9.58 1.334 19.484 2.71 26.523 8.535 7.11 6.024 11.182 13.64 11.182 20.906 0 .696-.562 1.26-1.256 1.26-.388 0-.734-.175-.964-.45-1.333-.307-6.54-.098-11.586.102-6.857.273-15.386.614-24.066.348-4.673.193-9.35.26-13.72.26z" fill="#4B5170"/><path d="M284.472 76.374v-27.14l-58.616.372v26.768c-3.75 0-6.792 3.942-6.792 8.806 0 4.864 3.04 8.807 6.792 8.807v2.59c0 8.12 3.28 16.27 8.584 22.646 4.34 5.094 7.518 7.06 13.876 8.483h.096v8.173c0 3.718 3.04 6.76 6.752 6.76 0 0 6.752-3.042 6.752-6.76v-7.97c5.38-1.21 10.192-4.034 13.972-8.687 5.304-6.018 8.584-13.972 8.584-22.646v-2.59c3.752 0 6.792-3.943 6.792-8.807 0-4.864-3.04-8.806-6.792-8.806" fill="#FFF"/><path d="M248.46 126.448c.67.025 1.21.58 1.21 1.257v8.174c0 2.945 2.32 5.358 5.23 5.497 1.736-.84 5.76-3.252 5.76-5.498v-7.97c0-.59.408-1.1.98-1.228 5.333-1.198 9.8-3.975 13.274-8.254 5.365-6.09 8.302-13.835 8.302-21.85v-2.59c0-.696.562-1.26 1.256-1.26 3.052 0 5.536-3.385 5.536-7.548s-2.484-7.548-5.536-7.548c-.694 0-1.256-.564-1.256-1.258V50.5l-56.104.357v25.517c0 .694-.562 1.258-1.256 1.258-3.053 0-5.536 3.385-5.536 7.548s2.483 7.55 5.536 7.55c.694 0 1.256.562 1.256 1.257v2.59c0 7.544 3.023 15.504 8.294 21.84 4.138 4.86 7.085 6.68 13.053 8.03m6.704 17.452c-4.415 0-8.007-3.6-8.007-8.02v-7.154c-6.04-1.468-9.335-3.593-13.672-8.687-5.65-6.793-8.885-15.34-8.885-23.463v-1.455c-3.843-.757-6.792-4.926-6.792-9.942s2.95-9.185 6.792-9.942v-25.63c0-.693.557-1.255 1.248-1.26l58.616-.372c.33.027.656.13.894.365.236.238.37.56.37.894v26.004c3.843.757 6.792 4.926 6.792 9.942s-2.95 9.185-6.792 9.942v1.455c0 8.63-3.16 16.968-8.898 23.478-3.595 4.426-8.194 7.408-13.658 8.843v6.98c0 4.406-6.725 7.565-7.493 7.91-.163.074-.338.11-.516.11" fill="#4B5170"/><path d="M225.856 82.843s5.235-29.35 4.264-32.706c-.97-3.354 27.585 21.446 49.327 10.483 5.822-2.935 5.025 22.226 5.025 22.226s5.38-25.607.48-33.962c-11.814-20.135-35.587-23.28-46.853-11.435-3.312 3.48-5.518-.907-8.944 2.63-8.743 9.03-3.3 42.763-3.3 42.763" fill="#BAC2E2"/><path d="M232.285 39.858c-.73 0-1.39.234-2.228 1.1-3.33 3.44-4.912 11.68-4.574 23.83.092 3.364.325 6.604.586 9.38 1.88-11.427 3.307-22.08 2.844-23.68-.275-.952.286-1.48.464-1.62.978-.762 1.906-.22 5.81 2.06 8.414 4.914 28.12 16.423 43.694 8.57 1.034-.523 2.098-.493 2.995.08 1.888 1.208 2.88 5.22 3.39 9.62.013-.115.023-.23.035-.345.93-9.464.434-16.15-1.434-19.33-5.837-9.95-15.084-16.34-25.368-17.53-7.72-.893-14.82 1.413-19.492 6.324-2.102 2.21-4.074 1.9-5.513 1.672-.443-.07-.836-.132-1.21-.132m52.188 44.247c-.05 0-.1-.004-.15-.01-.647-.077-1.127-.637-1.107-1.29.29-9.137-.658-19.806-2.69-21.105-.083-.053-.187-.12-.514.044-16.797 8.47-37.325-3.523-46.09-8.643-.865-.504-1.747-1.018-2.448-1.404-.076 6.87-3.598 26.972-4.382 31.37-.107.602-.632 1.02-1.246 1.035-.613-.004-1.132-.45-1.23-1.056-.226-1.403-5.44-34.465 3.638-43.84 2.175-2.244 4.174-1.93 5.63-1.7 1.318.206 2.112.33 3.305-.923 5.22-5.487 13.087-8.07 21.598-7.087 11.074 1.282 21.006 8.117 27.247 18.754 5.09 8.675-.11 33.794-.334 34.86-.122.587-.64.998-1.227.998" fill="#4B5170"/><g transform="translate(0 .155)"><mask id="d" fill="#fff"><use xlink:href="#c"/></mask><path d="M156.822 80.38c0 2.234-.065 4.475-.198 6.716-1.01 28.76-19.794 55.58-46.104 66.758-1.59.675-3.21 1.3-4.85 1.87-1.643.57-3.31 1.09-4.998 1.557-6.755 1.86-13.87 2.855-21.214 2.855-12.593 0-24.504-2.92-35.096-8.123-2.647-1.3-5.212-2.745-7.684-4.32-5.806-4.028-11.164-8.756-15.896-14.037-1.577-1.76-3.085-3.583-4.516-5.46-3.465-4.71-6.413-9.807-8.806-15.158-2.393-5.085-4.23-11.355-5.478-16.686-.623-3.255-1.098-5.846-1.42-8.67-.275-2.435-.456-3.77-.54-6.283-.12-5.615.248-9.37 1.044-13.7.797-3.813 2.024-9.237 3.624-13.212 1.6-4.178 3.575-8.054 5.867-12.053 2.293-3.854 4.902-8.026 7.774-11.806 1.643-1.508 3.37-3.644 5.174-5.947 4.04-4.427 8.55-8.216 13.403-10.932 4.853-3.08 10.046-5.506 15.45-7.923 2.702-.334 5.457-1.974 8.25-2.71C65.05 2.236 69.563 1.918 74.09.786c4.527-.56 9.067-.3 13.564.236 8.992.97 17.81 3.517 26 7.382 8.19 3.865 15.752 9.05 22.232 15.29 1.805 1.734 3.523 3.473 5.137 5.372 4.698 6.166 8.146 13.152 10.688 20.504.85 2.45 1.59 4.942 2.225 7.453 1.28 4.792 1.68 9.996 2.336 15.202.288 3.1.494 6.243.552 8.156" fill="#F6F3F1" mask="url(#d)"/></g><path d="M105.7 64.483s13.55 1.538 15.643 12.063c2.094 10.526-2.93 25.623 0 29.397 2.93 3.774 9.63 4.194 9.63 4.194s-2.245 13-12.636 10.484c-10.392-2.516-18.5-3.255-19.052-7.918-.552-4.662 6.415-48.22 6.415-48.22" fill="#BAC2E2"/><path d="M106.74 65.937c-2.048 12.896-6.63 43.056-6.208 46.617.344 2.906 5.726 4.086 12.54 5.58 1.776.39 3.612.792 5.56 1.263 2.348.57 4.407.286 6.12-.842 2.78-1.83 4.126-5.414 4.67-7.34-2.295-.363-6.694-1.44-9.07-4.5-1.788-2.302-1.246-7.1-.56-13.173.62-5.488 1.322-11.708.32-16.75-1.54-7.744-10.182-10.204-13.372-10.855m14.17 56.266c-.92 0-1.877-.12-2.868-.36-1.922-.465-3.744-.865-5.506-1.25-8.096-1.777-13.945-3.06-14.5-7.742-.554-4.7 5.707-44.09 6.423-48.566.106-.663.715-1.126 1.38-1.05.148.016 3.635.427 7.426 2.193 5.153 2.4 8.37 6.16 9.31 10.874 1.078 5.427.353 11.854-.288 17.525-.547 4.843-1.113 9.852.047 11.346 2.12 2.73 7.01 3.604 8.717 3.71.356.023.686.196.907.476.22.28.312.643.25.994-.05.29-1.283 7.153-6.08 10.308-1.563 1.03-3.31 1.545-5.22 1.545" fill="#4B5170"/><path d="M115.033 160.222c0-1.608-18.31.56-36.622 0-18.31.76-36.62-.42-36.62 0 0-7.636 4.098-14.64 10.725-19.937 6.628-5.747 15.783-8.34 25.896-8.258 10.114 1.407 19.27 2.776 25.896 8.258 6.627 5.614 10.727 12.788 10.727 19.937" fill="#86AC5B"/><path d="M43.152 158.868c1.05 0 2.674.04 5.255.107 6.902.175 18.454.466 29.952-.01.03 0 .06-.002.09 0 8.606.26 17.105-.075 23.934-.347 6.2-.247 9.472-.342 11.302-.17-.608-5.988-4.246-12.167-10.19-17.202-6.462-5.346-15.55-6.622-25.176-7.96-10.266-.04-18.903 2.678-24.982 7.95-6.218 4.972-9.805 11.178-10.247 17.632h.062zm-.106 1.357zm0 .004zm0 .003v.002-.002zm0 .003c-.002.072-.01.14-.02.21.01-.067.018-.137.02-.21zm21.65 1.504c-6.446 0-12.226-.145-16.353-.25-2.902-.073-5.433-.137-6.12-.087-.135.05-.28.076-.433.076-.694 0-1.257-.564-1.257-1.26 0-7.716 3.977-15.145 11.2-20.918 6.525-5.66 15.752-8.63 26.688-8.533.055 0 .11.004.164.01 9.578 1.334 19.482 2.71 26.522 8.535 7.11 6.024 11.183 13.64 11.183 20.906 0 .696-.564 1.26-1.257 1.26-.387 0-.733-.175-.963-.45-1.334-.307-6.54-.098-11.586.102-6.857.273-15.387.614-24.066.348-4.674.193-9.35.26-13.72.26z" fill="#4B5170"/><path d="M107.286 76.374V53.01l-58.617.373v22.99c-3.75 0-6.792 3.943-6.792 8.807 0 4.864 3.04 8.807 6.79 8.807v2.59c0 8.12 3.282 16.27 8.586 22.646 4.338 5.094 7.518 7.06 13.876 8.483h.096v8.173c0 3.718 3.04 6.76 6.752 6.76 0 0 6.75-3.042 6.75-6.76v-7.97c5.382-1.21 10.193-4.034 13.974-8.687 5.303-6.018 8.584-13.972 8.584-22.646v-2.59c3.75 0 6.792-3.943 6.792-8.807 0-4.864-3.04-8.806-6.792-8.806" fill="#FFF"/><path d="M71.273 126.448c.672.025 1.21.58 1.21 1.257v8.174c0 2.945 2.322 5.358 5.23 5.497 1.736-.84 5.76-3.252 5.76-5.498v-7.97c0-.59.408-1.1.98-1.228 5.333-1.198 9.8-3.975 13.275-8.254 5.365-6.09 8.302-13.835 8.302-21.85v-2.59c0-.696.562-1.26 1.256-1.26 3.052 0 5.536-3.385 5.536-7.548s-2.484-7.548-5.536-7.548c-.694 0-1.256-.564-1.256-1.258V54.277l-56.104.356v21.74c0 .695-.563 1.26-1.257 1.26-3.053 0-5.536 3.384-5.536 7.547s2.483 7.55 5.535 7.55c.693 0 1.256.562 1.256 1.257v2.59c0 7.543 3.022 15.503 8.293 21.84 4.138 4.86 7.085 6.68 13.053 8.03m6.705 17.452c-4.416 0-8.008-3.6-8.008-8.02v-7.154c-6.038-1.468-9.334-3.593-13.672-8.687-5.65-6.793-8.885-15.34-8.885-23.463v-1.455c-3.843-.757-6.79-4.926-6.79-9.942s2.947-9.185 6.79-9.942V53.383c0-.692.558-1.253 1.25-1.258l58.615-.372h.008c.33 0 .65.13.885.365.238.237.372.558.372.893V75.24c3.843.757 6.792 4.926 6.792 9.942s-2.95 9.185-6.792 9.942v1.455c0 8.63-3.16 16.967-8.898 23.478-3.595 4.426-8.195 7.408-13.66 8.843v6.98c0 4.406-6.724 7.565-7.49 7.91-.163.074-.34.11-.516.11" fill="#4B5170"/><path d="M108.47 76.375S95.16 57.495 96.157 54.14c.995-3.355-20.68 16.196-41.4 14.492-6.087-.5-5.783 7.746-5.783 7.746s-5.69-16.802-.66-25.156c12.117-20.135 44.98-20.97 56.773-8.166 8.622 9.36 3.385 33.32 3.385 33.32" fill="#BAC2E2"/><path d="M96.017 52.48c.33 0 .604.107.874.315.187.143.77.69.47 1.703-.26 1.37 3.614 8.75 10.413 18.672 1.04-6.562 2.74-22.37-3.61-29.26-5.444-5.91-16.154-9-27.28-7.865-12.166 1.24-22.188 7.007-27.495 15.826-3.03 5.037-1.828 13.61-.593 19.06.35-.74.814-1.446 1.425-2.03 1.215-1.164 2.778-1.677 4.64-1.522 14.014 1.15 28.813-7.907 35.926-12.26 2.948-1.805 4.31-2.638 5.23-2.638M48.973 77.635c-.53 0-1.014-.336-1.188-.853-.24-.71-5.817-17.455-.547-26.21 5.72-9.503 16.432-15.71 29.39-17.03 12.07-1.23 23.33 2.09 29.382 8.66 8.962 9.73 3.908 33.437 3.688 34.442-.106.487-.49.865-.978.964-.49.1-.988-.1-1.275-.507-3.604-5.112-11.314-16.468-12.437-21.577-.787.44-1.86 1.098-2.912 1.74-7.34 4.494-22.61 13.847-37.442 12.623-1.132-.09-2.012.178-2.693.827-1.525 1.457-1.767 4.55-1.732 5.62.02.624-.418 1.17-1.03 1.28-.076.015-.152.022-.226.022" fill="#4B5170"/><path d="M242.427 192.772c0 2.232-.065 4.473-.198 6.714-1.01 28.76-19.795 55.58-46.105 66.76-1.59.673-3.21 1.297-4.85 1.868-1.643.572-3.31 1.09-4.998 1.557-6.755 1.862-13.87 2.856-21.214 2.856-12.593 0-24.504-2.922-35.095-8.124-2.648-1.3-5.213-2.744-7.685-4.32-5.805-4.027-11.164-8.755-15.896-14.037-1.577-1.76-3.085-3.582-4.516-5.46-3.463-4.71-6.412-9.806-8.804-15.158-2.394-5.085-4.232-11.355-5.48-16.686-.622-3.255-1.097-5.846-1.418-8.67-.276-2.435-.457-3.768-.54-6.283-.12-5.615.247-9.37 1.043-13.7.798-3.812 2.025-9.236 3.625-13.21 1.6-4.18 3.575-8.055 5.867-12.055 2.293-3.853 4.902-8.026 7.775-11.806 1.64-1.508 3.367-3.643 5.172-5.947 4.04-4.427 8.55-8.215 13.403-10.932 4.852-3.08 10.045-5.506 15.45-7.923 2.702-.334 5.456-1.973 8.248-2.71 4.445-.877 8.96-1.196 13.485-2.328 4.527-.56 9.067-.3 13.564.237 8.99.968 17.81 3.516 26 7.38 8.19 3.867 15.75 9.05 22.23 15.29 1.807 1.736 3.524 3.475 5.138 5.373 4.698 6.167 8.146 13.153 10.69 20.504.846 2.452 1.588 4.942 2.222 7.454 1.28 4.79 1.68 9.995 2.336 15.2.287 3.1.493 6.244.55 8.158" fill="#F6F3F1"/><path d="M211.056 239.183c0-1.016-11.58.355-23.157 0-11.58.48-23.158-.266-23.158 0 0-4.828 2.59-9.256 6.782-12.606 4.19-3.634 9.98-5.274 16.375-5.222 6.393.89 12.183 1.755 16.374 5.222 4.19 3.55 6.782 8.086 6.782 12.606" fill="#FFCC21"/><path d="M166.07 237.87c.675.008 1.596.03 2.868.063 4.36.11 11.653.295 18.91-.006.03 0 .06-.002.09 0 5.425.166 10.79-.048 15.1-.22 3.358-.134 5.37-.2 6.638-.144-.528-3.496-2.728-7.073-6.214-10.025-3.974-3.288-9.645-4.09-15.655-4.926h-.205c-6.273 0-11.544 1.697-15.255 4.916-3.683 2.945-5.866 6.567-6.278 10.342zm43.73 1.314v.002-.002zm-43.802 0c0 .175-.036.342-.1.493.062-.145.1-.31.1-.493zm13.23 1.423c-4.082 0-7.74-.093-10.353-.158-1.686-.045-3.287-.086-3.773-.06-.114.033-.235.052-.36.052-.694 0-1.256-.564-1.256-1.258 0-5.024 2.576-9.85 7.255-13.59 4.2-3.643 10.125-5.556 17.17-5.497.053 0 .107.004.16.012 6.12.85 12.45 1.73 17.004 5.497 4.604 3.9 7.238 8.844 7.238 13.577 0 .694-.563 1.258-1.256 1.258-.32 0-.612-.12-.833-.317-.962-.146-4.072-.023-7.085.096-4.338.174-9.732.39-15.232.222-2.957.122-5.915.165-8.68.165z" fill="#4B5170"/><path d="M206.157 186.163V171.39l-37.065.236v14.537c-2.372 0-4.295 2.493-4.295 5.57 0 3.075 1.923 5.567 4.295 5.567v1.638c0 5.135 2.075 10.288 5.428 14.32 2.744 3.222 4.754 4.465 8.775 5.364h.06v5.17c0 2.35 1.922 4.274 4.27 4.274 0 0 4.27-1.924 4.27-4.275v-5.04c3.4-.764 6.444-2.55 8.834-5.492 3.353-3.805 5.427-8.834 5.427-14.32V197.3c2.373 0 4.295-2.492 4.295-5.568 0-3.076-1.922-5.57-4.295-5.57" fill="#FFF"/><path d="M183.53 217.386c.593.11 1.082.62 1.082 1.236v5.17c0 1.575 1.213 2.874 2.755 3.006 1.447-.714 3.27-2.067 3.27-3.007v-5.04c0-.588.41-1.097.982-1.226 3.267-.735 6.004-2.437 8.136-5.06 3.33-3.78 5.145-8.57 5.145-13.525v-1.64c0-.694.564-1.258 1.257-1.258 1.647 0 3.04-1.973 3.04-4.31 0-2.336-1.393-4.31-3.04-4.31-.693 0-1.256-.563-1.256-1.258v-13.507l-34.55.22v13.287c0 .695-.564 1.258-1.257 1.258-1.648 0-3.04 1.974-3.04 4.31 0 2.337 1.392 4.31 3.04 4.31.693 0 1.256.564 1.256 1.26v1.637c0 4.662 1.87 9.588 5.136 13.513 2.546 2.99 4.358 4.104 8.044 4.933m4.095 11.94c-3.047 0-5.525-2.484-5.525-5.535v-4.162c-3.67-.948-5.837-2.386-8.535-5.554-3.644-4.38-5.728-9.893-5.728-15.135v-.558c-2.458-.702-4.296-3.417-4.296-6.65 0-3.233 1.84-5.948 4.297-6.65v-13.456c0-.692.557-1.254 1.247-1.258l37.066-.235c.34.026.656.13.893.365.237.237.37.558.37.893v13.692c2.458.702 4.295 3.417 4.295 6.65 0 3.233-1.837 5.948-4.295 6.65v.557c0 5.568-2.04 10.95-5.742 15.15-2.25 2.77-5.12 4.674-8.52 5.64v4.06c0 3.013-4.172 5.047-5.01 5.425-.162.072-.337.11-.515.11" fill="#4B5170"/><path d="M206.907 186.164s-8.417-11.938-7.787-14.06c.63-2.12-13.077 10.24-26.178 9.164-3.85-.317-3.658 4.898-3.658 4.898s-3.597-10.624-.418-15.907c7.663-12.733 28.443-13.26 35.9-5.165 5.452 5.92 2.14 21.07 2.14 21.07" fill="#BAC2E2"/><path d="M197.916 171.746v0M200.342 172.397c.01 1.196 2.785 5.933 5.842 10.496.624-4.556 1.21-13.09-2.34-16.944-3.348-3.635-9.965-5.534-16.865-4.827-7.548.768-13.757 4.335-17.038 9.785-1.57 2.608-1.237 7.074-.558 10.598.113-.14.236-.276.37-.403.855-.82 1.992-1.194 3.29-1.09 8.705.716 17.982-4.957 22.438-7.685 2.68-1.638 3.488-2.132 4.384-1.44.353.27.657.807.476 1.51m-31.058 15.026c-.53 0-1.014-.336-1.19-.854-.154-.456-3.744-11.243-.304-16.96 3.693-6.135 10.594-10.142 18.935-10.99 7.77-.792 15.04 1.363 18.965 5.622 5.83 6.328 2.585 21.546 2.445 22.192-.107.486-.49.865-.98.963-.486.1-.987-.1-1.274-.507-3.187-4.52-6.774-10.033-7.763-13.217-.41.243-.88.53-1.325.802-4.683 2.866-14.42 8.832-23.954 8.047-.77-.066-1.137.197-1.348.4-.842.805-.97 2.624-.95 3.198.023.624-.415 1.17-1.028 1.284-.077.013-.153.02-.228.02" fill="#4B5170"/><path d="M125.28 169.888s-8.55.972-9.87 7.628c-1.32 6.655 1.85 16.202 0 18.588-1.85 2.387-6.076 2.652-6.076 2.652s1.416 8.22 7.973 6.63c6.556-1.592 11.67-2.06 12.02-5.008.347-2.948-4.048-30.49-4.048-30.49" fill="#BAC2E2"/><path d="M110.91 199.8c.396 1.203 1.19 2.968 2.616 3.9.982.643 2.12.793 3.485.463 1.23-.3 2.41-.558 3.517-.8 3.957-.87 7.374-1.622 7.552-3.132.228-1.94-2.153-18.207-3.838-28.865-2.193.52-6.75 2.108-7.6 6.396-.62 3.118-.18 7.013.207 10.45.444 3.945.795 7.06-.448 8.666-1.424 1.837-3.9 2.608-5.493 2.924m4.768 7.05c-1.29 0-2.474-.35-3.538-1.05-3.196-2.104-4.01-6.638-4.044-6.83-.06-.352.03-.713.252-.994.22-.28.552-.453.908-.475 1.02-.067 3.94-.59 5.16-2.168.618-.795.24-4.147-.063-6.84-.408-3.62-.87-7.72-.175-11.22 1.482-7.472 10.573-8.59 10.96-8.634.663-.077 1.276.387 1.38 1.052.454 2.837 4.413 27.802 4.056 30.836-.388 3.29-4.214 4.13-9.51 5.293-1.09.24-2.25.494-3.46.788-.666.16-1.308.242-1.926.242" fill="#4B5170"/><path d="M164.997 169.83s8.568.974 9.89 7.63c1.325 6.655-1.852 16.2 0 18.588 1.855 2.386 6.09 2.652 6.09 2.652s-1.418 8.22-7.99 6.63c-6.57-1.593-11.698-2.06-12.047-5.008-.35-2.948 4.057-30.49 4.057-30.49" fill="#BAC2E2"/><path d="M166.034 171.304c-1.688 10.658-4.076 26.928-3.846 28.87.178 1.51 3.603 2.26 7.57 3.13 1.11.245 2.292.504 3.524.802 1.372.333 2.517.18 3.5-.465 1.427-.932 2.222-2.693 2.62-3.896-1.595-.316-4.078-1.086-5.505-2.925-1.246-1.605-.894-4.72-.448-8.665.387-3.437.827-7.332.206-10.45-.857-4.312-5.426-5.888-7.622-6.4m8.585 35.488c-.62 0-1.262-.08-1.928-.24-1.214-.296-2.378-.55-3.47-.79-5.307-1.163-9.14-2.004-9.53-5.293-.358-3.035 3.61-28 4.064-30.837.106-.665.713-1.13 1.382-1.05.387.042 9.496 1.16 10.983 8.63.697 3.502.234 7.605-.175 11.224-.304 2.693-.683 6.043-.065 6.838 1.226 1.58 4.154 2.1 5.18 2.17.354.023.685.196.904.476.22.282.313.643.252.994-.033.19-.848 4.72-4.047 6.825-1.067.7-2.257 1.053-3.55 1.053M168.04 238.12c0-1.018-11.58.353-23.158 0-11.58.48-23.157-.267-23.157 0 0-4.83 2.592-9.258 6.782-12.608 4.19-3.634 9.98-5.274 16.375-5.22 6.394.888 12.184 1.754 16.375 5.22 4.19 3.55 6.782 8.086 6.782 12.607" fill="#4B5170"/><path d="M123.053 236.806c.673.007 1.592.03 2.86.062 4.36.11 11.658.294 18.917-.006.03-.002.06-.002.09 0 5.427.165 10.792-.048 15.104-.22 3.356-.133 5.367-.2 6.635-.144-.53-3.495-2.73-7.072-6.215-10.025-3.974-3.288-9.645-4.09-15.655-4.925-6.353-.057-11.708 1.662-15.46 4.915-3.683 2.945-5.865 6.567-6.277 10.343zm43.73 1.312v.002-.002zm-43.802 0c0 .177-.036.344-.1.496.063-.146.1-.312.1-.496zm13.223 1.424c-4.083 0-7.74-.093-10.353-.16-1.683-.04-3.28-.082-3.765-.058-.115.034-.235.053-.36.053-.694 0-1.256-.564-1.256-1.26 0-5.02 2.575-9.848 7.253-13.59 4.198-3.64 10.135-5.543 17.17-5.495.053 0 .108.005.162.012 6.12.85 12.45 1.732 17.002 5.498 4.604 3.9 7.238 8.846 7.238 13.576 0 .695-.563 1.26-1.256 1.26-.32 0-.613-.122-.834-.318-.962-.147-4.068-.024-7.083.096-4.338.173-9.733.388-15.234.22-2.96.123-5.92.166-8.687.166z" fill="#4B5170"/><path d="M163.14 185.1v-14.774l-37.065.235v14.54c-2.37 0-4.294 2.492-4.294 5.568 0 3.075 1.924 5.568 4.295 5.568v1.638c0 5.135 2.075 10.287 5.428 14.32 2.744 3.22 4.754 4.465 8.775 5.363h.06v5.17c0 2.35 1.922 4.275 4.27 4.275 0 0 4.27-1.925 4.27-4.276v-5.04c3.402-.765 6.444-2.55 8.834-5.492 3.354-3.805 5.428-8.835 5.428-14.32v-1.638c2.373 0 4.295-2.493 4.295-5.568 0-3.076-1.922-5.57-4.295-5.57" fill="#FFF"/><path d="M140.514 216.32c.592.11 1.08.622 1.08 1.238v5.168c0 1.577 1.214 2.875 2.756 3.007 1.447-.714 3.27-2.067 3.27-3.007v-5.04c0-.588.41-1.098.982-1.227 3.268-.735 6.005-2.437 8.137-5.06 3.33-3.78 5.144-8.57 5.144-13.526v-1.638c0-.694.563-1.258 1.256-1.258 1.647 0 3.04-1.973 3.04-4.31 0-2.337-1.393-4.312-3.04-4.312-.693 0-1.256-.563-1.256-1.258v-13.506l-34.552.22v13.286c0 .695-.563 1.258-1.256 1.258-1.648 0-3.04 1.975-3.04 4.312s1.392 4.31 3.04 4.31c.693 0 1.256.564 1.256 1.258v1.638c0 4.664 1.872 9.59 5.137 13.514 2.545 2.99 4.356 4.104 8.044 4.933m4.094 11.94c-3.047 0-5.525-2.483-5.525-5.534v-4.163c-3.67-.948-5.838-2.386-8.535-5.553-3.644-4.38-5.728-9.894-5.728-15.136v-.556c-2.458-.702-4.296-3.418-4.296-6.65 0-3.234 1.838-5.95 4.296-6.65V170.56c0-.69.557-1.252 1.248-1.257l37.065-.236c.32.004.656.13.893.366s.37.558.37.893v13.69c2.458.703 4.295 3.418 4.295 6.652 0 3.232-1.836 5.948-4.293 6.65v.556c0 5.57-2.04 10.95-5.743 15.152-2.25 2.77-5.12 4.674-8.52 5.64v4.06c0 3.013-4.174 5.046-5.01 5.423-.163.072-.338.11-.516.11" fill="#4B5170"/><path d="M163.89 185.1s-8.417-11.94-7.787-14.06c.63-2.122-13.077 10.24-26.178 9.163-3.85-.316-3.657 4.898-3.657 4.898s-3.598-10.623-.42-15.906c7.664-12.732 28.445-13.26 35.902-5.163 5.45 5.92 2.14 21.07 2.14 21.07" fill="#BAC2E2"/><path d="M154.9 170.682h-.002m2.427.651c.01 1.196 2.785 5.933 5.842 10.495.624-4.556 1.21-13.09-2.34-16.944-3.348-3.634-9.964-5.53-16.865-4.827-7.547.77-13.756 4.336-17.037 9.786-1.566 2.603-1.233 7.07-.556 10.596.112-.142.234-.276.367-.403.855-.818 1.993-1.19 3.29-1.087 8.716.717 17.983-4.96 22.44-7.686 2.677-1.64 3.486-2.132 4.382-1.442.352.272.656.81.475 1.51m-31.06 15.026c-.53 0-1.012-.335-1.186-.852-.157-.457-3.747-11.244-.307-16.96 3.693-6.136 10.594-10.142 18.936-10.992 7.77-.79 15.04 1.364 18.963 5.623 5.83 6.328 2.585 21.547 2.444 22.192-.106.486-.49.864-.978.963-.487.102-.99-.1-1.276-.508-3.188-4.52-6.775-10.032-7.764-13.217-.41.243-.88.53-1.325.802-4.683 2.867-14.424 8.836-23.954 8.047-.763-.065-1.133.196-1.344.396-.834.794-.97 2.627-.953 3.205.02.624-.42 1.17-1.03 1.28-.078.014-.153.02-.227.02" fill="#4B5170"/></g></svg>