<svg width="49" height="50" viewBox="0 0 49 50" xmlns="http://www.w3.org/2000/svg" xmlns:xlink="http://www.w3.org/1999/xlink"><title>Page 1</title><defs><path id="a" d="M41.758.054v44.284H0V.054H41.76z"/></defs><g fill="none" fill-rule="evenodd"><path d="M27.69 1.058c-.83 0-1.66.316-2.29.948L8.625 18.833c-1.26 1.264-.993 2.662.788 2.662h3.176V40.97c0 1.787.493 2.37 2.274 2.37H40.582c1.78 0 2.275-.583 2.275-2.37V21.496h3.176c1.782 0 2.048-1.4.79-2.663L30.046 2.006c-.63-.632-1.527-.948-2.357-.948" fill="#BAC1E1"/><g transform="translate(6.844 .003)"><mask id="b" fill="#fff"><use xlink:href="#a"/></mask><path d="M2 20.374c.04.035.207.116.57.116h2.77l.406.002c.55 0 .997.448.997 1v19.474c0 .834.125 1.09.2 1.17.055.06.273.2 1.078.2H33.74c.805 0 1.023-.14 1.08-.2.073-.08.197-.336.197-1.17V21.493c0-.553.447-1 .997-1l.407-.002h2.77c.36 0 .53-.08.57-.116.014-.088-.072-.42-.488-.836L22.497 2.71c-.408-.41-1.025-.654-1.65-.654-.602 0-1.165.233-1.585.655L2.487 19.54c-.417.417-.502.748-.488.836m31.738 23.964H8.02c-.816 0-1.842-.095-2.532-.83-.653-.697-.74-1.676-.74-2.542V22.493h-2.18c-1.675 0-2.245-.942-2.413-1.347-.384-.93-.04-2.06.92-3.024L17.85 1.295c.798-.8 1.862-1.24 2.996-1.24 1.16 0 2.277.45 3.063 1.24l16.774 16.827c.96.963 1.304 2.093.92 3.024-.168.405-.738 1.347-2.414 1.347h-2.18v18.473c0 .866-.087 1.845-.74 2.54-.69.737-1.715.832-2.532.832" fill="#57585A" mask="url(#b)"/></g><path d="M16.758 14.296c-.39-.39-.39-1.024 0-1.415l8.58-8.605c.39-.39 1.02-.39 1.41 0 .39.39.39 1.025 0 1.416l-8.578 8.606c-.195.196-.45.294-.706.294-.255 0-.51-.098-.706-.294z" fill-opacity=".6" fill="#FEFEFE"/><path fill="#BAC1E1" d="M6.973 26.636l3.676 12.86L26.8 37.6l-2.198-10.964"/><path d="M29.536 46.2c0 1.516-1.225 2.745-2.735 2.745-1.51 0-2.734-1.23-2.734-2.744 0-1.514 1.224-2.742 2.735-2.742 1.51 0 2.736 1.228 2.736 2.743" fill="#FFCD20"/><path d="M26.8 44.46c-.957 0-1.736.78-1.736 1.74 0 .962.78 1.744 1.737 1.744.958 0 1.738-.782 1.738-1.743 0-.96-.78-1.74-1.737-1.74m0 5.486c-2.058 0-3.732-1.68-3.732-3.745 0-2.064 1.674-3.743 3.733-3.743 2.06 0 3.734 1.68 3.734 3.744 0 2.066-1.675 3.746-3.733 3.746M7.974 30.572c-.415 0-.802-.26-.944-.677l-2.19-6.42c-.083-.242-.452-.553-.706-.592l-3.29-.513c-.544-.085-.917-.597-.832-1.143.085-.547.595-.92 1.14-.836l3.29.515c.98.153 1.965.98 2.286 1.923l2.19 6.42c.18.522-.1 1.09-.62 1.27-.108.037-.217.054-.324.054" fill="#57585A"/><path d="M21.667 38.145l3.36-.357c.625-.066 1.192.39 1.26 1.017l.388 3.515c.07.626.07.626 0 0L25.07 27.774c-.068-.626-.637-1.138-1.265-1.138H6.973" fill="#FFCD20"/><path d="M25.735 42.9l-.44-3.985c-.008-.078-.084-.14-.162-.13l-3.36.356-.21-1.99 3.36-.358c.046-.005.092-.008.138-.01l-.98-8.898c-.014-.118-.157-.246-.275-.246H6.973v-2.003h16.832c1.14 0 2.133.89 2.258 2.03L27.72 42.68l-1.985.22z" fill="#57585A"/><path d="M32.267 44.687c-.848 0-1.664-.497-2.018-1.312l-1.174-2.7c-.092-.214-.45-.45-.68-.45h-2.062v-2h2.06c1.024 0 2.104.708 2.512 1.65l1.173 2.7c.036.084.154.133.24.1l1.88-.738.728 1.865-1.882.738c-.254.1-.52.147-.78.147" fill="#57585A"/><path d="M21.667 38.875c0 5.533-4.47 10.018-9.987 10.018-5.515 0-9.986-4.485-9.986-10.018 0-5.532 4.47-10.017 9.986-10.017 5.516 0 9.987 4.485 9.987 10.017" fill="#FFCD20"/><path d="M11.68 29.86c-4.956 0-8.988 4.043-8.988 9.015s4.032 9.016 8.988 9.016c4.957 0 8.99-4.043 8.99-9.015s-4.033-9.016-8.99-9.016m0 20.034C5.624 49.894.696 44.95.696 38.874c0-6.075 4.928-11.017 10.984-11.017 6.057 0 10.985 4.942 10.985 11.018 0 6.076-4.928 11.02-10.985 11.02" fill="#57585A"/><path d="M14.416 38.875c0 1.515-1.225 2.744-2.736 2.744-1.51 0-2.735-1.23-2.735-2.745 0-1.515 1.225-2.743 2.735-2.743 1.51 0 2.736 1.228 2.736 2.743" fill="#F5F3F1"/><path d="M11.68 37.133c-.957 0-1.737.78-1.737 1.742 0 .96.78 1.743 1.737 1.743.958 0 1.738-.782 1.738-1.743 0-.96-.78-1.742-1.738-1.742m0 5.487c-2.058 0-3.733-1.68-3.733-3.745 0-2.065 1.675-3.745 3.733-3.745 2.06 0 3.734 1.68 3.734 3.745 0 2.065-1.675 3.745-3.734 3.745" fill="#57585A"/><path d="M5.4 35.79c-.15 0-.3-.034-.443-.106-.494-.246-.695-.847-.45-1.342.84-1.693 1.423-2.157 3.294-3.104.493-.25 1.093-.05 1.34.443.25.495.052 1.097-.44 1.346-1.602.81-1.805.996-2.405 2.208-.175.352-.528.555-.895.555" fill-opacity=".6" fill="#FEFEFE"/></g></svg>