<svg width="46" height="46" viewBox="0 0 46 46" xmlns="http://www.w3.org/2000/svg" xmlns:xlink="http://www.w3.org/1999/xlink"><title>Page 1</title><defs><path id="a" d="M46 23v23H0V0h46z"/></defs><g fill="none" fill-rule="evenodd"><g><mask id="b" fill="#fff"><use xlink:href="#a"/></mask><path d="M23 0c12.703 0 23 10.297 23 23 0 12.702-10.297 23-23 23S0 35.702 0 23C0 10.297 10.297 0 23 0" fill="#F06027" mask="url(#b)"/></g><g fill="#FEFEFE"><path d="M32.302 12.444H13.698c-.553 0-1-.448-1-1s.447-1 1-1h18.604c.552 0 1 .448 1 1s-.448 1-1 1"/><path d="M13.697 12.444c-.535 0-.98-.423-1-.962-.02-.552.41-1.017.963-1.038l6.06-.227c.048-.135.114-.27.2-.4.51-.774 1.517-1.15 3.08-1.15 1.562 0 2.57.376 3.08 1.15.086.13.152.265.2.4l6.06.227c.55.02.982.485.96 1.038-.02.55-.468.973-1.036.962l-8.426-.316.53-1.238c-.12-.07-.48-.223-1.368-.223-.886 0-1.245.15-1.365.222l.53 1.237-8.43.317h-.038M29.063 37.333H16.938c-.552 0-1-.447-1-1 0-.553.447-1 1-1h12.125c.552 0 1 .447 1 1 0 .553-.448 1-1 1M32.302 16.065H13.698c-.553 0-1-.448-1-1s.447-1 1-1h18.604c.552 0 1 .448 1 1s-.448 1-1 1"/><path d="M29.064 37.333c-.05 0-.1-.004-.152-.012-.546-.082-.92-.59-.838-1.137l3.24-21.27c.083-.545.6-.918 1.14-.837.545.083.92.593.837 1.14l-3.24 21.267c-.074.496-.5.85-.986.85M16.936 37.333c-.485 0-.912-.354-.987-.85l-3.24-21.268c-.084-.546.29-1.056.837-1.14.544-.08 1.056.293 1.14.84l3.24 21.268c.082.546-.293 1.055-.84 1.138-.05.01-.1.013-.15.013M22.907 34.377c-.552 0-1-.447-1-1V17.91c0-.554.448-1 1-1s1 .446 1 1v15.467c0 .553-.448 1-1 1M19.526 34.377c-.503 0-.936-.38-.993-.89l-1.702-15.47c-.06-.548.337-1.042.885-1.102.545-.06 1.043.336 1.104.884l1.702 15.468c.06.548-.336 1.043-.885 1.103-.037.005-.074.007-.11.007M26.288 34.377c-.037 0-.074-.002-.11-.006-.55-.06-.946-.554-.886-1.102l1.703-15.47c.06-.547.553-.942 1.103-.883.55.06.945.554.885 1.103L27.28 33.486c-.056.512-.49.89-.992.89"/></g></g></svg>