<svg width="331" height="216" viewBox="0 0 331 216" xmlns="http://www.w3.org/2000/svg" xmlns:xlink="http://www.w3.org/1999/xlink"><title>Page 1</title><defs><path id="a" d="M0 215.466h330.582V0H0z"/></defs><g fill="none" fill-rule="evenodd"><path d="M270.754 212.948c.092.13.172.063.25.048.072-.025.15-.062.237-.106.167-.064.344-.168.523-.242.36-.163.734-.305 1.114-.423.38-.117.77-.2 1.164-.265.397-.057.796-.09 1.198-.122 1.606-.133 3.238-.215 4.874-.208l-.16.006c.888-.09 1.775-.168 2.654-.196.88-.035 1.755-.05 2.625-.052 1.74-.004 3.464.017 5.176.065 1.713.043 3.416.075 5.11.083.847.007 1.692.002 2.535-.012l1.263-.032 1.353-.054c.853.007 1.717.023 2.605.056.876.034 1.74.075 2.606.127l5.147.342c1.702.116 3.394.208 5.067.225.836.013 1.665 0 2.486-.043.822-.034 1.626-.124 2.42-.237l.18-.025.17.015c1.495.138 2.997.176 4.493.108.373-.018.746-.042 1.12-.07l.14-.013c.022-.004.046.007.066-.04l.057-.155c.02-.048.043-.042.067-.03l.072.026.145.052.586.2c.394.136.795.284 1.207.434.204.07.41.14.623.226l.32.125c.053.022.106.043.16.07.057.038.106.02.18.12h-.047c-.128.15-.33.287-.496.432-.174.15-.354.278-.536.408-.363.265-.737.516-1.12.74-.192.115-.386.216-.582.324l-.147.078-.073.04c-.025.016-.05.027-.08-.017l-.088-.144c-.03-.04-.054-.025-.08-.025l-.152.01c-.407.032-.815.055-1.223.07-1.63.064-3.263.012-4.885-.148l.35-.01c-.905.122-1.806.216-2.7.262-.89.05-1.778.068-2.657.06-.88 0-1.754-.03-2.622-.064l-2.594-.12-5.128-.27c-.848-.04-1.698-.068-2.538-.09-.825-.02-1.677-.022-2.54-.02l-1.217.062-1.31.044c-.873.02-1.744.034-2.613.034-1.736-.003-3.464-.052-5.18-.1-1.718-.042-3.424-.122-5.115-.15-1.69-.026-3.367-.014-5.005.09l-.118.006-.044-.002c-1.538-.068-3.085-.054-4.648.01-.39.018-.784.04-1.18.037-.4-.01-.802-.037-1.213-.107-.412-.072-.834-.173-1.267-.347-.218-.082-.438-.208-.663-.348-.108-.08-.222-.176-.32-.304-.096-.11-.143-.36-.046-.435l.044-.007zM0 212.842c1.07-1.747 2.26-1.74 3.414-1.744l3.48-.085c2.32-.043 4.638-.06 6.955-.06 2.316-.002 4.632.02 6.948.055l6.89.143 27.694.04 13.86-.017h4.11l.32.018.862.056 1.696.09c2.27.104 4.542.143 6.812.11 2.27-.03 4.536-.13 6.796-.31l1.76-.146 1.72-.106 3.448-.234c2.314-.155 4.664-.286 7.044-.28 2.378.004 4.79.16 7.188.543l-.227-.023c6.33.242 12.83-.327 19.484.01l-.134-.003c6.273-.114 12.44.308 18.51.23l1.122-.02 1.156-.036 2.31-.074 4.648-.123c3.107-.057 6.24-.047 9.383.144l1.178.08.295.022.224.02.143.018.574.073c.767.097 1.483.176 2.244.247 1.5.14 3.008.24 4.52.295 3.018.114 6.05.06 9.08-.126 1.492-.098 3.087-.216 4.634-.288 1.557-.075 3.118-.124 4.683-.14 3.13-.033 6.275.068 9.415.383l-.13-.006c4.66.077 9.33.044 14.01-.024 4.682-.064 9.373-.17 14.09-.145l.885.006.842-.008 1.76-.025 3.52-.04 7.042-.037c2.348-.002 4.696.007 7.046.033l3.53.057c.588.024 1.18.006 1.77.073.297.055.59.164.884.354.146.098.293.205.436.36.072.072.144.142.215.238.036.047.073.085.108.143l.054.085c.012.015.013.027.032.046l.02.026c-.008-.01.074.067.054.106h-.176c-.027.033.05.1.033.09l-.007.017c.003.012-.015.022-.02.033l-.055.068c-.038.05-.074.08-.11.12-.076.08-.15.14-.224.205-.15.135-.297.226-.443.31-.293.165-.584.255-.874.292-.58.032-1.16-.01-1.742-.007l-3.5-.018c-2.336 0-4.675.016-7.014.044l-7.017.114-3.51.078-1.755.044-.914.02-.872.003c-4.657.026-9.337.183-14.028.298-4.69.12-9.396.205-14.107.18h-.056l-.075-.008c-3-.268-6.03-.333-9.065-.27-1.518.033-3.04.098-4.56.188-1.533.088-3.012.204-4.595.32-3.124.215-6.266.292-9.41.196-1.57-.048-3.143-.14-4.713-.277-.775-.066-1.593-.15-2.356-.24l-.574-.07-.143-.017-.036-.004c.03.003-.09-.01.06.005h-.017l-.07-.005-.283-.02-1.127-.068c-3.014-.163-6.054-.152-9.11-.075l-4.6.152-2.31.09-1.157.046-1.19.03c-6.264.118-12.425-.258-18.486-.106h-.065l-.07-.002c-6.315-.33-12.792.235-19.433-.008l-.11-.004-.118-.02c-2.16-.343-4.37-.49-6.605-.493-2.238-.007-4.5.116-6.79.27l-3.46.234-1.735.106-1.69.142c-2.34.184-4.688.29-7.033.32-2.346.032-4.69-.008-7.03-.117l-1.763-.09-.865-.057-.107-.007-.054-.003-.028-.002c-.1-.003.108.004.076.004h-.216l-.433-.002-3.46-.015-13.835-.08-27.693-.238-6.952-.194c-2.298-.05-4.598-.09-6.896-.105-2.3-.014-4.597-.014-6.893.012l-3.44.06c-1.152.066-2.27.132-3.504-1.47" fill="#4B5170"/><path d="M173.24 74.97c-.002 2.094-.06 4.197-.186 6.3-.947 26.982-18.563 52.145-43.235 62.633-1.493.633-3.01 1.218-4.55 1.754s-3.103 1.024-4.686 1.46c-6.335 1.746-13.006 2.68-19.894 2.68-11.81 0-22.98-2.742-32.91-7.623-2.484-1.22-4.89-2.575-7.208-4.054-5.444-3.777-10.47-8.213-14.906-13.168-1.48-1.652-2.893-3.36-4.235-5.124-3.248-4.418-6.013-9.2-8.257-14.22-2.244-4.77-3.968-10.654-5.137-15.656-.585-3.054-1.03-5.485-1.33-8.134-.26-2.285-.43-3.536-.51-5.895-.11-5.268.234-8.792.98-12.854.748-3.578 1.9-8.667 3.4-12.396 1.5-3.92 3.352-7.556 5.5-11.31 2.15-3.614 4.598-7.528 7.292-11.075 1.54-1.416 3.158-3.42 4.85-5.58 3.79-4.153 8.02-7.708 12.57-10.256 4.55-2.89 9.42-5.166 14.488-7.434 2.534-.313 5.117-1.85 7.735-2.543 4.17-.822 8.402-1.12 12.646-2.183 4.246-.525 8.503-.28 12.72.222 8.432.908 16.702 3.3 24.382 6.925 7.68 3.628 14.772 8.49 20.848 14.346 1.693 1.627 3.303 3.26 4.818 5.04 4.405 5.786 7.64 12.34 10.023 19.237.795 2.3 1.49 4.636 2.085 6.992 1.2 4.496 1.575 9.378 2.19 14.262.27 2.91.462 5.858.517 7.653" fill="#F6F3F1"/><path d="M57.663 212.578v.002-.002zm0 .002c.002.71.49 1.235 1.006 1.398-.585-.196-1.005-.747-1.007-1.398zm34.806 1.55c-.48 0-1.02-.027-1.607-.103-1.054.088-2.19.027-3.392-.036-1.543-.08-3.14-.164-4.71.05-.102.014-.207.017-.31.01-3.457-.265-6.583-.158-8.14-.07h-.08c-1.302.004-2.37.04-3.008.063-.95.033-1.34.046-1.805-.403-.287-.278-.45-.662-.45-1.062V200.91l-1.05-.023c-.904-.02-1.92-.044-2.956-.045-1.632.373-3.21.3-4.352.174v11.562c0 .815-.66 1.475-1.472 1.475-.112 0-.222-.012-.327-.036-.866-.064-5.41-.068-6.345-.006-.12.03-.244.05-.373.05-.812 0-1.47-.66-1.473-1.472V188.293c0-.815.658-1.475 1.472-1.475.813 0 1.472.66 1.472 1.475v22.735c1.21-.02 2.89-.018 4.1.003v-11.663c0-.43.193-.85.518-1.13.55-.475 1.127-.387 1.795-.285.883.135 2.72.414 4.457-.017.16-.04.325-.043.49-.043 1.085 0 2.176.025 3.06.045.733.017 1.548.037 1.943.026.16-.06.333-.09.512-.09.813 0 1.472.66 1.472 1.474v11.72c.61-.017 1.387-.034 2.274-.037 1.62-.088 4.8-.194 8.336.065 1.79-.225 3.547-.132 5.103-.05 1.155.06 2.246.117 3.128.03.117-.012.237-.01.353.007.833.12 1.542.11 2.107.07V188.29c0-.815.66-1.476 1.472-1.476.814 0 1.473.66 1.473 1.475l-2.945.01 2.945-.01V212.7H94.56l-.914.903c.407.397.864.39.885.388-.08.002-.19.017-.33.03-.395.043-.99.106-1.73.106z" fill="#4B5170"/><path d="M64.147 174.345c-.046.132-.08.29-.08.473 0-.163.028-.322.08-.473zm-.08.473v.003-.002zm0 .005zm-15.526 18.51h.007-.006zm49.696 0v.003-.002zm-51.05 1.58c-.21 0-.398-.073-.625-.16-.568-.22-.963-.81-.963-1.42 0-.658.43-1.216 1.026-1.406.384-.34 1.453-1.376 4.19-4.41.836-1.9 4.205-4.837 7.092-7.113.8-.633 1.627-1.483 2.427-2.305.73-.75 1.422-1.46 2.07-1.98.83-1.015 1.47-1.67 1.82-2.03.05-.054.094-.098.127-.133.02-.028.042-.056.064-.082 1.484-1.76 2.945-3.102 4.358-4.4 1.23-1.13 2.395-2.2 3.505-3.48.288-.333.715-.52 1.148-.51.44.012.85.218 1.122.564 1.338 1.706 2.714 3.09 4.17 4.552.48.484.966.97 1.453 1.474 1.095 1.214 2.16 2.197 3.29 3.238.876.81 1.782 1.645 2.693 2.585 1.366 1.496 2.688 2.724 4.088 4.025.64.593 1.276 1.185 1.913 1.8 1.95 1.575 4.035 3.382 6.092 5.9 1.148.95 2.935 2.61 2.935 3.71 0 .814-.66 1.474-1.472 1.474-.627 0-1.163-.394-1.375-.947-.234-.318-1.073-1.235-2.068-2.05-.078-.064-.15-.135-.212-.213-1.933-2.386-3.93-4.11-5.798-5.62-.034-.027-.067-.055-.098-.086-.64-.617-1.28-1.21-1.92-1.805-1.38-1.286-2.81-2.614-4.227-4.168-.823-.848-1.698-1.656-2.545-2.437-1.128-1.04-2.295-2.116-3.445-3.393-.44-.454-.916-.932-1.39-1.407-1.087-1.093-2.202-2.214-3.302-3.484-.853.877-1.72 1.673-2.567 2.45-1.333 1.225-2.71 2.49-4.062 4.088-.11.145-.238.277-.37.412-.33.34-.95.975-1.747 1.96-.073.092-.158.174-.25.245-.517.394-1.183 1.08-1.89 1.804-.825.847-1.76 1.81-2.712 2.562-3.465 2.732-5.8 5.126-6.186 5.832-.05.285-.18.55-.378.76l-.11.118c-4.094 4.543-5.117 5.48-5.87 5.48z" fill="#4B5170"/><path d="M86.905 197.656c0 .205-9.83.057-9.83 0v-9.85c0 .224 9.83-.003 9.83 0v9.85z" fill="#FFCC21"/><path d="M78.522 187.532c.017.09.025.18.025.275 0-.096-.008-.187-.025-.275zm.025 8.703c1.852.038 5.113.065 6.885.04v-6.963c-3.464.067-5.57.096-6.885.073v6.85zm5.148 3c-1.442 0-3.106-.016-4.41-.038-.655-.01-1.22-.023-1.62-.035-.618-.018-2.062-.06-2.062-1.506v-9.85c0-.814.66-1.475 1.472-1.475.147 0 .29.023.424.063.427.033 2.143.083 8.993-.054l.165-.004c.08-.014.162-.02.246-.02.814 0 1.473.66 1.473 1.475v9.875c-.003.647-.287 1.02-.68 1.236-.198.127-.428.208-.676.228-.35.066-.716.076-1.013.085-.592.016-1.41.023-2.312.023zM56.186 185.674H53.24v-14.887c0-.957.655-1.466 1.945-1.515.34-.012.82-.024 1.39-.033 2-.034 5.087-.044 6.787-.008 1.243.028 2.653.06 2.653 1.555v5.037H63.07v-3.647c-1.792-.032-5.064-.016-6.884.02v13.477zM213.464 212.684c0 .732.518 1.268 1.056 1.415-.61-.18-1.056-.746-1.056-1.416m29.58 1.655c-3.712 0-7.617-.085-9.987-.182-.778-.03-1.397-.665-1.41-1.445-.06-2.992-.143-4.257-.216-5.374-.08-1.212-.148-2.258-.148-5.068v-9.88c-.02-.025-.036-.048-.053-.072-2.616-3.55-4.923-5.367-6.86-5.406-3.315.383-7.037 4.204-7.962 5.38v20.39c0 .815-.66 1.476-1.472 1.476-.102 0-.2-.01-.298-.03-1.892-.14-22.225-.143-24.377-.008-.117.03-.24.046-.365.046-.812 0-1.47-.66-1.473-1.473v-38.291c0-.815.66-1.475 1.473-1.475.813 0 1.472.66 1.472 1.474v36.732c.6-.013 1.353-.023 2.22-.032 2.134-.02 5.073-.034 8.273-.034 3.31 0 6.576.013 8.967.036 1.043.01 1.944.022 2.637.036V191.86c0-1.2 2.643-3.566 3.454-4.262 1.745-1.5 4.417-3.346 7.234-3.628.05-.006.106-.006.156-.007 4.423 0 8.086 4.97 9.29 6.604.03.042.06.08.085.116.33.27.543.683.543 1.145v10.444c0 2.713.064 3.666.143 4.872.062.957.132 2.02.188 4.116 5.17.164 13.27.206 16.362-.1.118-.01.236-.008.354.01 1.81.26 3.303.147 4.29.047v-36.82c0-.814.658-1.474 1.47-1.474.815 0 1.474.66 1.474 1.475l-2.945.016 2.945-.016v38.482h-2.932c.098.734.737 1.18 1.206 1.185h-.003c-.09 0-.37.03-.597.054-1.006.105-2.858.302-5.15-.006-1.816.164-4.832.225-7.99.225" fill="#4B5170"/><path d="M209.62 153.12v.002zm0 .004v.003-.003zm0 .004v.001zm0 .003v.005-.004zm0 .006v.003-.004zm0 .004v.003-.003zm0 .004v.003-.003zm0 .004v.003-.002zm0 .004v.004-.004zm0 .004v.003-.004zm0 .004v.004-.004zm0 .004v.003-.003zm0 .004v.003-.002zm0 .005v.003-.003zm-18.253 21.244v.002-.003zm-7.917 7.933h.005-.005zm80.03 0v.002-.002zm0 .003zm-81.39 1.592c-.212 0-.396-.07-.608-.153-.594-.23-.977-.795-.977-1.442 0-.715.507-1.31 1.18-1.447.557-.47 2.213-2.037 6.896-7.23 1.18-3.11 8.595-9.138 11.003-11.037 1.305-1.03 2.63-2.39 3.91-3.706 1.156-1.19 2.253-2.317 3.252-3.105 1.315-1.612 2.326-2.65 2.877-3.217.108-.11.193-.197.252-.26.028-.043.06-.084.093-.124 2.304-2.734 4.587-4.83 6.794-6.856 1.962-1.8 3.813-3.5 5.594-5.557.287-.33.707-.518 1.148-.507.44.01.85.217 1.122.563 2.14 2.73 4.326 4.927 6.64 7.252.755.76 1.517 1.526 2.283 2.316 1.73 1.92 3.424 3.482 5.218 5.137 1.373 1.267 2.793 2.577 4.213 4.042 2.16 2.367 4.355 4.408 6.477 6.38.99.92 2.015 1.872 3.026 2.847 3.066 2.475 6.342 5.313 9.563 9.266.806.67 4.382 3.73 4.382 5.244 0 .815-.66 1.475-1.472 1.475-.66 0-1.22-.437-1.407-1.037-.337-.514-1.826-2.137-3.485-3.495-.076-.063-.147-.134-.21-.212-3.096-3.822-6.283-6.576-9.266-8.983-.034-.027-.067-.057-.1-.087-1.005-.97-2.035-1.93-3.03-2.855-2.168-2.013-4.41-4.095-6.62-6.52-1.33-1.372-2.72-2.654-4.063-3.893-1.763-1.627-3.587-3.31-5.373-5.292-.72-.742-1.472-1.498-2.22-2.25-1.904-1.913-3.862-3.882-5.77-6.157-1.535 1.635-3.117 3.087-4.656 4.5-2.12 1.948-4.313 3.962-6.478 6.52-.14.19-.322.38-.542.606-.532.546-1.524 1.564-2.807 3.148-.074.09-.158.173-.25.245-.865.658-1.938 1.76-3.074 2.926-1.283 1.318-2.737 2.812-4.195 3.965-5.906 4.657-9.645 8.588-10.044 9.602-.03.33-.172.637-.397.875l-.177.196c-6.356 7.052-7.792 8.317-8.695 8.317z" fill="#4B5170"/><mask id="b" fill="#fff"><use xlink:href="#a"/></mask><path fill="#4B5170" mask="url(#b)" d="M209.688 152.982h2.945v-28.718h-2.945M234.922 152.982h2.945v-28.72h-2.945"/><path d="M241.905 131.01v.003-.002zm0 .005zm-37.13.247v.002-.002zm-1.474 1.476c-.812 0-1.47-.66-1.47-1.476 0-.833 0-1.78 10.49-11.85 2.91-2.79 5.6-5.294 6.946-6.537 1.552-1.436 2.43-2.245 2.975-2.702.05-.076.104-.15.164-.217.3-.335.737-.527 1.197-.527.73 0 1.833 0 11.604 10.147 9.646 10.017 9.646 10.87 9.646 11.434 0 .816-.66 1.476-1.472 1.476-.644 0-1.19-.413-1.39-.988-1.32-2.125-14.707-16.17-18.172-18.8-3.282 2.915-17.854 16.578-19.074 18.867-.14.67-.73 1.173-1.44 1.173z" fill="#4B5170" mask="url(#b)"/><path d="M225.65 128.983c0 2.825-1.064 2.542-2.378 2.384-1.314-.615-2.38-1.215-2.38-2.384 0-2.132 1.066-2.754 2.38-2.384 1.314-1.013 2.38 1.377 2.38 2.383" fill="#F37631" mask="url(#b)"/><path d="M223.687 129.932c.128.016.284.035.413.045.038-.173.08-.48.08-.993-.003-.228-.183-.718-.367-1.013-.296.118-.627.138-.94.05-.24-.068-.34-.04-.34-.04-.025.034-.168.328-.168 1.003 0 .287.81.704 1.322.95m.555 3c-.343 0-.67-.04-.96-.078l-.185-.023c-.155-.02-.307-.062-.448-.128-1.21-.565-3.23-1.512-3.23-3.72 0-1.934.737-2.9 1.356-3.37.623-.47 1.408-.664 2.255-.563.633-.253 1.312-.23 1.94.08 1.405.694 2.153 2.683 2.153 3.853 0 1.108-.12 2.487-1.06 3.318-.572.505-1.22.633-1.82.633" fill="#4B5170" mask="url(#b)"/><path d="M229.347 175.564c0 .205-9.83.057-9.83 0v-9.85c0 .224 9.83-.003 9.83 0v9.85z" fill="#F37631" mask="url(#b)"/><path d="M220.964 165.44c.017.088.026.18.026.275 0-.096-.01-.188-.026-.276zm.026 8.703c1.85.038 5.113.065 6.884.04v-6.963c-3.464.066-5.57.096-6.884.073v6.85zm5.147 3c-1.442 0-3.106-.016-4.41-.038-.655-.01-1.22-.023-1.62-.035-.617-.018-2.062-.06-2.062-1.506v-9.85c0-.814.66-1.475 1.472-1.475.147 0 .29.02.424.06.428.034 2.144.084 8.995-.053.056 0 .11-.002.165-.003.08-.014.162-.02.247-.02.813 0 1.472.66 1.472 1.475v9.873c-.003.647-.288 1.02-.68 1.236-.2.126-.428.206-.676.226-.353.066-.718.076-1.015.085-.592.017-1.41.024-2.313.024z" fill="#4B5170" mask="url(#b)"/><path d="M195.792 213.178c0 1.358-10.382-.426-24.223 0-6.922-.505-14.708-.805-22.494-.083-7.786.718-15.572.213-22.492.083-13.842.59-24.223-.335-24.223 0V198.09c.467-24.477.653-48.928.562-73.404-.015-4.08-.038-8.16-.06-12.234-.903-20.666.864-40.73.275-61.387 25.915 0 52.418 0 78.056-1.206 2.92-.064 5.515-.078 7.678-.057 4.326.04 6.922.22 6.922.412v25.463c0 3.84-.006 8.047-.043 12.504-.734 35.473-.734 70.293-.023 105.483.02 4.057.04 8.125.063 12.205l.002 7.308" fill="#FFCC21" mask="url(#b)"/><path d="M176.056 211.34c4.813 0 9.042.22 12.338.39 2.17.113 4.394.228 5.63.192v-6.05c-.024-4.004-.044-8.004-.063-11.994v-.205c-.718-35.526-.71-70.054.022-105.528.037-4.43.043-8.612.043-12.467V51.73c-.976-.064-2.614-.133-5.172-.157-2.33-.022-4.894-.003-7.62.056-25.037 1.177-51.057 1.205-76.284 1.205.2 9.127-.03 18.238-.254 27.068-.27 10.6-.546 21.558-.07 32.472.002.022.002.045.003.067.02 4.077.043 8.157.06 12.238.09 24.39-.1 49.1-.563 73.445v13.222c.55.013 1.223.035 2.05.06 4.327.14 11.57.376 20.33.002.038-.002.074-.003.11-.002 1.543.03 3.13.077 4.75.125 5.703.17 11.598.348 17.547-.2 8.51-.79 17.01-.34 22.692.072 1.528-.046 3.016-.065 4.45-.065m-71.93 1.844c0 .326-.09.632-.244.894.15-.248.244-.55.245-.894m89.29 2.282c-1.233 0-2.897-.08-5.205-.2-4.237-.22-10.04-.52-16.59-.318-.06 0-.12 0-.18-.005-5.56-.405-13.907-.855-22.203-.085-6.165.57-12.17.388-17.978.214-1.588-.047-3.144-.094-4.658-.123-8.868.375-16.46.13-20.54-.002-1.384-.045-2.698-.09-3.2-.073-.16.048-.328.073-.503.073-.975 0-1.766-.792-1.766-1.77V198.09c.463-24.35.65-49.034.56-73.397-.014-4.067-.037-8.135-.06-12.197-.48-11.025-.2-22.035.07-32.684.236-9.37.482-19.058.207-28.697-.013-.478.167-.94.5-1.284.332-.342.79-.535 1.267-.535 25.75 0 52.377 0 77.973-1.204 2.81-.06 5.41-.08 7.778-.058 3.925.038 6.234.06 7.47.5.042.015.084.032.126.05.76.307 1.068.802 1.074 1.605v25.49c0 3.864-.005 8.054-.042 12.52-.733 35.447-.74 69.927-.023 105.432v.23c.02 3.99.04 7.99.064 12v7.318c0 .56-.225 1.084-.636 1.475-.63.6-1.495.813-3.502.813" fill="#4B5170" mask="url(#b)"/><path d="M122.83 77.345c0 .27-15.25-1.098-15.25 0v-15.28c0 2.04 15.25-.167 15.25 0v15.28z" fill="#FFF" mask="url(#b)"/><path d="M109.05 62.062v.002-.002zm1.695 13.378c1.794 0 4.396.102 8.242.31.813.044 1.68.09 2.37.122V63.668l-.285.03c-6.176.66-9.856.863-12.02.596v11.19c.466-.03 1.023-.044 1.693-.044zm-1.694 1.905v.002-.002zm0 .004zm13.348 1.503c-.676 0-1.753-.058-3.57-.156-2.904-.157-8.79-.474-10.312-.214-.255.21-.582.338-.938.338-.813 0-1.472-.66-1.472-1.475v-15.28c0-.816.66-1.477 1.472-1.477.532 0 .997.282 1.256.704.935.262 3.832.336 11.926-.528.857-.09 1.425-.152 1.825-.17.186-.03.386-.026.568.015.202.03.337.094.477.2.404.263.672.72.672 1.24v15.295c0 .405-.17.8-.463 1.078-.323.306-.454.43-1.442.43z" fill="#4B5170" mask="url(#b)"/><path d="M145.41 77.345c0-.016-15.25-1.55-15.25 0v-15.28c0 .263 15.25-.93 15.25 0v15.28z" fill="#FFF" mask="url(#b)"/><path d="M131.57 61.622c.04.135.062.28.062.428 0-.154-.023-.297-.063-.428zm2.58 13.555c2.393 0 5.365.19 7.436.347.896.068 1.703.137 2.352.195V63.207c-2.053-.11-6.92.11-9.46.227-1.24.056-2.156.098-2.846.12v11.722c.67-.067 1.5-.1 2.517-.1zm-2.518 2.17zm13.78 1.49c-.138 0-.272-.018-.398-.054-2.625-.303-11.7-.98-13.726-.49-.27.323-.676.528-1.128.528-.813 0-1.472-.66-1.472-1.474V62.052c0-.815.66-1.475 1.472-1.475.134 0 .264.017.387.05.586.01 2.28-.07 3.795-.14 8.108-.37 10.477-.348 11.5.077.604.185 1.04.747 1.04 1.41v15.388c0 .815-.658 1.475-1.47 1.475z" fill="#4B5170" mask="url(#b)"/><path d="M167.992 77.345c0 .273-15.25 0-15.25 0v-15.28c0-1.73 15.25-1.968 15.25 0v15.28z" fill="#FFF" mask="url(#b)"/><path d="M154.214 75.897c3.256.053 9.63.13 12.306.078V62.678c-2.116-.736-10.06-.693-12.306.062v13.157zm-1.472 3.113c-.814 0-1.473-.66-1.473-1.475V62.027c0-.874.126-2.827 9.463-2.827 2.02 0 3.887.127 5.256.357.902.153 3.227.544 3.456 2.23h.02V77.48c0 .816-.66 1.477-1.474 1.477-.156 0-.306-.024-.447-.07-.22.017-.44.023-.646.028-2.187.058-7.16.008-10.23-.033-1.13-.016-2.118-.03-2.824-.042l-.4-.008c-.21.114-.45.178-.704.178z" fill="#4B5170" mask="url(#b)"/><path d="M190.574 77.345c0-.247-15.25.334-15.25 0v-15.28c0-.547 15.25.282 15.25 0v15.28z" fill="#FFF" mask="url(#b)"/><path d="M189.224 61.472c-.076.173-.122.37-.123.59.002-.21.046-.41.124-.59zm-12.43 14.503c1.64.015 4.637-.044 6.984-.09 2.563-.048 4.223-.087 5.323-.077v-12.21c-.95-.01-2.323-.048-4.353-.106-2.415-.07-6.12-.175-7.952-.136v12.62zm12.307 1.37zm.002.03c.002.157.03.304.075.438-.046-.138-.073-.285-.075-.438zm-11.69 1.558c-2.262 0-2.65-.105-2.975-.39-.356-.27-.587-.698-.587-1.18v-15.3c0-.398.174-.806.46-1.084.608-.593.734-.717 10.52-.438 2.096.06 4.672.133 5.352.1.124-.035.256-.054.392-.054.813 0 1.472.66 1.472 1.475v15.283c0 .812-.655 1.47-1.465 1.475-.122.013-.26-.015-.384-.048-.742-.044-3.845.016-6.362.064-3.06.06-5.074.097-6.42.097z" fill="#4B5170" mask="url(#b)"/><path d="M122.83 99.19c0 .158-15.25-.31-15.25 0V83.91c0 .86 15.25-.468 15.25 0v15.28z" fill="#FFF" mask="url(#b)"/><path d="M109.05 83.902zm0 .002zm0 .002v.003-.004zm1.02 13.694c1.5 0 3.72.035 7.054.088 1.502.024 3.13.05 4.233.06V85.284c-1.126.02-2.867.1-4.362.168-4.108.187-6.494.26-7.944.213v11.94c.298-.004.635-.006 1.02-.006zm11.253 3.092c-.943 0-2.29-.022-4.247-.054-3.218-.05-8.015-.13-9.043-.043-.146.046-.313.076-.462.07-.808-.003-1.464-.662-1.464-1.474V83.91c0-.817.66-1.477 1.472-1.477.298 0 .575.09.807.24 1.232.163 5.727-.042 8.477-.168 3.742-.17 5.29-.232 6.066-.12.767.052 1.374.69 1.374 1.473V99.19c0 .396-.16.777-.44 1.054-.347.342-.455.448-2.54.448z" fill="#4B5170" mask="url(#b)"/><path d="M145.41 99.19c0-.327-15.25-.653-15.25 0V83.91c0 1.266 15.25-1.33 15.25 0v15.28z" fill="#FFF" mask="url(#b)"/><path d="M131.632 83.906v.003-.004zm4.396 13.432c2.077 0 4.455.044 6.36.12.59.022 1.11.046 1.55.073V84.99c-1.397-.028-4.19.21-6.165.377-2.965.253-4.865.394-6.14.372v11.696l.2-.01c1.026-.058 2.477-.088 4.195-.088zm9.383 3.525c-.36 0-.69-.13-.946-.346-2.475-.222-11.19-.33-13.353-.082-.256.217-.588.348-.95.348-.813 0-1.472-.66-1.472-1.475v-15.4c0-.814.66-1.475 1.472-1.475.356 0 .683.127.937.338 1.066.11 4.256-.158 6.426-.343 6.232-.53 7.912-.575 8.818.26.35.32.543.755.543 1.222v15.478c0 .815-.66 1.475-1.472 1.475z" fill="#4B5170" mask="url(#b)"/><path d="M167.992 99.19s-15.25-.79-15.25 0V83.91c0 .505 15.25.365 15.25 0v15.28z" fill="#FFF" mask="url(#b)"/><path d="M154.176 83.573c.024.106.037.217.038.33 0-.116-.014-.227-.038-.33zm.038.33v.003-.002zm0 .003v.002-.002zm2.79 13.448c2.118 0 5.15.082 9.516.288v-12.07c-.365.02-.766.034-1.203.05-1.632.058-3.763.09-5.844.09-1.32 0-3.216-.012-4.738-.077l-.52-.023v11.812c.69-.045 1.594-.07 2.788-.07zm-2.79 1.836v.002-.002zm0 .004zm0 .002zm0 .002zm0 .002zm13.778 1.568c-.215 0-.42-.047-.605-.13-6.87-.336-12.5-.42-13.844-.21-.23.15-.506.238-.8.238-.815 0-1.474-.66-1.474-1.476V83.908c0-.814.658-1.475 1.472-1.475.235 0 .458.056.656.155 1.742.266 11.11.197 13.633-.003.26-.223.595-.36.962-.36.814 0 1.473.662 1.473 1.477v15.59c0 .815-.66 1.476-1.473 1.476z" fill="#4B5170" mask="url(#b)"/><path d="M190.574 99.19c0-.075-15.25-2.12-15.25 0V83.91c0-.808 15.25.304 15.25 0v15.28z" fill="#FFF" mask="url(#b)"/><path d="M179.4 96.756c2.446 0 5.392.255 7.434.47.86.088 1.635.18 2.268.26V85.427c-.814-.02-1.943-.064-3.538-.13-2.516-.1-6.828-.274-8.77-.195v11.792c.698-.093 1.558-.14 2.605-.14zm-2.605 2.435v.002zm13.78 1.477c-.143 0-.28-.02-.41-.058-2.017-.385-11.498-1.33-13.56-.694-.253.447-.732.75-1.282.75-.814 0-1.473-.66-1.473-1.475V83.908c0-.024 0-.048.002-.072.02-.397.187-.766.48-1.047.734-.708 1.793-.823 11.35-.437 1.673.068 3.535.153 4.31.14.18-.078.375-.12.582-.12.813 0 1.472.66 1.472 1.475v15.347c0 .814-.658 1.473-1.47 1.475h-.002z" fill="#4B5170" mask="url(#b)"/><path d="M122.83 119.477c0 .892-15.25.636-15.25 0v-15.282c0-.267 15.25.125 15.25 0v15.282z" fill="#FFF" mask="url(#b)"/><path d="M109.05 118.325c2.637.28 9.75.375 12.307.076v-12.713c-.91-.003-2.202-.016-4.063-.042-2.5-.034-6.3-.086-8.243-.065v12.745zm7.09 3.205c-2.096 0-4.25-.06-5.91-.163-2.394-.15-4.124-.256-4.124-1.89v-15.282c0-.395.16-.78.442-1.057.59-.583.59-.583 10.786-.443 1.805.025 3.787.066 4.766.05.215-.123.464-.193.73-.193.813 0 1.472.66 1.472 1.475v15.45c0 1.876-2.238 2.053-8.162 2.053z" fill="#4B5170" mask="url(#b)"/><path d="M145.41 119.477c0-.324-15.25.156-15.25 0v-15.282c0-.805 15.25-.032 15.25 0v15.282z" fill="#FFF" mask="url(#b)"/><path d="M131.632 105.358v12.674c1.073-.01 2.64-.035 4.088-.06 4.277-.07 6.746-.108 8.218-.083v-12.307c-2.968-.148-9.76-.39-12.306-.225M145.412 121c-.22 0-.426-.048-.612-.133-1.312-.074-6.086.007-9.03.056-6.14.103-6.14.103-6.64-.392-.283-.276-.442-.658-.442-1.053v-15.3-.07c.067-1.752 2.15-1.752 5.565-1.752 2.413 0 5.32.095 7.33.175 1.12.045 2.097.09 2.794.125 1.29.066 2.506.127 2.506 1.54v15.33c0 .814-.66 1.475-1.472 1.475" fill="#4B5170" mask="url(#b)"/><path d="M167.992 119.477c0 2.708-15.25-1.044-15.25 0v-15.282c0-.67 15.25-1.137 15.25 0v15.282z" fill="#FFF" mask="url(#b)"/><path d="M154.214 117.845c.864.065 2.047.22 3.725.45 2.35.318 7.037.956 8.58.63V105.18c-2.453-.352-9.66-.21-12.306.13v12.535zm0 1.632v.003-.003zm0 .003v0zm0 .064zm10.906 2.412c-1.904 0-4.427-.31-7.577-.738-1.504-.205-3.336-.453-4.075-.458-.214.122-.462.193-.726.193-.814 0-1.473-.66-1.473-1.476v-15.332c0-.108.01-.213.033-.315.056-.284.182-.513.368-.697.167-.177.376-.312.61-.39.77-.323 1.926-.407 3.29-.505 1.793-.13 4.11-.207 6.202-.207 1.267 0 3.073.03 4.485.165 1.18.113 3.138.3 3.206 1.913l.002.074v15.296c0 .62-.262 1.19-.74 1.607-.715.627-1.916.87-3.605.87z" fill="#4B5170" mask="url(#b)"/><path d="M190.574 119.477c0 .44-15.25-2.028-15.25 0v-15.282c0 .946 15.25-.876 15.25 0v15.282z" fill="#FFF" mask="url(#b)"/><path d="M176.795 104.185zm0 .002v.003-.003zm1.798 13c1.99 0 4.74.223 8.486.598.686.07 1.42.142 2.022.195v-12.56c-1.372-.002-3.89.143-5.848.26-3.213.193-5.186.29-6.46.27v11.32c.517-.058 1.113-.084 1.8-.084zm-1.798 2.29v.002-.003zm13.48 1.528c-.643 0-1.672-.102-3.49-.284-2.628-.26-8.603-.858-10.222-.448-.26.41-.72.68-1.24.68-.814 0-1.473-.66-1.473-1.475V104.19c0-.815.66-1.476 1.473-1.476.307 0 .592.094.828.256 1.087.115 4.567-.094 6.928-.235 6.502-.388 7.65-.37 8.38.238.357.27.588.697.588 1.18v15.34c0 .49-.24.927-.61 1.195-.27.22-.53.317-1.16.317z" fill="#4B5170" mask="url(#b)"/><path d="M122.83 139.763c0-.452-15.25.982-15.25 0v-15.28c0 .972 15.25-.47 15.25 0v15.28z" fill="#FFF" mask="url(#b)"/><path d="M109.05 138.623c1.794.084 5.723-.114 8.245-.24 1.876-.095 3.16-.158 4.062-.178v-12.338c-1.062.027-2.66.107-4.034.177-4.31.216-6.783.298-8.272.24v12.34zm1.153 2.964c-2.504 0-3.128-.224-3.6-.673-.247-.237-.41-.534-.47-.86-.018-.09-.027-.185-.027-.28v-15.296c0-.815.66-1.474 1.472-1.474h.003c.324 0 .623.105.865.283 1.29.183 5.907-.05 8.73-.19 5.42-.273 5.996-.282 6.542.188.356.27.585.697.585 1.178v15.326c0 .813-.66 1.474-1.472 1.474-.203 0-.395-.04-.57-.115-.785-.028-3 .087-4.817.18-3.41.17-5.688.257-7.24.257z" fill="#4B5170" mask="url(#b)"/><path d="M145.41 139.763c0-.576-15.25.003-15.25 0v-15.28c0-.888 15.25.354 15.25 0v15.28z" fill="#FFF" mask="url(#b)"/><path d="M144.1 123.805c-.098.192-.16.415-.162.67 0-.242.06-.47.163-.67zm-12.468 1.845v12.586c6.83-.23 10.39-.253 12.306-.156v-12.066c-.84-.02-2.014-.074-3.693-.148-2.47-.11-6.71-.3-8.613-.216zm13.78 15.71c-.34 0-.65-.115-.898-.306-1.43-.118-6.083-.106-14.096.177-.084.015-.17.023-.258.023-.813 0-1.473-.66-1.473-1.475V124.45c0-.396.157-.756.41-1.02.025-.03.052-.057.078-.082.752-.72 1.875-.847 11.2-.43 1.87.083 3.97.176 4.608.15.135-.04.287-.068.428-.062.814 0 1.473.66 1.473 1.475v15.404c0 .815-.66 1.476-1.472 1.476z" fill="#4B5170" mask="url(#b)"/><path d="M167.992 139.763c0-.177-15.25 1.75-15.25 0v-15.28c0-.497 15.25-1.008 15.25 0v15.28z" fill="#FFF" mask="url(#b)"/><path d="M154.214 138.936c1.49.225 5.316.063 11.41-.484l.896-.08v-12.844c-2.51-.29-9.627-.107-12.306.153v13.256zm2.157 3.043c-2.582 0-3.855-.29-4.502-.883-.386-.354-.6-.828-.6-1.334V124.48c0-1.6 1.498-1.69 4.478-1.868 1.927-.116 4.323-.185 6.41-.185 1.725 0 3.184.047 4.218.136 1.065.09 2.792.24 3.057 1.556.023.102.035.208.035.318v15.33c0 .814-.66 1.475-1.473 1.475-.064 0-.128-.004-.19-.013-.316.018-1.128.09-1.916.16-4.332.39-7.374.59-9.515.59z" fill="#4B5170" mask="url(#b)"/><path d="M190.574 139.763c0 1.025-15.25-.612-15.25 0v-15.28c0 1.298 15.25 1.445 15.25 0v15.28z" fill="#FFF" mask="url(#b)"/><path d="M176.795 124.48zm0 13.668c1.014.015 2.508.09 4.778.217 2.292.127 5.85.325 7.53.258v-11.98c-.223.033-.432.06-.617.082-1.364.17-3.222.262-5.233.262-2.062 0-4.104-.1-5.602-.274-.266-.032-.557-.066-.855-.11v11.545zm0 1.615v.002-.002zm0 .003v.002-.002zm0 .002v.003-.002zm0 .003v.003-.002zm0 .003v.002-.002zm0 .002v.003-.003zm0 .003c0 .03 0 .06-.003.09l.003-.09zm-.003.09zm0 .002zm11.436 1.715c-1.465 0-3.604-.096-6.817-.274-2.093-.115-4.66-.257-5.476-.204-.186.085-.393.132-.61.132-.815 0-1.474-.66-1.474-1.475V124.48c0-.814.66-1.474 1.473-1.474.45 0 .85.2 1.12.518 1.977.66 10.668.704 12.854.084.253-.443.73-.74 1.277-.74.813 0 1.472.66 1.472 1.475v15.466c0 .423-.178.805-.464 1.074l-.038.038c-.483.458-1.18.663-3.316.663z" fill="#4B5170" mask="url(#b)"/><path d="M122.83 160.05c0-.218-15.25.183-15.25 0v-15.282c0 .4 15.25.55 15.25 0v15.282z" fill="#FFF" mask="url(#b)"/><path d="M109.05 144.695zm0 .002v.002-.003zm0 .002v0zm0 .04v.002-.002zm0 .002v.002-.002zm0 .002v.002-.002zm0 .003zm0 .002zm0 .002zm0 .002zm0 .002v.002-.002zm0 1.694v12.174c1.4 0 3.692-.03 5.654-.056 3.327-.043 5.37-.07 6.653-.056v-12.02l-.516.024c-1.524.07-3.42.086-4.744.086-2.083 0-4.214-.036-5.848-.1-.435-.017-.833-.032-1.197-.052zm.56 15.12c-2.59 0-2.702-.11-3.064-.467-.28-.277-.44-.66-.44-1.053v-15.292c0-.815.66-1.475 1.472-1.475.222 0 .433.05.622.138 1.8.25 11.944.355 13.912.05.212-.12.457-.188.718-.188.813 0 1.472.66 1.472 1.475v15.296c0 .814-.658 1.472-1.47 1.474h-.002c-.128 0-.25-.016-.37-.047-.85-.052-4.8 0-7.718.038-2.354.032-3.987.053-5.133.053z" fill="#4B5170" mask="url(#b)"/><path d="M145.41 160.05c0 .794-15.25.542-15.25 0v-15.282c0 .906 15.25 1.625 15.25 0v15.282z" fill="#FFF" mask="url(#b)"/><path d="M131.632 144.76zm0 0v.002zm0 .004zm0 0v.004-.003zm12.306.002v.002-.002zm-12.306 14.085c2.663.238 9.722.33 12.306.078v-11.973l-.16.022c-1.406.194-3.204.234-4.467.234-3.695 0-6.106-.17-7.678-.436v12.077zm7.2 3.18c-2.1 0-4.272-.052-5.963-.143-2.61-.14-4.182-.226-4.182-1.838v-15.282c0-.815.66-1.476 1.472-1.476.376 0 .72.14.98.374 2.24.716 11.28.753 13.082.232.268-.367.7-.606 1.19-.606.812 0 1.47.66 1.47 1.476v15.33c0 .103-.01.202-.03.298-.24 1.306-1.882 1.416-3.344 1.514-1.493.1-3.366.12-4.675.12z" fill="#4B5170" mask="url(#b)"/><path d="M167.992 160.05c0 .573-15.25 1.144-15.25 0v-15.282c0 1.658 15.25-1.078 15.25 0v15.282z" fill="#FFF" mask="url(#b)"/><path d="M154.214 144.766v.002-.002zm0 14.277c2.342.274 9.47.255 12.306-.128v-12.93c-1.184.027-3.21.213-4.796.36-3.706.34-6.013.504-7.51.427v12.27zm4.403 3.143c-1.74 0-3.213-.054-4.26-.156-.937-.09-2.573-.25-2.99-1.388-.063-.165-.098-.345-.098-.532v-15.342c0-.815.658-1.476 1.472-1.476.438 0 .83.192 1.1.496 1.254.2 5.19-.16 7.613-.383 5.537-.508 6.69-.544 7.486.183.274.25.452.585.507.944.012.075.018.152.018.23v15.373c0 .78-.605 1.418-1.37 1.47-.755.212-1.8.284-3.08.37-1.915.132-4.307.21-6.398.21z" fill="#4B5170" mask="url(#b)"/><path d="M149.076 213.33c0 1.143-15.25-.303-15.25 0v-25.908c0 .834 15.25-.49 15.25 0v25.91z" fill="#F37631" mask="url(#b)"/><path d="M135.298 187.416zm0 0v.003-.003zm0 .004v.002-.002zm0 24.422c.66.028 1.533.077 2.7.143 2.586.145 7.58.426 9.606.28v-23.478c-1.167.017-3.013.1-4.59.17-3.976.18-6.3.252-7.716.212v22.672zm0 1.49c0 .37-.136.706-.36.965.21-.24.36-.565.36-.964zm10.678 1.918c-1.77 0-4.338-.106-8.143-.32-1.473-.082-3.128-.172-3.65-.167-.115.03-.235.043-.358.043-.813 0-1.472-.66-1.472-1.475v-25.908c0-.815.66-1.475 1.472-1.475.29 0 .562.084.79.23 1.202.152 5.585-.046 8.266-.167 3.15-.14 4.795-.21 5.737-.163.144-.047.3-.073.46-.073.812 0 1.47.66 1.47 1.475v26.094c0 .11-.01.216-.033.318-.067.32-.232.615-.48.85-.516.49-1.345.738-4.058.738z" fill="#4B5170" mask="url(#b)"/><path d="M164.327 213.33c0 .306-15.25-.312-15.25 0v-25.908c0 .762 15.25-1.36 15.25 0v25.91z" fill="#F37631" mask="url(#b)"/><path d="M150.872 211.76c1.232 0 3.082.037 5.923.095 2.018.04 4.58.09 6.06.088v-23.496c-1.643-.097-5.33.17-7.684.34-2.17.156-3.62.254-4.62.276v22.697h.322m-.323 1.57c0 .118-.015.23-.04.34.025-.107.04-.22.04-.34m12.012 1.568c-1.213 0-3.035-.037-5.826-.094-2.7-.054-6.352-.13-7.218-.066-.14.045-.288.068-.442.068-.813 0-1.472-.66-1.472-1.475v-25.94c0-.816.66-1.476 1.472-1.476.272 0 .526.073.744.2.876.036 3.22-.132 5.14-.27 5.778-.42 8.282-.514 9.544-.083.73.09 1.295.712 1.295 1.466v26.105c0 .397-.164.786-.446 1.063-.382.375-.515.505-2.792.505" fill="#4B5170" mask="url(#b)"/><path d="M190.574 160.05c0-.205-15.25 2.435-15.25 0v-15.282c0 .567 15.25.8 15.25 0v15.282z" fill="#FFF" mask="url(#b)"/><path d="M176.795 144.757zm0 .002zm12.307.002zm-12.307 0zm12.307 0v.003-.002zm-12.307 0v.003-.002zm0 .004v.002-.002zm12.307 0v.002-.002zm-12.307 14.7c1.046.262 3.99.292 11.63-.677.248-.033.473-.06.677-.086v-12.087c-1.225.113-2.912.142-5.202.142-2.094 0-4.248-.053-5.91-.146-.423-.023-.823-.045-1.195-.074v12.926zm2.17 3.102c-2.358 0-3.666-.322-4.4-.97-.37-.327-.607-.747-.686-1.205-.02-.095-.03-.193-.03-.294v-15.332c0-.815.66-1.476 1.473-1.476.265 0 .515.07.73.194 1.79.333 11.696.48 13.67.078.24-.172.534-.272.85-.272.814 0 1.473.66 1.473 1.476v15.282c0 .86-.765 1.544-1.606 1.47-.273.022-.97.11-1.645.196-4.466.567-7.612.852-9.83.852z" fill="#4B5170" mask="url(#b)"/><path d="M175.47 181.38c0 1.77-13.197.212-26.394 0-13.197-.958-26.394.553-26.394 0v-7.288c0 1.023 13.197-.466 26.394 0 13.197 1.4 26.394 1.52 26.394 0v7.29z" fill="#FFF" mask="url(#b)"/><path d="M124.154 174.068v.002-.002zm24.987 5.84c4.446.07 8.89.294 12.81.49 4.823.244 10.224.516 12.048.206v-4.335c-6.69 1.164-23.93-.592-25.024-.705-6.427-.224-12.974.02-17.757.2-3.56.135-5.706.203-7.063.15v4.11c.86-.018 2.097-.073 3.31-.127 4.99-.222 13.342-.594 21.677.01zm22 3.786c-2.192 0-5.2-.14-9.337-.347-3.91-.197-8.342-.42-12.75-.49-.028 0-.056-.002-.084-.004-8.177-.595-16.44-.227-21.377-.007-4.784.213-5.284.236-5.915-.37-.255-.244-.423-.592-.46-.947h-.008v-7.46c0-.815.66-1.476 1.472-1.476.354 0 .68.125.933.334 1.07.13 4.33.01 7.49-.11 4.843-.182 11.474-.43 18.023-.2.034 0 .07.003.104.006 13.03 1.384 23.042 1.294 25.032.62.266-.38.707-.628 1.206-.628.813 0 1.472.66 1.472 1.476v7.32c0 .097-.01.192-.027.283-.067.387-.26.744-.558 1.028-.743.71-2.213.97-5.218.97z" fill="#4B5170" mask="url(#b)"/><path d="M196.086 50.233c0 .1-10.446-.106-24.375 0-6.964.445-14.8-.473-22.634-.254-7.835.632-15.67-.302-22.635.253-13.928-.09-24.374.052-24.374 0 0-.578-2.358-16.848-2.358-16.563 0 .633 10.97-.285 25.6 0 7.312 1.36 15.54-.14 23.768.144 8.228.24 16.456.462 23.77-.144 14.627-.82 25.598.22 25.598 0 0 .074-2.358 17.32-2.358 16.563" fill="#FFF" mask="url(#b)"/><path d="M197.406 32.624c-.225.22-.396.528-.43.912 0-.005.002-.01.003-.013.033-.35.19-.664.426-.9m-96.485.23c.125.215.202.463.257.712-.02-.286-.12-.525-.256-.713m50.732 15.618c2.782 0 5.544.107 8.235.212 4.14.16 8.052.315 11.73.08.028-.003.055-.004.083-.004 8.103-.062 14.906-.02 19.407.01 1.53.01 2.86.02 3.74.02.43-2.855 1.462-10.31 1.917-13.653-.242-.01-.51-.02-.806-.034-4.08-.176-12.574-.542-23.03.043-7.503.622-16.21.37-23.894.146-3.138-.11-6.323.05-9.404.2-5.07.253-9.86.49-14.47-.347-7.285-.14-13.59.02-18.2.135-2.612.065-4.33.105-5.496.094l.087.586c.224 1.51.517 3.53.81 5.567.567 3.95.86 6.08 1.014 7.244l2.535-.012c4.364-.02 11.663-.058 20.478 0 3.427-.27 6.967-.19 10.715-.106 3.88.087 7.888.177 11.855-.143l.077-.006c.873-.024 1.746-.034 2.617-.034m43.044 1.27c-.052.15-.082.316-.082.493 0-.168.028-.33.08-.48 0-.004 0-.01.002-.012m-27.262 2.092c-2.475 0-5.022-.1-7.66-.2-3.475-.137-7.068-.276-10.618-.18-4.105.33-8.178.238-12.12.15-3.693-.083-7.18-.16-10.478.102-.04.003-.076.004-.126.004-8.826-.057-16.14-.02-20.508 0-4.442.023-4.444.022-4.896-.43-.266-.264-.42-.62-.434-.994-.082-1.05-2.166-15.442-2.32-16.295-.025-.107-.038-.215-.038-.32 0-.815.66-1.48 1.473-1.48.325 0 .578.074.777.198.92.078 3.59.01 6.4-.06 4.662-.117 11.05-.277 18.448-.133.08 0 .16.01.24.024 4.308.8 8.97.57 13.91.325 3.14-.156 6.388-.316 9.642-.206 7.598.22 16.22.47 23.597-.14 10.642-.597 19.233-.225 23.36-.047.887.038 1.74.09 2.054.073.1-.02.2-.032.306-.032.813 0 1.472.66 1.472 1.476 0 .105-.01.208-.033.31-.11.888-.484 3.64-1.122 8.214-.287 2.073-.58 4.142-.804 5.694-.114.782-.21 1.433-.283 1.89-.033.208-.07.445-.13.68-.034.214-.114.417-.233.597-.222.387-.586.678-1.22.678-.096 0-.19-.01-.283-.03-.794.04-2.173.032-4.72.016-4.484-.03-11.26-.074-19.324-.012-1.42.09-2.862.124-4.33.124" fill="#4B5170" mask="url(#b)"/><path d="M107.58 41.95c0 .364 5.186.863 12.966.252 7.78-1.19 18.156-1.574 28.53-.25 10.375-1.932 20.75-.184 28.53-.08 7.78-.55 12.968.982 12.968.08" fill="#FFF" mask="url(#b)"/><path d="M109.05 41.95h.007-.006zm4.206 2.006c-2.99 0-5.91-.19-6.653-.88-.302-.278-.497-.713-.497-1.125 0-.814.66-1.474 1.472-1.474.297 0 .574.088.805.24 1.072.235 5.485.528 11.995.02 8.857-1.35 19.283-1.45 28.656-.277 7.52-1.364 14.91-.866 21.437-.427 2.535.17 4.93.332 7.094.363 4.297-.297 7.794.018 10.11.227.744.067 1.565.142 2.018.146.246-.185.55-.294.882-.294.813 0 1.472.66 1.472 1.475 0 .477-.193.916-.544 1.237-.74.677-1.72.59-4.09.375-2.236-.2-5.612-.507-9.703-.218-.042.003-.084.004-.124.004-2.26-.03-4.714-.196-7.312-.37-6.42-.432-13.698-.922-20.93.424-.15.028-.303.032-.454.013-9.19-1.173-19.44-1.083-28.12.246-.037.006-.073.01-.11.013-.067.005-3.785.283-7.404.283z" fill="#4B5170" mask="url(#b)"/><path d="M241.144 90.673c0 6.736 5.45 12.197 12.172 12.197 2.618 0 5.037-.836 7.022-2.246 1.12 3.384 4.298 5.827 8.05 5.827 4.004 0 7.35-2.78 8.245-6.517 2.48 1.844 5.553 2.937 8.88 2.937 8.24 0 14.92-6.694 14.92-14.95 0-6.523-4.168-12.066-9.98-14.11-2.203-6.052-7.998-10.373-14.8-10.373-4.97 0-9.398 2.308-12.285 5.91-2.345-1.917-5.34-3.067-8.602-3.067-7.523 0-13.622 6.11-13.622 13.65 0 1.974.422 3.848 1.174 5.542-.745 1.58-1.174 3.338-1.174 5.2M21.72 129.365c.12 5.072 4.32 9.085 9.382 8.963 1.97-.047 3.777-.72 5.247-1.817.903 2.53 3.34 4.31 6.165 4.243 3.014-.073 5.484-2.227 6.09-5.057 1.9 1.344 4.234 2.11 6.738 2.05 6.205-.148 11.114-5.308 10.965-11.525-.118-4.91-3.356-9.007-7.768-10.44-1.768-4.518-6.208-7.667-11.33-7.544-3.74.09-7.034 1.908-9.142 4.67-1.8-1.4-4.075-2.21-6.532-2.153-5.664.137-10.146 4.848-10.01 10.523.035 1.487.386 2.89.983 4.153-.533 1.2-.825 2.532-.79 3.935" fill="#BAC2E2" mask="url(#b)"/><path d="M255.59 96.297c.153 0 .308.024.458.074.443.146.792.494.938.938.954 2.88 3.627 4.816 6.653 4.816 3.25 0 6.053-2.215 6.81-5.387.117-.48.465-.873.93-1.043.464-.168.984-.094 1.38.202 2.33 1.73 5.097 2.646 8.003 2.646 7.416 0 13.448-6.045 13.448-13.475 0-5.714-3.614-10.825-8.994-12.716-.416-.145-.744-.47-.896-.886-2.047-5.624-7.44-9.404-13.417-9.404-4.348 0-8.407 1.953-11.136 5.358-.246.307-.603.503-.994.544-.39.044-.78-.075-1.085-.324-2.16-1.763-4.883-2.735-7.67-2.735-6.7 0-12.15 5.46-12.15 12.175 0 1.716.35 3.38 1.046 4.943.174.393.17.842-.014 1.23-.686 1.454-1.033 2.992-1.033 4.57 0 5.913 4.8 10.722 10.7 10.722 2.217 0 4.35-.682 6.17-1.974.252-.178.55-.27.852-.27m8.05 8.777c-3.68 0-6.993-2.015-8.72-5.162-1.953 1.038-4.12 1.58-6.354 1.58-7.523 0-13.644-6.133-13.644-13.672 0-1.796.35-3.548 1.043-5.216-.692-1.762-1.043-3.618-1.043-5.526 0-8.34 6.772-15.126 15.095-15.126 2.986 0 5.914.897 8.384 2.55 3.25-3.444 7.73-5.393 12.503-5.393 6.98 0 13.298 4.272 15.935 10.7 6.2 2.477 10.318 8.523 10.318 15.257 0 9.057-7.354 16.426-16.393 16.426-2.882 0-5.653-.74-8.116-2.15-1.61 3.454-5.076 5.732-9.008 5.732M32.782 130.657c.143 0 .286.02.426.062.446.134.803.474.96.914.717 2.004 2.613 3.324 4.745 3.265 2.28-.056 4.207-1.656 4.686-3.892.102-.485.44-.885.902-1.065.46-.18.98-.118 1.385.168 1.72 1.218 3.74 1.834 5.855 1.783 5.382-.13 9.656-4.622 9.527-10.016-.1-4.147-2.812-7.794-6.75-9.073-.42-.136-.756-.454-.917-.865-1.588-4.057-5.58-6.71-9.924-6.608-3.164.076-6.082 1.568-8.01 4.092-.238.313-.59.517-.98.567-.39.052-.782-.055-1.092-.296-1.59-1.238-3.583-1.894-5.593-1.844-2.346.056-4.53 1.024-6.15 2.726-1.62 1.703-2.48 3.935-2.424 6.286.03 1.24.314 2.437.843 3.555.184.39.19.838.015 1.23-.467 1.058-.69 2.17-.663 3.304v.002c.048 2.058.895 3.974 2.383 5.395 1.487 1.42 3.445 2.182 5.492 2.127 1.595-.038 3.117-.566 4.402-1.525.258-.193.567-.293.88-.293m6.01 7.194c-2.71 0-5.178-1.387-6.605-3.61-1.423.74-2.992 1.145-4.616 1.185-2.843.057-5.538-.978-7.594-2.942-2.058-1.964-3.228-4.615-3.296-7.46-.032-1.354.19-2.68.664-3.95-.535-1.318-.823-2.707-.857-4.14-.075-3.14 1.074-6.12 3.237-8.393 2.162-2.272 5.078-3.566 8.21-3.64 2.215-.047 4.41.53 6.303 1.664 2.435-2.588 5.78-4.096 9.372-4.182 5.343-.112 10.275 2.998 12.467 7.846 4.773 1.84 8.013 6.412 8.137 11.58.167 7.02-5.396 12.867-12.402 13.035-2.103.043-4.143-.41-5.99-1.338-1.273 2.563-3.868 4.273-6.838 4.344h-.19" fill="#4B5170" mask="url(#b)"/><path d="M124.592 213.704c.047-.364.075-.733.076-1.11.02-5.073-4.07-9.2-9.132-9.22-1.97-.007-3.795.616-5.294 1.672-.834-2.552-3.22-4.4-6.047-4.412-3.015-.01-5.544 2.075-6.227 4.886-1.864-1.396-4.174-2.227-6.68-2.237-5.937-.02-10.804 4.578-11.235 10.42h44.54z" fill="#86AC5B" mask="url(#b)"/><path d="M81.77 212.23h41.42c-.174-4.086-3.537-7.365-7.66-7.38-1.586-.005-3.13.48-4.442 1.403-.382.268-.867.34-1.31.193-.444-.148-.79-.497-.936-.94-.66-2.024-2.53-3.388-4.653-3.396h-.02c-2.273 0-4.233 1.543-4.772 3.76-.117.48-.467.87-.933 1.04-.464.167-.982.09-1.38-.208-1.684-1.264-3.692-1.935-5.802-1.943h-.036c-4.54 0-8.432 3.168-9.477 7.47m42.823 2.95h-44.54c-.41 0-.8-.17-1.08-.472-.278-.3-.42-.703-.39-1.113.49-6.618 6.048-11.787 12.664-11.787h.047c2.105.008 4.13.523 5.95 1.504 1.34-2.52 3.968-4.153 6.926-4.153h.03c2.785.01 5.298 1.48 6.694 3.794 1.432-.694 2.997-1.055 4.607-1.055h.04c5.868.02 10.623 4.822 10.6 10.7 0 .416-.03.838-.087 1.29-.094.737-.72 1.29-1.46 1.29" fill="#4B5170" mask="url(#b)"/><path d="M236.62 213.485c-.447-3.705-3.59-5.396-7.408-5.396-.58 0-1.143.072-1.685.197-2.08-5.07-7.056-8.643-12.867-8.643-2.822 0-5.447.845-7.64 2.293-1.804-1.434-4.085-2.293-6.566-2.293-.048 0-.095.003-.143.004-.59-4.762-4.64-8.45-9.552-8.45-5.32 0-9.63 4.322-9.63 9.65 0 .206.008.41.02.61-.624-.134-1.272-.206-1.936-.206-5.097 0-9.23 4.14-9.23 9.247 0 1.084.196 2.123.538 3.09 22.037.13 44.065-.335 66.1-.105" fill="#86AC5B" mask="url(#b)"/><path d="M171.63 212.12c9.797.05 19.734-.016 29.356-.08 11.026-.07 22.405-.146 33.644-.05-1.216-2.156-4.07-2.426-5.418-2.426-.438 0-.894.055-1.354.16-.704.163-1.42-.208-1.693-.876-1.926-4.695-6.442-7.73-11.505-7.73-2.438 0-4.8.71-6.83 2.05-.53.352-1.227.32-1.725-.075-1.625-1.29-3.578-1.974-5.65-1.974l-.117.003c-.75.017-1.394-.545-1.487-1.293-.505-4.08-3.984-7.156-8.092-7.156-4.498 0-8.158 3.668-8.158 8.175 0 .173.007.346.018.517.028.46-.16.908-.51 1.21-.348.3-.816.42-1.268.324-.536-.114-1.084-.172-1.63-.172-4.275 0-7.754 3.486-7.754 7.77 0 .545.058 1.087.174 1.623m7.204 2.97c-2.78 0-5.556-.008-8.322-.024-.62-.004-1.172-.397-1.38-.982-.412-1.165-.62-2.37-.62-3.585 0-5.913 4.8-10.723 10.7-10.723.164 0 .33.004.493.012.535-5.64 5.287-10.066 11.053-10.066 5.163 0 9.597 3.572 10.787 8.493 1.992.177 3.878.84 5.545 1.948 2.304-1.31 4.9-1.997 7.57-1.997 5.867 0 11.14 3.294 13.74 8.484.273-.026.544-.04.812-.04 4.973 0 8.37 2.566 8.87 6.696.05.422-.083.845-.365 1.16-.283.318-.675.51-1.112.492-11.864-.124-23.93-.045-35.6.032-7.274.048-14.73.097-22.17.097M13.242 214.073c-.33 0-.584-.005-.788-.017-.823-.006-1.562-.3-2.126-.86-.563-.56-.874-1.315-.877-2.126v-1.666c0-.815.66-1.476 1.473-1.476.813 0 1.472.66 1.472 1.476v1.652c.14-.008.283.02.42.064.422.002 1.28-.004 2.02-.014.047 0 .07-.022.07-.05v-1.21c0-.814.658-1.475 1.47-1.475.815 0 1.474.662 1.474 1.476v1.21c0 1.654-1.344 3-2.996 3-.678.01-1.202.017-1.612.017" fill="#4B5170" mask="url(#b)"/><path d="M33.798 209.44c0-.03-2.225.028-5.192 0-1.483.015-3.152-.063-4.82.026-1.67-.028-3.338-.087-4.82-.025-2.968-.053-5.193-.038-5.193 0-1.506-.038-2.71-.4-3.54-1.027-.827-.68-1.28-1.925-1.28-3.292V185.183c0-1.437.61-2.818 1.598-3.864.988-.806 2.35-1.627 3.857-1.6 0 .043 1.173.002 2.93.035.88-.08 1.906.043 3.005-.023 1.1.085 2.27-.084 3.444-.012 1.172-.133 2.344.097 3.443.02 1.098-.063 2.124-.006 3.003-.02 1.758 0 2.93-.013 2.93 0 1.506-.083 2.87.665 3.857 1.6.987 1.03 1.597 2.32 1.597 3.865v19.939c0 1.53-.452 2.665-1.28 3.29-.828.57-2.033 1.025-3.54 1.03" fill="#FFCC21" mask="url(#b)"/><path d="M14.807 178.297c.128.037.25.09.36.157-.115-.07-.236-.124-.36-.157zm1.06 1.23c.008.06.013.12.013.18 0-.06-.005-.12-.012-.18zm.013.18v.004-.002zm0 .004v.003-.002zm0 .004v.002-.002zm4.577 28.224c.76 0 1.542.016 2.31.032l.995.02c1.11-.058 2.19-.044 3.236-.032.55.007 1.083.013 1.594.008 1.69.015 3.12.004 4.05-.004.51-.005.876-.008 1.15.007v-.004c1.36-.005 2.254-.46 2.68-.748.434-.347.673-1.09.673-2.096v-19.94c0-1.054-.39-2-1.162-2.815-.513-.48-1.525-1.245-2.738-1.176-.066.004-.133.004-.2 0-.134-.004-.465-.002-.944 0-.49.002-1.12.004-1.868.003-.31.006-.67.002-1.043-.004-.608-.008-1.234-.016-1.878.02-.573.04-1.15.01-1.706-.02-.586-.033-1.14-.065-1.655-.006-.084.01-.17.012-.255.006-.5-.03-1.018-.01-1.566.012-.585.023-1.188.046-1.8.006-.56.028-1.095.015-1.57.004-.474-.013-.92-.023-1.286.01-.055.006-.11.008-.163.006-.825-.015-1.518-.014-2.02-.013-.412 0-.72 0-.967-.022-1.032.005-2.057.642-2.765 1.207-.72.795-1.13 1.804-1.13 2.783v19.94c0 .936.29 1.78.738 2.148.533.402 1.432.653 2.56.694.732-.074 2.146-.055 5.222.002.486-.02.993-.028 1.51-.028zm-5.21 1.504c0 .397-.162.78-.447 1.056-.2.195-.447.327-.713.385.58-.113 1.16-.662 1.16-1.44zm8.54 1.5h-.026l-1.055-.022c-1.312-.027-2.553-.052-3.678-.004h-.09c-2.66-.047-4.51-.04-4.928-.018-.09.015-.182.02-.276.018-1.785-.047-3.3-.505-4.386-1.325-1.202-.982-1.865-2.595-1.867-4.463v-19.944c0-1.78.712-3.512 2-4.878.045-.047.09-.09.14-.13 1.605-1.312 3.22-1.954 4.815-1.932.073 0 .146.008.217.02.13.003.347 0 .633 0 .5 0 1.187 0 2.003.014.51-.04 1.036-.03 1.545-.016.466.013.948.026 1.42-.003.068-.004.135-.004.203 0 .476.04 1 .018 1.558-.004s1.135-.043 1.736-.015c.715-.068 1.404-.03 2.018.004.487.027.948.052 1.357.024.767-.044 1.477-.035 2.102-.027.343.004.672.007.98.003.772-.003 1.397-.002 1.884-.004.425-.002.743-.003.992.006 1.727-.096 3.487.614 4.95 2l.05.05c1.313 1.37 2.007 3.06 2.007 4.887v19.94c0 2.527-1.015 3.825-1.866 4.468l-.053.04c-1.197.824-2.75 1.282-4.367 1.287-.06 0-.11-.002-.165-.01-.156-.002-.494.002-.974.006-.94.007-2.387.02-4.07.004-.505.005-1.06-.002-1.63-.008-1.016-.013-2.067-.026-3.1.03h-.078z" fill="#4B5170" mask="url(#b)"/><path d="M32.812 196.34c0 .167-1.977.22-4.614 0-1.32-.033-2.802.043-4.286-.003-1.483-.053-2.966-.037-4.285.002-2.637.032-4.615-.17-4.615 0-1.102.255-1.996-.543-1.996-1.705v-5.715c0-1.042.894-1.52 1.996-1.705 0-.03 1.978.196 4.615 0 1.32-.115 2.802-.107 4.285-.024 1.484-.043 2.967-.024 4.286.025 2.637-.053 4.614-.125 4.614 0 1.103-.08 1.996.815 1.996 1.705v5.715c0 .878-.893 1.654-1.996 1.704" fill="#FFF" mask="url(#b)"/><path d="M31.34 187.215c0 .252.06.476.16.667-.104-.205-.16-.433-.16-.667zm-3.885 7.64c.265 0 .524.003.78.01.028 0 .056 0 .085.004 1.996.166 3.415.158 3.912.113.158-.068.33-.11.514-.118.348-.016.565-.202.596-.277l-.006-5.67c-.012-.046-.167-.243-.415-.232-.18.013-.362-.007-.532-.058-.446-.02-1.687.007-2.794.033l-1.367.03h-.083c-1.472-.055-2.88-.062-4.19-.024-.04 0-.082 0-.124-.002-1.55-.087-2.92-.08-4.075.02-2.18.163-3.913.055-4.565.014l-.065-.004c-.403.082-.578.187-.636.23v5.71c0 .165.05.25.076.27.42-.135.993-.116 2.052-.083.772.025 1.83.06 2.99.043 1.598-.048 3.032-.048 4.357 0 .754.023 1.532.012 2.283.003.41-.005.814-.01 1.207-.01zm3.885 1.48zm0 .002v.002-.003zm-14.855.004v.002zm0 .003v.002-.002zm0 .002c0 .102-.01.202-.032.3.02-.096.03-.195.032-.3zm14.76 1.625c-.765 0-1.777-.045-3.126-.157-.585-.013-1.2-.005-1.833.003-.784.01-1.595.022-2.42-.004-1.267-.046-2.637-.045-4.196 0-1.25.017-2.345-.017-3.144-.042-.395-.013-.836-.02-1.07-.024l-.11.03c-.94.217-1.89.013-2.613-.563-.745-.593-1.177-1.516-1.19-2.536V188.888c.01-.803.353-2.642 3.225-3.128v.002c.215-.034.42-.02.606-.01.597.038 2.184.138 4.144-.01 1.258-.11 2.748-.12 4.414-.028 1.34-.038 2.78-.03 4.276.025l1.32-.03c2.124-.047 3.054-.068 3.568.028.794.036 1.562.355 2.154.906.637.594 1.01 1.395 1.03 2.208v5.782c0 1.573-1.357 2.93-3.085 3.152-.36.106-.94.184-1.95.184zM18.384 184.346c-.347 0-.744-.053-1.118-.415l2.06-2.107-1.036 1.048.034-1.472.178-.006c.434-.014 1.333-.045 2.443.003.523.002 1.092-.003 1.673-.008 1.087-.008 2.212-.017 3.198.008h2.582c.814 0 1.473.66 1.473 1.475 0 .815-.658 1.476-1.472 1.476h-2.62c-.975-.026-2.074-.017-3.137-.008-.603.005-1.19.01-1.733.008-.02 0-.042 0-.062-.002-1.008-.045-1.842-.016-2.243-.002-.07.002-.143.004-.218.004" fill="#4B5170" mask="url(#b)"/><path d="M17.08 202.695c0 1.175-1.015 2.28-2.27 2.275-1.253.105-2.27-.83-2.27-2.275 0-1.166 1.017-2.245 2.27-2.275 1.255-.032 2.27.975 2.27 2.275" fill="#FFF" mask="url(#b)"/><path d="M14.868 201.895h-.02c-.463.01-.835.446-.835.8 0 .296.082.535.23.673.113.102.264.148.444.13.044-.003.08-.002.132-.004.272.007.442-.148.53-.238.162-.16.258-.37.258-.562 0-.234-.084-.447-.237-.596-.094-.094-.258-.203-.502-.203m-.252 4.558c-.89 0-1.72-.318-2.364-.913-.763-.703-1.184-1.713-1.184-2.846 0-1.983 1.698-3.7 3.708-3.75.994-.012 1.94.345 2.652 1.042.726.71 1.125 1.67 1.125 2.708 0 .974-.41 1.94-1.125 2.654-.698.696-1.604 1.084-2.558 1.096-.086.006-.17.01-.254.01" fill="#4B5170" mask="url(#b)"/><path d="M35.555 202.695c0 1.26-1.016 2.303-2.27 2.275-1.254-.096-2.27-1.055-2.27-2.275 0-1.36 1.016-2.272 2.27-2.275 1.254.07 2.27 1.076 2.27 2.275" fill="#FFF" mask="url(#b)"/><path d="M33.244 201.896c-.374.017-.757.233-.757.8 0 .4.377.744.867.8.227-.008.387-.118.483-.21.158-.157.245-.366.245-.59 0-.396-.38-.754-.838-.8m.092 4.55c-.055 0-.11 0-.163-.005-2.07-.157-3.63-1.767-3.63-3.745 0-2.133 1.606-3.745 3.738-3.75.027.004.06 0 .09.002 2.05.117 3.657 1.763 3.657 3.748 0 1.01-.412 1.994-1.132 2.7-.693.68-1.6 1.05-2.56 1.05M27.545 204.897h-7.28c-.815 0-1.474-.66-1.474-1.476 0-.814.66-1.474 1.474-1.474h7.28c.815 0 1.474.66 1.474 1.475 0 .816-.66 1.477-1.473 1.477M27.545 208.01h-7.28c-.815 0-1.474-.66-1.474-1.474 0-.815.66-1.475 1.474-1.475h7.28c.815 0 1.474.66 1.474 1.476 0 .815-.66 1.475-1.473 1.475M39.545 196.897h-.338c-.814 0-1.473-.66-1.473-1.476v-8.26c0-.814.66-1.475 1.473-1.475h.338c1.58 0 2.867 1.29 2.867 2.874v5.463c0 1.585-1.286 2.874-2.867 2.874M9.458 195.42zm-1.375 1.627c-.262 0-.512-.063-.733-.18-.46-.083-.89-.29-1.255-.61-.62-.544-.978-1.358-.978-2.234v-5.464c0-.833.337-1.62.925-2.162.488-.45 1.102-.7 1.755-.716.106-.02.218-.03.337-.03.366 0 .662.082.897.212.456.25.766.737.766 1.294v8.263c0 .96-.903 1.627-1.713 1.627zM33.044 212.557h.006-.006zm.938.003zm0 .002c0 .157.024.304.067.44-.044-.14-.068-.287-.068-.44zm.27.84v.003c.158-.223.264-.506.264-.845 0 .312-.098.603-.265.843zm-.003.003c-.052.073-.11.14-.174.204.063-.06.12-.13.174-.203v-.002zm1.304.632c-.074 0-.15-.003-.224-.01-.088-.007-.173-.022-.255-.044-.362-.022-1.308-.02-1.67.005-.096.024-.196.04-.3.043-.797.037-1.548-.253-2.127-.81-.59-.565-.928-1.363-.928-2.188v-1.207c0-.815.66-1.476 1.472-1.476.813 0 1.472.66 1.472 1.475v1.207c0 .023.007.04.013.05.735-.114 1.624-.075 2.167-.048.107.005.208.015.302.03.014-.022.026-.045.03-.06l-.003-1.618v-.005c0-.816.66-1.477 1.473-1.477.813 0 1.472.66 1.472 1.476v1.652c0 .822-.38 1.66-1.015 2.247-.536.492-1.196.757-1.88.757zM299.187 214.07c-.813 0-1.473-.66-1.473-1.474v-25.628c0-.815.66-1.476 1.473-1.476.813 0 1.472.66 1.472 1.476v25.628c0 .815-.66 1.475-1.473 1.475" fill="#4B5170" mask="url(#b)"/><path d="M319.594 188.268H278.78c-.813 0-1.472-.66-1.472-1.476 0-.815.66-1.475 1.472-1.475h40.814c.814 0 1.473.66 1.473 1.475 0 .815-.66 1.476-1.473 1.476" fill="#4B5170" mask="url(#b)"/><path d="M319.467 188.268c-.813 0-1.472-.66-1.472-1.476v-17.86c0-.815.66-1.475 1.472-1.475.814 0 1.473.66 1.473 1.475v17.86c0 .815-.66 1.476-1.473 1.476M278.653 188.268c-.814 0-1.473-.66-1.473-1.476v-17.86c0-.815.66-1.475 1.473-1.475.813 0 1.472.66 1.472 1.475v17.86c0 .815-.66 1.476-1.472 1.476M298.57 211.18h1.233v-8.185h-1.232v8.186zm3 3.542h-4.766c-.976 0-1.767-.793-1.767-1.77v-11.727c0-.978.79-1.77 1.767-1.77h4.766c.976 0 1.767.792 1.767 1.77v11.726c0 .98-.79 1.772-1.767 1.772z" fill="#4B5170" mask="url(#b)"/></g></svg>