<svg width="57" height="48" viewBox="0 0 57 48" xmlns="http://www.w3.org/2000/svg" xmlns:xlink="http://www.w3.org/1999/xlink"><title>Page 1</title><defs><path id="a" d="M56.985 44.396V.03H0v44.366h56.985z"/><path id="c" d="M0 47.306h56.985V0H0z"/></defs><g fill="none" fill-rule="evenodd"><path d="M42.408 3.937c10.86 0 12.92 2.86 12.92 2.86.365.507.665 1.435.665 2.062v36.644c0 .626-.438.876-.974.555 0 0-4.354-2.61-12.777-2.61-7.957 0-12.756 2.645-12.756 2.645-.547.302-1.433.285-1.968-.036 0 0-4.354-2.61-12.777-2.61-7.957 0-12.756 2.645-12.756 2.645-.547.302-.994.035-.994-.59V8.858c0-.628.304-1.553.675-2.056 0 0 2.116-2.867 13.24-2.867 10.858 0 12.92 2.86 12.92 2.86.365.507.97.51 1.34.007 0 0 2.116-2.867 13.24-2.867z" fill="#BAC1E1"/><g transform="translate(0 2.91)"><mask id="b" fill="#fff"><use xlink:href="#a"/></mask><path d="M28.36 3.313zM54.524 4.47s.005.01.017.025l-.016-.024zm-27.5 0s.007.013.024.035l-.025-.034zm-24.55.018l-.018.024.017-.024zm27.503 0c-.01.01-.017.022-.026.033.02-.02.027-.032.027-.032zM14.743 39.542c8.598 0 13.097 2.638 13.284 2.75.232.14.746.15.983.02.205-.114 5.115-2.77 13.233-2.77 7.037 0 11.33 1.767 12.757 2.47V5.95c0-.412-.222-1.11-.46-1.458-.147-.156-2.48-2.468-12.132-2.468-9.984 0-12.343 2.362-12.46 2.488-.365.48-.89.754-1.448.754h-.01c-.56-.003-1.087-.283-1.45-.77-.114-.127-2.41-2.472-12.132-2.472-9.913 0-12.31 2.33-12.458 2.485-.24.34-.465 1.03-.465 1.44V42.07c1.43-.675 5.974-2.53 12.758-2.53zM55 42.618zm-26.456 1.778c-.55 0-1.1-.13-1.534-.39-.04-.024-4.267-2.47-12.267-2.47-7.574 0-12.234 2.5-12.28 2.524-.574.317-1.19.33-1.684.036C.283 43.8 0 43.254 0 42.593V5.95C0 5.11.374 3.97.87 3.3c.12-.16.81-.994 2.9-1.775C6.43.533 10.177.03 14.91.03c4.624 0 8.286.502 10.884 1.494 1.663.635 2.422 1.306 2.71 1.62.293-.313 1.07-.984 2.77-1.62C33.928.535 37.676.03 42.407.03c4.624 0 8.286.502 10.884 1.494 2.046.78 2.724 1.617 2.84 1.777.486.677.853 1.815.853 2.65v36.643c0 .668-.287 1.215-.788 1.5-.5.287-1.116.255-1.687-.087-.04-.024-4.267-2.47-12.267-2.47-7.614 0-12.233 2.498-12.278 2.523-.41.225-.914.336-1.42.336z" fill="#57585A" mask="url(#b)"/></g><mask id="d" fill="#fff"><use xlink:href="#c"/></mask><path fill="#57585A" mask="url(#d)" d="M27.5 46.14h1.985V35.865H27.5"/><path d="M28.566 11.87c-9.008-3.83-17.33-5.354-15.214 12.168.72 5.97 4.95 12.76 8.848 14.236 3.083 1.167 6.046-1.086 6.366-3.098.32 2.012 3.284 4.265 6.367 3.098 3.898-1.475 8.305-8.247 8.848-14.236C45.564 4.41 34.02 9.84 28.567 11.87" fill="#FFCD20" mask="url(#d)"/><path d="M28.566 34.18c.488 0 .903.355.98.84.112.7.768 1.51 1.633 2.015.617.36 1.883.88 3.403.306 1.664-.63 3.605-2.508 5.194-5.025 1.675-2.655 2.774-5.705 3.016-8.368.59-6.492-.252-10.654-2.5-12.368-1.17-.894-2.773-1.162-4.897-.82-1.946.314-3.97 1.088-5.598 1.71-.31.12-.605.23-.887.336-.236.09-.498.083-.73-.016-2.914-1.24-5.116-1.95-6.93-2.238-2.126-.336-3.704-.087-4.823.76-2.196 1.66-2.9 5.903-2.09 12.606.67 5.556 4.662 12.08 8.213 13.423 1.52.576 2.785.056 3.404-.305.865-.504 1.52-1.314 1.632-2.016.077-.485.493-.84.98-.84m4.643 5.407c-1.046 0-2.088-.278-3.028-.827-.633-.37-1.184-.84-1.616-1.37-.432.53-.982 1-1.615 1.37-1.57.917-3.43 1.08-5.1.447-2.09-.79-4.258-2.863-6.107-5.837-1.786-2.87-3.017-6.228-3.377-9.212-.913-7.566.025-12.29 2.866-14.44 1.572-1.19 3.64-1.56 6.326-1.136 1.9.3 4.14 1.006 7.03 2.216l.504-.192c3.503-1.34 8.797-3.363 12.4-.616 1.38 1.05 2.357 2.71 2.908 4.93.586 2.36.71 5.458.37 9.208-.27 2.968-1.48 6.34-3.317 9.255-1.838 2.913-4.087 5.036-6.17 5.824-.672.254-1.373.38-2.074.38" fill="#57585A" mask="url(#d)"/><path d="M28.566 12.564c-.548 0-.992-.447-.992-.998v-.563c.006-1.966.01-3.998-.524-5.634-.56-1.715-1.65-2.748-3.436-3.25-.528-.15-.836-.7-.688-1.23.148-.53.696-.84 1.224-.69 1.28.36 2.34.96 3.155 1.784.732.74 1.266 1.644 1.632 2.763.634 1.94.628 4.137.623 6.26v.56c0 .55-.445.997-.994.997" fill="#57585A" mask="url(#d)"/><path d="M34.318 5.654c-1.253 1.943-2.955 3.07-3.8 2.52-.848-.55-.518-2.573.735-4.516 1.254-1.943 2.956-3.07 3.802-2.52.846.55.516 2.573-.737 4.516" fill="#86AC5A" mask="url(#d)"/><path d="M34.5 1.996c-.354.038-1.416.658-2.414 2.204-.997 1.547-1.126 2.774-1.016 3.116.356-.04 1.418-.658 2.415-2.205.997-1.545 1.127-2.772 1.016-3.114m-3.476 7.316c-.476 0-.826-.157-1.047-.3-.44-.288-1.138-1.025-.86-2.736.162-.985.625-2.108 1.304-3.16.68-1.053 1.51-1.936 2.34-2.486C34.2-.325 35.154.014 35.595.3c.44.288 1.137 1.025.858 2.735-.16.986-.623 2.11-1.302 3.16-.678 1.054-1.51 1.937-2.34 2.487-.716.475-1.313.63-1.786.63" fill="#57585A" mask="url(#d)"/><path d="M15.424 16.793c0-3.052 2.47-5.535 5.508-5.535.548 0 .992.447.992.997s-.444.998-.992.998c-1.943 0-3.523 1.588-3.523 3.54 0 .55-.446.997-.994.997s-.992-.446-.992-.997z" fill-opacity=".6" fill="#FEFEFE" mask="url(#d)"/></g></svg>