<svg width="574" height="252" viewBox="0 0 574 252" xmlns="http://www.w3.org/2000/svg" xmlns:xlink="http://www.w3.org/1999/xlink"><title>Page 1</title><defs><path id="a" d="M34.976.46H.498v31.06h34.478V.46z"/></defs><g fill="none" fill-rule="evenodd"><path d="M108.34 206.12c-.108 1.36-.323 3.778-.9 5.326-.576 1.717-1.514 3.8-3.068 4.5-1.277 1.372-2.798 1.95-4.485 3.028-1.69 1.1-3.545.28-5.493 1.11-2.92.382-5.636-.52-7.888-2.412-2.25-.993-4.04-3.07-5.112-6.212-.714-1.98-1.108-3.127-1.106-5.496.053-2.41 1.046-4.877 2.607-7.82 1.56-2.855 3.69-4.05 6.01-5.19 1.686.027 3.542-.643 5.49-1.11 2.995.193 5.622 1.755 7.775 2.606 2.153 2.198 3.832 3.542 4.932 6.293.725 1.71 1.17 3.633 1.237 5.378" fill="#BAC2E2"/><path d="M89.54 195.52c-1.86.94-3.288 1.863-4.382 3.865-1.564 2.947-2.254 4.94-2.29 6.635-.002 1.914.297 2.745.953 4.564.573 1.678 1.67 3.82 3.727 4.726.223.098.432.228.62.386 1.695 1.426 3.584 2.056 5.605 1.86 1.184-.425 2.266-.465 3.154-.497.792-.03 1.256-.057 1.553-.252.572-.364 1.104-.666 1.62-.957.986-.558 1.765-.997 2.384-1.663.233-.25.516-.453.827-.593.085-.037.834-.437 1.685-2.97.48-1.29.684-3.594.76-4.546-.073-1.388-.445-2.954-1.027-4.327-.743-1.853-1.783-2.885-3.36-4.448-.215-.215-.437-.435-.664-.664-.406-.172-.826-.36-1.26-.556-1.566-.708-3.182-1.438-4.848-1.628-.345.088-.688.18-1.026.272-1.308.35-2.655.714-4.03.794m3.52 27.234c-2.854 0-5.566-.98-7.937-2.88-2.812-1.363-4.94-3.977-6.17-7.58-.768-2.128-1.248-3.598-1.244-6.334.07-3.255 1.437-6.258 2.907-9.025 1.92-3.518 4.586-5.04 7.152-6.3.365-.18.77-.278 1.177-.263.896 0 2.048-.3 3.28-.632.515-.138 1.038-.28 1.567-.407.252-.06.508-.084.766-.066 2.73.177 5.103 1.247 7.008 2.108.542.246 1.06.48 1.55.674.336.132.64.334.895.593.34.35.67.676.988.99 1.738 1.723 3.378 3.35 4.498 6.15.83 1.954 1.34 4.187 1.42 6.24.003.1.002.202-.007.303-.15 1.888-.403 4.28-1.052 6.02-.953 2.84-2.25 4.732-3.93 5.702-1.068 1.04-2.195 1.68-3.29 2.297-.44.25-.896.506-1.365.804-1.49.97-3.03 1.026-4.157 1.068-.7.026-1.253.047-1.712.242-.216.09-.443.153-.675.184-.562.072-1.118.11-1.67.11" fill="#4B5170"/><path d="M69.395 206.12c-.107 1.36-.323 3.778-.9 5.326-.576 1.717-1.514 3.8-3.068 4.5-1.277 1.372-2.798 1.95-4.485 3.028-1.688 1.1-3.545.28-5.492 1.11-2.922.382-5.637-.52-7.89-2.412-2.25-.993-4.04-3.07-5.11-6.212-.714-1.98-1.11-3.127-1.107-5.496.053-2.41 1.047-4.877 2.607-7.82 1.56-2.855 3.69-4.05 6.01-5.19 1.686.027 3.542-.643 5.49-1.11 2.996.193 5.622 1.755 7.775 2.606 2.153 2.198 3.832 3.542 4.933 6.293.725 1.71 1.17 3.633 1.237 5.378" fill="#BAC2E2"/><path d="M50.596 195.52c-1.86.94-3.29 1.863-4.383 3.865-1.564 2.947-2.254 4.94-2.29 6.635-.002 1.914.298 2.745.953 4.564.573 1.678 1.67 3.818 3.726 4.726.223.098.432.228.62.386 1.696 1.426 3.584 2.056 5.605 1.86 1.184-.425 2.267-.465 3.154-.497.793-.03 1.257-.057 1.554-.252.573-.364 1.106-.666 1.622-.957.985-.558 1.764-.997 2.383-1.663.233-.25.515-.453.826-.593.084-.037.833-.437 1.685-2.97.48-1.29.684-3.594.76-4.546-.073-1.388-.445-2.954-1.026-4.327-.743-1.853-1.784-2.885-3.36-4.448-.216-.215-.438-.435-.665-.664-.407-.172-.826-.36-1.26-.556-1.567-.708-3.183-1.438-4.848-1.628-.346.088-.69.18-1.027.272-1.308.35-2.655.714-4.03.794m3.52 27.234c-2.854 0-5.566-.98-7.936-2.88-2.813-1.363-4.943-3.977-6.172-7.58-.768-2.128-1.248-3.598-1.244-6.334.07-3.255 1.44-6.258 2.908-9.025 1.922-3.518 4.587-5.04 7.152-6.3.367-.18.773-.278 1.178-.263.917 0 2.048-.3 3.28-.632.515-.138 1.038-.28 1.567-.407.25-.06.51-.084.765-.066 2.73.177 5.103 1.247 7.008 2.108.542.246 1.06.48 1.55.674.336.132.64.334.895.593.342.35.67.676.988.99 1.737 1.723 3.377 3.35 4.498 6.15.828 1.954 1.34 4.187 1.42 6.24.002.1 0 .202-.008.303-.15 1.888-.404 4.28-1.052 6.02-.954 2.84-2.25 4.732-3.932 5.702-1.067 1.04-2.194 1.68-3.29 2.297-.438.25-.894.506-1.364.804-1.49.97-3.03 1.026-4.157 1.068-.698.026-1.252.047-1.71.242-.216.09-.443.153-.676.184-.56.072-1.117.11-1.67.11" fill="#4B5170"/><path d="M148.484 206.12c-.107 1.36-.323 3.778-.9 5.326-.576 1.717-1.514 3.8-3.068 4.5-1.277 1.372-2.798 1.95-4.485 3.028-1.687 1.1-3.544.28-5.49 1.11-2.923.382-5.638-.52-7.89-2.412-2.25-.993-4.04-3.07-5.112-6.212-.713-1.98-1.108-3.127-1.105-5.496.052-2.41 1.046-4.877 2.606-7.82 1.56-2.855 3.688-4.05 6.01-5.19 1.685.027 3.54-.643 5.49-1.11 2.995.193 5.62 1.755 7.774 2.606 2.153 2.198 3.832 3.542 4.933 6.293.725 1.71 1.17 3.633 1.237 5.378" fill="#BAC2E2"/><path d="M129.685 195.52c-1.86.94-3.29 1.863-4.38 3.865-1.567 2.947-2.257 4.94-2.294 6.635 0 1.915.3 2.747.955 4.564.572 1.678 1.67 3.818 3.726 4.726.224.098.433.228.62.386 1.696 1.426 3.585 2.056 5.606 1.86 1.184-.425 2.268-.465 3.154-.497.793-.03 1.256-.057 1.554-.252.572-.364 1.106-.666 1.622-.96.985-.556 1.763-.995 2.382-1.66.234-.25.516-.454.828-.594.083-.037.833-.437 1.683-2.97.48-1.292.683-3.595.76-4.545-.074-1.39-.446-2.957-1.028-4.328-.743-1.856-1.783-2.89-3.36-4.452-.216-.214-.437-.433-.664-.662-.405-.172-.824-.36-1.258-.555-1.567-.71-3.184-1.44-4.85-1.63-.345.09-.688.18-1.026.273-1.308.35-2.654.714-4.03.794m3.52 27.234c-2.854 0-5.566-.98-7.937-2.88-2.812-1.363-4.94-3.977-6.17-7.58-.768-2.127-1.248-3.596-1.244-6.332.07-3.258 1.438-6.26 2.91-9.027 1.92-3.518 4.584-5.04 7.15-6.3.366-.18.77-.278 1.178-.263.907.002 2.05-.3 3.28-.632.516-.138 1.04-.28 1.568-.407.252-.06.51-.084.766-.066 2.732.177 5.103 1.247 7.01 2.108.54.246 1.057.48 1.547.674.338.132.642.334.897.593.34.348.67.676.988.99 1.736 1.722 3.377 3.35 4.497 6.15.83 1.95 1.34 4.186 1.42 6.24.003.1.002.2-.007.3-.148 1.89-.403 4.28-1.053 6.026-.952 2.837-2.25 4.728-3.93 5.698-1.067 1.04-2.195 1.678-3.288 2.296-.44.25-.896.506-1.367.805-1.49.97-3.03 1.026-4.156 1.068-.7.026-1.253.047-1.712.242-.216.09-.443.153-.675.184-.56.072-1.117.11-1.67.11" fill="#4B5170"/><path d="M192.5 206.12c-.106 1.36-.322 3.778-.898 5.326-.577 1.717-1.515 3.8-3.07 4.5-1.276 1.372-2.797 1.95-4.484 3.028-1.688 1.1-3.544.28-5.492 1.11-2.922.382-5.637-.52-7.89-2.412-2.25-.993-4.04-3.07-5.11-6.212-.714-1.98-1.11-3.127-1.106-5.496.052-2.41 1.046-4.877 2.606-7.82 1.56-2.855 3.69-4.05 6.01-5.19 1.686.027 3.542-.643 5.49-1.11 2.995.193 5.622 1.755 7.775 2.606 2.154 2.198 3.833 3.542 4.934 6.293.725 1.71 1.17 3.633 1.237 5.378" fill="#BAC2E2"/><path d="M173.703 195.52c-1.862.94-3.29 1.863-4.383 3.865-1.565 2.948-2.255 4.94-2.29 6.635-.002 1.914.297 2.745.952 4.564.573 1.678 1.67 3.82 3.727 4.726.222.098.43.228.618.386 1.696 1.426 3.583 2.056 5.606 1.86 1.184-.425 2.266-.465 3.153-.497.792-.03 1.257-.057 1.553-.252.573-.364 1.107-.667 1.623-.96.986-.556 1.763-.995 2.382-1.66.234-.252.516-.454.827-.594.084-.037.834-.437 1.685-2.97.48-1.292.684-3.595.76-4.545-.075-1.39-.445-2.957-1.028-4.328-.744-1.856-1.785-2.89-3.362-4.452-.215-.214-.436-.433-.663-.662-.405-.172-.825-.36-1.257-.555-1.57-.71-3.185-1.44-4.85-1.63-.347.09-.69.18-1.028.273-1.308.353-2.654.714-4.027.794m3.52 27.234c-2.857 0-5.567-.98-7.938-2.88-2.812-1.362-4.942-3.976-6.17-7.58-.77-2.13-1.248-3.6-1.244-6.334.07-3.254 1.44-6.256 2.908-9.025 1.922-3.52 4.587-5.04 7.154-6.3.365-.18.772-.278 1.176-.263.89 0 2.047-.3 3.28-.632.514-.138 1.037-.28 1.567-.407.25-.06.51-.084.767-.066 2.73.177 5.102 1.247 7.008 2.108.54.246 1.06.48 1.55.674.335.132.64.334.894.593.34.348.67.676.987.99 1.738 1.722 3.38 3.35 4.5 6.15.828 1.95 1.34 4.186 1.42 6.24.003.1 0 .2-.008.3-.148 1.89-.402 4.28-1.052 6.024-.953 2.84-2.25 4.73-3.932 5.7-1.067 1.042-2.194 1.68-3.288 2.297-.44.25-.896.506-1.366.805-1.488.97-3.03 1.026-4.157 1.068-.7.026-1.254.047-1.713.242-.215.09-.44.153-.673.184-.56.072-1.118.11-1.668.11" fill="#4B5170"/><path d="M232.645 206.12c-.107 1.36-.323 3.778-.9 5.326-.576 1.717-1.513 3.8-3.068 4.5-1.277 1.372-2.798 1.95-4.485 3.028-1.688 1.1-3.544.28-5.492 1.11-2.922.382-5.637-.52-7.89-2.412-2.25-.993-4.04-3.07-5.11-6.212-.714-1.98-1.11-3.127-1.106-5.496.053-2.41 1.046-4.877 2.607-7.82 1.56-2.855 3.69-4.05 6.01-5.19 1.686.027 3.542-.643 5.49-1.11 2.996.193 5.623 1.755 7.775 2.606 2.153 2.198 3.833 3.542 4.933 6.293.725 1.71 1.17 3.633 1.237 5.378" fill="#BAC2E2"/><path d="M213.847 195.52c-1.862.94-3.29 1.863-4.383 3.865-1.565 2.947-2.255 4.94-2.29 6.635-.003 1.914.297 2.745.952 4.564.573 1.678 1.67 3.818 3.726 4.726.224.098.433.228.62.386 1.696 1.426 3.583 2.056 5.605 1.86 1.185-.425 2.268-.465 3.154-.497.794-.03 1.258-.057 1.556-.252.57-.364 1.105-.666 1.62-.96.986-.556 1.764-.995 2.383-1.66.233-.252.515-.454.826-.594.084-.037.833-.437 1.685-2.97.482-1.293.684-3.595.76-4.545-.073-1.39-.445-2.956-1.026-4.33-.743-1.854-1.784-2.887-3.36-4.45-.217-.214-.438-.433-.665-.662-.406-.172-.826-.36-1.26-.556-1.567-.708-3.183-1.438-4.848-1.628-.346.088-.69.18-1.027.272-1.308.35-2.655.714-4.028.794m3.518 27.234c-2.854 0-5.565-.98-7.936-2.88-2.813-1.363-4.943-3.977-6.172-7.58-.768-2.128-1.247-3.598-1.244-6.334.07-3.255 1.44-6.258 2.908-9.025 1.922-3.518 4.587-5.04 7.152-6.3.367-.18.774-.278 1.178-.263.898 0 2.048-.3 3.28-.632.515-.138 1.04-.28 1.567-.407.25-.06.51-.084.766-.066 2.73.177 5.1 1.247 7.006 2.108.543.246 1.06.48 1.55.674.337.132.642.334.896.593.342.348.67.676.988.99 1.736 1.722 3.377 3.35 4.498 6.15.828 1.954 1.34 4.187 1.42 6.24.002.1 0 .2-.008.3-.148 1.89-.402 4.28-1.052 6.026-.954 2.837-2.25 4.728-3.932 5.698-1.067 1.04-2.194 1.678-3.288 2.296-.44.25-.895.506-1.366.805-1.488.97-3.03 1.026-4.156 1.068-.7.026-1.254.047-1.713.242-.216.09-.443.153-.675.184-.562.072-1.118.11-1.67.11" fill="#4B5170"/><path d="M65.43 195.18c-3.463 0-6.178-.51-7.96-.844-.56-.105-1.258-.237-1.472-.243.015.012.69.015 1.332-.61.445-.434.7-1.032.7-1.64h-5.16c0-.862.375-1.67 1.028-2.21 1.202-.996 2.596-.733 4.525-.372 2.747.516 7.345 1.383 13.46.06l.475-.056c3.832-.105 8.18.096 12.785.306 8.258.38 17.62.81 27.485-.29 8.99-.904 18.408-.554 27.514-.22 6.955.26 14.147.524 20.902.21 18-1.843 31.39-1.845 40.92-.01 3.59-.022 6.706-.072 9.243-.113 7.995-.127 8.31-.136 9.29.83l.77.76.013 1.107h-5.16c0 1.422 1.124 2.337 1.937 2.45-.612-.084-3.6-.035-6.766.015-2.61.04-5.834.094-9.554.116h-.26l-.255-.05c-9.047-1.788-22.04-1.778-39.72.036l-.143.01c-6.99.33-14.32.063-21.405-.2-8.933-.33-18.17-.674-26.78.19-10.24 1.143-19.816.705-28.266.316-4.412-.203-8.585-.4-12.174-.308-2.695.562-5.144.76-7.302.76M94.805 223.317c-7.955 0-15.167-.28-21.107-.513l-1.302-.05c-10.336.15-16.94 0-17.006-.002l.12-5.162c.065 0 6.61.15 16.88 0l.07-.002 1.44.056c10.12.396 23.982.937 38.843-.05 10.242-.458 21.033-.303 31.47-.152 5.642.082 11.472.16 17.015.148 4.803-.028 9.49-.11 13.978-.185 10.172-.176 18.987-.325 26.25.16 10.98-3.004 18.02.123 18.316.257l-2.143 4.697c-.043-.02-5.918-2.518-15.2.132l-.437.125-.454-.03c-7.12-.508-15.985-.356-26.246-.18-4.506.077-9.214.16-14.043.186-5.595.01-11.446-.066-17.11-.15-10.363-.15-21.076-.305-31.11.147-6.33.42-12.472.567-18.225.567" fill="#4B5170"/><path d="M486.47 192.367c-.107 1.358-.323 3.777-.9 5.325-.576 1.716-1.513 3.8-3.068 4.5-1.277 1.372-2.798 1.95-4.485 3.028-1.688 1.098-3.544.28-5.492 1.108-2.922.384-5.637-.517-7.89-2.41-2.25-.993-4.04-3.072-5.11-6.212-.714-1.98-1.11-3.128-1.106-5.496.052-2.41 1.045-4.877 2.606-7.82 1.56-2.856 3.69-4.05 6.01-5.19 1.685.026 3.54-.643 5.49-1.11 2.995.193 5.622 1.755 7.774 2.605 2.153 2.2 3.833 3.542 4.933 6.293.725 1.71 1.17 3.634 1.237 5.38" fill="#BAC2E2"/><path d="M467.67 181.766c-1.86.94-3.287 1.86-4.38 3.864-1.565 2.948-2.255 4.94-2.292 6.636-.002 1.915.297 2.745.952 4.562.574 1.68 1.67 3.82 3.726 4.727.224.098.433.228.62.385 1.695 1.427 3.58 2.057 5.607 1.86 1.184-.424 2.268-.464 3.154-.496.792-.03 1.255-.055 1.553-.25.57-.364 1.104-.666 1.62-.957.986-.56 1.766-1 2.385-1.664.234-.25.515-.453.827-.593.082-.037.832-.437 1.685-2.97.478-1.288.682-3.593.76-4.546-.076-1.388-.446-2.954-1.03-4.327-.742-1.855-1.783-2.887-3.36-4.452l-.663-.66c-.404-.173-.82-.36-1.253-.555-1.567-.708-3.186-1.44-4.853-1.63-.347.088-.688.18-1.028.272-1.31.352-2.654.716-4.03.794M471.19 209c-2.856 0-5.566-.98-7.935-2.88-2.814-1.363-4.943-3.977-6.17-7.582-.77-2.126-1.25-3.595-1.246-6.332.07-3.254 1.437-6.257 2.906-9.025 1.925-3.52 4.59-5.04 7.155-6.298.366-.18.778-.274 1.176-.263.92-.012 2.05-.302 3.28-.634.515-.138 1.04-.28 1.57-.407.25-.06.506-.083.765-.066 2.735.176 5.108 1.248 7.014 2.11.54.244 1.056.478 1.544.673.337.13.64.334.894.592.34.348.67.674.987.988 1.737 1.723 3.377 3.35 4.498 6.152.83 1.953 1.34 4.186 1.42 6.238.004.1.002.203-.006.304-.15 1.89-.405 4.28-1.054 6.02-.953 2.84-2.25 4.734-3.93 5.702-1.068 1.04-2.196 1.678-3.29 2.297-.44.25-.896.507-1.365.805-1.49.97-3.03 1.027-4.158 1.07-.7.024-1.252.044-1.71.24-.217.09-.443.153-.675.184-.56.07-1.12.11-1.67.11" fill="#4B5170"/><path d="M526.614 192.367c-.107 1.358-.322 3.777-.9 5.325-.575 1.716-1.513 3.8-3.068 4.5-1.277 1.372-2.797 1.95-4.484 3.028-1.69 1.098-3.545.28-5.493 1.108-2.922.384-5.638-.517-7.89-2.41-2.25-.993-4.04-3.072-5.112-6.212-.713-1.98-1.108-3.128-1.105-5.496.053-2.41 1.046-4.877 2.607-7.82 1.56-2.856 3.69-4.05 6.01-5.19 1.685.026 3.54-.643 5.49-1.11 2.994.193 5.622 1.755 7.775 2.605 2.152 2.2 3.832 3.542 4.932 6.293.725 1.71 1.17 3.634 1.237 5.38" fill="#BAC2E2"/><path d="M507.815 181.766c-1.86.94-3.288 1.86-4.382 3.864-1.564 2.95-2.254 4.942-2.29 6.636-.002 1.917.297 2.745.95 4.562.575 1.68 1.672 3.82 3.727 4.727.224.098.433.228.62.385 1.696 1.426 3.578 2.057 5.607 1.86 1.184-.424 2.268-.464 3.154-.496.794-.03 1.257-.055 1.554-.25.57-.364 1.105-.666 1.62-.96.987-.556 1.766-.996 2.385-1.66.233-.252.514-.454.826-.594.082-.037.833-.437 1.683-2.97.48-1.292.683-3.595.76-4.546-.075-1.388-.445-2.955-1.028-4.326-.743-1.856-1.784-2.888-3.36-4.452-.215-.214-.437-.433-.664-.662-.403-.172-.82-.36-1.25-.554-1.57-.708-3.19-1.44-4.857-1.63-.346.088-.687.18-1.027.272-1.308.353-2.653.716-4.028.794m3.52 27.233c-2.857 0-5.567-.98-7.936-2.88-2.815-1.363-4.944-3.977-6.172-7.582-.768-2.125-1.248-3.594-1.245-6.33.07-3.256 1.44-6.258 2.91-9.027 1.922-3.52 4.587-5.04 7.152-6.298.365-.18.773-.274 1.175-.263.896.04 2.05-.3 3.28-.634.515-.138 1.04-.28 1.57-.407.25-.06.507-.083.765-.066 2.734.176 5.108 1.248 7.015 2.11.54.244 1.054.478 1.544.673.335.13.64.334.894.592.34.348.67.675.986.99 1.738 1.72 3.38 3.35 4.498 6.15.83 1.95 1.34 4.185 1.42 6.238.004.1.002.202-.006.302-.148 1.89-.404 4.28-1.054 6.025-.952 2.838-2.248 4.73-3.93 5.7-1.067 1.04-2.194 1.677-3.288 2.295-.44.25-.897.506-1.366.805-1.49.97-3.03 1.027-4.157 1.07-.7.024-1.253.044-1.712.24-.216.09-.442.153-.674.184-.56.07-1.118.11-1.67.11" fill="#4B5170"/><path d="M570.63 192.367c-.106 1.358-.32 3.777-.898 5.325-.576 1.716-1.514 3.8-3.068 4.5-1.277 1.372-2.798 1.95-4.485 3.028-1.69 1.098-3.546.28-5.494 1.108-2.92.384-5.637-.517-7.89-2.41-2.25-.993-4.04-3.072-5.11-6.212-.714-1.98-1.11-3.128-1.106-5.496.053-2.41 1.046-4.877 2.607-7.82 1.56-2.856 3.69-4.05 6.01-5.19 1.685.026 3.54-.643 5.49-1.11 2.996.193 5.622 1.755 7.775 2.605 2.152 2.2 3.832 3.542 4.932 6.293.725 1.71 1.17 3.634 1.237 5.38" fill="#BAC2E2"/><path d="M551.833 181.766c-1.862.94-3.288 1.86-4.382 3.864-1.564 2.948-2.254 4.94-2.29 6.636-.003 1.914.297 2.744.952 4.563.574 1.678 1.67 3.818 3.725 4.725.224.098.433.228.622.385 1.694 1.427 3.578 2.054 5.605 1.86 1.184-.424 2.267-.464 3.153-.496.792-.03 1.255-.055 1.553-.25.573-.364 1.107-.666 1.622-.96.986-.556 1.765-.996 2.385-1.66.233-.252.514-.454.826-.594.083-.037.832-.437 1.685-2.97.478-1.292.682-3.593.758-4.546-.073-1.388-.445-2.955-1.026-4.327-.743-1.854-1.784-2.887-3.36-4.45-.217-.215-.438-.434-.665-.663-.404-.172-.82-.36-1.252-.554-1.57-.708-3.188-1.44-4.854-1.63-.348.088-.69.18-1.03.272-1.307.352-2.654.716-4.027.794M555.35 209c-2.854 0-5.565-.98-7.934-2.88-2.812-1.362-4.942-3.976-6.17-7.582-.77-2.127-1.25-3.596-1.246-6.332.07-3.254 1.44-6.257 2.908-9.025 1.923-3.52 4.59-5.04 7.155-6.298.366-.18.765-.274 1.175-.263.914-.012 2.048-.302 3.28-.634.515-.138 1.038-.28 1.57-.407.25-.06.507-.083.765-.066 2.733.176 5.106 1.248 7.013 2.11.54.244 1.055.478 1.544.673.337.13.64.334.894.592.342.348.67.675.988.99 1.737 1.722 3.377 3.35 4.498 6.15.828 1.952 1.34 4.185 1.42 6.238.002.1 0 .202-.008.302-.148 1.89-.402 4.28-1.052 6.023-.954 2.84-2.25 4.733-3.932 5.7-1.065 1.04-2.193 1.68-3.287 2.297-.44.25-.895.506-1.366.805-1.488.97-3.03 1.027-4.157 1.07-.7.024-1.253.044-1.712.24-.215.09-.44.153-.673.184-.56.07-1.12.11-1.67.11" fill="#4B5170"/><path d="M420.656 42.122c0-.347-5.194 1.55-13.504 0-8.31.13-19.738-.013-32.203 0-12.467.252-25.97-1.798-38.436 0-12.465-.067-23.893-.373-32.202 0-8.31-.856-13.505 1.482-13.505 0-7.095-.245-13.544 2.31-18.22 7.583-4.676 4.203-7.578 12.412-7.578 18.233V235.658c0 7.904.32 11.316 2.414 13.064 2.095 3.665 5.962 1.863 13.056 2.417 0-.136 4.18.267 11.15 0 6.966.777 16.72-1.154 27.87 0 11.148.9 23.69 0 36.232 0h64.102c6.968.582 11.15-.723 11.15 0 7.093-.28 10.962-1.164 13.055-2.418 2.094-2.923 2.414-6.53 2.414-13.064V67.94c0-2.118-.726-7.34-2.036-10.258-1.31-3.413-3.204-5.577-5.542-7.975-4.676-4.368-11.126-8.327-18.22-7.583" fill="#FFCC21"/><path d="M262.26 202.075c0 3.633 3.87.452 3.87 0v-94.443c0-.403-3.87-.567-3.87 0-8.82-.743-15.972 6.437-15.972 15.983v62.478c0 9.83 7.15 17.18 15.97 15.982M449.427 82.546c0-3.633-3.87-.452-3.87 0v94.443c0 .402 3.87.566 3.87 0 8.82.742 15.97-6.438 15.97-15.984V98.528c0-9.83-7.15-17.18-15.97-15.982" fill="#FFCC21"/><path d="M0 247.33c2.39-2.852 4.974-2.858 7.503-2.884l7.612-.178c5.073-.09 10.142-.123 15.212-.12 5.07.002 10.137.058 15.203.138l15.11.327 60.65.143 30.345-.01 7.582.003.948.002h.474l.637.036 1.89.12 3.734.195c4.993.23 9.99.318 14.983.248 4.992-.065 9.98-.287 14.953-.68l3.834-.32 3.77-.232 7.556-.512c5.06-.34 10.183-.622 15.352-.608 5.168.006 10.39.346 15.575 1.172l-.366-.036c13.954.528 28.18-.715 42.655.018l-.215-.003c13.678-.253 27.178.67 40.53.5 3.274-.037 6.715-.196 10.07-.29l10.164-.27c6.792-.124 13.623-.105 20.47.31l2.566.175.642.047.44.04.313.04 1.258.16c1.68.21 3.277.386 4.95.54 3.308.312 6.628.527 9.954.65 6.652.248 13.326.13 19.99-.28 3.3-.218 6.756-.47 10.14-.634 3.4-.172 6.806-.285 10.218-.328 6.823-.084 13.674.12 20.508.793l-.205-.012c10.226.147 20.464.054 30.718-.118 10.256-.16 20.525-.417 30.838-.382l1.933.01 1.87-.025 3.853-.062 7.706-.104 15.413-.115c5.14-.016 10.28-.007 15.423.038l7.72.11c1.29.044 2.58.017 3.874.14.645.087 1.29.273 1.93.585.32.162.64.337.956.592.16.12.316.235.474.393.077.08.157.14.235.238l.118.143c.025.026.033.044.067.077l.04.045c-.01-.012.123.113.094.176h-.285c-.044.053.078.156.047.14l-.018.026c-.002.018-.036.035-.05.052l-.12.103c-.08.076-.16.12-.242.186-.163.127-.324.22-.487.32-.322.212-.642.355-.964.486-.64.256-1.28.398-1.915.447-1.27.047-2.547-.033-3.824-.033l-7.674-.057c-5.12-.012-10.246.014-15.372.063l-15.377.217-7.69.155-3.84.088-1.983.04h-1.915c-10.217.036-20.472.357-30.742.588-10.27.242-20.562.404-30.864.327l-.096-.002-.112-.01c-6.613-.604-13.284-.763-19.962-.635-3.34.063-6.683.198-10.028.39-3.36.183-6.637.445-10.075.697-6.812.466-13.657.632-20.503.423-3.423-.104-6.845-.302-10.26-.6-1.693-.146-3.454-.328-5.125-.525l-1.26-.15-.313-.04-.078-.01c.04.005-.15-.015.08.01l-.037-.004-.156-.01-.62-.04-2.488-.153c-6.64-.357-13.328-.336-20.038-.168l-10.086.335c-3.393.117-6.698.296-10.177.36-13.662.257-27.16-.567-40.494-.236l-.105.003-.11-.007c-13.93-.72-28.122.514-42.578-.018l-.178-.006-.188-.03c-4.8-.764-9.696-1.09-14.635-1.096-4.94-.015-9.92.257-14.94.593l-7.574.512-3.797.233-3.72.313c-5.105.402-10.22.63-15.337.697-5.116.07-10.23-.018-15.334-.255l-3.84-.2-1.892-.122-.236-.015-.12-.008-.058-.004c-.168-.005.162.006.107.005h-.472l-.948-.004-7.582-.027-30.304-.15-60.65-.46-15.208-.406c-5.04-.107-10.08-.187-15.12-.217-5.038-.03-10.077-.023-15.112.04l-7.548.137c-2.52.127-4.99.25-7.646-2.286M477.668 181.428c-2.112 0-3.752-.598-4.74-.96-.19-.068-.35-.132-.48-.166.3.08 1.054.09 1.75-.447.67-.514.907-1.25.907-1.765h-5.16c0-.99.44-1.864 1.208-2.4 1.28-.898 2.59-.42 3.543-.07 1.306.475 3.096 1.128 5.577.09l.412-.173.448-.024c2.105-.11 4.413.094 6.854.31 4.118.37 8.788.784 13.588-.256 4.916-.957 9.894-.6 14.706-.254 3.633.26 7.067.507 10.362.22 9.37-1.855 16.466-1.865 21.663-.03 1.683-.024 3.154-.072 4.365-.11 3.826-.12 4.734-.15 5.708.795l.785.76.022 1.142h-5.16c0 1.41 1.14 2.326 1.924 2.42-.363-.043-1.762.002-3.116.045-1.352.042-3.02.095-4.944.117l-.493.005-.46-.177c-4.324-1.66-10.678-1.62-19.424.123l-.268.037c-3.753.348-7.608.07-11.334-.197-4.68-.336-9.106-.653-13.297.16-5.514 1.198-10.597.745-15.085.345-2.08-.186-4.047-.358-5.715-.317-1.518.576-2.912.778-4.145.778M492.81 209.565c-4.162 0-7.937-.287-11.045-.522l-.556-.043c-5.336.15-8.663 0-8.803-.005l.237-5.158c.032 0 3.346.148 8.552 0l.134-.005.826.06c5.136.393 12.167.926 19.636-.037 5.457-.475 11.066-.32 16.49-.167 3.026.086 5.885.17 8.71.146 2.452-.027 4.85-.107 7.15-.183 5.058-.17 9.475-.314 13.245.104 6.467-3.124 10.746.564 10.93.728l-3.422 3.866c-.175-.142-2.228-1.646-5.784.327l-.75.415-.85-.117c-3.508-.484-7.997-.337-13.196-.163-2.336.08-4.774.16-7.277.187-2.928.01-5.963-.065-8.9-.148-5.28-.148-10.737-.3-15.793.137-3.31.43-6.523.578-9.533.578" fill="#4B5170"/><path d="M305.817 243.012c2.587 0 5.29.102 8.09.392 7.192.58 14.995.393 23.258.19 4.15-.1 8.445-.204 12.71-.204l64.318.01c3.702.31 6.55.056 8.43-.112 1.378-.122 2.374-.212 3.2.07 5.087-.245 8.634-.84 10.568-1.77 1.383-2.264 1.627-5.368 1.627-11.098V62.77c0-1.823-.687-6.7-1.81-9.2l-.055-.13c-1.166-3.042-2.87-4.937-4.98-7.1-3.69-3.442-9.558-7.504-16.104-6.82l-1.294.137c-2.212.365-6.66.968-12.694-.118-5.134.074-11.28.052-18.38.025-4.31-.015-8.882-.028-13.605-.03-4.68.097-9.607-.136-14.372-.36-7.924-.374-16.117-.757-23.7.335l-.188.027-.192-.002c-3.496-.018-6.91-.056-10.196-.09-8.568-.096-15.967-.178-21.877.088l-.19.01-.19-.022c-4.124-.422-7.484.004-9.71.284-2.077.262-3.53.448-4.69-.284-6.05.054-11.263 2.367-15.13 6.73l-.206.208c-4.152 3.732-6.722 11.373-6.722 16.312v167.72c0 6.526.23 10.033 1.487 11.083l.355.298.23.405c.586 1.022 1.24 1.16 5.003 1.048 1.577-.046 3.526-.105 5.774.057.414-.025.907-.007 1.532.013 1.768.06 5.06.17 9.558 0l.193-.008.192.022c2.91.324 6.422.138 10.49-.078 2.885-.154 5.986-.318 9.27-.318m19.357 5.943c-4.024 0-7.934-.103-11.74-.41-6.01-.62-11.646-.325-16.614-.06-4.213.222-7.86.417-11.14.074-3.672.132-6.55.086-8.478.033v.17l-2.78-.217c-2.075-.164-3.873-.11-5.46-.062-3.69.108-7.176.21-9.4-3.26-2.637-2.503-2.978-6.587-2.99-14.3V62.2h.008c.174-6.04 3.075-14.69 8.316-19.484 5.07-5.654 12.226-8.624 20.143-8.343l2.49.087v.26c.103-.012.205-.026.304-.04 2.424-.305 6.074-.766 10.692-.314 6.023-.26 13.42-.18 21.977-.086 3.22.035 6.558.073 9.978.09 8.012-1.127 16.386-.732 24.485-.353 4.895.23 9.523.447 14.074.355 4.78 0 9.36.013 13.68.03 7.19.027 13.4.05 18.534-.03l.258-.004.254.048c5.738 1.07 9.86.37 11.62.07.543-.092 1.07-.184 1.585-.14 8.287-.693 15.326 4.118 19.808 8.304 2.425 2.482 4.652 4.962 6.166 8.872 1.547 3.497 2.222 9.06 2.233 11.202v167.8c-.002 6.145-.213 10.787-2.9 14.535l-.31.435-.46.277c-2.706 1.617-7.243 2.5-14.28 2.78l-2.68.106v-.18c-1.952.167-4.938.38-8.675.075h-63.998c-4.202 0-8.463.104-12.584.203-4.15.1-8.187.2-12.116.2" fill="#4B5170"/><path d="M253.99 194.584c.455 0 .9.12 1.29.347v-89.973c-.45.262-.978.384-1.505.338-3.312-.284-6.458.797-8.88 3.026-2.73 2.514-4.297 6.3-4.297 10.386v62.476c0 4.394 1.654 8.36 4.537 10.88 2.362 2.065 5.384 2.967 8.508 2.546.116-.017.232-.024.347-.024zm2.59 2.778h.014-.013zm-1.474 4.104c-1.148 0-2.192-.515-2.863-1.414-.042-.058-.083-.117-.123-.177h-.002c-3.82 0-7.44-1.357-10.377-3.923-4-3.498-6.297-8.874-6.3-14.754V118.703c0-5.525 2.172-10.694 5.963-14.182 3.297-3.033 7.528-4.605 11.986-4.42.583-.203 1.334-.325 2.296-.325 1.155 0 4.623 0 4.752 2.788 0 .045.003.09.003.137v94.465c0 2.22-3.327 4.3-5.334 4.3zM372.53 33.627h.012-.013zm2.554 0h31.318c-.126-.61-.432-1.063-.71-1.365-.67-.73-1.708-1.15-2.846-1.15h-24.14c-1.242 0-2.34.442-3.014 1.213-.252.29-.524.723-.608 1.302zm33.946 5.164h-36.5c-1.952 0-3.245-2.195-3.245-3.647 0-.693.23-1.34.645-1.86.144-1.6.785-3.105 1.875-4.354 1.652-1.893 4.164-2.98 6.89-2.982h24.152c2.577 0 5 1.028 6.646 2.82 1.398 1.523 2.142 3.456 2.13 5.504.077.316.12.68.12 1.095 0 2.023-.873 2.854-1.644 3.193-.325.148-.686.23-1.068.23z" fill="#4B5170"/><path d="M405.172 28.53c0-1.462-7.33.51-14.658 0-7.33.69-14.66-.382-14.66 0 0-6.948 1.64-13.32 4.295-18.14 2.65-5.23 6.315-7.59 10.364-7.516 4.048 1.28 7.712 2.526 10.364 7.515 2.654 5.107 4.294 11.634 4.294 18.14" fill="#F37631"/><g transform="translate(372.778 -.17)"><mask id="b" fill="#fff"><use xlink:href="#a"/></mask><path d="M5.738 26.126l.12.006c2.697.156 7.21.414 11.636-.003.14-.015.28-.016.42-.006 3.257.225 6.555-.07 9.206-.31.975-.09 1.82-.165 2.564-.21-.41-4.895-1.772-9.81-3.872-13.856-2.03-3.814-4.565-4.872-8.472-6.122-3.08.09-5.66 2.14-7.67 6.102-2.24 4.078-3.6 9.096-3.932 14.398zM29.816 28.7v.003-.004zm-24.158.003c-.002.36-.075.7-.208 1.01.13-.297.206-.635.208-1.01zm6.583 2.817c-2.64 0-4.994-.137-6.678-.232-.677-.04-1.426-.082-1.83-.09-.208.055-.428.083-.655.083-1.424 0-2.58-1.154-2.58-2.58 0-7.096 1.64-13.98 4.614-19.386C8.04 3.538 12.574.398 17.784.462c.25.005.494.045.73.12 4.062 1.284 8.664 2.74 11.867 8.764 2.924 5.633 4.596 12.68 4.596 19.353 0 1.426-1.156 2.58-2.58 2.58-.604 0-1.157-.205-1.597-.553-.762.007-2.096.127-3.215.23-2.633.236-6.218.563-9.817.332-1.893.17-3.772.23-5.527.23z" fill="#4B5170" mask="url(#b)"/></g><path d="M429.106 217.153c0 2.06-98.593 4.105-98.593 0v-54.825c0 5.95 98.593-3.867 98.593 0v54.825z" fill="#FFF"/><path d="M333.093 215.57c4.36.876 20.043 1.603 47.198 1.308 22.37-.242 40.736-1.045 46.236-1.722v-51.024c-5.344-.542-23.672.392-38.674 1.156-31.904 1.625-47.742 2.118-54.76.924v49.36zm35.403 6.536c-10.99 0-20.246-.186-26.762-.538-7.07-.382-10.87-.816-12.6-2.02-.722-.456-1.2-1.26-1.2-2.18v-55.04c0-1.426 1.155-2.58 2.58-2.58.904 0 1.7.465 2.16 1.17 5.01 1.755 34.935.232 54.916-.785 35.142-1.79 41.2-1.774 43.195.125.467.444.766 1.008.864 1.62.022.138.035.28.035.427v55.152c0 1.425-1.154 2.582-2.58 2.582-.103 0-.206-.007-.305-.02-1.268.278-2.954.412-5.055.578-3.45.273-8.44.54-14.432.766-12.215.466-27.473.742-40.817.742zM314.435 177.19c.002.71.27 1.285.646 1.706-.4-.455-.643-1.05-.645-1.706m-40.286 2.857c-1.03 0-1.86-.168-2.432-.303-.117.015-.237.024-.36.024-1.424 0-2.578-1.155-2.578-2.582 0-.793.402-1.636 1.026-2.124 1.075-.843 2.244-.553 2.87-.4.648.162 1.534.38 2.727.04l.3-.084.31-.012c1.168-.04 2.437.034 3.776.115 2.21.137 4.715.286 7.266-.087 2.726-.36 5.452-.226 8.086-.1 1.952.095 3.795.184 5.552.082 5.17-.69 8.96-.696 11.875-.013.88-.01 1.65-.026 2.29-.04 2.385-.048 3.103-.066 3.953.767l.775.758.007 1.098c0 1.427-1.156 2.582-2.58 2.582-.204 0-.4-.023-.59-.068-.32 0-.808.01-1.453.024-.737.017-1.642.036-2.686.044l-.34.003-.328-.084c-2.243-.583-5.72-.562-10.33.06l-.184.017c-2.067.126-4.174.027-6.21-.072-2.52-.12-4.9-.237-7.127.055-3.04.45-5.952.27-8.29.13-1.093-.067-2.135-.135-3.003-.116-.853.21-1.634.286-2.325.287M273.292 186.153c.403.454.645 1.05.647 1.705-.003-.71-.27-1.284-.648-1.705m7.566 4.803c-1.942 0-3.606-.17-5.053-.51-.88.01-1.652.027-2.29.04-2.383.048-3.103.067-3.954-.765l-.775-.758-.006-1.1c0-1.425 1.155-2.582 2.58-2.582.203 0 .4.025.59.07.313 0 .806-.01 1.452-.026.737-.015 1.642-.036 2.686-.044l.34-.002.328.086c2.243.58 5.72.56 10.33-.06l.184-.018c2.07-.128 4.175-.026 6.212.073 2.52.12 4.9.237 7.125-.056 3.04-.45 5.952-.27 8.29-.13 1.093.066 2.13.123 3.003.115 2.12-.528 3.8-.212 4.757.016.116-.017.236-.026.357-.026 1.426 0 2.58 1.157 2.58 2.582 0 .794-.402 1.637-1.025 2.126-1.076.843-2.243.554-2.873.398-.646-.16-1.533-.38-2.726-.04l-.3.085-.31.012c-1.17.04-2.436-.034-3.775-.114-2.21-.135-4.716-.283-7.267.09-2.726.357-5.45.224-8.087.098-1.95-.096-3.793-.187-5.55-.083-2.603.35-4.855.523-6.822.523M273.292 197.06c.403.455.645 1.05.647 1.706-.003-.71-.27-1.285-.648-1.705m7.566 4.804c-1.942 0-3.606-.17-5.053-.51-.88.01-1.652.027-2.29.04-2.383.048-3.103.067-3.954-.766l-.775-.76-.006-1.098c0-1.425 1.155-2.582 2.58-2.582.203 0 .4.025.59.068.313 0 .806-.01 1.452-.024.737-.016 1.642-.036 2.686-.044l.34-.003.328.087c2.243.582 5.72.56 10.33-.06l.184-.02c2.07-.127 4.175-.026 6.212.075 2.52.12 4.9.237 7.125-.056 3.042-.448 5.954-.27 8.294-.13 1.092.068 2.134.133 3 .117 2.122-.528 3.8-.212 4.757.017.116-.017.236-.026.357-.026 1.426 0 2.58 1.157 2.58 2.582 0 .794-.402 1.636-1.025 2.126-1.076.843-2.243.552-2.873.397-.646-.16-1.533-.38-2.726-.04l-.3.085-.31.012c-1.168.037-2.434-.034-3.77-.116-2.212-.132-4.72-.283-7.272.09-2.726.36-5.45.226-8.087.1-1.95-.096-3.793-.186-5.55-.083-2.603.35-4.855.524-6.822.524" fill="#4B5170"/><path d="M361.483 208.203c0-.15-5.16-.27-10.32 0-5.158 1.096-10.318.217-10.318 0v-33.991c0-.475 5.16.338 10.32 0 5.16.942 10.318-1.982 10.318 0v33.991z" fill="#86AC5B"/><path d="M343.425 206.062c1.725.154 4.48.193 7.204-.384.13-.03.265-.047.4-.053 3.618-.19 6.123-.233 7.874-.186v-29.112c-.074.015-.146.026-.216.04-2.017.38-4.756.894-7.662.44-2.788.16-5.473.02-7.45-.09-.05 0-.1-.004-.15-.006v29.35zm15.48 2.14h.012-.013zm0 .004c0 .682.245 1.233.592 1.645-.37-.446-.592-1.018-.593-1.644zm-13.35 3.115c-2.01 0-3.862-.184-5.097-.536-1.24-.186-2.193-1.258-2.193-2.553v-34.02c0-.707.315-1.434.83-1.922.974-.927 2-.874 4.754-.725 1.92.103 4.554.244 7.147.072.21-.014.42 0 .63.036 2.087.383 4.315-.04 6.105-.376 2.133-.404 3.817-.72 5.192.42.506.42.855.972 1.024 1.602.075.24.115.5.115.765v34.122c0 1.427-1.156 2.582-2.58 2.582-.224 0-.442-.028-.65-.083-.954-.076-4.922-.15-9.34.07-1.844.374-3.967.55-5.937.55zM371.414 172.49c.4.45.647 1.04.655 1.688-.01-.707-.283-1.275-.656-1.687zm5.815 1.71zm0 .004zm0 .004v.004-.004zm-5.16 2.973v4.77l1.01-.066c1.737-.112 3.085-.19 4.15-.218v-4.398c-.182.003-.37.004-.566.004-1.836 0-3.35-.02-4.595-.09zm5.16 7.358h.012-.013zm0 0c0 .238.03.457.084.657-.056-.21-.085-.43-.085-.657zm-7.093 2.662c-1.195 0-1.72-.164-2.27-.64-.583-.472-.957-1.194-.957-2.006V174.21c0-1.425 1.155-2.58 2.58-2.58.32 0 .53.04.772.117 1.303.193 6.43.496 8.133.305.406-.267.892-.422 1.413-.422 1.426 0 2.58 1.157 2.58 2.582v10.326c0 1.427-1.154 2.582-2.58 2.582-.432 0-.838-.106-1.195-.294-1.077-.055-3.71.114-5.2.21-1.484.097-2.516.164-3.276.164zM389.22 181.99c1.264.028 3.49.074 5.16.08v-5.37c-.58.045-1.19.096-1.695.14-1.4.118-2.533.208-3.465.252v4.9zm5.497 5.25c-1.315 0-3.137-.036-5.71-.09-1.035-.022-1.857-.023-2.166-.037-1.463.117-2.78-1.082-2.78-2.574v-10.343c0-1.427 1.157-2.582 2.58-2.582.47 0 .91.125 1.287.343.964.028 3.022-.154 4.323-.265 4.092-.343 5.33-.45 6.427.558.53.49.862 1.24.862 1.962v10.327c0 .693-.286 1.368-.78 1.854-.655.64-.864.845-4.043.845z" fill="#4B5170"/><path d="M379.81 201.534c0-1.384-10.32-.938-10.32 0v-10.327c0 .38 10.32-1.035 10.32 0v10.327z" fill="#F37631"/><path d="M371.764 189.986c.194.362.304.777.306 1.216-.002-.464-.118-.87-.306-1.216zm.306 3.755v4.447c1.06-.094 2.19-.112 3.302-.112.527 0 1.183.01 1.857.055v-4.72c-1.36.042-3.182.18-4.248.262-.328.025-.63.05-.912.07zm5.16 7.793v.004-.004zm-5.16 0v.004-.004zm5.16.006zm-5.16-.002v.002-.002zm0 .005zm0 .004zm7.74 2.567c-.696 0-1.327-.275-1.79-.72-1.525-.284-5.51-.152-6.933.168-.44.346-.995.552-1.597.552-1.425 0-2.58-1.155-2.58-2.58v-10.328c0-1.425 1.155-2.58 2.58-2.58.2 0 .393.022.58.064.51-.014 1.61-.096 2.52-.166 6.038-.458 7.704-.455 8.91.663.452.42.75.974.85 1.57.026.14.038.285.04.435v10.341c0 1.426-1.157 2.58-2.58 2.58z" fill="#4B5170"/><path d="M396.96 201.534c0 1.046-10.32.498-10.32 0v-10.327c0 .405 10.32 1.647 10.32 0v10.327z" fill="#F37631"/><path d="M389.166 190.677c.035.167.054.34.054.517 0-.18-.02-.354-.054-.517zm.054.517v.003-.003zm0 .005zm0 .003v.003-.003zm0 8.192c1.526.124 3.687.197 5.16.137v-4.92c-.276.007-.517.007-.707.007-1.313 0-2.91-.1-4.453-.278v5.053zm3.83 5.317c-5.593 0-8.99-.214-8.99-3.18v-10.326c0-1.425 1.155-2.58 2.58-2.58.433 0 .84.106 1.2.294 1.477.34 6.503.78 7.69.392-.38.125-1.075.753-1.145 1.736h5.154v10.485c0 .96-.443 2.63-3.408 3.023-.785.103-1.822.156-3.08.156z" fill="#4B5170"/><path d="M414.323 184.538c0-.225-10.32-.19-10.32 0V174.21c0-2.768 10.32-.724 10.32 0v10.328z" fill="#F37631"/><path d="M406.583 175.4v6.424c1.583-.03 3.577-.03 5.16-.008v-5.893c-1.505-.344-3.852-.628-5.16-.524m5.165 9.315c.03.492.19.91.42 1.25-.24-.364-.39-.79-.42-1.25m-7.744 2.436c-1.424 0-2.58-1.153-2.58-2.58V174.155c.023-1.568 1.015-2.862 2.665-3.466.857-.316 1.918-.468 3.243-.468 1.15 0 5.606.1 8.01 1.573.917.395 1.56 1.31 1.56 2.37v10.38c0 1.425-1.156 2.58-2.58 2.58-.235 0-.462-.03-.68-.09-1.39-.098-7.238-.097-8.88.004-.24.072-.495.11-.76.11M406.583 199.035c.27.028.562.062.872.097 1.075.12 2.946.33 4.288.39v-6.105c-1.572-.157-3.724-.307-5.16-.27v5.888zm5.744 5.66c-1.354 0-3.11-.17-5.447-.43-.742-.086-1.706-.195-2.22-.227-.21.055-.43.084-.656.084-1.424 0-2.58-1.155-2.58-2.582v-10.333c0-.586.217-2.534 3.008-3.04.673-.124 1.536-.183 2.64-.183 1.985 0 4.173.198 5.02.283 2.582.257 4.81.48 4.81 2.94v10.327c0 .823-.357 1.616-.98 2.175-.794.71-1.87.985-3.595.985z" fill="#4B5170"/><path d="M308.212 133.072c-.107 1.357-.322 3.776-.9 5.324-.575 1.717-1.513 3.802-3.067 4.5-1.277 1.372-2.798 1.95-4.485 3.028-1.69 1.1-3.545.282-5.493 1.11-2.92.382-5.636-.52-7.888-2.412-2.252-.993-4.04-3.07-5.113-6.212-.714-1.98-1.108-3.127-1.106-5.496.054-2.41 1.047-4.877 2.608-7.818 1.56-2.857 3.69-4.052 6.01-5.192 1.686.027 3.542-.643 5.49-1.11 2.996.193 5.622 1.755 7.775 2.606 2.153 2.198 3.832 3.542 4.932 6.293.725 1.71 1.17 3.633 1.237 5.38" fill="#FFF"/><path d="M289.414 122.47c-1.863.942-3.29 1.863-4.382 3.864-1.566 2.948-2.256 4.94-2.292 6.636 0 1.917.298 2.746.953 4.562.573 1.68 1.67 3.82 3.727 4.728.223.098.432.23.62.386 1.694 1.425 3.576 2.058 5.605 1.86 1.185-.426 2.267-.466 3.155-.498.792-.03 1.255-.054 1.553-.25.57-.363 1.104-.665 1.62-.957.986-.558 1.765-.998 2.385-1.663.234-.25.515-.453.827-.592.082-.038.833-.438 1.683-2.972.48-1.29.684-3.592.76-4.545-.074-1.387-.445-2.955-1.027-4.325-.742-1.857-1.783-2.89-3.36-4.452-.216-.214-.436-.433-.663-.662-.404-.17-.82-.358-1.25-.553-1.57-.71-3.19-1.44-4.858-1.63-.347.087-.69.18-1.028.272-1.308.35-2.654.714-4.028.794m3.518 27.233c-2.856 0-5.566-.98-7.936-2.877-2.813-1.365-4.94-3.98-6.17-7.584-.768-2.125-1.248-3.593-1.244-6.33.07-3.257 1.438-6.26 2.907-9.028 1.92-3.516 4.586-5.038 7.152-6.298.366-.178.767-.286 1.177-.263.907-.01 2.048-.3 3.28-.633.514-.138 1.038-.28 1.567-.406.25-.06.51-.084.766-.066 2.735.177 5.108 1.25 7.014 2.11.54.244 1.056.478 1.544.673.338.133.642.335.895.593.342.35.67.677.988.99 1.737 1.722 3.377 3.35 4.498 6.15.83 1.952 1.34 4.186 1.42 6.24.004.1.003.2-.006.302-.15 1.888-.403 4.28-1.053 6.024-.95 2.837-2.25 4.73-3.932 5.698-1.065 1.04-2.193 1.678-3.286 2.296-.44.25-.897.506-1.366.806-1.49.97-3.032 1.026-4.158 1.07-.7.023-1.254.044-1.71.24-.217.09-.444.152-.676.183-.56.073-1.118.11-1.67.11" fill="#4B5170"/><path d="M414.538 78.857c-.214 2.722-.645 7.57-1.8 10.674-1.156 3.44-3.038 7.618-6.153 9.022-2.56 2.746-5.606 3.906-8.99 6.066-3.383 2.202-7.103.564-11.008 2.224-5.857.768-11.298-1.038-15.81-4.834-4.514-1.99-8.1-6.156-10.247-12.45-1.43-3.97-2.222-6.27-2.217-11.017.105-4.827 2.096-9.773 5.224-15.67 3.13-5.724 7.395-8.123 12.05-10.405 3.376.053 7.096-1.288 11-2.224 6.005.387 11.27 3.517 15.585 5.222 4.315 4.407 7.68 7.1 9.887 12.614 1.453 3.427 2.343 7.284 2.478 10.78" fill="#FFF"/><path d="M376.195 55.043c-4.268 2.12-7.756 4.24-10.394 9.066-3.397 6.402-4.823 10.61-4.907 14.487-.005 4.346.73 6.384 2.064 10.085 1.86 5.448 4.917 9.225 8.86 10.964.223.098.43.227.62.386 3.99 3.36 8.65 4.835 13.5 4.288 2.102-.813 4.07-.887 5.818-.95 1.793-.066 3.207-.12 4.433-.916 1.102-.703 2.123-1.28 3.11-1.84 2.085-1.178 3.885-2.197 5.4-3.822.233-.252.514-.453.826-.592 1.21-.547 3.02-2.29 4.768-7.492 1.09-2.93 1.5-7.865 1.663-9.898-.144-3.16-.947-6.607-2.27-9.725-1.67-4.168-4.03-6.51-7.295-9.75-.543-.538-1.103-1.093-1.68-1.68-.95-.388-1.916-.825-2.933-1.285-3.31-1.495-7.046-3.182-10.977-3.524-.857.212-1.706.44-2.542.666-2.78.75-5.42 1.463-8.063 1.53m7.734 54.556c-5.23 0-10.2-1.83-14.534-5.38-5.13-2.392-9.036-7.163-11.308-13.827-1.503-4.166-2.36-6.794-2.355-11.853.128-5.928 2.732-11.612 5.526-16.877 3.477-6.364 8.222-9.076 13.19-11.513.366-.18.758-.28 1.176-.263 2.136.066 4.64-.64 7.288-1.357 1.01-.272 2.035-.55 3.072-.798.252-.06.51-.083.767-.066 5.004.322 9.33 2.277 13.146 4 1.142.516 2.222 1.003 3.22 1.398.335.133.64.335.894.595.694.708 1.365 1.372 2.008 2.01 3.426 3.4 6.387 6.337 8.432 11.45 1.562 3.68 2.514 7.832 2.663 11.64.004.102 0 .202-.007.303-.285 3.616-.766 8.175-1.955 11.372-1.783 5.305-4.092 8.685-7.025 10.236-1.97 1.996-4.165 3.238-6.292 4.44-.93.526-1.89 1.07-2.856 1.687-2.403 1.564-4.865 1.654-7.038 1.734-1.536.055-2.988.11-4.35.687-.214.092-.44.153-.67.184-1.006.132-2.006.198-2.995.198" fill="#4B5170"/><path d="M290.464 121.422c-.715 0-1.424-.296-1.935-.873-.944-1.068-.843-2.7.225-3.645 2.226-1.968 4.93-3.933 7.796-6.012 5.06-3.673 10.79-7.834 15.82-13.376 4.795-5.13 10.595-9.446 16.205-13.62 4.414-3.286 8.586-6.39 12.307-9.85 8.345-8.942 25.61-20.31 33.404-23.923 1.294-.598 2.827-.038 3.425 1.256.6 1.293.038 2.83-1.254 3.428-7.45 3.453-23.955 14.318-31.86 22.825l-.13.132c-3.948 3.678-8.453 7.03-12.812 10.275-5.427 4.038-11.038 8.213-15.49 12.977-5.362 5.91-11.323 10.236-16.583 14.055-2.76 2.005-5.37 3.9-7.41 5.703-.49.434-1.1.647-1.706.647M301.755 147.716c-1.237 0-2.33-.893-2.54-2.156-.236-1.407.712-2.736 2.117-2.973 8.098-1.354 26.89-7.454 36.764-13.56l.16-.093c4.782-2.5 10.016-4.538 15.076-6.51 6.3-2.456 12.818-4.993 18.372-8.405 8.123-5.158 18.97-10.295 26.89-14.046 2.08-.985 3.933-1.863 5.444-2.604 1.28-.627 2.825-.098 3.452 1.183.626 1.28.098 2.826-1.182 3.454-1.528.75-3.404 1.637-5.507 2.634-7.797 3.694-18.48 8.753-26.364 13.758-5.982 3.676-12.718 6.3-19.232 8.838-5.127 1.997-9.97 3.884-14.476 6.233-10.414 6.41-30.072 12.792-38.544 14.21-.144.024-.29.036-.43.036M385.38 76.89c-.272.156-.343.248-.428.403-.346.654-.53 1.128-.538 1.38 0 .276.016.325.21.862.132.387.258.528.293.55.223.1.427.227.614.384.173.145.313.197.43.208.486-.134.91-.157 1.203-.167l.306-.175c.135-.077.322-.183.37-.226.112-.12.23-.225.36-.317.02-.052.046-.12.076-.207.04-.117.098-.33.152-.942-.024-.232-.095-.502-.193-.732-.11-.28-.234-.414-.712-.89-.044-.018-.088-.04-.133-.06-.272-.122-.57-.258-.817-.333-.35.093-.753.2-1.193.26m1.485 3.803l-.022.014.022-.014m.596 4.918v.002m-1.435.23c-1.265 0-2.493-.413-3.542-1.203-.945-.506-2.078-1.488-2.727-3.396-.287-.79-.5-1.474-.5-2.632.032-1.47.6-2.724 1.154-3.767.955-1.75 2.357-2.437 3.11-2.806.365-.18.76-.267 1.178-.266.076-.007.374-.087.592-.145.184-.052.373-.102.562-.147.252-.06.507-.083.765-.066 1.21.077 2.184.52 2.896.84.15.07.295.134.432.19.336.132.64.333.893.592l.305.304c.638.633 1.36 1.35 1.863 2.6.338.8.553 1.746.587 2.623.004.1.003.2-.005.3-.062.775-.16 1.67-.45 2.444-.142.428-.61 1.826-1.855 2.647-.46.412-.92.673-1.276.873-.12.067-.242.137-.37.217-.877.57-1.758.604-2.23.622l-.11.004c-.165.057-.335.097-.508.12-.257.034-.51.05-.765.05" fill="#4B5170"/><path d="M283.997 78.666c-.035.444-.106 1.235-.294 1.742-.188.562-.495 1.245-1.005 1.473-.418.45-.914.64-1.468.99-.552.36-1.16.094-1.796.365-.956.125-1.845-.17-2.582-.79-.737-.324-1.322-1.004-1.673-2.033-.234-.647-.363-1.022-.363-1.798.018-.79.343-1.596.854-2.558.512-.935 1.208-1.326 1.968-1.7.55.01 1.158-.21 1.796-.362.98.062 1.84.573 2.544.852.705.72 1.254 1.16 1.614 2.06.237.56.383 1.19.405 1.76" fill="#FFCC21"/><path d="M278.362 76.89c-.272.156-.343.248-.428.403-.346.653-.532 1.127-.537 1.377 0 .28.014.328.21.865.13.387.257.528.292.55.222.1.426.227.613.384.17.145.312.197.43.208.484-.134.907-.157 1.202-.167l.305-.175c.137-.08.325-.184.374-.227.11-.118.23-.223.358-.315.02-.052.047-.12.077-.21.038-.11.096-.327.15-.94-.025-.23-.096-.5-.192-.73-.113-.28-.235-.415-.714-.89l-.132-.06c-.273-.123-.57-.26-.817-.334-.35.093-.753.2-1.193.26m1.485 3.803l-.022.014.022-.014m.595 4.918v.002m-1.435.23c-1.266 0-2.494-.413-3.542-1.203-.946-.506-2.078-1.488-2.727-3.396-.288-.793-.502-1.476-.5-2.633.03-1.466.6-2.722 1.154-3.765.954-1.75 2.357-2.437 3.11-2.806.365-.18.774-.267 1.178-.266.076-.007.374-.087.592-.145.184-.052.372-.102.562-.147.252-.06.51-.083.765-.066 1.208.077 2.183.52 2.895.84.15.07.295.134.432.19.335.132.64.333.892.592l.305.304c.637.633 1.36 1.35 1.863 2.6.338.796.553 1.744.587 2.623.003.1.002.2-.006.3-.06.775-.162 1.67-.448 2.44-.145.433-.615 1.83-1.858 2.65-.46.412-.92.673-1.275.873-.12.067-.244.137-.37.217-.88.57-1.76.604-2.232.622l-.11.004c-.164.057-.335.097-.508.12-.254.034-.51.05-.763.05" fill="#4B5170"/><path d="M283.997 59.962c-.035.444-.106 1.237-.294 1.743-.188.56-.495 1.244-1.005 1.473-.418.448-.914.637-1.468.99-.552.36-1.16.093-1.796.364-.956.125-1.845-.17-2.582-.79-.737-.324-1.322-1.004-1.673-2.033-.234-.648-.363-1.024-.363-1.8.018-.788.343-1.595.854-2.558.512-.934 1.208-1.325 1.968-1.698.55.01 1.158-.21 1.796-.363.98.063 1.84.574 2.544.853.705.72 1.254 1.16 1.614 2.06.237.56.383 1.19.405 1.76" fill="#FFCC21"/><path d="M278.362 58.186c-.272.157-.343.25-.428.404-.346.653-.532 1.125-.537 1.376 0 .28.016.33.21.867.13.386.257.527.292.55.222.1.426.226.613.383.17.146.312.197.43.21.486-.135.907-.158 1.202-.168.104-.062.205-.12.304-.174.136-.08.323-.185.372-.228.112-.118.23-.224.36-.317.022-.053.047-.12.077-.21.038-.11.096-.327.15-.94-.025-.23-.096-.5-.192-.73-.113-.28-.235-.415-.714-.89l-.13-.06c-.272-.123-.57-.26-.82-.334-.35.095-.752.2-1.192.26m1.485 3.804l-.022.014.022-.014M279.01 67.14c-1.267 0-2.497-.416-3.545-1.204-.946-.505-2.078-1.487-2.727-3.395-.288-.793-.502-1.477-.5-2.634.03-1.467.6-2.722 1.154-3.765.954-1.747 2.357-2.435 3.11-2.804.365-.18.774-.246 1.178-.264.076-.008.374-.088.592-.146.184-.05.372-.1.562-.146.25-.06.507-.084.765-.066 1.208.077 2.184.518 2.896.84.15.067.294.133.43.187.337.134.642.337.896.597l.306.307c.637.632 1.36 1.35 1.86 2.598.338.795.553 1.743.587 2.62.003.1.002.2-.006.3-.06.776-.162 1.672-.448 2.443-.145.432-.614 1.826-1.855 2.647-.463.414-.924.675-1.28.875-.117.067-.24.137-.368.217-.88.572-1.76.604-2.232.622l-.11.005c-.166.06-.336.1-.51.12-.254.035-.507.05-.76.05" fill="#4B5170"/><path d="M303.367 78.666c-.035.444-.106 1.235-.294 1.742-.19.562-.496 1.245-1.005 1.473-.418.45-.915.64-1.468.99-.552.36-1.16.094-1.797.365-.956.125-1.845-.17-2.58-.79-.74-.324-1.323-1.004-1.674-2.033-.235-.647-.364-1.022-.364-1.798.02-.79.344-1.596.854-2.558.51-.935 1.208-1.326 1.967-1.7.55.01 1.16-.21 1.796-.362.98.062 1.84.573 2.545.852.704.72 1.254 1.16 1.614 2.06.237.56.383 1.19.405 1.76" fill="#FFCC21"/><path d="M297.73 76.89c-.27.156-.342.248-.427.403-.346.653-.532 1.127-.537 1.377 0 .28.016.328.21.865.132.387.257.528.292.55.224.1.427.227.614.384.173.145.312.197.43.208.486-.134.91-.157 1.202-.167l.305-.175c.136-.077.323-.183.373-.226.11-.12.23-.224.358-.317.02-.052.048-.12.078-.21.043-.127.098-.345.15-.94-.024-.23-.093-.5-.19-.73-.113-.28-.236-.416-.715-.89l-.13-.06c-.273-.123-.57-.258-.82-.334-.35.093-.752.2-1.192.26m1.487 3.803l-.022.014.022-.014m.593 4.918v.002m-1.434.23c-1.264 0-2.492-.413-3.54-1.203-.946-.506-2.08-1.488-2.73-3.396-.285-.79-.5-1.474-.5-2.632.032-1.468.602-2.724 1.155-3.767.956-1.75 2.358-2.437 3.11-2.807.367-.178.762-.265 1.18-.264.075-.007.373-.087.59-.145.185-.052.372-.102.563-.147.25-.06.506-.082.765-.066 1.21.077 2.185.52 2.898.84.15.07.294.136.43.19.335.132.64.333.892.59l.304.304c.638.634 1.363 1.353 1.865 2.605.338.796.553 1.744.588 2.622.004.1 0 .202-.006.303-.063.778-.165 1.676-.45 2.44-.144.43-.613 1.826-1.855 2.647-.462.412-.922.673-1.277.873-.118.067-.243.137-.37.217-.878.57-1.757.604-2.23.622l-.112.004c-.163.057-.334.097-.506.12-.255.034-.51.05-.764.05" fill="#4B5170"/><path d="M303.367 59.962c-.035.444-.106 1.237-.294 1.743-.19.56-.496 1.244-1.005 1.473-.418.448-.915.637-1.468.99-.552.36-1.16.093-1.797.364-.956.125-1.845-.17-2.58-.79-.74-.324-1.323-1.004-1.674-2.033-.235-.648-.364-1.024-.364-1.8.02-.788.344-1.595.854-2.558.51-.934 1.208-1.325 1.967-1.698.55.01 1.16-.21 1.796-.363.98.063 1.84.574 2.545.853.704.72 1.254 1.16 1.614 2.06.237.56.383 1.19.405 1.76" fill="#FFCC21"/><path d="M297.73 58.186c-.27.157-.342.25-.427.404-.346.653-.532 1.125-.537 1.376 0 .28.016.328.21.867.132.386.257.527.292.55.224.1.427.226.614.383.173.145.312.197.43.21.486-.135.91-.158 1.202-.168.104-.06.205-.12.304-.174.137-.078.324-.184.373-.226.112-.12.232-.226.36-.32.023-.05.048-.12.078-.207.043-.127.098-.345.15-.94-.024-.23-.093-.5-.19-.73-.113-.28-.236-.416-.715-.89l-.13-.06c-.272-.123-.57-.26-.82-.334-.35.095-.752.2-1.192.26m1.487 3.804l-.022.014.022-.014m-.839 5.15c-1.266 0-2.494-.416-3.543-1.204-.945-.505-2.078-1.487-2.728-3.395-.288-.793-.5-1.476-.5-2.632.03-1.47.6-2.724 1.154-3.767.956-1.747 2.358-2.435 3.11-2.805.367-.178.762-.245 1.18-.263.075-.008.373-.088.59-.146.185-.05.372-.1.563-.146.252-.06.508-.084.765-.066 1.21.077 2.186.52 2.9.84.15.07.292.135.428.187.337.134.64.337.894.597l.304.304c.64.634 1.362 1.35 1.863 2.602.338.797.553 1.744.588 2.62.004.1 0 .203-.006.304-.063.778-.165 1.675-.45 2.442-.144.43-.613 1.823-1.854 2.644-.462.414-.923.675-1.278.875-.12.067-.243.137-.37.217-.878.572-1.757.604-2.23.622l-.112.005c-.165.06-.335.1-.51.12-.253.035-.506.05-.758.05M385.586 55.207h.002-.002zm1.865 9.396zm-1.23.22c-.88.002-1.733-.277-2.464-.805-.867-.494-1.53-1.32-1.886-2.366-.17-.47-.32-.955-.32-1.74.023-1.026.38-1.828.728-2.482.682-1.25 1.657-1.73 2.125-1.958.313-.154.65-.242.995-.26l.436-.115c.253-.062.51-.084.77-.067.84.054 1.504.355 1.9.533l.157.07c.338.136.64.337.893.594l.14.14c.346.343.87.86 1.22 1.735.22.52.362 1.14.386 1.74.003.102 0 .204-.007.306-.038.478-.103 1.037-.302 1.57-.275.82-.734 1.47-1.354 1.9-.305.26-.593.423-.784.532l-.125.072c-.656.425-1.303.49-1.652.51-.098.023-.2.043-.3.055-.185.025-.37.037-.554.037zM385.574 90.54h.002-.002zm1.87 9.396c0 .002-.003.002-.004.002 0 0 .003 0 .004-.002zm-1.223.22c-.88 0-1.732-.28-2.465-.807-.864-.495-1.526-1.32-1.885-2.364-.17-.472-.32-.957-.32-1.74.024-1.038.402-1.872.73-2.487.68-1.247 1.655-1.726 2.124-1.956.31-.152.646-.24.988-.26l.45-.117c.25-.058.507-.08.762-.065.84.055 1.503.355 1.9.532l.158.07c.335.135.64.337.89.594l.14.138c.346.344.87.865 1.22 1.74.222.52.363 1.137.386 1.737.004.102.003.204-.005.306-.04.477-.103 1.036-.302 1.57-.274.82-.734 1.47-1.355 1.902-.305.258-.592.42-.783.53l-.125.07c-.655.427-1.305.493-1.656.51-.097.024-.195.044-.294.056-.186.025-.37.037-.555.037zM369.66 73.91h.003-.003zm1.87 9.398c0 .002-.002.002-.003.002l.004-.002zm-1.222.22c-.88 0-1.734-.28-2.466-.807-.865-.493-1.526-1.318-1.885-2.362-.17-.472-.32-.957-.32-1.74.023-1.036.4-1.87.728-2.485.687-1.256 1.7-1.75 2.132-1.96.307-.15.642-.237.982-.258l.45-.116c.25-.06.507-.082.76-.066.84.055 1.504.355 1.9.532l.158.07c.336.135.64.337.892.594l.14.138c.346.344.87.865 1.22 1.74.22.515.362 1.133.385 1.737.004.102.002.204-.005.306-.04.48-.103 1.038-.302 1.57-.275.82-.735 1.472-1.356 1.903-.305.26-.592.42-.783.53l-.126.072c-.655.426-1.305.492-1.656.51-.098.023-.196.042-.295.055-.186.025-.37.037-.555.037zM402.025 73.91h.003-.003zm1.87 9.398c0 .002-.002.002-.003.002l.004-.002zm-1.222.22c-.88 0-1.734-.28-2.466-.807-.865-.493-1.526-1.318-1.885-2.362-.17-.472-.32-.957-.32-1.74.023-1.036.4-1.87.728-2.485.687-1.256 1.7-1.75 2.132-1.96.307-.15.642-.237.98-.258l.453-.116c.25-.06.507-.082.76-.066.84.055 1.504.355 1.9.532l.158.07c.336.135.64.337.892.594l.14.138c.346.344.87.865 1.22 1.74.22.515.362 1.133.385 1.737.004.102.002.204-.005.306-.04.48-.103 1.038-.302 1.57-.275.82-.734 1.47-1.356 1.903-.304.26-.592.42-.783.53l-.125.072c-.656.426-1.306.492-1.657.51-.098.023-.196.042-.295.055-.186.025-.37.037-.555.037zM293.335 128.24h.002-.002zm1.87 9.397c0 .002-.002.002-.004.002.003 0 .004 0 .005-.003zm-1.223.22c-.88 0-1.732-.28-2.465-.807-.868-.494-1.53-1.322-1.885-2.37-.162-.44-.32-.943-.32-1.73.023-1.043.402-1.876.73-2.492.678-1.243 1.653-1.723 2.123-1.953.31-.152.646-.24.988-.26l.45-.117c.252-.058.507-.08.762-.065.84.055 1.504.355 1.9.534l.16.07c.334.133.638.335.89.592l.137.137c.347.344.872.865 1.222 1.74.22.52.362 1.137.385 1.737.003.102.002.204-.006.306-.04.478-.103 1.037-.302 1.57-.272.818-.732 1.47-1.357 1.904-.304.258-.59.42-.78.528l-.126.072c-.657.426-1.307.492-1.658.51-.098.023-.196.043-.295.055-.186.024-.37.036-.555.036zM447.61 75.052h.012-.013zm-3.872 2.234v89.976c.452-.263.977-.383 1.507-.34 3.307.284 6.456-.795 8.88-3.027 2.73-2.512 4.296-6.297 4.296-10.382V91.035c0-4.393-1.653-8.36-4.537-10.88-2.363-2.066-5.388-2.967-8.507-2.546-.57.082-1.148-.038-1.638-.324zm-.406 95.157c-1.155 0-4.622 0-4.75-2.787-.002-.044-.003-.088-.003-.133V75.05c0-2.22 3.327-4.3 5.334-4.3 1.148 0 2.19.514 2.862 1.414.042.058.084.116.124.177 3.82 0 7.44 1.356 10.377 3.922 4.002 3.5 6.3 8.875 6.304 14.754V153.514c0 5.524-2.173 10.694-5.964 14.182-3.298 3.034-7.525 4.597-11.988 4.42-.583.203-1.334.326-2.296.326z" fill="#4B5170"/><path d="M111.533 137.417v39.671c0 .456-10.458.263-20.917 0-10.46.09-20.918-3.123-20.918 0V124.154c0 .046 7.284-.155 14.567 0 7.284-.568 14.568-.243 14.568 0" fill="#86AC5B"/><path d="M96.253 124.153c0 .452.11.848.286 1.184-.184-.354-.287-.756-.287-1.184m10.08 55.802c-3.257 0-8.193-.096-15.782-.287-4.173.043-8.45-.455-11.89-.85-2.384-.275-5.264-.606-6.618-.507-.41.886-1.305 1.5-2.343 1.5-1.426 0-2.58-1.156-2.58-2.582v-53.075c0-1.492 1.315-2.686 2.775-2.573.243 0 .782-.007 1.563-.017 2.682-.034 7.656-.097 12.74.006 1.476-.107 14.582-.99 16.38.674.527.49.834 1.19.834 1.91 0 1.424-1.155 2.58-2.58 2.58-.292 0-.575-.048-.837-.137-1.367-.163-7.414-.347-13.53.13-.084.007-.17.01-.255.008-4.598-.1-9.14-.053-11.93-.02v46.43c1.81-.06 4.097.212 6.97.542 3.473.402 7.428.864 11.343.82 9.28.23 15.414.317 18.36.255v-37.584c0-1.427 1.156-2.582 2.58-2.582 1.425 0 2.58 1.155 2.58 2.582v39.91c0 .695-.295 1.39-.794 1.876-.683.667-1.017.99-6.987.99" fill="#4B5170"/><path d="M101.412 124.147v.002-.003zm0 .003v.004-.004zm7.54 13.272zm0 .005zm2.58 2.57c-.78 0-1.48-.346-1.955-.897l-.182-.137c-1.065-.814-3.49-2.665-5.958-6.162-3.298-1.828-7.184-6.682-7.184-8.646 0-1.427 1.155-2.582 2.58-2.582 1.163 0 2.147.77 2.468 1.83.544 1.034 2.944 4.196 4.875 5 .466.195.866.523 1.15.943 2.122 3.164 4.2 4.75 5.2 5.513.708.54 1.587 1.21 1.587 2.56 0 1.425-1.154 2.58-2.58 2.58z" fill="#4B5170"/><path d="M98.832 140.118c-1.424 0-2.58-1.156-2.58-2.58v-13.395c0-1.425 1.156-2.58 2.58-2.58 1.425 0 2.58 1.155 2.58 2.58v13.394c0 1.425-1.155 2.58-2.58 2.58" fill="#4B5170"/><path d="M109.242 136.23c-.177.337-.288.732-.29 1.183.002-.427.105-.83.29-1.183zm-.29 1.183v.004-.004zm-7.54.088v.005-.004zm.956 3.3c-1.246 0-2.217-.064-2.967-.196-2.92-.516-3.147-2.503-3.147-3.1 0-1.424 1.155-2.58 2.58-2.58.652 0 1.248.242 1.702.642 2.068.285 8.468-.25 10.084-.564.284-.107.59-.166.913-.166 1.425 0 2.58 1.155 2.58 2.58 0 1.665 0 3.384-11.745 3.384z" fill="#4B5170"/><path d="M194.506 137.417v39.671c0-1.787-2.614-.473-6.537 0-3.922-.21-9.15-1.396-14.38 0-5.23-.873-10.46.763-14.38.08-3.924-.836-6.54 2.09-6.54-.08V124.154c0-1.366 7.285-1.112 14.568 0 7.284.622 14.568.654 14.568 0" fill="#86AC5B"/><path d="M179.226 124.133v.002-.002zm0 .004zm0 .005v.002-.002zm0 .004zm0 .004v.004-.004zm12.7 52.936h.013-.013zm-38.693 3.398c-.614 0-1.25-.15-1.855-.598-.587-.432-1.286-1.27-1.286-2.8V124.09c0-.3.05-.585.143-.85.17-.524.484-.994.928-1.376 2.255-1.94 10.133-1.225 16.38-.276 6.18.526 11.39.552 12.945.346.385-.23.836-.362 1.317-.362 1.424 0 2.58 1.156 2.58 2.582 0 .722-.347 1.497-.88 1.987-.54.497-1.983 1.823-16.486.587l-.17-.02c-5.338-.816-9.58-1.003-11.598-.86v48.88c1.206-.278 2.743-.457 4.494-.084 1.407.244 3.375.07 5.46-.116 2.514-.225 5.343-.473 8.258-.07 4.222-1.004 8.34-.567 11.674-.216.968.103 1.888.203 2.744.257.995-.132 1.914-.32 2.73-.49.452-.093.89-.184 1.315-.256v-36.418c0-1.426 1.155-2.582 2.58-2.582 1.424 0 2.58 1.156 2.58 2.582v39.754c0 1.427-1.156 2.582-2.58 2.582-.735 0-1.398-.307-1.868-.8-.322.06-.68.134-.985.197-.927.19-2.083.43-3.377.585-.148.018-.295.023-.446.015-1.002-.052-2.09-.166-3.235-.29-3.215-.34-6.857-.727-10.343.207-.354.095-.726.113-1.088.05-2.46-.41-5.024-.18-7.504.037-2.43.215-4.73.418-6.895.042-1.373-.294-2.495.058-3.486.367-.59.182-1.304.404-2.047.404z" fill="#4B5170"/><path d="M184.385 124.15v.004-.003zm9.896 16.166c-1.443 0-2.473-1.308-4.003-3.253-1.117-1.42-2.506-3.187-3.82-4.333-.088-.08-.172-.163-.25-.253-1.325-1.53-2.685-2.708-3.78-3.657-1.788-1.553-3.2-2.78-3.2-4.666 0-1.427 1.154-2.582 2.578-2.582 1.218 0 2.238.844 2.51 1.98.287.32.947.893 1.494 1.367 1.123.975 2.653 2.3 4.18 4.042 1.62 1.45 3.126 3.362 4.342 4.906.27.344.572.73.835 1.054 1.104.29 1.92 1.298 1.92 2.495 0 1.537-.95 2.414-1.838 2.722-.347.12-.667.176-.97.176z" fill="#4B5170"/><path d="M181.805 140.087c-1.424 0-2.58-1.157-2.58-2.582v-13.352c0-1.425 1.156-2.58 2.58-2.58 1.424 0 2.58 1.155 2.58 2.58v13.352c0 1.425-1.156 2.582-2.58 2.582" fill="#4B5170"/><path d="M184.385 137.505v.004-.005zm-2.58 2.582c-1.424 0-2.58-1.157-2.58-2.582 0-.836.35-1.612.987-2.184 1.143-1.026 2.896-1.718 13.988-.528l.478.05-.216 2.528 1.768 1.968c-.86.774-1.697.682-2.58.59-6.73-.725-9.224-.632-10.097-.524-.46.425-1.073.683-1.748.683z" fill="#4B5170"/><path fill="#FFCC21" d="M535.483 110.95v39.67h-41.835V97.688h29.134"/><path d="M535.483 153.202h-41.835c-1.425 0-2.58-1.157-2.58-2.582V97.686c0-1.425 1.155-2.58 2.58-2.58h29.133c1.427 0 2.58 1.155 2.58 2.58 0 1.427-1.153 2.582-2.58 2.582H496.23v47.77h36.675v-37.087c0-1.426 1.156-2.58 2.58-2.58 1.424 0 2.58 1.154 2.58 2.58v39.67c0 1.425-1.156 2.582-2.58 2.582" fill="#4B5170"/><path d="M535.483 113.532c-.678 0-1.357-.266-1.862-.795l-12.7-13.265c-.986-1.028-.95-2.663.077-3.65 1.03-.985 2.662-.95 3.648.08l12.7 13.262c.987 1.03.952 2.664-.078 3.65-.5.48-1.14.718-1.784.718" fill="#4B5170"/><path d="M522.782 113.62c-1.424 0-2.58-1.156-2.58-2.58V97.685c0-1.425 1.156-2.58 2.58-2.58 1.424 0 2.58 1.155 2.58 2.58v13.353c0 1.424-1.156 2.58-2.58 2.58" fill="#4B5170"/><path d="M522.78 113.62c-1.415 0-2.568-1.145-2.58-2.563-.008-1.427 1.14-2.59 2.564-2.6l12.7-.088h.02c1.415 0 2.568 1.143 2.578 2.563.01 1.425-1.136 2.59-2.56 2.6l-12.703.087h-.02z" fill="#4B5170"/><path d="M507.55 140.345c-.746 0-1.487-.322-1.996-.944l-5.878-7.174c-.904-1.102-.743-2.73.358-3.632 1.103-.902 2.728-.744 3.63.36l5.878 7.173c.904 1.102.743 2.73-.358 3.634-.48.394-1.06.585-1.635.585" fill="#F37631"/><path d="M507.55 140.345c-.712 0-1.42-.293-1.93-.866-.947-1.067-.85-2.7.213-3.646l19.912-17.716c1.067-.945 2.696-.85 3.643.214.946 1.066.85 2.698-.213 3.646l-19.912 17.716c-.493.436-1.104.65-1.714.65" fill="#F37631"/><path d="M80.29 245.972c0-2.465-7.862.508-7.862 0V220.17c0 1.01 7.86.08 7.86 0v25.802zM201.185 245.972c0 2.04-7.86-.762-7.86 0V220.17c0-1.453 7.86 2.045 7.86 0v25.802zM516.848 247.19c0-3.835-7.86 1.724-7.86 0V206.54c0-1.334 7.86-.538 7.86 0v40.647z" fill="#4B5170"/></g></svg>