<svg width="55" height="50" viewBox="0 0 55 50" xmlns="http://www.w3.org/2000/svg" xmlns:xlink="http://www.w3.org/1999/xlink"><title>Page 1</title><defs><path id="a" d="M46.253.05H.013V25.65h46.24V.05z"/><path id="c" d="M0 37.157h42.264V.007H0z"/></defs><g fill="none" fill-rule="evenodd"><path d="M46.788 42.978L30.262 26.102l22.98-5.845c.482 1.87.738 3.827.738 5.845 0 6.497-2.655 12.38-6.947 16.637l-.245.238z" fill="#86AC5A"/><path d="M32.2 26.643l14.593 14.903c1.86-1.958 3.337-4.2 4.393-6.676 1.183-2.777 1.784-5.727 1.784-8.768 0-1.558-.16-3.108-.478-4.62L32.2 26.642zM46.772 44.4L28.324 25.56l24.654-6.27.985-.28.258 1c.51 1.98.77 4.03.77 6.092 0 3.31-.654 6.524-1.944 9.55-1.245 2.92-3.028 5.543-5.3 7.796l-.25.245-.724.707z" fill="#57585A"/><path d="M24.728 1.06c-8.84 0-16.552 4.798-20.63 11.912l20.63 11.616 22.98-5.844C45.088 8.576 35.793 1.06 24.728 1.06" fill="#FFCD20"/><g transform="translate(2.712 .008)"><mask id="b" fill="#fff"><use xlink:href="#a"/></mask><path d="M2.782 12.6L22.16 23.51l21.586-5.49c-.627-2.046-1.544-3.99-2.734-5.787-1.354-2.045-3.024-3.85-4.964-5.365-1.958-1.53-4.138-2.72-6.478-3.538-2.42-.847-4.962-1.277-7.554-1.277-4.087 0-8.093 1.09-11.585 3.148C7.33 7.03 4.7 9.576 2.783 12.6zm19.09 13.052L.875 13.83l-.863-.5.494-.86C2.63 8.764 5.705 5.655 9.4 3.48 13.202 1.234 17.565.05 22.015.05c2.82 0 5.59.467 8.226 1.39 2.55.892 4.923 2.188 7.056 3.853 2.11 1.65 3.93 3.614 5.402 5.84 1.5 2.264 2.6 4.74 3.275 7.355l.278 1.082-1.06.15-23.322 5.932z" fill="#57585A" mask="url(#b)"/></g><path d="M4.098 12.984L24.728 24.6l16.526 16.877c-4.27 4.117-10.1 6.652-16.526 6.652-13.1 0-23.718-10.535-23.718-23.53 0-4.225 1.122-8.19 3.087-11.616z" fill="#BAC1E1"/><g transform="translate(0 11.974)"><mask id="d" fill="#fff"><use xlink:href="#c"/></mask><path d="M4.496 2.387C2.873 5.54 2.02 9.06 2.02 12.627c0 3.04.6 5.99 1.784 8.767 1.144 2.683 2.78 5.092 4.867 7.16 2.087 2.07 4.515 3.695 7.22 4.83 2.798 1.174 5.772 1.77 8.838 1.77 5.605 0 10.922-2.012 15.083-5.687l-15.706-16.04L4.496 2.387zm20.232 34.77c-3.338 0-6.576-.65-9.626-1.928-2.944-1.237-5.59-3.005-7.86-5.258-2.27-2.252-4.053-4.876-5.298-7.797C.654 19.15 0 15.937 0 12.625 0 8.376 1.113 4.19 3.22.516c.132-.232.353-.402.612-.472.258-.07.533-.035.765.096l20.63 11.615c.083.047.16.105.225.173l16.525 16.875c.186.19.29.443.287.707-.002.27-.112.525-.306.712-4.64 4.472-10.76 6.935-17.23 6.935z" fill="#57585A" mask="url(#d)"/></g></g></svg>