<svg width="57" height="45" viewBox="0 0 57 45" xmlns="http://www.w3.org/2000/svg" xmlns:xlink="http://www.w3.org/1999/xlink"><title>Page 1</title><defs><path id="a" d="M0 45h56.95V0H0z"/></defs><g fill="none" fill-rule="evenodd"><path d="M25.642 1.006c-.833 0-1.667.317-2.3.952L6.51 18.862c-1.264 1.27-.996 2.674.79 2.674h3.19V41.1c0 1.796.494 2.382 2.282 2.382h25.805c1.788 0 2.284-.586 2.284-2.382V21.537h3.187c1.786 0 2.054-1.405.79-2.675L28.007 1.958c-.632-.635-1.532-.952-2.365-.952z" fill="#FFCD20"/><path d="M6.73 20.413c.04.036.208.117.57.117h2.76l1.43.003V41.1c0 .837.125 1.096.2 1.175.056.06.274.2 1.082.2h25.806c.808 0 1.026-.14 1.083-.2.075-.08.2-.338.2-1.175V20.533l1.43-.002h2.76c.362 0 .53-.08.57-.117.015-.088-.07-.42-.488-.84L27.3 2.67c-.41-.413-1.03-.658-1.658-.658-.604 0-1.168.233-1.59.657L7.218 19.572c-.417.42-.503.752-.49.84m31.85 24.074H12.772c-.82 0-1.85-.094-2.542-.834-.655-.7-.743-1.683-.743-2.553V22.542H7.3c-1.68 0-2.253-.947-2.42-1.353-.386-.936-.04-2.07.922-3.04L22.635 1.248C23.435.443 24.503 0 25.642 0c1.164 0 2.284.454 3.073 1.247L45.548 18.15c.964.97 1.31 2.104.923 3.04-.167.405-.74 1.352-2.42 1.352h-2.187V41.1c0 .87-.088 1.854-.743 2.553-.692.74-1.722.834-2.542.834" fill="#57585A"/><path d="M29.397 43.482H22.02c-.314 0-.572-.26-.572-.575V30.995c0-.316.258-.574.572-.574h7.377c.314 0 .572.26.572.575v11.912c0 .316-.26.575-.573.575" fill="#BAC1E1"/><mask id="b" fill="#fff"><use xlink:href="#a"/></mask><path d="M22.45 42.476h6.518v-11.05H22.45v11.05zm6.947 2.01H22.02c-.867 0-1.573-.708-1.573-1.58v-11.91c0-.872.706-1.58 1.573-1.58h7.377c.868 0 1.574.708 1.574 1.58v11.91c0 .872-.705 1.58-1.573 1.58z" fill="#57585A" mask="url(#b)"/><path d="M26.673 15.773h-1.93c-.99 0-1.802-.815-1.802-1.81v-1.938c0-.995.813-1.81 1.804-1.81h1.93c.99 0 1.802.815 1.802 1.81v1.937c0 .996-.812 1.81-1.803 1.81" fill="#F5F3F1" mask="url(#b)"/><path d="M24.744 11.22c-.442 0-.8.362-.8.805v1.937c0 .444.358.805.8.805h1.93c.44 0 .8-.36.8-.805v-1.937c0-.443-.36-.804-.8-.804h-1.93zm1.93 5.558h-1.93c-1.546 0-2.804-1.263-2.804-2.816v-1.937c0-1.552 1.258-2.816 2.804-2.816h1.93c1.545 0 2.803 1.263 2.803 2.815v1.937c0 1.553-1.258 2.816-2.804 2.816zM10.49 22.543H40.86v-2.01H10.49" fill="#57585A" mask="url(#b)"/><path d="M15.38 14.484c-.256 0-.512-.098-.708-.294-.39-.393-.39-1.03 0-1.423l8.61-8.644c.39-.393 1.024-.393 1.415 0 .39.392.39 1.03 0 1.422L16.09 14.19c-.197.196-.453.294-.71.294" fill="#FEFEFE" opacity=".6" mask="url(#b)"/><path d="M55.41 10.135L34.24 26.75l-7.862-4.498-23.07 21.433c-.614.49-1.514.383-2-.234-.487-.616-.382-1.52.233-2.008l24.342-22.687 8.195 4.683L53.643 7.89c.614-.487 1.515-.38 2 .236.487.617.382 1.52-.232 2.01" fill="#86AC5A" mask="url(#b)"/><path d="M26.025 19.994L2.193 42.206l-.03.025c-.12.094-.15.22-.157.285-.007.066-.006.194.087.312.093.12.217.15.283.157.06.007.177.006.29-.07l23.57-21.9 7.916 4.53 20.638-16.2c.117-.092.147-.216.155-.282.008-.066.007-.194-.087-.312-.093-.12-.217-.15-.282-.157-.066-.007-.194-.006-.312.087L34.17 24.647l-8.145-4.653zM2.43 45c-.094 0-.19-.007-.286-.018-.645-.076-1.22-.398-1.622-.907-.4-.51-.58-1.146-.505-1.793.073-.633.38-1.2.868-1.6L25.74 17.515l8.245 4.712L53.022 7.103c.507-.403 1.14-.583 1.785-.508.645.076 1.22.398 1.622.907.4.51.58 1.146.505 1.793-.076.647-.396 1.226-.903 1.63l-.005.002-21.7 17.03-7.807-4.467L3.96 44.45l-.03.024c-.432.343-.955.525-1.5.525z" fill="#57585A" mask="url(#b)"/></g></svg>