<svg width="51" height="51" viewBox="0 0 51 51" xmlns="http://www.w3.org/2000/svg" xmlns:xlink="http://www.w3.org/1999/xlink"><title>Page 1</title><defs><path id="a" d="M50.977 35.215V.04H0v35.175h50.977z"/><path id="c" d="M6.79.015H.048v6.27H6.79V.015z"/></defs><g fill="none" fill-rule="evenodd"><path d="M1.82 25.225c.168.442 6.49-7.678 6.49-8.006 0 .883 8.652 6.06 8.652 5.034 0 .185 5.615.19 5.615.743 0 1.397 2.704-2.776 2.704-2.806 0 .296 3.328 3.494 3.328 3.797 0 .038-3.16 6.345-3.16 6.52 0 .193 2.328 3.96 2.328 3.715 0 .29 4.41.39 4.41 1.65 0-.206 1.663-1.728 1.663-.66 0-.25 2.162 3.335 2.162 3.632 0 1.14.832-.436.832-1.073 0-.25-1.165-3.658-1.165-3.053 0-.235.748-2.608.748-2.64 0-.343-1.58-1.838-1.58-2.147 0 .37-1.498-2.778-1.498-3.466 0 .463 7.154 3.927 7.154 2.806 0 .39.832-2.102.832-1.238 0-.51 7.82 2.828 7.82 3.632 0 .342-.416 3.196-.416 1.98 0-.085-.333 1.933-.333 1.65 0 .4-3.327 1.407-3.327 1.487 0-.21-1.58 2.937-1.58 2.477 0-.764-.833 4.47-.833 3.632 0-.203-3.993 4.51-3.993 4.126 0 .302-1.664 1.625-1.664 1.61 0 1.03-.083-3.448-.083-2.93 0-.256.915-.105.915-.744 0-.333-3.41-.925-3.41-.577 0 .922-1.498-2.356-1.498-1.734 0 .182-2.91-.48-2.91-.577 0-.568-.334 1.463-.334 1.486 0-.37-11.564-.417-11.564-.826 0-.27-2.953-1.38-5.906-1.073-2.953-.296-5.906-1.22-5.906-1.072 0-.538-2.08-4.134-2.08-3.55 0 .185.166-2.53.166-3.384 0-.035-1.58-5.638-1.58-5.034 0 .52-1-2.606-1-3.385" fill="#F5F3F1"/><g transform="translate(0 15.372)"><mask id="b" fill="#fff"><use xlink:href="#a"/></mask><path d="M8.31.04c-.75 0-1.393.45-1.673 1.09-.255.4-1.282 1.794-2.75 3.65C2.342 6.735 1.38 7.843.988 8.245.395 8.55 0 9.162 0 9.853c0 .508.174 1.35.517 2.502.124.42.255.82.367 1.124.07.187.13.34.19.462.087.185.186.34.292.473.328.995.995 3.304 1.21 4.08-.018.79-.113 2.434-.146 2.898-.012.086-.018.174-.018.263 0 .64.335 1.205.838 1.528.408.62 1.1 1.87 1.266 2.316.142.858.893 1.513 1.798 1.513h.016c.17.035.444.1.694.157 1.147.266 3.07.71 5.013.906.06.007.122.01.183.01.063 0 .126-.004.19-.01.275-.03.565-.043.862-.043 1.662 0 3.095.433 3.602.643.227.216.53.393.922.497.168.044.366.08.622.112.352.045.84.086 1.49.125 1.152.07 2.68.128 4.158.184 1.682.063 4.162.157 4.927.253.215.088.45.137.697.137.744 0 1.385-.443 1.667-1.08.25.052.475.093.675.125.163.272.33.552.492.79.127.19.24.335.352.46.522.574 1.1.694 1.49.694.267 0 .522-.055.755-.157l.017.73c.01.44.02.917.03 1.283l.012.46c0 .067.003.12.005.154.053 1.15.98 1.77 1.823 1.77.665 0 1.25-.355 1.568-.89.13-.107.303-.253.484-.413.282-.247.514-.47.692-.658.064-.07.154-.165.248-.286.29-.235.58-.542.916-.9.475-.505 1.066-1.16 1.587-1.74.323-.358.724-.803 1.005-1.107.417-.21.748-.582.916-1.058.03-.082.056-.172.084-.284.033-.13.07-.297.117-.526.078-.382.172-.885.263-1.37.06-.324.14-.744.206-1.077l.054-.074c.093-.128.196-.288.324-.5.2-.335.432-.752.637-1.12l.19-.34c.052-.02.104-.038.154-.055.5-.178 1.183-.422 1.75-.662.364-.153.65-.293.874-.425.354-.21.604-.443.778-.68.14-.18.248-.39.317-.62.017-.058.033-.12.05-.197.02-.086.04-.195.07-.342l.082-.443c.072-.127.134-.268.183-.425.034-.11.066-.235.1-.394.044-.212.093-.485.144-.812.04-.265.175-1.156.175-1.523 0-.99-.72-1.576-.96-1.77-.253-.206-.582-.427-1.005-.675-.838-.492-1.87-.988-2.59-1.317-.94-.43-1.907-.835-2.726-1.142-.685-.256-1.16-.405-1.513-.49-.267-.146-.573-.227-.897-.227-.3 0-1.052.083-1.593.867-.083.12-.162.255-.248.427l-.07.144c-.467-.155-1.144-.412-2.06-.827-1.296-.587-2.21-1.1-2.548-1.324-.334-.41-.844-.672-1.417-.672-1.006 0-1.82.81-1.82 1.807 0 .27 0 .83.84 2.723.19.427.388.838.557 1.158.1.19.186.34.264.463.06.092.12.175.183.25.208.336.502.674.854 1.08l.21.242c-.085.28-.16.527-.223.747-.202-.063-.416-.096-.635-.096-.457 0-.918.14-1.396.42-.187-.08-.39-.158-.61-.228-.8-.256-1.698-.4-2.42-.515l-.304-.05c-.37-.555-.99-1.55-1.38-2.215.504-1.06 1.485-3.042 2.022-4.126l.54-1.093c.07-.14.124-.254.162-.332.1-.206.236-.487.236-.903 0-.79-.48-1.325-.99-1.89-.33-.37-.766-.826-1.187-1.268-.45-.474-1.11-1.17-1.348-1.457-.3-.587-.915-.99-1.624-.99-.685 0-1.28.377-1.592.93-.09.143-.417.644-.81 1.186-.136.19-.257.352-.363.49-.284-.066-.626-.12-1.062-.17-.82-.095-1.806-.15-2.675-.202-.45-.026-.99-.057-1.257-.083-.175-.055-.363-.086-.558-.086-.123 0-.242.012-.358.035-.6-.24-1.795-.834-3.353-1.77-1.758-1.06-2.916-1.913-3.296-2.272C9.66.46 9.034.04 8.31.04m28.62 30.24v.042c0 .013-.003.026-.003.04 0-.055 0-.08.002-.08M4.245 21.61l-.01.1c-.002 0-.002-.004-.002-.016 0-.035.004-.063.012-.083m31.446-2.325c-.008.044-.013.078-.013.1 0-.046.004-.08.012-.1M8.31 1.848c0 .803 7.173 5.168 8.457 5.168.126 0 .195-.043.195-.134 0 .185 5.615.19 5.615.743 0 .2.056.286.15.286.57 0 2.554-3.066 2.554-3.092 0 .296 3.328 3.494 3.328 3.797 0 .038-3.16 6.344-3.16 6.52 0 .186 2.184 3.726 2.322 3.726.004 0 .006-.002.006-.01 0 .29 4.41.39 4.41 1.65 0-.154.922-1.036 1.393-1.036.16 0 .27.104.27.376 0-.008.002-.012.006-.012.136 0 2.156 3.357 2.156 3.644 0 .29.053.403.133.403.235 0 .7-1 .7-1.476 0-.23-.984-3.127-1.144-3.127-.005 0-.01.005-.014.015.073-.43.742-2.553.742-2.584 0-.342-1.58-1.838-1.58-2.146 0 .02-.005.03-.014.03-.147 0-1.484-2.846-1.484-3.497 0 .4 5.315 3.03 6.783 3.03.235 0 .37-.068.37-.222 0 .028.006.04.014.04.088 0 .605-1.462.77-1.462.03 0 .05.054.05.183 0-.037.038-.053.11-.053.952 0 7.71 2.938 7.71 3.684 0 .284-.285 2.282-.384 2.282-.02 0-.033-.09-.033-.3v-.003c-.013 0-.29 1.68-.33 1.68 0 0-.003-.01-.003-.027 0 .4-3.327 1.405-3.327 1.486 0-.008-.002-.01-.005-.012-.09 0-1.374 2.533-1.555 2.533-.014 0-.02-.014-.02-.045 0-.052-.005-.077-.012-.077-.09 0-.71 3.8-.808 3.8-.008 0-.013-.03-.013-.092 0-.004-.002-.006-.005-.006-.154 0-3.687 4.156-3.97 4.156-.012 0-.018-.007-.018-.023 0 .3-1.644 1.61-1.663 1.61 0 .107 0 .154-.002.154-.013 0-.067-2.83-.08-3.105.05-.226.914-.102.914-.722 0-.262-2.106-.683-3.008-.683-.246 0-.402.03-.402.105 0 .115-.024.165-.065.165-.257 0-1.21-1.977-1.4-1.977-.02 0-.033.024-.033.08 0 .02-.04.03-.114.03-.538 0-2.797-.525-2.797-.61 0-.07-.006-.1-.014-.1-.064 0-.32 1.567-.32 1.587 0-.368-11.564-.417-11.564-.826 0-.235-2.29-1.124-4.854-1.124-.348 0-.7.016-1.052.052-2.737-.274-5.475-1.088-5.86-1.088-.03 0-.046.005-.046.015 0-.497-1.78-3.613-2.047-3.613-.012 0-.022.007-.027.02.03-.366.16-2.583.16-3.34 0-.033-1.423-5.08-1.568-5.08-.008 0-.012.014-.012.045 0 .04-.006.06-.017.06-.13 0-.982-2.725-.982-3.444.006.012.015.018.027.018.47 0 6.463-7.704 6.463-8.023" fill="#4B5170" mask="url(#b)"/></g><path d="M14.695 14.445c0 .304-2.745-4.523-2.745-4.457 0 .367 1.914-2.522 1.914-1.403 0-.07 1.08 1.913 2.162 2.104 1.082 1.118 2.163 1.884 2.163 2.104 0-.194 2.204 1.508 2.204 2.064 0 .83-2.87.183-2.87.495 0 .178-2.83-1.014-2.83-.908" fill="#FFCD20"/><path d="M13.726 6.52c-1.093 0-1.787.814-2.59 1.758-.047.055-.1.118-.152.177-.513.32-.855.887-.855 1.533 0 .352.097.693.284.987.033.052.068.102.106.15.116.194.322.547.51.868.396.675.89 1.516 1.306 2.206.237.39.422.687.564.903.097.148.175.26.244.352.432.57.94.757 1.34.8.192.068.482.175.71.26 1.418.53 1.828.663 2.29.663.218 0 .43-.035.63-.105l.248.012c.256.012.547.026.844.026.555 0 .986-.05 1.356-.16.39-.118.724-.306.99-.56.428-.404.663-.948.663-1.532 0-.83-.473-1.582-1.632-2.594-.29-.254-.603-.503-.88-.7-.103-.074-.208-.148-.32-.216-.045-.05-.086-.09-.12-.123-.17-.17-.384-.36-.63-.578-.375-.33-.84-.742-1.292-1.208-.238-.248-.542-.423-.875-.505-.102-.07-.385-.31-.886-1.06-.043-.13-.097-.254-.163-.37-.343-.61-.99-.986-1.69-.986M11.95 9.986c.005 0 .02.022.047.064l-.008.002c-.026 0-.04-.02-.04-.063v-.003m1.776-1.66c.087 0 .138.074.138.258v-.002c.037 0 1.1 1.918 2.162 2.106 1.082 1.118 2.163 1.884 2.163 2.104 0-.01.005-.015.017-.015.212 0 2.187 1.55 2.187 2.078 0 .367-.562.446-1.188.446-.465 0-.967-.043-1.3-.043-.232 0-.382.022-.382.093 0 .012-.014.018-.04.018-.326 0-2.57-.932-2.774-.932-.01 0-.015.002-.015.007 0 .01-.002.014-.007.014-.15 0-2.45-4.033-2.713-4.44.182-.025 1.348-1.694 1.75-1.694" fill="#4B5170"/><path d="M32.93 16.464c0 .06-2.83-1.307-2.83-1.403 0 .25 1.415-3.29 1.415-2.888 0 .03 6.988 3.867 7.237 2.89.25-.574 3.328 2.316 3.328 1.814v2.23c0 .072-2.33-1.508-2.33-.744 0-.573 1.33 1.363 1.33 1.733 0 .826 1.748 2.087 1.748 1.65 0 .657-3.244.814-3.244 0 0 .886-1.996-3.896-1.996-4.126 0 .69-4.66-2.465-4.66-1.156" fill="#FFCD20"/><path d="M31.503 10.332c-.612 0-1.17.296-1.535.812-.06.084-.115.177-.177.29-.068.126-.146.284-.246.498-.16.344-.35.775-.532 1.19-.13.297-.297.68-.396.89-.212.296-.337.658-.337 1.05 0 .527.226 1.003.588 1.336.2.19.51.392 1.86 1.052.35.173.695.336.967.46.475.22.79.363 1.23.363.276 0 .54-.06.774-.17.42.168.974.43 1.324.596.494.232.885.415 1.222.55.163.403.356.86.544 1.288.186.423.46 1.027.708 1.51.134.258.25.462.356.623.095.146.19.267.29.373.115.123.234.222.354.3l.01.01c.263.23.59.408.97.532.564.183 1.18.22 1.6.22.605 0 1.21-.076 1.698-.216.37-.108.68-.248.943-.43.586-.41.925-1.028.93-1.7V21.738c0-.13-.015-.257-.042-.38v-.003l-.002-.002v-.003-.002-.002l-.002-.003c-.126-.55-.505-1.004-1.01-1.236.194-.287.307-.632.307-1.002v-2.25c0-.893-.65-1.635-1.508-1.78-.176-.126-.388-.282-.55-.403-1.293-.954-2.067-1.494-2.956-1.494-.264 0-.52.05-.754.146-.42-.13-1.267-.45-2.835-1.214-1.175-.573-2.234-1.144-2.644-1.37-.32-.258-.724-.408-1.15-.408m11.325 11.414v.002-.002M30.1 15.06c0 .006.005.014.015.024h-.005c-.006 0-.01-.007-.01-.023m1.403-2.92c.008 0 .012.01.012.032 0 .026 5.497 3.048 6.914 3.048.18 0 .294-.05.322-.16.023-.05.07-.075.134-.075.592 0 2.758 1.95 3.137 1.95.037 0 .057-.018.057-.06v-.02 2.25c0 .002-.002.002-.004.002-.08 0-1.52-.954-2.093-.954-.143 0-.232.06-.233.208v.002c0-.073.022-.105.06-.105.258 0 1.27 1.515 1.27 1.838 0 .71 1.29 1.74 1.654 1.74.06 0 .094-.027.094-.088 0 .345-.9.552-1.75.552-.767 0-1.494-.17-1.494-.554 0 .075-.014.11-.04.11-.283 0-1.956-4.027-1.956-4.237 0 .07-.048.1-.133.1-.61 0-3.172-1.578-4.147-1.578-.236 0-.38.092-.38.322 0 0 0 .002-.003.002-.112 0-2.662-1.232-2.817-1.394.104-.05 1.264-2.932 1.395-2.932" fill="#4B5170"/><path d="M25.523 10.337c.166.116 1.33-1.2 1.33-.908 0 .268.583 2.363.583 2.723 0-.337-.956.796-.956.742 0 .204-.957-1.272-.957-2.558" fill="#FFCD20"/><path d="M26.82 7.58c-.783 0-1.28.443-1.808.912l-.21.185c-.04.017-.08.035-.118.056-.604.31-.983.93-.983 1.604 0 .966.324 1.882.594 2.48.137.302.29.588.44.827.17.267.685 1.078 1.735 1.078.508 0 .97-.21 1.302-.545l.06-.058c.048-.048.098-.1.157-.162.03-.03.073-.077.12-.126.673-.266 1.148-.918 1.148-1.68 0-.373-.097-.806-.373-1.947-.075-.308-.185-.762-.216-.93-.032-.368-.17-.72-.402-1.007-.353-.438-.88-.688-1.447-.688zm0 1.807c.022 0 .034.013.034.042 0 .268.582 2.363.582 2.723 0-.044-.016-.063-.044-.063-.183 0-.874.807-.91.807-.002 0-.002 0-.002-.002 0 .013-.004.02-.01.02-.107 0-.947-1.373-.947-2.578.007.005.016.007.026.007.21 0 1.09-.957 1.27-.957z" fill="#4B5170"/><path d="M19.854 1.873c0-.21 2.08 1.923 2.08 1.98 0 .1-1.04.232-1.04.662 0-.33-2.06-1.063-2.06-1.156 0-.078 1.02-.873 1.02-1.487" fill="#FFCD20"/><g transform="translate(16.965 .037)"><mask id="d" fill="#fff"><use xlink:href="#c"/></mask><path d="M5.75 4.482zM2.902.015c-.89 0-1.633.63-1.8 1.466-.1.125-.273.298-.348.373-.264.262-.706.7-.706 1.47 0 .644.345 1.236.922 1.583.077.046.163.092.27.143.13.06.282.128.46.206.195.087.6.265.84.39.333.39.832.64 1.39.64.56 0 1.064-.254 1.398-.652.086-.028.174-.058.267-.096.88-.364 1.195-1.127 1.195-1.72 0-.695-.377-1.118-.538-1.3-.065-.072-.15-.164-.255-.274-.203-.215-.46-.477-.706-.722-.204-.204-.504-.497-.763-.732C4.165.463 3.67.015 2.902.015zm0 1.807c.177 0 2.066 1.94 2.066 1.995 0 .1-1.04.23-1.04.66 0-.33-2.058-1.062-2.058-1.155 0-.077 1.02-.872 1.02-1.486 0-.01.003-.014.012-.014z" fill="#4B5170" mask="url(#d)"/></g><path d="M1.954 25.225c.167.442 6.49-7.678 6.49-8.006 0 .883 8.65 6.06 8.65 5.034 0 .185 5.616.19 5.616.743 0 1.397 2.704-2.776 2.704-2.806 0 .296 3.327 3.494 3.327 3.797 0 .038-3.16 6.345-3.16 6.52 0 .095-5.44.98-10.988.415-5.76-.586-12.188-3.68-11.64-2.312.195.485-.998-2.606-.998-3.385" fill="#FFCD20"/><path d="M8.443 15.412c-.75 0-1.393.45-1.673 1.09-.255.4-1.282 1.794-2.75 3.65-1.546 1.957-2.508 3.064-2.9 3.466-.593.303-.987.916-.987 1.607 0 .557.18 1.426 1.055 3.847.02.07.045.138.072.206.01.027.02.047.025.06.286.687.95 1.13 1.69 1.13.34 0 .667-.094.95-.265.568.145 1.365.383 2.05.59 2.287.683 5.418 1.62 8.43 1.927 1.282.13 2.652.197 4.072.197 2.19 0 4.056-.155 5.235-.285.77-.085 1.303-.165 1.617-.218.206-.035.38-.068.514-.098.103-.024.187-.046.266-.072.105-.034.2-.073.293-.12.447-.228.772-.617.916-1.075.242-.567 1.628-3.367 2.305-4.736l.54-1.093c.07-.14.124-.252.162-.33.1-.205.236-.487.236-.903 0-.79-.48-1.324-.99-1.89-.33-.368-.766-.826-1.187-1.268-.45-.475-1.11-1.17-1.348-1.458-.3-.587-.915-.99-1.624-.99-.686 0-1.283.377-1.593.932-.088.14-.416.642-.808 1.185-.137.188-.258.35-.364.488-.284-.065-.627-.12-1.062-.17-.82-.094-1.806-.15-2.675-.2-.448-.027-.99-.06-1.256-.084-.176-.057-.364-.087-.56-.087-.122 0-.24.012-.357.035-.6-.24-1.795-.834-3.353-1.77-1.76-1.06-2.917-1.912-3.297-2.27-.293-.61-.92-1.03-1.644-1.03zM2.927 28.528c.06.085.093.133.09.133l-.04-.05c-.023-.03-.04-.057-.05-.082zm5.516-11.31c0 .805 7.173 5.17 8.456 5.17.126 0 .195-.042.195-.134 0 .185 5.615.19 5.615.743 0 .2.056.286.15.286.57 0 2.554-3.066 2.554-3.092 0 .296 3.327 3.494 3.327 3.797 0 .038-3.16 6.345-3.16 6.52 0 .073-3.152.602-7.103.602-1.24 0-2.56-.053-3.885-.188-4.735-.482-9.92-2.658-11.312-2.658-.266 0-.393.08-.353.264-.2-.553-.973-2.676-.973-3.303.005.012.013.018.026.018.47 0 6.463-7.705 6.463-8.024z" fill="#4B5170"/></g></svg>