<svg width="49" height="53" viewBox="0 0 49 53" xmlns="http://www.w3.org/2000/svg" xmlns:xlink="http://www.w3.org/1999/xlink"><title>Page 1</title><defs><path id="a" d="M24.865 24.824V.038H.017v24.786z"/><path id="c" d="M0 .006v8.077h17.04V.006H0z"/><path id="e" d="M.01 7.54h19.218V.017H.01V7.54z"/></defs><g fill="none" fill-rule="evenodd"><path d="M46.526 20.943c-2.494 5.885-9.297 8.638-15.197 6.15-5.9-2.486-8.66-9.273-6.167-15.157 2.494-5.885 9.298-8.64 15.197-6.15 5.9 2.486 8.66 9.273 6.166 15.157" fill="#FFCD20"/><g transform="translate(23.403 4.008)"><mask id="b" fill="#fff"><use xlink:href="#a"/></mask><path d="M12.442 1.676c-1.37 0-2.743.265-4.052.795C5.723 3.55 3.637 5.6 2.516 8.247c-1.12 2.644-1.142 5.566-.06 8.226 1.082 2.66 3.14 4.742 5.79 5.86 2.65 1.118 5.58 1.14 8.247.06 2.667-1.08 4.753-3.13 5.874-5.776 1.12-2.644 1.142-5.566.06-8.226-1.083-2.66-3.14-4.742-5.79-5.86-1.35-.57-2.772-.854-4.195-.854m-.002 23.148c-1.64 0-3.278-.328-4.833-.984-3.055-1.29-5.425-3.686-6.672-6.752-1.247-3.066-1.222-6.432.07-9.48C2.294 4.56 4.698 2.198 7.772.954c3.073-1.244 6.448-1.22 9.503.068 3.055 1.29 5.425 3.686 6.672 6.752 1.247 3.066 1.222 6.432-.07 9.48-1.29 3.047-3.694 5.41-6.768 6.654-1.508.61-3.09.916-4.67.916" fill="#57585A" mask="url(#b)"/></g><path d="M35.88 24.582c-.284 0-.57-.024-.854-.074-1.392-.244-2.614-1.074-3.353-2.276-.238-.385-.117-.89.27-1.126.386-.236.892-.115 1.13.27.492.802 1.308 1.356 2.237 1.52.93.163 1.886-.08 2.624-.666.355-.282.87-.223 1.154.13.282.355.223.87-.132 1.15-.88.7-1.967 1.072-3.076 1.072M38.388 16.92c-.468 0-.852-.383-.852-.85 0-.468.384-.85.852-.85.47 0 .852.382.852.85 0 .467-.383.85-.852.85M34.485 16.44c-.47 0-.852-.383-.852-.85 0-.468.383-.85.852-.85.47 0 .852.382.852.85 0 .467-.383.85-.852.85" fill="#57585A"/><path d="M31.82 10.3c-.453 0-.82-.364-.82-.813C31 8.117 32.124 7 33.506 7c.452 0 .82.364.82.813 0 .45-.368.813-.82.813-.48 0-.868.386-.868.86 0 .45-.366.814-.82.814" fill-opacity=".6" fill="#FEFEFE"/><path d="M22.726 1.144s-4.296 1.29-6.507 4.78c-2.21 3.488-2.877 7.004-1.493 7.852 1.385.85 4.298-1.29 6.507-4.78 2.208-3.488 1.492-7.852 1.492-7.852" fill="#86AC5A"/><path d="M21.927 2.406c-1.328.59-3.59 1.847-4.944 3.986-1.01 1.595-1.71 3.233-1.972 4.61-.222 1.172-.056 1.87.193 2.023.25.152.96-.01 1.93-.722 1.142-.838 2.327-2.18 3.337-3.774 1.353-2.14 1.503-4.69 1.457-6.124M15.42 14.848c-.4 0-.797-.092-1.17-.32-1.356-.832-1.214-2.77-1.01-3.85.303-1.59 1.09-3.445 2.215-5.223 2.362-3.728 6.82-5.102 7.01-5.158L23.45 0l.165 1.003c.03.19.742 4.734-1.617 8.462-1.126 1.78-2.47 3.29-3.788 4.258-.65.478-1.728 1.125-2.79 1.125" fill="#57585A"/><path d="M29.278 51.027h-5.8s1.673-13.436.922-17.84c-.947-5.555-8.562-20.896-8.562-20.896h1.88S26.954 27.4 28.41 33.036c1.186 4.58.868 17.992.868 17.992" fill="#FFCD20"/><path d="M24.49 50.14h3.904c.045-3.023.115-13.136-.855-16.886-1.2-4.634-7.964-16.124-10.008-19.537 2.053 4.26 6.984 14.8 7.756 19.324.65 3.82-.424 13.876-.798 17.1m4.788 1.773h-5.8c-.257 0-.503-.11-.674-.3-.17-.19-.25-.442-.22-.694.018-.134 1.65-13.36.928-17.586-.915-5.366-8.407-20.502-8.483-20.654-.137-.274-.12-.6.044-.858.165-.26.453-.416.764-.416h1.88c.316 0 .61.163.77.43.38.62 9.323 15.285 10.796 20.98 1.2 4.645.907 17.68.894 18.232-.01.48-.41.865-.9.865" fill="#57585A"/><path d="M1.338 14.118s2.68-3.552 6.757-4.43c4.08-.876 7.672-.315 8.02 1.254.348 1.568-2.68 3.55-6.76 4.426-4.078.877-8.017-1.25-8.017-1.25" fill="#86AC5A"/><g transform="translate(0 8.383)"><mask id="d" fill="#fff"><use xlink:href="#c"/></mask><path d="M2.814 5.417c1.357.523 3.85 1.24 6.35.703 1.866-.402 3.548-1.05 4.733-1.826 1.01-.66 1.4-1.265 1.34-1.547-.064-.28-.676-.67-1.873-.857-1.407-.22-3.21-.12-5.077.28-2.5.54-4.46 2.214-5.473 3.247M7.29 8.083c-3.426 0-6.243-1.495-6.385-1.572L0 6.023l.615-.815C.733 5.05 3.545 1.377 7.903.44c2.08-.446 4.12-.553 5.743-.3 2.572.402 3.202 1.57 3.348 2.23.147.66.07 1.98-2.1 3.398-1.367.896-3.266 1.635-5.347 2.082-.766.165-1.526.233-2.257.233" fill="#57585A" mask="url(#d)"/></g><path d="M6.613 23.336s.654-4.374 3.828-7.047c3.176-2.673 6.608-3.848 7.668-2.63 1.06 1.222-.653 4.377-3.828 7.048-3.175 2.67-7.667 2.628-7.667 2.628" fill="#86AC5A"/><path d="M16.802 14.065c-.353 0-.838.082-1.438.287-1.345.46-2.886 1.388-4.338 2.61-1.955 1.646-2.875 4.03-3.267 5.408 1.445-.17 3.988-.697 5.935-2.336 1.452-1.22 2.622-2.575 3.293-3.81.57-1.053.626-1.768.435-1.988-.09-.104-.302-.17-.62-.17M6.632 24.22h-.028l-1.032-.01.15-1.003c.03-.192.74-4.735 4.133-7.59 1.62-1.363 3.364-2.406 4.916-2.938 1.055-.362 2.98-.79 4.02.405 1.04 1.197.31 3.003-.216 3.973-.775 1.426-2.093 2.96-3.71 4.323-3.294 2.77-7.79 2.84-8.233 2.84" fill="#57585A"/><path d="M31.657 7.6s-3.94-2.128-8.018-1.25c-4.08.875-7.108 2.86-6.76 4.427.348 1.57 3.94 2.127 8.02 1.25 4.078-.876 6.757-4.426 6.757-4.426" fill="#86AC5A"/><path d="M25.688 7.024c-.607 0-1.23.055-1.857.19-1.865.4-3.546 1.05-4.732 1.827-1.01.662-1.4 1.266-1.34 1.548.064.282.676.67 1.873.857 1.407.22 3.21.118 5.078-.283 2.5-.537 4.46-2.21 5.473-3.244-1.017-.392-2.673-.894-4.492-.894m-4.472 6.304c-.663 0-1.29-.044-1.867-.134-2.573-.4-3.203-1.568-3.35-2.228-.146-.66-.068-1.98 2.1-3.4 1.368-.896 3.267-1.636 5.347-2.083 4.358-.936 8.47 1.25 8.643 1.342l.905.49-.615.815c-.118.155-2.93 3.826-7.288 4.763-1.343.288-2.668.435-3.876.435" fill="#57585A"/><path d="M31.445 17.772s-2.447-3.708-6.465-4.835c-4.017-1.126-7.635-.786-8.082.757-.446 1.544 2.447 3.71 6.465 4.835 4.017 1.124 8.082-.758 8.082-.758" fill="#86AC5A"/><path d="M20.558 13.158c-.303 0-.595.012-.873.038-1.205.113-1.84.463-1.92.74-.08.278.272.906 1.236 1.627 1.135.848 2.772 1.6 4.61 2.114 2.474.693 5 .13 6.383-.31-.943-1.093-2.795-2.887-5.26-3.578-1.477-.415-2.926-.632-4.175-.632m5.543 6.616c-.955 0-1.968-.11-2.984-.394-2.048-.573-3.896-1.428-5.204-2.406-2.073-1.55-2.067-2.873-1.88-3.523.19-.65.89-1.774 3.483-2.017 1.635-.153 3.664.078 5.71.652 4.295 1.205 6.867 5.042 6.975 5.204l.562.85-.934.433c-.136.063-2.64 1.2-5.727 1.2" fill="#57585A"/><path d="M32.37 51.346c-.118-.95-.94-1.385-1.938-1.385-.15 0-.298.02-.44.052-.544-1.302-1.844-2.22-3.363-2.22-.74 0-1.425.218-1.998.59-.472-.368-1.068-.59-1.717-.59l-.037.002c-.154-1.222-1.213-2.17-2.497-2.17-1.39 0-2.516 1.11-2.516 2.48 0 .05.002.103.005.155-.164-.035-.333-.054-.507-.054-1.332 0-2.412 1.063-2.412 2.374 0 .28.052.545.14.793 5.76.034 11.52-.086 17.28-.027" fill="#86AC5A"/><g transform="translate(14.04 44.724)"><mask id="f" fill="#fff"><use xlink:href="#e"/></mask><path d="M1.813 5.768c2.405.008 4.838-.008 7.198-.023 2.02-.013 4.088-.027 6.155-.025-.017-.03-.033-.062-.047-.095-.423-1.014-1.417-1.67-2.53-1.67-.536 0-1.056.153-1.502.443-.325.21-.75.192-1.055-.046-.33-.258-.726-.395-1.148-.397h-.03c-.46.007-.85-.326-.908-.775-.1-.794-.79-1.392-1.604-1.392-.892 0-1.617.714-1.617 1.59 0 .03 0 .062.004.102.017.276-.097.545-.31.726-.214.18-.5.253-.777.196-.105-.022-.212-.034-.318-.034-.803 0-1.463.62-1.51 1.4M3.225 7.54c-.728 0-1.455 0-2.18-.004-.378-.003-.715-.238-.842-.59-.127-.354-.192-.72-.192-1.09 0-1.694 1.32-3.09 3.003-3.245C3.367 1.126 4.723.017 6.34.017c1.467 0 2.743.92 3.218 2.232.373.07.734.197 1.067.375.61-.288 1.278-.44 1.963-.44 1.617 0 3.08.834 3.89 2.17 1.512.03 2.585.873 2.743 2.163.032.254-.05.508-.222.698-.17.187-.415.294-.67.294h-.01c-3.096-.03-6.248-.01-9.295.01-1.903.01-3.852.023-5.8.023" fill="#57585A" mask="url(#f)"/></g></g></svg>