<svg width="142" height="140" viewBox="0 0 142 140" xmlns="http://www.w3.org/2000/svg"><title>Page 1</title><g fill="none" fill-rule="evenodd"><path d="M120.214 24.64v89.155c0 2.977-2.447 5.41-5.437 5.41H26.752c-2.99 0-5.432-2.433-5.432-5.41V99.67L.526 83.347v51.18c0 2.974 2.418 5.41 5.408 5.41H135.6c2.988 0 5.43-2.436 5.43-5.41V5.41c0-2.976-2.347-5.4-5.335-5.4l-15.48 24.63z" fill="#131D49"/><path fill="#F06027" d="M135.668.008l-41.72 20.518L46.682 84.37 21.2 65.77.526 76.756v6.604l45.615 35.844H60.79L135.72.008"/><path fill="#F8961D" d="M93.863 20.536l-47.266 63.84L21.114 65.78.5 76.756l50.73 37.02L135.654 0"/></g></svg>