<svg width="63" height="43" viewBox="0 0 63 43" xmlns="http://www.w3.org/2000/svg"><title>Page 1</title><g fill="none" fill-rule="evenodd"><path d="M9.45 10.38V7.447c0-1.215.99-2.21 2.204-2.21h44.724c1.212 0 2.205.995 2.205 2.21v19.42c0 1.215-.993 2.21-2.205 2.21H52.91" fill="#86AC5A"/><path d="M56.378 30.043H52.91V28.11h3.468c.684 0 1.24-.557 1.24-1.243V7.447c0-.684-.556-1.24-1.24-1.24H11.654c-.684 0-1.24.556-1.24 1.24v2.932h-1.93V7.447c0-1.75 1.422-3.176 3.17-3.176h44.724c1.747 0 3.17 1.425 3.17 3.176v19.42c0 1.75-1.423 3.175-3.17 3.175" fill="#57585A"/><path d="M52.91 32.007c0 1.215-.992 2.21-2.205 2.21H5.98c-1.21 0-2.204-.995-2.204-2.21v-19.42c0-1.214.993-2.208 2.205-2.208h44.725c1.213 0 2.205.993 2.205 2.208v19.42z" fill="#86AC5A"/><path d="M5.98 11.346c-.683 0-1.24.557-1.24 1.242v19.42c0 .685.557 1.242 1.24 1.242h44.725c.684 0 1.24-.557 1.24-1.243v-19.42c0-.684-.556-1.24-1.24-1.24H5.98zm44.725 23.837H5.98c-1.746 0-3.168-1.424-3.168-3.176v-19.42c0-1.75 1.422-3.175 3.17-3.175h44.723c1.748 0 3.17 1.425 3.17 3.176v19.42c0 1.75-1.422 3.175-3.17 3.175z" fill="#57585A"/><path d="M35.275 22.298c0 3.836-3.104 6.947-6.932 6.947-3.828 0-6.93-3.11-6.93-6.947s3.102-6.947 6.93-6.947 6.932 3.11 6.932 6.948" fill="#F5F3F1"/><path d="M28.343 16.318c-3.29 0-5.967 2.682-5.967 5.98 0 3.297 2.677 5.98 5.967 5.98 3.29 0 5.967-2.683 5.967-5.98 0-3.298-2.677-5.98-5.967-5.98m0 13.893c-4.354 0-7.896-3.55-7.896-7.912 0-4.364 3.542-7.914 7.896-7.914s7.896 3.55 7.896 7.914c0 4.363-3.543 7.913-7.897 7.913" fill="#57585A"/><path d="M61.418 3.85L37.895 22.274l-8.735-4.99L3.528 41.052c-.683.543-1.683.426-2.223-.258-.54-.685-.423-1.687.26-2.228l27.044-25.156 9.104 5.193 21.74-17.237c.683-.542 1.683-.425 2.223.26.54.683.423 1.686-.26 2.227" fill="#FFCD20"/><path d="M28.747 14.6L2.192 39.297l-.03.024c-.262.208-.308.607-.1.87.1.128.248.21.413.23.155.017.307-.022.432-.112l26.117-24.215 8.787 5.018L60.82 3.09c.262-.208.308-.605.1-.868-.1-.128-.248-.21-.413-.23-.165-.018-.326.027-.454.13l-22.25 17.64-9.056-5.163zM2.553 42.36c-.1 0-.2-.007-.302-.02-.676-.078-1.28-.415-1.7-.95-.864-1.09-.69-2.68.383-3.558L28.47 12.218l9.156 5.22L58.856.605c.532-.422 1.198-.61 1.875-.532.678.08 1.282.416 1.703.95.872 1.103.685 2.712-.417 3.585l-.004.004L37.98 23.434l-8.683-4.958-25.14 23.31-.03.023c-.453.358-1.003.55-1.574.55z" fill="#57585A"/></g></svg>