<svg width="199" height="242" viewBox="0 0 199 242" xmlns="http://www.w3.org/2000/svg"><title>Page 1</title><g fill="none" fill-rule="evenodd"><path d="M198.757 100.953c-.002 2.82-.082 5.652-.25 8.482-1.28 36.334-25.088 70.218-58.434 84.34-2.016.853-4.066 1.64-6.147 2.363-2.082.723-4.193 1.38-6.333 1.967-8.562 2.35-17.578 3.606-26.888 3.606-15.96 0-31.056-3.688-44.48-10.26-3.355-1.645-6.607-3.47-9.74-5.46-7.357-5.087-14.15-11.06-20.146-17.733-2-2.224-3.91-4.526-5.725-6.9-4.39-5.95-8.127-12.388-11.16-19.148-3.033-6.425-5.363-14.347-6.942-21.082-.79-4.114-1.393-7.387-1.8-10.954-.35-3.077-.578-4.76-.685-7.94C-.124 95.143.34 90.4 1.35 84.928c1.01-4.816 2.566-11.67 4.594-16.69 2.028-5.28 4.532-10.176 7.436-15.23 2.906-4.868 6.214-10.138 9.853-14.914 2.08-1.905 4.268-4.603 6.556-7.514 5.12-5.592 10.838-10.38 16.987-13.81 6.15-3.892 12.73-6.956 19.58-10.01 3.426-.422 6.917-2.493 10.455-3.424 5.633-1.108 11.353-1.51 17.09-2.94 5.738-.707 11.492-.378 17.19.298 11.398 1.224 22.574 4.442 32.954 9.326 10.38 4.883 19.964 11.432 28.176 19.317 2.29 2.19 4.465 4.388 6.512 6.786 5.953 7.79 10.323 16.617 13.546 25.904 1.074 3.097 2.015 6.243 2.818 9.416 1.622 6.053 2.128 12.628 2.96 19.205.364 3.915.624 7.887.7 10.305" fill="#F6F3F1"/><path d="M133.964 80.672s17.173 1.942 19.827 15.24c2.654 13.298-3.714 32.37 0 37.14 3.715 4.767 12.206 5.297 12.206 5.297s-2.845 16.423-16.016 13.244c-13.17-3.18-23.448-4.112-24.147-10.003-.698-5.89 8.13-60.918 8.13-60.918" fill="#BAC2E2"/><path d="M133.964 80.672s17.173 1.942 19.827 15.24c2.654 13.298-3.714 32.37 0 37.14 3.715 4.767 12.206 5.297 12.206 5.297s-2.845 16.423-16.016 13.244c-13.17-3.18-23.448-4.112-24.147-10.003-.698-5.89 8.13-60.918 8.13-60.918z" stroke="#4B5170" stroke-width="4" stroke-linejoin="round"/><path d="M145.793 201.625c0-2.03-23.207.71-46.415 0-23.207.96-46.414-.53-46.414 0 0-9.647 5.195-18.494 13.595-25.187 8.398-7.26 20-10.537 32.818-10.432 12.818 1.777 24.42 3.506 32.82 10.432 8.4 7.092 13.595 16.156 13.595 25.187" fill="#86AC5B"/><path d="M145.793 201.625c0-2.03-23.207.71-46.415 0-23.207.96-46.414-.53-46.414 0 0-9.647 5.195-18.494 13.595-25.187 8.398-7.26 20-10.537 32.818-10.432 12.818 1.777 24.42 3.506 32.82 10.432 8.4 7.092 13.595 16.156 13.595 25.187z" stroke="#4B5170" stroke-width="4" stroke-linejoin="round"/><path d="M135.975 95.694V66.178l-74.29.47v29.046c-4.755 0-8.61 4.98-8.61 11.126 0 6.145 3.855 11.126 8.61 11.126v3.272c0 10.26 4.157 20.554 10.88 28.61 5.498 6.436 9.527 8.92 17.586 10.717h.122v10.326c0 4.7 3.85 8.544 8.557 8.544 0 0 8.556-3.844 8.556-8.543v-10.067c6.82-1.53 12.918-5.096 17.71-10.975 6.72-7.603 10.88-17.652 10.88-28.61v-3.272c4.753 0 8.607-4.98 8.607-11.126 0-6.145-3.854-11.126-8.608-11.126" fill="#FFF"/><path d="M135.975 95.694V66.178l-74.29.47v29.046c-4.755 0-8.61 4.98-8.61 11.126 0 6.145 3.855 11.126 8.61 11.126v3.272c0 10.26 4.157 20.554 10.88 28.61 5.498 6.436 9.527 8.92 17.586 10.717h.122v10.326c0 4.7 3.85 8.544 8.557 8.544 0 0 8.556-3.844 8.556-8.543v-10.067c6.82-1.53 12.918-5.096 17.71-10.975 6.72-7.603 10.88-17.652 10.88-28.61v-3.272c4.753 0 8.607-4.98 8.607-11.126 0-6.145-3.854-11.126-8.608-11.126z" stroke="#4B5170" stroke-width="4" stroke-linejoin="round"/><path d="M137.477 95.696s-16.87-23.853-15.608-28.092c1.26-4.238-26.21 20.462-52.47 18.31-7.716-.634-7.33 9.786-7.33 9.786s-7.212-21.228-.84-31.782c15.36-25.44 57.01-26.492 71.957-10.317 10.927 11.826 4.29 42.096 4.29 42.096" fill="#BAC2E2"/><path d="M137.477 95.696s-16.87-23.853-15.608-28.092c1.26-4.238-26.21 20.462-52.47 18.31-7.716-.634-7.33 9.786-7.33 9.786s-7.212-21.228-.84-31.782c15.36-25.44 57.01-26.492 71.957-10.317 10.927 11.826 4.29 42.096 4.29 42.096z" stroke="#4B5170" stroke-width="4" stroke-linejoin="round"/><path d="M83.1 164.948c18.547 13.508 22.613 39.47 9.083 57.986-13.53 18.517-39.534 22.577-58.08 9.07-18.548-13.51-22.615-39.47-9.085-57.987 13.53-18.517 39.533-22.578 58.08-9.07" fill="#FFF"/><path d="M83.1 164.948c18.547 13.508 22.613 39.47 9.083 57.986-13.53 18.517-39.534 22.577-58.08 9.07-18.548-13.51-22.615-39.47-9.085-57.987 13.53-18.517 39.533-22.578 58.08-9.07z" stroke="#4B5170" stroke-width="4" stroke-linecap="round" stroke-linejoin="round"/><path d="M68.97 188.19h10.563c3.043 0 5.26.37 6.652 1.106 1.39.738 2.325 1.845 2.804 3.32.475 1.477.717 3.45.717 5.924s-.22 4.45-.653 5.925c-.435 1.477-1.173 2.518-2.217 3.126-1.566.78-3.783 1.172-6.65 1.172H68.968v10.547c0 3.038-.372 5.252-1.11 6.64-.74 1.39-1.848 2.323-3.325 2.8-1.48.477-3.456.716-5.934.716s-4.456-.24-5.934-.717c-1.48-.477-2.522-1.28-3.13-2.41-.782-1.647-1.174-4.036-1.174-7.16V208.76H37.015c-2.87 0-4.955-.346-6.26-1.042-1.304-.694-2.174-1.8-2.61-3.32-.434-1.518-.65-3.494-.65-5.925 0-2.43.237-4.405.717-5.924.476-1.517 1.325-2.58 2.543-3.19 1.65-.78 4.044-1.17 7.173-1.17h10.434V177.64c0-3.038.347-5.25 1.044-6.64.695-1.39 1.803-2.322 3.326-2.8 1.52-.477 3.5-.716 5.934-.716 2.432 0 4.412.24 5.934.716 1.52.478 2.586 1.28 3.195 2.408.783 1.65 1.174 4.037 1.174 7.163v10.416z" fill="#BAC2E2"/><path d="M68.97 188.19h10.563c3.043 0 5.26.37 6.652 1.106 1.39.738 2.325 1.845 2.804 3.32.475 1.477.717 3.45.717 5.924s-.22 4.45-.653 5.925c-.435 1.477-1.173 2.518-2.217 3.126-1.566.78-3.783 1.172-6.65 1.172H68.968v10.547c0 3.038-.372 5.252-1.11 6.64-.74 1.39-1.848 2.323-3.325 2.8-1.48.477-3.456.716-5.934.716s-4.456-.24-5.934-.717c-1.48-.477-2.522-1.28-3.13-2.41-.782-1.647-1.174-4.036-1.174-7.16V208.76H37.015c-2.87 0-4.955-.346-6.26-1.042-1.304-.694-2.174-1.8-2.61-3.32-.434-1.518-.65-3.494-.65-5.925 0-2.43.237-4.405.717-5.924.476-1.517 1.325-2.58 2.543-3.19 1.65-.78 4.044-1.17 7.173-1.17h10.434V177.64c0-3.038.347-5.25 1.044-6.64.695-1.39 1.803-2.322 3.326-2.8 1.52-.477 3.5-.716 5.934-.716 2.432 0 4.412.24 5.934.716 1.52.478 2.586 1.28 3.195 2.408.783 1.65 1.174 4.037 1.174 7.163v10.416z" stroke="#4B5170" stroke-width="4" stroke-linejoin="round"/></g></svg>