<svg width="70" height="54" viewBox="0 0 70 54" xmlns="http://www.w3.org/2000/svg" xmlns:xlink="http://www.w3.org/1999/xlink"><title>Page 1</title><defs><path id="a" d="M0 53.988h69.916V0H0z"/></defs><g fill="none" fill-rule="evenodd"><path d="M5.428 10.985c-1.567 0-2.843 1.266-2.843 2.823v34.79c0 1.557 1.276 2.823 2.843 2.823h59.06c1.567 0 2.843-1.265 2.843-2.822v-34.79c0-1.557-1.275-2.823-2.843-2.823H5.427zm59.06 43.003H5.427C2.435 53.988 0 51.57 0 48.598v-34.79c0-2.972 2.435-5.39 5.428-5.39h59.06c2.993 0 5.428 2.418 5.428 5.39v34.79c0 2.972-2.435 5.39-5.43 5.39z" fill="#57585A"/><path d="M38.577 15.387H31.34c-.57 0-1.035-.462-1.035-1.027V2.31c0-.565.465-1.027 1.034-1.027h7.237c.57 0 1.034.462 1.034 1.027v12.05c0 .565-.464 1.027-1.033 1.027" fill="#FFCD20"/><mask id="b" fill="#fff"><use xlink:href="#a"/></mask><path d="M31.597 14.103h6.722V2.567h-6.723v11.536zm6.98 2.567H31.34c-1.284 0-2.328-1.036-2.328-2.31V2.31c0-1.274 1.044-2.31 2.327-2.31h7.237c1.283 0 2.326 1.036 2.326 2.31v12.05c0 1.274-1.043 2.31-2.326 2.31z" fill="#57585A" mask="url(#b)"/><path d="M26.99 19.882v22.642c0 .565-.465 1.027-1.034 1.027H7.85c-.57 0-1.035-.46-1.035-1.026V19.882c0-.565.465-1.027 1.034-1.027h18.106c.57 0 1.034.462 1.034 1.027" fill="#BAC1E1" mask="url(#b)"/><path d="M8.108 42.267h17.59V20.14H8.107v22.127zm17.848 2.567H7.85c-1.284 0-2.327-1.036-2.327-2.31V19.882c0-1.274 1.043-2.31 2.326-2.31h18.106c1.283 0 2.326 1.036 2.326 2.31v22.642c0 1.274-1.043 2.31-2.326 2.31zM59.65 24.813H38.314c-1 0-1.81-.804-1.81-1.796s.81-1.797 1.81-1.797H59.65c1 0 1.81.805 1.81 1.797 0 .992-.81 1.796-1.81 1.796M53.8 32.233H38.494c-1 0-1.81-.805-1.81-1.797 0-.992.81-1.796 1.81-1.796H53.8c1 0 1.81.804 1.81 1.796s-.81 1.797-1.81 1.797M57.523 39.652h-19.03c-1 0-1.81-.804-1.81-1.796 0-.993.81-1.797 1.81-1.797h19.03c1 0 1.81.803 1.81 1.796 0 .992-.81 1.796-1.81 1.796" fill="#57585A" mask="url(#b)"/><path d="M21.615 27.218c0 2.584-2.11 4.678-4.71 4.678-2.606 0-4.715-2.094-4.715-4.678s2.11-4.678 4.714-4.678c2.602 0 4.71 2.094 4.71 4.678" fill="#FEFEFE" mask="url(#b)"/><path d="M16.903 23.823c-1.886 0-3.42 1.523-3.42 3.395s1.534 3.395 3.42 3.395 3.42-1.523 3.42-3.395-1.534-3.395-3.42-3.395m0 9.357c-3.31 0-6.006-2.675-6.006-5.962s2.695-5.962 6.006-5.962c3.31 0 6.005 2.675 6.005 5.962s-2.694 5.962-6.005 5.962" fill="#57585A" mask="url(#b)"/><path fill="#FEFEFE" mask="url(#b)" d="M21.58 35.194h-9.355l-.667 1.986-.902 2.687H23.15l-.902-2.684"/><path d="M12.45 38.583h8.906l-.707-2.106h-7.493l-.708 2.106zm10.7 2.567H10.655c-.416 0-.806-.2-1.05-.533-.242-.335-.308-.765-.176-1.156L11 34.79c.175-.524.67-.878 1.225-.878h9.355c.556 0 1.05.354 1.226.878l1.57 4.673c.13.392.065.822-.178 1.157-.243.334-.633.533-1.05.533z" fill="#57585A" mask="url(#b)"/></g></svg>