<svg width="238" height="214" viewBox="0 0 238 214" xmlns="http://www.w3.org/2000/svg"><title>Page 1</title><g fill="none" fill-rule="evenodd"><path d="M224.49 77.66c-.003 2.17-.064 4.35-.194 6.527-.984 27.95-19.282 54.017-44.91 64.882-1.55.655-3.126 1.26-4.725 1.816-1.6.556-3.222 1.06-4.867 1.513-6.58 1.808-13.51 2.774-20.666 2.774-12.266 0-23.87-2.84-34.186-7.896-2.578-1.264-5.077-2.667-7.485-4.2-5.655-3.912-10.875-8.507-15.484-13.64-1.535-1.71-3.004-3.482-4.398-5.308-3.375-4.576-6.247-9.53-8.578-14.73-2.33-4.943-4.122-11.037-5.336-16.218-.607-3.165-1.07-5.683-1.382-8.427-.27-2.367-.446-3.663-.527-6.107-.118-5.457.24-9.106 1.016-13.315.776-3.705 1.97-8.976 3.53-12.84 1.56-4.06 3.482-7.827 5.715-11.715 2.234-3.745 4.776-7.8 7.574-11.474 1.598-1.465 3.28-3.54 5.04-5.78 3.934-4.3 8.328-7.984 13.055-10.623 4.726-2.994 9.784-5.35 15.05-7.7 2.63-.324 5.314-1.918 8.034-2.634 4.328-.852 8.726-1.162 13.135-2.262 4.41-.544 8.83-.29 13.21.23 8.76.94 17.35 3.417 25.33 7.174 7.977 3.757 15.342 8.795 21.655 14.86 1.758 1.686 3.43 3.376 5.004 5.22 4.575 5.994 7.934 12.784 10.41 19.93.826 2.38 1.55 4.8 2.166 7.242 1.247 4.657 1.636 9.714 2.275 14.774.28 3.012.482 6.068.54 7.927" fill="#F6F3F1"/><path d="M195.313 78.52c0 .094-.527-.54-1.406-.736-.878-.573-2.108-1.466-3.513-1.714-.703-.644-1.45-.346-2.22-.957-.767-1.364-1.558-.384-2.348-1.347-.79.334-1.582.154-2.35-.817-.77-.215-1.516-1.122-2.22-1.43-1.404-.898-2.634-.97-3.512-1.67-.88-1.016-1.406.033-1.406-.78 0-.546-.08 1.608-.222 1.46-.142.716-.345 1.975-.588 3.85-.12 1.217-.253 1.717-.392 2.494-.14.646-.286 1.468-.438 2.948-.152 1.11-.308 1.45-.468 2.7-.16 1.008-.322 2.158-.484 3.54-.323 1.993-.647 4.673-.95 6.04-.305 1.913-.588 3.762-.83 5.642-.487 3.27-.81 4.917-.81 5.31 0 .25 1.51-1.384 3.773-3.834 1.132-1.15 2.453-2.33 3.87-3.93.706-.643 1.438-1.297 2.18-2.027.744-.73 1.5-1.533 2.254-2.475 1.007-.86 2.013-2.64 2.992-3.055.978-1.12 1.93-1.56 2.824-2.85.895-.288 1.733-1.667 2.488-2.35.755-1.026 1.426-.91 1.986-2.195 1.118-.044 1.79-1.807 1.79-1.817" fill="#FFCC21"/><path d="M195.313 78.52c0 .094-.527-.54-1.406-.736-.878-.573-2.108-1.466-3.513-1.714-.703-.644-1.45-.346-2.22-.957-.767-1.364-1.558-.384-2.348-1.347-.79.334-1.582.154-2.35-.817-.77-.215-1.516-1.122-2.22-1.43-1.404-.898-2.634-.97-3.512-1.67-.88-1.016-1.406.033-1.406-.78 0-.546-.08 1.608-.222 1.46-.142.716-.345 1.975-.588 3.85-.12 1.217-.253 1.717-.392 2.494-.14.646-.286 1.468-.438 2.948-.152 1.11-.308 1.45-.468 2.7-.16 1.008-.322 2.158-.484 3.54-.323 1.993-.647 4.673-.95 6.04-.305 1.913-.588 3.762-.83 5.642-.487 3.27-.81 4.917-.81 5.31 0 .25 1.51-1.384 3.773-3.834 1.132-1.15 2.453-2.33 3.87-3.93.706-.643 1.438-1.297 2.18-2.027.744-.73 1.5-1.533 2.254-2.475 1.007-.86 2.013-2.64 2.992-3.055.978-1.12 1.93-1.56 2.824-2.85.895-.288 1.733-1.667 2.488-2.35.755-1.026 1.426-.91 1.986-2.195 1.118-.044 1.79-1.807 1.79-1.817z" stroke="#4B5170" stroke-width="4" stroke-linejoin="round"/><path d="M205.523 64.34c0-.366-1.51-.617-3.775-1.88-1.133-.774-2.455.176-3.87-1.928-1.416-1.038-2.927-.973-4.437-2.21-1.51-1.255-3.02-1.273-4.435-2.247-1.416-.18-2.738-1.194-3.87-1.89-2.265-.873-3.776-2.33-3.776-1.882 0-.286.118-.293.118.06 0 .472 1.51.28 3.775 1.88 1.133.82 2.455 1.37 3.87 2.104 1.416 1.032 2.927.623 4.437 2.034 1.51 1.165 3.02 1.193 4.436 2.21 1.416.76 2.738 1.17 3.87 1.93 2.265 1.287 3.776 2.053 3.776 1.88 0-.09.032.424.085 1.465.054.445.13 2.22.214 3.664.087 1.303.183 3.443.28 4.336.048 1.157.096 1.78.143 2.756.047.793.092 1.985.135 2.432.086 1.167.16 3.08.214 3.734.053.978.086 1.64.086 1.395 0-.702-1.546-1.337-4.018-2.002-1.237-.95-2.705-1.428-4.327-2.135-.812-.088-1.662-.213-2.54-.9-.88-.328-1.787-1.382-2.715-1.736-.927-.627-1.873-.315-2.83-1.467-.956-.886-1.922-.87-2.887-1.39-.966.055-1.93-.86-2.887-1.206-.957-.174-1.903-1.25-2.83-1.635-.928-1.178-1.836-1.548-2.715-1.505-.878-.142-1.728-.602-2.54-.988-1.622-.727-3.09-1.426-4.327-2.28-2.47-1.794-4.016-2.75-4.016-2.003 0-.377-3.31-1.302-3.31-1.65 0-.354 1.545.655 4.018 2.003 1.236.528 2.704 1.355 4.327 2.386.81.405 1.66.92 2.54 1.376.878.81 1.785 1.274 2.713 1.01.927.003 1.874.734 2.83 1.147.956.16 1.922 1.097 2.887 1.59.967 1.083 1.932.73 2.888 1.47.957.563 1.903 1.485 2.83 1.49.927.972 1.836.877 2.714 1.507.88-.07 1.73 1.386 2.54 1.35 1.623 1.44 3.09 1.208 4.328 1.916 2.472 1.224 4.018 1.665 4.018 2 0-.154 3.31 1.74 3.31 1.65 0-.563-.8.025-2.158 1.146-.68.11-1.5 1.008-2.428 1.466-.93.65-1.97 1.457-3.088 1.463-1.12.59-2.318 1.707-3.566 1.902-1.25-.014-2.548 1.445-3.867 2.046-1.318.696-2.657 1.966-3.986 2.11-1.33 1.08-2.647 2.147-3.926 2.093-.852.51-1.688.328-2.495 1.306-.81.146-1.59 1.065-2.336 1.26-1.492 1.225-2.842 1.51-3.98 2.115-2.273.837-3.693 2.06-3.693 1.964 0 .223 1.502-.91 3.756-3.843 1.126-1.152 2.44-2.49 3.85-3.937.704-.89 1.432-1.722 2.17-2.48.74-.757 1.492-1.44 2.243-2.035 1.002-.966 2.004-1.62 2.977-2.82.974-1.072 1.92-1.738 2.81-3.1.89-1.43 1.726-2.416 2.477-2.465.75-.447 1.42-1.34 1.975-2.09 1.113-.983 1.78-.678 1.78-1.82 0 .12-.526-.86-1.405-.96-.878.186-2.108-.09-3.513-1.492-1.406-.115-2.987-.214-4.57-2.04-.79.198-1.58-.018-2.348-.977-.77.028-1.516-.818-2.22-1.533-1.404-1.094-2.634-1.875-3.512-1.792-.88-.06-1.406.55-1.406-.66 0-.287-.08.514-.222 1.462-.142 1.13-.345 3.103-.588 3.85-.12.58-.253 2.098-.392 2.654-.14.658-.286 1.843-.438 2.79-.152 1.46-.31 2.19-.468 3.266-.16 1.005-.32 1.96-.483 2.972-.324 2.32-.648 4.933-.952 6.317-.304 1.936-.587 3.714-.83 5.365-.486 3.008-.81 5.386-.81 5.31 0-.313-.252-1.52-.656-4.13-.202-1.145-.44-2.66-.706-4.36-.265-1.702-.555-3.59-.857-5.487-.303-2.215-.618-3.708-.933-5.682-.157-.96-.315-1.878-.47-2.902-.157-1.115-.31-1.885-.462-3.17-.152-.906-.3-1.768-.443-2.962-.144-1.483-.283-1.772-.415-2.437-.265-1.4-.504-3.47-.706-4.447-.404-2.306-.657-3.73-.657-4.13 0 .313 1.835-1.472 4.28-2.848 1.222-.74 2.598-1.705 3.973-2.664 1.376-.86 2.75-2.034 3.974-2.625 1.223-.954 2.292-1.01 3.057-1.713.764-.294 1.222-.985 1.222-1.134 0-.222 1.51 1.54 3.775 1.88 1.132.457 2.454.9 3.87 1.996 1.416.51 2.926 1.36 4.436 2.142 1.51 1.43 3.022 1.525 4.437 2.21 1.416.426 2.738 2.307 3.87 1.928 2.266.712 3.776 2.53 3.776 1.88" fill="#FFCC21"/><path d="M205.523 64.34c0-.366-1.51-.617-3.775-1.88-1.133-.774-2.455.176-3.87-1.928-1.416-1.038-2.927-.973-4.437-2.21-1.51-1.255-3.02-1.273-4.435-2.247-1.416-.18-2.738-1.194-3.87-1.89-2.265-.873-3.776-2.33-3.776-1.882 0-.286.118-.293.118.06 0 .472 1.51.28 3.775 1.88 1.133.82 2.455 1.37 3.87 2.104 1.416 1.032 2.927.623 4.437 2.034 1.51 1.165 3.02 1.193 4.436 2.21 1.416.76 2.738 1.17 3.87 1.93 2.265 1.287 3.776 2.053 3.776 1.88 0-.09.032.424.085 1.465.054.445.13 2.22.214 3.664.087 1.303.183 3.443.28 4.336.048 1.157.096 1.78.143 2.756.047.793.092 1.985.135 2.432.086 1.167.16 3.08.214 3.734.053.978.086 1.64.086 1.395 0-.702-1.546-1.337-4.018-2.002-1.237-.95-2.705-1.428-4.327-2.135-.812-.088-1.662-.213-2.54-.9-.88-.328-1.787-1.382-2.715-1.736-.927-.627-1.873-.315-2.83-1.467-.956-.886-1.922-.87-2.887-1.39-.966.055-1.93-.86-2.887-1.206-.957-.174-1.903-1.25-2.83-1.635-.928-1.178-1.836-1.548-2.715-1.505-.878-.142-1.728-.602-2.54-.988-1.622-.727-3.09-1.426-4.327-2.28-2.47-1.794-4.016-2.75-4.016-2.003 0-.377-3.31-1.302-3.31-1.65 0-.354 1.545.655 4.018 2.003 1.236.528 2.704 1.355 4.327 2.386.81.405 1.66.92 2.54 1.376.878.81 1.785 1.274 2.713 1.01.927.003 1.874.734 2.83 1.147.956.16 1.922 1.097 2.887 1.59.967 1.083 1.932.73 2.888 1.47.957.563 1.903 1.485 2.83 1.49.927.972 1.836.877 2.714 1.507.88-.07 1.73 1.386 2.54 1.35 1.623 1.44 3.09 1.208 4.328 1.916 2.472 1.224 4.018 1.665 4.018 2 0-.154 3.31 1.74 3.31 1.65 0-.563-.8.025-2.158 1.146-.68.11-1.5 1.008-2.428 1.466-.93.65-1.97 1.457-3.088 1.463-1.12.59-2.318 1.707-3.566 1.902-1.25-.014-2.548 1.445-3.867 2.046-1.318.696-2.657 1.966-3.986 2.11-1.33 1.08-2.647 2.147-3.926 2.093-.852.51-1.688.328-2.495 1.306-.81.146-1.59 1.065-2.336 1.26-1.492 1.225-2.842 1.51-3.98 2.115-2.273.837-3.693 2.06-3.693 1.964 0 .223 1.502-.91 3.756-3.843 1.126-1.152 2.44-2.49 3.85-3.937.704-.89 1.432-1.722 2.17-2.48.74-.757 1.492-1.44 2.243-2.035 1.002-.966 2.004-1.62 2.977-2.82.974-1.072 1.92-1.738 2.81-3.1.89-1.43 1.726-2.416 2.477-2.465.75-.447 1.42-1.34 1.975-2.09 1.113-.983 1.78-.678 1.78-1.82 0 .12-.526-.86-1.405-.96-.878.186-2.108-.09-3.513-1.492-1.406-.115-2.987-.214-4.57-2.04-.79.198-1.58-.018-2.348-.977-.77.028-1.516-.818-2.22-1.533-1.404-1.094-2.634-1.875-3.512-1.792-.88-.06-1.406.55-1.406-.66 0-.287-.08.514-.222 1.462-.142 1.13-.345 3.103-.588 3.85-.12.58-.253 2.098-.392 2.654-.14.658-.286 1.843-.438 2.79-.152 1.46-.31 2.19-.468 3.266-.16 1.005-.32 1.96-.483 2.972-.324 2.32-.648 4.933-.952 6.317-.304 1.936-.587 3.714-.83 5.365-.486 3.008-.81 5.386-.81 5.31 0-.313-.252-1.52-.656-4.13-.202-1.145-.44-2.66-.706-4.36-.265-1.702-.555-3.59-.857-5.487-.303-2.215-.618-3.708-.933-5.682-.157-.96-.315-1.878-.47-2.902-.157-1.115-.31-1.885-.462-3.17-.152-.906-.3-1.768-.443-2.962-.144-1.483-.283-1.772-.415-2.437-.265-1.4-.504-3.47-.706-4.447-.404-2.306-.657-3.73-.657-4.13 0 .313 1.835-1.472 4.28-2.848 1.222-.74 2.598-1.705 3.973-2.664 1.376-.86 2.75-2.034 3.974-2.625 1.223-.954 2.292-1.01 3.057-1.713.764-.294 1.222-.985 1.222-1.134 0-.222 1.51 1.54 3.775 1.88 1.132.457 2.454.9 3.87 1.996 1.416.51 2.926 1.36 4.436 2.142 1.51 1.43 3.022 1.525 4.437 2.21 1.416.426 2.738 2.307 3.87 1.928 2.266.712 3.776 2.53 3.776 1.88z" stroke="#4B5170" stroke-width="4" stroke-linejoin="round"/><path d="M193.44 58.322c0-.032-.474-1.097-1.266.883-.79.182-1.9 1.608-3.167 1.888-1.267 2.04-2.692 1.558-4.117 2.708-1.426-.34-2.85 1.217-4.118 2.44-1.267.83-2.375 1.69-3.167 1.904-.792 1.18-1.267 1.348-1.267.866 0 .132.475-.784 1.267-.713.792-.88 1.9-1.762 3.167-2.058 1.267-.97 2.692-2.333 4.118-2.536 1.425-.76 2.85-2.84 4.117-2.61 1.267-1.145 2.376-2.37 3.167-1.984.792-.917 1.267-1.37 1.267-.788zM193.56 58.38c0-.43.048.86.13 1.49.08.292.195 2.608.324 3.717.13 1.275.276 3.88.422 4.94.146 1.483.293 3.984.422 4.73.13 1.682.244 3.003.325 3.76.08.85.13 1.76.13 1.445 0 .086-.05-.194-.13-1.475-.08-.746-.195-2.492-.325-3.73-.13-1.915-.276-2.782-.422-4.876-.146-1.08-.292-3.946-.422-4.793-.13-.89-.243-3.033-.324-3.542-.082-.982-.13-1.588-.13-1.664z" stroke="#4B5170" stroke-width="4" stroke-linejoin="round"/><path d="M125.5 196.075c-1.392-.54-2.737-1.517-4.036-2.207-1.298-.918-2.55-1.142-3.752-2.584-.902-.55-1.777-1.24-2.623-2.144-.848-.788-1.667-1.073-2.457-2.205-.79-1.48-1.553-1.258-2.286-2.274-.733-.34-1.437-1.51-2.112-2.633-.674-1.258-1.318-2.313-1.933-2.638-.615-1.728-1.2-1.89-1.754-2.748-.554-1.3-1.077-1.994-1.57-2.846-.49-1.338-.95-1.346-1.38-2.935-.572-2.14-1.087-3.202-1.544-4.223-.458-.653-.857-2.52-1.197-3.96-.34-2.414-.62-3.01-.84-4.314-.22-1.524-.38-3.257-.48-4.24-.097-1.557-.132-2.524-.105-4.362.028-1.07.118-3.63.274-4.37.155-.985.375-3.708.66-4.475.287-1.06.64-2.772 1.058-4.24.42-1.037.905-4.168 1.46-4.537.556-1.712 1.18-2.424 1.873-3.973.694-1.56 1.443-2.485 2.243-4.032.8-1.935 1.653-3.207 2.552-3.75.9-.947 1.845-2.114 2.835-3.02.99-.975 2.023-1.717 3.096-3.597 1.073-.684 2.185-1.632 3.332-2.798 1.148-1.483 2.33-2.317 3.544-2.59 1.214-1.025 2.46-1.246 3.732-2.215 1.273-1.08 2.574-.64 3.897-1.882 1.323-.868 2.67-1.5 4.037-1.624 1.366-.084 2.752-.324 4.153-1.115 1.4-.414 2.818-.278 4.246-.817 1.428-.19 2.867.056 4.314-.5 1.447.273 2.9-.335 4.358-.105 1.458.04 2.92.35 4.38.273.973-.117 1.946-.01 2.918.406.972-.207 1.942.9 2.91.564.967.052 1.933-.26 2.894.502.96.77 1.92.578 2.87 1.174.953.35 1.9.302 2.842 1.11.94.523 1.876.666 2.804 1.293 1.392.703 2.737 1.02 4.036 2.25 1.298-.11 2.55 2.377 3.752 2.54 1.202 1.727 2.356 3.705 3.46 3.084 1.105 1.25 2.16 1.723 3.162 2.844 1.003 1.683 1.955 2.347 2.854 3.317.9 1.595 1.746 1.89 2.54 3.554.792.472 1.53 2.076 2.214 3.622.684 1.724 1.312 3.398 1.884 4 .572.938 1.087 3.573 1.544 4.278.458 1.606.857 2.555 1.197 3.908.34 2.068.62 3.12.84 4.243.22 1.587.38 2.618.478 4.312.073 1.006.112 2.63.114 3.393.003 1.01-.03 2.012-.097 3.15-.07.868-.173 2.72-.314 3.293-.14 1.018-.317 2.19-.53 3.267-.216 1.213-.467 2.03-.756 3.262-.29 1.45-.616 2.138-.98 3.236-.367 1.186-.77 2.01-1.212 3.2-.442 1.334-.923 2.415-1.443 3.156-.695 1.52-1.444 2.808-2.245 4.163-.8.923-1.652 2.434-2.55 3.618-.9 1.448-1.846 2.643-2.837 3.46-.99.777-2.023 2.396-3.095 3.16-1.073.888-2.185 2.027-3.332 2.706-1.147.552-2.33 1.43-3.544 2.68-1.214.614-2.46 1.465-3.733 2.257-1.273.517-2.573 1.398-3.897 1.84-1.323.668-2.67.722-4.037 1.544-1.367.826-2.753 1.047-4.154 1.195-1.4.035-2.818.596-4.246 1.078-1.428.772-2.867.064-4.314.24-1.447.092-2.9.222-4.36-.023-1.456.4-2.917.317-4.378-.144-1.947-.405-3.893-.748-5.828-.97-1.936-.45-3.86-1.298-5.765-1.675-.953-.055-1.9-.744-2.84-.804-.943-.687-1.878-.99-2.805-1.6m49.592-99.406c-1.12-.638-2.25-1.514-3.39-1.56-1.137-.164-2.282-1.014-3.433-1.338-1.153-.458-2.31-.832-3.472-1.114-1.162-.413-2.33-.553-3.498-.895-1.17-.536-2.343-.164-3.518-.63-1.174-.556-2.35-.258-3.527-.514-1.177.034-2.353.026-3.53-.212-1.174-.075-2.35-.298-3.52-.09-1.562-.075-3.12.024-4.67.254-1.547.703-3.088 1.062-4.617.612-1.53-.198-3.046.633-4.548.904-1.502.71-2.988 1.044-4.456 1.36-1.468.18-2.917 1.553-4.344 1.913-1.427.896-2.83 1.12-4.21 1.694-1.38.79-2.732 1.466-4.057 2.218-1.323.752-2.62 1.58-3.88 2.678-1.263 1.04-2.492 1.595-3.686 2.912-1.193.717-2.35 2.585-3.468 3.213-1.12 1.18-2.197 1.855-3.232 3.273-1.035.51-2.027 2.605-2.972 4.03-.946.703-1.845 1.474-2.693 4.073-.85 1.76-1.648 2.87-2.393 4.347-.372 1.01-.728 2.44-1.067 2.413-.34.217-.66 1.148-.966 2.44-.61 1.598-1.156 3.548-1.636 4.273-.478 1.527-.892 3.856-1.242 4.94-.35 1.562-.635 3.036-.858 4.404-.445 3.602-.638 6.366-.59 9.395.026 1.48.11 3.01.256 4.566.144 1.555.35 3.135.612 4.713.262 1.568.583 2.862.96 4.35.38 1.542.814 3.138 1.305 4.647.41 1.68.858 2.492 1.344 3.626.487 1.6 1.01 2.295 1.573 3.535.563 1.455 1.162 2.477 1.8 3.434.636.687 1.31 2.383 2.02 3.32.708.68 1.454 2.316 2.236 3.237.78.647 1.598 1.982 2.45 3.01.85 1.156 1.738 1.882 2.66 2.783.92 1.16 1.874 1.84 2.863 2.862.987.996 2.01 1.89 3.064 2.707 1.054.816 2.142 1.556 3.262 2.24 1.12.82 2.27 1.255 3.455 2.183 1.184 1.038 2.398 1.916 3.644 1.97 1.246.782 2.502 1.372 3.768 1.704 1.266.677 2.54 1.05 3.823 1.46 1.282.295 2.572.8 3.866 1.24 1.295.437 2.595.808 3.897.832 2.605.754 5.223 1.444 7.836 1.01 1.308.242 2.613-.445 3.916.256 1.302.205 2.602.505 3.897-.278 1.295.33 2.586-.024 3.87-.39 1.282-.2 2.558-.09 3.825-.627 1.268-.636 2.526-.717 3.773-1.025 1.247-.308 2.484-.604 3.707-.958 1.467-.275 2.916-1.513 4.343-1.64 1.427-.54 2.832-.9 4.21-1.967 1.38-.665 2.733-1.62 4.057-2.317 1.324-.552 2.62-1.742 3.88-2.578 1.264-.422 2.493-1.53 3.687-2.99 1.192-1.052 2.35-2.128 3.467-3.135 2.236-2.513 4.312-5.143 6.203-7.3.946-1.075 1.844-2.45 2.693-3.997.85-1.68 1.647-2.828 2.393-4.425.795-1.06 1.512-3.27 2.155-4.83.643-1.544 1.21-3.623 1.702-4.913.493-1.873.912-3.578 1.257-4.973.26-1.465.477-2.544.655-3.754.178-1.042.316-2.775.414-3.76.097-.515.156-2.547.175-3.687.02-1.602 0-2.564-.06-3.82-.057-1.173-.154-2.647-.29-3.76-.134-.79-.307-2.618-.517-3.65-.262-2.136-.583-3.205-.96-4.543-.38-1.28-.815-3.692-1.305-4.453-.492-1.342-1.04-3.64-1.64-4.257-.603-2.332-1.26-3.453-1.97-4.29-.71-1.564-1.475-3.222-2.292-3.863-.816-1.01-1.685-3.39-2.605-4.07-.92-2.12-1.893-2.41-2.915-3.677-1.022-1.902-2.094-3.557-3.216-3.47-1.12-.162-2.29-1.39-3.51-3.25-1.217-1.283-2.483-1.563-3.796-2.95-1.313-1.538-2.672-1.64-4.077-2.69-1.403-.85-2.854-1.647-4.348-2.392" fill="#BAC2E2"/><path d="M125.5 196.075c-1.392-.54-2.737-1.517-4.036-2.207-1.298-.918-2.55-1.142-3.752-2.584-.902-.55-1.777-1.24-2.623-2.144-.848-.788-1.667-1.073-2.457-2.205-.79-1.48-1.553-1.258-2.286-2.274-.733-.34-1.437-1.51-2.112-2.633-.674-1.258-1.318-2.313-1.933-2.638-.615-1.728-1.2-1.89-1.754-2.748-.554-1.3-1.077-1.994-1.57-2.846-.49-1.338-.95-1.346-1.38-2.935-.572-2.14-1.087-3.202-1.544-4.223-.458-.653-.857-2.52-1.197-3.96-.34-2.414-.62-3.01-.84-4.314-.22-1.524-.38-3.257-.48-4.24-.097-1.557-.132-2.524-.105-4.362.028-1.07.118-3.63.274-4.37.155-.985.375-3.708.66-4.475.287-1.06.64-2.772 1.058-4.24.42-1.037.905-4.168 1.46-4.537.556-1.712 1.18-2.424 1.873-3.973.694-1.56 1.443-2.485 2.243-4.032.8-1.935 1.653-3.207 2.552-3.75.9-.947 1.845-2.114 2.835-3.02.99-.975 2.023-1.717 3.096-3.597 1.073-.684 2.185-1.632 3.332-2.798 1.148-1.483 2.33-2.317 3.544-2.59 1.214-1.025 2.46-1.246 3.732-2.215 1.273-1.08 2.574-.64 3.897-1.882 1.323-.868 2.67-1.5 4.037-1.624 1.366-.084 2.752-.324 4.153-1.115 1.4-.414 2.818-.278 4.246-.817 1.428-.19 2.867.056 4.314-.5 1.447.273 2.9-.335 4.358-.105 1.458.04 2.92.35 4.38.273.973-.117 1.946-.01 2.918.406.972-.207 1.942.9 2.91.564.967.052 1.933-.26 2.894.502.96.77 1.92.578 2.87 1.174.953.35 1.9.302 2.842 1.11.94.523 1.876.666 2.804 1.293 1.392.703 2.737 1.02 4.036 2.25 1.298-.11 2.55 2.377 3.752 2.54 1.202 1.727 2.356 3.705 3.46 3.084 1.105 1.25 2.16 1.723 3.162 2.844 1.003 1.683 1.955 2.347 2.854 3.317.9 1.595 1.746 1.89 2.54 3.554.792.472 1.53 2.076 2.214 3.622.684 1.724 1.312 3.398 1.884 4 .572.938 1.087 3.573 1.544 4.278.458 1.606.857 2.555 1.197 3.908.34 2.068.62 3.12.84 4.243.22 1.587.38 2.618.478 4.312.073 1.006.112 2.63.114 3.393.003 1.01-.03 2.012-.097 3.15-.07.868-.173 2.72-.314 3.293-.14 1.018-.317 2.19-.53 3.267-.216 1.213-.467 2.03-.756 3.262-.29 1.45-.616 2.138-.98 3.236-.367 1.186-.77 2.01-1.212 3.2-.442 1.334-.923 2.415-1.443 3.156-.695 1.52-1.444 2.808-2.245 4.163-.8.923-1.652 2.434-2.55 3.618-.9 1.448-1.846 2.643-2.837 3.46-.99.777-2.023 2.396-3.095 3.16-1.073.888-2.185 2.027-3.332 2.706-1.147.552-2.33 1.43-3.544 2.68-1.214.614-2.46 1.465-3.733 2.257-1.273.517-2.573 1.398-3.897 1.84-1.323.668-2.67.722-4.037 1.544-1.367.826-2.753 1.047-4.154 1.195-1.4.035-2.818.596-4.246 1.078-1.428.772-2.867.064-4.314.24-1.447.092-2.9.222-4.36-.023-1.456.4-2.917.317-4.378-.144-1.947-.405-3.893-.748-5.828-.97-1.936-.45-3.86-1.298-5.765-1.675-.953-.055-1.9-.744-2.84-.804-.943-.687-1.878-.99-2.805-1.6zm49.592-99.407c-1.12-.638-2.25-1.514-3.39-1.56-1.137-.164-2.282-1.014-3.433-1.338-1.153-.458-2.31-.832-3.472-1.114-1.162-.413-2.33-.553-3.498-.895-1.17-.536-2.343-.164-3.518-.63-1.174-.556-2.35-.258-3.527-.514-1.177.034-2.353.026-3.53-.212-1.174-.075-2.35-.298-3.52-.09-1.562-.075-3.12.024-4.67.254-1.547.703-3.088 1.062-4.617.612-1.53-.198-3.046.633-4.548.904-1.502.71-2.988 1.044-4.456 1.36-1.468.18-2.917 1.553-4.344 1.913-1.427.896-2.83 1.12-4.21 1.694-1.38.79-2.732 1.466-4.057 2.218-1.323.752-2.62 1.58-3.88 2.678-1.263 1.04-2.492 1.595-3.686 2.912-1.193.717-2.35 2.585-3.468 3.213-1.12 1.18-2.197 1.855-3.232 3.273-1.035.51-2.027 2.605-2.972 4.03-.946.703-1.845 1.474-2.693 4.073-.85 1.76-1.648 2.87-2.393 4.347-.372 1.01-.728 2.44-1.067 2.413-.34.217-.66 1.148-.966 2.44-.61 1.598-1.156 3.548-1.636 4.273-.478 1.527-.892 3.856-1.242 4.94-.35 1.562-.635 3.036-.858 4.404-.445 3.602-.638 6.366-.59 9.395.026 1.48.11 3.01.256 4.566.144 1.555.35 3.135.612 4.713.262 1.568.583 2.862.96 4.35.38 1.542.814 3.138 1.305 4.647.41 1.68.858 2.492 1.344 3.626.487 1.6 1.01 2.295 1.573 3.535.563 1.455 1.162 2.477 1.8 3.434.636.687 1.31 2.383 2.02 3.32.708.68 1.454 2.316 2.236 3.237.78.647 1.598 1.982 2.45 3.01.85 1.156 1.738 1.882 2.66 2.783.92 1.16 1.874 1.84 2.863 2.862.987.996 2.01 1.89 3.064 2.707 1.054.816 2.142 1.556 3.262 2.24 1.12.82 2.27 1.255 3.455 2.183 1.184 1.038 2.398 1.916 3.644 1.97 1.246.782 2.502 1.372 3.768 1.704 1.266.677 2.54 1.05 3.823 1.46 1.282.295 2.572.8 3.866 1.24 1.295.437 2.595.808 3.897.832 2.605.754 5.223 1.444 7.836 1.01 1.308.242 2.613-.445 3.916.256 1.302.205 2.602.505 3.897-.278 1.295.33 2.586-.024 3.87-.39 1.282-.2 2.558-.09 3.825-.627 1.268-.636 2.526-.717 3.773-1.025 1.247-.308 2.484-.604 3.707-.958 1.467-.275 2.916-1.513 4.343-1.64 1.427-.54 2.832-.9 4.21-1.967 1.38-.665 2.733-1.62 4.057-2.317 1.324-.552 2.62-1.742 3.88-2.578 1.264-.422 2.493-1.53 3.687-2.99 1.192-1.052 2.35-2.128 3.467-3.135 2.236-2.513 4.312-5.143 6.203-7.3.946-1.075 1.844-2.45 2.693-3.997.85-1.68 1.647-2.828 2.393-4.425.795-1.06 1.512-3.27 2.155-4.83.643-1.544 1.21-3.623 1.702-4.913.493-1.873.912-3.578 1.257-4.973.26-1.465.477-2.544.655-3.754.178-1.042.316-2.775.414-3.76.097-.515.156-2.547.175-3.687.02-1.602 0-2.564-.06-3.82-.057-1.173-.154-2.647-.29-3.76-.134-.79-.307-2.618-.517-3.65-.262-2.136-.583-3.205-.96-4.543-.38-1.28-.815-3.692-1.305-4.453-.492-1.342-1.04-3.64-1.64-4.257-.603-2.332-1.26-3.453-1.97-4.29-.71-1.564-1.475-3.222-2.292-3.863-.816-1.01-1.685-3.39-2.605-4.07-.92-2.12-1.893-2.41-2.915-3.677-1.022-1.902-2.094-3.557-3.216-3.47-1.12-.162-2.29-1.39-3.51-3.25-1.217-1.283-2.483-1.563-3.796-2.95-1.313-1.538-2.672-1.64-4.077-2.69-1.403-.85-2.854-1.647-4.348-2.392z" stroke="#4B5170" stroke-width="4" stroke-linejoin="round"/><path d="M98.86 115.507c0-.192 1.593-1.367 3.185-3.752 1.592-1.985 3.184-3.67 3.184-3.752-.913-.58-1.854-2.146-2.822-2.643-.97-.84-1.964-1.572-2.986-2.46-.68-.427-1.374-1.114-2.078-1.535-.704-.648-1.42-1.007-2.144-1.446-.726-.747-1.462-.89-2.208-1.357-.746-.506-1.503-.84-2.27-1.263-.766-.403-1.542-.668-2.328-.98-.785-.31-1.58-.668-2.383-1.256-1.205-.998-2.43-1.127-3.674-1.412-1.244-.364-2.506-1.05-3.785-1.176-1.28-.452-2.575-.574-3.887-1.32-1.31-.052-2.64.112-3.98-.285-1.34-.304-2.696-1.235-4.064-.473-1.368-.275-2.748.226-4.14-.077-1.67-.41-3.324.8-4.96.13-1.635.614-3.253.78-4.85.66-1.596.92-3.172-.35-4.723.83-1.552.473-3.08 1.328-4.583 1.46-1.502 1.41-2.978 1.44-4.425 1.863-1.448.52-2.866 1.207-4.254 1.803-1.387.96-2.742 1.395-4.064 2.31-1.32.903-2.61 1.536-3.86 2.605-1.25 1.026-2.466 2.162-3.64 2.754-1.177 1.014-2.313 2.394-3.408 3.288-1.094.94-2.147 1.635-3.155 3.08-1.01 1.526-1.974 2.968-2.89 3.962-.918.714-1.788 3.18-2.608 3.867-.82 1.737-1.592 3.292-2.31 4.053-.72 1.41-1.387 2.922-2 4.222-.61 1.855-1.17 3.22-1.668 4.45-.5 1.685-.943 2.88-1.326 4.412-.383 1.615-.706 2.933-.966 4.887-.26 2.49-.46 3.19-.59 4.846-.134 1.632-.202 3.55-.202 4.957 0 1.607.068 3.557.2 4.942.133 1.224.33 3.092.592 4.86.26 1.58.583 3.01.966 5.008.383 1.288.825 2.64 1.326 4.292.5 1.645 1.057 3.85 1.67 4.422.61 1.36 1.278 2.616 1.997 4.25.72.872 1.49 3.245 2.312 4.084.82.83 1.69 2.207 2.607 3.835.916 1.254 1.88 2.27 2.89 3.514 1.007 1.126 2.06 2.102 3.154 3.53 1.095 1.18 2.23 2.126 3.407 3.296 1.176 1.06 2.39 2.15 3.642 2.743 1.25.982 2.54.315 3.86 2.512 1.322.872 2.677 1.686 4.064 2.403 1.388.503 2.806 1.792 4.253 2.172 1.446.673 2.922.61 4.424 1.493 1.002.685 2.015 1.06 3.04 1.16 1.023.323 2.057.227 3.102.527 1.045.344 2.1-.404 3.164.337 1.065.317 2.14.61 3.22.703 1.083-.137 2.174.1 3.272.36 1.1-.116 2.205 1.06 3.32-.006 1.67.626 3.323.234 4.96-.2 1.635-.233 3.253-.636 4.85-.59 1.596-.338 3.17-.262 4.723-.913 1.552-1.014 3.08-.894 4.583-1.377 1.502-.865 2.978-1.2 4.425-1.697 1.447-.457 2.865-.93 4.252-1.968 1.387-.936 2.743-1.64 4.065-2.36 1.32-1.116 2.61-2.92 3.86-2.555 1.25-.528 2.466-1.983 3.64-2.73 1.177-1.522 2.313-1.804 3.407-3.31 1.095-1.067 2.147-2.388 3.156-3.404 1.01-1.428 1.972-1.303 2.89-3.64.733-1.384 1.437-1.464 2.11-3.07.67-1.96 1.312-1.868 1.92-3.2.61-1.402 1.184-2.653 1.726-3.327.54-1.487 1.047-2.602 1.52-3.442.472-1.757.91-2.242 1.31-3.4.4-1.695.762-1.91 1.087-3.8.326-2.065.613-1.725.86-3.56.25-1.93.458-2.29.625-4.014.17-1.84.296-3.295.38-4.04.087-1.343.13-3.487.13-3.84 0-.878-.042-3.657-.125-4.13-.083-1.335-.207-2.77-.37-3.635-.163-1.612-.366-2.18-.607-4.12-.24-1.106-.52-2.352-.836-3.35-.317-1.016-.67-3.25-1.06-3.604-.388-.527-.813-2.202-1.272-3.508-.46-.995-.953-2.144-1.48-3.52-.526-.988-1.086-2.3-1.678-3.174-.592-1.544-1.216-1.755-1.87-3.303-.654-1.355-1.34-2.9-2.054-2.91 0 .164-.398.828-.995.958-.597.798-1.393 1.175-2.19 3.08-.796 1.39-1.592 2.496-2.19 2.766-.596.205-.994.89-.994 1.27.627.404 1.22 1.31 1.78 3.01.558 1.1 1.083 2.51 1.57 3.143.49 2.2.942 2.34 1.356 3.26.415.375.793 2.87 1.13 3.372.34.815.638 2.36.896 3.32.258 1.527.475 1.21.65 3.714.176 1.692.31 3.657.398 3.743.09 1.907.135 2.575.135 3.62 0 .092-.07 2.368-.208 4.53-.136 1.152-.34 3.17-.61 4.572-.267.594-.6 2.85-.993 4.328-.393 1.82-.847 4.388-1.36 4.238-.512 1.106-1.083 1.987-1.708 4.038-.626.692-1.307 2.202-2.04 3.85-.733 1.34-1.518 2.552-2.352 3.646-.834 1.367-1.718 2.58-2.647 3.422-.93.953-1.906 2.075-2.924 3.253-1.02 1.115-2.08 2.373-3.184 2.85-1.103 1.103-2.245.98-3.425 2.58-1.18.394-2.397 1.113-3.648 2.416-1.25.07-2.537 1.15-3.853 2.176-1.317 1.436-2.665 1.132-4.04 1.57-1.378.42-2.782.744-4.212 1.36-1.43.708-2.885.88-4.363.992-1.478.76-2.978.032-4.497.34-1.52-.037-3.057.44-4.612.476-1.036.49-2.065-.245-3.086.042-1.02-.25-2.034-.876-3.038-.408-1.004.504-2-.14-2.984-.26-.985 1.39-1.96-.044-2.924-.81-.964.182-1.918-.496-2.86-.882-.94.016-1.87-.078-2.79-.85-1.375-.65-2.723-.292-4.04-1.56-1.316-1.535-2.602-.23-3.853-2.185-1.25-.935-2.468-1.08-3.648-2.527-1.18-.31-2.322-1.445-3.424-2.468-1.103-.436-2.165-1.553-3.184-2.794-1.02-.544-1.995-1.634-2.925-3.308-.93-1.703-1.813-1.563-2.647-3.422-.834-.61-1.62-2.242-2.352-3.646-.733-1.172-1.414-2.533-2.04-4.134-.626-1.238-1.196-2.447-1.71-3.754-.51-.323-.965-2.872-1.36-4.132-.392-1.1-.724-3.27-.992-4.435-.268-1.114-.472-3.267-.61-4.567-.137-.898-.207-2.995-.207-4.536 0-1.195.07-3.267.207-4.61.138-2.2.342-3.28.61-4.492.268-1.61.6-3.222.993-4.514.394-1.73.848-2.71 1.36-4.052.513-.67 1.083-2.643 1.71-3.775.625-1.293 1.306-2.74 2.04-4.113.732-1.05 1.517-2.505 2.35-3.834.835-1.74 1.718-2.13 2.648-3.234.93-.263 1.905-1.792 2.924-2.934 1.018-1.467 2.08-2.517 3.183-3.17 1.102-1.11 2.244-1.514 3.424-2.644 1.18-.993 2.397-1.427 3.648-2.35 1.25-.698 2.537-1.346 3.853-2.045 1.317-.5 2.665-.474 4.04-1.702 1.377-.103 2.782-1.632 4.212-1.426 1.43-.01 2.885.102 4.362-.926 1.478.512 2.977-.023 4.497-.676 1.518-.174 3.056.676 4.61-.14 1.428-.33 2.842.31 4.24.173 1.397-.67 2.778.196 4.14.516 1.365-.634 2.71-.22 4.033.91 1.324.842 2.627.656 3.908 1.083 1.28.504 2.538.788 3.77 1.452 1.232.257 2.438 1.182 3.617 1.737.786.27 1.56.92 2.32 1.31.76.084 1.51.798 2.243 1.423.734.128 1.455 1.032 2.16 1.538.707.783 1.4 1.338 2.076 1.646.676.767 1.338 2.104 1.984 1.748.646-.23 1.277.92 1.89 1.85" fill="#FFF"/><path d="M98.86 115.507c0-.192 1.593-1.367 3.185-3.752 1.592-1.985 3.184-3.67 3.184-3.752-.913-.58-1.854-2.146-2.822-2.643-.97-.84-1.964-1.572-2.986-2.46-.68-.427-1.374-1.114-2.078-1.535-.704-.648-1.42-1.007-2.144-1.446-.726-.747-1.462-.89-2.208-1.357-.746-.506-1.503-.84-2.27-1.263-.766-.403-1.542-.668-2.328-.98-.785-.31-1.58-.668-2.383-1.256-1.205-.998-2.43-1.127-3.674-1.412-1.244-.364-2.506-1.05-3.785-1.176-1.28-.452-2.575-.574-3.887-1.32-1.31-.052-2.64.112-3.98-.285-1.34-.304-2.696-1.235-4.064-.473-1.368-.275-2.748.226-4.14-.077-1.67-.41-3.324.8-4.96.13-1.635.614-3.253.78-4.85.66-1.596.92-3.172-.35-4.723.83-1.552.473-3.08 1.328-4.583 1.46-1.502 1.41-2.978 1.44-4.425 1.863-1.448.52-2.866 1.207-4.254 1.803-1.387.96-2.742 1.395-4.064 2.31-1.32.903-2.61 1.536-3.86 2.605-1.25 1.026-2.466 2.162-3.64 2.754-1.177 1.014-2.313 2.394-3.408 3.288-1.094.94-2.147 1.635-3.155 3.08-1.01 1.526-1.974 2.968-2.89 3.962-.918.714-1.788 3.18-2.608 3.867-.82 1.737-1.592 3.292-2.31 4.053-.72 1.41-1.387 2.922-2 4.222-.61 1.855-1.17 3.22-1.668 4.45-.5 1.685-.943 2.88-1.326 4.412-.383 1.615-.706 2.933-.966 4.887-.26 2.49-.46 3.19-.59 4.846-.134 1.632-.202 3.55-.202 4.957 0 1.607.068 3.557.2 4.942.133 1.224.33 3.092.592 4.86.26 1.58.583 3.01.966 5.008.383 1.288.825 2.64 1.326 4.292.5 1.645 1.057 3.85 1.67 4.422.61 1.36 1.278 2.616 1.997 4.25.72.872 1.49 3.245 2.312 4.084.82.83 1.69 2.207 2.607 3.835.916 1.254 1.88 2.27 2.89 3.514 1.007 1.126 2.06 2.102 3.154 3.53 1.095 1.18 2.23 2.126 3.407 3.296 1.176 1.06 2.39 2.15 3.642 2.743 1.25.982 2.54.315 3.86 2.512 1.322.872 2.677 1.686 4.064 2.403 1.388.503 2.806 1.792 4.253 2.172 1.446.673 2.922.61 4.424 1.493 1.002.685 2.015 1.06 3.04 1.16 1.023.323 2.057.227 3.102.527 1.045.344 2.1-.404 3.164.337 1.065.317 2.14.61 3.22.703 1.083-.137 2.174.1 3.272.36 1.1-.116 2.205 1.06 3.32-.006 1.67.626 3.323.234 4.96-.2 1.635-.233 3.253-.636 4.85-.59 1.596-.338 3.17-.262 4.723-.913 1.552-1.014 3.08-.894 4.583-1.377 1.502-.865 2.978-1.2 4.425-1.697 1.447-.457 2.865-.93 4.252-1.968 1.387-.936 2.743-1.64 4.065-2.36 1.32-1.116 2.61-2.92 3.86-2.555 1.25-.528 2.466-1.983 3.64-2.73 1.177-1.522 2.313-1.804 3.407-3.31 1.095-1.067 2.147-2.388 3.156-3.404 1.01-1.428 1.972-1.303 2.89-3.64.733-1.384 1.437-1.464 2.11-3.07.67-1.96 1.312-1.868 1.92-3.2.61-1.402 1.184-2.653 1.726-3.327.54-1.487 1.047-2.602 1.52-3.442.472-1.757.91-2.242 1.31-3.4.4-1.695.762-1.91 1.087-3.8.326-2.065.613-1.725.86-3.56.25-1.93.458-2.29.625-4.014.17-1.84.296-3.295.38-4.04.087-1.343.13-3.487.13-3.84 0-.878-.042-3.657-.125-4.13-.083-1.335-.207-2.77-.37-3.635-.163-1.612-.366-2.18-.607-4.12-.24-1.106-.52-2.352-.836-3.35-.317-1.016-.67-3.25-1.06-3.604-.388-.527-.813-2.202-1.272-3.508-.46-.995-.953-2.144-1.48-3.52-.526-.988-1.086-2.3-1.678-3.174-.592-1.544-1.216-1.755-1.87-3.303-.654-1.355-1.34-2.9-2.054-2.91 0 .164-.398.828-.995.958-.597.798-1.393 1.175-2.19 3.08-.796 1.39-1.592 2.496-2.19 2.766-.596.205-.994.89-.994 1.27.627.404 1.22 1.31 1.78 3.01.558 1.1 1.083 2.51 1.57 3.143.49 2.2.942 2.34 1.356 3.26.415.375.793 2.87 1.13 3.372.34.815.638 2.36.896 3.32.258 1.527.475 1.21.65 3.714.176 1.692.31 3.657.398 3.743.09 1.907.135 2.575.135 3.62 0 .092-.07 2.368-.208 4.53-.136 1.152-.34 3.17-.61 4.572-.267.594-.6 2.85-.993 4.328-.393 1.82-.847 4.388-1.36 4.238-.512 1.106-1.083 1.987-1.708 4.038-.626.692-1.307 2.202-2.04 3.85-.733 1.34-1.518 2.552-2.352 3.646-.834 1.367-1.718 2.58-2.647 3.422-.93.953-1.906 2.075-2.924 3.253-1.02 1.115-2.08 2.373-3.184 2.85-1.103 1.103-2.245.98-3.425 2.58-1.18.394-2.397 1.113-3.648 2.416-1.25.07-2.537 1.15-3.853 2.176-1.317 1.436-2.665 1.132-4.04 1.57-1.378.42-2.782.744-4.212 1.36-1.43.708-2.885.88-4.363.992-1.478.76-2.978.032-4.497.34-1.52-.037-3.057.44-4.612.476-1.036.49-2.065-.245-3.086.042-1.02-.25-2.034-.876-3.038-.408-1.004.504-2-.14-2.984-.26-.985 1.39-1.96-.044-2.924-.81-.964.182-1.918-.496-2.86-.882-.94.016-1.87-.078-2.79-.85-1.375-.65-2.723-.292-4.04-1.56-1.316-1.535-2.602-.23-3.853-2.185-1.25-.935-2.468-1.08-3.648-2.527-1.18-.31-2.322-1.445-3.424-2.468-1.103-.436-2.165-1.553-3.184-2.794-1.02-.544-1.995-1.634-2.925-3.308-.93-1.703-1.813-1.563-2.647-3.422-.834-.61-1.62-2.242-2.352-3.646-.733-1.172-1.414-2.533-2.04-4.134-.626-1.238-1.196-2.447-1.71-3.754-.51-.323-.965-2.872-1.36-4.132-.392-1.1-.724-3.27-.992-4.435-.268-1.114-.472-3.267-.61-4.567-.137-.898-.207-2.995-.207-4.536 0-1.195.07-3.267.207-4.61.138-2.2.342-3.28.61-4.492.268-1.61.6-3.222.993-4.514.394-1.73.848-2.71 1.36-4.052.513-.67 1.083-2.643 1.71-3.775.625-1.293 1.306-2.74 2.04-4.113.732-1.05 1.517-2.505 2.35-3.834.835-1.74 1.718-2.13 2.648-3.234.93-.263 1.905-1.792 2.924-2.934 1.018-1.467 2.08-2.517 3.183-3.17 1.102-1.11 2.244-1.514 3.424-2.644 1.18-.993 2.397-1.427 3.648-2.35 1.25-.698 2.537-1.346 3.853-2.045 1.317-.5 2.665-.474 4.04-1.702 1.377-.103 2.782-1.632 4.212-1.426 1.43-.01 2.885.102 4.362-.926 1.478.512 2.977-.023 4.497-.676 1.518-.174 3.056.676 4.61-.14 1.428-.33 2.842.31 4.24.173 1.397-.67 2.778.196 4.14.516 1.365-.634 2.71-.22 4.033.91 1.324.842 2.627.656 3.908 1.083 1.28.504 2.538.788 3.77 1.452 1.232.257 2.438 1.182 3.617 1.737.786.27 1.56.92 2.32 1.31.76.084 1.51.798 2.243 1.423.734.128 1.455 1.032 2.16 1.538.707.783 1.4 1.338 2.076 1.646.676.767 1.338 2.104 1.984 1.748.646-.23 1.277.92 1.89 1.85z" stroke="#4B5170" stroke-width="4" stroke-linejoin="round"/><path d="M200.31 42.787s-.02-.44.073-1.143c.09-.704.295-1.67.67-2.756.198-.538.418-1.118.703-1.703.27-.594.61-1.19.95-1.81.348-.62.714-1.255 1.1-1.893.39-.637.792-1.28 1.212-1.913.425-.63.853-1.26 1.288-1.87.437-.612.868-1.212 1.295-1.788.848-1.154 1.638-2.233 2.315-3.157.342-.46.64-.89.936-1.255.293-.366.587-.664.837-.905.502-.48.876-.71.876-.71s.013.438-.115 1.122c-.066.34-.155.75-.3 1.194-.146.447-.342.933-.54 1.47-.405 1.072-.876 2.323-1.38 3.663-.25.672-.516 1.36-.788 2.06-.274.7-.568 1.4-.863 2.1-.3.7-.618 1.387-.94 2.06-.323.672-.655 1.326-.983 1.955-.335.625-.647 1.236-.997 1.786-.334.56-.7 1.06-1.043 1.52-.706.908-1.4 1.607-1.942 2.067-.54.463-.917.69-.917.69-.453.27-1.04.122-1.31-.33-.086-.142-.13-.3-.136-.453M215.303 61.392s.276-.333.805-.785c.53-.454 1.312-1.02 2.3-1.56.498-.26 1.04-.535 1.632-.77.587-.25 1.226-.455 1.883-.678.66-.22 1.344-.435 2.045-.64.7-.2 1.417-.4 2.14-.576.723-.172 1.448-.342 2.167-.494.72-.15 1.427-.297 2.117-.428 1.376-.27 2.66-.522 3.76-.74.552-.104 1.052-.215 1.507-.282.452-.07.862-.087 1.202-.095.682-.01 1.104.076 1.104.076s-.278.33-.82.743c-.272.204-.606.442-1.006.67-.398.227-.86.45-1.358.707l-3.413 1.742c-.624.323-1.27.645-1.93.972-.66.325-1.333.64-2.01.95-.676.308-1.36.595-2.037.87-.677.272-1.35.525-2 .762-.656.23-1.285.465-1.902.63-.61.182-1.205.3-1.757.403-1.11.185-2.077.225-2.773.194-.696-.028-1.12-.12-1.12-.12-.518-.11-.85-.622-.737-1.14.033-.156.105-.297.2-.412M177.272 44.55s-.08-.06-.212-.177c-.14-.115-.312-.295-.536-.522-.432-.46-.964-1.145-1.464-2.017-.24-.44-.492-.918-.708-1.442-.223-.52-.407-1.087-.604-1.672-.192-.586-.382-1.195-.56-1.82-.177-.624-.347-1.26-.497-1.906-.145-.645-.29-1.292-.414-1.934-.124-.643-.245-1.276-.35-1.892l-.603-3.36c-.085-.494-.177-.94-.228-1.347-.053-.408-.057-.776-.053-1.082.013-.614.113-.997.113-.997s.315.24.706.715c.193.238.417.53.627.882.213.35.416.76.654 1.2l1.608 3.012c.298.55.594 1.12.895 1.703.3.582.586 1.18.87 1.776.28.6.542 1.205.79 1.805.246.6.473 1.196.685 1.776.207.582.413 1.142.56 1.69.155.545.254 1.076.337 1.57.145.994.152 1.862.098 2.49-.036.318-.06.565-.1.742-.03.174-.056.27-.056.27-.15.532-.703.842-1.236.693-.116-.033-.225-.088-.318-.155" fill="#FFCC21"/></g></svg>