<svg width="35" height="47" viewBox="0 0 35 47" xmlns="http://www.w3.org/2000/svg" xmlns:xlink="http://www.w3.org/1999/xlink"><title>Page 1</title><defs><path id="a" d="M34.993 20.58v20.526H0V.05h34.993z"/><path id="c" d="M0 46.662h34.993V0H0z"/></defs><g fill="none" fill-rule="evenodd"><path d="M28.388 45.597H6.604c-3.06 0-5.54-2.477-5.54-5.533V16.522c0-5.44 4.416-9.85 9.862-9.85h13.14c5.447 0 9.86 4.41 9.86 9.85v23.542c0 3.056-2.48 5.533-5.538 5.533z" fill="#BAC1E1"/><g transform="translate(0 5.555)"><mask id="b" fill="#fff"><use xlink:href="#a"/></mask><path d="M10.926 2.18c-4.85 0-8.796 3.942-8.796 8.787V34.51c0 2.463 2.007 4.468 4.474 4.468h21.784c2.467 0 4.474-2.005 4.474-4.47V10.97c0-4.846-3.945-8.788-8.795-8.788h-13.14zm17.462 38.926H6.604C2.964 41.106 0 38.146 0 34.51V10.966C0 4.947 4.9.052 10.926.052h13.14c6.025 0 10.927 4.896 10.927 10.915V34.51c0 3.637-2.963 6.596-6.605 6.596z" fill="#57585A" mask="url(#b)"/></g><path d="M5.387 29.16l-1-.838c-.548-.46-.292-1.676.57-2.7L17.9 10.235c.863-1.024 2.407-1.158 3.432-.297l5.533 4.645c1.025.86 1.446 2.062.936 2.668l-.927 1.105" fill="#86AC5A"/><path d="M4.7 29.975l-.997-.84c-.572-.48-.792-1.27-.602-2.17.144-.68.513-1.4 1.04-2.028L17.087 9.55c1.242-1.476 3.454-1.667 4.93-.427l5.534 4.646c.64.536 1.125 1.208 1.364 1.89.302.863.194 1.692-.298 2.276l-.928 1.103-1.63-1.37.896-1.066c.01-.176-.18-.707-.774-1.206l-5.534-4.646c-.578-.485-1.443-.41-1.93.167L5.773 26.305c-.484.575-.608 1.085-.61 1.276l.91.763-1.37 1.63z" fill="#57585A"/><path d="M27.006 18.466c1.025.86 1.16 2.403.297 3.427L14.358 37.28c-.86 1.024-2.405 1.158-3.43.297L5.394 32.93c-1.025-.86-1.16-2.4-.297-3.426l12.945-15.386c.862-1.024 2.405-1.158 3.43-.297l5.534 4.646z" fill="#86AC5A"/><path d="M19.907 14.315c-.39 0-.78.166-1.05.487L5.912 30.19c-.485.577-.41 1.44.168 1.927l5.533 4.646c.578.485 1.444.41 1.93-.168L26.488 21.21c.486-.58.41-1.444-.168-1.93l-5.533-4.645c-.256-.215-.57-.32-.88-.32m-7.42 24.894c-.823 0-1.61-.286-2.245-.818L4.71 33.746c-1.478-1.24-1.67-3.45-.428-4.926l12.945-15.387c1.24-1.476 3.453-1.667 4.93-.427l5.534 4.646c1.478 1.24 1.67 3.45.43 4.926L15.173 37.965c-.6.713-1.444 1.15-2.378 1.23-.103.01-.207.014-.31.014" fill="#57585A"/><path d="M18.468 23.003c1.49 1.25 1.684 3.473.43 4.962-1.252 1.49-3.476 1.68-4.966.43-1.49-1.25-1.683-3.473-.43-4.962 1.252-1.49 3.476-1.682 4.966-.43" fill="#F5F3F1"/><path d="M16.202 23.242c-.702 0-1.4.298-1.885.876-.873 1.037-.738 2.59.3 3.462 1.04.872 2.594.738 3.466-.3.423-.502.625-1.14.568-1.793-.056-.654-.364-1.247-.867-1.67-.46-.386-1.022-.575-1.58-.575m-.007 7.04c-1.042 0-2.09-.35-2.95-1.072-1.937-1.627-2.19-4.526-.56-6.462.79-.937 1.896-1.512 3.118-1.618 1.22-.106 2.41.27 3.35 1.058.938.788 1.514 1.894 1.62 3.115.105 1.22-.27 2.41-1.06 3.346-.906 1.077-2.208 1.633-3.518 1.633" fill="#57585A"/><mask id="d" fill="#fff"><use xlink:href="#c"/></mask><path fill="#FEFEFE" mask="url(#d)" d="M1.065 41.21h32.862V25.064H1.065"/><path d="M2.13 40.145h30.732V26.13H2.13v14.015zM0 42.275h34.993V24H0v18.274z" fill="#57585A" mask="url(#d)"/><path d="M17.443 38.155l4.56-4.537c1.26-1.258 1.26-3.297 0-4.555-1.26-1.258-3.3-1.258-4.56 0-1.26-1.258-3.265-1.24-4.524.018-1.26 1.26-1.26 3.298 0 4.556l4.523 4.52" fill="#FFCD20" mask="url(#d)"/><path d="M13.67 32.885c.02.016.036.032.053.05l3.72 3.717 3.757-3.737.05-.048c.407-.41.632-.95.632-1.527 0-.576-.225-1.117-.633-1.525-.842-.84-2.212-.84-3.054 0l-.753.753-.753-.753c-.84-.84-2.166-.832-3.018.02-.84.84-.84 2.208 0 3.05zm3.77 6.774l-.75-.752-3.98-3.977-.538-.535-.005-.005c-1.673-1.672-1.673-4.39 0-6.06.81-.81 1.877-1.26 3.008-1.266.814-.004 1.594.22 2.27.645 1.655-1.038 3.87-.838 5.31.6.81.81 1.257 1.886 1.257 3.03 0 1.145-.446 2.22-1.256 3.03l-.753.753L22 35.12l-3.805 3.79-.754.75z" fill="#57585A" mask="url(#d)"/><path d="M30.548 6.253H4.445c-1.01 0-1.826-.817-1.826-1.825v-1.54c0-1.007.816-1.824 1.825-1.824h26.103c1.008 0 1.826.817 1.826 1.824v1.54c0 1.008-.818 1.825-1.826 1.825" fill="#FFCD20" mask="url(#d)"/><path d="M4.445 2.128c-.42 0-.76.34-.76.76v1.54c0 .42.34.76.76.76h26.103c.42 0 .76-.34.76-.76v-1.54c0-.42-.34-.76-.76-.76H4.445zm26.103 5.19H4.445c-1.594 0-2.89-1.297-2.89-2.89v-1.54C1.554 1.296 2.85 0 4.444 0h26.103c1.594 0 2.89 1.296 2.89 2.888v1.54c0 1.593-1.296 2.89-2.89 2.89z" fill="#57585A" mask="url(#d)"/><path d="M5.667 5.305c-.588 0-1.065-.476-1.065-1.064V3.077c0-.588.477-1.065 1.065-1.065s1.065.478 1.065 1.066V4.24c0 .59-.477 1.065-1.065 1.065M9.598 5.305c-.588 0-1.065-.476-1.065-1.064V3.077c0-.588.477-1.065 1.065-1.065.59 0 1.065.478 1.065 1.066V4.24c0 .59-.476 1.065-1.065 1.065M13.53 5.305c-.59 0-1.066-.476-1.066-1.064V3.077c0-.588.477-1.065 1.066-1.065.588 0 1.065.478 1.065 1.066V4.24c0 .59-.477 1.065-1.065 1.065M17.46 5.305c-.587 0-1.064-.476-1.064-1.064V3.077c0-.588.477-1.065 1.065-1.065.59 0 1.066.478 1.066 1.066V4.24c0 .59-.477 1.065-1.065 1.065M21.392 5.305c-.588 0-1.065-.476-1.065-1.064V3.077c0-.588.477-1.065 1.065-1.065.59 0 1.065.478 1.065 1.066V4.24c0 .59-.476 1.065-1.065 1.065M25.324 5.305c-.59 0-1.066-.476-1.066-1.064V3.077c0-.588.477-1.065 1.066-1.065.588 0 1.065.478 1.065 1.066V4.24c0 .59-.478 1.065-1.066 1.065M29.255 5.305c-.588 0-1.065-.476-1.065-1.064V3.077c0-.588.477-1.065 1.065-1.065s1.065.478 1.065 1.066V4.24c0 .59-.477 1.065-1.065 1.065" fill="#57585A" mask="url(#d)"/></g></svg>