<svg width="63" height="61" viewBox="0 0 63 61" xmlns="http://www.w3.org/2000/svg" xmlns:xlink="http://www.w3.org/1999/xlink"><title>Page 1</title><defs><path id="a" d="M17.454.066H.06V17.53h17.394V.065z"/><path id="c" d="M53.91 42.093H0V.063h53.91z"/></defs><g fill="none" fill-rule="evenodd"><path d="M38.986 8.802c0 4.134-3.338 7.485-7.456 7.485-4.117 0-7.455-3.35-7.455-7.485 0-4.133 3.338-7.484 7.455-7.484 4.118 0 7.456 3.35 7.456 7.484" fill="#BAC1E1"/><g transform="translate(22.774 .005)"><mask id="b" fill="#fff"><use xlink:href="#a"/></mask><path d="M8.757 2.56c-3.427 0-6.214 2.798-6.214 6.238 0 3.44 2.787 6.238 6.214 6.238 3.426 0 6.214-2.8 6.214-6.238 0-3.44-2.787-6.24-6.213-6.24m0 14.97C3.96 17.53.06 13.613.06 8.8.06 3.983 3.96.066 8.757.066c4.795 0 8.697 3.917 8.697 8.732 0 4.814-3.902 8.73-8.697 8.73" fill="#57585A" mask="url(#b)"/></g><path d="M12.806 51.85l-.583 4.694c0 1.515 1.235 2.755 2.744 2.755h3.693c1.51 0 2.744-1.24 2.744-2.756v-1.057c2.562.568 5.337.845 8.23.845 3.334 0 6.497-.432 9.35-1.262v1.474c0 1.515 1.235 2.755 2.744 2.755h3.694c1.51 0 2.743-1.24 2.743-2.756l-1.008-5.657c3.44-2.87 5.512-6.8 5.512-11.61 0-10.705-10.355-19.384-23.126-19.384-4.593 0-8.874 1.123-12.472 3.058-.985.53-5.346-3.77-6.22-3.124-.876.645 1.735 6.235.985 6.983-2.428 2.42-4.163 5.345-4.948 8.56l.003-.013H3.985c-1.51 0-2.744 1.24-2.744 2.754v3.274c0 1.515 1.236 2.755 2.745 2.755h3.167v.21c.996 3.234 2.976 5.58 5.653 7.5z" fill="#FFCD20"/><g transform="translate(0 18.452)"><mask id="d" fill="#fff"><use xlink:href="#c"/></mask><path d="M40.226 36.647v1.446c0 .83.674 1.507 1.502 1.507h3.694c.796 0 1.45-.625 1.5-1.413l-.987-5.532c-.083-.467.105-.932.47-1.21 3.285-2.76 5.022-6.43 5.022-10.62 0-10-9.817-18.137-21.883-18.137-4.236 0-8.346 1.006-11.886 2.91-1.16.625-2.527-.334-4.418-1.66-.313-.22-.72-.506-1.107-.762.124.49.275 1.017.39 1.418.648 2.266 1.076 3.763.19 4.648-2.302 2.294-3.896 5.04-4.61 7.945l-.007.024-.004.016c-.158.628-.767 1.023-1.393.925H3.984c-.828 0-1.502.678-1.502 1.51v3.273c0 .83.674 1.508 1.502 1.508h3.167c.33 0 .646.132.878.366.233.234.364.55.364.882v.02c.857 2.65 2.485 4.77 5.108 6.658.38.258.594.713.536 1.185l-.572 4.608c.035.8.694 1.442 1.5 1.442h3.694c.828 0 1.502-.676 1.502-1.507v-1.036c0-.058.002-.116.01-.176.08-.652.655-1.13 1.31-1.088.075.005.15.016.22.034 2.436.536 5.104.808 7.933.808 3.187 0 6.2-.403 8.954-1.198.07-.024.145-.042.223-.053.613-.086 1.195.294 1.365.892.036.124.05.25.048.372m5.196 5.446h-3.694c-2.15 0-3.91-1.72-3.982-3.863-2.548.596-5.27.897-8.11.897-2.46 0-4.814-.195-7.016-.58-.226 1.993-1.915 3.546-3.96 3.546h-3.693c-2.198 0-3.986-1.794-3.986-4 0-.052.005-.103.01-.155l.494-3.972c-2.57-1.983-4.31-4.294-5.296-7.032H3.985c-2.197 0-3.985-1.795-3.985-4v-3.275c0-2.207 1.788-4.002 3.985-4.002h1.963c.884-2.9 2.52-5.626 4.78-7.948-.05-.53-.383-1.695-.592-2.427C9.46 2.92 8.97 1.213 10.116.37c.937-.69 2.112-.034 2.554.213.61.34 1.312.833 1.992 1.31.626.44 1.625 1.14 2.114 1.354C20.608 1.25 25.016.195 29.544.195c6.467 0 12.557 2.12 17.147 5.967 2.255 1.89 4.027 4.095 5.27 6.555 1.294 2.567 1.95 5.295 1.95 8.11 0 4.73-1.866 8.893-5.406 12.088l.884 4.958c.012.072.02.146.02.22 0 2.206-1.79 4-3.986 4" fill="#57585A" mask="url(#d)"/></g><path d="M16.45 32.496c.05.085.12.155.205.206.084-.05.154-.12.205-.206-.05-.084-.12-.155-.205-.206-.084.05-.154.122-.205.206m.516 2.2h-.622c-1.037 0-1.88-.846-1.88-1.887v-.626c0-1.04.843-1.888 1.88-1.888h.622c1.037 0 1.88.847 1.88 1.888v.625c0 1.04-.843 1.886-1.88 1.886M24.636 25.57l-.002.002s.002 0 .002-.002zm0 0l-.003.003.002-.002zm-.003.003zm13.398 1.182c-.243 0-.49-.072-.705-.222-.022-.015-2.674-1.796-6.68-1.796-4.58 0-5.953.81-6.068.885-.5.416-1.245.375-1.696-.108-.468-.502-.444-1.29.056-1.762.376-.353 2.04-1.508 7.71-1.508 4.816 0 7.96 2.148 8.093 2.24.562.392.703 1.168.313 1.734-.24.35-.63.537-1.022.537zM51.02 33.32c-.462 0-.904-.26-1.12-.703-.298-.62-.04-1.365.575-1.666l4.29-2.09c.25-.122.53-.156.8-.1l2.22.472 3.422-1.67c.617-.3 1.36-.042 1.66.577.3.618.042 1.364-.575 1.665l-3.806 1.856c-.248.122-.53.157-.8.1l-2.218-.472-3.908 1.906c-.174.085-.36.125-.54.125" fill="#57585A"/><path d="M27.796 10.44c-.685 0-1.24-.557-1.24-1.245 0-2.872 2.326-5.21 5.187-5.21.686 0 1.242.56 1.242 1.247 0 .69-.556 1.247-1.242 1.247-1.492 0-2.705 1.217-2.705 2.715 0 .688-.556 1.246-1.242 1.246" fill="#FEFEFE"/></g></svg>