<svg width="30" height="29" viewBox="0 0 30 29" xmlns="http://www.w3.org/2000/svg"><title>Page 1</title><g fill="#424242" fill-rule="evenodd"><path d="M1.54 20.12H28.4V8.68H1.54v11.44zm27.63 1.533H.77c-.425 0-.77-.343-.77-.766V7.913c0-.423.345-.765.77-.765h28.4c.425 0 .77.342.77.765v12.974c0 .423-.345.766-.77.766z"/><path d="M6.95 7.148h16.04V1.532H6.95v5.616zm16.81 1.53H6.18c-.425 0-.77-.342-.77-.765V.766c0-.423.345-.766.77-.766H23.76c.427 0 .772.343.772.766v7.147c0 .423-.345.766-.77.766zM5.076 26.608h19.788v-4.955H5.076v4.955zm20.558 1.532H4.304c-.424 0-.77-.343-.77-.766v-6.487c0-.423.346-.766.77-.766h21.33c.426 0 .77.344.77.767v6.487c0 .423-.344.766-.77.766zM22.824 14.355c-.013 0-.024.01-.024.025 0 .026.048.026.048 0 0-.014-.01-.025-.024-.025m-.002 1.532c-.838 0-1.52-.677-1.52-1.51 0-.832.682-1.51 1.52-1.51.837 0 1.518.678 1.518 1.51 0 .833-.68 1.51-1.518 1.51"/><path d="M22.24 25.914H7.7c-.427 0-.77-.343-.77-.766s.343-.766.77-.766h14.54c.426 0 .77.343.77.766s-.344.766-.77.766M22.24 23.7H7.7c-.427 0-.77-.344-.77-.767 0-.423.343-.766.77-.766h14.54c.426 0 .77.343.77.766s-.344.766-.77.766"/></g></svg>