<svg width="68" height="81" viewBox="0 0 68 81" xmlns="http://www.w3.org/2000/svg" xmlns:xlink="http://www.w3.org/1999/xlink"><title>Page 1</title><defs><path id="a" d="M67.922 80.765H0V.135h67.922z"/></defs><g fill="none" fill-rule="evenodd"><path d="M60.13 79.975c0-.052-.523.108-1.465 0-.942.34-2.303-.138-3.978 0-1.674.268-3.663-.02-5.86 0h-3.443c-1.19.26-2.42.24-3.677 0-2.153-.112-4.383-.203-6.625 0-1.12.023-2.244.01-3.362-.002-1.117-.012-2.23-.023-3.328.002-1.1-.016-2.184.2-3.247 0-1.063 0-2.104.052-3.115 0-2.695-.032-5.176-.385-7.285 0-1.055-.006-2.017.04-2.866.063-.85.024-1.588.027-2.194-.063-1.21-.08-1.894-.127-1.894 0-1.3.04-2.52-.223-3.568-.965-1.05-.644-1.928-1.886-2.545-2.53-.618-1.318-.972-2.353-.972-3.548V8.085c0-1.293.354-2.633.97-3.548.618-1.157 1.496-1.816 2.546-2.53 1.05-.7 2.27-.988 3.568-.966 0-.14.523.167 1.465 0 .942-.142 2.303-.004 3.978 0h2.735c.98-.024 2.028-.025 3.127 0 1.923.184 4.007-.24 6.18 0 1.088-.028 2.197-.055 3.32-.06 1.124 0 2.26-.123 3.403.06 1.142-.17 2.29.084 3.433 0 1.143.138 2.282.018 3.41 0 1.126-.076 2.24-.1 3.334-.09 1.093.062 2.165.04 3.207.09 1.042-.09 2.054.052 3.027.018.974.106 1.908.11 2.795-.017.886-.19 1.725.015 2.508 0 .782-.068 1.51.06 2.17 0 1.323-.193 2.384-.005 3.116 0 .73.073 1.13.17 1.13 0 1.3-.018 2.52.18 3.57.966 1.048.527 1.927 1.344 2.543 2.53.617 1.044.97 2.257.97 3.55V72.93c0 .564-.087 1.298-.253 1.913-.166.712-.408 1.15-.717 1.635-.308.438-.682.934-1.11 1.327-.428.565-.91.542-1.434 1.203-.526.226-1.093.327-1.692.71-.598.184-1.228.248-1.877.255" fill="#FFCC21"/><g transform="translate(0 .1)"><mask id="b" fill="#fff"><use xlink:href="#a"/></mask><path d="M37.97 79.05c1.257 0 2.51.055 3.774.12.033.003.065.007.096.013 1.21.23 2.35.23 3.392.004.05-.01.1-.017.152-.017h3.44c.824-.007 1.613.028 2.375.06 1.228.056 2.39.107 3.375-.05.018-.004.036-.006.054-.007.82-.068 1.55 0 2.195.058.66.062 1.233.115 1.6-.018.102-.037.213-.05.32-.037.55.063.932.022 1.138 0 .098-.01.215-.023.336-.006.587-.013 1.067-.077 1.494-.2.435-.262.844-.4 1.207-.525.123-.04.24-.08.35-.123.302-.336.59-.515.83-.662.205-.126.34-.21.468-.378.025-.034.054-.065.085-.094.387-.356.738-.826 1-1.2.25-.393.47-.773.617-1.402l.006-.024c.14-.527.23-1.19.23-1.73V7.983c0-1.12-.302-2.224-.873-3.19l-.02-.035c-.513-.99-1.265-1.74-2.234-2.226-.038-.02-.074-.04-.108-.066-.736-.552-1.63-.81-2.87-.824-.272.137-.593.1-1.038.046-.12-.014-.255-.03-.405-.046-.22-.003-.46-.02-.713-.037-.62-.043-1.39-.097-2.26.03l-.042.005c-.363.032-.73.015-1.086 0-.356-.015-.723-.03-1.085 0-.016.002-.033.002-.05.003-.305.004-.61-.02-.906-.042-.51-.04-.99-.076-1.465.026l-.05.008c-.892.127-1.874.136-2.92.025-.427.012-.855-.006-1.27-.023-.55-.023-1.117-.046-1.67.002-.03.003-.063.004-.095.002-.47-.022-.942-.03-1.44-.038-.57-.01-1.16-.02-1.755-.053-1.187-.008-2.253.02-3.264.09l-.037.002c-.316.004-.633.018-.95.03-.806.033-1.638.067-2.487-.027-.53.032-1.043.003-1.54-.026-.62-.037-1.205-.07-1.77.015-.073.01-.147.01-.22 0-.75-.122-1.505-.1-2.305-.075-.326.01-.653.02-.98.02H28.6c-1.123.007-2.247.035-3.3.063-.032 0-.066 0-.098-.004-1.09-.12-2.185-.063-3.243-.01-1.003.053-1.95.102-2.902.014-1.057-.025-2.09-.025-3.067 0h-2.753c-.595 0-1.156-.02-1.65-.036-.897-.03-1.67-.055-2.22.03-.645.112-1.135.038-1.416-.01-.056.012-.11.017-.17.017-1.225-.025-2.29.263-3.162.845-.976.665-1.77 1.257-2.313 2.276l-.037.062c-.525.78-.85 1.99-.85 3.156V72.83c0 1.067.325 2.004.856 3.15.155.168.32.36.492.563.515.603 1.155 1.353 1.83 1.767l.038.025c.803.568 1.755.835 2.93.84.313-.126.82-.092 2.12-.006l.05.002c.018 0 .037.003.056.006.534.08 1.214.08 2.07.055.2-.005.408-.013.623-.02.66-.02 1.404-.05 2.2-.043 1.507-.264 3.155-.18 4.898-.092.797.04 1.62.083 2.46.092h.026c.64.034 1.29.023 1.977.012.364-.006.732-.01 1.103-.012.044 0 .088.004.13.013.594.11 1.223.073 1.89.03.395-.023.804-.047 1.222-.043 1.132-.026 2.305-.013 3.34-.002h.058c1.07.013 2.174.025 3.257.003.985-.088 1.957-.12 2.926-.12zm-29.47.825v.002-.002zm35.108.89c-.643 0-1.307-.063-1.985-.19-2.177-.113-4.31-.196-6.476 0-.017.003-.033.004-.05.004-1.113.022-2.238.01-3.326-.002h-.057c-1.03-.012-2.194-.025-3.305 0h-.027c-.37-.006-.736.018-1.126.042-.703.044-1.43.09-2.173-.04-.34 0-.678.005-1.014.01-.676.012-1.376.023-2.058-.01-.86-.012-1.694-.054-2.5-.095-1.683-.085-3.273-.166-4.635.082-.044.008-.095.01-.132.012-.79-.007-1.544.02-2.21.04-.217.01-.427.016-.63.02-.918.027-1.66.026-2.29-.064l-.02-.002c-.596-.04-1.206-.077-1.472-.074-.09.047-.195.075-.305.08-1.55.045-2.89-.318-3.98-1.083-.857-.532-1.572-1.37-2.147-2.042-.19-.223-.37-.433-.52-.59-.054-.056-.097-.12-.13-.19C.415 75.346 0 74.184 0 72.832V7.985c0-1.44.4-2.896 1.07-3.91.692-1.28 1.657-2.003 2.754-2.75C4.894.61 6.164.244 7.6.234c.204-.062.406-.027.553 0 .213.036.534.092.98.013C9.83.14 10.664.167 11.632.2c.51.017 1.036.034 1.607.036h2.733c.99-.026 2.054-.026 3.144 0 .017 0 .033.002.05.003.856.08 1.76.034 2.72-.016 1.1-.056 2.235-.115 3.423.01C26.355.208 27.47.18 28.594.175h.002c.316 0 .628-.01.942-.02.797-.025 1.62-.05 2.467.075.67-.09 1.322-.05 1.953-.015.495.03.964.057 1.423.023.046-.003.092-.002.137.003.76.092 1.522.06 2.328.028.323-.013.646-.026.968-.03C39.86.165 40.96.133 42.183.144h.035c.573.033 1.154.043 1.715.052.473.008.96.016 1.438.038.625-.05 1.224-.026 1.803-.002.424.017.825.033 1.213.02.035 0 .07 0 .103.004.936.103 1.808.1 2.59-.01.67-.14 1.296-.09 1.85-.048.264.02.513.04.748.037.445-.037.87-.02 1.243-.002.318.014.617.027.882.006 1.013-.145 1.862-.086 2.544-.038.254.017.473.033.66.034.02 0 .04 0 .063.004.17.017.326.035.462.05.085.01.182.023.262.03.097-.052.208-.082.326-.084 1.05-.016 2.598.08 3.954 1.07 1.207.62 2.146 1.558 2.79 2.79.692 1.18 1.058 2.523 1.058 3.888V72.83c0 .652-.105 1.45-.275 2.085-.198.844-.506 1.373-.805 1.84l-.018.028c-.296.42-.694.955-1.166 1.4-.276.345-.572.527-.812.675-.223.137-.4.245-.592.488-.072.09-.167.164-.275.21-.204.087-.406.156-.6.222-.342.117-.666.226-.99.433-.053.035-.11.062-.17.08-.606.188-1.267.28-2.08.29-.033 0-.062-.002-.092-.006-.005 0-.01 0-.014.002-.224.023-.672.07-1.295.014-.623.175-1.316.11-2.045.044-.608-.055-1.236-.113-1.923-.06-1.12.176-2.343.122-3.636.065-.744-.034-1.514-.068-2.304-.06H45.46c-.595.123-1.214.185-1.852.185z" fill="#4B5170" mask="url(#b)"/></g><path d="M37.51 47.043c-.89.234-2.086.35-3.584.35-1.5 0-2.694-.116-3.584-.35-.89-.232-1.51-.652-1.86-1.257-.353-.605-.563-1.14-.634-1.607-.07-.467-.105-1.19-.105-2.167v-22.15c0-.977.035-1.71.105-2.2.07-.49.292-1.036.668-1.64.374-.606 1.007-1.037 1.897-1.294.89-.256 2.084-.385 3.583-.385 1.5 0 2.693.13 3.584.384.89.256 1.51.698 1.862 1.327.35.628.562 1.187.632 1.676.07.49.105 1.223.105 2.2v22.15c0 .978-.036 1.7-.106 2.165-.07.467-.293.99-.668 1.573-.375.583-1.007.99-1.897 1.223m-9.416 8.14c.468-.908 1.183-1.525 2.143-1.852.96-.324 2.46-.488 4.497-.488 2.038 0 3.513.443 4.427 1.328.914.885 1.37 2.282 1.37 4.192v1.118c0 1.117-.034 1.945-.104 2.48-.07.536-.294 1.177-.668 1.922-.75 1.35-2.54 2.026-5.375 2.026s-4.708-.455-5.62-1.363c-.915-.908-1.372-2.666-1.372-5.275 0-1.816.235-3.18.704-4.087" fill="#4B5170"/></g></svg>