<svg width="35" height="33" viewBox="0 0 35 33" xmlns="http://www.w3.org/2000/svg" xmlns:xlink="http://www.w3.org/1999/xlink"><title>Page 1</title><defs><path id="a" d="M34.98.114H0V26.02h34.98V.115z"/></defs><g fill="none" fill-rule="evenodd"><g transform="translate(0 .003)"><mask id="b" fill="#fff"><use xlink:href="#a"/></mask><path d="M8.013 11.112c-3.373 0-6.118 2.895-6.118 6.455S4.64 24.02 8.013 24.02H28.45c2.555 0 4.635-2.192 4.635-4.888 0-2.65-2.19-4.89-4.78-4.89-.29 0-.56-.138-.74-.375-.18-.237-.25-.547-.186-.844.136-.64.205-1.304.205-1.97 0-4.93-3.8-8.94-8.474-8.94-2.132 0-4.08.834-5.63 2.412-1.493 1.518-2.498 3.63-2.83 5.95-.005.035-.012.072-.02.106-.13.53-.64.85-1.144.72-.48-.125-.975-.188-1.473-.188m20.437 14.91H8.013C3.595 26.02 0 22.227 0 17.566c0-4.662 3.595-8.455 8.013-8.455.317 0 .633.02.946.06.516-2.356 1.634-4.49 3.204-6.086C14.074 1.142 16.477.114 19.11.114c5.718 0 10.37 4.908 10.37 10.94 0 .43-.024.86-.07 1.285 1.333.234 2.573.89 3.572 1.908 1.288 1.312 1.997 3.046 1.997 4.884 0 3.798-2.93 6.89-6.53 6.89" fill="#FFF" mask="url(#b)"/></g><path d="M18.41 32.343c-.522 0-.947-.448-.947-1v-15.86l-3.416 3.606c-.37.39-.97.39-1.34 0-.37-.392-.37-1.025 0-1.415l5.03-5.306c.086-.095.192-.17.31-.223.165-.07.34-.09.507-.065h.002c.002 0 .002.002.003 0v.002c.017.002.034.006.05.01.173.04.336.13.467.265l.002.002v.002l5.017 5.292c.185.195.277.45.277.707 0 .256-.092.512-.277.707-.37.39-.97.39-1.34 0l-3.4-3.586v15.86c0 .55-.423 1-.946 1" fill="#FFF"/></g></svg>