<svg width="59" height="60" viewBox="0 0 59 60" xmlns="http://www.w3.org/2000/svg" xmlns:xlink="http://www.w3.org/1999/xlink"><title>Page 1</title><defs><path id="a" d="M0 59.033h58.954V.046H0z"/></defs><g fill="none" fill-rule="evenodd"><path d="M57.937 29.55c0 15.728-12.742 28.477-28.46 28.477S1.017 45.277 1.017 29.55c0-15.725 12.742-28.474 28.46-28.474s28.46 12.75 28.46 28.475" fill="#BAC1E1"/><g transform="translate(0 .012)"><mask id="b" fill="#fff"><use xlink:href="#a"/></mask><path d="M29.477 2.08c-3.705 0-7.3.727-10.68 2.16-3.27 1.382-6.204 3.362-8.725 5.884-2.52 2.522-4.5 5.458-5.88 8.728-1.432 3.384-2.157 6.98-2.157 10.687 0 3.706.725 7.302 2.156 10.687 1.383 3.27 3.362 6.206 5.882 8.728 2.52 2.522 5.456 4.502 8.724 5.885 3.382 1.43 6.976 2.157 10.68 2.157 3.706 0 7.3-.726 10.683-2.157 3.267-1.383 6.2-3.363 8.722-5.885 2.52-2.522 4.5-5.46 5.882-8.728 1.43-3.385 2.156-6.98 2.156-10.688s-.726-7.304-2.156-10.688c-1.382-3.27-3.36-6.206-5.882-8.728-2.52-2.522-5.455-4.502-8.723-5.885-3.384-1.433-6.978-2.16-10.683-2.16m0 56.953c-3.98 0-7.84-.78-11.474-2.318-3.51-1.486-6.663-3.612-9.37-6.32-2.706-2.71-4.83-5.863-6.316-9.375C.78 37.383 0 33.52 0 29.54c0-3.982.78-7.845 2.317-11.48 1.485-3.514 3.61-6.668 6.317-9.376 2.706-2.708 5.86-4.835 9.37-6.32C21.637.826 25.497.046 29.476.046c3.98 0 7.84.78 11.474 2.318 3.512 1.485 6.664 3.612 9.37 6.32 2.708 2.708 4.833 5.862 6.317 9.375 1.538 3.635 2.317 7.498 2.317 11.48 0 3.98-.78 7.843-2.317 11.48-1.484 3.512-3.61 6.666-6.316 9.374-2.706 2.71-5.858 4.835-9.37 6.32-3.633 1.54-7.494 2.32-11.473 2.32" fill="#4C5271" mask="url(#b)"/></g><path d="M33.53 27.597l-9.958-.865-6.647.097c0 .078-.255 1.7-.255 1.836 0-.283-.97 1.865-.97 2.245 0 .61-.152 2.282 0 2.808.154.138 1.99 3.502 2.143 3.622.153.237.56 2.504.56 2.654 0 .325 1.48 1.974 1.48 2.04 0-.372 1.53 2.727 1.53 2.705 0 .29.408-.635.408-.358 0 .1-1.733-2.392-1.733-2.858 0 .336-.97-2.43-.97-2.5 0 .103.766-.05.766 0 0 .144.612 2.12.765 1.94.152.147 2.427 2.857 2.447 2.806-.04.105.376.685.424.768l.683 1.193c.066.117.134.237.148.37.025.225-.108.433-.235.62.627.306 1.15.783 1.772 1.084.385.186.797.25 1.175.455.44.237.857.51 1.29.76.346.198.99.696 1.424.617.24-.044.713.166.996.17.404.005.766-.054 1.067-.354.78.364 1.562.73 2.344 1.093.276.13.574.26.875.213.346-.056.76-.543 1.094-.43.086.03.154.095.218.16l1.456 1.458c.198.198.4.4.65.53.288.148.618.19.94.23l1.414.17c.147.018.304.034.44-.03.36-.17.32-.776.68-.952.097.052.15.174.122.28l-.63-.39c-.063-.04-.13-.08-.204-.082-.298-.008-.28.484-.51.672-.22.18-.542.007-.768-.164-.36-.275-2.036-1.242-1.873-1.686.12-.33.507-1.012.38-1.37-.074-.215-.49-.22-.737-.273-.135-.028-1.43-.218-1.43-.368 0-.185-1.07.22-1.07.357 0-.235.153-1.8.153-1.837 0 .12.56-1.44.56-1.43 0-.45-1.886.08-1.886.205 0 .23-.714 1.208-.714 1.53 0-.264-2.856.62-2.856.358 0-.027-1.827-2.06-1.627-2.245.2.12.684-2.723.684-2.55 0-.22.076-1.147.23-1.48.152-.55 2.192-1.285 2.55-1.072.356-.405 3.365-.466 3.62-.49.255-.132 2.09.477 2.09.593 0-.18.816 1.07.816 1.53 0 .476.765.923.714-.102-.05-.23-.97-2.836-.97-2.856 0 .22-.254-1.174-.1-1.224.152-.272 1.988-2.272 1.988-2.5 0-.17-.46-2.68-.46-2.654 0-.04 1.327-1.67 1.327-1.837 0 .17 1.173-.85 1.173-.92 0-.263-1.122-.138-.97-.51.154-.16.97-1.716.97-1.887 0-.052.56.395.918.357.357.13 1.58-1.553 1.58-1.786 0 .026-1.886-.41-1.886-.306 0-.11-.663-1.216-.663-1.02 0 .288-1.122-.002-1.122 0 0 .4-1.275 3.307-1.275 3.01 0 .146-3.212 3.742-3.212 3.546l-.708-1.998-1.128-.63-1.5-1.07" fill="#FFCD20"/><path d="M41.457 24.734zm-1.122.002v.002-.002zm1.122.003v-.005.004zm3.188.38c-.044.026-.09.06-.134.1.044-.04.088-.072.135-.1zm-28.733 1.623zm-.004.084zm0 0v.003-.002zm25.635.416zm-.035.246zm0 0v.004-.003zm-.413.255zm-2.035 0zm2.035 0v.004-.004zm-25.442.92v.004-.004zm0 .004zm25.168.008zm-23.132-.012V28.667zm22.647 2.14zm2.034 0zm-2.035.002v.002-.002zm-23.624.206zm21.172.278zm1.163 1.623c.037.142.106.27.196.38-.09-.11-.157-.24-.195-.38zm-24.03 1.555h.002zm.002 0c0 .002.002.002.002.003 0 0-.002 0-.003-.002zm3.453 2.07s.002 0 .003.002l-.003-.003zm.003 0l.002.003-.002-.002zm2.414 2.33zm18.73.15v.003-.002zm-18.717 0v.003-.002zm0 .003v.002-.002zm16.68 0v.002-.002zm2.036 0v.002-.002zm-22.23.97v.002zm19.634.462zm0 .003zm0 .002zm0 .003zm0 .002v.002-.002zm0 .003v.002-.002zm0 .002v0zm0 .004c0 .034.003.067.005.1l-.005-.1zm.003.06v.002zm-.607.23h-.002.002zm-.002 0zm-3.324.26h-.002.002zm-.2.158zm-1.084.044h.003-.004zm-1.05.47v-.001zm7.08.288zm-18.97.052zm0 .002zm0 .002zm18.977.028zm-8.463 2.51h0zm3.663 1.23v.004-.003zm2.034.002v.003-.003zm1.804.198c-.047.113-.116.217-.203.306.086-.087.156-.19.204-.306zm-.477 1.024zm0 0v.004-.003zm-4.074.31v.002-.003zm-2.857.358zm7.848.81zm0 0v.003-.003zm0 .003v.003-.003zm-7.47.1c.056 0 .112.003.167.01-.052-.03-.102-.066-.152-.106-.093-.075-.17-.164-.233-.262l-.11-.13c-.243-.284-.65-.76-.984-1.196-.205-.268-.355-.483-.46-.66-.435-.734-.204-1.22-.004-1.46.12-.392.31-1.333.377-1.668.03-.138.052-.254.07-.336l.017-.08c.02-.35.083-1.145.278-1.643.083-.263.356-.855 1.74-1.41.717-.29 1.22-.377 1.572-.377.544-.216 1.513-.352 3.487-.438l.165-.007c.333-.067.76-.005 1.442.192.054.015.183.053.345.106-.04-.184-.09-.498-.118-.785-.018-.184-.024-.336-.017-.465.017-.337.13-.572.265-.735.113-.16.314-.4.762-.923.272-.317.73-.85.967-1.16-.1-.62-.34-1.95-.39-2.197-.018-.076-.028-.155-.028-.237 0-.176.024-.3.1-.445.03-.06.068-.12.11-.174.082-.12.192-.262.34-.453.215-.277.698-.9.842-1.127.06-.16.16-.3.288-.41-.01-.013-.017-.028-.025-.042-.168-.305-.186-.67-.05-1 .04-.095.092-.183.157-.262.158-.234.65-1.18.76-1.458.06-.28.238-.525.492-.67.136-.077.268-.116.39-.13-.113-.114-.2-.256-.25-.415-.02-.046-.056-.11-.096-.18-.093.246-.214.546-.37.915-.16.375-.32.73-.453 1-.11.23-.236.486-.425.682-.11.15-.256.32-.445.544-.29.344-.675.783-1.083 1.238-.42.468-.817.9-1.117 1.212-.54.566-.813.85-1.304.85-.295 0-.577-.13-.77-.352-.095-.108-.164-.232-.206-.366l-.568-1.604-.793-.443c-.033-.018-.064-.038-.095-.06l-1.272-.908-9.63-.837-5.726.084c-.05.33-.112.763-.124.88-.012.27-.13.513-.313.688-.202.39-.58 1.28-.655 1.58-.003.192-.014.44-.028.72-.02.422-.06 1.248-.027 1.617.157.25.42.707.943 1.625.346.608.863 1.515 1.008 1.732.03.035.058.072.084.11.084.13.177.276.38 1.22.095-.004.19.006.28.028.05-.004.1-.01.137-.014.334-.034.713-.074 1.066.244.182.162.3.386.33.625.054.23.293.972.44 1.32.01.007.018.015.027.023.08.078.213.23.948 1.092.466.544 1.226 1.434 1.436 1.658.177.144.297.342.347.558.06.104.166.264.207.324.05.075.08.12.107.167l.685 1.195c.09.156.24.42.278.766.01.102.01.2.003.29l.205.14c.265.18.515.35.76.468.116.056.255.1.417.154.242.078.515.167.8.322.275.15.537.31.79.462.18.11.35.212.52.31.09.05.182.11.28.172.138.088.415.264.556.314.053-.006.105-.01.157-.01zm-.256.023zm1.208.178c.26.005.298-.048.318-.076l.02-.023c-.17.036-.318.06-.452.066.046.016.09.03.114.034zm.008-.024zm1.385-.29l.073.03 2.217 1.034c-.167-.182-.27-.426-.27-.692 0-.14.023-.447.09-1.194-.138.397-.515.68-.96.68-.092 0-.18-.01-.266-.035-.22.033-.595.114-.885.177zm4.94 1.313l.105.106c.01-.027.023-.053.034-.08l.002-.002-.142-.025zm3.903 4.1c-.132 0-.245-.015-.33-.025l-1.413-.17c-.37-.046-.83-.102-1.285-.337-.392-.202-.674-.485-.9-.712l-1.184-1.185c-.193.117-.425.237-.71.28-.617.1-1.146-.147-1.462-.294l-1.833-.856c-.42.19-.84.214-1.16.21-.25-.003-.49-.065-.7-.12-.063-.016-.15-.04-.206-.05-.697.078-1.336-.328-1.81-.628-.076-.05-.15-.096-.197-.123-.194-.11-.383-.226-.565-.336-.243-.148-.473-.287-.706-.414-.12-.066-.277-.116-.458-.175-.203-.066-.433-.14-.674-.258-.38-.183-.703-.403-1.016-.616-.263-.18-.512-.348-.758-.468-.266-.13-.46-.368-.537-.653-.076-.284-.025-.587.14-.83l-.628-1.094c-.008-.012-.017-.027-.03-.044-.023.03-.05.06-.076.087-.04.04-.084.076-.13.11-.027.04-.057.084-.087.124-.444.593-1.014.483-1.178.436-.287-.084-.576-.317-.694-.677-.024-.05-.056-.112-.095-.188-.633-1.245-.945-1.818-1.097-2.07-.1-.077-.183-.172-.248-.28-.05-.066-.162-.2-.253-.31-1.02-1.24-1.346-1.707-1.37-2.196-.038-.325-.314-1.78-.44-2.207-.17-.25-.457-.748-1.11-1.893-.336-.592-.793-1.394-.92-1.586-.088-.107-.154-.23-.193-.364-.145-.5-.12-1.31-.066-2.4.013-.277.026-.54.026-.69 0-.15 0-.465.524-1.674.122-.284.248-.553.352-.757.04-.074.083-.16.137-.25l.12-.83c.038-.25.083-.56.094-.645.038-.522.47-.936 1-.943l6.647-.098c.035 0 .07 0 .103.004l9.958.865c.18.016.355.08.503.186l1.453 1.035 1.08.603c.216.12.38.315.463.548l.172.485c.752-.822 1.67-1.87 1.89-2.166.046-.09.106-.17.176-.242.268-.516.895-2.004.985-2.386.024-.277.162-.534.382-.708.144-.114.45-.29.883-.187.16.04.285.063.38.077.15-.084.322-.13.5-.13.637 0 .952.516 1.23.972l.073.12c.255.044.564.107.95.186.133.027.294.06.37.074.522.042.933.48.933 1.014 0 .25-.05.566-.672 1.4-.27.363-.678.855-1.075 1.132-.357.25-.675.3-.926.273-.11-.003-.22-.018-.324-.04l-.042.08-.01.02c.402.244.552.638.552.96 0 .53-.35.826-.882 1.273-.24.2-.43.348-.593.453-.18.27-.462.64-.9 1.204l-.058.077c.04.232.095.53.15.835.242 1.37.242 1.46.242 1.567 0 .48-.207.757-1.496 2.264-.174.203-.393.46-.53.627.014.142.04.32.062.444.015.035.027.07.038.108l.21.61c.57 1.644.738 2.14.775 2.31.013.056.02.112.023.17.044.883-.325 1.305-.643 1.503-.39.243-.875.248-1.297.014-.472-.264-.783-.77-.806-1.303-.05-.177-.265-.566-.41-.78l-.018-.014c-.288-.125-1.013-.347-1.3-.388l-.07.01-.337.017c-1.95.085-2.57.21-2.766.273-.25.187-.57.248-.87.17-.33.04-1.1.33-1.375.543-.063.23-.128.833-.128 1.024 0 .117-.02.23-.056.333l-.063.31c-.183.907-.31 1.517-.45 1.94.167.226.46.595.967 1.193.23-.043.515-.105.734-.153.38-.082.695-.15.96-.195.063-.117.133-.24.21-.375.062-.11.15-.266.196-.355.13-.682.89-.89 1.274-.996.263-.073.773-.194 1.228-.194.26 0 .478.04.67.12.45.19.73.602.73 1.076 0 .136-.027.27-.078.39l-.07.19-.287.77c-.06.15-.104.264-.14.35l-.01.02c-.002.04-.006.082-.01.133.125.015.244.05.355.103.074.037.143.08.206.132.14.034.388.085.83.16l.18.032.118.02c.333.048 1.11.163 1.373.91.2.57 0 1.162-.203 1.636.29.238.756.545.94.667l.08.053c.25-.32.62-.497 1.02-.487.29.008.514.117.644.193.18-.008.362.032.525.12.508.274.77.878.622 1.436-.082.313-.307.567-.607.687l-.084.03c-.134.223-.336.463-.66.616-.24.113-.475.142-.668.142z" fill="#4B5170"/><path d="M15.038 16.83c.102.272 3.978-4.748 3.978-4.95 0 .545 5.304 3.746 5.304 3.112 0 .114 3.442.117 3.442.46 0 .862 1.657-1.717 1.657-1.736 0 .183 2.04 2.16 2.04 2.347 0 .024-1.94 3.922-1.94 4.03 0 .12 1.43 2.45 1.43 2.297 0 .18 2.702.242 2.702 1.02 0-.127 1.02-1.068 1.02-.408 0-.154 1.326 2.062 1.326 2.246 0 .705.51-.27.51-.664 0-.154-.714-2.262-.714-1.888 0-.145.46-1.612.46-1.632 0-.212-.97-1.136-.97-1.327 0 .228-.918-1.718-.918-2.143 0 .286 4.385 2.428 4.385 1.735 0 .24.51-1.3.51-.767 0-.315 4.795 1.75 4.795 2.245 0 .212-.255 1.976-.255 1.225 0-.053-.204 1.195-.204 1.02 0 .247-2.04.87-2.04.92 0-.13-.97 1.814-.97 1.53 0-.473-.51 2.763-.51 2.245 0-.125-2.447 2.79-2.447 2.55 0 .188-1.02 1.006-1.02.996 0 .636-.05-2.13-.05-1.81 0-.16.56-.066.56-.46 0-.207-2.09-.572-2.09-.358 0 .57-.92-1.456-.92-1.07 0 .11-1.784-.3-1.784-.36 0-.35-.204.906-.204.92 0-.228-7.09-.258-7.09-.51 0-.167-1.81-.852-3.62-.664-1.81-.183-3.62-.754-3.62-.663 0-.333-1.275-2.556-1.275-2.195 0 .114.102-1.564.102-2.092 0-.022-.97-3.486-.97-3.112 0 .323-.612-1.61-.612-2.09" fill="#F5F3F1"/><path d="M31.8 20.004c.21-.436.474-.974.704-1.443.09.284.223.636.422 1.087.124.282.254.556.367.77.073.14.14.256.2.354.03.048.06.093.092.135l-.027-.008c-.47-.152-.982-.246-1.4-.315-.113-.18-.24-.384-.357-.578M19.017 9.844c-.805 0-1.5.467-1.83 1.146-.186.277-.785 1.09-1.59 2.12-.836 1.065-1.388 1.718-1.645 1.998-.574.364-.946 1.005-.946 1.72 0 .166 0 .606.354 1.807.082.278.168.544.243.75.053.142.1.26.148.36.056.12.118.23.183.327.186.584.503 1.687.65 2.212-.017.484-.064 1.314-.083 1.588-.01.083-.014.168-.014.253 0 .636.29 1.204.746 1.58.197.32.47.82.577 1.064.198.875.96 1.537 1.885 1.582.093.02.218.05.326.076.726.17 1.94.453 3.19.58.068.007.136.01.205.01.07 0 .14-.004.21-.01.138-.015.284-.023.434-.023.742 0 1.417.17 1.734.28.22.173.488.31.805.394.144.037.303.067.5.092.24.03.55.057.974.083.716.044 1.66.08 2.57.115.945.036 2.325.088 2.844.14.2.066.415.102.638.102.407 0 .786-.12 1.104-.326.056.075.11.142.167.204.386.428.815.612 1.162.687l.007.298c.003.12.005.22.008.29 0 .047.002.084.004.11 0 .034.003.06.004.08.003.037.008.08.013.12.135 1.012.998 1.77 2.018 1.77.69 0 1.29-.335 1.658-.855.065-.056.136-.117.21-.183.197-.175.356-.33.486-.47.037-.038.088-.093.147-.164.2-.175.383-.37.564-.566.3-.32.665-.73.987-1.09.16-.18.354-.396.51-.566.385-.242.688-.615.85-1.08.028-.077.052-.158.076-.255.024-.094.05-.21.08-.366.05-.245.11-.56.165-.863l.09-.47c.047-.072.098-.154.155-.25.114-.19.24-.416.355-.625.28-.1.603-.222.89-.345.266-.113.472-.214.648-.32.464-.277.746-.608.914-.93.092-.172.164-.366.213-.583l.05-.24.026-.148c.043-.092.08-.187.11-.29.03-.095.057-.2.084-.326.03-.147.063-.332.097-.55.08-.51.12-.873.12-1.082 0-.477-.16-1.178-.924-1.804-.193-.158-.432-.32-.732-.498-.547-.324-1.21-.645-1.67-.858-.595-.274-1.21-.534-1.732-.73-.392-.15-.69-.247-.934-.31-.268-.126-.564-.194-.867-.194-.59 0-1.136.247-1.536.687-.162-.066-.343-.145-.546-.238-.645-.296-1.102-.548-1.314-.677-.37-.386-.89-.627-1.468-.627-.32 0-.624.074-.894.207-.097-.673-.507-1.134-.818-1.482-.212-.237-.483-.525-.745-.803-.238-.25-.578-.61-.735-.793-.354-.602-1.008-1.007-1.756-1.007-.758 0-1.42.415-1.77 1.03-.078.125-.2.308-.334.498l-.138-.016c-.53-.062-1.147-.098-1.692-.13-.215-.012-.49-.028-.655-.04-.163-.043-.334-.066-.51-.066h-.075c-.34-.155-.933-.46-1.727-.94-.934-.568-1.524-1-1.77-1.204-.358-.58-1-.968-1.732-.968M36.56 29.457V29.456M16.522 24.1c-.002.034-.004.054-.005.054v-.01c0-.02 0-.034.005-.045M35.8 22.66c-.004.028-.006.048-.006.062 0-.028.002-.048.006-.06M19.016 11.878c0 .496 4.397 3.194 5.184 3.194.077 0 .12-.026.12-.082 0 .114 3.442.117 3.442.46 0 .123.034.176.092.176.35 0 1.565-1.896 1.565-1.912 0 .183 2.04 2.16 2.04 2.347 0 .024-1.94 3.922-1.94 4.03 0 .116 1.34 2.304 1.425 2.304.003 0 .004-.002.004-.007 0 .18 2.702.242 2.702 1.02 0-.095.565-.64.854-.64.1 0 .166.064.166.232 0-.005 0-.007.004-.007.083 0 1.322 2.075 1.322 2.253 0 .178.032.25.08.25.145 0 .43-.62.43-.914 0-.142-.603-1.932-.7-1.932-.005 0-.008.003-.01.01.044-.267.455-1.58.455-1.598 0-.212-.97-1.136-.97-1.327 0 .012-.002.018-.007.018-.09 0-.91-1.76-.91-2.16 0 .246 3.258 1.87 4.158 1.87.144 0 .227-.04.227-.136 0 .016.004.025.01.025.053 0 .37-.905.47-.905.02 0 .03.033.03.113 0-.022.025-.032.07-.032.583 0 4.725 1.817 4.725 2.278 0 .175-.174 1.41-.235 1.41-.012 0-.02-.054-.02-.185v-.002c-.008 0-.18 1.04-.2 1.04-.003 0-.004-.005-.004-.016 0 .246-2.04.868-2.04.918 0-.004 0-.006-.003-.006-.054 0-.842 1.565-.953 1.565-.008 0-.013-.008-.013-.027 0-.033-.002-.048-.007-.048-.055 0-.434 2.35-.495 2.35-.005 0-.008-.02-.008-.057 0-.003 0-.004-.003-.004-.094 0-2.26 2.57-2.434 2.57-.007 0-.01-.006-.01-.015 0 .185-1.008.994-1.02.994 0 .066 0 .095-.002.095-.008 0-.04-1.75-.048-1.92.03-.14.56-.063.56-.447 0-.162-1.292-.422-1.845-.422-.15 0-.246.02-.246.066 0 .07-.016.102-.04.102-.158 0-.743-1.222-.86-1.222-.012 0-.02.015-.02.05 0 .012-.025.018-.07.018-.33 0-1.714-.324-1.714-.376 0-.044-.003-.062-.01-.062-.037 0-.194.968-.194.98 0-.228-7.09-.258-7.09-.51 0-.147-1.403-.696-2.975-.696-.213 0-.428.01-.644.032-1.678-.17-3.356-.673-3.593-.673-.018 0-.028.002-.028.01 0-.308-1.09-2.234-1.255-2.235-.007 0-.013.005-.016.014.02-.228.1-1.6.1-2.067 0-.02-.873-3.14-.963-3.14-.004 0-.007.008-.007.028 0 .025-.003.037-.01.037-.08 0-.602-1.684-.602-2.128.003.006.008.01.016.01.288 0 3.962-4.763 3.962-4.96" fill="#4B5170"/><path d="M22.93 10.164c0 .188-1.683-2.796-1.683-2.755 0 .226 1.173-1.56 1.173-.868 0-.044.663 1.182 1.326 1.3.663.692 1.326 1.166 1.326 1.302 0-.12 1.35.932 1.35 1.275 0 .513-1.758.113-1.758.305 0 .11-1.734-.626-1.734-.56" fill="#F5F3F1"/><path d="M22.336 4.346c-1.096 0-1.758.784-2.29 1.413l-.013.015c-.498.37-.82.965-.82 1.634 0 .443.14.855.38 1.192.07.117.19.322.297.508.244.42.548.943.807 1.375.15.252.27.444.363.587.07.11.13.195.186.27.423.562.936.768 1.33.836l.337.126c.886.333 1.264.468 1.727.468.17 0 .334-.02.492-.06.16.01.36.02.563.02.433 0 .782-.046 1.097-.14 1.012-.307 1.666-1.16 1.666-2.173 0-1.004-.664-1.722-1.312-2.294-.283-.248-.53-.444-.76-.596l-.006-.005c-.124-.125-.264-.25-.426-.394-.23-.203-.488-.434-.74-.696-.203-.212-.448-.376-.718-.484-.046-.053-.11-.136-.2-.265-.034-.09-.076-.176-.122-.26-.373-.666-1.077-1.08-1.838-1.08zM21.248 7.41c.002 0 .01.01.025.033h-.004c-.015 0-.023-.01-.023-.034zm1.088-1.03c.053 0 .084.048.084.162V6.54c.023 0 .674 1.186 1.326 1.303.663.69 1.326 1.165 1.326 1.3 0-.006.004-.01.01-.01.13 0 1.34.96 1.34 1.286 0 .227-.343.275-.727.275-.285 0-.592-.027-.797-.027-.142 0-.234.013-.234.057 0 .008-.01.012-.024.012-.2 0-1.575-.577-1.7-.577-.007 0-.01 0-.01.004 0 .006-.002.01-.005.01-.09 0-1.502-2.494-1.663-2.745.112-.017.827-1.05 1.074-1.05z" fill="#4B5170"/><path d="M34.108 11.412c0 .037-1.734-.808-1.734-.867 0 .154.867-2.035.867-1.786 0 .017 4.284 2.39 4.437 1.785.153-.354 2.04 1.432 2.04 1.122v1.378c0 .045-1.428-.932-1.428-.46 0-.353.815.843.815 1.072 0 .51 1.07 1.29 1.07 1.02 0 .406-1.988.503-1.988 0 0 .548-1.224-2.41-1.224-2.55 0 .426-2.855-1.524-2.855-.715" fill="#F5F3F1"/><path d="M35.273 8.672zm-2.04-1.97c-.37 0-1.29.115-1.857 1.165-.05.094-.107.208-.176.358-.103.222-.22.494-.335.756-.062.144-.147.34-.205.467-.203.317-.32.694-.32 1.098 0 .577.24 1.1.624 1.47.244.24.527.406 1.388.83.865.427 1.223.604 1.753.604.146 0 .288-.016.426-.046.168.076.343.16.467.22l.436.204c.065.157.133.316.2.47.173.397.327.73.458.985.1.19.184.34.268.47.186.282.392.49.6.64.25.21.544.37.88.48.37.12.795.182 1.265.182.322 0 .808-.03 1.296-.17 1.304-.377 1.788-1.35 1.81-2.15v-.003-.005V14.683c0-.173-.02-.34-.06-.5v-.003-.002s-.002 0-.002-.002v-.003-.003s-.002 0-.002-.002v-.003c-.08-.3-.224-.575-.42-.804.017-.102.026-.208.026-.315V11.654c0-.92-.612-1.7-1.45-1.95l-.183-.136c-.83-.618-1.485-1.105-2.36-1.105-.15 0-.295.015-.437.044-.27-.103-.724-.296-1.437-.65-.624-.308-1.19-.614-1.448-.757-.338-.25-.755-.397-1.205-.397zm6.943 7.976zm-7.802-4.133c0 .003.002.007.007.012-.005 0-.006-.003-.006-.012zm.86-1.806c.004 0 .007.005.007.02s3.37 1.883 4.24 1.883c.11 0 .18-.03.197-.098.014-.032.042-.047.082-.047.362 0 1.69 1.206 1.922 1.206.023 0 .035-.012.035-.037v-.013 1.39c0 .002 0 .002-.002.002-.05 0-.932-.59-1.283-.59-.087 0-.142.036-.143.127v.002-.002c0-.043.013-.062.036-.062.158 0 .78.938.78 1.137 0 .44.79 1.076 1.012 1.076.037 0 .058-.017.058-.055 0 .213-.552.34-1.073.34-.47 0-.916-.102-.916-.34 0 .046-.01.067-.025.067-.173 0-1.2-2.49-1.2-2.62 0 .044-.028.063-.08.063-.374 0-1.945-.975-2.542-.975-.145 0-.232.057-.232.2h-.003c-.07 0-1.63-.76-1.727-.86.064-.033.775-1.814.855-1.814z" fill="#4B5170"/><path d="M29.568 7.625c.102.07.816-.74.816-.562 0 .167.356 1.462.356 1.684 0-.208-.586.492-.586.46 0 .125-.586-.787-.586-1.582" fill="#F5F3F1"/><path d="M30.363 5.002c-.832 0-1.346.462-1.722.8l-.03.026c-.662.353-1.077 1.044-1.077 1.797 0 .76.24 1.457.444 1.91.1.224.215.44.33.624.57.904 1.316 1.094 1.84 1.094.572 0 1.09-.237 1.46-.618l.094-.094c.64-.343 1.075-1.018 1.075-1.795 0-.345-.078-.684-.254-1.418-.037-.16-.092-.39-.115-.497-.114-1.03-.986-1.83-2.042-1.83m0 2.034c.013 0 .02.008.02.026 0 .167.357 1.462.357 1.684 0-.027-.01-.04-.027-.04-.112 0-.536.5-.558.5 0 .007-.003.01-.008.01-.064 0-.58-.847-.58-1.592.005.003.01.004.017.004.13 0 .668-.593.78-.593" fill="#4B5170"/><path d="M26.092 2.393c0-.13 1.275 1.188 1.275 1.224 0 .062-.637.143-.637.408 0-.204-1.262-.657-1.262-.714 0-.047.624-.538.624-.917" fill="#F5F3F1"/><path d="M26.1.348c-.888 0-1.646.57-1.926 1.366l-.04.04c-.19.192-.7.702-.7 1.557 0 .39.12 1.35 1.248 1.895.092.045.193.09.31.14.08.038.22.1.334.154.365.347.86.56 1.404.56.527 0 1.008-.2 1.37-.53h.004c.788-.33 1.298-1.08 1.298-1.913 0-.82-.443-1.29-.735-1.602-.13-.138-.295-.308-.452-.465-.193-.194-.362-.357-.5-.483-.276-.25-.79-.72-1.614-.72m0 2.037c.11 0 1.267 1.2 1.267 1.233 0 .062-.637.143-.637.408 0-.204-1.262-.657-1.262-.714 0-.047.624-.538.624-.917 0-.006.003-.01.01-.01" fill="#4B5170"/><path d="M18.71 11.47c0-.066-1.045 1.26-2.09 2.578-1.046 1.09-2.09 2.32-2.09 2.577 0 .086-1.174-2.178-1.174-1.99 0-.013-2.193.477-2.193.663 0-.142-.56-2.345-.56-2.194 0 .172 2.4-2.198 2.4-2.04.776-1.63 2.098-2.12 3.746-1.822 0 .312 1.96 2.5 1.96 2.23" fill="#FFCD20"/><path d="M15.886 7.124V9.16 7.124c-1.914 0-3.475.902-4.45 2.555-.063.053-.125.107-.185.16-.227.2-.512.463-.788.717-.258.236-.62.57-.832.753-.632.347-1.063 1.02-1.063 1.794 0 .28.056.545.158.787.107.38.36 1.385.42 1.674.13 1 .984 1.77 2.018 1.77.41 0 .793-.122 1.113-.332.03-.01.066-.02.102-.03l.244.44.128.218c.57.932 1.432 1.033 1.777 1.033.866 0 1.606-.543 1.9-1.307.21-.295.808-1.01 1.66-1.898.044-.046.086-.095.126-.145l.23-.29c.565-.713 1.313-1.658 1.61-2.01.424-.38.692-.93.692-1.542 0-.773-.435-1.45-1.074-1.794-.312-.316-.83-.914-1.037-1.204-.257-.63-.82-1.107-1.523-1.234-.42-.075-.832-.114-1.224-.114m-5.28 5.973c.002 0 .007.01.015.027h-.003c-.01 0-.015-.004-.015-.015 0-.01 0-.013.003-.013m8.125-1.628c.002 0 .003 0 .003.003 0 .027-.01.04-.032.04-.006 0-.013-.002-.02-.004.026-.027.043-.04.05-.04m-2.844-2.31c.276 0 .564.028.863.082 0 .288 1.678 2.182 1.93 2.25-.182.18-1.12 1.37-2.06 2.556-1.046 1.09-2.09 2.32-2.09 2.577l-.003.002c-.04 0-1.08-2.003-1.166-2.003-.003 0-.004.003-.004.01-.054 0-2.193.48-2.193.664 0-.13-.472-1.992-.55-2.185.17-.02 2.24-2.056 2.38-2.056.006 0 .008.002.008.007.638-1.334 1.64-1.904 2.886-1.904" fill="#4B5170"/></g></svg>