<svg width="66" height="53" viewBox="0 0 66 53" xmlns="http://www.w3.org/2000/svg" xmlns:xlink="http://www.w3.org/1999/xlink"><title>Page 1</title><defs><path id="a" d="M60.38.02H.007v19.306H60.38V.02z"/><path id="c" d="M0 52.47h65.98V.02H0z"/></defs><g fill="none" fill-rule="evenodd"><path fill="#BAC1E1" d="M51.846 43.758h4.2V18.343h-4.2"/><path d="M52.857 42.737h2.18V19.364h-2.18v23.373zm-2.02 2.043h6.22V17.322h-6.22V44.78z" fill="#57585A"/><path fill="#BAC1E1" d="M11.5 43.758h4.2V18.343h-4.2"/><path d="M12.51 42.737h2.18V19.364h-2.18v23.373zm-2.02 2.043h6.22V17.322h-6.22V44.78z" fill="#57585A"/><path fill="#BAC1E1" d="M31.673 43.758h4.2V18.343h-4.2"/><path d="M32.683 42.737h2.18V19.364h-2.18v23.373zm-2.02 2.043h6.22V17.322h-6.22V44.78z" fill="#57585A"/><path fill="#BAC1E1" d="M21.586 43.758h4.2V18.343h-4.2"/><path d="M22.597 42.737h2.18V19.364h-2.18v23.373zm-2.02 2.043h6.22V17.322h-6.22V44.78z" fill="#57585A"/><path fill="#BAC1E1" d="M41.76 43.758h4.2V18.343h-4.2"/><path d="M42.77 42.737h2.18V19.364h-2.18v23.373zm-2.02 2.043h6.22V17.322h-6.22V44.78z" fill="#57585A"/><g transform="translate(0 .038)"><path d="M61.636 14.384L37.14 2.436c-1.835-.818-2.772-1.394-3.44-1.394-.564 0-1.853.617-3.758 1.595L5.86 14.384c-2.124 1.1-1.45 3.916 1.15 3.916l42.454.004h5.079c2.983-.003 1.174-.004 5.942-.004 2.6 0 3.39-2.757 1.15-3.916z" fill="#FFCD20"/><g transform="translate(3.58)"><mask id="b" fill="#fff"><use xlink:href="#a"/></mask><path d="M2.73 15.298c-.524.276-.784.72-.68 1.162.096.396.508.82 1.38.82 5.516 0 29.58 0 42.454.002H50.96c1.093 0 1.543-.002 1.91-.002h4.035c.91 0 1.34-.447 1.43-.828.103-.43-.17-.86-.73-1.154L33.137 3.364c-.543-.242-1-.46-1.405-.652-.698-.332-1.357-.645-1.608-.65-.482.037-2.532 1.09-3.305 1.486l-.02.01-24.07 11.74zm42.53 4.028c-13.012-.003-36.402-.005-41.83-.005-.837 0-1.596-.23-2.194-.668-.58-.424-.987-1.032-1.15-1.712-.326-1.366.37-2.76 1.732-3.465l.022-.01L25.913 1.72C28.206.545 29.358.02 30.12.02c.697 0 1.403.335 2.47.843.4.19.85.404 1.378.638l.032.016L58.506 13.47l.01.005c1.41.73 2.11 2.087 1.784 3.456-.34 1.43-1.706 2.39-3.395 2.39-2.925 0-3.374.002-3.973.003v.002H45.26z" fill="#57585A" mask="url(#b)"/></g><path d="M63.465 46.625h-1.48v-1.68c0-.53-.43-.965-.957-.965H6.723c-.526 0-.956.434-.956.966v1.68h-1.48c-.526 0-.956.434-.956.965v1.86c0 .53.43.965.956.965h59.18c.524 0 .954-.434.954-.965v-1.86c0-.53-.43-.965-.955-.965" fill="#FFCD20"/><path d="M4.34 49.394h59.07v-1.747h-2.437V45H6.778v2.647H4.34v1.747zm59.125 2.043H4.285c-1.083 0-1.965-.892-1.965-1.987v-1.86c0-1.095.882-1.986 1.966-1.986h.47v-.658c0-1.096.883-1.988 1.967-1.988h54.305c1.084 0 1.966.892 1.966 1.988v.658h.47c1.085 0 1.967.89 1.967 1.987v1.86c0 1.095-.88 1.987-1.965 1.987z" fill="#57585A"/><mask id="d" fill="#fff"><use xlink:href="#c"/></mask><path fill="#57585A" mask="url(#d)" d="M5.767 47.647H61.86v-2.043H5.768"/><path d="M18.806 11.624c-.264 0-.518-.147-.645-.4-.18-.36-.036-.8.32-.98L33.68 2.465c.356-.182.79-.038.97.322.18.36.038.798-.318.98L19.13 11.545c-.103.053-.215.08-.324.08" fill="#FEFEFE" mask="url(#d)"/><path d="M37.205 10.268c0 1.917-1.537 3.47-3.433 3.47-1.895 0-3.432-1.553-3.432-3.47 0-1.916 1.537-3.47 3.432-3.47 1.896 0 3.433 1.554 3.433 3.47" fill="#F5F3F1" mask="url(#d)"/><path d="M33.772 7.82c-1.335 0-2.422 1.098-2.422 2.448 0 1.35 1.087 2.45 2.422 2.45 1.336 0 2.423-1.1 2.423-2.45S35.108 7.82 33.772 7.82m0 6.94c-2.45 0-4.443-2.015-4.443-4.492 0-2.476 1.992-4.49 4.442-4.49s4.444 2.014 4.444 4.49c0 2.477-1.994 4.49-4.444 4.49" fill="#57585A" mask="url(#d)"/><path d="M64.343 11.782L39.7 31.248l-9.15-5.27-26.854 25.11c-.715.572-1.763.45-2.33-.274-.565-.723-.442-1.782.273-2.354l28.33-26.58 9.54 5.487L62.285 9.153c.715-.572 1.763-.448 2.33.275.565.723.443 1.782-.272 2.354" fill="#86AC5A" mask="url(#d)"/><path d="M30.116 23.14L2.296 49.235l-.03.025c-.276.22-.324.642-.106.92.21.27.61.324.885.125l27.36-25.586 9.206 5.3 24.107-19.04c.133-.108.218-.263.238-.437.02-.175-.027-.346-.133-.48-.107-.137-.26-.223-.433-.243-.175-.02-.344.027-.478.134l-23.31 18.64-9.486-5.455zM2.674 52.47c-.104 0-.21-.007-.315-.02-.71-.083-1.344-.44-1.785-1.002-.904-1.155-.72-2.832.402-3.76l28.85-27.065 9.59 5.515 22.24-17.786c.56-.445 1.256-.645 1.966-.562.71.084 1.342.44 1.783 1.004.442.564.64 1.27.556 1.986-.082.716-.435 1.357-.992 1.803l-.005.003-25.177 19.888-9.096-5.24-26.338 24.63-.03.025c-.475.38-1.05.58-1.65.58z" fill="#57585A" mask="url(#d)"/></g></g></svg>