<svg width="52" height="50" viewBox="0 0 52 50" xmlns="http://www.w3.org/2000/svg" xmlns:xlink="http://www.w3.org/1999/xlink"><title>Page 1</title><defs><path id="a" d="M44.902 45.15H0V.01h44.902V45.15z"/><path id="c" d="M23.323 21.85V.03H.01V21.85h23.313z"/></defs><g fill="none" fill-rule="evenodd"><path d="M22.45 26.792L41.58 16.93c1.512 2.957 2.365 6.31 2.365 9.862 0 11.933-9.622 21.606-21.492 21.606-11.87 0-21.49-9.673-21.49-21.606 0-11.932 9.62-21.605 21.49-21.605 4.545 0 8.76 1.418 12.232 3.837l-12.23 17.768z" fill="#FFCD20"/><g transform="translate(0 4.212)"><mask id="b" fill="#fff"><use xlink:href="#a"/></mask><path d="M22.45 1.94c-2.772 0-5.46.544-7.992 1.62-2.445 1.04-4.64 2.53-6.527 4.425-1.885 1.896-3.366 4.103-4.4 6.56-1.07 2.545-1.613 5.248-1.613 8.035s.543 5.49 1.613 8.035c1.034 2.458 2.515 4.665 4.4 6.56 1.887 1.897 4.083 3.386 6.528 4.425 2.53 1.077 5.22 1.622 7.993 1.622 2.773 0 5.462-.545 7.993-1.622 2.445-1.04 4.64-2.528 6.527-4.424 1.886-1.896 3.367-4.103 4.4-6.56 1.072-2.545 1.615-5.25 1.615-8.036 0-2.995-.62-5.87-1.84-8.555L19.487 25.19 33.336 5.075C30.076 3.02 26.333 1.94 22.45 1.94m0 43.21c-3.03 0-5.97-.598-8.738-1.775-2.674-1.136-5.075-2.764-7.136-4.836-2.062-2.073-3.68-4.487-4.81-7.174C.593 28.583 0 25.626 0 22.58c0-3.046.594-6.002 1.765-8.785 1.13-2.687 2.75-5.1 4.81-7.173 2.062-2.072 4.463-3.7 7.137-4.836C16.48.608 19.42.012 22.452.012c4.594 0 9.013 1.386 12.776 4.01l.787.547-10.602 15.4 15.76-8.127.853-.356.405.79c1.64 3.207 2.472 6.674 2.472 10.303 0 3.047-.594 6.003-1.765 8.786-1.13 2.687-2.75 5.1-4.81 7.173-2.063 2.07-4.464 3.7-7.137 4.835-2.768 1.177-5.71 1.774-8.74 1.774" fill="#57585A" mask="url(#b)"/></g><path d="M31.017 19.268l19.127-9.862C48.524 6.234 43.248 1.5 43.248 1.5l-12.23 17.768z" fill="#BAC1E1"/><g transform="translate(28.043 .027)"><mask id="d" fill="#fff"><use xlink:href="#c"/></mask><path d="M15.365 2.934L5.935 16.63l14.826-7.644c-1.4-2.153-4.064-4.79-5.395-6.052zM.01 21.85L15.035.03l.81.726c.22.198 5.426 4.89 7.11 8.184l.37.723-.713.538L.01 21.85z" fill="#57585A" mask="url(#d)"/></g><path d="M23.877 32.39c-.293.216-.76.364-1.4.446V28c.682.255 1.164.502 1.448.74.48.414.718.974.718 1.684 0 .932-.255 1.588-.766 1.967m-2.594-3.92v4.404c-.935-.165-1.563-.524-1.883-1.077-.205-.354-.365-1.052-.48-2.09h-3.323c-.025 2.284.665 3.9 2.068 4.85.795.527 2.002.882 3.618 1.063v2.462h1.194v-2.486c1.272-.1 2.37-.438 3.3-1.015 1.517-.94 2.276-2.45 2.276-4.527 0-1.576-.552-2.797-1.655-3.663-.133-.103-.29-.21-.475-.32M19.695 20.482c.345-.367.874-.558 1.588-.575v4.343c-.6-.19-1.042-.396-1.33-.62-.516-.403-.775-.952-.775-1.644 0-.635.173-1.137.517-1.504m.59 6.812l.54.16 1.905-2.77-.253-.088v-4.714c.81.058 1.37.38 1.678.965.152.288.332 1.293.332 1.293l2.127-3.11s-.615-.62-1-.868c-.76-.552-1.806-.882-3.137-.99v-1.67h-1.194v1.646c-.837.066-1.473.17-1.908.31-.713.222-1.362.626-1.944 1.212-.45.453-.8.994-1.052 1.62-.25.628-.375 1.324-.375 2.092 0 1.163.322 2.157.966 2.98.643.826 1.75 1.47 3.316 1.932" fill="#FF7738"/><path d="M6.092 19.205c-.146 0-.294-.034-.433-.105-.473-.24-.66-.82-.422-1.295 2.11-4.183 5.317-7.26 9.53-9.143.482-.216 1.05.003 1.264.49.215.485-.003 1.055-.486 1.27-3.8 1.7-6.692 4.477-8.598 8.255-.17.335-.506.528-.856.528" fill="#FEFEFE"/></g></svg>