<svg width="55" height="48" viewBox="0 0 55 48" xmlns="http://www.w3.org/2000/svg"><title>Page 1 Copy 2</title><g stroke="#FFCB3B" stroke-width="2" fill="none" fill-rule="evenodd"><path d="M5.563 24.48c-5.74-5.322-5.74-13.952 0-19.276 5.74-5.323 15.047-5.323 20.788 0M48.038 25.316c1.165 1.08.963 3.016-.447 4.323-1.41 1.31-3.5 1.493-4.66.416M42.928 30.055c1.164 1.08.916 3.06-.555 4.423-1.47 1.364-3.608 1.596-4.772.516M37.6 34.994c1.166 1.08.998 2.983-.373 4.254-1.37 1.27-3.423 1.427-4.588.347M32.682 20.554l10.245 9.5M27.356 25.493l10.245 9.5M5.563 24.48l3.517 3.262M28.382 6.65c5.74-5.324 15.047-5.324 20.788 0 5.74 5.323 5.74 13.953 0 19.276M34.323 39.692l-6.842 6.345M27.48 46.037c-1.164 1.08-3.193.947-4.53-.293-1.34-1.242-1.48-3.125-.316-4.204M22.632 41.54c-1.164 1.08-3.238.907-4.634-.387-1.396-1.295-1.583-3.218-.42-4.298"/><path d="M17.58 36.855c-1.165 1.08-3.162.978-4.462-.228-1.3-1.205-1.41-3.057-.246-4.137M12.87 32.49c-1.163 1.08-3.16.977-4.46-.228-1.3-1.206-1.41-3.058-.246-4.138M31.844 41.99c1.165-1.08 1.223-3.026-.117-4.27-1.34-1.24-3.37-1.37-4.532-.29M27.194 37.428c1.165-1.08.978-3.004-.418-4.298-1.396-1.295-3.473-1.468-4.637-.39"/><path d="M22.14 32.74c1.164-1.08 1.054-2.93-.248-4.137-1.3-1.208-3.297-1.31-4.462-.23"/><path d="M17.43 28.374c1.165-1.08 1.055-2.932-.248-4.138-1.3-1.207-3.297-1.31-4.46-.23M12.875 23.864l-4.712 4.26M17.98 27.816l-5.616 5.176M22.716 32.206l-5.753 5.222M27.77 36.893l-5.6 5.077M25.453 17.137c-2.315 2.146-6.066 2.146-8.38 0L28.38 6.65M25.453 17.137l6.882-6.382 15.702 14.56M26.35 5.205l1.794 1.663"/></g></svg>