<svg width="41" height="49" viewBox="0 0 41 49" xmlns="http://www.w3.org/2000/svg"><title>Group</title><g fill="none" fill-rule="evenodd"><path d="M15.66 5.85c0 2.672-2.168 4.84-4.842 4.84-2.676 0-4.844-2.168-4.844-4.84 0-2.675 2.168-4.842 4.844-4.842 2.674 0 4.842 2.167 4.842 4.84" fill="#BAC2E2"/><path d="M10.818 1.96c-2.145 0-3.89 1.745-3.89 3.89 0 2.143 1.745 3.887 3.89 3.887 2.144 0 3.89-1.744 3.89-3.888 0-2.145-1.746-3.89-3.89-3.89m0 9.683c-3.196 0-5.797-2.6-5.797-5.794C5.02 2.653 7.623.053 10.82.053s5.795 2.6 5.795 5.795c0 3.194-2.6 5.793-5.795 5.793" fill="#57585A"/><path fill="#BAC2E2" d="M18.203 14.216H3.432L.954 29.076h4.043L6.56 47.545h8.514l1.565-18.467h4.04"/><path d="M7.437 46.59h6.76l1.492-17.594c.04-.493.453-.873.95-.873h2.916l-2.16-12.954H4.24L2.08 28.122h2.917c.495 0 .908.38.95.873l1.49 17.594zm7.637 1.907H6.56c-.494 0-.907-.38-.95-.873L4.12 30.03H.955c-.28 0-.547-.124-.728-.337-.18-.214-.26-.497-.213-.773L2.49 14.06c.078-.46.476-.798.942-.798h14.77c.467 0 .865.337.942.797l2.478 14.86c.046.276-.032.56-.213.773-.182.213-.448.337-.73.337h-3.165l-1.49 17.594c-.043.494-.456.873-.95.873z" fill="#57585A"/><path d="M7.437 46.59h6.76l1.492-17.594c.04-.493.453-.873.95-.873h2.916l-2.16-12.954H4.24L2.08 28.122h2.917c.495 0 .908.38.95.873l1.49 17.594zm7.637 1.907H6.56c-.494 0-.907-.38-.95-.873L4.12 30.03H.955c-.28 0-.547-.124-.728-.337-.18-.214-.26-.497-.213-.773L2.49 14.06c.078-.46.476-.798.942-.798h14.77c.467 0 .865.337.942.797l2.478 14.86c.046.276-.032.56-.213.773-.182.213-.448.337-.73.337h-3.165l-1.49 17.594c-.043.494-.456.873-.95.873z" stroke="#57585A" stroke-width=".01"/><path d="M8.53 6.485c-.525 0-.952-.427-.952-.953 0-1.608 1.308-2.916 2.916-2.916.527 0 .953.427.953.953s-.426.952-.953.952c-.556 0-1.01.453-1.01 1.01 0 .526-.426.953-.953.953M5.16 22.367c-.052 0-.105-.005-.16-.014-.518-.088-.868-.58-.78-1.1l.75-4.425v-.874h4c.528 0 .954.427.954.953 0 .527-.426.953-.953.953H6.73l-.63 3.712c-.08.466-.482.795-.94.795" fill="#FEFEFE" opacity=".6"/><g><path d="M34.66 5.85c0 2.672-2.168 4.84-4.842 4.84-2.676 0-4.844-2.168-4.844-4.84 0-2.675 2.168-4.842 4.844-4.842 2.674 0 4.842 2.167 4.842 4.84" fill="#FFCD20"/><path d="M29.818 1.96c-2.145 0-3.89 1.745-3.89 3.89 0 2.143 1.745 3.887 3.89 3.887 2.144 0 3.89-1.744 3.89-3.888 0-2.145-1.746-3.89-3.89-3.89m0 9.683c-3.196 0-5.797-2.6-5.797-5.794 0-3.196 2.602-5.796 5.798-5.796s5.795 2.6 5.795 5.795c0 3.194-2.6 5.793-5.795 5.793" fill="#57585A"/><path fill="#FFCD20" d="M37.203 14.216H22.432l-2.478 14.86h4.043l1.564 18.468h8.514l1.565-18.467h4.04"/><path d="M26.437 46.59h6.76l1.492-17.594c.04-.493.453-.873.95-.873h2.916l-2.16-12.954H23.24l-2.16 12.953h2.917c.495 0 .908.38.95.873l1.49 17.594zm7.637 1.907H25.56c-.494 0-.907-.38-.95-.873L23.12 30.03h-3.166c-.28 0-.547-.124-.728-.337-.18-.214-.26-.497-.213-.773l2.478-14.86c.078-.46.476-.798.942-.798h14.77c.467 0 .865.337.942.797l2.478 14.86c.046.276-.032.56-.213.773-.182.213-.448.337-.73.337h-3.165l-1.49 17.594c-.043.494-.456.873-.95.873z" fill="#57585A"/><path d="M26.437 46.59h6.76l1.492-17.594c.04-.493.453-.873.95-.873h2.916l-2.16-12.954H23.24l-2.16 12.953h2.917c.495 0 .908.38.95.873l1.49 17.594zm7.637 1.907H25.56c-.494 0-.907-.38-.95-.873L23.12 30.03h-3.166c-.28 0-.547-.124-.728-.337-.18-.214-.26-.497-.213-.773l2.478-14.86c.078-.46.476-.798.942-.798h14.77c.467 0 .865.337.942.797l2.478 14.86c.046.276-.032.56-.213.773-.182.213-.448.337-.73.337h-3.165l-1.49 17.594c-.043.494-.456.873-.95.873z" stroke="#57585A" stroke-width=".01"/><path d="M27.53 6.485c-.525 0-.952-.427-.952-.953 0-1.608 1.308-2.916 2.916-2.916.527 0 .953.427.953.953s-.426.952-.953.952c-.556 0-1.01.453-1.01 1.01 0 .526-.426.953-.953.953M24.16 22.367c-.052 0-.105-.005-.16-.014-.518-.088-.868-.58-.78-1.1l.75-4.425v-.874h4c.528 0 .954.427.954.953 0 .527-.426.953-.953.953h-2.24l-.63 3.712c-.08.466-.482.795-.94.795" fill="#FEFEFE" opacity=".6"/></g></g></svg>