<svg width="313" height="281" viewBox="0 0 313 281" xmlns="http://www.w3.org/2000/svg" xmlns:xlink="http://www.w3.org/1999/xlink"><title>Page 1</title><defs><path id="a" d="M97.3 66.692V.362H.535v66.33H97.3z"/></defs><g fill="none" fill-rule="evenodd"><path d="M310.97 143.148c-.003 3.84-.112 7.697-.34 11.552-1.744 49.48-34.156 95.626-79.55 114.86-2.747 1.16-5.538 2.234-8.37 3.217-2.834.984-5.71 1.877-8.623 2.678-11.656 3.202-23.93 4.912-36.605 4.912-21.727 0-42.28-5.026-60.553-13.977-4.57-2.238-8.996-4.72-13.26-7.434-10.02-6.928-19.264-15.063-27.43-24.15-2.72-3.028-5.32-6.163-7.79-9.394-5.98-8.103-11.065-16.872-15.194-26.08-4.13-8.75-7.302-19.536-9.452-28.71-1.075-5.6-1.894-10.058-2.448-14.916-.477-4.19-.79-6.485-.934-10.812-.206-9.66.427-16.12 1.802-23.57 1.375-6.56 3.49-15.89 6.253-22.73 2.76-7.19 6.168-13.858 10.123-20.74 3.955-6.63 8.46-13.808 13.413-20.313 2.832-2.593 5.81-6.267 8.925-10.23 6.972-7.616 14.755-14.134 23.127-18.807 8.372-5.3 17.333-9.473 26.657-13.632 4.663-.574 9.416-3.395 14.233-4.663 7.668-1.51 15.456-2.056 23.267-4.004 7.81-.962 15.644-.514 23.402.407 15.516 1.667 30.73 6.05 44.862 12.7 14.132 6.65 27.18 15.57 38.36 26.307 3.115 2.984 6.078 5.977 8.864 9.243 8.105 10.61 14.055 22.63 18.442 35.277 1.462 4.217 2.742 8.5 3.836 12.823 2.208 8.243 2.898 17.197 4.03 26.154.495 5.333.85 10.742.95 14.034" fill="#F6F3F1"/><path d="M263.247 240.046c-.203.4-.427.778-.667 1.136-.232.363-.468.715-.722 1.05-.5.684-1.035 1.33-1.6 1.954-1.128 1.243-2.386 2.372-3.63 3.535-1.254 1.15-2.55 2.278-3.926 3.337-.69.53-1.4 1.038-2.135 1.523-.367.243-.753.466-1.13.7-.385.223-.783.43-1.176.647l.258-.167c-2.684 2.196-5.55 4.153-8.504 5.92-2.954 1.772-5.992 3.36-9.03 4.887l.155-.09-1.16.73-1.188.676c-.802.427-1.615.824-2.436 1.195-.822.36-1.647.702-2.474 1.022-.827.315-1.65.62-2.472.914-1.638.59-3.252 1.158-4.817 1.79-.782.317-1.55.65-2.31.996-.755.35-1.493.73-2.223 1.12l-.155.084-.15.044c-3.322.996-6.654 2.206-10.12 3.195-.865.246-1.74.476-2.623.69-.886.21-1.78.397-2.683.562l-1.364.215-1.378.164-1.39.104-1.4.04.595-.122-1.343.52-1.367.445c-.92.27-1.846.496-2.78.677-.933.176-1.87.313-2.805.416-.934.1-1.867.167-2.795.21-3.712.17-7.33-.02-10.84.127l-.176.007-.166-.03c-3.32-.612-6.718-.914-10.146-1.08-3.43-.167-6.894-.2-10.388-.32l-1.337-.074-1.367-.125c-.9-.1-1.786-.227-2.67-.375-1.76-.3-3.494-.69-5.2-1.123-3.416-.862-6.736-1.896-10.05-2.74l-.104-.026-.096-.04c-4.6-1.91-9.45-3.318-14.29-5.064-1.21-.44-2.416-.9-3.614-1.397-1.21-.51-2.36-1.027-3.54-1.59-2.327-1.113-4.598-2.316-6.83-3.57-2.233-1.255-4.428-2.56-6.606-3.874l-1.63-.99-.408-.246-.244-.15-.198-.13-.797-.522c-1.075-.712-2.133-1.43-3.185-2.165-4.195-2.947-8.265-6.077-12.134-9.446l.554.31c-1.067-.34-1.95-.876-2.75-1.444-.802-.574-1.477-1.216-2.145-1.858-1.294-1.3-2.437-2.663-3.553-3.998l-1.66-1.97-.832-.947-.88-.947-.876-.96-.887-1.02c-.582-.684-1.15-1.358-1.697-2.054-2.217-2.758-4.216-5.647-6.17-8.538l-5.748-8.674-.057-.086-.043-.083c-2.407-4.634-4.947-9.22-7.342-13.946-1.196-2.362-2.348-4.762-3.407-7.21-.27-.612-.523-1.23-.78-1.846l-.095-.23-.023-.058-.012-.03c-.043-.097.046.1.03.07l-.052-.11-.212-.444-.424-.876c-.577-1.18-1.17-2.438-1.66-3.74-.493-1.302-.897-2.63-1.228-3.956-.164-.663-.317-1.326-.453-1.988l-.198-.994-.095-.496-.09-.402-1.77-7.67c-.584-2.568-1.155-5.15-1.647-7.765l-.18-.983-.088-.492-.082-.533-.276-1.98c-.174-1.32-.32-2.642-.45-3.965-.26-2.646-.44-5.295-.552-7.947-.113-2.66-.157-5.292-.128-7.964.033-2.658.145-5.317.338-7.97.1-1.325.216-2.65.353-3.97l.22-1.982.13-1.063.162-.97c.867-5.18 1.765-10.396 3.09-15.584l.516-1.925c.168-.622.376-1.317.57-1.948.4-1.29.843-2.55 1.277-3.788.876-2.473 1.686-4.896 2.377-7.38l.035-.122.054-.123c1.407-3.183 2.717-6.484 4.152-9.755 1.446-3.272 2.957-6.55 4.983-9.695l.04-.062.112-.137c.257-.318.525-.612.776-.948.255-.33.51-.656.755-1.004.498-.68.98-1.392 1.455-2.112.952-1.44 1.876-2.927 2.806-4.423 1.863-2.99 3.733-6.03 5.888-8.957l.17-.233.25-.175c.515-.364 1.052-.877 1.572-1.43.523-.55 1.033-1.168 1.54-1.794 1.015-1.262 2.01-2.6 3.073-3.94.53-.668 1.083-1.336 1.665-1.997.297-.33.592-.66.913-.98l.406-.424.428-.457c.556-.606 1.173-1.227 1.773-1.843.61-.6 1.21-1.205 1.835-1.785 2.477-2.348 5.103-4.54 7.843-6.564 2.737-2.032 5.594-3.89 8.513-5.622l.054-.032.064-.032c3.706-1.844 7.315-4.046 10.992-6.207 1.84-1.08 3.697-2.16 5.594-3.19.95-.515 1.912-1.017 2.882-1.507.975-.483 1.962-.95 2.962-1.397l-.13.064c5.01-2.71 10.205-5.113 15.592-7.054 2.692-.972 5.43-1.83 8.21-2.546 1.363-.356 2.725-.703 4.123-1.034 1.384-.33 2.774-.637 4.168-.926C146.486 1.22 152.162.414 157.89.146L158.9.1l1.063-.07c.792-.034 1.54-.038 2.27-.018 1.473.04 2.902.157 4.295.26 2.78.213 5.443.352 7.9-.152l.22-.044.195.008 1.99.083 1.98.137c1.32.113 2.632.25 3.94.415 1.307.17 2.61.362 3.905.574 1.294.217 2.584.45 3.87.7 5.134 1 10.177 2.244 15.198 3.376l.1.023.093.032c3.735 1.296 7.536 2.513 11.323 3.893.947.345 1.892.7 2.834 1.07l.354.14c-.134-.05-.03-.013-.057-.023l.01.004.023.007.044.015.088.03.176.062.716.254 1.44.533c1.913.735 3.82 1.582 5.65 2.608.914.513 1.81 1.068 2.674 1.665l1.223.83 1.195.758c1.642 1.01 3.363 1.942 5.118 2.903.877.48 1.762.97 2.644 1.487.88.518 1.763 1.05 2.625 1.633.865.572 1.708 1.194 2.53 1.84.412.325.808.67 1.21 1.007l1.163 1.062-.232-.187c2.967 2.01 5.708 4.258 8.35 6.57 2.64 2.316 5.178 4.71 7.717 7.06l-.21-.166c.767.53 1.515 1.082 2.22 1.67.708.588 1.39 1.196 2.042 1.828.656.627 1.287 1.273 1.896 1.934.615.658 1.207 1.33 1.782 2.013 2.307 2.728 4.383 5.592 6.37 8.49l1.51 2.075 1.526 2.138c1.01 1.43 2.01 2.876 2.985 4.34 1.95 2.924 3.812 5.927 5.52 9.024l-.154-.228c.724.934 1.26 1.872 1.755 2.808.493.936.93 1.872 1.35 2.803.838 1.862 1.595 3.726 2.41 5.49l.067.143.036.142c.577 2.257 1.228 4.487 1.92 6.733.688 2.244 1.412 4.534 1.985 6.888.588 2.35 1.015 4.734 1.353 7.108.324 2.333.688 4.637 1.06 6.974.374 2.334.72 4.727.926 7.122.213 2.394.328 4.78.404 7.153l.1 3.538c.04 1.183.064 2.388.072 3.576.02 2.386-.025 4.773-.124 7.153-.102 2.38-.256 4.753-.443 7.12l-.145 1.77-.077.887-.023.266-.027.22-.052.438c-.14 1.175-.294 2.367-.457 3.538-.653 4.703-1.42 9.363-2.17 14.023-.388 2.337-.735 4.636-1.15 7.005-.422 2.353-.95 4.744-1.678 7.057-.718 2.328-1.635 4.553-2.47 6.728-.834 2.178-1.584 4.36-2.226 6.594l-.02.067-.025.062c-1.405 3.508-2.894 6.982-4.462 10.42l-1.19 2.572c-.4.856-.823 1.7-1.31 2.515-.483.815-1.014 1.607-1.606 2.366-.594.757-1.246 1.485-2.026 2.142.073-1.018.267-1.97.51-2.893.24-.926.535-1.822.868-2.7.328-.878.71-1.73 1.107-2.576l1.166-2.548c1.536-3.406 2.992-6.85 4.364-10.323l-.044.13c.65-2.305 1.425-4.593 2.27-6.825.845-2.235 1.717-4.382 2.38-6.57.678-2.193 1.16-4.42 1.562-6.713.39-2.28.737-4.65 1.11-6.97.728-4.66 1.474-9.316 2.097-13.964.156-1.167.3-2.315.434-3.484l.05-.44.025-.22.013-.175.07-.877.138-1.756c.175-2.34.315-4.675.404-7.01.087-2.335.122-4.667.09-7-.013-1.172-.042-2.326-.086-3.5l-.116-3.537c-.086-2.34-.21-4.67-.426-6.975-.21-2.306-.55-4.585-.93-6.91-.38-2.32-.765-4.676-1.1-7.015-.338-2.294-.754-4.56-1.322-6.787-.554-2.23-1.263-4.44-1.97-6.703-.706-2.26-1.388-4.56-1.99-6.872l.102.284c-.875-1.872-1.636-3.724-2.454-5.517-.407-.894-.825-1.774-1.27-2.61-.444-.835-.922-1.638-1.432-2.29l-.087-.11-.065-.118c-1.666-2.992-3.488-5.902-5.412-8.758-.962-1.428-1.95-2.843-2.953-4.25l-3.08-4.25c-1.952-2.84-3.974-5.614-6.168-8.2-.547-.647-1.107-1.28-1.682-1.893-.57-.617-1.158-1.215-1.76-1.79-.6-.578-1.22-1.127-1.852-1.65-.63-.527-1.286-1.008-1.95-1.466l-.12-.084-.09-.083c-2.557-2.362-5.075-4.727-7.658-6.984-2.582-2.254-5.226-4.41-8.012-6.29l-.102-.07-.13-.118-1.043-.95c-.363-.3-.716-.61-1.087-.9-.743-.58-1.503-1.142-2.3-1.665-.786-.533-1.612-1.028-2.447-1.518-.835-.488-1.694-.96-2.562-1.436-1.74-.95-3.523-1.908-5.275-2.982-.44-.265-.886-.56-1.33-.84l-1.246-.845c-.774-.533-1.573-1.028-2.397-1.488-1.646-.92-3.387-1.693-5.192-2.38l-1.36-.504-.694-.244-.422-.148-.342-.133c-.91-.357-1.83-.7-2.755-1.036-3.698-1.34-7.486-2.548-11.276-3.855l.19.054c-5.07-1.136-10.078-2.362-15.1-3.33-1.256-.242-2.512-.468-3.77-.677-1.255-.204-2.513-.387-3.772-.55-1.258-.155-2.517-.286-3.776-.392l-1.89-.127-1.887-.076.414-.036c-3.073.627-6.093.432-8.9.23-1.41-.104-2.78-.21-4.12-.246-.67-.018-1.33-.012-1.942.01-.326.014-.694.047-1.04.07l-1.095.05c-5.503.256-10.99 1.033-16.42 2.15-1.356.28-2.71.58-4.06.9-1.337.317-2.698.663-4.053 1.017-2.663.683-5.294 1.507-7.887 2.442-5.19 1.87-10.223 4.194-15.096 6.827l-.06.032-.07.03c-.942.423-1.878.864-2.808 1.326-.93.468-1.853.95-2.773 1.448-1.84.998-3.66 2.055-5.487 3.128-3.654 2.144-7.312 4.38-11.224 6.33l.117-.064c-2.824 1.674-5.574 3.463-8.2 5.412-2.63 1.942-5.14 4.038-7.51 6.283-.6.554-1.174 1.135-1.756 1.705-.564.58-1.125 1.142-1.7 1.766l-.887.938c-.27.268-.53.56-.793.85-.52.593-1.033 1.208-1.54 1.85-1.014 1.274-2.01 2.615-3.087 3.955-.544.67-1.095 1.34-1.722 2.002-.626.658-1.29 1.316-2.14 1.918l.42-.407c-2.03 2.752-3.865 5.723-5.728 8.715-.933 1.498-1.87 3.006-2.86 4.507-1 1.5-2.034 2.998-3.283 4.448l.152-.2c-1.815 2.808-3.294 5.973-4.7 9.167-1.41 3.206-2.71 6.482-4.163 9.772l.09-.246c-.718 2.57-1.573 5.126-2.45 7.598-.433 1.237-.86 2.453-1.237 3.668-.192.622-.36 1.184-.535 1.827l-.504 1.875c-1.274 4.98-2.165 10.116-3.028 15.28l-.162.97-.106.89-.213 1.93c-.133 1.286-.248 2.575-.344 3.865-.19 2.58-.297 5.163-.33 7.75-.03 2.573.013 5.187.122 7.77.11 2.588.285 5.174.536 7.75.126 1.287.268 2.572.436 3.85l.267 1.918.067.44.084.477.176.952c.477 2.54 1.037 5.082 1.617 7.63l1.766 7.666.123.558.09.47.185.936c.128.622.27 1.237.42 1.847.305 1.22.667 2.405 1.102 3.557.435 1.154.96 2.273 1.533 3.45l.434.894.213.443.053.11.09.21.092.224.752 1.782c1.022 2.368 2.14 4.7 3.315 7.02 2.347 4.636 4.89 9.233 7.32 13.912l-.1-.17 5.71 8.7c1.904 2.873 3.86 5.69 5.926 8.393.512.677 1.05 1.34 1.578 1.99l.802.96.86.975.872.978.867 1.024 1.652 2.044c1.08 1.348 2.148 2.666 3.277 3.85.57.57 1.148 1.137 1.752 1.585.6.45 1.22.818 1.81 1.012l.327.107.228.203c3.762 3.323 7.687 6.467 11.806 9.34 1.03.72 2.07 1.428 3.11 2.117l.795.52.2.13.162.1.406.247 1.625.983c2.165 1.31 4.335 2.596 6.526 3.83 2.19 1.23 4.407 2.404 6.658 3.483 1.11.53 2.277 1.056 3.406 1.53 1.146.474 2.31.92 3.486 1.348 4.708 1.702 9.627 3.128 14.41 5.113l-.197-.065c3.413.868 6.732 1.88 10.052 2.705 1.66.413 3.318.78 4.98 1.056.828.136 1.663.25 2.488.34l1.225.108 1.264.067c3.445.105 6.926.125 10.432.282 3.505.155 7.043.452 10.553 1.084l-.34-.023c3.71-.168 7.323.025 10.832-.146.875-.044 1.745-.108 2.607-.2.86-.095 1.712-.222 2.553-.382.84-.164 1.667-.368 2.482-.606l1.208-.395 1.184-.458.29-.113.304-.01 1.248-.036 1.25-.096 1.252-.15 1.253-.2c.834-.153 1.668-.328 2.5-.525.833-.205 1.664-.424 2.495-.66 3.327-.953 6.637-2.16 10.077-3.196l-.305.128c.797-.43 1.6-.843 2.416-1.22.816-.38 1.64-.73 2.467-1.058 1.655-.655 3.315-1.225 4.942-1.797.813-.286 1.616-.576 2.41-.873.793-.3 1.57-.615 2.338-.946.762-.336 1.508-.695 2.238-1.077l1.076-.602 1.045-.647.1-.063.055-.027c3.023-1.494 6.005-3.027 8.875-4.72 2.87-1.69 5.624-3.546 8.2-5.622l.103-.083.153-.082 1.034-.56c.337-.207.68-.4 1.013-.62.668-.433 1.325-.895 1.97-1.383 1.29-.978 2.536-2.046 3.762-3.154l1.83-1.69c.602-.575 1.218-1.14 1.866-1.676.65-.538 1.33-1.046 2.048-1.513.73-.472 1.486-.893 2.32-1.218.175-.07.374.018.443.194.038.094.03.197-.013.28" fill="#4B5170"/><path d="M186.447 127.348l-46.746-4.054-31.204.455c0 .368-1.197 7.963-1.197 8.607 0-1.327-4.55 8.738-4.55 10.52 0 2.856-.718 10.685 0 13.15.72.65 9.337 16.412 10.055 16.974.718 1.112 2.633 11.73 2.633 12.433 0 1.527 6.943 9.252 6.943 9.564 0-1.746 7.182 12.773 7.182 12.672 0 1.36 1.916-2.97 1.916-1.675 0 .476-8.14-11.206-8.14-13.388 0 1.57-4.548-11.393-4.548-11.716 0 .482 3.59-.233 3.59 0 0 .677 2.873 9.937 3.59 9.086.716.695 11.398 13.39 11.492 13.154-.195.49 1.764 3.21 1.986 3.598l3.21 5.59c.313.543.632 1.105.7 1.727.11 1.055-.512 2.033-1.108 2.91 2.94 1.433 5.397 3.666 8.318 5.077 1.806.872 3.74 1.168 5.512 2.13 2.06 1.118 4.024 2.4 6.058 3.563 1.626.93 4.654 3.267 6.685 2.896 1.122-.204 3.348.777 4.675.794 1.896.024 3.595-.25 5.007-1.655 3.67 1.706 7.34 3.412 11.01 5.12 1.297.602 2.693 1.222 4.106.998 1.634-.258 3.574-2.54 5.144-2.012.404.136.72.446 1.022.747l6.838 6.837c.93.93 1.878 1.873 3.046 2.476 1.353.7 2.903.894 4.415 1.077l6.638.803c.693.084 1.43.16 2.062-.137 1.7-.8 1.51-3.64 3.195-4.466.456.245.705.82.573 1.317-.986-.61-1.97-1.22-2.955-1.833-.297-.184-.612-.374-.96-.383-1.397-.038-1.314 2.27-2.394 3.153-1.03.84-2.543.03-3.602-.773-1.697-1.288-9.56-5.82-8.794-7.9.566-1.538 2.383-4.74 1.793-6.42-.352-1.004-2.307-1.033-3.466-1.275-.63-.133-6.708-1.024-6.708-1.73 0-.865-5.028 1.04-5.028 1.675 0-1.102.72-8.435.72-8.607 0 .564 2.632-6.755 2.632-6.695 0-2.112-8.858.362-8.858.957 0 1.07-3.35 5.658-3.35 7.172 0-1.242-13.407 2.903-13.407 1.674 0-.13-8.578-9.658-7.64-10.52.937.555 3.21-12.76 3.21-11.955 0-1.028.36-5.368 1.078-6.932.718-2.58 10.294-6.015 11.97-5.02 1.676-1.9 15.8-2.188 16.997-2.3 1.197-.62 9.815 2.234 9.815 2.778 0-.837 3.83 5.012 3.83 7.172 0 2.23 3.592 4.324 3.352-.478-.24-1.09-4.548-13.298-4.548-13.39 0 1.027-1.198-5.502-.48-5.737.718-1.273 9.336-10.646 9.336-11.715 0-.788-2.154-12.56-2.154-12.433 0-.19 6.223-7.823 6.223-8.607 0 .793 5.507-3.978 5.507-4.303 0-1.238-5.267-.65-4.55-2.39.72-.753 4.55-8.046 4.55-8.848 0-.243 2.633 1.853 4.31 1.674 1.675.618 7.42-7.276 7.42-8.367 0 .12-8.858-1.92-8.858-1.435 0-.51-3.11-5.698-3.11-4.78 0 1.35-5.27-.01-5.27 0 0 1.875-5.983 15.498-5.983 14.105 0 .685-15.08 17.534-15.08 16.616l-3.323-9.36-5.296-2.953-7.033-5.01" fill="#FFF"/><path d="M230.165 118.73v.002-.003zm2.76.003zm0 .005zm0 .004v.002-.002zm0 .004v.003-.004zm0 .005v.003-.002zm0 .006zm-.002.004zm-5.63 8.095v.003-.003zm-11.49 1.194v.003-.004zm2.757 0v.003-.003zm-112.64 4.306v.003-.004zm115.867 10.04v.002-.003zm2.76 0v.002-.003zm-122.778 14.598c.02.022.04.04.055.053-.02-.017-.038-.035-.056-.053zm11.886 14.923h0zm96.624 4.51c-.027.013-.054.023-.083.032.03-.01.056-.02.083-.032zm-.083.033h-.003.003zm-.004 0s-.002 0-.003.002c0 0 .002 0 .003-.002zm-86.435 4.357l.002.074c0-.018 0-.043-.002-.073zm-2.757.074c0 .223.053.422.14.595-.09-.363-.14-.58-.14-.594zm-4.197 4.4zm.006.028c.004.054.008.093.008.116 0-.053-.005-.093-.01-.116zm81.616.714h-.002.002zm10.558 1.553v.004-.005zm-2.758 0v.004-.005zm0 .006v.004-.003zm0 .005v.003-.003zm0 .005zm-67.48 16.033zm0 .002l-.002.004v-.005zm26.49 6.195h.003-.004zm18.966 10.032v.004-.004zm14.07 12.547c.308 0 .62.045.932.15.72.243 1.203.726 1.556 1.08l6.84 6.835c.844.845 1.716 1.717 2.704 2.228 1.15.594 2.57.765 3.947.932l1.625.197-.068-.052c-.308-.234-.906-.628-1.598-1.085-4.897-3.23-8.57-5.902-7.656-8.387.144-.393.343-.84.573-1.358.46-1.038 1.397-3.146 1.242-4.016-.308-.158-1.114-.277-1.565-.344-.328-.048-.64-.096-.913-.153-.092-.02-.31-.055-.614-.106-3.84-.646-5.78-1.075-6.63-1.764-.85.178-2.464.793-3.023 1.173-.242.402-.682.672-1.187.672-.76 0-1.38-.617-1.38-1.377 0-.787.29-3.97.585-7.162.073-.787.126-1.36.135-1.502v-.014c.003-.36.142-.68.37-.918.428-.992 1.51-3.928 1.95-5.116.007-.023.015-.045.024-.067-1.5-.03-4.738.71-5.96 1.25-.23.686-.722 1.563-1.49 2.908-.58 1.015-1.66 2.902-1.712 3.46v.036c-.018.745-.63 1.337-1.38 1.337-.29 0-.56-.09-.782-.245-1.013.037-3.77.635-5.653 1.044-5.506 1.195-6.883 1.4-7.774.684-.18-.147-.325-.328-.423-.53-.144-.175-.402-.476-.737-.868-7.296-8.532-7.966-10.082-6.61-11.33.058-.052.12-.1.183-.14.623-1.446 1.76-7.08 2.148-9.007.13-.632.236-1.163.316-1.535.03-.15.07-.33.127-.514.044-1.276.363-5.323 1.156-7.16.647-1.976 3.726-3.574 6.22-4.575 1.47-.587 4.718-1.758 6.765-1.465 1.665-.94 5.625-1.66 15.864-2.105.558-.024.973-.04 1.19-.055 2.443-.526 9.328 2.054 10.476 2.717.523.13 1.265.73 2.862 3.53.87 1.526 1.907 3.643 1.907 5.066 0 .38.275.756.5.94.06-.223.12-.613.1-1.22-.29-1.054-2.39-7.09-3.416-10.047-.487-1.395-.765-2.197-.925-2.678-.22-.35-.31-.763-.36-.993-.997-4.643-.503-6.096.058-6.616.496-.7 1.586-1.978 3.395-4.087 1.864-2.176 4.923-5.744 5.53-6.808-.21-1.628-1.877-10.885-2.09-11.897-.03-.112-.046-.23-.046-.348 0-.534 0-.534 1.877-2.952 1.297-1.673 3.965-5.11 4.38-5.957.14-.62.704-1.05 1.36-1.075.692-.433 2.097-1.584 3.132-2.5l-.044-.007c-1.356-.24-2.756-.488-3.352-1.57-.293-.533-.317-1.16-.068-1.764.065-.16.16-.304.278-.428.687-.815 3.882-6.967 4.175-8.04.05-.44.31-.848.698-1.068.745-.424 1.347-.066 2.042.346.574.34 2.102 1.248 2.794 1.17.11-.01.22-.01.328.005.877-.42 3.902-3.74 5.267-5.956-.184-.04-.38-.078-.594-.122-1.62-.33-4.878-.99-5.855-1.052-.136.045-.282.07-.436.07-.675 0-1.235-.483-1.355-1.123-.204-.524-1.16-2.165-1.854-3.206-.665.185-1.852.253-4.124-.19-.53 1.796-1.607 4.457-2.552 6.672-2.184 5.116-3.038 6.632-3.672 7.08-.783 1.115-2.635 3.33-7.022 8.21-7.672 8.533-8.135 8.533-8.836 8.533-.366 0-.732-.164-.99-.422-.15-.147-.266-.33-.338-.53h-.003l-3.148-8.87-4.843-2.7c-.045-.025-.088-.053-.13-.082l-6.727-4.79-46.302-4.016-29.94.438c-.073.504-.177 1.208-.325 2.208-.272 1.842-.684 4.62-.707 5.056-.007.522-.304.974-.738 1.202-1.05 1.78-3.76 8.155-3.81 9.308 0 .85-.06 2.09-.13 3.53-.14 2.924-.35 7.276.018 8.998.555.774 1.69 2.724 4.724 8.042 1.902 3.336 4.5 7.888 5.027 8.563.073.07.138.15.194.237.94 1.453 2.695 11.687 2.843 13.052.242.837 2.54 3.726 4.096 5.632-.357-.9-.788-2.055-1.33-3.537-1.35-3.69-1.856-5.252-2.047-5.94-.073-.174-.113-.36-.115-.55v-.02c0-.76.62-1.377 1.38-1.377.242 0 .47.063.667.172.38-.006 1.058-.078 1.458-.12 1.306-.138 1.846-.196 2.38.285.268.24.437.59.462.95.162 1.038 1.908 6.435 2.73 7.9.164.065.316.163.446.29.295.285 1.46 1.64 4.245 4.893 2.526 2.95 6.298 7.354 7.048 8.1.385.255.613.687.616 1.14.146.355.622 1.138 1.42 2.33.19.282.33.496.383.59l3.21 5.59c.346.6.774 1.346.873 2.266.102.95-.174 1.806-.54 2.53 1.042.602 2.026 1.27 2.987 1.92 1.346.915 2.618 1.778 3.993 2.44.75.364 1.545.622 2.385.895 1.043.34 2.122.69 3.186 1.266 1.22.665 2.416 1.387 3.57 2.087.835.505 1.668 1.01 2.514 1.493.34.195.74.447 1.176.725 1.302.827 3.484 2.213 4.575 2.01.92-.168 1.99.11 3.124.406.65.17 1.39.36 1.816.367 1.953.027 3.083-.326 4.015-1.254.41-.407 1.034-.516 1.558-.273l11.01 5.12c1.236.576 2.34 1.04 3.308.887.4-.063 1.054-.47 1.63-.83.933-.582 2.047-1.278 3.237-1.278zm22.905 12.062c.385.04.787.06 1.018-.048.37-.175.638-.825.92-1.513.095-.227.194-.468.306-.71l-.55-.342-.14-.087c-.09.18-.193.434-.27.623-.267.665-.598 1.49-1.283 2.08zm.516 2.79c-.416 0-.802-.048-1.137-.09l-6.637-.802c-1.544-.186-3.293-.398-4.884-1.22-1.37-.708-2.442-1.78-3.388-2.727l-6.84-6.836c-.13-.133-.38-.38-.484-.416-.304-.103-1.293.52-1.826.853-.838.523-1.706 1.065-2.66 1.215-1.878.3-3.628-.516-4.905-1.11l-10.203-4.745c-1.69 1.263-3.58 1.434-5.25 1.408-.762-.008-1.633-.234-2.475-.453-.604-.157-1.613-.42-1.933-.36-2.157.393-4.595-1.154-6.552-2.397-.397-.252-.758-.482-1.067-.66-.866-.494-1.72-1.01-2.572-1.528-1.127-.682-2.293-1.388-3.458-2.02-.84-.456-1.755-.753-2.722-1.067-.89-.29-1.813-.59-2.733-1.033-1.557-.753-2.973-1.713-4.342-2.642-1.34-.908-2.604-1.766-3.98-2.437-.36-.174-.625-.497-.728-.883-.102-.386-.033-.797.192-1.127.495-.73.935-1.433.875-1.992-.037-.342-.283-.77-.522-1.187l-3.21-5.59c-.044-.073-.15-.227-.285-.43-1.06-1.584-1.637-2.54-1.83-3.257-1.028-1.012-2.938-3.243-7.056-8.053-1.52-1.773-3.08-3.596-3.757-4.363-1.6-.61-3.28-6.322-3.983-9.02l-.137.014c-.176.02-.342.036-.5.052.925 2.698 2.707 7.59 3.42 9.12.358.248.593.662.593 1.13.158 1.472 5.44 9.575 7.24 11.885.46.203.9.68.9 1.505 0 .365-.15.722-.41.98-.166.167-.37.29-.594.355-.056.086-.11.17-.153.24-.663 1.04-1.292 2.022-2.442 1.686-.223-.065-.893-.332-1.044-1.21-.17-.3-.358-.672-.59-1.123-2.988-5.867-4.907-9.435-5.718-10.632-.338-.123-.614-.375-.77-.697-.19-.266-.84-1.056-1.42-1.758-4.44-5.383-5.657-7.188-5.657-8.4-.07-1.034-1.8-10.25-2.403-11.654-.53-.654-1.62-2.488-5.312-8.963-1.843-3.23-4.13-7.242-4.59-7.84-.154-.158-.267-.353-.33-.566-.532-1.827-.404-5.508-.18-10.13.067-1.402.126-2.612.126-3.403 0-1.217 1.186-4.204 2.18-6.495 1.208-2.785 1.924-4.166 2.445-4.85.1-.796.303-2.197.66-4.617.205-1.378.436-2.938.463-3.223.03-.726.624-1.31 1.358-1.32l31.204-.456c.048 0 .094 0 .14.005l46.746 4.055c.246.022.48.108.682.25l6.972 4.966 5.23 2.916c.293.164.516.427.627.743l2.66 7.496c3.414-3.443 12.156-13.202 13.156-14.787.112-.29.32-.534.583-.69 1.232-2.116 5.215-11.485 5.312-12.94 0-.423.192-.803.523-1.065.527-.413 1.077-.282 1.256-.24 2.03.484 3.17.563 3.693.54.248-.42.74-.704 1.23-.704.808 0 1.335.425 2.865 2.93.515.844.86 1.462 1.093 1.923 1.03.108 2.773.433 5.937 1.075.812.165 1.722.35 2.025.398.76.004 1.372.62 1.372 1.377v.003c0 .13-.02.26-.056.385-.523 2.072-4.58 7.22-6.698 8.696-.312.217-1.19.83-2.164.672-1.112.024-2.335-.494-3.446-1.106-.916 2.106-2.613 5.192-3.6 6.808.312.07.667.133.93.18 1.395.247 3.303.585 3.303 2.295 0 .564 0 .905-2.928 3.363-1.602 1.344-2.48 1.937-3.023 2.2-.558.943-1.79 2.615-4.48 6.082-.442.57-.924 1.19-1.22 1.58.076.35.153.77.245 1.268.203 1.106.472 2.59.74 4.098 1.09 6.124 1.09 6.548 1.09 6.752 0 .927-.61 1.874-6.212 8.41-1.363 1.59-3.06 3.57-3.304 3.983-.016.028-.032.053-.05.078-.06.83.272 3.233.492 4.242.075.12.133.25.17.39.082.253.544 1.583 1.033 2.988 2.173 6.25 3.38 9.77 3.53 10.458.016.073.026.15.03.225.1 2.006-.38 3.35-1.424 4-.778.486-1.743.48-2.643-.02-1.202-.668-2.04-2.08-2.04-3.432 0-1.188-2.093-4.79-2.956-5.89-.21-.084-.396-.217-.542-.386-1.213-.69-6.995-2.503-8.28-2.384-.116.043-.238.07-.36.083-.192.018-.696.042-1.42.073-11.525.502-14.155 1.338-14.697 1.792-.422.48-1.09.578-1.65.28-1.624-.406-9.48 2.568-9.998 4.174-.017.05-.052.152-.075.202-.567 1.236-.952 5.29-.952 6.36 0 .205-.045.402-.126.577-.077.336-.223 1.057-.365 1.76-1.336 6.623-1.99 9.09-2.61 10.125.512.942 2.095 3.12 6.282 8.018.308.36.54.63.715.844 1.058-.06 3.71-.637 5.537-1.034 3.092-.67 4.89-1.032 6.033-1.095.353-.858.932-1.898 1.682-3.21.468-.818 1.167-2.04 1.28-2.445.045-1.02.91-1.566 3.573-2.297.864-.237 3.066-.788 4.868-.788.752 0 1.35.097 1.827.297.843.355 1.346 1.072 1.346 1.918 0 .196-.043.387-.12.562-.05.126-.183.487-.364.98-.353.956-.88 2.383-1.335 3.568-.344.9-.6 1.57-.847 2.046l-.114 1.236c-.104 1.118-.27 2.907-.396 4.4 1.357-.505 2.737-.765 3.042-.765.353 0 .654.064.92.193.27.13.488.328.642.567.526.203 1.872.544 5.14 1.095.354.06.61.103.718.126.225.047.482.085.752.125 1.343.198 3.18.47 3.734 2.042.637 1.812-.434 4.223-1.293 6.16-.176.393-.336.752-.455 1.054.447 1.258 5.013 4.272 6.535 5.277.763.504 1.366.9 1.746 1.19 1.03.782 1.727.942 1.895.804.178-.144.382-.652.532-1.024.373-.93.995-2.487 2.77-2.44.735.02 1.31.378 1.655.593l.872.54c.056-.033.114-.064.174-.093.4-.196.87-.186 1.262.024 1.02.55 1.545 1.762 1.25 2.882-.11.422-.416.767-.823.93-.41.16-.867.12-1.238-.11l-.037-.024-.12.29c-.427 1.037-.958 2.327-2.296 2.957-.568.268-1.146.346-1.68.346z" fill="#4B5170"/><path d="M99.638 76.888c.48 1.2 18.673-22.09 18.673-23.19 0 1.635 24.898 15.502 24.898 14.583 0 .586 16.16.973 16.16 2.153 0 2.582 7.78-7.92 7.78-8.13 0 .427 9.575 11.49 9.575 11 0-.362-9.096 18.848-9.096 18.887 0 2.065 6.703 11.657 6.703 10.76 0 .43 12.687 4.028 12.687 4.78 0-.15 4.788-2.6 4.788-1.912 0 .974 6.224 10.428 6.224 10.52 0 .81 2.393-1.165 2.393-3.108 0 .127-3.35-10.775-3.35-8.847 0 .49 2.154-6.262 2.154-7.65 0-.52-4.55-4.534-4.55-6.217 0 .91-4.308-9.687-4.308-10.04 0-.287 20.587 10.108 20.587 8.128 0 .816 2.394-4.974 2.394-3.586 0-.3 22.503 9.098 22.503 10.52 0-.324-1.196 7.05-1.196 5.738 0 .613-.958 4.777-.958 4.78 0 1.01-9.577 4.544-9.577 4.305 0-.574-4.548 8.105-4.548 7.173 0-1.103-2.394 11.5-2.394 10.52 0-.786-11.49 11.41-11.49 11.954 0 1.292-4.788 3.71-4.788 4.662 0 2.72-.24-10.095-.24-8.488 0-.418 2.634-1.912 2.634-2.152 0-.172-9.815-2.138-9.815-1.674 0 1.838-4.308-5.9-4.308-5.02 0 1.15-8.38-1.476-8.38-1.674 0-1.368-.957 3.913-.957 4.304 0-1.015-33.276-.314-33.276-2.39 0-.988-8.5-2.96-16.997-3.11-8.5-.858-16.997-3.535-16.997-3.107 0-1.558-5.985-11.168-5.985-10.282 0 .385.48-8.79.48-9.802 0 .27-4.55-16.143-4.55-14.585 0 1.452-2.872-8.404-2.872-9.802" fill="#FFDD14"/><path d="M195.376 106.852c-.133-.227-.252-.434-.357-.62.06.07.127.137.197.2.05.127.1.266.16.42m-77.066-55.91c-1.214 0-2.245.785-2.614 1.874-1.455 2.586-14.165 18.81-17.033 21.495-1.058.4-1.783 1.417-1.783 2.578 0 .895.47 2.988 1.396 6.22.355 1.24.71 2.39.997 3.24.26.764.572 1.687 1.164 2.352.724 2.158 2.295 7.606 3.028 10.144.27.936.502 1.74.668 2.31.048.162.1.336.158.517-.06 1.75-.375 7.964-.447 9.064-.014.113-.02.228-.02.344 0 .96.49 1.81 1.235 2.305 1.193 1.606 4.328 6.85 4.764 8.268.147 1.385 1.32 2.464 2.744 2.464.082 0 .162-.004.242-.01.498.094 1.48.323 2.365.53 3.245.757 8.677 2.024 14.112 2.573.076.008.153.013.228.014 6.88.123 13.038 1.44 14.858 2.133.952 1.246 2.842 1.553 3.697 1.692 1.244.202 2.97.368 5.278.507 4.12.247 9.46.368 14.17.474 4.308.097 9.6.217 11.12.42.363.176.77.275 1.2.275 1.468 0 2.668-1.144 2.754-2.588.02-.17.07-.496.14-.89.13.04.262.077.393.114 2.175.614 3.853.955 4.997 1.015l.327.49c2.075 3.114 3.02 4.535 4.897 4.535.418 0 .844-.095 1.236-.28.826.11 2.085.323 3.355.558-.03.222-.03.402-.03.51 0 .107.006.213.017.318.018.622.05 2.01.08 3.362.027 1.238.056 2.552.08 3.558.014.51.025.94.035 1.244.005.166.01.297.014.387.083 1.81 1.454 2.755 2.766 2.755.098 0 2.114-.027 2.64-2.07.316-.256.782-.6 1.125-.852 1.584-1.166 3.096-2.28 3.607-3.776 1.406-1.763 7.85-8.61 9.86-10.4.724-.25 1.51-.883 1.877-2.376.072-.293.168-.714.278-1.222.21-.96.475-2.246.745-3.55.31-1.493.705-3.405.943-4.454.665-.844 1.447-2.21 2.684-4.37.358-.626.8-1.398 1.13-1.956 1.288-.395 2.986-1.06 4.417-1.652 4.113-1.7 5.995-2.78 6.232-4.648.52-2.294.765-3.52.88-4.218.073-.188.136-.396.19-.623.066-.28.145-.662.242-1.164.167-.862.36-1.946.518-2.833.09-.506.19-1.068.24-1.33.07-.238.108-.488.11-.747v-.054c-.02-1.94-1.59-2.956-4.923-4.663-2.4-1.227-5.517-2.645-7.71-3.617-2.55-1.132-5.382-2.342-7.767-3.32-1.574-.646-2.573-1.04-3.238-1.28-.498-.38-1.105-.583-1.702-.583-1.907 0-2.626 1.42-3.817 3.77 0 0 0 .003-.002.004-3.235-1.043-10.94-4.65-14.098-6.13-4.217-1.976-4.217-1.976-4.976-1.976-1.523 0-2.77 1.24-2.77 2.76 0 .555 0 .86 2.233 6.233.403.97.99 2.36 1.494 3.472.256.563.5 1.102.782 1.57.502 1.588 1.912 3.22 3.748 5.217l.455.497c-.313 1.363-1.042 3.84-1.49 5.14-.32.466-.52 1.06-.52 1.78 0 .097.006.194.016.29-.448-1.03-1.486-1.733-2.724-1.733-.636 0-1.538.15-3.82 1.236-.266.127-.522.25-.767.37-.493-.21-1.02-.404-1.556-.6-1.513-.55-3.408-1.174-5.24-1.776-1.536-.504-3.587-1.178-4.3-1.47-.073-.05-.15-.1-.228-.145-1.256-1.495-4.33-6.187-5.15-8.1 1.62-3.446 7.544-15.903 8.44-17.577.312-.448.496-.992.496-1.576 0-.99-.523-1.86-1.31-2.347-1.445-1.426-7.562-8.486-8.562-9.893-.454-.897-1.386-1.513-2.462-1.513-1.06 0-1.98.597-2.443 1.473-.676 1.034-3.45 4.636-5.122 6.407-1.01-.324-2.182-.464-3.246-.592-2.026-.24-4.63-.438-6.926-.61-1.884-.142-4.184-.316-5.046-.45-.3-.137-.63-.223-.975-.246-3.422-1.335-20.164-10.85-22.65-13.14-.465-.864-1.38-1.45-2.43-1.45m82.355 85.1s.004.033.006.096c-.004.016-.007.03-.007.044 0-.096 0-.14.002-.14m-94.08-25c0 .03-.003.048-.004.048v-.012c0-.016.002-.028.006-.037m90.55-6.886c.015 0 .033.01.055.033-.056.142-.095.22-.11.22-.006 0-.01-.007-.01-.023 0-.157.024-.23.065-.23M176.72 73.296c.002 0 .003.003.003.006 0 .01-.004.016-.013.016h-.008c.01-.014.016-.02.02-.02m-58.41-19.6c0 1.583 23.326 14.627 24.82 14.627.05 0 .076-.014.076-.044 0 .586 16.16.972 16.16 2.153 0 .282.092.408.258.408 1.35 0 7.522-8.35 7.522-8.536 0 .414 9.06 10.893 9.554 11.013-.48.683-9.076 18.835-9.076 18.873 0 1.974 6.12 10.818 6.665 10.818.026 0 .04-.02.04-.06 0 .43 12.687 4.03 12.687 4.783 0-.132 3.685-2.034 4.59-2.034.126 0 .198.038.198.122 0 .974 6.224 10.428 6.224 10.52 0 .128.06.186.16.186.537 0 2.234-1.658 2.234-3.294-.035 0-2.64-8.45-3.233-9.043.453-1.132 2.037-6.264 2.037-7.454 0-.52-4.55-4.534-4.55-6.217 0 .038-.007.056-.02.056-.327 0-4.288-9.757-4.288-10.097 0-.004.003-.006.01-.006.495 0 17.192 8.385 20.135 8.385.286 0 .442-.08.442-.25 0 .053.01.078.03.078.245 0 1.906-3.88 2.286-3.88.05 0 .078.065.078.214 0-.004.006-.007.017-.007.68 0 22.473 9.123 22.487 10.526 0-.006 0-.01-.002-.01-.045 0-1.01 5.906-1.172 5.906-.015 0-.023-.05-.023-.157 0 .614-.958 4.777-.958 4.782 0 .976-8.963 4.315-9.547 4.315-.02 0-.03-.004-.03-.012 0-.018-.004-.026-.013-.026-.26 0-4.096 7.27-4.5 7.27-.023 0-.035-.023-.035-.07 0-.047-.004-.07-.012-.07-.178 0-2.213 10.643-2.372 10.643-.006 0-.01-.017-.01-.054 0-.025-.01-.036-.032-.036-.673 0-11.458 11.463-11.458 11.99 0 1.292-4.788 3.71-4.788 4.662 0 .262-.002.38-.006.38-.033 0-.187-7.946-.225-8.912.16-.47 2.626-1.876 2.626-2.108 0-.154-7.858-1.744-9.512-1.745-.194 0-.303.022-.303.07 0 .198-.048.285-.136.285-.69 0-3.766-5.373-4.135-5.374-.026 0-.038.022-.038.07 0 .205-.267.29-.705.29-2.018 0-7.674-1.8-7.674-1.964 0-.156-.012-.225-.034-.225-.173 0-.925 4.183-.925 4.53 0-1.016-33.276-.315-33.276-2.393 0-.986-8.5-2.957-16.998-3.107-7.876-.796-15.754-3.154-16.863-3.154-.09 0-.134.014-.134.046 0-1.49-5.47-10.34-5.952-10.34-.013 0-.023.007-.028.02.053-.704.474-8.816.474-9.765 0 .002 0 .004-.002.004-.07 0-4.147-14.694-4.52-14.694-.018 0-.027.034-.027.105 0 .1-.012.146-.038.146-.34 0-2.834-8.646-2.834-9.948.012.03.035.045.07.045 1.31 0 18.603-22.163 18.603-23.236" fill="#4B5170"/><path d="M142.97 56.97c0-.362-7.9-14.666-7.9-12.91 0 1.065 5.506-6.302 5.506-4.064 0-.004 3.11 3.912 6.223 6.097 3.11 3.275 6.223 4.957 6.223 6.097 0-1.042 6.344 5.732 6.344 5.977 0 .865-8.26.822-8.26 1.435 0 .15-8.138-1.618-8.138-2.63" fill="#FFDD14"/><path d="M140.31 36.816c-1.694 0-2.963 1.258-5.244 3.67-.235.25-.513.543-.76.798-.708.22-1.31.714-1.665 1.396-.218.42-.33.885-.33 1.38 0 1.155.645 2.13 1.598 2.585 1.59 2.32 5.583 9.414 6.394 11.1.534 2.124 3.29 2.886 5.753 3.565.807.223 4.022 1.055 5.014 1.055.494 0 .96-.127 1.363-.35.576-.087 1.707-.18 2.5-.247 1.165-.096 2.37-.196 3.346-.34.95-.143 3.845-.575 3.845-3.26 0-1.084-.143-1.514-3.62-5.058-1.637-1.667-2.685-2.62-3.487-3.154-.605-.833-1.53-1.597-2.62-2.5-1.045-.865-2.344-1.94-3.598-3.26-.126-.132-.265-.252-.415-.357-1.786-1.255-3.87-3.435-5.272-5.1-.48-1.258-1.67-1.924-2.804-1.924m-5.164 7.096c.05 0 .127.05.224.145-.098.07-.175.11-.227.11-.048 0-.073-.034-.073-.106 0-.1.027-.148.076-.148m5.163-4.34c.17 0 .266.126.266.424.004 0 3.112 3.913 6.223 6.097 3.11 3.275 6.223 4.957 6.223 6.096 0-.075.033-.11.093-.11.78 0 6.25 5.86 6.25 6.087 0 .865-8.258.822-8.258 1.435 0 .006-.014.008-.04.008-.607 0-8.1-1.667-8.1-2.64 0-.32-6.154-11.504-7.598-12.913.97-.698 4.017-4.486 4.94-4.486" fill="#4B5170"/><path d="M181.104 58.14c0-1.902-8.14-4.043-8.14-4.064 0 .148 4.07-7.855 4.07-8.368 0 1.478 20.11 10.44 20.827 8.368.72-.468 9.577 5.53 9.577 5.26v6.456c0-.31-6.703-2.417-6.703-2.153 0-.744 3.83 5.656 3.83 5.02 0 2.17 5.028 6.77 5.028 4.782 0 1.042-9.337.62-9.337 0 0 1.476-5.745-12.583-5.745-11.954 0 1.416-13.406-4.837-13.406-3.347" fill="#FFDD14"/><path d="M177.034 42.953c-1.307 0-2.4.907-2.686 2.126-.435 1.12-3.11 6.45-3.667 7.45-.3.44-.474.973-.474 1.546 0 1.285.88 2.366 2.072 2.67l.13.04c4.078 1.172 5.632 2.033 6.13 2.364.4 1.022 1.4 1.745 2.565 1.745.306 0 .6-.05.873-.14 1.134.277 3.426 1.098 5.027 1.67 2.65.95 4.493 1.596 5.83 1.875.343.763.76 1.717 1.132 2.56.763 1.74 1.628 3.713 2.342 5.254 1.182 2.547 1.862 4.016 3.58 4.177.694.212 1.39.287 1.858.338 1.182.13 2.647.202 4.02.202 1.223 0 2.242-.057 3.04-.17.133.016.265.024.397.024 1.795 0 3.148-1.394 3.148-3.242 0-1.522-1.235-2.755-2.76-2.755-.166 0-.33.015-.49.044-.698-.63-1.524-1.6-1.758-2.17h.095c1.523 0 2.758-1.232 2.758-2.754v-6.471c0-1.2-.77-2.223-1.842-2.6-.4-.23-1.28-.776-2.01-1.228-5.578-3.465-7.064-4.213-8.367-4.213-.466 0-.916.104-1.32.302-3.33-.457-14.97-5.553-17.275-7.336-.484-.784-1.354-1.307-2.346-1.307m32.557 30.49c0 .34-.145.486-.388.486-.1 0-.218-.026-.347-.073.46-.1.736-.236.736-.415m-2.153-7.65v.014-.015m-34.472-11.714h.002c0 .002 0 .002-.002.002v-.002m4.07-8.368c0 1.327 16.187 8.677 20.034 8.677.44 0 .717-.096.79-.31.03-.016.067-.025.116-.025 1.228 0 9.09 5.295 9.45 5.295.007 0 .01-.003.01-.01v6.456c0-.286-5.725-2.107-6.592-2.172-.032-.025-.058-.04-.076-.04-.022 0-.034.02-.034.062 0-.016.023-.024.067-.024.014 0 .028 0 .044.002.592.474 3.4 5.087 3.695 5.087.016 0 .024-.015.024-.044 0 1.647 2.894 4.69 4.29 5.197-.71.154-1.86.218-3.09.218-2.576 0-5.51-.285-5.51-.633 0 .074-.013.11-.04.11-.506 0-5.467-12.084-5.696-12.084-.006 0-.01.006-.01.02 0 .145-.14.21-.396.21-1.954 0-10.54-3.788-12.575-3.788-.278 0-.434.07-.434.23 0-1.882-7.972-3.998-8.136-4.063.115-.085 4.067-7.864 4.067-8.37" fill="#4B5170"/><path d="M163.078 26.665c0 2.106 11.012-6.932 11.012-6.933v14.584c0 1.33 1.676 5.022 0 5.02-1.676 1.732-8.14-.795-8.14 0 0 .602-2.872-5.174-2.872-6.693v-5.978z" fill="#FFDD14"/><path d="M174.09 16.977c-.675 0-1.293.242-1.773.643-2.575 2.124-6.554 5.125-8.487 6.247-.24-.067-.492-.104-.752-.104-1.524 0-2.76 1.234-2.76 2.755V32.642c0 .43 0 1.568 1.577 5.047 1.256 2.77 2.014 4.446 4.035 4.446.296 0 .582-.048.85-.135.267.05.594.112.865.165 1.263.243 2.834.547 4.298.547 1.377 0 2.484-.27 3.352-.826.6-.212 1.126-.586 1.52-1.09 1.244-1.592.733-3.627.282-5.422-.09-.36-.226-.896-.25-1.1V19.732c0-1.52-1.234-2.753-2.757-2.753zm0 2.754V34.4v-.084c0 1.33 1.674 5.02 0 5.02-.447.462-1.234.62-2.147.62-2.024 0-4.672-.78-5.628-.78-.232 0-.365.047-.365.16 0 .03-.006.044-.02.044-.255 0-2.852-5.293-2.852-6.738v-6.124.147c0 .22.12.318.334.318 1.843 0 10.678-7.25 10.678-7.252z" fill="#4B5170"/><path d="M159.67 46c.48.338 3.83-3.47 3.83-2.63 0 .78 1.677 6.85 1.677 7.89 0-.973-2.753 2.307-2.753 2.152 0 .59-2.753-3.686-2.753-7.41" fill="#FFDD14"/><path d="M163.407 40.494c-1.307 0-2.15.757-3.547 2.01-.28.25-.7.627-.986.86-.162.048-.32.112-.474.192-.914.474-1.488 1.416-1.488 2.445 0 2.362.81 4.66 1.49 6.17 1.514 3.375 2.65 4.053 3.99 4.053.82 0 1.56-.36 2.07-.93.173-.16.338-.334.506-.51.17-.18.508-.535.812-.833 1.233-.275 2.156-1.375 2.156-2.69 0-.803-.29-2.093-1.005-5.062-.258-1.076-.61-2.537-.674-2.97-.072-1.545-1.297-2.734-2.85-2.734m0 2.755c.062 0 .095.037.095.12 0 .78 1.677 6.85 1.677 7.89 0-.126-.047-.18-.127-.18-.526 0-2.516 2.338-2.622 2.338-.003 0-.004-.002-.004-.005 0 .037-.01.055-.03.055-.306 0-2.723-3.976-2.723-7.467.02.015.047.022.077.022.61 0 3.14-2.773 3.66-2.773" fill="#4B5170"/><path d="M151.53 32.88c0-.61 5.985 5.567 5.985 5.737 0 .288-2.992.67-2.992 1.914 0-.958-5.925-3.08-5.925-3.347 0-.224 2.933-2.526 2.933-4.303" fill="#FFDD14"/><path d="M151.57 30.083c-1.49 0-2.712 1.17-2.793 2.64-.147.362-.695 1.02-1.632 1.955-.642.642-1.305 1.306-1.305 2.505 0 1.884 1.374 2.494 3.276 3.337.75.332 2.386 1.058 3.08 1.49.49.767 1.35 1.276 2.328 1.276 1.064 0 1.987-.602 2.447-1.485.227-.085.5-.175.663-.228.722-.237 2.64-.864 2.64-2.954 0-1.27-.51-1.816-3.586-4.897-3.09-3.093-3.856-3.637-5.118-3.637m0 2.755c.51 0 5.946 5.617 5.946 5.78 0 .287-2.992.67-2.992 1.913 0-.957-5.926-3.08-5.926-3.347 0-.224 2.933-2.527 2.933-4.303 0-.03.014-.042.04-.042" fill="#4B5170"/><path d="M116.877 51.785c0-.316-4.91 5.893-9.817 12.074-4.907 5.102-9.814 10.865-9.814 12.073 0 .403-5.507-10.204-5.507-9.325 0-.057-10.295 2.24-10.295 3.108 0-.663-2.633-10.986-2.633-10.28 0 .805 11.265-10.3 11.265-9.558 3.65-7.636 9.856-9.932 17.594-8.54 0 1.462 9.207 11.71 9.207 10.447" fill="#FFF"/><path d="M103.617 38.2c-6.908 0-12.288 3.334-15.61 9.657-.967.71-2.453 2.066-5.26 4.64-1.563 1.434-3.823 3.507-4.798 4.29-1.1.37-1.897 1.418-1.897 2.65 0 .474.12.923.33 1.316.5 1.633 2.137 8.115 2.313 9.187.114 1.417 1.3 2.53 2.75 2.53.762 0 1.453-.308 1.953-.808 1.24-.53 4.912-1.468 7.135-1.984.697 1.206 1.66 2.955 2.324 4.164.516.94.992 1.807 1.35 2.44.703 1.242 1.368 2.417 3.03 2.417 1.34 0 2.462-.965 2.712-2.234.568-1.11 3.72-5.106 9.098-10.7.06-.062.118-.127.172-.195l1.074-1.352c3.08-3.88 6.837-8.614 8.066-10.033.772-.507 1.274-1.384 1.274-2.4 0-1.284-.886-2.372-2.08-2.68-1.765-1.557-6.367-6.79-7.195-8.375-.24-1.06-1.093-1.902-2.2-2.102-1.577-.284-3.106-.428-4.543-.428M78.82 59.4c.01 0 .024.027.044.077h-.01c-.028 0-.042-.013-.042-.04 0-.025.003-.036.008-.036m38.048-7.627c.006 0 .01.005.01.012 0 .073-.032.108-.09.108-.017 0-.036-.003-.058-.01.073-.072.12-.11.138-.11m-13.252-10.818c1.297 0 2.65.132 4.054.384 0 1.35 7.882 10.225 9.06 10.544-.85.845-5.26 6.42-9.67 11.975-4.907 5.102-9.815 10.865-9.815 12.073 0 .007-.002.01-.005.01-.19 0-5.08-9.386-5.475-9.387-.017 0-.026.018-.026.053 0-.003-.002-.003-.005-.003-.248 0-10.29 2.25-10.29 3.11 0-.61-2.212-9.334-2.58-10.24.794-.094 10.52-9.635 11.177-9.635.023 0 .035.012.035.036 2.987-6.25 7.688-8.923 13.54-8.923" fill="#4B5170"/><path d="M122.61 157.942c0 .373 4.338 23.186 7.97 23.013 4.176-.914 7.97-20.437 7.97-23.013 0-3.832-3.567-6.77-7.97-7.96-4.4.567-7.97 3.266-7.97 7.96" fill="#F37631"/><path d="M123.99 157.86c.113.726 1.08 5.78 2.445 10.947 2.155 8.165 3.613 10.188 4.09 10.663.59-.452 2.215-2.31 4.277-9.765 1.447-5.23 2.37-10.666 2.37-11.763 0-3.41-3.54-5.637-6.684-6.555-1.823.286-6.447 1.503-6.498 6.472m6.546 24.474c-.662 0-1.296-.284-1.885-.845-3.94-3.755-7.418-23.383-7.418-23.548 0-4.947 3.6-8.608 9.173-9.326l.27-.036.267.072c5.46 1.477 8.988 5.123 8.988 9.29 0 1.108-3.287 23.096-9.054 24.36l-.23.03-.11.002M120.82 100.337c-.143.13-.324.126-.468.16-.157.034-.298.038-.44.048-.29.024-.553.002-.808-.03-.506-.07-.964-.21-1.385-.413-.42-.204-.804-.462-1.2-.698l-1.185-.718c-1.58-.954-3.164-1.895-4.757-2.82l.315.137c-.574-.202-1.18-.373-1.72-.618l-.826-.347-.794-.38c-.537-.25-1.037-.53-1.552-.8-.512-.27-1-.562-1.503-.842-1.978-1.146-3.88-2.35-5.782-3.522-1.902-1.174-3.8-2.32-5.73-3.386-.48-.268-.962-.535-1.45-.783-.488-.25-.97-.517-1.464-.747-.978-.49-1.97-.93-2.967-1.362l-.003-.002c-.073-.03-.15-.072-.216-.112-4.9-3.01-9.7-6.107-14.634-8.92-1.233-.7-2.472-1.386-3.72-2.053-1.25-.662-2.507-1.3-3.775-1.915-1.27-.607-2.55-1.183-3.84-1.727l-1.947-.778-1.965-.708-.028-.01c-.037-.013-.078-.03-.113-.045-2.472-1.095-4.98-2.125-7.497-3.143-2.52-1.015-5.062-1.998-7.61-2.988-2.546-.99-5.102-1.985-7.647-3.036-1.273-.527-2.544-1.062-3.81-1.624-.63-.28-1.263-.562-1.89-.857l-.886-.41-.942-.402c-1.253-.538-2.475-1.025-3.737-1.515-1.256-.47-2.515-.936-3.785-1.346-2.535-.832-5.11-1.536-7.672-1.928-1.277-.19-2.554-.3-3.767-.25-1.212.038-2.353.296-3.14.766-.39.238-.66.533-.866.88-.216.34-.34.78-.385 1.286-.103 1.01.11 2.214.48 3.397l-.08-.208c.644 1.38 1.2 2.71 1.793 4.03.587 1.316 1.19 2.613 1.836 3.877.644 1.262 1.33 2.495 2.086 3.652l.582.85.613.81.648.757.682.687.09.09c.025.026.048.053.07.08 2.113 2.676 4.405 5.23 6.78 7.712 2.372 2.488 4.84 4.9 7.357 7.262.508.475.533 1.27.058 1.778-.47.5-1.252.53-1.76.076-2.6-2.328-5.157-4.71-7.634-7.192-2.467-2.487-4.847-5.08-7.078-7.818l.16.17-.87-.854-.786-.894-.72-.923-.667-.945c-.857-1.272-1.607-2.58-2.306-3.904-.7-1.322-1.343-2.66-1.96-3.996-.62-1.332-1.212-2.684-1.818-3.936-.032-.064-.06-.14-.083-.206-.45-1.41-.808-2.933-.675-4.652.014-.422.128-.87.224-1.305.15-.44.296-.88.55-1.295.474-.83 1.18-1.547 1.958-2.02 1.57-.936 3.205-1.196 4.708-1.266 1.52-.067 2.976.062 4.4.268 2.843.428 5.558 1.17 8.214 2.03 1.33.427 2.637.905 3.94 1.39 1.286.493 2.602 1.015 3.86 1.55l.944.4.977.446c.608.285 1.225.558 1.842.83 1.233.543 2.48 1.064 3.734 1.58 2.507 1.025 5.044 2.006 7.592 2.987 2.547.982 5.104 1.963 7.655 2.98 2.553 1.014 5.09 2.084 7.61 3.213l-.142-.055 2.076.76 2.043.83c1.348.576 2.68 1.185 3.992 1.82 1.31.643 2.603 1.31 3.884 1.996 1.276.692 2.54 1.4 3.794 2.123 5.01 2.9 9.844 6.025 14.67 9.084l-.218-.113c1.057.473 2.108.954 3.13 1.48.52.25 1.017.533 1.525.8.51.266 1.006.548 1.5.83 1.987 1.127 3.914 2.323 5.816 3.527 1.903 1.202 3.78 2.42 5.67 3.543.475.272.946.56 1.423.818.475.255.95.53 1.43.757l.718.355.72.312c.48.227.96.357 1.44.538l.14.054c.06.022.122.052.175.084 1.598.952 3.187 1.92 4.767 2.9l1.183.735c.39.25.794.48 1.164.76.367.286.697.63.98 1.042.142.208.276.425.385.684.124.236.202.54.32.8" fill="#4B5170"/><g transform="translate(215.16 38.624)"><mask id="b" fill="#fff"><use xlink:href="#a"/></mask><path d="M.813 66.692l-.173-.168c-.046-.064-.066-.156-.085-.255-.037-.183-.014-.35.006-.51.06-.33.187-.584.33-.817.288-.448.636-.744 1.006-.953.76-.383 1.493-.674 2.223-.975l4.315-1.733c1.422-.584 2.83-1.186 4.22-1.823.698-.318 1.39-.645 2.077-.977l2.13-1.054c2.838-1.26 5.646-2.516 8.39-3.882 2.742-1.366 5.423-2.828 8.023-4.415l.067-.038.046-.024 17.07-9.06c.704-.378 1.44-.752 2.117-1.135l2.115-1.178 4.233-2.356 1.058-.588.53-.294.46-.28c.677-.417 1.413-.843 2.13-1.255 1.427-.816 2.866-1.584 4.3-2.343 5.73-3.035 11.522-5.804 16.536-9.537 1.247-.933 2.453-1.91 3.555-2.98 1.112-1.06 2.14-2.19 3.053-3.398.917-1.206 1.706-2.497 2.337-3.86.636-1.362 1.126-2.79 1.474-4.258l-.033.316c.02-.218-.185-.71-.59-1.14-.198-.218-.432-.426-.684-.61-.125-.093-.256-.18-.39-.26-.064-.042-.133-.074-.2-.112l-.05-.027.108.048h-.004l-.01-.004-.017-.007-.034-.015-.14-.058c-.375-.153-.758-.314-1.08-.418-.33-.125-.69-.23-1.052-.337-.72-.205-1.457-.372-2.207-.494-1.496-.25-3.04-.37-4.61-.398-1.57-.036-3.17.012-4.79.04h-.004c-.696.014-1.27-.54-1.282-1.234-.013-.68.522-1.246 1.2-1.28 3.202-.15 6.53-.4 9.925.106.845.122 1.69.296 2.524.518.415.113.83.228 1.26.38.447.14.81.288 1.185.433l.14.055.036.014.147.064.083.043c.11.06.224.115.33.18.216.122.424.254.627.397.403.285.783.606 1.135.98.352.372.68.796.945 1.31.264.51.468 1.128.477 1.825 0 .1-.01.198-.03.292l-.004.025c-.364 1.677-.895 3.325-1.597 4.9-.696 1.577-1.574 3.07-2.585 4.453-2.01 2.78-4.508 5.126-7.176 7.128-5.348 4.026-11.25 6.922-16.924 9.915-1.418.75-2.83 1.504-4.204 2.29-.683.395-1.345.777-2.043 1.208l-.576.345-.53.295-1.056.59-4.232 2.357-2.115 1.178c-.73.407-1.438.76-2.16 1.14L34.85 51.96l.112-.062c-2.705 1.635-5.496 3.114-8.333 4.467-2.836 1.358-5.714 2.594-8.568 3.81l-2.056.98c-.715.333-1.43.66-2.152.974-1.44.632-2.895 1.23-4.353 1.803l-4.35 1.67c-.71.277-1.417.563-2.056.855-.327.13-.67.188-1.02.183-.17-.003-.36-.025-.55-.056-.114-.02-.19-.016-.317-.03-.052-.007-.113-.01-.184.018l-.21.12z" fill="#4B5170" mask="url(#b)"/></g><path d="M130.58 162.076c-.142 0-.287-.015-.43-.045-2.117-.448-3.715-2.21-3.715-4.095 0-2.458 1.565-3.062 2.234-3.32.272-.105.373-.148.51-.273.305-.28.686-.463 1.096-.524.918-.135 1.86.162 2.648.84.853.734 1.802 2.26 1.802 3.277 0 2.157-1.555 2.997-2.39 3.448-.196.105-.41.22-.635.364-.336.216-.725.33-1.12.33" fill="#FFF"/><path d="M132.658 101.367c0 .373 4.337 23.186 7.97 23.014 4.175-.914 7.97-20.437 7.97-23.013 0-3.832-3.568-6.77-7.97-7.96-4.402.567-7.97 3.266-7.97 7.96" fill="#F37631"/><path d="M134.037 101.284c.113.727 1.08 5.78 2.446 10.948 2.155 8.165 3.612 10.188 4.09 10.663.59-.452 2.214-2.31 4.276-9.764 1.446-5.23 2.37-10.666 2.37-11.763 0-3.41-3.54-5.638-6.685-6.555-1.823.286-6.447 1.503-6.498 6.472m6.546 24.475c-.662 0-1.296-.285-1.885-.845-3.94-3.755-7.42-23.383-7.42-23.548 0-4.947 3.6-8.608 9.173-9.326l.274-.035.264.072c5.46 1.477 8.99 5.123 8.99 9.29 0 1.108-3.288 23.096-9.055 24.36l-.23.03-.11.002" fill="#4B5170"/><path d="M140.628 105.5c-.144 0-.288-.014-.43-.044-2.118-.45-3.715-2.21-3.715-4.095 0-2.458 1.564-3.062 2.233-3.32.273-.105.374-.148.51-.273.305-.28.687-.463 1.097-.524.917-.134 1.86.162 2.648.84.854.734 1.803 2.26 1.803 3.278 0 2.158-1.554 2.997-2.39 3.448-.196.105-.41.22-.635.364-.337.217-.726.33-1.12.33" fill="#FFF"/><path d="M177.483 204.877c0 .84 4.337 24.332 7.97 23.013 4.175 1.75 7.97-21.542 7.97-23.013 0-3.757-3.568-8.506-7.97-7.96-4.402-1.7-7.97 1.242-7.97 7.96" fill="#F37631"/><path d="M185.453 226.513c.15 0 .298.024.44.072.307-.202 1.927-1.647 4.042-10.418 1.295-5.368 2.093-10.687 2.11-11.298 0-1.778-1.026-3.88-2.55-5.227-.834-.736-2.184-1.57-3.873-1.36-.224.028-.455 0-.667-.082-1.015-.39-2.49-.676-3.758.19-1.478 1.012-2.328 3.36-2.336 6.446.237 2.644 3.965 20.022 6.354 21.697.08-.013.16-.02.24-.02m.448 2.848c-.17 0-.34-.017-.51-.052-.565.062-1.15-.098-1.68-.47-4.162-2.91-7.61-23.776-7.61-23.962 0-4.088 1.257-7.198 3.536-8.758 1.68-1.15 3.798-1.36 5.993-.603 2.005-.145 4.01.58 5.69 2.064 2.116 1.865 3.483 4.73 3.483 7.296 0 .88-2.897 21.026-7.375 24-.486.322-1.007.485-1.526.485" fill="#4B5170"/><path d="M185.453 209.01c-.1 0-.2-.006-.3-.022-.544-.08-1.035-.372-1.362-.813-.32-.432-.552-.566-.846-.736-.448-.26-1.636-.945-1.636-2.57 0-.87.637-3.627 2.59-4.345 1.038-.38 2.124-.104 2.952.737.19.144.372.274.543.396.982.706 2.204 1.584 2.206 3.208v.004c0 .84-.503 1.563-1.224 1.886-.425.593-.98 1.316-1.683 1.842-.36.27-.795.412-1.24.412" fill="#F1F1F2"/><path d="M200.248 117.044c0 .84 4.337 24.333 7.97 23.014 4.175 1.75 7.97-21.542 7.97-23.014 0-3.757-3.568-8.506-7.97-7.96-4.402-1.7-7.97 1.243-7.97 7.96" fill="#F37631"/><path d="M208.218 138.68c.15 0 .3.024.44.073.308-.202 1.927-1.647 4.043-10.42 1.296-5.367 2.094-10.685 2.11-11.296 0-1.777-1.025-3.88-2.55-5.226-.834-.735-2.18-1.568-3.872-1.36-.226.028-.455 0-.668-.08-1.014-.394-2.49-.68-3.757.188-1.478 1.01-2.33 3.36-2.336 6.446.236 2.644 3.964 20.02 6.353 21.697.08-.013.158-.02.238-.02m.45 2.85c-.17 0-.34-.02-.51-.054-.567.06-1.15-.1-1.68-.47-4.163-2.912-7.61-23.776-7.61-23.962 0-4.088 1.256-7.198 3.535-8.758 1.68-1.15 3.8-1.36 5.994-.603 2.01-.144 4.008.58 5.69 2.063 2.114 1.867 3.48 4.73 3.48 7.298 0 .88-2.896 21.025-7.375 24-.485.322-1.006.485-1.525.485" fill="#4B5170"/><path d="M208.218 121.178c-.1 0-.2-.007-.3-.022-.544-.08-1.034-.372-1.362-.813-.32-.432-.552-.566-.847-.736-.448-.258-1.638-.945-1.638-2.57 0-.87.638-3.626 2.59-4.344 1.04-.38 2.126-.105 2.953.737.19.142.37.273.542.395.982.706 2.204 1.584 2.206 3.21v.003c0 .84-.502 1.562-1.222 1.886-.424.592-.98 1.316-1.682 1.842-.36.27-.795.412-1.24.412" fill="#F1F1F2"/></g></svg>