<svg width="73" height="22" viewBox="0 0 73 22" xmlns="http://www.w3.org/2000/svg" xmlns:xlink="http://www.w3.org/1999/xlink"><title>Page 1</title><defs><path id="a" d="M72.977 18.91V.02H0v18.891z"/><path id="c" d="M0 21.98h72.977V.05H0z"/></defs><g fill="none" fill-rule="evenodd"><path d="M70.38 12.302c-1.4 4.065-14.628 5.755-32.798 5.755-12.2 0-26.655.124-32.335-2.21C2.47 14.703.88 13.802.88 12.39c0-1.744 6.616-5.003 10.87-5.587 11.472-1.576 21.17 1.744 21.17 1.744s24.25 2.017 26.67.677c2.066-1.146 5.13-6.298 9.523-7.824 3.806-1.323 2.885.59 2.885.59s-.618 7.4-1.62 10.312z" fill="#FFCD20"/><g transform="translate(0 .03)"><mask id="b" fill="#fff"><use xlink:href="#a"/></mask><path d="M1.76 12.376c.017.88 1.54 1.686 3.82 2.623 5.25 2.157 18.524 2.15 30.237 2.145h1.765c9.458 0 17.044-.452 22.548-1.342 7.467-1.208 9.105-2.91 9.417-3.818C70.5 9.21 71.115 1.96 71.12 1.887l.01-.1c-.278.013-.802.096-1.73.418-2.572.894-4.733 3.218-6.47 5.086-1.09 1.175-2.034 2.19-2.916 2.678-.473.262-1.73.96-14.712.273-6.305-.333-12.393-.837-12.454-.842l-.11-.01-.102-.034c-.023-.008-2.43-.822-6.182-1.435-3.45-.564-8.783-1.07-14.584-.272-1.847.254-4.363 1.09-6.565 2.178-2.515 1.245-3.47 2.248-3.545 2.55m32.255 6.535c-11.407 0-23.812-.102-29.1-2.276C2.224 15.528 0 14.444 0 12.36c0-.705.466-1.43 1.425-2.21.717-.585 1.72-1.21 2.9-1.806 2.41-1.22 5.21-2.157 7.307-2.445 6.033-.83 11.568-.304 15.147.283 3.48.57 5.798 1.294 6.317 1.464.83.067 6.462.52 12.284.83 3.677.194 6.705.293 9.003.294 3.934.004 4.673-.29 4.78-.348.638-.353 1.533-1.316 2.48-2.336 1.87-2.01 4.197-4.513 7.182-5.55C70.17.07 71.815-.35 72.62.56c.436.49.413 1.138.243 1.61-.093 1.06-.69 7.595-1.652 10.39l-.83-.287.83.288c-.43 1.254-1.624 2.28-3.647 3.14-1.742.74-4.15 1.36-7.153 1.846-5.597.905-13.277 1.364-22.828 1.364h-3.567" fill="#57585A" mask="url(#b)"/></g><path d="M33.405 20.035l-11.542 1.06c-1.045 0-1.9-.857-1.9-1.906v-2.403c0-1.05.855-1.907 1.9-1.907h11.542c1.045 0 1.9.858 1.9 1.907v1.34c0 1.05-.855 1.908-1.9 1.908" fill="#BAC1E1"/><path d="M21.863 15.763c-.562 0-1.02.46-1.02 1.024v2.402c0 .552.44 1.004.986 1.022l11.535-1.06h.04c.562 0 1.02-.46 1.02-1.024v-1.34c0-.565-.458-1.025-1.02-1.025H21.863zm.04 6.216h-.04c-1.532 0-2.78-1.253-2.78-2.79v-2.403c0-1.538 1.248-2.79 2.78-2.79h11.542c1.533 0 2.78 1.252 2.78 2.79v1.34c0 1.525-1.224 2.767-2.736 2.79L21.903 21.98z" fill="#57585A"/><path d="M43.238 16.68h-19.34c-.122 0-.222-.1-.222-.223v-1.99c0-.122.1-.223.222-.223h19.34c.123 0 .223.1.223.224v1.99c0 .122-.1.223-.222.223" fill="#BAC1E1"/><mask id="d" fill="#fff"><use xlink:href="#c"/></mask><path d="M24.555 15.798H42.58v-.67H24.556v.67zm18.683 1.766h-19.34c-.608 0-1.102-.496-1.102-1.107v-1.99c0-.61.494-1.106 1.102-1.106h19.34c.608 0 1.103.498 1.103 1.108v1.99c0 .61-.494 1.106-1.102 1.106z" fill="#57585A" mask="url(#d)"/><path d="M9.057 11.375c-.28 0-.556-.134-.727-.385-.274-.402-.172-.952.23-1.227 1.593-1.094 2.3-1.19 4.404-1.1.486.02.863.43.842.918-.02.488-.43.867-.916.846-1.926-.082-2.214.024-3.337.795-.152.105-.325.155-.496.155" fill="#FEFEFE" opacity=".6" mask="url(#d)"/></g></svg>