<svg width="69" height="42" viewBox="0 0 69 42" xmlns="http://www.w3.org/2000/svg"><title>Page 1</title><g fill="none" fill-rule="evenodd"><path d="M23.08 22.332l-.686-1.1c-.377-.606.03-1.542.905-2.08L41.357 8.05c.875-.54 2.035-.268 2.577.6l4.398 7.048c.542.87.434 1.92-.24 2.334l-1.226.754" fill="#86AC5A"/><path d="M22.385 22.76l-.687-1.1c-.627-1.005-.113-2.41 1.17-3.2L40.926 7.36c1.262-.775 2.924-.388 3.706.865l4.397 7.047c.356.572.518 1.228.454 1.848-.07.69-.42 1.274-.96 1.605l-1.226.754-.863-1.383 1.226-.753c.143-.087.183-.28.194-.387.027-.26-.052-.562-.217-.827L43.24 9.08c-.148-.237-.38-.402-.656-.466-.275-.064-.558-.02-.795.127L23.73 19.844c-.58.358-.713.84-.64.96l.687 1.1-1.392.857z" fill="#57585A"/><path d="M47.254 19.407c.542.87.27 2.02-.606 2.558L28.59 33.068c-.875.538-2.035.268-2.578-.6l-4.397-7.048c-.543-.87-.27-2.02.606-2.56L40.28 11.76c.874-.538 2.034-.268 2.576.602l4.398 7.047z" fill="#86AC5A"/><path d="M41.263 12.293c-.19 0-.38.05-.553.156L22.652 23.55c-.237.146-.404.377-.47.65-.063.273-.018.554.13.79l4.397 7.046c.305.49.955.642 1.45.34l18.057-11.104c.494-.304.647-.95.34-1.44L42.16 12.79c-.2-.32-.544-.495-.897-.495M27.61 34.16c-.903 0-1.785-.45-2.294-1.265l-4.398-7.047c-.377-.605-.494-1.322-.33-2.018.165-.696.592-1.286 1.2-1.66l18.06-11.103c1.26-.776 2.923-.388 3.705.864l4.397 7.048c.782 1.253.39 2.903-.87 3.68l-18.058 11.1c-.44.272-.93.4-1.413.4" fill="#57585A"/><path d="M37.43 20.57c1.026 1.643.516 3.8-1.14 4.818-1.654 1.017-3.827.51-4.852-1.132-1.025-1.643-.515-3.8 1.14-4.817 1.655-1.02 3.828-.512 4.853 1.13" fill="#F5F3F1"/><path d="M34.43 19.726c-.498 0-.987.137-1.42.404-1.27.78-1.662 2.438-.876 3.697.512.82 1.398 1.27 2.305 1.27.485 0 .977-.128 1.42-.4.614-.378 1.043-.97 1.208-1.67.166-.698.047-1.418-.333-2.028-.38-.61-.978-1.037-1.682-1.2-.207-.05-.416-.074-.624-.074m.01 6.998c-1.454 0-2.878-.724-3.7-2.04-1.26-2.022-.63-4.685 1.407-5.937.986-.606 2.152-.795 3.28-.532 1.13.264 2.09.948 2.7 1.927.612.98.802 2.136.536 3.258-.265 1.12-.955 2.072-1.94 2.68-.712.436-1.5.644-2.282.644" fill="#57585A"/><path d="M13.456 4.99c0 2.28-1.863 4.13-4.16 4.13-2.3 0-4.163-1.85-4.163-4.13S6.996.86 9.296.86c2.297 0 4.16 1.85 4.16 4.13" fill="#FFCD20"/><path d="M9.296 1.673c-1.844 0-3.343 1.488-3.343 3.316 0 1.828 1.5 3.316 3.343 3.316 1.842 0 3.34-1.488 3.34-3.317 0-1.83-1.498-3.317-3.34-3.317m0 8.26c-2.747 0-4.982-2.218-4.982-4.944S6.55.045 9.296.045c2.745 0 4.98 2.218 4.98 4.943 0 2.725-2.235 4.942-4.98 4.942" fill="#57585A"/><path fill="#FFCD20" d="M15.642 12.126H2.95L.82 24.803h3.473l1.345 15.753h7.314l1.345-15.753h3.474"/><path d="M6.39 39.743h5.81l1.28-15.01c.037-.42.39-.743.817-.743h2.507l-1.856-11.05H3.643L1.786 23.99h2.507c.426 0 .78.323.816.744l1.28 15.01zm6.562 1.626H5.638c-.426 0-.78-.325-.816-.746L3.54 25.616H.82c-.242 0-.47-.105-.626-.288-.156-.182-.222-.423-.183-.66l2.13-12.675c.066-.393.408-.68.81-.68H15.64c.4 0 .742.287.808.68l2.13 12.676c.04.235-.028.476-.184.658-.156.183-.384.288-.625.288h-2.72l-1.28 15.008c-.037.42-.392.745-.818.745z" fill="#57585A"/><path d="M7.33 5.532c-.452 0-.82-.364-.82-.813 0-1.373 1.126-2.49 2.507-2.49.453 0 .82.366.82.815 0 .45-.367.813-.82.813-.478 0-.867.386-.867.86 0 .45-.367.814-.82.814M4.435 19.08c-.046 0-.092-.005-.138-.012-.446-.075-.746-.495-.67-.938l.643-3.776v-.745h3.438c.453 0 .82.363.82.812 0 .45-.367.813-.82.813H5.782l-.54 3.167c-.068.397-.415.677-.807.677" fill-opacity=".6" fill="#FEFEFE"/><path d="M63.838 4.99c0 2.28-1.863 4.13-4.16 4.13-2.3 0-4.163-1.85-4.163-4.13S57.378.86 59.677.86c2.298 0 4.16 1.85 4.16 4.13" fill="#FFCD20"/><path d="M59.677 1.673c-1.843 0-3.343 1.488-3.343 3.316 0 1.828 1.5 3.316 3.343 3.316S63.02 6.818 63.02 4.99c0-1.83-1.5-3.317-3.343-3.317m0 8.26c-2.746 0-4.98-2.218-4.98-4.944S56.93.045 59.676.045c2.746 0 4.98 2.218 4.98 4.943 0 2.725-2.234 4.942-4.98 4.942" fill="#57585A"/><path fill="#FFCD20" d="M66.023 12.126H53.33L51.2 24.803h3.475l1.345 15.753h7.314l1.345-15.753h3.473"/><path d="M56.772 39.743h5.81l1.28-15.01c.036-.42.39-.743.817-.743h2.506L65.33 12.94H54.023l-1.856 11.05h2.507c.426 0 .78.323.816.744l1.282 15.01zm6.562 1.626H56.02c-.426 0-.78-.325-.817-.746l-1.28-15.008H51.2c-.24 0-.47-.105-.624-.288-.156-.182-.223-.423-.183-.66l2.13-12.675c.065-.393.407-.68.807-.68h12.693c.4 0 .743.287.808.68l2.13 12.676c.04.235-.027.476-.182.658-.156.183-.384.288-.625.288H65.43l-1.28 15.008c-.036.42-.39.745-.816.745z" fill="#57585A"/><path d="M57.712 5.532c-.452 0-.82-.364-.82-.813 0-1.373 1.125-2.49 2.507-2.49.45 0 .818.366.818.815 0 .45-.367.813-.82.813-.477 0-.866.386-.866.86 0 .45-.367.814-.82.814M54.817 19.08c-.046 0-.092-.005-.138-.012-.447-.075-.748-.495-.672-.938l.657-3.853.123-.668h3.302c.453 0 .82.363.82.812 0 .45-.367.813-.82.813h-1.926l-.54 3.167c-.068.397-.415.677-.807.677" fill-opacity=".6" fill="#FEFEFE"/></g></svg>