<svg width="277" height="287" viewBox="0 0 277 287" xmlns="http://www.w3.org/2000/svg" xmlns:xlink="http://www.w3.org/1999/xlink"><title>Page 1</title><defs><path id="a" d="M256.865.248H.247v260.854h256.618z"/><path id="c" d="M.018 93.79h209.767V.374H.018z"/></defs><g fill="none" fill-rule="evenodd"><g transform="translate(6.253 .377)"><mask id="b" fill="#fff"><use xlink:href="#a"/></mask><path d="M256.865 130.8c-.002 3.648-.106 7.31-.323 10.97-1.653 46.987-32.392 90.805-75.444 109.07-2.603 1.1-5.25 2.12-7.937 3.054-2.686.934-5.413 1.783-8.177 2.543-11.053 3.04-22.694 4.665-34.714 4.665-20.607 0-40.098-4.773-57.43-13.273-4.332-2.126-8.53-4.484-12.575-7.06-9.5-6.58-18.268-14.303-26.01-22.932-2.582-2.876-5.048-5.853-7.39-8.92-5.67-7.695-10.494-16.023-14.41-24.765C8.54 175.843 5.53 165.6 3.49 156.89c-1.02-5.32-1.796-9.55-2.32-14.165-.453-3.98-.75-6.157-.886-10.267-.196-9.172.405-15.308 1.708-22.383 1.304-6.228 3.31-15.09 5.93-21.584 2.62-6.826 5.85-13.157 9.6-19.692 3.752-6.296 8.023-13.112 12.723-19.29 2.684-2.463 5.51-5.95 8.463-9.714 6.61-7.232 13.994-13.422 21.933-17.86 7.94-5.033 16.44-8.995 25.283-12.944 4.42-.546 8.93-3.224 13.497-4.43 7.272-1.432 14.66-1.95 22.066-3.8 7.408-.915 14.837-.49 22.194.385 14.715 1.583 29.145 5.746 42.547 12.06 13.4 6.316 25.776 14.785 36.38 24.98 2.953 2.834 5.764 5.677 8.406 8.778 7.686 10.074 13.33 21.488 17.49 33.5 1.386 4.003 2.6 8.07 3.638 12.175 2.095 7.828 2.75 16.33 3.823 24.836.47 5.064.806 10.2.902 13.326" fill="#F6F3F1" mask="url(#b)"/></g><g transform="translate(43.77 192.96)"><mask id="d" fill="#fff"><use xlink:href="#c"/></mask><path d="M204.578 6.358c0 .326-.908-.982-2.667-.524-.88.02-1.97-.124-3.27-.59-1.297-.113-2.8-1.283-4.502-.69-1.702.462-3.603.3-5.694-.738-2.092-.01-4.375-.67-6.843-.86-1.232.367-2.512-.188-3.837-.152-1.325.007-2.695-.276-4.11-.416-1.414-.16-2.872-.723-4.375-.33-1.502.12-3.047-.21-4.635-.585-1.588-.265-3.218-.276-4.89-.19-1.672.227-3.386.176-5.14-.267-1.755-.12-3.55-.754-5.385-.27-1.834-.084-3.71-.65-5.623-.2-1.594.25-3.216.377-4.864.02-1.647-.193-3.322.263-5.023-.14-1.7.414-3.427.557-5.18.014-1.752.14-3.53.34-5.332.07-3.606.676-7.31.794-11.11.08-3.803.405-7.7.216-11.688.826-2.256.08-4.498.567-6.723.603-2.225.25-4.432.59-6.62.34-2.187.212-4.354.617-6.498.802-2.143.185-4.264.297-6.358.367-4.188 1.148-8.27.19-12.225 1.39-2.966.374-5.858.768-8.667 1.18-2.81.414-5.536.846-8.17 1.297-5.264 1.036-10.157 1.852-14.595 2.92-4.436 1.043-8.42 2.306-11.864 3.336-3.446 1.803-6.354 2.82-8.644 3.72-2.29.667-3.96 3.046-4.932 4.077-1.03 1.81-1.857 4.683-2.518 8.44-.33 2.056-.62 4.266-.873 6.626-.253 2.36-.47 4.87-.655 7.525C.695 48.985.45 54.48.29 60.673c-.16 5-.233 11.203-.26 15.88-.026 5.066-.007 8.85.02 11.897.025 2.77.058 4.49.058 4.682 5.804.034 11.884-.025 18.17.04 6.29.428 12.783.432 19.416-.194 6.633-.364 13.405-1.22 20.245-.107 6.838.26 13.748-.342 20.657.01 6.91-.15 13.82.33 20.66.16 6.84-.234 13.61-.576 20.243-.062 6.633.87 13.128.88 19.415.39 6.288-.464 12.368-.605 18.17-.05 11.61.132 43.856.424 52.7.473 0-.074-.014-1.137-.042-5.264-.014-1.96-.032-2.867-.053-5.86-.022-1.595-.047-5.197-.076-6.54-.028-3.02-.06-5.776-.098-7.445-.037-1.742-.077-3.524-.122-6.987-.044-2.93-.093-4.204-.145-6.285-.054-1.567-.11-3.482-.17-5.088-.063-1.25-.16-2.65-.282-5.033-.12-1.926-.268-4.813-.43-6.44-.164-2.528-.342-4.522-.526-7.13-.184-2.213-.374-4.602-.56-7.416-.187-3.3-.37-4.978-.538-7.32-.168-2.667-.323-3.94-.455-5.166-.265-4.574-4.38-5.133-4.38-5.98l2.668.524z" fill="#BAC2E2" mask="url(#d)"/></g><path d="M243.497 193.11c0 13.7-33.474 73.883-114.63 70.444-50.04-2.12-89.067-38.667-89.067-52.368 0-13.7 49.94-29.67 100.025-29.67 50.086 0 103.672.406 103.672 11.594" fill="#FFF"/><path d="M245.188 197.725c0 13.7-34.53 68.642-115.685 65.203-50.04-2.12-92.015-38.988-89.067-52.368 1.654-7.507 48.906-21.555 98.992-21.555 50.085 0 105.76-2.468 105.76 8.72" fill="#FFF"/><path d="M126.334 82.795s-.347-.573-.742-1.577c-.4-1.004-.834-2.44-1.135-4.164-.133-.863-.268-1.797-.318-2.786-.08-.99-.064-2.033-.067-3.112.006-1.08.026-2.195.07-3.33.05-1.133.112-2.285.207-3.437.102-1.154.208-2.306.338-3.44.134-1.135.265-2.25.41-3.332l.758-5.908c.116-.864.197-1.657.322-2.36.12-.702.293-1.315.446-1.82.315-1.01.646-1.59.646-1.59s.34.574.672 1.578c.162.503.344 1.113.477 1.813.135.702.23 1.493.36 2.355l.86 5.894c.164 1.077.314 2.19.467 3.323.15 1.133.275 2.283.396 3.433.115 1.15.198 2.3.264 3.434.065 1.133.104 2.25.13 3.328.014 1.08.047 2.122-.013 3.112-.034.99-.153 1.926-.272 2.79-.27 1.73-.68 3.173-1.063 4.184-.378 1.01-.715 1.59-.715 1.59-.404.694-1.295.93-1.99.525-.215-.128-.39-.306-.51-.505M197.673 106.203s.123-.647.495-1.64c.37-.992.996-2.32 1.915-3.768.47-.712.99-1.477 1.606-2.225.594-.765 1.295-1.508 2.006-2.29.718-.773 1.47-1.564 2.253-2.35.783-.787 1.59-1.575 2.422-2.342.837-.763 1.677-1.522 2.522-2.253.848-.728 1.683-1.445 2.504-2.126l4.463-3.75c.657-.546 1.24-1.062 1.797-1.485.554-.426 1.086-.752 1.533-1.012.9-.516 1.526-.71 1.526-.71s-.13.642-.547 1.59c-.214.473-.482 1.036-.847 1.63-.363.598-.815 1.233-1.288 1.944-.955 1.414-2.07 3.063-3.262 4.83-.59.89-1.216 1.794-1.852 2.713-.637.918-1.304 1.832-1.975 2.744-.675.908-1.375 1.793-2.074 2.656-.7.86-1.407 1.69-2.102 2.487-.702.788-1.368 1.563-2.067 2.236-.677.69-1.384 1.286-2.043 1.83-1.342 1.065-2.598 1.828-3.548 2.3-.947.473-1.578.663-1.578.663-.774.233-1.59-.206-1.823-.98-.07-.23-.078-.47-.037-.693M65.074 102.08s-.152-.02-.413-.08c-.27-.048-.63-.162-1.097-.3-.912-.295-2.126-.82-3.433-1.612-.645-.407-1.33-.86-2.003-1.4-.68-.53-1.343-1.152-2.036-1.785-.686-.64-1.388-1.312-2.084-2.012-.694-.7-1.39-1.425-2.064-2.173-.67-.753-1.337-1.51-1.976-2.273-.637-.766-1.264-1.52-1.86-2.263l-3.273-4.034c-.476-.594-.928-1.12-1.294-1.625-.37-.5-.647-.99-.867-1.4-.435-.827-.583-1.41-.583-1.41s.596.086 1.464.43c.432.177.946.4 1.484.716.54.31 1.112.706 1.752 1.116l4.356 2.833c.802.514 1.617 1.058 2.445 1.612.828.556 1.65 1.14 2.47 1.727.813.592 1.606 1.208 2.377 1.825.77.617 1.51 1.245 2.22 1.86.702.624 1.39 1.217 1.987 1.84.607.61 1.13 1.246 1.604 1.843.925 1.218 1.572 2.37 1.962 3.246.186.448.337.795.414 1.06.088.253.123.402.123.402.192.82-.316 1.638-1.135 1.83-.18.042-.365.05-.538.03" fill="#FFCC21"/><path d="M48.34 235.944c.713.245 1.322.566 1.888.918.565.354 1.08.744 1.56 1.16.96.832 1.748 1.788 2.563 2.726.797.952 1.557 1.93 2.257 2.952.35.51.686 1.032 1.006 1.565.317.535.616 1.083.88 1.658l-2.792.07 8.3-12.61 1.274-1.936 1.464 1.8 8.735 10.732-2.74.138 8.3-12.61 1.31-1.99 1.456 1.887 8.758 11.36-2.767.103 8.3-12.61 1.31-1.99 1.457 1.887 8.757 11.36-2.787.136 8.275-13.234 1.33-2.127 1.483 2.023 8.78 11.984-2.79.07 8.298-12.608 1.31-1.993 1.457 1.888 8.758 11.36-2.767.102 8.3-12.608 1.378-2.096 1.436 2.056 8.804 12.61-2.814.038 8.298-12.61 1.346-2.043 1.446 1.974 8.78 11.983-2.79.07 8.298-12.608 1.41-2.144 1.425 2.136 8.826 13.234-2.81-.026 8.32-11.983 1.326-1.907 1.417 1.84 8.758 11.358-2.577-.134 8.436-8.856 1.172-1.23 1.23 1.17 8.645 8.234-2.512.185c.585-.982 1.266-1.89 1.96-2.786.36-.437.712-.883 1.082-1.313.37-.43.746-.857 1.13-1.276.77-.837 1.55-1.668 2.422-2.425.44-.38.89-.744 1.382-1.08.48-.346.992-.666 1.56-.943l.344.27c-.13.616-.315 1.19-.533 1.74-.206.558-.452 1.087-.71 1.604-.52 1.033-1.137 1.99-1.76 2.942-.314.475-.634.944-.963 1.407-.328.463-.674.912-1.01 1.37-.7.89-1.414 1.772-2.223 2.58l-1.322 1.32-1.192-1.135-8.644-8.23 2.403-.06-8.435 8.857-1.367 1.435-1.21-1.57-8.76-11.358 2.744-.07-8.322 11.984-1.424 2.05-1.385-2.077-8.827-13.235 2.835-.008-8.3 12.608-1.344 2.044-1.447-1.973-8.782-11.984 2.793-.072-8.3 12.61-1.378 2.094-1.435-2.056-8.804-12.61 2.814-.038-8.298 12.608-1.31 1.992-1.457-1.888-8.758-11.36 2.767-.102-8.3 12.61-1.345 2.043-1.447-1.973-8.78-11.984 2.812-.103-8.275 13.234-1.296 2.072-1.492-1.936-8.76-11.358 2.768-.104-8.298 12.61-1.31 1.99-1.457-1.888-8.758-11.358 2.766-.104-8.298 12.61-1.275 1.936-1.464-1.8-8.735-10.732 2.74-.138-8.3 12.608-1.07 1.627-1.72-1.558c-.47-.424-.902-.874-1.317-1.338-.412-.465-.807-.943-1.19-1.43-.762-.976-1.466-1.996-2.133-3.04-.65-1.06-1.323-2.1-1.827-3.267-.253-.583-.47-1.19-.636-1.836-.165-.645-.29-1.322-.307-2.076M0 280.658c1.136-1.85 2.398-1.844 3.625-1.848l3.696-.09c2.463-.046 4.923-.064 7.383-.065 2.46 0 4.92.024 7.378.06l7.316.15 29.4.043 14.715-.02h3.676l.46.002h.23l.337.018.918.06 1.8.093c2.41.113 4.822.153 7.232.12 2.41-.032 4.816-.14 7.215-.328l1.87-.156 1.824-.112 3.662-.25c2.457-.162 4.952-.3 7.478-.294 2.525.003 5.085.168 7.632.574l-.24-.024c6.72.256 13.62-.347 20.683.01l-.143-.003c6.66-.12 13.207.326 19.65.245l1.193-.022 1.227-.04 2.453-.078 4.934-.13c3.298-.06 6.623-.05 9.96.152l1.253.085.313.022.238.022.152.02.61.077c.814.103 1.573.186 2.38.26 1.595.15 3.195.255 4.8.315 3.204.12 6.423.064 9.638-.134 1.586-.104 3.28-.23 4.92-.305 1.655-.08 3.313-.13 4.974-.15 3.322-.033 6.66.074 9.995.408l-.14-.007c4.95.08 9.908.046 14.877-.026 4.97-.067 9.95-.18 14.957-.154l.94.007.894-.01 1.87-.026 3.738-.042 7.476-.04c2.492-.002 4.985.008 7.48.035l3.747.06c.626.026 1.254.007 1.882.078.314.058.627.174.937.375.154.104.31.217.462.38.077.078.153.152.228.254.038.05.077.09.114.15l.058.09c.012.017.013.03.033.05l.022.03c-.01-.01.078.07.057.11h-.187c-.028.036.054.106.035.095l-.006.02c.002.013-.017.023-.023.036l-.058.07c-.04.052-.078.083-.118.127-.08.087-.158.15-.237.217-.158.143-.313.24-.47.33-.31.174-.62.27-.926.308-.615.034-1.23-.01-1.85-.007l-3.716-.02c-2.48 0-4.963.018-7.447.048l-7.45.12-3.725.084-1.862.047-.97.02-.927.005c-4.945.027-9.914.193-14.894.316-4.98.128-9.974.218-14.976.19h-.06l-.08-.007c-3.185-.284-6.4-.353-9.624-.285-1.61.034-3.226.102-4.84.198-1.628.093-3.2.216-4.88.34-3.316.227-6.652.308-9.99.207-1.667-.05-3.336-.147-5.002-.293-.823-.07-1.69-.16-2.5-.255l-.61-.073-.152-.02-.04-.003c.032.002-.094-.01.065.005h-.02l-.074-.006-.3-.02-1.197-.074c-3.2-.172-6.428-.16-9.673-.08l-4.882.163-2.454.095-1.227.048-1.263.032c-6.65.125-13.19-.274-19.626-.112h-.07l-.073-.003c-6.705-.348-13.58.25-20.632-.008l-.117-.005-.125-.02c-2.293-.364-4.637-.52-7.01-.523-2.376-.008-4.777.123-7.21.286l-3.67.248-1.844.113-1.793.152c-2.487.195-4.978.306-7.468.34-2.49.033-4.98-.01-7.464-.125l-1.87-.098-.917-.06-.114-.007-.06-.004-.027-.002c-.107-.004.114.003.08.002H77.153l-3.674-.017-14.687-.086-29.4-.25-7.38-.206c-2.442-.052-4.883-.094-7.323-.11-2.44-.016-4.88-.015-7.318.012l-3.653.063c-1.223.07-2.41.14-3.72-1.557" fill="#4B5170"/><path d="M138.522 187.73c0-.37-5.518.708-5.518.248 0 .85-.12-2.71-.298-6.62-.09-2.58-.194-4.4-.306-7.062-.112-2.703-.23-5.073-.35-7.502-.12-2.847-.24-4.652-.35-7.682-.112-2.902-.216-4.97-.306-6.882-.18-4.14-.298-6.707-.298-6.62 0-1.055 5.518-.456 5.518-.248 0 .527.12 4.133.298 6.62.09 1.864.194 5.068.306 6.67.055 1.236.113 2.64.172 4.02.058 1.38.118 2.735.178 3.873.06 1.644.12 2.777.178 3.62.06 1.53.116 3.02.172 4.3.112 2.712.216 5.326.306 6.645.178 4.23.298 6.976.298 6.62" fill="#FFF"/><path d="M132.706 146.58c.013.23.024.478.036.74.053 1.148.126 2.804.214 4.843l.054 1.143c.076 1.61.162 3.408.252 5.745.063 1.728.13 3.053.196 4.402.05 1.02.102 2.052.154 3.277l.04.793c.105 2.157.21 4.3.31 6.71.043 1.016.085 1.91.125 2.773.065 1.395.125 2.7.18 4.298.077 1.664.144 3.28.194 4.51l.028.646c.447-.047.94-.107 1.313-.15.406-.05.76-.093 1.077-.128l-.008-.184c-.053-1.165-.124-2.83-.208-4.823-.082-1.195-.177-3.53-.28-6.002l-.026-.644c-.056-1.28-.114-2.772-.172-4.304-.064-.903-.123-2.104-.178-3.624-.06-1.117-.118-2.478-.178-3.863l-.058-1.374c-.04-.918-.077-1.82-.114-2.645-.072-1.024-.14-2.714-.207-4.35-.035-.85-.068-1.664-.1-2.314-.12-1.68-.218-3.96-.267-5.4-.745-.07-1.71-.114-2.377-.076zm4.253 41.15h.004-.005zm1.56 0h.002-.003zm-3.977-.025c.016.088.025.18.025.273 0-.095-.01-.186-.025-.273zm2.416.025c0 .307.088.577.227.8-.107-.22-.18-.487-.223-.8h-.005zm-3.973 1.938c-.96 0-1.33-.635-1.478-1.24-.036-.118-.058-.237-.066-.355-.026-.2-.034-.378-.04-.508l-.067-1.622c-.05-1.227-.116-2.838-.192-4.514-.057-1.6-.117-2.896-.18-4.28-.042-.865-.084-1.765-.127-2.788-.1-2.4-.203-4.536-.31-6.685l-.04-.807c-.05-1.226-.102-2.25-.152-3.263-.067-1.36-.134-2.698-.198-4.437-.09-2.324-.175-4.113-.25-5.716l-.055-1.15c-.165-3.825-.277-6.243-.295-6.558-.003-.045-.005-.09-.005-.136v-.003c0-.03 0-.056.002-.084.024-.446.254-1.54 1.89-1.913.5-.114 1.125-.17 1.913-.17 3.138 0 4.84.307 4.84 1.922 0 .467.117 4.048.293 6.508.034.693.068 1.515.103 2.374.062 1.538.133 3.28.204 4.297.04.87.078 1.773.117 2.694l.058 1.372c.058 1.374.118 2.724.176 3.857.056 1.51.114 2.678.177 3.595.06 1.574.12 3.06.175 4.338l.027.648c.1 2.45.195 4.767.276 5.96.083 1.945.246 5.8.286 6.512.01.07.015.142.015.214 0 .85-.68 1.576-1.53 1.593-.246.005-.454-.028-.64-.098-.444.03-1.198.122-1.74.187-1.38.167-2.29.277-2.946.237-.07.01-.138.016-.198.017h-.045zM245.928 281.35l-.184-13.632c-.05-4.097-.11-8.877-.175-13.998-.042-2.56-.083-5.203-.125-7.89l-.038-2.023-.05-2.01c-.04-1.35-.083-2.708-.124-4.065l-.202-4.087-.222-4.003c-.166-2.69-.33-5.34-.49-7.903-.318-5.114-.617-9.887-.873-13.977-.062-1.023-.12-2.002-.178-2.934l-.194-2.617c-.06-.83-.12-1.607-.172-2.326-.057-.782-.03-1.4-.02-2.002.03-1.188.122-2.115.193-2.754.037-.316.066-.596.112-.787.04-.19.074-.277.074-.277h.876l.355.888c.237.63.5 1.574.698 2.77.102.59.173 1.295.247 1.947l.238 2.32.266 2.668c.08.93.164 1.908.25 2.928l1.21 13.945.63 7.85c.1 1.357.2 2.726.303 4.1l.252 4.084.16 4.113.07 2.06c.02.677.037 1.352.055 2.024l.192 7.9c.12 5.127.17 9.898.202 13.997.026 4.107.05 7.53.064 9.926v3.756l-3.4.01z" fill="#4B5170"/><path d="M242.42 193.912l.017.053c0 .025-.074.057-.08.052-.048.01-.092.004-.125.003l-.213-.01c-.14-.003-.26-.02-.383-.014-.244.006-.462.034-.654.083-.193.054-.36.117-.51.203-.15.082-.285.178-.413.277l-.277.038c-.653.165-1.327.22-1.982.184-.328-.012-.65-.065-.97-.115-.316-.06-.626-.142-.933-.227l.435.095c-.32-.025-.616-.07-.864-.136-.252-.063-.477-.134-.676-.202-.404-.137-.738-.258-1.028-.34-.146-.043-.277-.074-.396-.094-.12-.024-.225-.034-.318-.036-.19-.005-.33.02-.48.07l-.072.022-.05.014c-1.18.327-2.447.395-3.64.22-1.197-.17-2.313-.56-3.33-1.056l.8.19c-1.357-.01-2.574-.215-3.718-.396-1.144-.186-2.22-.363-3.26-.438l.673-.07c-.835.247-1.644.23-2.262.164-.63-.066-1.128-.162-1.536-.2-.096-.007-.196-.017-.28-.018-.044 0-.09-.005-.127-.003h-.192c-.225.004-.617-.008-.887-.026-.588-.037-1.14-.104-1.665-.17-.525-.068-1.022-.136-1.497-.185l-.423-.047-.456-.066-.81-.146c-1.01-.203-1.73-.268-2.23-.123l-.14.04-.193.016c-1 .08-1.953.003-2.837-.13-.442-.066-.87-.147-1.287-.233l-.615-.133-.3-.07-.15-.034-.038-.008h-.005c-.13-.027.176.033.144.027h-.003l-.01-.003-.017-.002-.075-.01-.526-.073-.53-.052c-.357-.028-.718-.046-1.083-.054-.73-.016-1.48.005-2.243.048l.163-.015c-1.928.276-3.963.2-5.89-.285l.35.055c-1.097-.075-2.012-.272-2.8-.36-.39-.047-.748-.07-1.07-.063-.32.008-.604.048-.867.118l-.29.078-.312-.014c-1.12-.05-2.08-.22-2.92-.297-.844-.083-1.548-.074-2.144.072l-.06.015-.09.014c-.858.14-1.76.25-2.706.276-.944.025-1.932-.043-2.91-.25l.192.032c-.563-.067-1.294-.015-2.18.032-.878.042-1.947.07-3.082-.198l.974-.003c-.952.234-1.97.408-3.042.432-1.07.027-2.19-.11-3.252-.44l.788.09c-1.724.137-3.69.373-5.81.065l.7-.013c-1.94.368-3.922.586-5.92.612-1.996.026-4.004-.14-5.976-.505l.62.025c-2.056.222-4.054.278-5.986.364-1.93.084-3.8.198-5.598.478l-.124.02-.127.004c-1.994.065-4.214.56-6.764.622l.208-.014c-2.133.236-4.5.638-7.112.356l.464.003c-2.02.2-4.14.603-6.427.808l-6.51.383.45-.075c-.573.15-1.147.28-1.72.377-.572.094-1.14.166-1.698.218-1.117.102-2.196.13-3.223.16-1.028.026-2.008.054-2.93.14-.46.046-.908.108-1.342.182l-.638.133-.615.166-.21.057-.157.022-5.45.744-2.724.372c-.858.116-1.807.28-2.705.42l-5.46.866-.342.055-.042.006-.02.003h-.012c.03-.005-.083.015.067-.01l-.085.015-.17.033-.678.133-1.367.263-2.722.515-5.396 1.04c-.893.178-1.78.366-2.662.56l-1.316.303-1.333.32c-1.744.427-3.5.91-5.248 1.415l-5.286 1.57.385-.157c-1.453.754-2.94 1.442-4.436 2.064-1.493.625-3.003 1.18-4.428 1.735l-.188.064c-.14.05-.287.098-.438.17-.15.074-.307.155-.465.26-.318.202-.644.462-.97.763-.326.3-.65.642-.983 1.016l-.515.59c-.176.203-.373.43-.6.675l.3-.41c-.578 1.022-1.03 2.353-1.405 3.702-.187.68-.355 1.374-.51 2.078l-.218 1.063-.104.535-.05.27-.012.065-.003.017c.005-.032-.016.097.01-.068l-.005.035-.02.14-.612 4.47-.154 1.118-.076.558-.04.28v.017l.008-.075-.003.035-.007.07-.013.14-.207 2.247-.416 4.494c-.13 1.442-.233 2.958-.33 4.44-.19 2.98-.334 5.968-.45 8.96-.053 1.493-.114 3.005-.143 4.484l-.098 4.51-.197 9.023-.026 1.128-.015 1.09-.017 2.257-.035 4.512-.033 4.506.015 4.512-3.4.016-.1-4.51-.05-4.52-.05-4.51-.024-2.257-.005-1.166.01-1.127.1-9.024.048-4.514c.016-1.53.06-3.023.1-4.538.082-3.02.195-6.042.357-9.068.083-1.52.167-3.008.29-4.563l.367-4.497.184-2.25.033-.373.036-.28.07-.56.142-1.118.566-4.478.018-.14.036-.228.05-.286.104-.574.224-1.15c.16-.766.337-1.536.54-2.308.418-1.548.904-3.102 1.794-4.714l.11-.198.192-.21c.14-.152.297-.333.474-.54l.55-.634c.383-.436.8-.884 1.267-1.32.466-.434.983-.858 1.576-1.24.292-.193.613-.37.948-.532.337-.162.7-.296 1.074-.414l-.188.064c1.5-.588 2.933-1.125 4.333-1.717 1.4-.588 2.76-1.226 4.092-1.924l.18-.095.205-.06c3.504-1.064 7.07-2.178 10.73-3.09l1.355-.33 1.376-.322c.916-.208 1.832-.405 2.746-.593 1.827-.377 3.648-.72 5.46-1.06l2.712-.512 1.347-.26.68-.13.17-.034.246-.044.34-.055 5.462-.864c.924-.14 1.79-.294 2.76-.427l2.754-.376 5.507-.75-.367.08.875-.237.872-.183c.578-.1 1.15-.177 1.714-.23 1.125-.107 2.203-.133 3.23-.16 1.03-.028 2.008-.057 2.94-.142.465-.043.917-.102 1.36-.173.442-.077.87-.174 1.29-.282l.246-.063.21-.012 6.383-.37c2.002-.18 4.123-.564 6.39-.782l.242-.022.223.027c1.81.22 3.87-.07 6.126-.324l.11-.01.098-.002c1.96-.017 4.173-.49 6.682-.585l-.25.023c4.14-.62 8.13-.427 11.787-.808l.32-.033.302.058c3.382.65 6.883.59 10.327-.053l.358-.067.34.054c1.422.223 3.037.076 4.856-.072l.41-.034.378.122c1.21.386 2.567.33 4.065-.036l.495-.12.48.117c.505.124 1.136.14 1.93.102.79-.03 1.745-.114 2.855.016l.105.013.087.02c1.23.278 2.605.213 4.112-.02l-.15.03c.618-.143 1.238-.207 1.823-.217.587-.01 1.14.03 1.66.084 1.034.11 1.935.27 2.698.308l-.603.064c.614-.16 1.235-.228 1.818-.236.584-.008 1.13.04 1.636.105 1.008.134 1.87.32 2.577.368l.188.013.165.044c1.42.37 2.898.446 4.39.25l.09-.012.072-.003c.834-.04 1.685-.057 2.552-.03.434.014.87.04 1.312.08l.662.072.66.096.074.01.182.036.036.01.142.033.283.067.555.127c.366.08.724.15 1.07.207.695.112 1.35.162 1.945.12l-.333.055c.745-.19 1.503-.224 2.16-.17.667.05 1.246.168 1.76.268l.718.138.312.048.35.042c.553.063 1.08.14 1.582.21.5.07.976.13 1.42.163.248.017.373.026.665.028h.015-.062H215.802l.26.01c.176.006.334.022.494.037.624.07 1.144.174 1.542.216.41.05.654.026.818-.015l.376-.096.296.023c2.505.204 4.798.863 6.708.89l.437.006.362.182c1.483.75 3.005 1.022 4.418.64l-.12.038c.295-.094.594-.172.902-.213.304-.04.61-.055.9-.04.293.012.574.05.832.1.263.05.507.113.73.18.455.135.846.285 1.173.398.167.057.31.104.432.14l.275.077.435.095c.438.194.875.372 1.313.546.44.17.88.334 1.34.475l-.276.04c.335-.01.67.002.998.084.326.068.635.21.905.372.133.088.257.183.37.285.112.1.21.218.297.333.09.117.17.228.23.354l.09.178c.02.032.028.052.04.078.02.013-.024.02.003.04l.038-.03z" fill="#4B5170"/><path d="M50.757 217.323c.01.01.072.126.03-.033-.082-.113-.057-.097-.084-.125.003-.028.035-.048.084-.077.09-.057.21-.118.327-.18.238-.125.492-.27.75-.392.518-.252 1.06-.484 1.62-.672l.208-.07.106-.036.026-.01h.006l.004-.002.058-.007.012-.005.05-.013.41-.11c.27-.074.543-.135.815-.2.544-.125 1.09-.238 1.64-.33 1.094-.19 2.195-.316 3.298-.413l3.308-.31-.094.01c2.87-.406 5.78-.788 8.72-1.023 1.472-.118 2.95-.203 4.432-.247.738-.02 1.496-.028 2.2-.035.685-.015 1.386-.038 2.09-.072 2.813-.137 5.643-.42 8.484-.755l4.27-.538.535-.07.21-.03.266-.043 1.112-.167c.74-.104 1.477-.195 2.215-.277 1.474-.162 2.943-.285 4.403-.39l4.32-.263 4.324-.256 1.08-.064.495-.028.54-.04 2.16-.16 8.64-.644 2.16-.16 2.325-.04c1.403-.028 2.718-.1 3.928-.326l.107-.02.224-.017 5.89-.442.467-.032.208-.01.283-.004c.202-.004.353.002.507.008l.452.025c.58.04 1.09.1 1.52.136.43.038.777.043 1.038.014.128-.016.238-.04.34-.065.094-.03.185-.07.276-.11l.246-.11.01-.005c.584-.22 1.193-.374 1.787-.464.593-.09 1.17-.12 1.706-.118 1.074.005 2 .114 2.734.126l-.385.026c1.64-.232 3.365-.453 5.255-.366l.153.007.147.028c.668.122 1.28.22 1.795.25.516.028.907-.016 1.2-.115l.227-.078.21-.027c1.433-.188 2.77-.198 4.063-.177 1.293.025 2.545.09 3.78.148l-.402.017c1.854-.227 3.55-.118 5.135-.024 1.586.102 3.075.207 4.5.172l.26-.007.246.05c2.637.524 5.71.254 9.012.27l1.24.024 1.15.03 2.358.025c1.603.02 3.274.064 4.983.284l-.707.03c.43-.083.86-.144 1.283-.18.42-.032.834-.044 1.24-.04.807.014 1.568.092 2.284.18l2.022.256c.316.034.622.06.92.08.293.014.577.017.852.012l.22-.004.143.02c1.128.163 2.293.234 3.492.256l.443.002.47-.002.938-.005 1.88-.01.936-.002c.37.004.707.017 1.044.037.673.037 1.326.1 1.958.163 1.26.128 2.445.263 3.51.242l-.18.014c1.275-.15 2.463-.027 3.47.07.505.05.97.094 1.378.1.206.007.393-.004.568-.01.175-.01.33-.033.478-.06l-.14.042c.492-.156 1.013-.253 1.547-.31.536-.052 1.09-.03 1.637.05.546.097 1.086.252 1.578.492.494.238.946.538 1.332.89l-.19-.105c.232.16.467.342.73.465.257.147.537.24.848.328.156.03.32.072.49.09.17.017.353.04.543.047.192.013.384 0 .608.02.11.015.23.01.375.093.076.034.103.12.116.183-.008.06-.026.114-.04.16-.03-.045-.054-.086-.08-.115-.043-.01-.054-.02-.08.003-.034.024-.107.077-.174.134-.136.12-.294.237-.46.36-.33.247-.72.463-1.152.608-.216.06-.442.14-.673.163-.232.04-.467.055-.706.06-.476 0-.948-.07-1.406-.19l-.19-.103c-.617-.207-1.183-.28-1.74-.226-.28.012-.558.07-.842.138-.285.064-.57.172-.864.28l-.048.02-.09.022c-.35.092-.7.16-1.036.2-.334.04-.66.05-.965.05-.615 0-1.172-.046-1.687-.087-1.027-.086-1.895-.138-2.656-.033l-.076.01-.105.005c-1.444.05-2.758-.092-3.99-.192-.614-.05-1.21-.095-1.787-.118-.29-.01-.58-.016-.833-.015l-.94.018-1.88.043-.94.023-.47.01-.496.007c-1.305-.002-2.646-.055-4.003-.226l.364.017c-1.67.076-3.14-.167-4.45-.298-.653-.07-1.268-.118-1.84-.116-.285.002-.56.016-.828.04-.263.028-.516.07-.762.122l-.347.072-.362-.04c-1.428-.16-2.922-.18-4.478-.17l-2.38.016-1.22-.01-1.13-.003c-1.506.015-3.07.11-4.72.14-1.646.03-3.388-.026-5.18-.368l.507.042c-1.712.052-3.358-.06-4.903-.15-1.542-.088-2.997-.146-4.26.022l-.195.025-.208-.01c-1.24-.05-2.462-.105-3.644-.12-1.18-.013-2.33.014-3.352.156l.44-.104c-1.04.36-2.077.42-2.96.375-.89-.046-1.665-.18-2.377-.303l.3.034c-1.324-.057-2.804.118-4.338.35l-.192.03-.193-.005c-1.064-.02-1.93-.117-2.656-.11-.727.002-1.29.09-1.8.286l.254-.114c-.36.184-.735.34-1.12.458-.386.11-.77.19-1.14.235-.742.086-1.406.056-1.98.013l-1.487-.14-.302-.02c-.097-.005-.198-.01-.248-.008l-.095-.003c-.028-.002-.116.005-.17.008l-.29.015-6.163.42.33-.038c-1.634.29-3.215.35-4.7.37l-1.098.01-.536.003-.268.003h-.203l-.034.002h-.017c.07-.004-.178.008.15-.008l-2.16.146-8.646.58-2.16.147-1.13.068-1.08.056-4.328.225-4.33.224c-1.423.08-2.835.174-4.235.306-.7.066-1.395.14-2.087.227l-1.033.138-.595.08-.54.063-4.335.477c-2.9.296-5.826.543-8.787.64-.738.025-1.48.037-2.24.04-.74-.003-1.427-.008-2.132.002-1.405.018-2.812.076-4.222.167-2.822.18-5.647.505-8.504.863l-.06.007-.033.004-3.313.255c-1.104.092-2.21.155-3.322.15-.555.004-1.112-.015-1.67-.046-.28-.018-.56-.03-.84-.06l-.42-.038-.05-.006h-.014c-.05.004.064-.01.052-.008h-.011l-.025-.002-.1-.01-.203-.015c-.54-.04-1.09-.09-1.662-.147-.286-.03-.578-.072-.888-.123-.157-.025-.314-.052-.5-.108-.09-.026-.196-.058-.327-.124-.086-.06-.136-.057-.256-.232-.1-.204-.034-.166-.042-.22l.6-.143zM50.258 264.34l.01-.004c.016-.012.048-.034.08-.047.064-.03.148-.043.215-.035.064.004.05-.006.08-.008l.11-.025.214-.054.41-.124c.268-.094.525-.2.773-.31.25-.106.49-.236.728-.357.235-.13.467-.258.694-.398l.58-.064c1.334-.18 2.83-.545 4.39-.783 1.563-.24 3.185-.446 4.828-.606l9.545-.873 19.093-1.695 9.55-.82 9.556-.76c6.372-.49 12.746-.97 19.126-1.408l9.574-.634c3.194-.197 6.393-.347 9.594-.497 3.206-.14 6.404-.254 9.645-.325 3.22-.052 6.444-.023 9.645.02 6.41.088 12.803.274 19.192.528l9.58.392 4.786.2.6.027.148.006h-.087.037l.075-.003.275-.007 1.234-.04c.888-.014 1.997.047 3.09.45l-.166-.052c.34.098.792.134 1.413.14.614.012 1.404-.012 2.32.177l.275.056.23.118c.875.45 1.77.7 2.67.71.898.012 1.82-.217 2.728-.652l.282-.136.246-.035c.374-.054.743-.084 1.1-.08.352.005.693.032 1.01.075.318.043.618.098.897.155l.782.17c.243.053.466.1.664.133.11.02.192.027.283.04.097.016.162.01.242.02.082.008.13-.006.198 0 .063.003.103-.01.158-.01.048-.007.084-.02.13-.023.04-.015.076-.035.122-.037l.725-.207c.876-.02 1.755.03 2.62.173.863.14 1.71.368 2.523.68l-.595.027c.844-.09 1.716-.045 2.518.21.4.123.78.294 1.123.513.17.11.338.214.487.348l.22.196c.07.05.14.16.207.152-.068.093-.2.053-.287.07l-.287.015c-.19.017-.366.02-.543.044-.353.046-.685.114-1 .2-.632.178-1.198.423-1.73.723l-.028.015-.567.012c-.758.015-1.498.045-2.228.097-.73.052-1.452.117-2.168.21l.725-.207c-.19.1-.39.19-.59.272-.205.066-.415.134-.62.182-.203.036-.417.08-.613.096-.19.012-.402.032-.58.022-.177-.007-.372-.01-.533-.03-.164-.017-.34-.033-.488-.06-.313-.045-.6-.1-.863-.154l-.742-.147c-.23-.045-.44-.078-.637-.1-.196-.024-.373-.032-.54-.033-.16.002-.308.022-.448.04l.53-.17c-.66.33-1.365.607-2.11.8-.744.196-1.527.307-2.316.313-.788.007-1.577-.092-2.332-.28-.754-.188-1.472-.463-2.142-.794l.503.175c-.354-.07-.87-.07-1.545-.063-.67.002-1.523-.005-2.44-.242l-.055-.014-.112-.037c-.414-.14-.927-.19-1.63-.166l-1.158.058-.322.014-.075.002h-.2l-.15-.002-.598-.015-4.788-.116-9.57-.224-9.563-.17c-3.188-.063-6.373-.114-9.554-.142-3.185-.023-6.348-.033-9.513.038-3.144.087-6.328.22-9.5.378l-9.54.534-9.545.564c-6.366.392-12.732.828-19.098 1.27l-19.102 1.343-19.1 1.392-9.55.72c-1.537.113-3.083.323-4.687.486-1.603.137-3.298.22-5.152-.25l.578-.063c-.345.046-.69.09-1.04.09-.35.01-.7-.008-1.05-.055-.348-.048-.692-.127-1.025-.246-.165-.06-.33-.117-.486-.203l-.232-.126c-.037-.023-.077-.044-.11-.07-.008-.01-.057-.028-.03-.032.05.004.114-.01.16-.045.022-.016.046-.04.053-.053l-.018-.005-.4-.47z" fill="#4B5170"/><path d="M162.28 187.875c0-.05-5.524.71-5.524 0V145.464c0 .578 5.523-.954 5.523 0v42.412z" fill="#FFF"/><path d="M158.32 147.068v39.55c.507-.013 1.267-.06 2.396-.166V146.75c-.506.052-1.095.136-1.492.193-.33.047-.63.09-.905.125m-.23 42.675c-1.346 0-1.895-.208-2.327-.598-.363-.327-.57-.79-.57-1.27v-42.49c0-.863.7-1.563 1.563-1.563.273 0 .53.07.752.192.364-.036.887-.11 1.273-.166 2.334-.333 3.59-.473 4.445.27.374.323.596.786.616 1.275l.002.068v42.452c0 .864-.7 1.563-1.563 1.563-.077 0-.152-.005-.224-.016l-.238.024c-1.685.175-2.868.26-3.727.26" fill="#4B5170"/><path d="M114.696 188.355c0 .302-5.517.81-5.517.25 0-.09-.12-2.154-.3-6.62-.09-2.175-.194-4.393-.306-6.78-.11-2.386-.23-4.94-.35-7.785-.12-3.026-.24-4.838-.35-7.78-.112-2.957-.216-4.435-.306-6.784-.178-3.91-.298-6.178-.298-6.62 0-.254 5.518.354 5.518-.248 0-.098.12 3.185.298 6.62.09 2.247.194 5.565.306 6.785.112 2.992.23 5.217.35 7.778.12 2.965.24 5.47.35 7.874.112 2.404.216 4.61.306 6.692.18 4.11.298 6.85.298 6.62" fill="#FFF"/><path d="M111.225 145.977zm0 .003zm0 .002v.002-.002zm0 .003v.002-.002zm-2.33 1.78l.07 1.485.164 3.534c.042 1.108.087 2.013.135 2.968.053 1.093.11 2.252.17 3.83.058 1.5.117 2.708.177 3.932.058 1.173.116 2.365.174 3.845.118 2.82.237 5.356.348 7.728l.015.324c.106 2.284.206 4.416.292 6.508.102 2.55.184 4.316.237 5.375.708-.01 1.658-.077 2.39-.163l-.234-5.328c-.074-1.735-.16-3.556-.25-5.505l-.098-2.11c-.1-2.13-.205-4.368-.308-6.956l-.096-2.017c-.086-1.788-.17-3.555-.253-5.724-.09-1.01-.167-3.136-.244-5.195l-.062-1.63c-.095-1.808-.172-3.584-.225-4.84-.59 0-1.307-.02-2.2-.056l-.206-.008zm4.24 40.52l-.002.063v-.062zm-.002.063v.002-.002zm0 .003v.002zm0 .003v.002-.002zm0 .002h.006-.007zm-2.395.14l.003.11c0-.038 0-.073-.002-.11zm-.185 1.924c-.803 0-2.938 0-2.938-1.816l-.017-.326c-.04-.804-.143-2.817-.28-6.232-.086-2.084-.185-4.21-.292-6.488l-.012-.28c-.114-2.42-.233-4.963-.352-7.793-.058-1.473-.116-2.654-.172-3.818-.06-1.236-.12-2.452-.178-3.967-.06-1.562-.116-2.71-.17-3.793-.048-.967-.093-1.883-.136-2.992l-.164-3.517c-.096-2.02-.135-2.852-.135-3.162 0-.425.18-.847.487-1.142.565-.543 1.086-.522 3.03-.446.762.03 2.096.083 2.704.033.238-.158.522-.252.83-.258.643-.017 1.403.26 1.578 1.565h.015c0 .034 0 .067-.002.1.01.092.016.187.02.288.04 1 .143 3.532.28 6.15l.062 1.657c.073 1.95.155 4.163.238 5.068.003.028.004.056.005.085.082 2.175.167 3.943.254 5.73l.096 2.034c.104 2.59.208 4.822.308 6.943l.1 2.11c.09 1.954.175 3.78.25 5.516.127 2.938.26 5.974.288 6.5.008.06.012.123.012.185v.003c-.002 1.537-1.574 1.725-2.836 1.876-.966.116-2.04.185-2.87.185z" fill="#4B5170"/><path d="M91.345 193.684c-.058-.385-.137-2.647-.245-3.03-1.46-5.174-6.835-8.185-12.008-6.727-2.015.57-3.696 1.736-4.918 3.25-1.595-2.357-4.57-3.543-7.457-2.73-3.08.87-5.054 3.732-4.932 6.796-2.31-.878-4.91-1.05-7.47-.33-3.034.857-5.458 2.81-6.965 5.31-1.507 2.502-2.1 5.287-1.468 8.587 0 .2 2.842-.407 7.104-1.74 4.262-.423 9.945-2.226 15.628-3.823 5.683-.975 11.366-2.37 15.628-3.825l7.103-1.738" fill="#FFF"/><path d="M57.562 192.026c-.945 0-1.89.13-2.823.393-2.54.715-4.69 2.353-6.05 4.612-1.132 1.875-1.615 3.856-1.464 6.02 1.126-.257 2.94-.737 5.294-1.473.1-.032.206-.053.31-.064 3.376-.336 7.747-1.593 12.374-2.922.99-.285 1.99-.57 2.987-.852.053-.015.107-.026.16-.036 5.582-.958 11.19-2.33 15.386-3.763.044-.015.09-.028.134-.04l5.824-1.424c-.03-.504-.075-1.218-.11-1.445-1.24-4.31-5.748-6.82-10.07-5.603-1.628.46-3.054 1.403-4.124 2.726-.312.385-.796.597-1.282.58-.495-.02-.95-.276-1.23-.686-1.262-1.867-3.567-2.71-5.737-2.1-2.33.657-3.89 2.807-3.794 5.23.02.523-.222 1.024-.65 1.33-.425.306-.977.38-1.468.19-1.186-.45-2.424-.676-3.666-.676m-11.59 14.368c-.587 0-.793-.152-1.005-.307-.32-.235-.543-.594-.62-.983-.677-3.54-.133-6.708 1.664-9.687 1.775-2.94 4.574-5.075 7.88-6.008 2.152-.606 4.368-.673 6.512-.206.637-2.967 2.855-5.405 5.89-6.26 2.844-.802 5.84-.04 7.938 1.91 1.27-1.133 2.777-1.963 4.437-2.43 5.99-1.69 12.247 1.81 13.937 7.805.096.34.14.84.222 2.265.026.428.046.807.066.962.1.79-.403 1.556-1.176 1.745l-7.035 1.722c-4.318 1.47-10.04 2.87-15.72 3.85-.967.27-1.933.55-2.892.824-4.698 1.35-9.138 2.627-12.766 3.012-4.474 1.394-6.39 1.784-7.33 1.784" fill="#4B5170"/><path d="M139.814 187.506c.006-.71-.007-1.11-.05-1.178-.283-2.102-1.624-4.978-3.56-6.54-1.94-1.852-4.473-2.062-7.146-2.108-2.08.144-3.934 1.26-5.394 2.375-.587-1.498-1.565-3.52-2.768-3.06-1.203-.867-2.632-1.148-4.124-.882-1.59.402-2.994 1.46-4.048 1.922-1.054.67-1.76 2.958-1.956 3.948-2.128-1.58-4.663-2.09-7.308-1.58-3.134.334-5.852 1.853-7.758 4.064-1.907 2.212-3.002 5.115-2.89 8.217l7.344-.81c4.406-.737 10.282-1.138 16.157-1.78 2.938-.245 5.875-.416 8.63-.663 2.753-.02 5.323-1.166 7.527-1.115 4.406-1.158 7.344-.45 7.344-.81" fill="#FFF"/><path d="M138.437 187.153zm0 .002h0zm.002.002v-.001zm-33.048-5.38c-.534 0-1.08.054-1.637.162-.043.007-.086.013-.13.018-2.624.28-5.018 1.533-6.74 3.53-1.34 1.554-2.177 3.442-2.433 5.443l5.49-.604c2.978-.496 6.574-.84 10.38-1.203 1.905-.18 3.863-.368 5.82-.582 1.396-.117 2.753-.214 4.092-.31 1.557-.113 3.09-.223 4.57-.356.04-.003.084-.005.125-.006 1.24-.01 2.503-.292 3.724-.566 1.25-.28 2.433-.545 3.623-.552 2.446-.62 4.447-.704 5.78-.704h.072c-.357-1.66-1.423-3.843-2.91-5.043-.033-.027-.066-.056-.097-.086-1.532-1.463-3.632-1.63-6.02-1.673-1.357.11-2.825.783-4.49 2.054-.39.298-.895.396-1.37.263-.47-.13-.855-.477-1.034-.934-.532-1.353-.913-1.885-1.097-2.084-.392.057-.8-.04-1.13-.28-.825-.593-1.793-.8-2.88-.62-.823.22-1.66.694-2.4 1.115-.413.234-.805.456-1.19.636-.36.324-.964 1.655-1.213 2.896-.105.524-.47.96-.972 1.15-.498.194-1.063.117-1.492-.203-1.3-.966-2.815-1.46-4.444-1.46zm-12.58 12.47c-.373 0-.737-.134-1.023-.38-.33-.284-.525-.693-.54-1.127-.122-3.407 1.038-6.708 3.268-9.293 2.227-2.585 5.32-4.213 8.71-4.59 2.357-.44 4.607-.177 6.618.76.42-1.076 1.078-2.29 2.04-2.9.068-.044.14-.082.213-.115.287-.126.66-.338 1.058-.563.883-.503 1.983-1.127 3.232-1.443.036-.008.07-.016.108-.023 1.705-.304 3.325-.036 4.73.774 1.137-.023 2.162.764 3.072 2.378 1.604-.973 3.137-1.5 4.65-1.605.045-.002.09-.004.135-.003 2.835.05 5.798.282 8.15 2.495 2.316 1.9 3.712 5.102 4.057 7.36.086.338.092.78.085 1.55-.005.413-.19.85-.485 1.142-.55.54-1.178.53-2.125.515-1.134-.017-3.25-.05-5.9.647-.142.037-.292.052-.434.05-.884-.017-1.958.22-3.095.475-1.298.292-2.768.62-4.318.642-1.478.13-3.008.242-4.562.354-1.327.096-2.67.192-4.015.305-1.933.21-3.905.4-5.823.582-3.77.36-7.328.7-10.206 1.182-.028.004-.058.01-.087.012l-7.344.808c-.057.006-.114.01-.17.01z" fill="#4B5170"/><path d="M234.046 192.302c.09-.585.16-.462.202-.536.288-3.116-.535-4.13-2.098-7.147-1.563-1.557-3.865-4.242-6.537-3.57-2.08-.2-4.075 1.392-5.774 1.18-.302-.718-1.032-2.847-2.06-3.58-1.026.192-2.352-2.65-3.843-1.732-1.592.203-3.112-.177-4.363 1.022-1.25.494-2.233 2.657-2.747 3.445-1.816-1.658-4.165-3.63-6.81-3.09-1.566-.498-3.094.344-4.522.532-1.427.562-2.754 1.18-3.92 1.8-1.165 1.28-2.17 2.373-2.95 3.525-.78 1.152-1.34 2.366-1.612 3.894 0-.444 2.94.25 7.35.665 2.204.294 4.776-.045 7.532.873 1.377-.283 2.8.136 4.248.25 1.447 1.02 2.917-.206 4.386.34 1.47.11 2.94.573 4.386.576 1.447.145 2.87.222 4.25-.027 2.755.895 5.327.314 7.53.913 4.41.566 7.35.267 7.35.666" fill="#FFF"/><path d="M226.997 190.1c2.103.264 3.838.325 5.11.37.215.008.427.016.634.026-.024-1.475-.48-2.333-1.41-4.083-.145-.27-.296-.554-.456-.86l-.288-.292c-1.28-1.302-3.037-3.084-4.592-2.695-.173.043-.352.056-.53.04-.728-.066-1.57.23-2.457.548-1.068.382-2.17.777-3.362.627-.556-.07-1.03-.43-1.248-.947l-.152-.378c-.18-.458-.68-1.723-1.146-2.305-.722-.196-1.302-.732-1.797-1.19-.205-.188-.524-.483-.73-.614-.14.062-.286.103-.438.123-.502.063-.986.077-1.412.09-1.07.03-1.606.066-2.068.508-.146.14-.318.25-.507.326-.482.19-1.286 1.6-1.588 2.13-.162.285-.306.533-.424.715-.25.383-.658.638-1.113.695-.453.06-.912-.087-1.25-.396-1.655-1.513-3.574-3.095-5.443-2.713-.262.053-.532.04-.786-.042-.633-.2-1.383.002-2.254.24-.446.12-.905.244-1.387.322-1.167.465-2.294.98-3.356 1.534-1.046 1.152-1.95 2.15-2.628 3.15-.334.49-.603.97-.818 1.458.308.04.65.087 1.028.14 1.19.162 2.67.366 4.38.527.732.096 1.48.12 2.275.148 1.57.052 3.335.112 5.224.677 1.07-.14 2.104.01 3.03.144.428.06.832.12 1.226.15.28.023.548.12.777.28.252.178.502.17 1.295.043.7-.113 1.562-.25 2.508.035.65.06 1.276.172 1.883.28.777.14 1.512.272 2.19.273.05 0 .102.003.154.008 1.253.127 2.582.214 3.813-.008.254-.046.515-.03.76.052 1.31.425 2.644.465 3.934.504 1.125.034 2.286.07 3.417.36zm8.612 2.202h.006-.007zm-3.127.005c0 .028 0 .057.002.084l-.002-.083zm1.564 1.558c-.038 0-.078 0-.118-.005-.243-.018-.47-.09-.667-.205-.297-.025-.806-.043-1.268-.06-1.277-.045-3.206-.114-5.497-.408-.07-.01-.14-.023-.21-.042-.81-.22-1.777-.25-2.8-.28-1.336-.04-2.836-.084-4.432-.54-1.453.207-2.884.12-4.224-.014-.923-.01-1.803-.167-2.655-.32-.618-.11-1.202-.215-1.763-.257-.147-.01-.29-.043-.43-.094-.263-.1-.673-.033-1.152.044-.813.13-1.998.32-3.196-.33-.357-.037-.704-.087-1.043-.136-.872-.126-1.697-.244-2.384-.104-.27.055-.55.038-.81-.048-1.603-.535-3.188-.588-4.72-.64-.873-.028-1.698-.055-2.524-.166-1.715-.16-3.23-.37-4.45-.536-.765-.105-1.612-.22-2.055-.25-.234.105-.502.155-.775.13-.807-.073-1.425-.748-1.425-1.558 0-.123.014-.244.04-.363.297-1.59.883-2.994 1.84-4.408.814-1.198 1.803-2.286 2.95-3.546l.14-.155c.12-.133.263-.245.422-.33 1.284-.682 2.658-1.312 4.08-1.872.12-.047.243-.08.37-.095.35-.047.753-.156 1.18-.272 1.02-.276 2.268-.614 3.62-.31 2.533-.344 4.74.99 6.345 2.277.566-.898 1.303-1.855 2.265-2.35 1.298-1.11 2.75-1.153 3.928-1.188.295-.01.577-.017.85-.04 1.73-.777 3.21.59 3.944 1.27.147.134.35.322.486.43.277.022.546.12.777.283.978.697 1.64 1.948 2.167 3.194.344-.092.726-.23 1.102-.363 1.046-.375 2.218-.795 3.538-.736 3.174-.63 5.66 1.904 7.323 3.595.15.154.296.302.436.44.115.115.21.246.285.39.196.378.38.723.552 1.046 1.252 2.356 2.01 3.778 1.714 6.964-.02.22-.087.435-.197.627l-.02.037c-.134.75-.786 1.29-1.54 1.29z" fill="#4B5170"/><path d="M187.744 188.275c.053-1.152.088-.7.094-1.175.038-2.41-1.016-6.224-2.752-6.922-1.736-1.86-4.152-3.27-6.84-2.95-2.093 1.05-4.036-.54-5.64 1.712-.427-1.16-1.27-2.252-2.38-3.372-1.11-1.142-2.49-1.072-3.99-1.37-1.6.168-3.076 1.16-4.248 1.422-1.17.75-2.037 1.848-2.416 3.684-1.963-1.48-4.406-1.337-7.066-2.445-1.576-.294-3.083.38-4.468 1.034-1.383.888-2.643 1.81-3.722 2.068-1.08.678-1.977 1.998-2.64 3.393-.66 1.028-1.084 3.37-1.215 4.418 0 .54 2.956-.035 7.39.078 2.215.147 4.8-.217 7.572.297 2.77.428 5.725.104 8.68-.123 1.48-.63 2.956.205 4.41.047 1.455.728 2.886-.262 4.272.046 2.77.11 5.356-.275 7.573.08 4.432.135 7.387-.24 7.387.08" fill="#FFF"/><path d="M151.733 186.296c1.24 0 2.58.055 3.974.314 2.22.342 4.66.145 7.24-.063l.806-.064c1.202-.423 2.327-.237 3.244-.086.5.083.97.16 1.346.12.3-.032.6.02.87.156.35.175.776.112 1.496-.015.668-.118 1.42-.25 2.256-.1 1.03.035 2.055 0 3.046-.033 1.572-.054 3.058-.104 4.488.112 2.025.058 3.73.01 4.98-.027.29-.008.55-.015.787-.02-.1-2.296-1.116-4.7-1.764-4.962-.213-.085-.403-.216-.56-.384-.95-1.016-2.874-2.66-5.282-2.485-1.084.463-2.087.448-2.908.438-1.106-.017-1.417.008-1.87.648-.338.472-.905.72-1.48.643-.576-.077-1.06-.465-1.262-1.01-.31-.838-.952-1.73-2.024-2.81-.488-.502-1.07-.608-2.143-.766-.255-.038-.514-.076-.777-.123-.656.11-1.352.41-2.027.7-.523.225-1.022.44-1.53.586-.828.593-1.293 1.37-1.538 2.554-.107.525-.477.958-.98 1.147-.5.19-1.064.108-1.492-.215-.894-.675-2.028-.938-3.34-1.242-.97-.225-2.064-.478-3.208-.936-.995-.127-2.08.322-3.284.89-.207.133-.412.268-.613.4-1.103.724-2.15 1.41-3.203 1.735-.646.48-1.312 1.402-1.892 2.624-.03.06-.06.12-.098.176-.25.39-.514 1.277-.714 2.217l.616-.03c1.26-.063 2.983-.15 4.995-.1l.062.004c.742.05 1.56.036 2.427.02.435-.006.887-.014 1.353-.014zm37.575 1.98h.006-.006zm-3.127 0zm-27.735 1.643c-1.096 0-2.188-.063-3.26-.228-1.656-.307-3.23-.28-4.753-.255-.922.016-1.793.03-2.653-.024-1.883-.048-3.526.036-4.728.097-2.078.105-2.937.147-3.624-.505-.342-.326-.53-.763-.53-1.232 0-.065.004-.13.012-.194.07-.57.468-3.444 1.394-4.976.63-1.306 1.68-3.023 3.18-3.966.145-.09.303-.156.468-.196.626-.15 1.588-.78 2.518-1.392.237-.156.48-.314.724-.472.057-.036.115-.068.176-.098 1.388-.656 3.292-1.553 5.422-1.158.108.02.214.052.316.094.967.403 1.944.63 2.888.85.893.206 1.804.417 2.693.773.55-1.132 1.363-2.037 2.454-2.736.154-.1.324-.17.502-.21.333-.074.796-.274 1.287-.485.87-.375 1.953-.842 3.142-.966.156-.017.312-.01.467.02.3.06.598.104.888.147 1.255.186 2.68.396 3.916 1.668.706.71 1.277 1.383 1.73 2.04.98-.47 1.967-.456 2.718-.445.69.01 1.24.017 1.75-.24.163-.082.337-.135.517-.156 2.798-.335 5.615.807 7.964 3.22 2.37 1.304 3.42 5.592 3.377 8.228-.003.252-.015.39-.05.57-.004.02-.02.142-.044.652-.04.85-.75 1.506-1.598 1.49-.21-.004-.408-.05-.59-.128-.336-.01-.972.01-1.548.025-1.31.038-3.105.09-5.26.024-.068-.003-.135-.01-.2-.02-1.164-.187-2.538-.14-3.992-.09-1.086.037-2.21.075-3.397.028-.092-.004-.184-.016-.276-.036-.29-.064-.728.013-1.192.095-.805.142-1.876.33-3.01-.084-.625.014-1.223-.084-1.754-.17-.812-.135-1.33-.208-1.773-.02-.157.066-.324.106-.492.12l-1.025.08c-1.566.127-3.164.256-4.753.256z" fill="#4B5170"/><path d="M137 133.732c0 2.085.014 4.98-.45 4.55-.46 1.22-1.398 2.282-3.298 1.702-1.9-.615-2.837-1.445-3.3-1.7-.462-1.045-.45-2.487-.45-4.552 0 .13.088-3.23.257-4.176.167-1.877.416-3.6.738-5.688.644-4.337 1.582-6.81 2.754-7.015 1.172-.98 2.11 3.095 2.754 7.015.322.816.57 3.638.74 5.505.168 1.424.255 4.094.255 4.36" fill="#FFCC21"/><path d="M134.255 118.052h-.002.002zm-3.002 19.21c.5.338 1.248.836 2.48 1.235.666.204 1.01.144 1.357-.77.064-.17.156-.323.27-.458.08-.825.078-2.5.078-3.38v-.158c0-.244-.086-2.83-.245-4.177l-.016-.17c-.117-1.296-.39-4.33-.625-4.944-.038-.097-.072-.214-.09-.32-.462-2.817-.86-4.354-1.14-5.185-.337.705-.834 2.175-1.278 5.162-.286 1.86-.556 3.68-.728 5.6-.004.044-.01.09-.018.134-.037.21-.133.996-.227 3.795 0 .034-.002.067-.004.1v.163c0 1.484 0 2.624.187 3.375zm3.007 4.45c-.464 0-.955-.077-1.464-.233-1.707-.553-2.762-1.267-3.328-1.65-.11-.076-.2-.14-.273-.18-.297-.165-.534-.423-.672-.734-.584-1.32-.584-2.876-.584-5.03v-.154c0-.032 0-.063.002-.095l.004-.117c.072-2.15.158-3.515.26-4.163.182-1.987.457-3.843.747-5.727.76-5.12 1.864-7.63 3.65-8.222.53-.298 1.13-.35 1.7-.14 1.255.467 2.187 1.965 3.223 8.212.33 1.015.534 3.07.765 5.623l.013.13c.176 1.494.262 4.235.262 4.5v.156c0 3.375 0 4.905-.848 5.607-.756 1.442-1.977 2.214-3.457 2.214z" fill="#4B5170"/><path d="M162.96 133.732c0 1.9.014 3.462-.45 4.55-.46 1.09-1.398.822-3.298 1.702-1.9.08-2.837-1.025-3.3-1.7-.462-1.3-.45-2.538-.45-4.552 0-2.625.352-6.647.996-9.864.644-3.745 1.582-7.015 2.754-7.015 2.345 0 3.75 13.08 3.75 16.88" fill="#FFCC21"/><path d="M157.32 137.565c.333.44.773.818 1.558.857.65-.278 1.194-.44 1.606-.563.212-.064.47-.14.588-.194.327-.807.327-2.192.327-3.79v-.144c0-3.887-1.07-11.747-2.174-14.564-.32.808-.768 2.29-1.227 4.965-.672 3.353-.974 7.317-.974 9.6v.158c0 1.727 0 2.727.295 3.675m1.704 3.986c-1.32 0-3.073-.44-4.4-2.385-.077-.11-.138-.23-.183-.357-.54-1.518-.54-2.944-.54-4.917v-.158c0-2.513.317-6.632 1.026-10.17 1.008-5.864 2.252-8.272 4.286-8.272 2.035 0 3.28 2.408 4.295 8.313.637 3.704 1.018 8.06 1.018 10.13v.142c0 1.966 0 3.665-.575 5.02-.58 1.366-1.686 1.696-2.573 1.96-.43.13-.917.274-1.508.548-.187.085-.387.135-.59.143-.084.003-.17.005-.256.005" fill="#4B5170"/><path d="M113.8 133.732c0 1.022.014 3.004-.45 4.55-.46 2.64-1.398 1.766-3.298 1.702-1.9 1.08-2.837-.63-3.3-1.7-.462-2.04-.45-2.26-.45-4.552 0-.176.088-2.254.257-4.463.167-2.006.416-3.818.738-5.402.644-3.546 1.582-7.09 2.754-7.015.586-.222 1.114.703 1.575 2.098.46 1.396.857 3.775 1.18 4.918.32 1.826.57 3.902.738 5.443.17 1.348.256 3.55.256 4.422" fill="#FFCC21"/><path d="M108.244 137.79c.4.883.664.975.666.976.042.01.152-.017.37-.14.25-.144.536-.21.825-.204.492.016.92.077 1.264.125.095.014.208.03.312.042.038-.127.083-.312.13-.577.01-.06.024-.12.04-.178.387-1.29.386-3.07.386-4.026v-.078c0-.792-.084-2.943-.244-4.228-.238-2.17-.47-3.896-.715-5.29-.14-.508-.283-1.18-.434-1.886-.214-1.004-.457-2.14-.703-2.887l-.08-.234c-.314.82-.747 2.3-1.227 4.94-.318 1.567-.557 3.323-.72 5.254-.165 2.168-.248 4.157-.25 4.34v.165c0 2.034 0 2.21.378 3.884m.666 4.1c-.39 0-.724-.07-.992-.16-1.444-.483-2.176-1.845-2.6-2.827-.04-.09-.07-.18-.09-.275-.49-2.156-.49-2.548-.488-4.723v-.173c0-.25.095-2.407.26-4.58.173-2.065.43-3.943.766-5.595 1.063-5.854 2.193-8.172 4.093-8.267.42-.078.856-.02 1.256.17.834.4 1.43 1.295 1.995 3 .3.907.563 2.133.794 3.214.15.695.29 1.35.406 1.77.015.05.026.1.035.152.26 1.477.507 3.29.754 5.545.184 1.478.264 3.76.264 4.592v.077c0 1.096 0 3.122-.49 4.832-.563 3.043-2.228 3.243-3.942 3-.183-.025-.37-.05-.564-.07-.54.235-1.032.32-1.458.32" fill="#4B5170"/></g></svg>