<svg width="49" height="53" viewBox="0 0 49 53" xmlns="http://www.w3.org/2000/svg" xmlns:xlink="http://www.w3.org/1999/xlink"><title>Page 1</title><defs><path id="a" d="M24.49 52.743h24.492V.025H0v52.718h24.49z"/></defs><g fill="none" fill-rule="evenodd"><path fill="#FFCD20" d="M7.3 51.71h30.106V5.967H7.3"/><g transform="translate(0 .033)"><mask id="b" fill="#fff"><use xlink:href="#a"/></mask><path d="M8.333 50.656h28.04v-43.7H8.334v43.7zM37.406 52.7H7.3c-.57 0-1.03-.457-1.03-1.022V5.933c0-.565.46-1.022 1.03-1.022h30.106c.57 0 1.032.458 1.032 1.023v45.745c0 .565-.462 1.022-1.032 1.022z" fill="#57585A" mask="url(#b)"/><path d="M14.38 51.72c.013-.107.02-.216.022-.328.006-1.503-1.22-2.725-2.737-2.73-.59-.003-1.137.18-1.587.494-.25-.756-.965-1.304-1.81-1.307-.905-.004-1.663.614-1.868 1.447-.558-.414-1.25-.66-2-.663-1.78-.007-3.24 1.356-3.368 3.087H14.38z" fill="#86AC5A" mask="url(#b)"/><path d="M2.44 50.7h10.786c-.083-.19-.203-.364-.354-.515-.323-.322-.753-.5-1.21-.502-.355-.003-.698.106-.99.31-.268.186-.61.235-.92.133-.31-.102-.552-.344-.654-.652-.12-.36-.455-.6-.835-.603H8.26c-.408 0-.76.275-.857.668-.082.334-.327.605-.654.72-.327.117-.69.063-.967-.143-.403-.298-.883-.457-1.388-.46h-.01c-.805 0-1.526.414-1.946 1.044m11.94 2.043H1.03c-.287 0-.56-.118-.756-.326-.195-.21-.294-.488-.273-.77.17-2.266 2.093-4.035 4.383-4.035h.017c.544.002 1.074.1 1.57.29.544-.665 1.373-1.075 2.286-1.075h.01c.867.003 1.663.38 2.208.998.38-.125.784-.185 1.19-.186 1.01.003 1.958.395 2.67 1.105.71.71 1.1 1.65 1.096 2.65 0 .148-.01.297-.03.455-.067.51-.505.893-1.025.893" fill="#57585A" mask="url(#b)"/><path d="M47.95 51.656c-.134-1.097-1.076-1.598-2.22-1.598-.174 0-.342.02-.505.058-.623-1.502-2.114-2.56-3.856-2.56-.846 0-1.633.25-2.29.68-.54-.426-1.224-.68-1.968-.68h-.042c-.177-1.41-1.39-2.502-2.863-2.502-1.594 0-2.886 1.28-2.886 2.86 0 .06.003.12.007.18-.187-.04-.38-.062-.58-.062-1.528 0-2.766 1.227-2.766 2.74 0 .32.06.63.162.915 6.604.04 13.205-.1 19.808-.03" fill="#86AC5A" mask="url(#b)"/><path d="M29.016 50.67c2.758.01 5.547-.01 8.253-.027 2.315-.015 4.684-.03 7.054-.028-.02-.035-.038-.072-.053-.11-.485-1.17-1.624-1.927-2.9-1.927-.615 0-1.21.177-1.722.51-.373.244-.86.222-1.21-.052-.378-.298-.833-.456-1.316-.458h-.036c-.527.008-.975-.377-1.04-.895-.115-.916-.906-1.607-1.84-1.607-1.022 0-1.853.824-1.853 1.837 0 .033 0 .07.004.116.02.318-.11.628-.356.837-.243.21-.573.293-.888.226-.12-.026-.244-.04-.365-.04-.922 0-1.677.717-1.73 1.616m1.617 2.046c-.834 0-1.667-.002-2.498-.007-.434-.003-.82-.275-.966-.68-.146-.41-.22-.832-.22-1.258 0-1.956 1.514-3.568 3.442-3.746.406-1.714 1.962-2.994 3.815-2.994 1.682 0 3.144 1.062 3.69 2.575.427.08.84.228 1.223.434.698-.333 1.465-.506 2.25-.506 1.853 0 3.53.96 4.46 2.502 1.733.036 2.963 1.008 3.145 2.497.035.293-.058.586-.256.805-.197.217-.477.34-.77.34h-.01c-3.55-.037-7.164-.013-10.658.01-2.18.014-4.416.028-6.648.028" fill="#57585A" mask="url(#b)"/><path fill="#F3753C" mask="url(#b)" d="M17.832 51.583h9.044v-8.958h-9.044"/><path d="M18.864 50.56h6.98v-6.913h-6.98v6.914zm8.012 2.045h-9.044c-.57 0-1.032-.457-1.032-1.022v-8.958c0-.565.462-1.023 1.032-1.023h9.044c.57 0 1.03.458 1.03 1.023v8.958c0 .565-.46 1.022-1.03 1.022z" fill="#57585A" mask="url(#b)"/><path fill="#FEFEFE" mask="url(#b)" d="M15.348 40.143h14.01v-2.61H15.35"/><path d="M16.38 39.12h11.947v-.564H16.38v.565zm12.98 2.045H15.347c-.57 0-1.032-.457-1.032-1.022v-2.61c0-.564.462-1.022 1.032-1.022h14.01c.57 0 1.033.46 1.033 1.024v2.61c0 .564-.46 1.02-1.03 1.02z" fill="#57585A" mask="url(#b)"/><path fill="#FEFEFE" mask="url(#b)" d="M11.496 15.46h4.398V9.827h-4.398"/><path d="M12.527 14.437h2.335V10.85h-2.335v3.587zm3.367 2.044h-4.398c-.57 0-1.032-.456-1.032-1.02V9.827c0-.565.462-1.022 1.032-1.022h4.398c.57 0 1.032.457 1.032 1.022v5.63c0 .566-.462 1.023-1.032 1.023z" fill="#57585A" mask="url(#b)"/><path fill="#FEFEFE" mask="url(#b)" d="M20.025 15.46h4.398V9.827h-4.398"/><path d="M21.057 14.437h2.334V10.85h-2.333v3.587zm3.366 2.044h-4.398c-.57 0-1.032-.456-1.032-1.02V9.827c0-.565.462-1.022 1.032-1.022h4.398c.57 0 1.032.457 1.032 1.022v5.63c0 .566-.462 1.023-1.032 1.023z" fill="#57585A" mask="url(#b)"/><path fill="#FEFEFE" mask="url(#b)" d="M28.554 15.46h4.398V9.827h-4.398"/><path d="M29.586 14.437h2.335V10.85h-2.334v3.587zm3.366 2.044h-4.398c-.57 0-1.032-.456-1.032-1.02V9.827c0-.565.462-1.022 1.032-1.022h4.398c.57 0 1.032.457 1.032 1.022v5.63c0 .566-.462 1.023-1.032 1.023z" fill="#57585A" mask="url(#b)"/><path fill="#FEFEFE" mask="url(#b)" d="M11.496 23.845h4.398v-5.63h-4.398"/><path d="M12.527 22.823h2.335v-3.587h-2.335v3.587zm3.367 2.045h-4.398c-.57 0-1.032-.458-1.032-1.023v-5.63c0-.565.462-1.023 1.032-1.023h4.398c.57 0 1.032.458 1.032 1.022v5.63c0 .566-.462 1.024-1.032 1.024z" fill="#57585A" mask="url(#b)"/><path fill="#FEFEFE" mask="url(#b)" d="M20.025 23.845h4.398v-5.63h-4.398"/><path d="M21.057 22.823h2.334v-3.587h-2.333v3.587zm3.366 2.045h-4.398c-.57 0-1.032-.458-1.032-1.023v-5.63c0-.565.462-1.023 1.032-1.023h4.398c.57 0 1.032.458 1.032 1.022v5.63c0 .566-.462 1.024-1.032 1.024z" fill="#57585A" mask="url(#b)"/><path fill="#FEFEFE" mask="url(#b)" d="M28.554 23.845h4.398v-5.63h-4.398"/><path d="M29.586 22.823h2.335v-3.587h-2.334v3.587zm3.366 2.045h-4.398c-.57 0-1.032-.458-1.032-1.023v-5.63c0-.565.462-1.023 1.032-1.023h4.398c.57 0 1.032.458 1.032 1.022v5.63c0 .566-.462 1.024-1.032 1.024z" fill="#57585A" mask="url(#b)"/><path fill="#FEFEFE" mask="url(#b)" d="M11.496 32.29h4.398v-5.63h-4.398"/><path d="M12.527 31.268h2.335V27.68h-2.335v3.588zm3.367 2.044h-4.398c-.57 0-1.032-.457-1.032-1.022v-5.63c0-.565.462-1.023 1.032-1.023h4.398c.57 0 1.032.458 1.032 1.022v5.63c0 .565-.462 1.022-1.032 1.022z" fill="#57585A" mask="url(#b)"/><path fill="#FEFEFE" mask="url(#b)" d="M20.025 32.29h4.398v-5.63h-4.398"/><path d="M21.057 31.268h2.334V27.68h-2.333v3.588zm3.366 2.044h-4.398c-.57 0-1.032-.457-1.032-1.022v-5.63c0-.565.462-1.023 1.032-1.023h4.398c.57 0 1.032.458 1.032 1.022v5.63c0 .565-.462 1.022-1.032 1.022z" fill="#57585A" mask="url(#b)"/><path fill="#FEFEFE" mask="url(#b)" d="M28.554 32.29h4.398v-5.63h-4.398"/><path d="M29.586 31.268h2.335V27.68h-2.334v3.588zm3.366 2.044h-4.398c-.57 0-1.032-.457-1.032-1.022v-5.63c0-.565.462-1.023 1.032-1.023h4.398c.57 0 1.032.458 1.032 1.022v5.63c0 .565-.462 1.022-1.032 1.022zM22.354 52.743c-.57 0-1.032-.457-1.032-1.022v-9.095c0-.565.462-1.023 1.032-1.023.57 0 1.032.458 1.032 1.023v9.096c0 .566-.462 1.023-1.032 1.023" fill="#57585A" mask="url(#b)"/><path fill="#FEFEFE" mask="url(#b)" d="M37.406 5.933H7.3l-.434-4.886H37.84"/><path d="M8.246 4.91H36.46l.254-2.84H7.994l.252 2.84zm29.16 2.045H7.3c-.534 0-.98-.405-1.027-.932l-.435-4.886c-.025-.285.072-.568.267-.78.196-.21.472-.332.76-.332h30.976c.29 0 .567.12.762.332.196.212.292.495.267.78l-.436 4.886c-.047.527-.493.932-1.028.932z" fill="#57585A" mask="url(#b)"/><path d="M35.216 4.45H9.458c-.57 0-1.032-.458-1.032-1.023s.462-1.022 1.032-1.022h25.758c.57 0 1.032.457 1.032 1.022s-.462 1.022-1.032 1.022" fill="#57585A" mask="url(#b)"/></g></g></svg>