<svg width="35" height="44" viewBox="0 0 35 44" xmlns="http://www.w3.org/2000/svg" xmlns:xlink="http://www.w3.org/1999/xlink"><title>Page 1</title><defs><path id="a" d="M0 43.945h34.965V0H0z"/></defs><g fill="none" fill-rule="evenodd"><path d="M33.27 6.843c.38 0 .693.31.693.69v2.4c0 .38-.312.69-.693.69H9.605v31.634c0 .38-.312.69-.693.69h-2.41c-.38 0-.692-.31-.692-.69V10.624H1.695c-.38 0-.693-.31-.693-.69v-2.4c0-.38.312-.69.693-.69H5.81V1.687c0-.38.31-.69.692-.69h2.41c.38 0 .693.31.693.69v5.155H33.27z" fill="#BAC1E1"/><path d="M6.812 41.948h1.79V10.624c0-.55.45-1 1.003-1H32.96V7.843H9.605c-.554 0-1.003-.447-1.003-1V1.998h-1.79v4.846c0 .552-.45 1-1.002 1H2.005v1.782H5.81c.553 0 1.002.448 1.002 1v31.323zm2.1 1.997h-2.41c-.935 0-1.695-.757-1.695-1.688V11.623H1.695C.76 11.623 0 10.865 0 9.933v-2.4c0-.93.76-1.688 1.695-1.688h3.112V1.688C4.807.758 5.567 0 6.502 0h2.41c.935 0 1.695.757 1.695 1.688v4.157H33.27c.935 0 1.695.757 1.695 1.688v2.4c0 .932-.76 1.69-1.695 1.69H10.607v30.634c0 .93-.76 1.688-1.695 1.688z" fill="#57585A"/><mask id="b" fill="#fff"><use xlink:href="#a"/></mask><path fill="#FFCD20" mask="url(#b)" d="M13.45 34.263h20.033V14.305H13.45"/><path d="M14.453 33.264H32.48v-17.96H14.454v17.96zm19.03 1.998H13.45c-.553 0-1.002-.448-1.002-1V14.306c0-.55.45-.998 1.003-.998h20.033c.554 0 1.003.447 1.003.998v19.958c0 .55-.45 1-1.003 1z" fill="#57585A" mask="url(#b)"/><path d="M29.07 21.004H17.864c-.554 0-1.002-.448-1.002-1 0-.55.45-.998 1.003-.998H29.07c.554 0 1.003.447 1.003 1 0 .55-.45.998-1.002.998" fill="#57585A" mask="url(#b)"/></g></svg>