<svg width="27" height="50" viewBox="0 0 27 50" xmlns="http://www.w3.org/2000/svg"><title>Group</title><g fill="none" fill-rule="evenodd"><g fill="#5C5C5C"><path d="M19.44 46.284H7.482c-2.226 0-4.105-1.62-4.68-3.825h21.314c-.573 2.203-2.453 3.824-4.678 3.824zM7.482 3.044H19.44c2.224 0 4.104 1.62 4.677 3.825H2.804c.574-2.205 2.453-3.826 4.68-3.826zm-4.86 36.588H24.3V9.696H2.622v29.936zM19.44.217H7.482C3.357.217 0 3.835 0 8.282v32.764c0 4.447 3.357 8.064 7.483 8.064H19.44c4.125 0 7.482-3.617 7.482-8.064V8.282c0-4.447-3.357-8.065-7.483-8.065z"/><path d="M11.31 6.827h3.594c.725 0 1.312-.633 1.312-1.414 0-.78-.587-1.413-1.312-1.413H11.31C10.588 4 10 4.633 10 5.413s.587 1.414 1.31 1.414M14.904 43H11.31c-.723 0-1.31.633-1.31 1.413s.587 1.414 1.31 1.414h3.594c.725 0 1.312-.633 1.312-1.414 0-.78-.587-1.413-1.312-1.413"/></g><path stroke="#5C5C5C" stroke-width="3" d="M18.638 20l-7.088 7.707L8 23.847"/></g></svg>