<svg width="84" height="55" viewBox="0 0 84 55" xmlns="http://www.w3.org/2000/svg" xmlns:xlink="http://www.w3.org/1999/xlink"><title>Page 1</title><defs><path id="a" d="M0 .058v28.604h83.973V.058H0z"/></defs><g fill="none" fill-rule="evenodd"><path d="M43.255 27.31c-.698.243-1.84.243-2.537 0L1.692 13.814c-.698-.24-.69-.61.018-.82L40.7 1.405c.707-.21 1.866-.21 2.573 0l38.99 11.586c.707.21.716.58.018.82l-39.025 13.5z" fill="#BAC1E1"/><g transform="translate(0 .01)"><mask id="b" fill="#fff"><use xlink:href="#a"/></mask><path d="M1.966 14.142zm2.314-.692L41.1 26.184c.447.155 1.326.155 1.773 0l36.82-12.734L42.94 2.528c-.49-.145-1.417-.145-1.908 0L4.28 13.45zm37.706 15.212c-.59 0-1.18-.08-1.65-.244L1.31 14.92C.106 14.504-.007 13.687 0 13.355c.008-.332.156-1.143 1.378-1.506L40.368.262c.922-.274 2.315-.274 3.238 0l38.99 11.586c1.22.362 1.37 1.173 1.377 1.505.007.332-.106 1.15-1.31 1.565L43.636 28.418c-.47.163-1.06.244-1.65.244z" fill="#57585A" mask="url(#b)"/></g><path d="M59.453 33.89s-5.986 4.458-17.467 4.458c-11.065 0-17.466-4.457-17.466-4.457V21.745l17.466 6.276 17.467-6.276V33.89z" fill="#BAC1E1"/><path d="M25.694 33.234c.672.395 2.002 1.106 3.908 1.812 2.616.967 6.89 2.12 12.384 2.12 9.186 0 14.708-2.934 16.293-3.912V23.42l-15.9 5.712c-.254.092-.533.092-.79 0L25.695 23.42v9.814zm16.292 6.295c-5.89 0-10.48-1.253-13.29-2.303-3.087-1.153-4.774-2.316-4.844-2.365-.317-.22-.506-.584-.506-.97V21.743c0-.385.186-.745.498-.966.312-.22.71-.276 1.07-.147l17.072 6.136 17.072-6.135c.36-.128.76-.073 1.07.148.313.22.5.58.5.966V33.89c0 .375-.177.727-.477.95-.256.19-6.43 4.69-18.164 4.69zM71.31 18.79c-.04 0-.084-.003-.128-.008l-29.323-3.22c-.646-.072-1.11-.655-1.04-1.303.07-.65.65-1.118 1.294-1.047l29.323 3.22c.645.072 1.11.655 1.04 1.303-.066.605-.574 1.053-1.166 1.053" fill="#57585A"/><path d="M28.273 33.116c-.65 0-1.174-.53-1.174-1.18V26.35c0-.652.524-1.18 1.173-1.18.648 0 1.174.528 1.174 1.18v5.583c0 .652-.526 1.18-1.174 1.18" fill="#FEFEFE"/><path d="M32.546 36.323v-1.88c0-1.034 1.208-1.88 2.684-1.88h30.445c1.476 0 2.683 1.215 2.683 2.7v12.04c0 1.484-.93 2.698-2.067 2.698h-2.066" fill="#86AC5A"/><path d="M66.29 51.182h-2.066V48.82h2.067c.414 0 .894-.663.894-1.518v-12.04c0-.837-.677-1.518-1.51-1.518H35.23c-.98 0-1.51.496-1.51.7v1.88h-2.348v-1.88c0-1.717 1.695-3.062 3.858-3.062h30.445c2.127 0 3.857 1.74 3.857 3.88v12.04c0 2.14-1.454 3.88-3.24 3.88" fill="#57585A"/><path d="M64.224 51.062c0 1.485-1.208 2.7-2.684 2.7H31.095c-1.476 0-2.683-1.215-2.683-2.7v-12.04c0-1.484 1.207-2.7 2.683-2.7H61.54c1.476 0 2.684 1.216 2.684 2.7v12.04z" fill="#86AC5A"/><path d="M31.095 37.504c-.832 0-1.51.68-1.51 1.52V51.06c0 .837.678 1.52 1.51 1.52H61.54c.833 0 1.51-.683 1.51-1.52v-12.04c0-.837-.677-1.518-1.51-1.518H31.095zM61.54 54.942H31.095c-2.127 0-3.857-1.74-3.857-3.88v-12.04c0-2.14 1.73-3.88 3.857-3.88H61.54c2.127 0 3.858 1.74 3.858 3.88v12.04c0 2.14-1.73 3.88-3.858 3.88z" fill="#57585A"/><path d="M51.37 45.042c0 2.807-2.262 5.082-5.052 5.082-2.79 0-5.053-2.275-5.053-5.082 0-2.806 2.262-5.08 5.053-5.08 2.79 0 5.052 2.274 5.052 5.08" fill="#F5F3F1"/><path d="M46.318 41.142c-2.14 0-3.878 1.75-3.878 3.9s1.74 3.9 3.878 3.9 3.878-1.75 3.878-3.9-1.74-3.9-3.878-3.9m0 10.163c-3.434 0-6.227-2.81-6.227-6.263s2.794-6.262 6.228-6.262c3.433 0 6.226 2.81 6.226 6.262 0 3.454-2.793 6.263-6.226 6.263M71.31 32.98c-.65 0-1.174-.528-1.174-1.18V17.608c0-.652.525-1.18 1.174-1.18.648 0 1.174.528 1.174 1.18V31.8c0 .652-.526 1.18-1.174 1.18" fill="#57585A"/><path d="M68.91 32.14c-.218 0-.436-.06-.632-.185-.547-.35-.707-1.082-.358-1.63l2.4-3.78c.35-.55 1.075-.71 1.622-.36.546.35.706 1.08.357 1.63l-2.4 3.78c-.225.353-.604.546-.99.546" fill="#57585A"/><path d="M73.876 32.275c-.382 0-.756-.186-.982-.53L70.33 27.83c-.357-.544-.208-1.277.334-1.636.54-.36 1.27-.208 1.626.336l2.565 3.914c.357.545.207 1.278-.334 1.636-.198.132-.422.195-.644.195" fill="#57585A"/></g></svg>