<svg width="364" height="188" viewBox="0 0 364 188" xmlns="http://www.w3.org/2000/svg" xmlns:xlink="http://www.w3.org/1999/xlink"><title>Page 1</title><defs><path id="a" d="M0 .078v175.434h172.465V.078H0z"/><path id="c" d="M.686 40.78H53.08V.045H.686z"/></defs><g fill="none" fill-rule="evenodd"><g transform="translate(0 .614)"><mask id="b" fill="#fff"><use xlink:href="#a"/></mask><path d="M172.465 87.88c-.002 2.452-.072 4.915-.218 7.377-1.11 31.6-21.77 61.07-50.703 73.354-1.75.742-3.53 1.427-5.334 2.055-1.807.628-3.64 1.2-5.496 1.71-7.43 2.045-15.252 3.137-23.33 3.137-13.85 0-26.95-3.21-38.597-8.926-2.91-1.43-5.732-3.015-8.45-4.748-6.385-4.424-12.278-9.62-17.482-15.422-1.734-1.935-3.393-3.937-4.966-6-3.812-5.175-7.054-10.775-9.685-16.655-2.633-5.587-4.654-12.476-6.025-18.334C1.494 101.848.972 99 .62 95.9c-.305-2.677-.504-4.142-.596-6.905-.13-6.17.273-10.296 1.15-15.054.875-4.188 2.224-10.148 3.984-14.515 1.76-4.592 3.93-8.85 6.452-13.245 2.52-4.234 5.39-8.818 8.55-12.972 1.805-1.657 3.703-4.004 5.69-6.535 4.442-4.863 9.402-9.026 14.74-12.01 5.335-3.386 11.047-6.05 16.99-8.706 2.972-.367 6-2.17 9.07-2.98 4.89-.962 9.853-1.312 14.83-2.556 4.98-.613 9.972-.327 14.917.26 9.89 1.065 19.587 3.865 28.594 8.112 9.008 4.247 17.324 9.943 24.45 16.8 1.986 1.906 3.874 3.817 5.65 5.903 5.166 6.776 8.958 14.452 11.754 22.53.933 2.692 1.75 5.43 2.445 8.19 1.407 5.263 1.846 10.98 2.568 16.702.316 3.406.542 6.86.607 8.962" fill="#F6F3F1" mask="url(#b)"/></g><path d="M126.507 164.432c0-1.767-20.137.617-40.275 0-20.137.834-40.274-.462-40.274 0 0-8.39 4.507-16.085 11.796-21.906 7.288-6.315 17.357-9.164 28.478-9.074 11.122 1.546 21.19 3.05 28.478 9.074 7.29 6.17 11.797 14.052 11.797 21.906" fill="#F37631"/><path d="M47.456 162.945c1.154 0 2.94.045 5.777.117 7.59.192 20.295.512 32.943-.01.033-.003.067-.002.098-.002 9.467.29 18.813-.08 26.324-.38 6.82-.27 10.417-.377 12.428-.188-.67-6.578-4.67-13.367-11.207-18.9-7.107-5.874-17.102-7.276-27.688-8.747-11.287-.09-20.788 2.943-27.474 8.737-6.837 5.462-10.783 12.28-11.268 19.373h.066zm-.117 1.495v.002-.002zm0 .004v.003-.003zm0 .004c-.002.08-.01.156-.023.23.013-.073.02-.15.022-.23zm23.808 1.653c-7.09 0-13.447-.16-17.985-.274-3.19-.08-5.973-.15-6.728-.096-.15.055-.31.084-.477.084-.763 0-1.38-.62-1.38-1.382 0-8.48 4.372-16.643 12.314-22.986 7.177-6.22 17.314-9.487 29.352-9.375.06 0 .12.005.178.014 10.534 1.464 21.426 2.977 29.17 9.377 7.82 6.62 12.296 14.988 12.296 22.972 0 .763-.618 1.382-1.38 1.382-.426 0-.807-.192-1.06-.494-1.464-.336-7.192-.108-12.74.112-7.54.3-16.92.674-26.468.383-5.14.212-10.285.286-15.092.286z" fill="#4B5170"/><path d="M117.987 72.3V42.48l-64.463.41V72.3c-4.125 0-7.47 4.333-7.47 9.677 0 5.344 3.345 9.677 7.47 9.677V94.5c0 8.922 3.608 17.876 9.44 24.883 4.772 5.597 8.268 7.758 15.26 9.32h.107v8.982c0 4.086 3.342 7.43 7.426 7.43 0 0 7.425-3.344 7.425-7.43v-8.757c5.92-1.33 11.21-4.432 15.367-9.545 5.833-6.613 9.44-15.353 9.44-24.883v-2.846c4.126 0 7.47-4.333 7.47-9.677 0-5.344-3.344-9.676-7.47-9.676" fill="#FFF"/><path d="M78.383 127.322c.74.028 1.33.636 1.33 1.382v8.98c0 3.237 2.553 5.89 5.75 6.04 1.91-.92 6.337-3.57 6.337-6.04v-8.756c0-.647.448-1.207 1.078-1.35 5.864-1.317 10.775-4.367 14.598-9.068 5.9-6.69 9.13-15.202 9.13-24.01v-2.846c0-.763.618-1.383 1.382-1.383 3.356 0 6.087-3.72 6.087-8.293 0-4.573-2.73-8.294-6.087-8.294-.764 0-1.382-.62-1.382-1.382V43.87l-61.7.392v28.04c0 .762-.62 1.38-1.382 1.38-3.357 0-6.088 3.722-6.088 8.295 0 4.574 2.73 8.294 6.088 8.294.763 0 1.382.62 1.382 1.384V94.5c0 8.288 3.324 17.035 9.12 23.998 4.552 5.34 7.793 7.34 14.357 8.824m7.373 19.175c-4.856 0-8.807-3.953-8.807-8.812v-7.86c-6.64-1.613-10.266-3.948-15.036-9.545-6.213-7.464-9.77-16.856-9.77-25.78v-1.6c-4.228-.83-7.47-5.412-7.47-10.923 0-5.51 3.242-10.093 7.47-10.924V42.89c0-.76.612-1.378 1.37-1.383l64.465-.41c.348-.013.72.142.98.402.262.258.41.61.41.98v28.573c4.225.83 7.468 5.413 7.468 10.924 0 5.51-3.243 10.093-7.47 10.924v1.6c0 9.48-3.475 18.644-9.786 25.797-3.952 4.863-9.01 8.14-15.02 9.718v7.67c0 4.84-7.396 8.31-8.24 8.69-.178.08-.37.122-.566.122" fill="#4B5170"/><path d="M53.524 79.41s5.757-32.25 4.69-35.938c-1.067-3.686 30.336 23.564 54.246 11.52 6.403-3.226 5.527 24.42 5.527 24.42s5.918-28.136.527-37.317C105.522 19.97 79.38 16.515 66.99 29.53c-3.643 3.825-6.07-.996-9.837 2.892-9.614 9.92-3.63 46.987-3.63 46.987" fill="#BAC2E2"/><path d="M60.595 32.177c-.802 0-1.53.257-2.45 1.208-3.666 3.782-5.406 12.846-5.03 26.212.102 3.69.358 7.24.644 10.28 2.067-12.556 3.637-24.26 3.128-26.02-.303-1.046.313-1.626.51-1.78 1.073-.837 2.094-.242 6.39 2.264 9.253 5.4 30.922 18.046 48.05 9.416 1.138-.572 2.308-.54 3.295.09 2.076 1.327 3.168 5.734 3.73 10.57l.037-.38c1.023-10.4.477-17.744-1.576-21.24-6.42-10.934-16.59-17.954-27.9-19.26-8.486-.98-16.3 1.552-21.435 6.948-2.313 2.428-4.482 2.087-6.064 1.837-.488-.075-.92-.143-1.33-.143m57.393 48.618c-.056 0-.11-.003-.167-.01-.71-.085-1.24-.7-1.216-1.417.317-10.04-.725-21.763-2.96-23.19-.093-.06-.206-.133-.565.048-18.47 9.304-41.046-3.87-50.687-9.496-.95-.556-1.92-1.12-2.692-1.546-.084 7.548-3.957 29.64-4.82 34.47-.117.66-.672 1.12-1.37 1.138-.674-.006-1.245-.497-1.352-1.162-.25-1.542-5.98-37.87 4.002-48.17 2.39-2.467 4.587-2.122 6.193-1.87 1.448.227 2.32.366 3.633-1.013 5.742-6.03 14.4-8.87 23.753-7.788 12.18 1.406 23.102 8.917 29.966 20.605 5.597 9.532-.12 37.132-.367 38.302-.136.647-.706 1.098-1.35 1.098" fill="#4B5170"/><path d="M363.96 88.493c0 2.453-.07 4.915-.216 7.377-1.11 31.6-21.77 61.07-50.703 73.354-1.75.74-3.528 1.427-5.334 2.055-1.806.627-3.638 1.198-5.496 1.708-7.428 2.046-15.252 3.138-23.33 3.138-13.85 0-26.948-3.21-38.596-8.926-2.91-1.43-5.733-3.016-8.45-4.748-6.385-4.424-12.28-9.62-17.482-15.423-1.735-1.935-3.393-3.937-4.967-6-3.81-5.175-7.052-10.776-9.684-16.655-2.63-5.588-4.653-12.478-6.024-18.335-.685-3.578-1.207-6.425-1.56-9.527-.304-2.676-.503-4.14-.595-6.905-.13-6.17.273-10.295 1.15-15.053.876-4.19 2.225-10.15 3.985-14.517 1.76-4.59 3.93-8.85 6.452-13.244 2.52-4.234 5.39-8.82 8.55-12.973 1.804-1.655 3.703-4.002 5.688-6.533 4.444-4.863 9.404-9.026 14.74-12.01 5.337-3.386 11.048-6.05 16.99-8.707 2.973-.367 6.003-2.168 9.073-2.978 4.887-.963 9.85-1.313 14.83-2.557 4.978-.615 9.97-.328 14.916.26 9.89 1.064 19.587 3.863 28.594 8.11 9.007 4.248 17.323 9.944 24.45 16.8 1.985 1.907 3.873 3.818 5.65 5.904 5.165 6.774 8.957 14.45 11.753 22.528.934 2.693 1.75 5.43 2.446 8.19 1.408 5.264 1.847 10.982 2.57 16.702.315 3.406.54 6.86.605 8.963" fill="#F6F3F1"/><path d="M310.087 54.123s14.902 1.69 17.204 13.254c2.304 11.566-3.222 28.154 0 32.3 3.224 4.148 10.592 4.61 10.592 4.61s-2.47 14.284-13.897 11.52c-11.43-2.766-20.346-3.578-20.953-8.7-.606-5.124 7.055-52.984 7.055-52.984" fill="#BAC2E2"/><path d="M311.23 55.72c-2.25 14.17-7.29 47.31-6.826 51.223.378 3.193 6.297 4.49 13.79 6.13 1.954.43 3.973.87 6.115 1.39 2.58.623 4.846.312 6.73-.927 3.058-2.01 4.537-5.948 5.137-8.064-2.525-.4-7.363-1.583-9.977-4.945-1.965-2.53-1.37-7.8-.615-14.475.68-6.03 1.454-12.865.35-18.404-1.693-8.51-11.195-11.213-14.704-11.927m15.585 61.825c-1.012 0-2.064-.13-3.155-.395-2.113-.512-4.117-.95-6.055-1.375-8.903-1.95-15.336-3.36-15.945-8.506-.61-5.167 6.276-48.448 7.063-53.366.117-.73.787-1.237 1.52-1.155.16.018 3.996.47 8.165 2.41 5.667 2.638 9.207 6.77 10.238 11.948 1.186 5.962.39 13.024-.316 19.255-.6 5.322-1.224 10.826.052 12.467 2.33 2.998 7.71 3.96 9.586 4.076.392.025.754.215.998.523.243.307.344.705.277 1.09-.055.32-1.412 7.86-6.686 11.327-1.72 1.13-3.643 1.698-5.742 1.698" fill="#4B5170"/><path d="M320.35 159.32c0-1.767-20.136.616-40.274 0-20.137.834-40.274-.462-40.274 0 0-8.39 4.508-16.086 11.796-21.907 7.288-6.314 17.357-9.164 28.478-9.074 11.122 1.546 21.19 3.05 28.48 9.073 7.287 6.17 11.795 14.052 11.795 21.906" fill="#86AC5B"/><path d="M241.3 157.832c1.155 0 2.94.045 5.78.117 7.59.19 20.294.512 32.94-.012h.098c9.466.288 18.812-.082 26.322-.38 6.82-.272 10.418-.377 12.43-.19-.67-6.577-4.67-13.366-11.207-18.9-7.106-5.872-17.1-7.275-27.687-8.746-11.29-.044-20.788 2.943-27.474 8.737-6.837 5.46-10.783 12.28-11.268 19.372h.067zm-.117 1.49v.002zm0 .005v.002-.003zm0 .005v.002-.002zm0 .004c0 .078-.008.155-.022.23.015-.074.022-.15.023-.23zm23.812 1.652c-7.09 0-13.447-.16-17.985-.275-3.192-.08-5.976-.15-6.73-.096-.15.055-.31.085-.478.085-.763 0-1.38-.62-1.38-1.383 0-8.48 4.372-16.644 12.315-22.987 7.176-6.22 17.324-9.483 29.35-9.375.06 0 .12.004.18.013 10.533 1.465 21.425 2.978 29.168 9.378 7.82 6.62 12.297 14.987 12.297 22.97 0 .765-.618 1.384-1.38 1.384-.426 0-.807-.193-1.06-.495-1.467-.336-7.193-.108-12.742.113-7.54.3-16.92.675-26.466.382-5.14.212-10.283.286-15.09.286z" fill="#4B5170"/><path d="M311.83 67.188v-25.67l-64.462.408v25.262c-4.125 0-7.47 4.332-7.47 9.676 0 5.345 3.345 9.677 7.47 9.677v2.847c0 8.922 3.608 17.876 9.44 24.883 4.772 5.597 8.268 7.76 15.26 9.32h.107v8.982c0 4.087 3.34 7.43 7.425 7.43 0 0 7.425-3.343 7.425-7.43v-8.757c5.918-1.33 11.21-4.432 15.366-9.545 5.834-6.612 9.44-15.352 9.44-24.883V86.54c4.127 0 7.47-4.33 7.47-9.676 0-5.344-3.343-9.676-7.47-9.676" fill="#FFF"/><path d="M272.227 122.21c.74.027 1.33.635 1.33 1.38v8.982c0 3.237 2.554 5.888 5.75 6.04 1.91-.92 6.337-3.572 6.337-6.04v-8.757c0-.646.448-1.207 1.078-1.35 5.865-1.315 10.775-4.367 14.598-9.068 5.9-6.69 9.13-15.202 9.13-24.01V86.54c0-.763.618-1.38 1.382-1.38 3.356 0 6.088-3.722 6.088-8.295 0-4.575-2.732-8.295-6.088-8.295-.764 0-1.382-.62-1.382-1.382v-24.28l-61.7.392v23.888c0 .763-.618 1.382-1.382 1.382-3.356 0-6.088 3.72-6.088 8.295 0 4.573 2.732 8.294 6.088 8.294.764 0 1.382.617 1.382 1.38v2.847c0 8.288 3.324 17.035 9.12 23.998 4.552 5.34 7.793 7.34 14.357 8.824m7.373 19.175c-4.856 0-8.807-3.954-8.807-8.813v-7.86c-6.64-1.613-10.265-3.948-15.035-9.545-6.213-7.464-9.77-16.855-9.77-25.78V87.79c-4.227-.833-7.47-5.415-7.47-10.925 0-5.512 3.243-10.094 7.47-10.925V41.926c0-.76.612-1.377 1.372-1.382l64.463-.41h.01c.363 0 .713.145.972.402.26.26.408.613.408.98V65.94c4.226.83 7.47 5.413 7.47 10.925 0 5.51-3.244 10.092-7.47 10.924v1.597c0 9.482-3.476 18.643-9.786 25.798-3.953 4.863-9.012 8.14-15.02 9.716v7.672c0 4.84-7.397 8.31-8.24 8.69-.18.082-.372.123-.567.123" fill="#4B5170"/><path d="M313.135 67.19s-14.638-20.746-13.543-24.432c1.094-3.686-22.743 17.795-45.53 15.923-6.694-.55-6.36 8.513-6.36 8.513s-6.256-18.462-.727-27.642c13.327-22.123 49.468-23.04 62.438-8.972 9.48 10.285 3.722 36.61 3.722 36.61" fill="#BAC2E2"/><path d="M299.44 40.933c.362 0 .663.118.96.347.205.157.846.758.515 1.87-.287 1.506 3.975 9.617 11.452 20.517 1.145-7.21 3.012-24.578-3.97-32.15-5.987-6.495-17.765-9.888-30-8.64-13.38 1.36-24.402 7.698-30.24 17.387-3.33 5.534-2.01 14.954-.65 20.94.385-.812.894-1.586 1.567-2.23 1.335-1.277 3.054-1.84 5.102-1.67 15.412 1.262 31.687-8.688 39.51-13.473 3.242-1.98 4.74-2.897 5.753-2.897m-51.74 27.64c-.58 0-1.114-.368-1.306-.936-.264-.78-6.397-19.18-.602-28.8 6.29-10.442 18.072-17.262 32.324-18.712 13.272-1.353 25.655 2.295 32.312 9.516 9.856 10.692 4.298 36.74 4.056 37.845-.117.535-.54.95-1.075 1.06-.54.11-1.088-.11-1.403-.558-3.964-5.618-12.443-18.096-13.678-23.71-.866.485-2.047 1.206-3.203 1.913-8.073 4.937-24.864 15.214-41.177 13.87-1.246-.1-2.213.195-2.962.908-1.678 1.6-1.944 5-1.906 6.176.023.685-.46 1.284-1.132 1.407-.084.016-.168.023-.25.023" fill="#4B5170"/><path d="M320.592 179.59l-39.01-3.387c-2.27-.197-3.968-2.218-3.77-4.49l2.27-26.19c.196-2.27 2.215-3.97 4.486-3.772l39.01 3.387c2.27.197 3.968 2.218 3.772 4.49l-2.27 26.19c-.198 2.27-2.217 3.97-4.488 3.772" fill="#FFF"/><path d="M320.71 178.212c1.523.13 2.862-.997 2.993-2.515l2.27-26.19c.064-.73-.164-1.446-.64-2.014-.478-.567-1.143-.915-1.873-.98l-39.01-3.385c-1.52-.132-2.86.997-2.992 2.515l-2.27 26.19c-.133 1.518.995 2.86 2.513 2.993l39.01 3.386zm.245 2.775c-.16 0-.32-.007-.482-.02l-39.01-3.387c-3.036-.263-5.29-2.95-5.028-5.987l2.27-26.19c.263-3.036 2.936-5.29 5.983-5.03l39.01 3.387c1.466.127 2.797.82 3.75 1.955.95 1.133 1.405 2.565 1.278 4.03l-2.27 26.19c-.25 2.876-2.67 5.052-5.5 5.052z" fill="#4B5170"/><path d="M325.166 159.22l.64-7.375c.242-2.796.41-5.07-2.224-5.298l-39.236-3.468c-2.635-.23-2.888 2.098-3.13 4.894l-.64 7.376 44.59 3.87zM279.24 170.284l.007.497c-.18 2.088.23 3.918 2.893 4.15l38.21 3.282c2.663.23 3.33-1.565 3.512-3.652l.035-.4-44.656-3.876z" fill="#BAC2E2"/><path d="M318.322 154.39c-.053 0-.107-.002-.16-.008l-27.19-2.528c-.95-.09-1.65-.93-1.56-1.88.088-.95.92-1.65 1.878-1.562l27.19 2.53c.95.088 1.648.93 1.56 1.88-.083.895-.836 1.568-1.718 1.568" fill="#FFF"/><path d="M294.233 167.58c-.26 0-.524-.06-.79-.2-.986-.517-1.103-1.757-1.217-2.956-.037-.393-.096-1.015-.192-1.298-.902-.047-3.854 1.847-6.3 4.1-.42.386-1.076.36-1.465-.062-.388-.422-.36-1.078.06-1.466 1.797-1.652 6.23-5.394 8.588-4.48 1.128.44 1.257 1.805 1.37 3.01.033.337.08.84.153 1.16.33-.204.82-.64 1.142-.925.907-.805 1.763-1.565 2.737-1.565h.02c1.005.01 1.622.922 2.166 1.726.157.23.4.59.565.766.3-.177.82-.735 1.15-1.086.74-.796 1.442-1.547 2.313-1.712 1.237-.234 2.514.676 3.75 1.555.546.387 1.163.827 1.51.942 1.034.344 3.91-.15 4.38-.74.043-.534.49-.955 1.034-.955.572 0 1.036.464 1.036 1.037 0 .45-.167 1.11-.964 1.685-1.46 1.052-4.696 1.422-6.143.94-.638-.213-1.326-.702-2.054-1.22-.578-.41-1.78-1.26-2.165-1.208-.236.072-.83.71-1.185 1.09-.907.97-1.848 1.973-3.04 1.762-.857-.152-1.388-.937-1.902-1.695-.158-.235-.406-.6-.573-.777-.3.15-.89.675-1.26 1.004-.837.743-1.763 1.565-2.724 1.565" fill="#F37631"/><path d="M139.787 183.032l-39 3.492c-2.272.203-4.295-1.49-4.498-3.762l-2.342-26.182c-.203-2.272 1.488-4.297 3.758-4.5l39.002-3.492c2.27-.203 4.293 1.49 4.496 3.76l2.34 26.183c.205 2.273-1.487 4.298-3.757 4.502" fill="#FFF"/><g transform="translate(91.863 147.143)"><mask id="d" fill="#fff"><use xlink:href="#c"/></mask><path d="M45.214 2.81c-.082 0-.164.004-.246.012L5.966 6.312c-.73.067-1.395.416-1.87.986-.475.57-.7 1.285-.636 2.016L5.8 35.496c.066.73.416 1.396.984 1.87.57.477 1.28.704 2.015.637l39-3.492c1.518-.134 2.642-1.48 2.506-2.998L47.966 5.33c-.066-.732-.415-1.396-.984-1.872-.505-.422-1.124-.647-1.768-.647M8.547 40.78c-1.29 0-2.53-.45-3.535-1.29-1.134-.95-1.83-2.28-1.962-3.748L.708 9.56c-.13-1.466.32-2.9 1.268-4.035C2.926 4.39 4.254 3.69 5.72 3.56l39-3.492c1.465-.13 2.898.32 4.034 1.268 1.135.95 1.832 2.28 1.963 3.747l2.34 26.182c.272 3.038-1.975 5.73-5.01 6l-39 3.492c-.168.015-.335.023-.5.023" fill="#4B5170" mask="url(#d)"/></g><path d="M140.73 162.177l-.658-7.374c-.25-2.795-.48-5.063-3.116-4.827l-39.236 3.45c-2.635.237-2.477 2.573-2.227 5.368l.66 7.374 44.578-3.99zM97.447 181.105l.093.49c.186 2.086.91 3.815 3.572 3.576l38.196-3.452c2.662-.238 3.006-2.124 2.82-4.21l-.037-.4-44.643 3.997z" fill="#BAC2E2"/><path d="M105.63 160.913c-.89 0-1.644-.682-1.718-1.584-.08-.953.626-1.788 1.576-1.867l27.213-2.268c.952-.078 1.787.627 1.866 1.578.08.95-.628 1.787-1.578 1.866l-27.213 2.267c-.048.004-.097.006-.145.006" fill="#FFF"/><path d="M102.48 177.366c-.22 0-.44-.07-.63-.213-.453-.347-.54-.998-.194-1.453 1.48-1.94 5.185-6.408 7.673-5.913 1.186.234 1.552 1.557 1.875 2.724.09.326.224.814.353 1.116.288-.26.694-.774.96-1.112.758-.957 1.473-1.86 2.442-2.022.992-.167 1.76.624 2.435 1.32.195.2.495.51.69.655.265-.227.68-.868.94-1.27.593-.913 1.152-1.776 1.98-2.09 1.176-.447 2.593.225 3.965.875.604.285 1.29.61 1.65.663 1.084.157 3.826-.832 4.184-1.495-.052-.533.314-1.025.85-1.12.565-.1 1.102.274 1.202.84.078.443.03 1.12-.655 1.827-1.25 1.29-4.373 2.223-5.88 2-.668-.098-1.43-.46-2.236-.84-.643-.306-1.977-.938-2.344-.812-.22.114-.693.844-.976 1.28-.723 1.115-1.47 2.268-2.684 2.268h-.002c-.87 0-1.53-.68-2.168-1.336-.198-.204-.506-.52-.702-.665-.267.2-.757.82-1.063 1.21-.884 1.116-1.887 2.382-3.22 1.96-1.064-.337-1.396-1.537-1.718-2.698-.105-.38-.27-.983-.415-1.245-.91.113-3.47 2.493-5.49 5.138-.202.267-.51.408-.823.408" fill="#F37631"/></g></svg>