<svg width="296" height="272" viewBox="0 0 296 272" xmlns="http://www.w3.org/2000/svg"><title>Page 1</title><g fill="none" fill-rule="evenodd"><path d="M224.956 114.29c-.002 3.194-.092 6.4-.284 9.604-1.448 41.135-28.394 79.495-66.134 95.485-2.283.962-4.603 1.855-6.958 2.672-2.356.818-4.746 1.56-7.17 2.227-9.69 2.66-19.893 4.082-30.43 4.082-18.064 0-35.15-4.178-50.343-11.62-3.8-1.86-7.478-3.924-11.024-6.18-8.328-5.758-16.015-12.52-22.802-20.075-2.262-2.518-4.424-5.123-6.477-7.81-4.97-6.736-9.2-14.026-12.632-21.68-3.432-7.273-6.07-16.24-7.857-23.865-.893-4.658-1.575-8.363-2.035-12.402-.397-3.483-.656-5.39-.776-8.988-.172-8.03.355-13.4 1.498-19.595 1.142-5.452 2.902-13.21 5.198-18.895 2.296-5.976 5.128-11.52 8.416-17.24 3.288-5.512 7.032-11.48 11.152-16.886 2.354-2.157 4.83-5.212 7.42-8.506 5.796-6.33 12.266-11.75 19.227-15.634 6.96-4.407 14.41-7.875 22.16-11.332 3.878-.48 7.83-2.824 11.834-3.878 6.375-1.254 12.85-1.71 19.344-3.33 6.494-.798 13.007-.426 19.456.34 12.9 1.385 25.55 5.03 37.297 10.558 11.75 5.528 22.596 12.943 31.89 21.868 2.59 2.48 5.054 4.97 7.37 7.684 6.74 8.82 11.685 18.812 15.332 29.327 1.216 3.505 2.28 7.066 3.19 10.66 1.835 6.852 2.41 14.295 3.35 21.74.41 4.434.707 8.93.79 11.668" fill="#F6F3F1"/><path d="M157.996 10.58l2.343 4.743 2.65 5.365c1.02 2.06 2.16 4.368 3.393 6.864 1.233 2.744 2.56 5.15 3.947 8.194 1.387 3.564 2.836 5.614 4.316 8.526 1.48 2.49 2.99 5.976 4.502 9.113.755 1.44 1.51 3.04 2.262 4.62.752 1.135 1.5 3.08 2.24 4.486.74 1.542 1.472 2.923 2.193 4.562.72 1.27 1.43 2.538 2.123 4.197.694 1.574 1.372 2.74 2.032 4.393.658 1.486 1.3 2.99 1.915 3.568 1.234 2.297 2.374 4.404 3.392 6.864 1.017 1.884 1.912 3.38 2.652 5.366 1.48 2.667 2.343 4.71 2.343 4.742 0 .022 1.93.06 5.24.76 3.31.857 7.998.43 13.513 1.96 5.516.8 11.86 1.72 18.478 2.682 2.648.385 5.34.682 8.04 1.028 2.7.54 5.41.35 8.093 1.313 2.683.275 5.34 1.286 7.934 1.482 2.594.954 5.128.717 7.563.767 2.435.528 4.775.993 6.98 1.254 2.207.463 4.28.177 6.188.656 1.905.197 3.644-.084 5.18.733 1.535.166 2.868.387 3.962.594 2.19.708 3.424.676 3.424.498 0 .192-1.397 1.774-3.79 3.69-1.2 1.455-2.646 1.933-4.292 3.982-1.647 1.47-3.492 3.266-5.488 5.538-1.995 1.203-4.14 3.773-6.386 5.64-2.245 2.938-4.59 4.53-6.985 7.375-1.196 1.233-2.407 2.497-3.623 3.707-1.216.608-2.438 2.343-3.66 3.384-1.223 1.19-2.445 2.293-3.66 3.644-1.217.533-2.427 2.496-3.625 3.446-1.197 1.152-2.382 2.136-3.548 3.19-1.166 1.055-2.313 2.18-3.436 3.61-1.12.65-2.22 1.963-3.285 3.172-1.067 1.372-2.102 2.416-3.1 3.043-1.995 2.008-3.842 3.832-5.487 5.7-1.647 1.677-3.094 3.183-4.29 3.818-2.396 2.19-3.793 3.898-3.793 3.69 0-.22.33 1.03.895 5.213.283 1.89.624 3.462 1.013 5.928.195 1.294.4 1.964.617 3.354.216 1.167.443 2.497.678 4.16.393 2 .81 4.666 1.245 7.187.217 1.382.44 2.62.665 3.882.225 1.263.454 2.553.686 4.04.232 1.05.466 2.316.703 4.026.236 1.438.474 2.944.713 4.16.24 1.423.48 2.555.72 4.046.24 1.526.48 2.85.72 4.404.48 3.138.958 5.896 1.426 8.353.234 1.073.464 2.217.693 3.798.227 1.53.452 2.82.673 4.105.44 2.7.867 5.45 1.268 7.39.404 2.266.783 4.275 1.132 6.58.35 2.228.668 3.484.95 5.36.283 1.775.527 2.973.73 4.417.402 2.793.632 3.8.632 3.683 0 .065-1.727-.8-4.687-2.46-1.48-1.073-3.268-1.93-5.303-2.82-2.036-.974-4.317-2.12-6.784-3.527-1.233-.708-2.512-1.384-3.83-2.073-1.32-.69-2.676-1.43-4.063-2.153-1.388-.535-2.806-1.834-4.248-2.177-1.442-.608-2.906-1.153-4.387-2.274-1.48-.693-2.975-1.834-4.478-2.407-1.503-.988-3.014-2.093-4.525-2.37-1.51-.97-3.022-1.843-4.525-2.39-1.503-1.076-3-1.664-4.478-2.287-1.48-.692-2.945-1.497-4.386-2.294-1.44-.796-2.86-1.584-4.247-2.24-1.388-.226-2.744-1.51-4.063-2.097-1.318-.858-2.597-1.373-3.83-2.047-2.467-1.452-4.75-2.426-6.784-3.63-2.035-1.064-3.823-1.57-5.303-2.715-2.96-1.992-4.687-2.308-4.687-2.46 0-.295-1.726 1.452-4.686 2.46-1.48.72-3.27 1.782-5.304 2.927-2.035 1.147-4.317 2.582-6.784 3.418-2.467 1.524-5.118 2.836-7.893 4.31-2.776 1.235-5.674 2.593-8.635 4.368-1.48.57-2.975 1.398-4.478 2.26-1.503.863-3.014 1.76-4.525 2.466-1.51.638-3.022 1.72-4.525 2.234-1.503.646-3 2.015-4.478 2.493-1.48.554-2.946 1.39-4.387 2.224-1.442.6-2.86 1.647-4.248 2.214-1.387.964-2.744 1.934-4.062 2.247-1.318.792-2.598.942-3.83 1.99-1.234.48-2.42.608-3.555 1.857-1.133.51-2.212 1.273-3.23 1.706-2.035 1.662-3.823 2.444-5.303 2.784-2.96 1.915-4.687 2.937-4.687 2.46 0-.17.33-1.755.895-5.21.283-1.446.624-3.403 1.013-5.882.39-2.518.825-5.065 1.296-7.56.47-3.317.977-5.622 1.507-8.722.53-2.703 1.083-6.213 1.648-9.656.565-2.468 1.143-5.854 1.72-9.827.577-3.423 1.154-6.907 1.72-10.196l3.156-18.38 3.203-18.652-3.792-3.69c-2.395-2.286-5.787-5.7-9.778-9.52-1.996-1.998-4.14-4.755-6.386-6.385-2.244-2.377-4.59-4.71-6.983-6.63-1.198-1.52-2.408-2.865-3.623-4.072-1.217-1.206-2.44-2.273-3.662-3.232-1.222-.974-2.444-1.44-3.66-3.13-1.216-1.597-2.426-2.28-3.623-3.745-2.396-2.684-4.74-4.437-6.986-6.8-2.245-1.613-4.39-3.417-6.386-6.215l-9.78-9.52-3.79-3.69 3.424-.497c2.188-.316 5.33-.772 9.143-1.326 3.813-.118 8.295-1.116 13.167-1.91 2.436-.857 4.97-.664 7.563-1.097 2.594.058 5.25-1.042 7.934-1.152 2.682-1.098 5.39-.376 8.09-1.128 2.702-.585 5.394-.93 8.04-1.213 1.656-1.25 3.293-1.146 4.905-.712 1.61-.268 3.198.46 4.75-.69 1.55-.11 3.067-.444 4.54-.658l4.284-.62c5.514-1.067 10.203-.57 13.512-1.962 3.31-1.374 5.24-.3 5.24-.76 0-.982.864-2.006 2.343-4.742.74-2.314 1.635-2.62 2.652-5.366 1.018-2.095 2.158-4.528 3.392-6.863 1.232-3.413 2.558-5.782 3.946-8.507 1.387-3.76 2.836-4.784 4.316-8.212.74-.82 1.488-2.39 2.24-4.08.752-1.805 1.507-3.66 2.262-4.796.756-1.954 1.51-4.177 2.263-4.758.752-1.79 1.5-3.432 2.24-4.584 1.48-2.876 2.928-5.676 4.315-8.72 1.388-2.79 2.714-5.43 3.948-8l6.043-12.23 2.343-4.74z" stroke="#FFCC21" fill="#FFCB3B"/><path d="M151.227 5.296c0 .07-.018.17-.05.288.033-.097.05-.196.05-.288zm-44.59 85.6v.052-.05zM80.49 171.254h1.132-1.13zm69.593 49.663l-.55.995c.32.173.63.157.852.094-.155-.095-.28-.167-.347-.192.094.036.435.083.767-.147.31-.216.422-.538.422-.75h-1.144zM68.51 254.538c-.23 1.65-.446 2.74-.637 3.706-.133.674-.258 1.304-.373 2.053-.235 1.51-.43 2.41-.58 3.068.692-.3 1.57-.742 2.605-1.437l.133-.088.15-.05c.737-.238 1.664-.79 2.644-1.378.792-.473 1.61-.962 2.506-1.404l.156-.077.172-.026c.847-.135 1.9-.816 3.017-1.537 1.1-.71 2.236-1.444 3.482-1.884.834-.452 1.692-.842 2.522-1.22 1.666-.757 3.39-1.54 5.13-2.902l.136-.105.162-.06c1.557-.594 3.166-1.486 4.87-2.43 1.154-.64 2.35-1.304 3.556-1.884 1.534-1.23 3.056-2.052 4.53-2.448 1.078-.964 2.158-1.36 3.118-1.71.5-.183.975-.356 1.43-.6l.144-.065c1.523-.565 3.06-1.39 4.36-2.125.503-.283 1.006-.574 1.508-.863.983-.568 2-1.154 3-1.68 5.296-3.085 10.872-6.012 16.53-8.68 1.316-.754 2.575-1.525 3.79-2.27 3.326-2.035 6.202-3.795 8.57-4.18 1.958-.608 3.33-1.617 3.92-2.05l.106-.078c.114-.173.27-.318.46-.42.803-.428 1.52.047 2.825.91.746.495 1.67 1.107 2.78 1.707 3.154 1.105 7.472 3.372 12.182 6.392 3.26 1.542 6.805 3.457 10.557 5.485 1.94 1.048 3.93 2.124 5.946 3.182l18.007 9.453c3.22 1.91 6.294 3.505 8.62 4.685 1.134.504 2.274 1.177 3.378 1.827 1.527.9 2.968 1.748 4.27 2.067l.186.063c1.86.814 3.645 1.746 5.218 2.568.525.274 1.035.542 1.532.796 2.138.637 3.95 1.876 5.455 3.03 1.02.42 1.853.776 2.527 1.086-.045-.278-.088-.568-.133-.868-.1-.976-.2-1.44-.32-1.98-.105-.483-.224-1.028-.35-1.94-.242-.98-.494-2.61-.786-4.492l-.08-.523c-.214-.546-.366-1.52-.648-3.524-.14-.986-.282-2.003-.425-2.737-.122-.714-.242-1.432-.364-2.164-.267-1.603-.544-3.266-.83-4.79-.418-2.436-.85-4.958-1.295-7.583-.113-.61-.228-1.2-.344-1.79-.33-1.67-.67-3.4-1.01-6.05-.266-1.2-.535-2.817-.794-4.383-.193-1.174-.39-2.35-.583-3.357-.467-2.73-.928-5.522-1.38-8.32-.244-1.324-.49-2.85-.735-4.356-.315-1.946-.612-3.784-.904-5.2-.51-2.542-1.02-5.512-1.52-8.836-.228-1.475-.448-2.66-.662-3.806-.222-1.194-.433-2.32-.633-3.67-.283-1.374-.547-3.04-.78-4.508-.08-.51-.157-.996-.23-1.44-.264-1.63-.474-2.658-.626-3.408-.177-.873-.285-1.4-.285-1.99v-1.714l.866.362c.625-.643 1.756-1.783 3.3-3.183 2.373-2.388 5.822-5.715 9.753-9.495 1.687-1.512 3.457-3.345 5.33-5.288 2.59-2.686 5.27-5.464 8.07-7.757l39.813-38.757-8.875-1.288c-.797-.115-1.616-.33-2.408-.54-1.57-.414-3.193-.843-4.82-.565l-.113.02-.116-.004c-2.813-.09-5.822-.25-8.973-1.133-3.086-.158-6.198-.824-9.49-1.527l-.216-.046c-1.177-.203-2.4-.55-3.585-.883-2.14-.605-4.16-1.177-6.15-1.015l-.246.02-.235-.085c-1.997-.72-4.013-.744-6.147-.768-1.196-.013-2.43-.027-3.665-.174-.44-.032-.927-.064-1.413-.097-2.79-.19-5.673-.386-8.442-1.24l-.08-.028c-3.37-1.317-5.975-1.738-8.2-1.327l-.185.035-19.536-2.835-25.918-52.447c-1.326-2.632-2.626-5.303-3.884-7.887-1.55-3.187-3.015-6.2-4.37-8.815-2.367-5.14-4.38-9.06-6.042-12.22-.495-.945-.926-1.867-1.276-2.643-.193.363-.392.713-.58 1.015-.37.785-.785 1.575-1.264 2.485-.81 1.546-1.73 3.298-2.783 5.7-1.14 2.21-2.393 4.773-3.717 7.487-.707 1.45-1.44 2.95-2.194 4.475L117.19 74.43c-2.818 6.215-4.976 10.3-6.03 12.21-2.258 5.677-2.782 5.58-3.573 5.428l-.234-.045c-.61.036-2.164.198-4.558.745-1.663.42-3.616.63-5.88.873-2.287.246-4.88.525-7.66 1.094l-.15.02c-4.617.32-9.833 1.212-15.355 2.156-.995.17-2 .342-3.012.513l-.143.014c-4.346.175-8.908.994-13.32 1.785-2.203.395-4.48.804-6.694 1.125-2.256.328-4.482.644-6.653.953-4.18.594-8.13 1.155-11.738 1.715-3.788 1.113-7.22 1.38-9.98 1.598-1.372.108-2.557.2-3.597.373l-.144.014c-1.172.045-2.162.15-2.937.266.32.3.685.66 1.087 1.094 1.794 1.254 4.22 3.62 7.22 7.04 2.86 2.962 6.327 6.477 10.06 9.79l.145.156c1.187 1.533 2.407 2.596 3.698 3.72.645.564 1.312 1.145 1.986 1.797l.12.136c1.243 1.665 2.5 2.74 3.83 3.876.67.57 1.362 1.16 2.057 1.836.81.69 1.607 1.553 2.377 2.388 1.168 1.264 2.375 2.572 3.42 3.034l.196.087.15.15c1.302 1.305 2.598 2.646 3.88 3.973.714.74 1.424 1.476 2.13 2.196 1.5 1.516 2.994 2.86 4.44 4.162 2.312 2.08 4.496 4.047 6.564 6.55.95.865 1.85 1.81 2.722 2.728.95 1.002 1.85 1.947 2.665 2.622l.084.077c.517.52 1.002 1.06 1.473 1.583.855.95 1.823 2.025 2.38 2.218l.25.087.187.188c.982.99 1.768 1.573 2.4 2.043.57.425 1.096.816 1.413 1.328l.303.02.008 1.073v.033H81.72l.965.38c-.065.206-.354 1.565-.813 4.984-.3 1.924-.668 4.035-1.02 6.034l-.135.772c-.354 2.004-.743 4.208-1.16 6.673-.476 2.483-.985 5.575-1.524 8.85-.528 3.21-1.074 6.532-1.635 9.547-.167 1.16-.344 2.13-.516 3.072-.11.61-.223 1.222-.334 1.9-.18.94-.354 1.997-.53 3.054-.11.684-.224 1.368-.337 2.015-.247 1.146-.494 2.568-.732 3.94l-.132.754c-.31 1.78-.587 3.496-.85 5.248-.31 2.082-.62 3.868-.918 5.597-.248 1.434-.493 2.848-.732 4.393-.632 3.908-1.1 6.516-1.52 8.46l-.314 1.992c-.344 2.185-.67 4.25-.972 5.62zm-2.276 11.564c.15-.084.385-.366.385-.764H64.33c0-.94.118-1.447.296-2.214.15-.646.354-1.53.612-3.174.12-.782.25-1.442.39-2.15.196-.988.398-2.01.62-3.62l.018-.093c.29-1.298.613-3.352.955-5.526l.328-2.056c.42-1.963.883-4.535 1.508-8.396.24-1.552.486-2.978.737-4.425.296-1.716.603-3.49.91-5.544.264-1.772.546-3.507.86-5.305l.13-.752c.242-1.397.493-2.84.743-3.99.102-.593.214-1.27.325-1.946.178-1.078.355-2.154.533-3.082.11-.665.223-1.288.336-1.91.176-.964.34-1.873.51-3.035.565-3.036 1.108-6.345 1.635-9.544.54-3.29 1.05-6.4 1.53-8.886.413-2.446.803-4.655 1.158-6.664l.136-.77c.35-1.988.716-4.087 1.01-5.967.358-2.67.58-4.212.82-5.09-.138-.118-.467-.364-.742-.568-.623-.463-1.464-1.088-2.49-2.1-1.013-.464-1.97-1.526-3.062-2.74-.44-.49-.894-.994-1.36-1.464-.906-.758-1.836-1.737-2.82-2.773-.86-.905-1.75-1.84-2.66-2.664l-.116-.12c-1.975-2.402-4.115-4.33-6.38-6.367-1.47-1.323-2.99-2.69-4.543-4.258-.712-.73-1.426-1.47-2.143-2.21-1.227-1.27-2.467-2.555-3.713-3.806-1.398-.697-2.703-2.11-3.967-3.478-.733-.795-1.49-1.615-2.206-2.22l-.058-.053c-.652-.635-1.295-1.184-1.975-1.766-1.35-1.152-2.744-2.344-4.122-4.17-.61-.586-1.232-1.128-1.834-1.652-1.296-1.13-2.635-2.296-3.938-3.96-3.76-3.344-7.238-6.87-10.147-9.883-2.928-3.34-5.313-5.67-6.936-6.776l-.2-.173c-.89-.97-1.557-1.526-2-1.895-.525-.437-.978-.814-.978-1.482 0-.536 0-1.648 6.268-1.898 1.12-.182 2.384-.28 3.72-.386 2.812-.22 5.998-.47 9.583-1.534l.15-.033c3.642-.566 7.625-1.132 11.842-1.73 2.17-.31 4.392-.625 6.647-.953 2.177-.316 4.434-.72 6.618-1.113 4.464-.8 9.08-1.63 13.56-1.816.985-.164 1.963-.332 2.934-.498 5.55-.95 10.796-1.846 15.507-2.178 2.858-.58 5.484-.862 7.802-1.11 2.176-.235 4.055-.438 5.588-.824 1.706-.39 3.696-.773 4.994-.786.318-.574.927-1.814 1.806-4.03l.062-.13c1.024-1.855 3.168-5.9 6.003-12.15L137.55 28.08c.75-1.52 1.482-3.02 2.187-4.464 1.33-2.727 2.588-5.302 3.71-7.47 1.053-2.408 2.034-4.277 2.823-5.778.478-.91.89-1.696 1.245-2.454l.07-.126c.73-1.158 1.23-2.354 1.376-2.745.1-.55.508-.876.915-.96.98-.207 1.293.508 1.916 1.93.403.918.954 2.174 1.648 3.497 1.677 3.19 3.708 7.14 6.07 12.283 1.347 2.594 2.818 5.617 4.376 8.818 1.253 2.577 2.55 5.24 3.87 7.866l25.392 51.38 17.977 2.607c2.6-.434 5.542.032 9.22 1.466 2.502.765 5.116.943 7.883 1.13.49.035.984.068 1.478.104 1.16.138 2.282.15 3.47.163 2.157.024 4.385.05 6.666.822 2.318-.13 4.544.5 6.708 1.11 1.18.334 2.293.65 3.398.84l.26.055c3.245.693 6.31 1.348 9.25 1.486l.26.042c2.91.83 5.654.99 8.438 1.08 2.068-.324 3.98.18 5.67.626.763.202 1.484.392 2.152.49l13.46 1.952-43.24 42.087c-2.71 2.212-5.353 4.954-7.91 7.605-1.902 1.974-3.7 3.837-5.42 5.377-3.89 3.743-7.332 7.06-9.73 9.472-1.703 1.547-2.877 2.748-3.427 3.318.036.272.105.61.205 1.1.156.77.37 1.824.64 3.5.075.443.152.933.234 1.447.228 1.446.488 3.085.77 4.47.205 1.37.412 2.476.63 3.648.217 1.162.44 2.365.675 3.88.494 3.292.998 6.225 1.5 8.725.3 1.458.602 3.32.92 5.292.242 1.49.485 2.997.732 4.33.455 2.818.914 5.604 1.376 8.302.193 1 .392 2.196.59 3.39.257 1.56.524 3.17.78 4.31l.02.104c.332 2.605.667 4.307.99 5.95.12.602.237 1.2.355 1.836.446 2.64.878 5.158 1.294 7.578.284 1.52.565 3.198.835 4.816.12.728.24 1.444.358 2.128.15.768.296 1.816.44 2.83.15 1.06.375 2.667.51 3.003l.105.185.004.153.104.674c.277 1.79.54 3.48.76 4.342l.024.128c.116.86.223 1.35.327 1.822.126.582.246 1.132.353 2.187.187 1.254.37 2.34.517 3.052.053.148.074.302.074.468h-2.287 1.144l-1.117.224c.044.187.133.308.175.348-.176-.168-.95-.65-4.18-1.978l-.142-.058-.12-.094c-1.384-1.066-3.048-2.23-4.92-2.77l-.205-.08c-.532-.27-1.08-.558-1.646-.853-1.59-.832-3.232-1.69-4.99-2.463-1.592-.41-3.144-1.325-4.786-2.292-1.048-.618-2.132-1.258-3.2-1.734-2.41-1.22-5.528-2.84-8.752-4.753l-.31-.162-17.645-9.262c-2.024-1.063-4.02-2.142-5.97-3.195-3.75-2.026-7.29-3.94-10.512-5.46l-.13-.07c-4.63-2.976-8.836-5.187-11.843-6.23l-.165-.07c-1.243-.666-2.284-1.355-3.043-1.86-.246-.162-.525-.347-.753-.49-.006.004-.01.01-.017.013-.693.51-2.314 1.702-4.688 2.422l-.166.036c-1.922.285-4.645 1.952-7.797 3.88-1.244.762-2.53 1.55-3.89 2.327l-.08.042c-5.612 2.646-11.142 5.55-16.44 8.63-1.003.53-2 1.105-2.963 1.662-.51.293-1.018.586-1.528.873-1.358.767-2.967 1.632-4.615 2.25-.573.302-1.124.503-1.657.697-.93.34-1.735.634-2.54 1.42l-.23.224-.314.07c-1.26.29-2.61 1.015-4.01 2.158l-.233.147c-1.185.563-2.39 1.23-3.553 1.876-1.645.913-3.345 1.855-5.003 2.506-1.904 1.46-3.708 2.28-5.455 3.076-.858.39-1.67.76-2.457 1.19l-.18.08c-1.017.345-2.062 1.02-3.072 1.672-1.263.815-2.46 1.59-3.715 1.842-.76.385-1.494.823-2.204 1.246-1.037.62-2.02 1.206-2.954 1.537-1.774 1.17-3.118 1.68-3.93 1.986-.195.074-.44.167-.508.206z" fill="#4B5170"/><path d="M115.325 178.85c0 .277-2.876.082-5.752 0-2.875.432-5.75.392-5.75 0-1.005-.136-1.818-.76-1.818-1.813V165.55c0-1.383.813-1.523 1.817-1.815 0-.575 2.876-.21 5.75 0 2.877.407 5.753.936 5.753 0 1.003.09 1.817 1.372 1.817 1.814v11.487c0 1.127-.814 2.147-1.817 1.814" fill="#FFF"/><path d="M104.534 177.958c.64.1 2.573.108 4.87-.237.066-.008.133-.015.2-.01.7.02 1.397.045 2.055.07 1.174.044 2.608.098 3.136.06.272-.143.594-.17.888-.073l.024.006c.08-.03.29-.318.29-.736v-11.392c-.06-.15-.22-.367-.39-.533-.93.49-2.48.293-5.298-.117l-.86-.124c-.52-.037-1.04-.08-1.542-.12-1.156-.097-2.688-.223-3.315-.172-.126.115-.28.202-.452.253l-.19.056c-.8.23-.8.23-.8.663v11.488c0 .47.45.63.827.682.21.03.4.113.557.238zm.43.87zm0 0zm0 .002zm0 .003zm0 0v.002zm0 .003zm0 0v.003-.003zm0 .003zm0 0v.002zm0 .003zm0 0v.003-.002zm0 .003zm9.256-.29c-.024.09-.04.187-.04.293 0-.1.015-.2.04-.293zm-9.255.292v.002-.002zm0 .002zm9.216 0zm-8.407 1.456c-1.02 0-1.97-.097-2.487-.394-1.465-.345-2.424-1.46-2.424-2.875V165.55c0-2.017 1.344-2.533 2.272-2.805.677-.594 1.824-.53 4.963-.273.508.042 1.033.086 1.56.124.025.002.05.004.076.008l.908.13c1.226.18 3.004.44 3.727.376.053-.08.115-.153.187-.218.237-.216.55-.32.875-.295 1.575.145 2.855 1.89 2.855 2.952v11.487c0 1.043-.47 2.03-1.225 2.575-.47.338-1.026.488-1.585.43-.576.14-1.6.107-3.903.02-.618-.023-1.274-.048-1.93-.067-.522.075-2.28.31-3.87.31z" fill="#4B5170"/><path d="M115.325 202.21c0 .277-2.876.164-5.752 0-2.875-.226-5.75-.662-5.75 0-1.005-.03-1.818-.198-1.818-1.813V188.91c0-.943.813-2.174 1.817-1.815 0-.802 2.876-.404 5.75 0 2.877.225 5.753.307 5.753 0 1.003-.177 1.817.972 1.817 1.814v11.487c0 1.343-.814 1.838-1.817 1.814" fill="#FFF"/><path d="M114.18 187.07zm0 .003zm0 .002zm0 0v.002zm0 .003zm0 .002zm0 0v.002zm0 .003zm0 0v.002zm0 .002v.002-.002zm0 .003zm0 0v.002zm0 .005zm-9.196 13.624c.728 0 1.686.083 2.98.204.55.054 1.125.107 1.7.153 3.482.196 4.69.18 5.107.138.177-.095.363-.137.583-.14.23.01.428-.04.51-.12.084-.08.135-.29.135-.553V188.91c0-.14-.118-.438-.328-.615-.017-.014-.033-.027-.05-.037-.597.202-2.002.3-6.136-.025-1.527-.212-3.894-.542-4.75-.45-.07.094-.156.177-.254.246-.304.213-.693.265-1.044.14-.048.05-.288.418-.288.74v11.488c0 .463.09.6.09.602.01.003.042.015.127.03.373-.226.876-.313 1.62-.313zM114.2 202c-.01.066-.02.136-.02.21 0-.072.008-.142.02-.21zm-.02.21zm-9.215 0v.003-.002zm8.923 1.31c-.93 0-2.306-.052-4.38-.17-.61-.047-1.195-.1-1.757-.154-1.076-.1-2.503-.237-3.11-.19l-.022.024c-.222.215-.508.34-.83.322-.724-.022-2.927-.087-2.927-2.955V188.84c0-.038.004-.077.008-.115.06-.943.568-1.895 1.304-2.413.358-.25.75-.392 1.15-.42.906-.625 2.638-.458 6.412.073 2.8.216 4.457.215 4.995.155.118-.072.252-.123.395-.148.704-.128 1.422.077 2.015.574.695.582 1.145 1.51 1.145 2.363v11.565c-.022 1.097-.458 1.753-.826 2.11-.45.44-1.05.697-1.75.756-.28.113-.763.18-1.822.18z" fill="#4B5170"/><path d="M115.325 132.13c0 .126-2.876.148-5.752 0-2.875.31-5.75.27-5.75 0-1.005.392-1.818-.89-1.818-1.813V118.83c0-1 .813-1.188 1.817-1.815 0-.15 2.876.113 5.75 0 2.877-.31 5.753-1.208 5.753 0 1.003.404 1.817 1.615 1.817 1.814v11.487c0 1.38-.814 2.032-1.817 1.814" fill="#FFF"/><path d="M104.965 117.016v.002-.002zm0 .002c0 .234-.073.457-.2.645.12-.172.2-.39.2-.645zm-.58 14.13c.587.086 2.646.106 5.067-.152.06-.007.118-.01.18-.006 2.54.13 4.757.114 5.316.063.197-.07.412-.083.62-.038.054.013.188.035.25-.016.066-.055.18-.26.18-.683v-11.245c-.19-.29-.66-.82-1.1-.997-.26-.104-.465-.296-.588-.534-.502 0-1.542.158-2.328.284-.7.113-1.496.242-2.286.327-.026.004-.052.005-.078.007-1.585.06-3.135.013-4.267-.02-.414-.015-.865-.022-1.13-.028-.152.09-.3.17-.44.25-.237.13-.56.31-.63.4.002.003-.002.025-.002.07v11.487c0 .266.19.617.324.73.303-.093.638-.057.912.1zm.44.45c.09.16.14.342.14.53 0-.206-.057-.383-.14-.53zm.14.53v.003zm9.444-.68c-.135.175-.228.405-.228.683 0-.248.08-.487.227-.683zm-8.527 2.052c-.81 0-1.568-.047-2.114-.178-.54.08-1.078-.043-1.56-.372-.794-.542-1.348-1.624-1.348-2.633v-11.61c0-.072.006-.142.02-.21.143-1.22 1.084-1.743 1.786-2.133.142-.08.29-.16.446-.254.372-.316.74-.305 2.308-.257 1.088.034 2.576.08 4.068.023.716-.078 1.433-.194 2.127-.306 2.06-.335 3.42-.553 4.277.176.16.137.29.3.385.48 1.035.638 2.005 1.847 2.005 2.604v11.487c0 1.05-.368 1.925-1.033 2.46-.54.435-1.227.615-1.95.51-.76.116-2.316.16-5.697-.01-.903.093-2.383.223-3.722.223z" fill="#4B5170"/><path d="M115.325 155.49c0-.456-2.876-.42-5.752 0-2.875.224-5.75 0-5.75 0-1.005 0-1.818-.81-1.818-1.813V142.19c0-.253.813-2.947 1.817-1.815 0 .386 2.876-.41 5.75 0 2.877.212 5.753.017 5.753 0 1.003.123 1.817 1.14 1.817 1.814v11.487c0 .805-.814 1.427-1.817 1.814" fill="#FFF"/><path d="M104.96 140.286c.003.027.005.055.005.082 0-.028-.002-.055-.004-.082zm.005.082v.002-.002zm0 .002zm0 .003zm-1.817 13.304c0 .37.303.672.674.672.03 0 .06 0 .088.003.027 0 2.8.21 5.537.002 1.416-.206 4.428-.562 5.927-.138.46-.246.624-.474.624-.54V142.19c-.03-.158-.407-.63-.813-.682v-.01c-1.85.262-5.65.02-5.696.016l-.078-.008c-1.51-.217-3.085-.062-4.126.038-.88.086-1.424.14-1.85-.04-.124.256-.243.578-.288.772v11.4zm11.034 1.814v.002zm-7.387 1.242c-1.57 0-2.778-.083-3.022-.1-1.595-.026-2.888-1.318-2.91-2.913V142.188c0-.36.517-2.61 1.878-3.125.557-.212 1.146-.11 1.634.27.196-.015.46-.04.69-.063 1.142-.112 2.863-.28 4.63-.033 2.548.183 5.087.04 5.453.008.104-.018.21-.02.318-.006 1.485.182 2.624 1.485 2.796 2.647.017.073.025.15.025.228v11.56c0 1.222-.906 2.245-2.548 2.878-.35.135-.747.09-1.06-.123-.036-.026-.07-.052-.103-.08-.623-.092-2.475-.077-4.835.268l-.078.01c-.998.077-1.988.102-2.867.102z" fill="#4B5170"/><path d="M206.17 132.348c0 .15-2.232.11-5.95 0-1.86.938-4.09.102-6.602 0-1.254-.536-2.58.055-3.962 0-1.383-.303-2.824-.22-4.31 0-1.49-.35-3.023.18-4.592-.252-1.568-.085-3.172.3-4.8-.07-1.626-1.093-3.276.385-4.938-.062-1.66.177-3.335.305-5.01.384-1.672-.075-3.346.048-5.008-.15-1.66.07-3.312.437-4.938.33-1.627.272-3.23.012-4.8.035-1.568-.053-3.103-.148-4.59-.215-2.975-.55-5.764-.82-8.274-.132-2.51.23-4.74-.237-6.6.132-3.72-.577-5.95.373-5.95 0v-15.945c0 .12 2.23-.225 5.95 0 1.86-.296 4.09.668 6.6-.15 2.51.14 5.3.347 8.274.15 1.487-.054 3.022-.04 4.59-.02 1.57-.313 3.173-.164 4.8.014 1.626-.29 3.277.07 4.938-.143 1.662.124 3.336-.185 5.01.15 1.673.042 3.347.686 5.008.34 1.662.027 3.312-.406 4.94.03 1.626-.44 3.23-.68 4.798-.38 1.57-.115 3.103.038 4.59.01 1.488-.297 2.93.317 4.312-.205 1.383-.22 2.708.42 3.962.203 2.51-.032 4.742-.496 6.6 0 3.72.298 5.95.2 5.95 0V132.348zM206.17 155.722c0 .15-2.232.11-5.95 0-1.86.938-4.09.102-6.602 0-1.254-.536-2.58.055-3.962 0-1.383-.303-2.824-.22-4.31 0-1.49-.35-3.023.18-4.592-.252-1.568-.085-3.172.3-4.8-.07-1.626-1.093-3.276.385-4.938-.062-1.66.177-3.335.305-5.01.384-1.672-.075-3.346.048-5.008-.15-1.66.07-3.312.437-4.938.33-1.627.272-3.23.012-4.8.035-1.568-.053-3.103-.148-4.59-.215-2.975-.55-5.764-.82-8.274-.132-2.51.23-4.74-.237-6.6.132-3.72-.577-5.95.373-5.95 0v-15.945c0 .12 2.23-.225 5.95 0 1.86-.296 4.09.668 6.6-.15 2.51.14 5.3.347 8.274.15 1.487-.054 3.022-.04 4.59-.02 1.57-.313 3.173-.164 4.8.014 1.626-.29 3.277.07 4.938-.142 1.662.124 3.336-.185 5.01.15 1.673.04 3.347.686 5.008.34 1.662.027 3.312-.406 4.94.03 1.626-.44 3.23-.68 4.798-.38 1.57-.115 3.103.038 4.59.01 1.488-.297 2.93.317 4.312-.205 1.383-.22 2.708.422 3.962.204 2.51-.032 4.742-.496 6.6 0 3.72.297 5.95.2 5.95 0V155.72zM125.845 186.344c0-.15 2.23-.11 5.95 0 1.86-.938 4.09-.102 6.6 0 1.256.536 2.58-.056 3.963 0 1.383.303 2.825.22 4.312 0 1.488.35 3.022-.18 4.59.252 1.57.084 3.173-.3 4.8.07 1.627 1.092 3.277-.385 4.938.062 1.662-.178 3.336-.306 5.01-.384 1.672.074 3.346-.048 5.008.148 1.662-.067 3.312-.436 4.94-.328 1.626-.272 3.23-.012 4.798-.036 1.57.054 3.103.15 4.59.216 2.976.55 5.765.82 8.274.132 2.51-.23 4.742.236 6.602-.132 3.718.576 5.95-.374 5.95 0v15.945c0-.12-2.232.223-5.95 0-1.86.295-4.09-.67-6.602.15-2.51-.14-5.298-.348-8.273-.15-1.488.053-3.022.04-4.59.02-1.57.31-3.173.162-4.8-.015-1.627.29-3.277-.07-4.94.142-1.66-.123-3.335.186-5.008-.148-1.673-.044-3.347-.69-5.01-.342-1.66-.027-3.31.405-4.937-.032-1.627.442-3.23.68-4.8.38-1.568.117-3.102-.036-4.59-.007-1.487.295-2.93-.32-4.312.203-1.382.218-2.707-.42-3.962-.204-2.51.03-4.74.495-6.6 0-3.72-.3-5.95-.202-5.95 0v-15.946zM125.845 162.97c0-.15 2.23-.11 5.95 0 1.86-.938 4.09-.102 6.6 0 1.256.536 2.58-.056 3.963 0 1.383.303 2.825.22 4.312 0 1.488.35 3.022-.18 4.59.252 1.57.084 3.173-.3 4.8.07 1.627 1.092 3.277-.385 4.938.062 1.662-.178 3.336-.306 5.01-.384 1.672.075 3.346-.048 5.008.148 1.662-.067 3.312-.436 4.94-.328 1.626-.272 3.23-.012 4.798-.035 1.57.053 3.103.148 4.59.215 2.976.55 5.765.82 8.274.132 2.51-.23 4.742.236 6.602-.132 3.718.576 5.95-.374 5.95 0v15.945c0-.12-2.232.224-5.95 0-1.86.296-4.09-.67-6.602.15-2.51-.14-5.298-.347-8.273-.15-1.488.054-3.022.04-4.59.02-1.57.312-3.173.163-4.8-.014-1.627.29-3.277-.068-4.94.143-1.66-.123-3.335.186-5.008-.148-1.673-.043-3.347-.688-5.01-.34-1.66-.028-3.31.405-4.937-.032-1.627.44-3.23.68-4.8.38-1.568.116-3.102-.037-4.59-.008-1.487.296-2.93-.318-4.312.204-1.382.217-2.707-.423-3.962-.205-2.51.032-4.74.496-6.6 0-3.72-.298-5.95-.2-5.95 0V162.97z" fill="#FFF"/></g></svg>