<svg width="48" height="48" viewBox="0 0 48 48" xmlns="http://www.w3.org/2000/svg"><title>Fill 1</title><path d="M30.455 45.125c1.286-1.153 2.468-2.66 3.505-4.495 2.396-4.242 3.766-9.795 3.894-15.722h8.214c-.388 9.537-6.85 17.534-15.613 20.217zM1.933 24.908h8.213c.128 5.927 1.498 11.48 3.894 15.722 1.037 1.835 2.22 3.342 3.505 4.495C8.782 42.442 2.32 34.445 1.933 24.908zM17.545 2.875c-1.286 1.153-2.468 2.66-3.505 4.496-2.383 4.22-3.752 9.735-3.892 15.626H1.936c.427-9.494 6.875-17.447 15.61-20.12zm5.5 22.033v5.012c-2.23.426-3.922 2.39-3.922 4.74 0 2.86 2.908 5.665 3.92 6.555v4.61c-2.735-.407-5.312-2.55-7.338-6.136-2.238-3.963-3.52-9.182-3.646-14.782h10.984zm.906 14.547c-1.154-1.095-2.914-3.12-2.914-4.794 0-1.607 1.308-2.915 2.916-2.915 1.608 0 2.917 1.308 2.917 2.916 0 1.668-1.763 3.697-2.92 4.795zM13.22 14.582c1.114 2.203 3.214 3.972 3.53 4.23.175.144.39.216.605.216.214 0 .43-.072.605-.216.432-.354 4.223-3.55 4.223-6.812 0-2.663-2.166-4.83-4.828-4.83-.353 0-.697.04-1.028.112 1.92-2.968 4.254-4.74 6.717-5.106v20.82H12.06c.074-2.956.47-5.803 1.16-8.414zm4.135-5.498c1.608 0 2.916 1.308 2.916 2.916 0 1.667-1.76 3.696-2.916 4.793-1.156-1.095-2.916-3.12-2.916-4.793 0-1.608 1.31-2.916 2.917-2.916zm14.103 15.824h4.483c-.124 5.6-1.407 10.82-3.645 14.78-2.026 3.588-4.603 5.73-7.34 6.136V41.13c1.09-.973 3.826-3.696 3.826-6.47 0-2.317-1.642-4.258-3.824-4.722V2.176c2.736.406 5.313 2.548 7.34 6.135 2.224 3.94 3.505 9.123 3.643 14.686h-4.482c-.528 0-.956.428-.956.956s.428.956.956.956zm8.755-15.906c-1.245.875-2.062 2.32-2.062 3.954 0 3.263 3.792 6.458 4.225 6.812.176.144.39.216.605.216.215 0 .43-.072.606-.216.175-.144.904-.756 1.71-1.65.437 1.587.695 3.22.77 4.878H37.85c-.14-5.89-1.51-11.407-3.892-15.626-1.037-1.836-2.22-3.344-3.507-4.496 3.706 1.13 7.077 3.228 9.76 6.128zm5.683 3.954c0 1.667-1.76 3.696-2.917 4.793-1.156-1.096-2.916-3.12-2.916-4.794 0-1.608 1.308-2.916 2.916-2.916 1.608 0 2.916 1.308 2.916 2.916zm.822 3.29c.624-1.01 1.09-2.145 1.09-3.29 0-2.662-2.165-4.83-4.828-4.83-.31 0-.61.032-.905.088C37.51 2.99 30.95 0 24 0 17.59 0 11.562 2.496 7.03 7.03 2.495 11.56 0 17.59 0 24c0 6.41 2.496 12.438 7.03 16.97C11.56 45.505 17.59 48 24 48c6.41 0 12.438-2.496 16.97-7.03C45.505 36.44 48 30.41 48 24c0-2.657-.432-5.265-1.282-7.755z" fill="#FFCB3B" fill-rule="evenodd"/></svg>