<svg width="49" height="49" viewBox="0 0 49 49" xmlns="http://www.w3.org/2000/svg" xmlns:xlink="http://www.w3.org/1999/xlink"><title>Page 1</title><defs><path id="a" d="M0 48.593h48.202V.06H0z"/></defs><g fill="none" fill-rule="evenodd"><path d="M24.1 41.068c-9.182 0-16.627-7.496-16.627-16.742S14.918 7.584 24.1 7.584c9.184 0 16.63 7.496 16.63 16.742S33.283 41.068 24.1 41.068zm0-39.973c-12.74 0-23.07 10.4-23.07 23.23S11.36 47.558 24.1 47.558c12.743 0 23.073-10.4 23.073-23.23S36.843 1.094 24.1 1.094z" fill="#FFCD20"/><path d="M24.1 8.62c-4.166 0-8.083 1.634-11.03 4.6-2.945 2.967-4.568 6.91-4.568 11.106 0 4.195 1.623 8.14 4.57 11.106 2.945 2.966 6.862 4.6 11.03 4.6 4.165 0 8.083-1.634 11.03-4.6 2.945-2.966 4.568-6.91 4.568-11.106 0-4.195-1.623-8.14-4.57-11.106-2.945-2.966-6.863-4.6-11.03-4.6m0 33.484c-4.715 0-9.15-1.85-12.484-5.207-3.335-3.358-5.172-7.822-5.172-12.57 0-4.75 1.837-9.214 5.172-12.572 3.335-3.358 7.77-5.207 12.485-5.207 4.717 0 9.15 1.85 12.486 5.207 3.335 3.358 5.172 7.822 5.172 12.57 0 4.75-1.837 9.214-5.172 12.572-3.335 3.358-7.77 5.207-12.485 5.207m0-39.973c-2.975 0-5.862.588-8.58 1.745-2.624 1.118-4.98 2.718-7.006 4.757-2.025 2.04-3.614 4.412-4.724 7.055-1.15 2.736-1.732 5.642-1.732 8.64 0 2.996.583 5.902 1.732 8.638 1.11 2.643 2.7 5.016 4.724 7.055 2.025 2.04 4.382 3.64 7.007 4.757 2.718 1.157 5.605 1.744 8.58 1.744 2.977 0 5.864-.586 8.58-1.743 2.625-1.118 4.983-2.718 7.008-4.757 2.024-2.04 3.614-4.412 4.724-7.055 1.15-2.736 1.732-5.642 1.732-8.64 0-2.996-.583-5.902-1.732-8.638-1.11-2.643-2.7-5.016-4.724-7.055-2.025-2.04-4.383-3.64-7.007-4.757-2.716-1.157-5.603-1.744-8.58-1.744m0 46.463c-3.252 0-6.41-.642-9.38-1.908-2.87-1.222-5.448-2.972-7.66-5.2-2.214-2.228-3.952-4.823-5.166-7.713C.637 30.78 0 27.602 0 24.326s.637-6.454 1.894-9.446c1.214-2.89 2.952-5.485 5.165-7.713 2.212-2.23 4.79-3.978 7.66-5.2C17.69.7 20.847.06 24.1.06c3.254 0 6.41.64 9.382 1.907 2.87 1.222 5.448 2.97 7.66 5.2 2.214 2.228 3.95 4.823 5.165 7.713 1.257 2.992 1.895 6.17 1.895 9.446 0 3.275-.638 6.454-1.895 9.446-1.214 2.89-2.95 5.485-5.164 7.713-2.213 2.228-4.79 3.978-7.66 5.2-2.973 1.266-6.13 1.908-9.382 1.908" fill="#57585A"/><path d="M5.535 16.132c-.507-.26-.71-.882-.452-1.392 2.266-4.5 5.707-7.806 10.228-9.83.52-.234 1.13.002 1.36.525.23.522-.003 1.135-.522 1.367-4.078 1.826-7.184 4.812-9.23 8.875-.18.36-.543.568-.918.568-.157 0-.316-.037-.465-.113z" fill-opacity=".6" fill="#FEFEFE"/><mask id="b" fill="#fff"><use xlink:href="#a"/></mask><path d="M22.168 35.816h3.893v-3.778H22.17v3.778zm-2.332-22.034c1.105-.717 2.463-1.075 4.074-1.075 2.117 0 3.876.51 5.276 1.528s2.1 2.527 2.1 4.527c0 1.226-.303 2.258-.91 3.098-.355.51-1.037 1.16-2.046 1.952l-.995.778c-.542.425-.9.92-1.08 1.486-.11.358-.172.914-.18 1.67h-3.808c.056-1.595.205-2.696.448-3.304.243-.61.868-1.31 1.877-2.1l1.023-.808c.336-.254.607-.532.812-.834.374-.52.56-1.09.56-1.712 0-.717-.207-1.37-.623-1.96-.416-.59-1.175-.883-2.278-.883-1.084 0-1.853.363-2.306 1.09-.453.725-.68 1.48-.68 2.262h-4.06c.112-2.688 1.044-4.593 2.796-5.715z" fill="#FFCD20" mask="url(#b)"/><path d="M23.353 26.71h1.745c.038-.377.097-.69.177-.946.24-.768.72-1.438 1.43-1.992l.994-.778c1.148-.902 1.63-1.44 1.834-1.73l.01-.014c.48-.664.714-1.478.714-2.488 0-1.662-.548-2.868-1.674-3.687-1.215-.884-2.787-1.332-4.673-1.332-1.402 0-2.586.306-3.517.91l-.005.003c-1.226.786-1.958 2.037-2.22 3.805h2.01c.13-.61.374-1.205.73-1.777.45-.718 1.364-1.574 3.178-1.574 1.45 0 2.5.443 3.117 1.32.54.764.813 1.625.813 2.558 0 .838-.25 1.615-.748 2.31-.264.385-.61.74-1.026 1.058l-1.016.8c-1.127.886-1.46 1.428-1.556 1.672-.088.22-.228.733-.317 1.88zm3.738 2.07H21.2l.038-1.072c.062-1.755.228-2.915.522-3.653.315-.788 1.034-1.616 2.2-2.53l1.036-.818c.246-.186.44-.386.582-.593l.016-.022c.245-.34.364-.702.364-1.104 0-.5-.14-.946-.433-1.36-.26-.37-.927-.447-1.44-.447-.947 0-1.272.346-1.434.605-.35.563-.52 1.123-.52 1.712v1.036h-6.163l.045-1.08c.127-3.032 1.227-5.234 3.27-6.543 1.268-.822 2.825-1.24 4.63-1.24 2.326 0 4.304.58 5.877 1.725 1.676 1.22 2.526 3.025 2.526 5.367 0 1.44-.37 2.686-1.103 3.7-.42.598-1.155 1.307-2.25 2.167l-.996.778c-.377.295-.615.615-.73.98-.045.145-.124.518-.134 1.37l-.012 1.023zm-3.893 6h1.835v-1.706h-1.835v1.706zm-2.058 2.072h5.95v-5.85h-5.95v5.85z" fill="#57585A" mask="url(#b)"/></g></svg>