<svg width="250" height="236" viewBox="0 0 250 236" xmlns="http://www.w3.org/2000/svg" xmlns:xlink="http://www.w3.org/1999/xlink"><title>Page 1</title><defs><path id="a" d="M.35 179.082h159.837V.24H.35V179.08z"/></defs><g fill="none" fill-rule="evenodd"><path d="M201.938 106.867c-.57 2.377-1.21 4.746-1.924 7.097-8.413 30.353-35.255 54.093-66.117 59.26-1.866.31-3.747.56-5.64.747-1.895.19-3.8.317-5.718.38-7.667.252-15.494-.51-23.314-2.39-13.406-3.224-25.34-9.38-35.29-17.63-2.486-2.06-4.85-4.254-7.078-6.565-5.153-5.772-9.65-12.175-13.34-19.008-1.23-2.278-2.37-4.602-3.415-6.967-2.487-5.9-4.325-12.08-5.507-18.388-1.25-6.025-1.608-13.17-1.574-19.163.167-3.626.323-6.505.702-9.593.327-2.663.475-4.13 1.027-6.827 1.307-6.006 2.655-9.91 4.61-14.315 1.82-3.854 4.51-9.313 7.227-13.135 2.77-4.038 5.86-7.657 9.322-11.328 3.423-3.515 7.266-7.288 11.288-10.577 2.132-1.185 4.515-3.016 7.024-5.006 5.43-3.678 11.2-6.557 17.058-8.206 5.952-2.037 12.1-3.29 18.47-4.48 2.962.336 6.313-.704 9.473-.774 4.955.204 9.84 1.02 14.95.974 4.96.563 9.728 2.002 14.378 3.723 9.327 3.332 18.065 8.3 25.798 14.51 7.733 6.21 14.46 13.664 19.766 21.965 1.48 2.308 2.864 4.6 4.1 7.033 3.426 7.766 5.314 16.084 6.145 24.56.276 2.825.43 5.665.465 8.5.14 5.43-.763 11.07-1.393 16.78-.485 3.372-1.068 6.77-1.494 8.822" fill="#F6F3F1"/><path d="M81.434 96.595h4.82c1.387 0 2.4.17 3.034.507.634.338 1.06.844 1.28 1.52.217.675.326 1.578.326 2.71s-.1 2.036-.297 2.71c-.2.677-.536 1.153-1.012 1.43-.714.358-1.726.537-3.034.537h-5.116v4.825c0 1.39-.17 2.404-.506 3.04-.337.635-.843 1.062-1.517 1.28-.674.22-1.576.328-2.707.328-1.13 0-2.033-.11-2.707-.328-.675-.218-1.15-.586-1.428-1.102-.357-.754-.535-1.847-.535-3.277v-4.767h-5.177c-1.308 0-2.26-.16-2.856-.477-.594-.318-.99-.824-1.19-1.52-.198-.695-.297-1.598-.297-2.71 0-1.112.108-2.016.328-2.712.218-.693.605-1.18 1.16-1.458.754-.358 1.845-.537 3.273-.537h4.76V91.77c0-1.39.158-2.404.476-3.04.316-.634.822-1.062 1.516-1.28.693-.218 1.596-.328 2.707-.328 1.11 0 2.013.11 2.707.328.694.218 1.18.586 1.458 1.102.357.755.536 1.847.536 3.277v4.765z" fill="#BAC2E2"/><path d="M67.273 96.827c-1.388 0-2.455.173-3.174.513-.498.25-.84.682-1.04 1.32-.21.67-.316 1.558-.316 2.642 0 1.09.097 1.98.288 2.647.182.637.535 1.09 1.077 1.378.556.3 1.48.45 2.747.45h5.407v4.998c0 1.39.173 2.458.513 3.177.245.457.67.78 1.29.982.648.21 1.534.316 2.636.316s1.99-.105 2.636-.315c.62-.2 1.073-.583 1.384-1.17.318-.6.48-1.585.48-2.93v-5.057h5.347c1.268 0 2.254-.173 2.932-.512.414-.24.71-.665.893-1.29.19-.65.288-1.54.288-2.644 0-1.1-.106-1.987-.315-2.64-.202-.62-.584-1.074-1.17-1.386-.598-.318-1.582-.48-2.925-.48h-5.05V91.83c0-1.39-.173-2.46-.514-3.18-.242-.447-.688-.78-1.32-.98-.67-.21-1.557-.317-2.637-.317s-1.968.107-2.638.317c-.637.2-1.088.582-1.38 1.164-.3.6-.45 1.586-.45 2.935v5.057h-4.992zm9.43 18.887c-1.15 0-2.085-.114-2.778-.34-.73-.235-1.255-.643-1.56-1.212-.376-.792-.563-1.928-.563-3.386v-4.536h-4.945c-1.362 0-2.332-.164-2.965-.504-.65-.346-1.09-.905-1.304-1.66-.203-.708-.306-1.642-.306-2.774 0-1.13.114-2.066.338-2.78.236-.754.666-1.29 1.277-1.598.785-.372 1.92-.56 3.376-.56h4.53V91.77c0-1.442.162-2.47.5-3.143.344-.69.9-1.16 1.654-1.398.714-.226 1.648-.34 2.776-.34 1.127 0 2.06.114 2.776.34.75.235 1.286.643 1.592 1.212.375.794.563 1.93.563 3.387v4.534h4.588c1.44 0 2.467.174 3.143.533.686.366 1.154.922 1.39 1.653.226.7.34 1.635.34 2.782 0 1.148-.104 2.082-.308 2.776-.215.732-.59 1.26-1.117 1.565-.754.38-1.81.567-3.15.567h-4.885v4.595c0 1.44-.174 2.47-.533 3.147-.366.69-.92 1.157-1.65 1.393-.694.225-1.628.34-2.78.34zM201.097 188.41h4.62c1.332 0 2.302.164 2.91.49.61.327 1.018.817 1.228 1.47.208.654.314 1.528.314 2.624 0 1.095-.097 1.97-.287 2.623-.19.654-.513 1.116-.97 1.384-.684.347-1.654.52-2.91.52h-4.906v4.67c0 1.347-.162 2.327-.485 2.94-.324.617-.81 1.03-1.455 1.24-.647.213-1.512.318-2.596.318-1.083 0-1.948-.105-2.595-.317-.647-.21-1.103-.566-1.37-1.066-.34-.73-.512-1.787-.512-3.17v-4.614h-4.964c-1.256 0-2.17-.153-2.74-.46-.57-.308-.95-.798-1.14-1.472-.192-.67-.286-1.547-.286-2.623 0-1.076.104-1.95.314-2.624.208-.67.58-1.142 1.112-1.41.722-.347 1.77-.52 3.138-.52h4.565v-4.67c0-1.346.15-2.326.456-2.94.303-.615.788-1.03 1.454-1.24.665-.212 1.53-.318 2.596-.318 1.064 0 1.93.106 2.596.317.665.21 1.13.567 1.398 1.066.34.73.513 1.787.513 3.17v4.614z" fill="#BAC2E2"/><path d="M187.518 188.64c-1.328 0-2.35.168-3.038.498-.475.24-.8.656-.992 1.272-.2.647-.303 1.506-.303 2.555 0 1.052.093 1.913.277 2.56.173.616.51 1.05 1.028 1.33.533.288 1.417.433 2.63.433h5.193v4.845c0 1.344.166 2.378.492 3.073.234.44.638.752 1.232.945.62.204 1.468.307 2.524.307s1.905-.103 2.525-.306c.592-.192 1.025-.56 1.323-1.127.304-.578.458-1.53.458-2.832v-4.902h5.138c1.212 0 2.156-.166 2.805-.493.393-.233.676-.64.85-1.242.184-.63.278-1.492.278-2.56 0-1.062-.102-1.92-.304-2.552-.192-.598-.557-1.036-1.115-1.336-.574-.307-1.516-.463-2.8-.463h-4.854v-4.843c0-1.342-.166-2.376-.492-3.073-.234-.437-.648-.75-1.258-.944-.642-.204-1.492-.307-2.526-.307-1.035 0-1.886.103-2.526.307-.61.193-1.04.56-1.318 1.12-.287.58-.433 1.535-.433 2.84v4.9h-4.795zm9.043 18.28c-1.103 0-2-.11-2.666-.33-.703-.228-1.208-.625-1.502-1.177-.36-.767-.54-1.867-.54-3.28v-4.382h-4.733c-1.308 0-2.24-.158-2.85-.487-.625-.337-1.047-.88-1.253-1.612-.195-.687-.294-1.59-.294-2.685 0-1.096.11-2.002.324-2.693.227-.73.64-1.252 1.23-1.55.754-.36 1.843-.544 3.24-.544h4.334v-4.44c0-1.394.158-2.39.482-3.042.332-.67.868-1.127 1.592-1.357.686-.22 1.583-.33 2.666-.33 1.08 0 1.978.11 2.665.33.722.228 1.237.625 1.532 1.177.36.77.54 1.87.54 3.28v4.38h4.392c1.38 0 2.367.17 3.017.52.66.354 1.11.894 1.338 1.603.215.677.325 1.583.325 2.694 0 1.11-.1 2.015-.295 2.688-.207.71-.57 1.22-1.075 1.52-.727.366-1.74.55-3.026.55h-4.676v4.44c0 1.395-.168 2.392-.512 3.047-.35.667-.885 1.122-1.587 1.35-.668.22-1.565.33-2.67.33z" fill="#BAC2E2"/><path d="M164.13 233.818c.023-.1-1.047-.034-2.79-.67-1.95.22-4.32-1.32-7.57-1.82-3.31-.253-6.964-1.714-11.156-2.682l-6.55-1.575c-2.385-.044-4.716-.647-6.997-1.68-4.047-1.2-8.248-2.397-12.608-3.032-2.144-.468-4.276-1.007-6.398-1.542-2.12-.534-4.233-1.065-6.336-1.518-2.083-.535-4.248-.615-6.178-1.486-2.023-.49-4.028-.863-5.928-1.424-5.115-1.295-9.673-3.107-13.865-3.334-2.004-.494-3.856-.848-5.484-1.19-1.626-.344-3.03-.675-4.142-1.124-2.268-.708-3.547-1.11-3.606-.866-2.49-.52-4.69-1.582-6.346-3.483-1.7-1.713-2.803-4.495-3.68-6.012-.568-2.807-.767-4.953-.218-7.244.01-.047.176-.735.478-1.992l1.332-5.558.975-4.067 1.06-4.427 1.245-5.187 1.346-5.613 1.454-6.07 1.537-6.41 2.3-9.59 1.22-5.093c.402-1.674.79-3.3 1.152-4.805l1.197-4.992 1.194-4.982c.71-2.955 1.612-6.724 2.355-9.822l2.263-9.438c.81-3.386 1.41-5.88 2.116-8.828.67-2.802 1.286-5.37 1.914-7.987l1.315-5.484 1.135-4.73c.64-2.675 1.222-5.098 1.62-6.76l.586-2.446c.595-2.477 1.885-4.882 3.48-6.355 1.703-1.935 3.68-2.798 6.004-3.686 2.32-.863 4.772-.854 7.234-.218.064-.27.92.557 2.79.67 1.857.158 4.384 1.043 7.57 1.82l5.203 1.25c1.88.4 3.873.88 5.953 1.432 3.577 1.23 7.736 1.373 11.763 2.828 2.082.442 4.206.897 6.346 1.398 2.138.515 4.358.8 6.447 1.677 2.252.193 4.317 1.207 6.53 1.57 2.114.786 4.338 1.077 6.49 1.56 2.18.368 4.312.835 6.39 1.35 2.05.62 4.1 1.072 6.06 1.644 2.024.303 3.885 1.037 5.752 1.417 1.803.65 3.58 1.085 5.325 1.247 1.775.04 3.278.815 4.773 1.147 1.52.227 2.846.8 4.13.993 2.606.233 4.54 1.08 5.93 1.425 1.358.473 2.076.844 2.154.518 2.48.558 4.71 1.495 6.346 3.482 1.756 1.49 3.053 3.457 3.68 6.014.695 2.282.812 4.77.218 7.243l-2.207 9.206-2.447 10.212-3.07 12.802c-.59 2.467-1.023 4.27-1.702 7.102-.583 2.44-1.208 5.046-1.78 7.426l-1.745 7.286-1.944 8.105-1.877 7.834c-.615 2.567-1.22 5.087-1.81 7.557-.64 2.66-1.19 4.958-1.74 7.258l-1.744 7.27c-.585 2.435-1.03 4.292-1.6 6.672l-1.47 6.13-1.29 5.38-1.158 4.833-.926 3.86-.695 2.9c-.3 1.26-.385 1.61-.585 2.447-.26 1.08-.765 2.447-1.363 3.55-.642 1.288-1.306 2.02-2.114 2.805-.788.698-1.727 1.478-2.723 2.035-1.074.887-1.98.623-3.283 1.65-1.102.192-2.228.127-3.543.585-1.225.082-2.452-.084-3.69-.367" fill="#FFCC21"/><g transform="translate(52.218 56.512)"><mask id="b" fill="#fff"><use xlink:href="#a"/></mask><path d="M112.403 175.993c1.126.246 2.068.343 2.935.305.95-.305 1.792-.384 2.54-.455.25-.024.49-.047.72-.076.728-.508 1.362-.717 1.884-.89.447-.148.743-.245 1.063-.51.065-.053.133-.1.206-.14.9-.505 1.784-1.247 2.457-1.844.658-.638 1.25-1.266 1.817-2.406l.02-.042c.514-.945.986-2.175 1.235-3.212l29.792-124.28c.515-2.148.448-4.4-.196-6.515l-.02-.073c-.524-2.134-1.61-3.912-3.23-5.286-.063-.054-.12-.113-.173-.177-1.148-1.395-2.73-2.297-5.085-2.892-.58.138-1.175-.082-1.996-.387-.222-.082-.47-.175-.75-.272-.418-.106-.866-.248-1.34-.397-1.158-.367-2.6-.823-4.313-.976-.028-.002-.055-.005-.082-.01-.706-.104-1.398-.303-2.068-.496-.668-.19-1.36-.39-2.062-.495-.032-.005-.064-.01-.096-.018-.587-.13-1.156-.315-1.706-.494-.95-.308-1.846-.6-2.798-.62-.033 0-.065-.003-.097-.006-1.78-.166-3.605-.588-5.57-1.29-.817-.17-1.624-.4-2.407-.622-1.034-.295-2.104-.6-3.176-.76-.062-.01-.123-.023-.183-.04-.884-.258-1.776-.49-2.72-.732-1.08-.28-2.2-.567-3.32-.905-2.258-.56-4.304-.992-6.252-1.32l-.074-.014c-.603-.136-1.21-.256-1.82-.377-1.55-.305-3.148-.62-4.722-1.19-1.02-.18-1.985-.472-2.92-.755-1.162-.353-2.26-.685-3.373-.78-.143-.012-.285-.047-.418-.103-1.37-.576-2.82-.877-4.353-1.196-.63-.13-1.26-.263-1.882-.412-2.115-.496-4.19-.94-6.31-1.39-.062-.014-.123-.032-.183-.053-2.02-.73-4.127-1.123-6.166-1.502-1.932-.36-3.757-.7-5.528-1.303-2.004-.532-3.968-1.004-5.837-1.402l-5.24-1.26c-1.13-.275-2.19-.567-3.126-.825-1.692-.466-3.153-.87-4.24-.96-1.275-.078-2.174-.445-2.686-.666-.11 0-.222-.016-.33-.044-2.325-.6-4.48-.542-6.405.175-2.165.826-3.948 1.598-5.45 3.302-.032.036-.065.07-.1.102-1.356 1.254-2.532 3.422-3.07 5.66L3.41 136.946c-.49 2.042-.298 3.986.185 6.428.218.392.442.837.678 1.304.704 1.39 1.578 3.12 2.67 4.22.022.022.043.044.062.067 1.268 1.454 2.97 2.422 5.192 2.948.655-.097 1.606.2 4.044.96l.085.028c.035.01.07.023.106.038.98.397 2.27.707 3.908 1.052l1.204.25c1.266.26 2.698.554 4.202.922 2.99.182 6.087 1.097 9.363 2.064 1.497.442 3.045.9 4.635 1.3l.052.016c1.2.354 2.44.63 3.755.924.696.156 1.4.312 2.105.483.084.02.165.05.244.084 1.075.486 2.29.7 3.58.925.762.133 1.552.272 2.345.474 2.15.464 4.29 1.003 6.358 1.524l.114.03c2.028.51 4.125 1.04 6.193 1.492 4.403.645 8.545 1.818 12.753 3.066.06.018.12.04.178.066 2.194.995 4.365 1.52 6.453 1.56.1 0 .2.014.297.037l6.55 1.574c1.57.362 3.052.79 4.486 1.202 2.315.667 4.502 1.296 6.45 1.445l.106.013c1.593.246 2.953.71 4.154 1.117 1.23.42 2.297.78 3.05.696.212-.025.43 0 .63.075 1.016.372 1.764.47 2.165.52.192.027.42.056.643.143m2.558 3.09c-1.02 0-2.107-.138-3.358-.424-.058-.014-.115-.032-.17-.052-.01 0-.02-.002-.028-.003-.436-.057-1.31-.17-2.47-.565-1.257.05-2.553-.388-3.91-.85-1.132-.386-2.302-.784-3.634-.995-2.214-.177-4.515-.84-6.95-1.54-1.4-.404-2.846-.82-4.356-1.17l-6.418-1.54c-2.39-.07-4.844-.662-7.3-1.763-4.092-1.213-8.116-2.35-12.324-2.962-.033-.005-.065-.01-.096-.017-2.127-.465-4.26-1.003-6.325-1.524l-.114-.03c-2.053-.517-4.177-1.052-6.29-1.508-.017-.003-.035-.007-.052-.012-.7-.18-1.41-.304-2.163-.436-1.358-.238-2.76-.484-4.116-1.073-.65-.155-1.296-.3-1.938-.442-1.292-.288-2.628-.586-3.91-.964-1.633-.413-3.2-.876-4.713-1.323-3.165-.933-6.155-1.815-8.86-1.96-.087-.006-.173-.02-.257-.04-1.497-.37-2.944-.666-4.222-.93-.417-.084-.823-.168-1.216-.25-1.755-.37-3.165-.712-4.323-1.173l-.033-.01c-1.118-.35-2.27-.71-2.774-.818-.196.048-.406.054-.616.01-2.97-.618-5.353-1.93-7.08-3.895-1.385-1.41-2.36-3.34-3.145-4.893-.26-.514-.505-1-.72-1.37-.075-.132-.13-.273-.16-.42-.572-2.835-.826-5.253-.205-7.844l29.793-124.28c.66-2.757 2.092-5.368 3.832-7.003 1.907-2.138 4.075-3.082 6.505-4.01 2.368-.882 4.95-1 7.69-.36.42-.028.782.13 1.05.247.388.168.974.423 1.86.476 1.374.116 2.95.55 4.773 1.053.96.266 1.955.54 3.042.805l5.2 1.25c1.893.403 3.918.89 5.984 1.44.032.007.064.017.094.028 1.593.547 3.337.87 5.183 1.215 2.12.394 4.31.802 6.51 1.587 2.102.447 4.165.89 6.283 1.385.603.145 1.204.27 1.806.395 1.53.318 3.108.647 4.66 1.27 1.32.14 2.54.51 3.722.87.932.28 1.81.548 2.7.694.087.013.174.036.257.067 1.405.522 2.868.81 4.418 1.116.62.123 1.24.246 1.855.383 2.018.34 4.13.788 6.456 1.365l.067.02c1.08.325 2.18.61 3.246.884.894.23 1.818.47 2.715.73 1.214.188 2.34.51 3.432.82.798.227 1.553.442 2.298.594.066.013.13.03.193.054 1.738.626 3.4 1.018 4.94 1.166 1.337.04 2.505.42 3.538.754.496.16.964.313 1.408.414.864.134 1.662.363 2.368.566.595.172 1.16.334 1.673.414 1.994.183 3.58.685 4.858 1.09.474.15.884.28 1.238.367.04.01.08.022.12.035.32.112.607.218.86.31.157.06.335.126.483.178.21-.056.434-.063.66-.013 2.007.452 4.907 1.342 7.032 3.858 2.014 1.74 3.368 3.97 4.028 6.625.776 2.576.855 5.32.228 7.936l-29.793 124.28c-.3 1.25-.866 2.73-1.48 3.868-.767 1.53-1.597 2.4-2.38 3.16-.016.016-.03.03-.047.044-.756.67-1.76 1.515-2.86 2.15-.685.534-1.333.75-1.858.922-.486.16-.87.288-1.35.665-.18.14-.392.236-.62.275-.426.075-.84.114-1.24.152-.706.066-1.372.13-2.083.377-.117.04-.24.066-.364.074-.24.016-.485.024-.732.024" fill="#4B5170" mask="url(#b)"/></g><path d="M88.715 153.653c-.163.68-11.752-2.312-11.635-2.797l2.793-11.652c.05-.203 11.612 2.892 11.635 2.797.363-1.51-2.608 10.882-2.793 11.653" fill="#FFF"/><path d="M90.196 141.554h.004l.026-.08-.03.08zm-11.508 8.542c2.008.682 6.876 1.92 8.925 2.21l2.22-9.267c-.686-.167-1.61-.403-2.868-.724-1.81-.46-4.52-1.152-6.05-1.51l-2.227 9.29zm9.684 5.04c-.742 0-2.32-.197-6.012-1.122-5.437-1.362-5.994-1.89-6.203-2.09-.387-.368-.546-.89-.425-1.393l2.793-11.65c.087-.36.318-.678.637-.87.64-.386.64-.385 8.487 1.616 1.337.34 2.81.717 3.564.898.455-.11.937.017 1.28.342.496.472.448 1.04.39 1.334h.002c0 .006-.01.038-.022.093l-.007.032c0 .005-.003.01-.004.014l-2.79 11.637c-.124.517-.516.92-1.05 1.08-.113.032-.275.08-.64.08z" fill="#4B5170"/><path d="M105.943 157.794c.06-.247-11.664-2.678-11.635-2.797l2.793-11.65c.148-.615 11.642 2.77 11.636 2.795l-2.793 11.652" fill="#FFF"/><path d="M98.45 143.67v.002zm-.002.004zm-2.473 10.318c.803.184 1.89.427 2.9.652 3.044.678 4.904 1.092 6.066 1.385l2.144-8.94c-2.272-.665-6.888-1.94-8.898-2.32-.517 2.154-1.653 6.89-2.21 9.222zm8.62 3.48v-.001zm-.008.032c-.008.042-.016.084-.02.125.005-.042.012-.084.02-.126zm1.45 1.73c-.128 0-.27-.017-.426-.054-.177-.043-.338-.12-.478-.224-1.005-.298-4.626-1.104-6.86-1.602-4.796-1.07-4.796-1.07-5.14-1.62-.196-.315-.26-.698-.173-1.06l2.682-11.188c.03-.123.058-.243.09-.358.006-.035.012-.07.02-.107l.01.003-.01-.002c.39-1.62 2.123-1.206 4.744-.58 1.846.44 4.08 1.054 5.63 1.492.862.244 1.614.462 2.15.62.99.292 2.114.622 1.81 1.91l-2.555 10.656c-.065.274-.13.545-.206.797-.006.068-.017.136-.033.202l-.03-.006-.01.033.033.01-.034-.01c-.225.63-.554 1.092-1.213 1.092z" fill="#4B5170"/><path d="M123.17 161.935c-.494 2.065-11.443-3.592-11.634-2.796l2.793-11.653c.12-.51 11.842 1.93 11.634 2.797.098-.41-2.81 11.726-2.793 11.65" fill="#FFF"/><path d="M124.617 149.96v0zm-11.733 9.503l-.004.015c0-.005.002-.01.004-.015zm.348-1.45c.636.212 1.46.53 2.57.96 1.633.636 4.84 1.882 6.17 2.025l1.25-5.216c.45-1.887.903-3.774 1.167-4.872-1.877-.685-6.842-1.784-8.965-2.048-.24 1.008-.622 2.595-1.016 4.238l-1.178 4.912zm8.632 3.472c-.016.04-.03.082-.04.126l.02.006.02-.13zm.397 2.293c-1.472 0-3.72-.76-7.462-2.216-1.07-.416-2.368-.92-2.942-1.072-.205.048-.425.05-.645-.002-.743-.18-1.2-.928-1.022-1.674v-.003c.03-.12.8-3.333 1.525-6.36l1.17-4.878c.022-.09.045-.178.07-.26.007-.05.016-.1.028-.15h.003-.002c.07-.28.216-.526.42-.716.27-.303.613-.434 1.035-.387 2.39-.067 11.193 1.9 12.406 3.053.42.4.598.954.475 1.485l-2.795 11.657v.005c-.13.538-.476.98-.976 1.24-.354.187-.772.278-1.283.278z" fill="#4B5170"/><path d="M84.79 170.027c-.163.68-11.752-2.312-11.636-2.797l2.793-11.65c.05-.205 11.613 2.89 11.636 2.796l-2.793 11.65" fill="#FFF"/><path d="M74.762 166.47c2.008.683 6.877 1.92 8.925 2.21l1.22-5.092 1.002-4.174c-.69-.166-1.612-.402-2.872-.723-1.81-.46-4.52-1.15-6.05-1.508l-2.226 9.29zm8.68 3.233zm.848 1.804c-1.125 0-2.775-.374-5.022-.914-6.636-1.595-7.822-2.18-7.462-3.686l2.793-11.652c.086-.36.317-.677.635-.87.64-.386.642-.385 8.487 1.615 1.35.344 2.838.724 3.585.903.34-.072.624-.006.63-.005 1.01.243 1.078 1.078 1.003 1.672l.02.005-.03.125c-.008.035-.017.07-.028.103-.02.1-.04.184-.055.25l-2.71 11.298v.002c-.198.827-.794 1.155-1.847 1.155z" fill="#4B5170"/><path d="M102.018 174.17c.06-.25-11.664-2.68-11.636-2.798.14-.577 2.903-12.11 2.793-11.652.148-.613 11.642 2.773 11.636 2.797l-2.792 11.652" fill="#FFF"/><path d="M94.523 160.046zm-2.79 11.643l-.002.005.002-.006zm.316-1.324c.803.186 1.893.428 2.905.653 3.04.677 4.9 1.09 6.06 1.383l2.143-8.94c-2.272-.663-6.888-1.938-8.898-2.32l-2.21 9.223zm8.612 3.513c-.01.047-.018.094-.023.14.005-.047.012-.094.022-.14zm1.347 1.713c-.292 0-.578-.092-.816-.266-1.024-.3-4.62-1.102-6.84-1.597-4.804-1.07-4.804-1.07-5.148-1.623-.197-.316-.258-.7-.17-1.063l2.68-11.183c.03-.122.058-.242.09-.357.006-.036.013-.07.022-.107l.007.002-.007-.002c.39-1.625 2.147-1.203 4.81-.565 1.846.443 4.063 1.053 5.597 1.487.852.24 1.596.456 2.126.613.988.29 2.107.62 1.8 1.91l-2.688 11.21c-.028.12-.056.234-.086.345-.006.033-.012.065-.02.097l-.008-.002-.01.034.01.003-.01-.002c-.143.464-.364.838-.945 1.01-.13.04-.262.058-.394.058z" fill="#4B5170"/><path d="M140.022 165.986c.06-.247-11.664-2.678-11.635-2.797l2.793-11.652c.147-.614 11.64 2.772 11.635 2.797l-2.793 11.65" fill="#FFF"/><path d="M132.528 151.864zm-2.474 10.32c.803.185 1.89.427 2.9.652 3.044.678 4.905 1.092 6.066 1.385l2.143-8.938c-2.273-.664-6.89-1.94-8.898-2.32l-.025.102-2.186 9.12zm8.613 3.51l.022.005c0-.012.002-.022.004-.033l-.02-.004-.007.03zm0 0c-.05.24-.036.468.024.67-.037-.22-.028-.453 0-.665l-.023-.006zM140 167.41c-.103 0-.207-.013-.31-.038-.23-.055-.41-.14-.552-.245-1.098-.314-4.603-1.094-6.786-1.58-4.797-1.07-4.797-1.07-5.14-1.62-.197-.316-.26-.7-.174-1.06.108-.452 1.81-7.554 2.506-10.45.085-.354.163-.684.253-.978.006-.076.017-.15.035-.226h.008-.008c.106-.44.31-.728.606-.905.148-.11.325-.177.54-.19.848-.147 2.1.153 3.664.528 1.846.442 4.062 1.052 5.597 1.486.85.24 1.595.457 2.126.613.987.29 2.105.62 1.798 1.91l-1.278 5.33-1.512 6.31-.003.013c0 .005 0 .01-.002.012l-.005.02c-.166.625-.74 1.067-1.363 1.067z" fill="#4B5170"/><path d="M136.097 182.36c.06-.246-11.664-2.677-11.635-2.796l2.793-11.65c.147-.615 11.64 2.77 11.635 2.795l-2.793 11.65" fill="#FFF"/><path d="M128.602 168.24zm-2.474 10.32c.804.184 1.893.426 2.904.65 3.042.68 4.9 1.093 6.063 1.385l2.142-8.94c-2.27-.663-6.888-1.938-8.898-2.32l-2.212 9.224zm8.613 3.51l-.02.12.02-.12zm1.46 1.733c-.132 0-.275-.018-.435-.056-.18-.043-.34-.12-.48-.224-1.004-.298-4.622-1.104-6.855-1.602-4.8-1.067-4.8-1.067-5.144-1.618-.196-.315-.26-.698-.173-1.06l2.682-11.19c.03-.122.058-.24.09-.357.006-.035.013-.07.022-.107l.007.002-.007-.002c.388-1.62 2.12-1.207 4.743-.58 1.846.44 4.08 1.054 5.63 1.492.86.243 1.614.46 2.15.62.99.29 2.113.622 1.81 1.91l-2.548 10.624c-.07.29-.137.57-.214.828-.006.068-.017.136-.033.203l-.03-.007-.01.032.032.01-.034-.01c-.225.642-.55 1.093-1.203 1.093z" fill="#4B5170"/><path d="M165.208 172.04c.06-.246-11.664-2.677-11.635-2.796l2.793-11.652c.147-.613 11.64 2.773 11.635 2.797-.148.625-2.976 12.42-2.792 11.65" fill="#FFF"/><path d="M157.658 158.092v.006c.022-.057.04-.118.056-.182-.015.06-.034.12-.056.176zm-2.418 10.147c.804.183 1.892.426 2.904.65 3.042.68 4.9 1.093 6.062 1.385l.725-3.025 1.42-5.914c-2.273-.664-6.89-1.94-8.9-2.32l-2.21 9.223zm8.62 3.477c0 .003 0 .006-.002.008 0-.003 0-.006.002-.008zm-.007.033c-.01.042-.016.084-.022.125.007-.04.014-.083.023-.125zm1.39 1.722c-.134 0-.26-.02-.367-.046-.178-.043-.34-.12-.48-.223-1.004-.298-4.622-1.104-6.854-1.602-4.8-1.068-4.8-1.068-5.144-1.62-.197-.314-.26-.697-.173-1.06l.763-3.184 2.027-8.456.003-.012c.39-1.62 2.12-1.207 4.744-.582 1.846.44 4.08 1.055 5.63 1.493.86.242 1.613.46 2.15.62.99.29 2.113.62 1.81 1.908l-2.717 11.328c-.017.072-.035.14-.055.205-.006.043-.014.083-.024.124l-.014-.003-.012.033.018.005-.018-.004c-.31.87-.846 1.078-1.286 1.078z" fill="#4B5170"/><path d="M153.81 219.59c.06-.247-11.665-2.678-11.636-2.797l10.267-42.826c.148-.614 11.642 2.772 11.636 2.797-.15.626-10.45 43.595-10.267 42.826" fill="#FFF"/><path d="M143.524 217.11c0 .003 0 .005-.002.007l.002-.006zm.317-1.322c.806.185 1.894.428 2.906.653 3.04.678 4.9 1.093 6.06 1.385l9.617-40.114c-2.272-.663-6.887-1.94-8.898-2.32l-9.684 40.398zm8.62 3.48zm0 .007c-.023.096-.034.19-.037.283.003-.095.015-.19.036-.283zm1.347 1.713c-.262 0-.52-.074-.743-.216-.902-.28-4.636-1.112-6.92-1.62-4.803-1.07-4.803-1.07-5.146-1.623-.197-.317-.26-.702-.17-1.064l10.152-42.352c.03-.127.06-.25.092-.365.006-.037.012-.072.02-.107l.01.002-.01-.002c.39-1.62 2.122-1.208 4.743-.582 1.847.442 4.082 1.056 5.63 1.494.862.243 1.614.46 2.15.62.992.29 2.114.622 1.81 1.91l-5.19 21.655-4.966 20.71c-.03.126-.06.247-.092.362l-.02.102-.01-.002c0 .003 0 .006-.002.008l.01.003-.01-.002c-.143.474-.36.837-.945 1.01-.128.04-.26.058-.393.058z" fill="#4B5170"/><path d="M119.246 178.31c-.495 2.064-11.445-3.593-11.636-2.797l2.793-11.65c.123-.512 11.844 1.93 11.636 2.796.097-.41-2.812 11.725-2.794 11.65" fill="#FFF"/><path d="M111.714 164.3c0 .01-.002.016-.003.023.016-.044.03-.09.04-.138-.01.04-.022.078-.036.116zm8.977 2.034v0zm0 .003zm0 .003zm-11.732 9.5zm.348-1.453c.636.213 1.46.53 2.57.96 1.634.637 4.84 1.883 6.17 2.025l.864-3.61 1.553-6.477c-1.876-.685-6.84-1.784-8.963-2.048l-.972 4.053-1.222 5.097zm8.626 3.49c-.014.034-.025.07-.034.11l.016.003c.005-.037.01-.075.018-.113zm.403 2.276c-1.473 0-3.72-.762-7.463-2.217-1.07-.415-2.367-.92-2.94-1.072-.206.05-.425.05-.644 0-.744-.18-1.203-.927-1.026-1.673v-.002l1.57-6.547c.588-2.452 1.137-4.738 1.22-5.09l.003-.012c0-.004.002-.008.003-.01l.006-.025c.065-.243.19-.46.363-.634.17-.177.385-.307.618-.377l.028-.01c.032-.007.067-.015.106-.022.076-.014.153-.02.23-.022 2.23-.113 11.275 1.88 12.505 3.05.422.4.598.957.473 1.49v.005c-.015.056-.033.11-.053.164-.032.186-.074.363-.112.518l-1.616 6.744-1.012 4.22v.004c-.13.54-.476.98-.977 1.242-.354.186-.77.277-1.283.277z" fill="#4B5170"/><path d="M81.124 185.318c.083-.344-11.815-2.048-11.635-2.797-.085.348 2.836-11.835 2.792-11.65-.178.742 11.72 2.44 11.635 2.797.12-.496-2.932 12.23-2.793 11.65" fill="#FFF"/><path d="M73.643 171.134l-.013.06c.005-.02.01-.04.013-.06zm8.926 2.21c-.002.002-.002.005-.003.008 0-.003 0-.006.002-.01zm-11.732 9.495zm0 0zm0 .002v0zm.26-1.084c1.446.39 4.37.94 6.1 1.265 1.292.243 2.23.42 2.916.562l.325-1.356c.575-2.406 1.383-5.774 1.82-7.6-.8-.166-1.91-.374-2.873-.555-3.097-.582-4.97-.963-6.142-1.275l-1.132 4.718-1.016 4.24zm8.674 3.254l.028.007c0-.007 0-.013.002-.02l-.026-.006-.004.018zm0 0c-.06.262-.04.507.03.722-.042-.225-.034-.47-.002-.715l-.028-.008zm1.34 1.713c-.104 0-.21-.012-.316-.038-.217-.052-.39-.128-.53-.222-.66-.165-2.258-.465-3.58-.713-7.06-1.327-7.837-1.62-8.345-2.406-.22-.343-.293-.746-.202-1.138v-.006h.002v-.004l.002-.006 1.275-5.322 1.384-5.77c.027-.108.06-.243.104-.39.007-.055.017-.11.03-.164l.023.005c.212-.596.644-1.273 1.648-1.032.276.066.512.21.69.403.998.373 4.472 1.026 6.603 1.426 3.03.57 4.143.78 4.68 1.07.397.177.587.466.655.81.078.243.092.506.035.754l-.002.006v.005c-.017.064-.036.124-.06.182-.04.236-.098.476-.155.71l-2.577 10.756v.004l-.002.004-.002.014c-.16.63-.73 1.065-1.356 1.065z" fill="#4B5170"/><path d="M98.352 189.46c.105-.44-11.636-2.795-11.635-2.797l2.793-11.652c.162-.674 11.57 3.07 11.635 2.798l-2.793 11.652" fill="#FFF"/><path d="M90.815 175.47l-.002.015c.017-.048.032-.098.045-.15-.013.047-.026.093-.043.136m9.494 1.232c-.233.173-.43.432-.513.782l.023.005c.097-.27.25-.572.49-.788M88.4 185.59c4.805.987 7.464 1.6 8.968 2.026l2.097-8.745c-.627-.17-1.457-.41-2.578-.73-1.772-.512-4.77-1.375-6.294-1.697l-1.013 4.224-1.18 4.923m9.92 5.348c-.11 0-.218-.013-.313-.036-.284-.068-.525-.22-.706-.422-1.114-.357-4.642-1.192-10.688-2.422-.073-.005-.148-.017-.222-.035-.594-.143-.863-.482-.968-.866-.137-.382-.07-.738-.065-.767l.027.005.006-.043-.023-.006c.013-.053.028-.105.047-.155.027-.15.06-.288.086-.397l1.384-5.774 1.276-5.323c0-.003 0-.007.002-.01v-.004l.002-.004.003-.013c.065-.254.196-.477.372-.652.092-.098.198-.184.31-.25.786-.458 1.63-.362 8.804 1.706 1.276.368 2.832.816 3.394.94.13-.005.267.01.42.048.358.086.667.31.86.624.19.314.25.693.165 1.05v.002l-2.79 11.64-.003.01-.002.01c-.012.048-.02.075-.02.08-.232.8-.85 1.064-1.357 1.064" fill="#4B5170"/><path d="M115.58 193.6c.032-.134-11.955-1.462-11.635-2.796l2.793-11.65c.09-.38 11.82 2.028 11.635 2.796l-2.793 11.65" fill="#FFF"/><path d="M117.026 181.626l.01.002-.01-.002zm-11.534 8.672c1.195.428 4.063.978 8.554 1.64l.49.072 1.068-4.455 1.18-4.923c-1.905-.64-6.8-1.724-8.965-2.04-.315 1.307-.855 3.563-1.356 5.653l-.972 4.053zm10.15 4.704c-.12 0-.247-.014-.385-.048-.052-.012-.102-.027-.15-.045-.252-.046-.867-.137-1.465-.226-8.404-1.238-10.123-1.894-10.8-2.894-.266-.395-.353-.86-.245-1.31l1.17-4.883c.75-3.128 1.59-6.628 1.622-6.767.344-1.435 1.652-1.2 4.028-.778 1.5.267 3.347.655 4.943 1.04 3.784.91 5.75 1.465 5.368 3.153 0 .002 0 .006-.003.014l-.003.01v.003c0 .005-.002.01-.004.014-.09.38-.758 3.164-1.418 5.915l-1.255 5.237c-.02.083-.048.2-.09.332-.005.05-.015.1-.027.15l-.02-.004.02.005v.003l-.022-.005c-.176.487-.527 1.082-1.265 1.082z" fill="#4B5170"/><path d="M77.416 200.785c.04-.165-11.67-2.657-11.635-2.797l2.794-11.65c-.073.303 11.534 3.216 11.635 2.796l-2.794 11.65" fill="#FFF"/><path d="M69.924 186.656c.04-.167.046-.327.028-.476.018.155.01.316-.028.476zm0 0c0 .002 0 .003-.002.004v-.003zm9.374 1.437c-.195.167-.362.404-.436.717l.02.005c.086-.242.216-.512.416-.722zM67.443 197c1.074.256 2.695.623 4.094.94 2.34.53 3.862.874 4.866 1.123l1.104-4.605.982-4.097c-.952-.173-2.378-.484-4.557-1.02-2.094-.516-3.465-.886-4.375-1.16l-1.316 5.487-.8 3.333zm8.625 3.462c-.038.16-.047.31-.032.456-.015-.15-.005-.302.032-.456zm2.674.64l.023.006-.023-.005zm-1.26 1.085c-.12 0-.25-.015-.39-.05-.11-.026-.214-.065-.31-.115-.68-.202-3.655-.876-5.857-1.374-5.965-1.352-5.965-1.352-6.32-1.923-.196-.315-.26-.698-.173-1.06l2.643-11.02c.032-.14.07-.3.123-.467.006-.055.015-.11.028-.166l.024.006c.223-.633.648-1.28 1.65-1.04.188.047.36.13.504.24 1.35.516 8.68 2.36 10.416 2.553.2-.055.435-.06.715.006.744.178 1.2.936 1.023 1.68 0 .004 0 .006-.002.01l-1.353 5.64-1.315 5.486c-.023.096-.053.222-.096.36-.006.053-.015.106-.028.157l-.022-.006.022.005-.022-.006c-.18.5-.527 1.083-1.26 1.083z" fill="#4B5170"/><path d="M94.644 204.927c-.145.605-11.734-2.384-11.635-2.797l2.792-11.652c-.166.692 11.338 4.037 11.635 2.797l-2.793 11.652" fill="#FFF"/><path d="M87.17 190.714h-.002zm-.002 0l-.01.053.01-.052zm-.01.054zm8.933 2.176v.001zm-11.465 8.39c2.04.66 6.87 1.882 8.926 2.206l2.083-8.69c-2.55-.27-6.538-1.377-8.9-2.307l-2.108 8.79zm9.59 5.055c-1.12 0-2.763-.396-4.994-.932-1.605-.386-3.26-.826-4.54-1.208-1.953-.582-3.364-1.003-3.02-2.444l2.794-11.652c.18-.746.93-1.205 1.672-1.026.322.078.59.262.777.506 1.42.78 7.82 2.535 9.618 2.535.03 0 .055 0 .08-.002.32-.242.742-.343 1.16-.243.745.18 1.204.93 1.025 1.674-.146.61-2.614 10.903-2.79 11.645l-.002.006c0 .003 0 .004-.002.006l-.006.03c-.127.49-.395.796-.815.958-.046.02-.093.037-.14.05-.065.02-.13.034-.196.044-.185.035-.39.05-.62.05z" fill="#4B5170"/><path d="M111.872 209.068c-.105.437-11.845-1.925-11.635-2.797-.2.84 2.426-10.12 2.793-11.65-.303 1.264 11.833 1.975 11.635 2.797l-2.793 11.65" fill="#FFF"/><path d="M113.317 197.093l.026.006v-.002l-.026-.006zm-11.73 9.497zm0 .002zm-.002 0v.001zm.234-.972c1.794.607 6.675 1.793 8.96 2.06l.057-.24 2.202-9.188c-.917-.182-2.344-.39-3.478-.554-2.71-.395-4.457-.68-5.607-.99l-.71 2.96-1.426 5.952zm8.705 3.12zm1.33 1.78c-.07 0-.14-.005-.21-.015-.653.017-1.476-.124-2.446-.288-1.5-.253-3.35-.635-4.953-1.02-2.452-.592-4.247-1.068-5.008-1.87-.058-.055-.107-.114-.148-.177-.234-.326-.312-.705-.213-1.16 0-.007.002-.013.003-.02.003-.007.004-.015.006-.023.012-.043.025-.085.04-.126.03-.17.068-.328.1-.457l2.652-11.067c.18-.746.928-1.205 1.67-1.026.37.088.67.318.856.618.968.365 3.925.796 5.753 1.062 4.402.64 5.31.833 5.836 1.61.233.345.312.77.22 1.17 0 .003 0 .006-.002.008v.005c-.068.276-2.552 10.64-2.79 11.635 0 .005-.002.01-.004.015v.004l-.004.012-.01.043c-.085.31-.224.538-.413.7-.265.25-.607.367-.94.367z" fill="#4B5170"/><path d="M132.43 197.652c.034-.135-11.954-1.463-11.634-2.797l2.793-11.65c.09-.38 11.818 2.028 11.634 2.795l-2.793 11.652" fill="#FFF"/><path d="M133.877 185.677l.01.002-.01-.003zm-11.534 8.672c1.195.427 4.063.977 8.554 1.638l.49.073 1.068-4.455 1.18-4.922c-1.904-.64-6.8-1.725-8.965-2.042l-1.355 5.656-.972 4.053zm10.15 4.703c-.12 0-.247-.015-.385-.048-.052-.012-.102-.028-.15-.045-.25-.046-.867-.136-1.464-.225-8.405-1.238-10.124-1.894-10.8-2.894-.267-.394-.354-.86-.246-1.31l1.17-4.882c.75-3.128 1.59-6.628 1.622-6.767.345-1.433 1.653-1.2 4.03-.778 1.498.267 3.346.656 4.943 1.04 3.782.91 5.747 1.466 5.366 3.153l-.004.015-.003.012v.002c0 .005-.002.01-.004.013-.09.38-.76 3.165-1.42 5.916l-1.254 5.237c-.02.084-.048.2-.09.332-.005.05-.014.102-.026.152l-.022-.005.022.004v.003l-.023-.006c-.176.488-.527 1.083-1.265 1.083z" fill="#4B5170"/><path d="M128.723 213.12c-.105.436-11.844-1.926-11.635-2.798-.2.84 2.427-10.122 2.793-11.65-.302 1.263 11.834 1.974 11.636 2.795l-2.793 11.652" fill="#FFF"/><path d="M130.168 201.144l.026.006-.026-.007zm-11.73 9.497zm0 .002zm0 .002l-.002.003v-.003zm.232-.973c1.796.608 6.676 1.794 8.96 2.062l.058-.242 2.202-9.188c-.916-.18-2.343-.39-3.477-.554-2.71-.394-4.457-.68-5.607-.99l-.71 2.96-1.426 5.953zm8.706 3.122zm1.33 1.78c-.07 0-.14-.006-.21-.017-.654.02-1.475-.123-2.446-.287-1.5-.254-3.35-.635-4.952-1.02-2.452-.592-4.247-1.068-5.008-1.87-.056-.055-.105-.114-.147-.177-.234-.325-.312-.704-.213-1.16l.005-.018.005-.025c.013-.042.026-.084.042-.125.03-.17.067-.33.098-.458l2.653-11.068c.18-.746.928-1.205 1.672-1.026.37.09.67.32.854.62.967.364 3.925.795 5.752 1.06 4.4.64 5.31.834 5.835 1.612.233.344.313.77.22 1.17 0 .002 0 .004-.002.007v.004c-.068.276-2.552 10.64-2.79 11.635 0 .004-.002.008-.004.013v.005l-.003.012-.01.044c-.085.31-.224.538-.413.7-.265.25-.607.367-.94.367z" fill="#4B5170"/><path d="M182.06 176.09c.058-.246-11.665-2.677-11.637-2.796l2.793-11.65c.148-.615 11.642 2.77 11.636 2.796l-2.793 11.65" fill="#FFF"/><path d="M174.564 161.97zm0 0zm-2.474 10.32c.804.184 1.893.427 2.905.652 3.04.677 4.9 1.092 6.06 1.384l.726-3.026 1.42-5.913c-2.273-.665-6.89-1.94-8.9-2.32-.515 2.154-1.65 6.89-2.21 9.222zm8.62 3.476c0 .003 0 .007-.002.01 0-.003.002-.006.003-.008v-.002zm-.007.035c-.01.05-.018.096-.023.142.005-.047.013-.094.023-.14zm2.69.61l.014.005-.015-.004zm-1.3 1.112c-.133 0-.26-.02-.367-.045-.178-.043-.34-.12-.48-.224-1.003-.298-4.62-1.103-6.853-1.6-4.8-1.07-4.8-1.07-5.145-1.62-.197-.316-.26-.7-.173-1.06l2.682-11.19.09-.357c.006-.036.013-.072.022-.107h.007-.008c.387-1.622 2.12-1.21 4.74-.583 1.847.44 4.083 1.055 5.632 1.493.86.243 1.613.46 2.15.62.99.29 2.113.622 1.81 1.91l-2.716 11.327c-.018.072-.036.14-.055.205-.006.042-.014.084-.024.126l-.015-.004c-.002.01-.006.02-.01.03l.018.005-.018-.005c-.31.87-.846 1.077-1.286 1.077z" fill="#4B5170"/><path d="M178.133 192.466c.06-.247-11.664-2.678-11.635-2.797l2.793-11.652c.148-.614 11.642 2.772 11.636 2.797l-2.793 11.65" fill="#FFF"/><path d="M167.848 189.985c0 .003 0 .005-.002.008 0-.003 0-.006.002-.008m.317-1.32c.803.184 1.89.426 2.9.65 3.045.68 4.905 1.094 6.066 1.385l2.144-8.938c-2.272-.665-6.89-1.94-8.898-2.32l-2.21 9.222m8.612 3.512c-.01.048-.018.096-.024.142.006-.047.013-.095.024-.142m1.347 1.714c-.292 0-.578-.092-.816-.266-1.025-.3-4.622-1.103-6.846-1.598-4.8-1.07-4.8-1.07-5.143-1.62-.195-.318-.257-.702-.17-1.065l2.682-11.182c.03-.123.058-.243.09-.358.005-.036.012-.07.02-.106h.01-.01c.39-1.626 2.15-1.204 4.81-.566 1.846.442 4.063 1.052 5.598 1.486.852.24 1.596.457 2.127.613.986.29 2.105.62 1.798 1.91l-2.688 11.212c-.028.116-.056.23-.086.342-.004.033-.01.065-.02.098l-.006-.002-.01.034.01.002-.01-.002c-.144.464-.365.84-.945 1.01-.13.04-.264.058-.395.058" fill="#4B5170"/><path d="M174.468 207.757c.032-.135-11.956-1.463-11.636-2.797l2.794-11.65c.09-.38 11.818 2.028 11.635 2.795.184-.763-2.847 11.88-2.792 11.652" fill="#FFF"/><path d="M175.913 195.78v.001zm0 .004zm-11.534 8.67c1.195.428 4.063.978 8.554 1.64l.49.072 2.247-9.378c-1.903-.64-6.8-1.724-8.964-2.042l-1.25 5.218-1.077 4.49zm8.74 2.978l.026.006-.026-.006zm1.347 1.716c-.107 0-.216-.012-.324-.038-.06-.015-.116-.03-.17-.05-.262-.045-.86-.134-1.443-.22-8.404-1.238-10.124-1.894-10.8-2.894-.266-.395-.353-.86-.246-1.31l1.276-5.32c.72-3.01 1.485-6.198 1.517-6.33.345-1.435 1.658-1.2 4.037-.777 1.504.267 3.357.657 4.955 1.042 2.405.58 4.074 1.016 4.866 1.693.18.12.302.273.376.452.154.286.19.614.104 1 0 .006-.002.01-.003.014l-.004.02c-.02.072-.04.14-.07.207-.05.284-.123.59-.2.912l-.664 2.77-1.86 7.756v.006c-.154.637-.723 1.066-1.35 1.066z" fill="#4B5170"/><path d="M170.76 223.224c-.105.437-11.845-1.925-11.636-2.797-.2.84 2.427-10.122 2.793-11.65-.303 1.263 11.833 1.974 11.636 2.796l-2.793 11.65" fill="#FFF"/><path d="M172.205 211.25l.025.005-.025-.007zm-11.75 9.496l.017.005c.012-.046.02-.09.025-.137-.014.046-.028.09-.043.133zm.25-.97c1.797.607 6.678 1.793 8.962 2.06l2.26-9.43c-.916-.18-2.343-.388-3.477-.552-2.712-.395-4.457-.68-5.607-.99l-2.137 8.912zm8.708 3.12zm1.328 1.78c-.068 0-.138-.005-.206-.015-.642.017-1.473-.122-2.44-.286-1.496-.253-3.345-.633-4.946-1.02-3.92-.942-5.74-1.57-5.382-3.208l.007-.03.003-.013c0-.004.002-.007.003-.01.192-.806 2.452-10.232 2.79-11.642.178-.744.928-1.203 1.67-1.024.37.088.67.318.855.618.968.365 3.926.796 5.753 1.062 4.4.64 5.31.833 5.836 1.61.232.345.312.77.22 1.17l-.002.008v.002c0 .002-.002.002-.002.003l-2.79 11.635c0 .004 0 .01-.002.014l-.002.004c0 .003 0 .006-.002.01-.006.025-.01.04-.01.045h-.002c-.084.31-.224.54-.415.703-.265.246-.605.363-.936.363z" fill="#4B5170"/><path d="M198.856 161.205c.03-.117-.782-.617-2.49-.6-.865.057-1.98.34-2.98-.568-1.193-.12-2.504-.466-3.905-1.086-1.556.032-3.15-.433-4.862-.96-1.772-.28-3.514-1.254-5.538-1.54-.96-.353-1.95-.71-2.98-1-1.033-.293-2.107-.52-3.236-.615-2.238-.28-4.496-.88-6.82-1.518-2.44-.165-4.817-.914-7.234-1.74-2.503-.464-4.944-1.43-7.563-1.817-1.636-.244-3.048-1.485-4.837-1.195-1.624-.4-3.26-.795-4.912-1.15-3.256-.9-6.575-1.635-9.878-2.373-3.25-.963-6.453-2.05-9.792-2.354-3.316-.4-6.402-1.54-9.492-2.282-3.09-.743-6.104-1.424-8.976-2.158-2.967-.343-5.62-1.453-8.248-1.983-2.668-.354-5.072-1.12-7.303-1.755-1.632-.15-3.098-.58-4.47-.928-1.386-.284-2.655-.59-3.76-1.05-2.362-.293-4.163-.82-5.37-1.29-1.156-.683-2.072.17-1.92-.463.078-.33.666-2.78 1.642-6.852.91-3.796 2.15-8.974 3.05-12.723l1.642-6.85c-.09.38.856.308 2.49.598.798.228 1.75.626 2.9.918.985.975 2.334 1.167 3.986.738 1.522.11 3.127.53 4.844 1.038 1.787.22 3.567 1.037 5.557 1.462 2.076.07 4.15.63 6.245 1.5 2.162.595 4.326 1.586 6.793 1.634 2.113.38 4.257.883 6.437 1.433 2.07 1.005 4.36 1.298 6.655 1.714 2.3.388 4.522 1.25 6.874 1.652 2.298.625 4.66 1.07 6.99 1.68 2.31.683 4.674 1.18 7.03 1.68 2.405.295 4.714.96 6.988 1.69 2.405.178 4.653.93 6.9 1.538 2.192.845 4.403 1.465 6.655 1.72 2.758.553 5.43 1.155 7.994 1.78 2.567.624 5.026 1.27 7.36 1.91 2.274.884 4.556 1.202 6.672 1.577 2.083.507 3.94 1.314 5.785 1.42 3.505.98 6.418 1.42 8.36 2.008 1.845.99 3.12.456 3.054.735l-.468 1.957-1.173 4.894c-.413 1.72-1.13 4.705-1.525 6.356l-1.526 6.368c-.47 1.954-.972 4.047-1.21 5.045-.23.95-.307 1.276-.434 1.805" fill="#86AC5B"/><path d="M204.967 134.726c-.006.023-.005.046 0 .068l.018-.064-.018-.004zm-8.52 25.65c1.104 0 1.865.207 2.27.417l5.78-24.11c.208-.864.34-1.416.435-1.766h-.118c-.534.004-1.526.01-2.786-.668-.85-.253-1.954-.492-3.232-.77-1.49-.323-3.18-.69-5.057-1.215-1.228-.073-2.443-.443-3.73-.835-.668-.204-1.36-.415-2.073-.59l-.815-.14c-1.91-.327-3.885-.667-5.886-1.443-2.566-.704-4.97-1.33-7.33-1.903-2.73-.664-5.417-1.262-7.985-1.777-2.087-.236-4.282-.803-6.69-1.73-.407-.11-.84-.232-1.27-.354-1.792-.505-3.643-1.028-5.565-1.17l-.054-.01c-2.173-.698-4.52-1.384-6.944-1.682l-.133-.026c-2.286-.484-4.652-.985-6.934-1.66-1.08-.282-2.19-.534-3.263-.778-1.226-.278-2.494-.566-3.723-.9-1.17-.2-2.336-.522-3.465-.834-1.108-.306-2.252-.622-3.388-.814-.325-.06-.647-.116-.97-.172-1.928-.335-3.923-.682-5.727-1.552-1.766-.446-4.085-1.01-6.397-1.424-1.786-.032-3.435-.568-5.03-1.087-.613-.2-1.193-.388-1.784-.55-2.274-.944-4.29-1.43-6.19-1.494-.914-.192-1.744-.452-2.547-.704-1.048-.328-2.04-.638-3.03-.76-1.602-.472-3.26-.917-4.796-1.034-1.742.443-3.13.187-4.124-.762-.674-.175-1.282-.384-1.82-.57-.368-.127-.71-.245-1.025-.335-.5-.087-.956-.143-1.323-.188-.45-.055-.764-.094-.977-.167-.163.683-.52 2.166-.97 4.05l-5.256 21.92c.04-.003.08-.01.12-.015.368-.054.988-.143 1.684.267 1.023.396 2.802.953 5.28 1.26l.06.016c1.137.474 2.46.78 3.72 1.038l.617.16c1.205.312 2.45.636 3.826.764.365.1.69.194 1.02.29 1.98.573 4.027 1.165 6.293 1.467 1.076.216 2.117.517 3.22.835 1.604.464 3.263.943 5.023 1.147 1.934.49 3.866.946 5.912 1.428 1.02.24 2.052.483 3.092.733 1.026.248 2.07.543 3.08.83 2.057.58 4.184 1.183 6.385 1.448 2.874.26 5.696 1.114 8.425 1.94.47.14.936.283 1.406.422l.375.083c3.13.7 6.366 1.423 9.5 2.29 1.72.37 3.42.78 4.86 1.136 1.134-.17 2.11.233 3.055.62.613.252 1.192.49 1.806.58 1.45.215 2.855.608 4.213.987 1.1.308 2.238.625 3.36.833 2.422.825 4.77 1.57 7.205 1.736l.045.007c2.423.665 4.605 1.238 6.79 1.513 1.025.085 2.097.288 3.268.62 1.032.29 2.036.653 2.977 1 1.08.155 2.074.498 3.034.83.858.297 1.667.576 2.484.707 1.843.563 3.35.982 4.822.956h.052l.046.02c1.328.587 2.617.945 3.834 1.067l.075.007.056.05c.78.707 1.646.622 2.41.546.138-.014.273-.026.4-.035h.096zm2.21.925c-.11-.122-.87-.483-2.288-.463-.113.008-.242.02-.375.034-.8.08-1.79.178-2.707-.61-1.23-.132-2.525-.494-3.854-1.077-1.52.02-3.053-.41-4.884-.97-.825-.13-1.653-.416-2.53-.72-.947-.327-1.925-.665-2.972-.813l-.047-.012c-.938-.346-1.94-.707-2.964-.997-1.143-.322-2.187-.52-3.192-.604-2.217-.278-4.41-.853-6.84-1.52-2.483-.17-4.855-.925-7.268-1.75-1.11-.203-2.257-.523-3.366-.833-1.345-.375-2.736-.764-4.156-.974-.67-.1-1.303-.36-1.914-.61-.94-.387-1.83-.754-2.854-.587l-.046.008-.046-.01c-1.445-.358-3.158-.773-4.904-1.147-3.136-.867-6.366-1.59-9.49-2.288l-.39-.088c-.485-.143-.955-.285-1.423-.427-2.708-.818-5.507-1.665-8.34-1.92-2.244-.272-4.388-.88-6.46-1.466-1.007-.284-2.048-.578-3.065-.823-1.04-.25-2.07-.492-3.09-.732-2.047-.482-3.982-.938-5.89-1.425-1.767-.203-3.445-.688-5.068-1.156-1.093-.316-2.125-.614-3.167-.825-2.286-.302-4.35-.9-6.344-1.478-.33-.095-.655-.19-.977-.28-1.37-.124-2.634-.453-3.857-.77l-.606-.157c-1.26-.26-2.597-.567-3.764-1.05-2.51-.313-4.317-.88-5.394-1.3-.588-.343-1.086-.272-1.417-.224-.237.034-.44.064-.578-.087-.133-.145-.084-.353-.067-.42l5.265-21.964 1.07-4.46v-.002-.002l.45.11c.003-.017-.01-.048-.02-.06.08.073.524.127.953.18.373.045.837.102 1.372.197.347.098.695.218 1.072.348.545.188 1.163.4 1.843.574l.06.016.045.043c.893.882 2.125 1.105 3.767.678l.037-.01.037.003c1.59.117 3.29.572 4.893 1.047.997.12 2.006.436 3.075.77.793.25 1.612.506 2.464.688 1.916.06 3.985.557 6.283 1.513.574.156 1.187.355 1.78.548 1.56.508 3.177 1.034 4.93 1.068 2.373.424 4.712.993 6.488 1.44l.045.017c1.75.85 3.634 1.177 5.627 1.524.323.057.646.113.97.172 1.156.195 2.312.515 3.43.824 1.118.31 2.273.63 3.44.828 1.243.337 2.506.624 3.728.9 1.077.246 2.19.5 3.282.784 2.273.672 4.63 1.17 6.907 1.653l.112.025c2.433.298 4.796.987 6.985 1.688 1.957.148 3.823.675 5.628 1.185.43.12.86.242 1.288.358 2.394.922 4.552 1.48 6.62 1.714 2.592.52 5.286 1.118 8.023 1.784 2.364.576 4.772 1.2 7.364 1.913 1.98.768 3.933 1.104 5.82 1.427l.832.145c.74.178 1.438.39 2.114.597 1.267.386 2.464.75 3.645.818l.05.008c1.873.524 3.563.89 5.054 1.215 1.288.28 2.4.52 3.31.796 1.2.64 2.12.635 2.607.63.105 0 .195 0 .27.006.07-.15.125-.137.216-.116.157.038.184.135.164.28h.006l-.034.14-.016.07-.47 1.957-5.865 24.47-.448-.11c-.02.08.013.137.026.15z" fill="#86AC5B"/><path d="M71.467 128.066l-.002.01.002-.01zm130.204 3.362l.01.002-.01-.002zm-7.477 24.762c.39 0 .764.165 1.028.457.125.138.237.235.333.3l.29-1.21 5.468-22.81c-.514-.096-1.125-.27-1.806-.59-.39-.097-.752-.243-1.104-.386-.652-.26-1.215-.488-1.88-.416-.294.032-.59-.032-.847-.18-.965-.566-2.263-.87-4.086-.957-2.063.027-4.018-.63-6.01-1.403-1.794.026-3.492-.548-5.125-1.1-.555-.188-1.128-.382-1.696-.55l-.413-.113c-2.207-.61-4.49-1.242-6.877-1.84-2.89-.724-5.476-1.28-7.908-1.7-.037-.006-.074-.014-.11-.024-1.873-.484-3.966-.937-6.586-1.422-1.41-.183-2.736-.606-4.018-1.015-.973-.31-1.893-.605-2.833-.796-2.508-.336-4.976-1.058-7.155-1.696l-.14-.04c-2.186-.64-4.446-1.302-6.694-1.63-2.104-.247-4.132-.837-6.094-1.408-.358-.104-.716-.21-1.074-.31-.044-.013-.087-.028-.13-.044-1.044-.412-2.168-.61-3.358-.82-1.124-.196-2.286-.4-3.43-.8-2.052-.59-4.15-1.03-6.18-1.46l-.372-.078c-2.337-.493-4.44-.954-6.464-1.587-1.16-.238-2.277-.532-3.36-.815-1.152-.302-2.24-.587-3.32-.795-.345-.052-.687-.1-1.027-.148-1.863-.262-3.79-.532-5.535-1.444-1.106-.373-2.26-.566-3.374-.752-.606-.102-1.23-.206-1.838-.34-1.746-.004-3.174-.59-4.438-1.11-.236-.096-.468-.192-.698-.28-.635-.226-1.347-.33-2.035-.43-.583-.085-1.185-.173-1.764-.343-1.207-.242-2.193-.484-3.017-.85-.393-.08-.737-.166-1.036-.245l-5.707 23.807c.115.012.243.02.383.025.12.005.238.025.352.06l.4.124c1.2.372 2.84.88 4.91 1.157.03.005.064.01.097.018.347.072.71.134 1.082.197.91.156 1.94.332 3.004.69.058.02.115.044.17.07 1.227.607 2.715.872 4.023 1.05 2.186.027 3.958.447 5.548 1.317.61.148 1.233.293 1.864.44 1.17.273 2.38.555 3.614.877 1.066.252 2.182.524 3.318.802 1.754.43 3.566.873 5.415 1.296 1.534.363 3.084.736 4.657 1.115l4.77 1.152.055.013c2.43.69 4.892 1.244 7.497 1.832.753.17 1.51.34 2.266.515.038.008.076.02.114.03 1.66.536 3.36.887 5.162 1.26 1.554.32 3.16.653 4.738 1.114 1.5.235 3.12.58 5.084 1.085.995.255 1.983.524 2.97.793.662.182 1.324.362 1.986.538.587.168 1.117.366 1.63.558.996.372 1.936.724 2.86.7.167-.004.346.023.51.082.596.217 1.277.302 2 .392.954.12 1.942.243 2.93.676.85.388 1.78.547 2.764.716.52.09 1.058.182 1.596.31.95.083 1.815.365 2.58.615.66.215 1.284.42 1.873.47l.094.013c2.637.418 4.83.913 6.867 1.938 1.18.057 2.222.168 3.18.336 1.1.195 2.087.466 3.004.826 1.544-.06 2.88.332 4.067.68.565.167 1.1.324 1.608.418.12.022.238.06.348.113.917.44 1.887.674 2.825.9.58.14 1.18.284 1.76.476.04.014.082.03.123.047.63.278 1.293.385 1.997.498.61.1 1.243.2 1.854.425.068.025.135.055.198.09.722.404 1.45.582 2.175.53.033-.004.067-.005.1-.005zm1.147 1.646l-.007.026.007-.025zm.483 2.007c-.605 0-1.38-.185-2.18-.866-1.008-.032-2-.308-2.964-.825-.347-.114-.77-.182-1.255-.26-.787-.126-1.677-.27-2.61-.67-.452-.146-.95-.266-1.478-.393-.98-.237-2.085-.503-3.21-1.02-.583-.118-1.15-.285-1.703-.447-1.144-.336-2.225-.655-3.402-.557-.223.02-.447-.017-.653-.104-.81-.34-1.7-.595-2.718-.775-.916-.162-1.936-.263-3.116-.31-.208-.008-.412-.062-.596-.16-1.77-.94-3.777-1.397-6.243-1.79-.883-.085-1.672-.343-2.437-.593-.708-.23-1.376-.45-2.032-.493-.08-.005-.16-.017-.24-.037-.48-.12-.98-.205-1.513-.296-1.114-.192-2.267-.39-3.424-.917-.6-.263-1.35-.357-2.145-.456-.763-.096-1.55-.194-2.355-.453-1.354-.02-2.565-.473-3.64-.875-.485-.18-.942-.352-1.398-.483-.64-.17-1.31-.352-1.98-.535-.97-.265-1.945-.53-2.925-.782-1.916-.49-3.477-.824-4.913-1.047-.06-.01-.12-.022-.18-.04-1.495-.442-3.075-.77-4.603-1.084-1.774-.367-3.608-.747-5.392-1.317-.734-.17-1.467-.334-2.198-.5-2.518-.566-5.123-1.154-7.617-1.86l-4.745-1.145c-1.57-.378-3.115-.75-4.637-1.11-1.858-.426-3.68-.87-5.444-1.303-1.13-.277-2.24-.548-3.33-.807-1.228-.32-2.42-.598-3.573-.867-.703-.164-1.395-.325-2.074-.49-.127-.032-.248-.08-.36-.144-1.23-.704-2.646-1.038-4.46-1.052-.06 0-.116-.005-.173-.013-1.522-.202-3.287-.513-4.877-1.277-.833-.272-1.682-.417-2.504-.558-.39-.066-.767-.13-1.13-.205-2.277-.308-4.03-.853-5.314-1.25l-.226-.07c-.893-.052-2.28-.253-2.836-.99-.25-.332-.348-.79-.25-1.194l6.334-26.42c.09-.372.34-.707.67-.897.57-.327 1.077-.174 1.667.004.394.118.988.297 1.774.454.112.022.22.06.325.108.61.292 1.477.5 2.59.72.047.01.092.02.137.035.397.122.896.195 1.424.272.784.113 1.67.242 2.6.57.284.11.533.213.785.317 1.16.477 2.274.934 3.508.903.114-.005.224.01.333.034.58.132 1.192.234 1.84.343 1.264.21 2.57.43 3.928.902.07.023.137.053.202.088 1.335.72 2.974.95 4.71 1.195.36.05.722.1 1.085.156l.052.008c1.18.226 2.374.54 3.528.84 1.068.28 2.173.57 3.282.796.047.01.094.022.14.036 1.927.607 3.98 1.058 6.272 1.54l.37.08c2.092.44 4.254.897 6.416 1.517l.082.026c.936.334 1.948.512 3.02.7 1.253.22 2.547.447 3.832.944l1.026.297c1.938.564 3.768 1.096 5.683 1.322 2.478.36 4.833 1.05 7.11 1.717l.14.04c2.2.644 4.474 1.31 6.787 1.615l.09.015c1.107.22 2.16.556 3.175.88 1.23.393 2.392.764 3.564.912l.077.012c2.68.495 4.828.96 6.76 1.458 2.482.43 5.117.997 8.052 1.73 2.42.607 4.72 1.245 6.943 1.86l.432.12c.643.19 1.243.392 1.824.588 1.547.524 3.013 1.018 4.407.95.196-.012.392.02.575.092 1.827.715 3.604 1.358 5.25 1.315h.096c2.102.097 3.712.456 5.02 1.125 1.135-.015 2.054.352 2.747.63.305.123.592.24.8.28.12.025.236.065.344.118.96.476 1.68.494 2.11.505.115.003.252.006.4.027.33.013.65.145.897.38.21.2.537.636.393 1.332l-.012.053v.006l-6.2 25.86c-.03.118-.063.258-.108.408-.006.05-.015.1-.026.148l-.02-.003.02.003c-.072.305-.23.54-.427.723-.106.114-.232.21-.382.274-.235.13-.477.21-.664.26-.196.05-.447.093-.737.093z" fill="#4B5170"/><path d="M168.837 112.6c.046-.192-1.386-.742-3.944-.948l-9.86-2.37c-3.945-.95-8.417-1.868-12.82-3.082-4.478-.892-8.874-2.134-12.818-3.082L115.59 99.8l5.246-21.88s5.916 1.42 13.804 3.317c3.945.948 8.427 1.828 12.82 3.082 4.392 1.25 8.88 2.106 12.818 3.08 1.95.565 3.794 1.03 5.46 1.42 1.67.38 3.216.454 4.4.95 2.463.604 3.986.778 3.945.95l-.408 1.697c-.14.593-.725 3.026-.952 3.975l-1.263 5.267-1.263 5.267c-.388 1.62-.73 3.04-.97 4.052-.22.908-.358 1.488-.39 1.62" fill="#FFF"/><path d="M172.734 90.396l-.003.01h.002c0-.002 0-.006.002-.01zm-7.62 19.88c.78.067 1.822.192 2.753.422l.01-.042 4.45-18.563.096-.397c-.66-.135-1.553-.317-2.614-.577-.07-.018-.14-.04-.207-.07-.593-.248-1.378-.377-2.288-.526-.6-.1-1.22-.2-1.884-.35-1.946-.455-3.747-.923-5.51-1.433-1.423-.35-2.903-.683-4.47-1.035-2.73-.613-5.55-1.247-8.37-2.05-2.93-.837-5.892-1.503-8.756-2.147-1.378-.31-2.72-.612-4.007-.92L121.86 79.59l-4.598 19.182 12.457 2.995c1.285.308 2.62.648 3.988.997 2.845.726 5.787 1.476 8.776 2.07.033.008.066.015.098.025 2.944.81 5.907 1.487 8.773 2.14 1.376.315 2.717.62 4 .93l9.758 2.345zm2.375 2h-.002zm-.002.002zm0 .002zm0 .003zm0 0v.002zm0 .004zm-.002.002zm1.352 1.698c-.108 0-.217-.012-.327-.04-.25-.06-.466-.184-.638-.352-.36-.136-1.365-.422-3.09-.56-.072-.006-.143-.018-.213-.034l-9.86-2.37c-1.276-.307-2.606-.61-3.97-.922-2.88-.657-5.858-1.336-8.846-2.16-3.044-.607-6.005-1.362-8.87-2.092-1.356-.347-2.678-.683-3.952-.99l-13.805-3.32c-.745-.177-1.203-.927-1.024-1.672l5.244-21.88c.086-.36.31-.67.624-.86.315-.193.692-.253 1.05-.167l13.804 3.318c1.273.306 2.603.604 3.968.91 2.902.653 5.902 1.328 8.907 2.185 2.742.782 5.526 1.408 8.218 2.013 1.59.358 3.094.695 4.553 1.056l.053.015c1.725.5 3.488.957 5.39 1.4.573.13 1.152.225 1.71.317.996.163 1.94.318 2.803.662.99.24 1.834.412 2.455.538 1.123.228 1.642.334 1.998.677.146.126.246.275.31.435.138.292.177.637.103.95l-.02-.006c-.027.2-.07.38-.1.507l-4.737 19.756c-.217.91-.357 1.492-.39 1.625-.153.635-.72 1.06-1.345 1.06z" fill="#4B5170"/><path d="M166.72 106.727L120.14 95.53s1.137-4.75 2.845-11.873l2.917-12.168 3.344-13.95 3.344-13.95 2.917-12.17 2.063-8.607.783-3.264 16.397 3.94 13.788 3.315c4.487 1.012 8.584 2.007 11.553 2.777 2.935.91 4.82 1.274 4.845 1.165l-.782 3.264-2.064 8.608c-.94 3.915-1.926 8.03-2.918 12.17l-1.625 6.78-.896 3.735-.822 3.434c-.388 1.618-.62 2.592-.838 3.494-.28 1.17-.46 1.916-.86 3.593-.35 1.453-.507 2.108-.817 3.404l-.83 3.46-1.515 6.32-1.4 5.848c-.466 1.937-.818 3.407-1.165 4.855l-.9 3.752-.783 3.265" fill="#FFF"/><path d="M184.03 29.693c-.195.167-.36.402-.44.713.074-.288.232-.533.44-.713zm-.44.713v0zm-61.78 64.098l43.886 10.55 17.537-73.157c-.82-.185-1.948-.49-3.522-.98-3.178-.824-7.36-1.83-11.477-2.758l-28.855-6.938-17.568 73.282zm44.912 13.612c-.107 0-.216-.013-.325-.04L119.815 96.88c-.357-.087-.667-.31-.858-.625-.193-.314-.252-.692-.167-1.05l18.215-75.98c.18-.746.928-1.205 1.672-1.026l30.185 7.255c4.14.933 8.366 1.95 11.577 2.783l.06.018c2.366.734 3.84 1.047 4.282 1.11.157-.017.317-.008.476.03.744.18 1.203.928 1.025 1.673v.002l-18.215 75.98c-.152.636-.72 1.064-1.346 1.064z" fill="#4B5170"/><path d="M185.59 50.63c-.06.245-.18.46-.344.63.157-.16.282-.37.345-.63zm-2.625 1.746c0 .004-.002.008-.003.01l.003-.01zm-.003.012zm-1.344 1.053c-.107 0-.216-.01-.325-.037-.212-.052-.402-.15-.56-.28-.168-.018-.37-.03-.48-.038-.487-.03-1.04-.065-1.44-.607-.244-.33-.33-.754-.237-1.152.176-.746.926-1.205 1.668-1.03.014.002.03.006.042.01l.14.008c.323.02.65.04.958.095.964-.763 2.217-1.426 2.373-1.473.31-.093.627-.088.912.008.336.068.764.206 1.373.402.47.15 1.285.414 1.693.505.195-.04.403-.04.61.01.744.178 1.202.927 1.024 1.673-.093.39-.348.726-.7.923-.7.395-1.44.188-3.476-.468-.27-.087-.61-.197-.843-.266-.49.305-1.35.924-1.637 1.18-.26.334-.664.537-1.095.537zM128.015 36.78v0m0 .004v0m4.547 3.453c.02.158.01.323-.027.486.04-.17.046-.333.027-.486m-.027.486v0m0 .002s0 .002-.002.003v-.003m-30.53 44.497c-.134 0-.272-.02-.408-.062-.732-.226-1.142-1.003-.916-1.736.003-.015.455-1.48 1.054-3.568.78-2.7 1.433-5.147 1.993-7.483.708-2.955 1.075-4.985 1.153-6.39.07-1.13-.195-2.393-.532-3.993-.154-.733-.313-1.49-.46-2.334l-.238-1.085c-.468-2.136-.912-4.155-.803-5.933.086-1.753.52-4.19 1.406-7.885.756-3.155 1.684-6.498 2.33-8.748.698-2.434 1.225-4.148 1.23-4.165.217-.7.938-1.112 1.65-.94l5.242 1.26c1.003.24 2.04.54 3.14.857 2.18.628 4.432 1.278 6.394 1.45.046.003.093.01.14.02 1.506.288 2.775.72 3.702 1.036.275.094.596.202.826.27.093-.03.19-.054.29-.067 1.015-.12 1.232.298 2.454 2.644.17.33.387.744.53 1.008.18.073.417.158.602.207.242-.083.508-.1.774-.037.744.18 1.204.928 1.025 1.674-.062.26-.47 1.537-2.372 1.08-.547-.13-1.172-.317-1.65-.62-.065-.035-.128-.08-.19-.134-.23-.18-.41-.394-.505-.654-.19-.315-.402-.722-.67-1.24-.16-.306-.38-.723-.565-1.072-.408-.08-.874-.238-1.44-.43-.883-.3-1.977-.673-3.266-.927-2.21-.203-4.566-.882-6.846-1.54-1.07-.31-2.078-.6-3.02-.826l-3.97-.956c-.216.72-.51 1.71-.84 2.867-.638 2.224-1.555 5.525-2.3 8.63-.832 3.474-1.256 5.822-1.333 7.39-.086 1.407.317 3.242.744 5.185.08.37.162.745.243 1.126l.01.05c.142.808.298 1.55.45 2.268.363 1.734.678 3.232.586 4.728-.09 1.567-.48 3.755-1.227 6.875-.57 2.38-1.233 4.867-2.025 7.606-.606 2.11-1.065 3.602-1.07 3.616-.183.597-.732.98-1.324.98M153.04 72.545c-.11 0-.218-.013-.327-.04l-.045-.01c-.443.02-1.164-.02-1.926-.506-.205-.073-.59-.11-.963-.15-.787-.076-1.842-.18-2.904-.723-1.876-.313-3.64-.742-5.25-1.28-1.742-.477-3.54-.97-5.124-1.232l-.06-.01c-1.575-.333-2.937-.748-3.93-1.052-.414-.126-.87-.265-1.147-.335-.213.055-.44.06-.67.005-.744-.18-1.202-.93-1.023-1.674.095-.395.35-.737.705-.94.697-.398 1.354-.198 2.943.287.938.287 2.22.678 3.666.984 1.727.29 3.6.803 5.41 1.3.024.006.05.013.074.022 1.54.517 3.25.928 5.078 1.22.166.028.326.084.472.168.624.36 1.308.427 2.033.5.655.064 1.332.13 1.958.435.068.032.132.07.193.113.16.113.253.104.457.082.25-.026.914-.096 1.413.475.306.35.423.835.312 1.296-.153.637-.72 1.065-1.346 1.065M131.238 70.905v0m0 .002c-.146.602-.664 1.017-1.25 1.06.514-.028 1.09-.403 1.25-1.06m14.603 3.51c-.03.13-.04.255-.037.375-.004-.123.007-.25.038-.375m1.35 1.71c-.107 0-.216-.012-.325-.038-.14-.035-.268-.087-.385-.157-.362-.11-1.528-.402-4.05-.91-.12-.025-.234-.065-.342-.118-.595-.296-1.404-.41-2.26-.532-.52-.074-1.06-.15-1.61-.273-1.235-.276-2.832-.65-4.25-1.113-2.086-.598-3.68-.95-4.1-1.018-.1-.003-.2-.015-.3-.04-.744-.176-1.204-.924-1.027-1.67.088-.37.324-.688.65-.88.436-.254.75-.437 5.566.944l.05.015c1.31.43 2.834.786 4.014 1.05.444.1.907.165 1.398.234.975.14 1.98.282 2.926.71 4.777.968 4.863 1.102 5.21 1.65.203.316.27.713.183 1.08-.153.636-.72 1.064-1.347 1.064M148.297 84.983v0zm0 .003zm0 .002v0zm0 .002c-.002 0-.002 0-.002.002v-.002zm-.002.003zm0 0v.001zm0 .004s-.002 0-.002.002v-.003zm-.002.002zm0 0c0 .004 0 .006-.002.01.002-.004.003-.006.003-.01zm-.002.01v0zm0 .002v0zm0 .002v.002-.002zm0 .003zm0 .002zm-.002 0v.002zm0 .004zm0 .002zm1.358 1.67c-.107 0-.216-.012-.325-.038-.192-.047-.366-.132-.515-.245-.22-.047-.57-.108-.886-.163-1.04-.18-2.603-.45-4.345-.974l-16.27-3.91c-.745-.18-1.204-.93-1.025-1.675.178-.745.927-1.205 1.67-1.025l16.31 3.92.077.02c1.596.482 3.017.73 4.055.91 1.363.236 1.985.344 2.4.977.22.336.294.75.2 1.14-.152.637-.72 1.064-1.346 1.064zM150.777 81.98c-.1 0-.2-.012-.3-.034l-.096-.01c-.748-.08-2.997-.32-5.666-1.365-2.305-.32-4.82-1.01-7.25-1.676-1.175-.32-2.283-.625-3.32-.874l-5.71-1.372c-.744-.18-1.202-.93-1.023-1.674.18-.746.928-1.204 1.672-1.026l5.708 1.372c1.08.26 2.21.57 3.404.896 2.405.66 4.89 1.34 7.055 1.626.114.015.226.045.334.088 2.383.957 4.42 1.174 5.09 1.244.365.04.866.093 1.234.614.23.327.31.737.216 1.126-.152.637-.72 1.065-1.347 1.065M142.448 88.567c-.068.286-.043.552.04.782-.086-.244-.105-.514-.04-.783zm.785 1.573h.004-.004zm.564.14c-.108 0-.217-.014-.327-.04-.12-.03-.233-.073-.337-.13-.26-.07-.852-.2-1.426-.327-.75-.165-1.684-.372-2.72-.62l-12.814-3.08.648-2.7 12.815 3.08c1.016.243 1.934.446 2.67.61 2.05.45 2.313.51 2.665 1.073.197.317.26.708.174 1.07-.154.636-.722 1.063-1.347 1.063zM147.385 96.13c-.108 0-.217-.012-.325-.038L125.042 90.8c-.744-.18-1.203-.93-1.024-1.675.18-.746.928-1.204 1.672-1.026l22.017 5.292c.745.18 1.203.93 1.024 1.674-.15.637-.72 1.064-1.345 1.064" fill="#4B5170"/><path d="M29.915 131.81h7.56c2.18 0 3.766.266 4.762.794.994.53 1.664 1.325 2.007 2.384.34 1.06.513 2.477.513 4.253 0 1.777-.156 3.195-.467 4.254-.31 1.06-.84 1.81-1.586 2.244-1.12.56-2.708.84-4.76.84h-8.03v7.572c0 2.183-.264 3.772-.792 4.767-.53.998-1.323 1.67-2.38 2.01-1.06.344-2.474.514-4.248.514-1.773 0-3.19-.17-4.247-.513-1.06-.34-1.805-.918-2.24-1.73-.56-1.182-.84-2.897-.84-5.14v-7.478h-8.12c-2.056 0-3.55-.25-4.482-.75-.933-.497-1.556-1.29-1.867-2.383-.312-1.09-.467-2.507-.467-4.253 0-1.744.172-3.162.515-4.253.34-1.088.948-1.852 1.82-2.29 1.18-.56 2.894-.84 5.134-.84h7.467v-7.572c0-2.18.247-3.77.746-4.767.498-.995 1.29-1.665 2.38-2.008 1.09-.342 2.505-.515 4.248-.515 1.743 0 3.16.173 4.248.515 1.088.343 1.85.92 2.287 1.73.56 1.183.84 2.896.84 5.14v7.478z" fill="#BAC2E2"/><path d="M7.7 132.04c-2.198 0-3.892.277-5.036.82-.806.404-1.38 1.128-1.7 2.15-.333 1.062-.502 2.47-.502 4.184 0 1.72.154 3.128.458 4.19.295 1.037.87 1.77 1.753 2.243.895.478 2.365.72 4.372.72h8.353v7.71c0 2.2.275 3.896.818 5.042.398.742 1.107 1.286 2.102 1.607 1.028.333 2.433.503 4.176.503 1.742 0 3.147-.17 4.176-.503.993-.32 1.75-.96 2.248-1.898.51-.96.766-2.527.766-4.66v-7.803h8.26c2.007 0 3.574-.274 4.656-.816.676-.394 1.175-1.103 1.468-2.1.304-1.035.458-2.444.458-4.19 0-1.738-.17-3.145-.502-4.18-.322-.995-.96-1.752-1.896-2.25-.96-.51-2.525-.77-4.652-.77h-7.792v-7.708c0-2.198-.275-3.894-.818-5.042-.4-.74-1.123-1.285-2.148-1.608-1.064-.333-2.47-.503-4.177-.503-1.71 0-3.114.17-4.178.502-1.036.327-1.77.946-2.242 1.893-.48.958-.722 2.527-.722 4.663v7.803h-7.7zm14.794 29.633c-1.792 0-3.244-.177-4.318-.526-1.112-.358-1.91-.978-2.373-1.84-.577-1.218-.868-2.98-.868-5.25v-7.247h-7.89c-2.113 0-3.614-.253-4.59-.775-.986-.527-1.652-1.376-1.98-2.524-.315-1.1-.475-2.554-.475-4.316 0-1.76.177-3.216.525-4.322.358-1.147 1.01-1.964 1.936-2.428 1.212-.575 2.974-.866 5.24-.866h7.235v-7.34c0-2.24.253-3.833.772-4.87.524-1.05 1.37-1.766 2.517-2.127 1.108-.347 2.56-.524 4.317-.524 1.755 0 3.208.177 4.317.525 1.143.36 1.957.98 2.42 1.84.58 1.222.87 2.985.87 5.252v7.246h7.33c2.202 0 3.84.277 4.868.822 1.046.557 1.76 1.404 2.12 2.517.347 1.082.523 2.537.523 4.324 0 1.79-.16 3.243-.476 4.32-.328 1.114-.897 1.914-1.693 2.377-1.16.582-2.797.873-4.877.873h-7.797v7.34c0 2.21-.276 3.85-.82 4.876-.557 1.05-1.403 1.762-2.514 2.12-1.075.35-2.527.527-4.318.527zM242.54 75.852H220.32c-3.485 0-5.57-1.058-6.254-3.178-.312-1.122-.467-2.554-.467-4.3 0-1.743.188-3.145.562-4.206.373-1.06.964-1.807 1.773-2.243 1.12-.56 2.614-.842 4.48-.842h22.217c3.484 0 5.538 1.03 6.16 3.085.374 1.122.56 2.556.56 4.3 0 1.745-.17 3.163-.513 4.253-.343 1.092-.887 1.856-1.634 2.29-1.12.562-2.676.842-4.667.842" fill="#BAC2E2"/><path d="M220.416 61.315c-1.822 0-3.295.274-4.378.817-.746.402-1.306 1.115-1.66 2.113-.362 1.03-.546 2.42-.546 4.13 0 1.718.155 3.144.458 4.237.645 1.994 2.675 3.01 6.032 3.01h22.217c1.945 0 3.48-.276 4.562-.818.68-.396 1.194-1.123 1.517-2.153.333-1.063.502-2.47.502-4.182 0-1.712-.185-3.134-.548-4.227-.59-1.943-2.588-2.925-5.942-2.925h-22.216zm22.123 14.77H220.32c-3.58 0-5.76-1.125-6.474-3.34-.318-1.143-.478-2.61-.478-4.37 0-1.762.193-3.203.573-4.284.392-1.11 1.025-1.907 1.882-2.37 1.154-.577 2.696-.868 4.59-.868h22.217c3.582 0 5.73 1.093 6.382 3.25.378 1.133.57 2.605.57 4.366 0 1.76-.177 3.213-.525 4.322-.36 1.144-.944 1.958-1.738 2.42-1.16.583-2.765.874-4.783.874zM40.18 49.324H26.603c-2.13 0-3.405-.653-3.823-1.96-.19-.693-.286-1.577-.286-2.653 0-1.075.114-1.94.343-2.594.228-.653.59-1.114 1.084-1.384.685-.346 1.598-.518 2.74-.518h13.578c2.13 0 3.385.633 3.765 1.902.23.692.343 1.577.343 2.652 0 1.077-.106 1.952-.314 2.624-.21.673-.542 1.144-1 1.413-.683.346-1.634.52-2.85.52" fill="#BAC2E2"/><path d="M26.66 40.445c-1.1 0-1.987.166-2.635.494-.44.24-.76.65-.97 1.253-.22.626-.33 1.473-.33 2.518 0 1.054.093 1.925.277 2.592.385 1.202 1.563 1.79 3.6 1.79h13.58c1.174 0 2.098-.166 2.747-.494.39-.23.69-.66.88-1.275.203-.648.304-1.508.304-2.554 0-1.048-.11-1.915-.33-2.58-.353-1.177-1.512-1.745-3.546-1.745h-13.58zm13.52 9.11H26.603c-2.233 0-3.593-.714-4.043-2.12-.198-.716-.297-1.63-.297-2.724 0-1.095.12-1.994.355-2.67.247-.707.648-1.215 1.192-1.51.72-.365 1.677-.548 2.85-.548h13.578c2.234 0 3.575.696 3.987 2.068.233.707.35 1.623.35 2.72 0 1.092-.108 1.998-.323 2.69-.226.728-.597 1.247-1.102 1.544-.727.368-1.72.55-2.97.55zM184.03 18.734h-13.58c-2.13 0-3.404-.653-3.822-1.96-.19-.692-.285-1.576-.285-2.653 0-1.075.114-1.94.342-2.593.23-.654.59-1.115 1.084-1.384.684-.347 1.597-.52 2.738-.52h13.58c2.128 0 3.383.635 3.764 1.904.228.692.343 1.576.343 2.652s-.106 1.95-.314 2.622c-.21.673-.54 1.145-.998 1.413-.685.346-1.636.52-2.852.52" fill="#BAC2E2"/><path d="M170.508 9.855c-1.1 0-1.985.166-2.634.494-.44.24-.76.65-.97 1.253-.22.626-.33 1.473-.33 2.518 0 1.053.093 1.924.277 2.592.385 1.202 1.564 1.79 3.6 1.79h13.58c1.175 0 2.1-.166 2.748-.493.39-.23.69-.663.882-1.277.202-.648.303-1.507.303-2.554 0-1.048-.11-1.915-.33-2.58-.353-1.176-1.513-1.745-3.546-1.745h-13.58zm13.522 9.11h-13.58c-2.23 0-3.592-.713-4.042-2.12-.198-.717-.296-1.63-.296-2.724 0-1.096.12-1.994.355-2.67.247-.706.648-1.215 1.192-1.51.72-.364 1.676-.548 2.848-.548h13.58c2.232 0 3.574.696 3.985 2.068.234.706.352 1.623.352 2.72 0 1.093-.11 1.998-.324 2.69-.225.728-.596 1.247-1.1 1.545-.728.367-1.722.55-2.97.55z" fill="#BAC2E2"/></g></svg>