<svg width="40" height="47" viewBox="0 0 40 47" xmlns="http://www.w3.org/2000/svg" xmlns:xlink="http://www.w3.org/1999/xlink"><title>Page 1</title><defs><path id="a" d="M11.368.05H.008v11.21h11.36V.05z"/></defs><g fill="none" fill-rule="evenodd"><path d="M15.345 5.658c0 2.586-2.125 4.683-4.745 4.683-2.622 0-4.746-2.096-4.746-4.682C5.854 3.07 7.978.975 10.6.975c2.62 0 4.745 2.096 4.745 4.683" fill="#BAC1E1"/><g transform="translate(4.91 .004)"><mask id="b" fill="#fff"><use xlink:href="#a"/></mask><path d="M5.69 1.893c-2.103 0-3.813 1.687-3.813 3.76 0 2.075 1.71 3.762 3.812 3.762 2.1 0 3.81-1.687 3.81-3.76 0-2.075-1.71-3.762-3.81-3.762m0 9.366C2.556 11.26.01 8.744.01 5.653.01 2.564 2.556.05 5.69.05c3.13 0 5.678 2.513 5.678 5.604 0 3.09-2.548 5.605-5.68 5.605" fill="#57585A" mask="url(#b)"/></g><path fill="#BAC1E1" d="M17.837 13.75H3.362L.934 28.127h3.962L6.43 45.99h8.34l1.534-17.864h3.96"/><path d="M7.287 45.068h6.625l1.46-17.02c.042-.477.446-.844.932-.844h2.858l-2.116-12.53H4.154l-2.117 12.53h2.86c.484 0 .89.367.93.844l1.46 17.02zm7.483 1.844H6.43c-.486 0-.89-.367-.932-.844l-1.46-17.02H.933c-.274 0-.535-.12-.713-.326-.176-.207-.252-.48-.207-.747L2.44 13.6c.076-.445.466-.77.922-.77h14.475c.457 0 .846.325.92.77l2.43 14.375c.045.267-.03.54-.21.747-.176.207-.437.326-.712.326h-3.103l-1.46 17.02c-.042.477-.446.844-.932.844z" fill="#57585A"/><path d="M35.164 15.44c0 1.912-1.57 3.463-3.51 3.463-1.937 0-3.51-1.55-3.51-3.464s1.573-3.465 3.51-3.465c1.94 0 3.51 1.55 3.51 3.464" fill="#FFCD20"/><path d="M31.655 12.897c-1.42 0-2.576 1.14-2.576 2.542 0 1.4 1.155 2.54 2.575 2.54 1.42 0 2.575-1.14 2.575-2.54 0-1.402-1.155-2.543-2.575-2.543m0 6.928c-2.45 0-4.444-1.967-4.444-4.386 0-2.42 1.994-4.387 4.445-4.387 2.45 0 4.443 1.968 4.443 4.386s-1.993 4.385-4.443 4.385" fill="#57585A"/><path fill="#FFCD20" d="M37.007 22.186H26.302l-1.795 9.93h2.93l1.134 13.913H34.74l1.133-13.915h2.93"/><path d="M29.433 45.107h4.444l1.065-13.066c.04-.478.444-.847.93-.847h1.815l-1.462-8.084h-9.14l-1.462 8.083h1.814c.487 0 .892.37.93.848l1.066 13.067zm5.306 1.844h-6.17c-.486 0-.89-.368-.93-.847l-1.065-13.066h-2.068c-.277 0-.54-.12-.716-.33-.177-.21-.25-.485-.203-.754l1.796-9.93c.08-.438.467-.76.92-.76h10.704c.453 0 .84.322.92.76l1.795 9.93c.05.27-.025.545-.203.754-.178.21-.44.33-.717.33h-2.068L35.67 46.103c-.04.48-.444.848-.93.848z" fill="#57585A"/><path d="M8.36 6.273c-.516 0-.935-.413-.935-.922 0-1.554 1.282-2.82 2.858-2.82.516 0 .934.413.934.923s-.418.922-.934.922c-.546 0-.99.438-.99.976 0 .51-.417.923-.933.923M30.526 16.166c-.516 0-.934-.413-.934-.922 0-1.032.85-1.87 1.895-1.87.516 0 .934.412.934.92 0 .51-.417.923-.933.923-.015 0-.027.012-.027.027 0 .51-.418.922-.934.922M5.057 21.636c-.052 0-.104-.005-.157-.013-.51-.085-.85-.56-.765-1.064l.735-4.282v-.845h3.92c.516 0 .935.412.935.922s-.42.922-.935.922H6.593l-.616 3.59c-.077.45-.472.77-.92.77M27.86 28.577c-.052 0-.105-.004-.157-.013-.51-.085-.852-.56-.765-1.063l.534-3.112.15-.74 2.88-.002c.517 0 .935.413.935.922 0 .51-.418.923-.934.923h-1.326l-.397 2.32c-.078.45-.473.767-.92.767" fill="#FEFEFE" opacity=".6"/></g></svg>