<svg width="52" height="51" viewBox="0 0 52 51" xmlns="http://www.w3.org/2000/svg"><title>Page 1</title><g fill="none" fill-rule="evenodd"><path d="M19.98 26.462l-2.003 2.014c-.255.257-.673.257-.93 0l-8.786-8.842c-.254-.256-.254-.677 0-.934l2.003-2.014c.255-.257.673-.257.928 0l8.79 8.842c.254.257.254.677 0 .934" fill="#FFCD20"/><path d="M9.422 19.167l8.09 8.14 1.306-1.312-8.09-8.14-1.306 1.312zm8.09 10.658c-.482 0-.936-.19-1.276-.53L7.448 20.45c-.34-.343-.528-.8-.528-1.285 0-.485.188-.942.528-1.284l2.002-2.015c.34-.342.794-.53 1.277-.53.483 0 .936.188 1.277.53l8.787 8.842c.342.343.53.8.53 1.285 0 .486-.188.942-.53 1.284l-2 2.014c-.34.342-.795.53-1.277.53z" fill="#57585A"/><path d="M35.222 11.125L33.22 13.14c-.255.256-.673.256-.93 0l-8.786-8.843c-.256-.257-.256-.677 0-.934l2.002-2.014c.255-.258.673-.258.928 0l8.788 8.84c.255.257.255.678 0 .935" fill="#FFCD20"/><path d="M24.664 3.83l8.092 8.14 1.305-1.312-8.09-8.14-1.306 1.312zm8.092 10.658c-.483 0-.937-.19-1.277-.53l-8.79-8.843c-.34-.343-.527-.8-.527-1.285 0-.486.188-.942.528-1.284L24.694.53c.34-.34.794-.53 1.277-.53.483 0 .936.19 1.277.53l8.787 8.843c.34.343.528.8.528 1.285 0 .485-.187.942-.528 1.284l-2.002 2.015c-.34.342-.794.53-1.276.53z" fill="#57585A"/><path d="M50.605 41.94l-2.002 2.014c-.256.257-.673.257-.93 0L23.587 19.717c-.256-.257-.256-.677 0-.934l2.002-2.015c.255-.257.673-.257.928 0l24.09 24.238c.254.257.254.677 0 .934" fill="#FFCD20"/><path d="M24.746 19.25l23.392 23.536 1.306-1.313-23.392-23.537-1.306 1.314zm23.392 26.053c-.462 0-.924-.177-1.276-.53l-24.09-24.24c-.703-.707-.703-1.86 0-2.568l2.003-2.014c.704-.707 1.85-.707 2.554 0L51.416 40.19c.704.708.704 1.86 0 2.57l-2.002 2.014c-.352.354-.814.53-1.277.53z" fill="#57585A"/><path d="M18.06 45.512h-1.683V43.61c0-.6-.49-1.093-1.087-1.093H5.006c-.598 0-1.086.492-1.086 1.093v1.902H2.235c-.597 0-1.086.49-1.086 1.093v2.103c0 .602.488 1.094 1.085 1.094H18.06c.6 0 1.087-.492 1.087-1.094v-2.103c0-.602-.488-1.093-1.086-1.093" fill="#BAC1E1"/><path d="M2.298 48.645h15.7v-1.977h-2.77v-2.995H5.068v2.995H2.3v1.977zm15.763 2.313H2.236c-1.232 0-2.235-1.01-2.235-2.25v-2.103c0-1.24 1.003-2.25 2.235-2.25h.536v-.745c0-1.24 1.003-2.25 2.236-2.25H15.29c1.233 0 2.236 1.01 2.236 2.25v.745h.535c1.234 0 2.236 1.01 2.236 2.25v2.104c0 1.24-1.002 2.248-2.235 2.248z" fill="#57585A"/><path fill="#FFCD20" d="M31.21 12.052L18.9 24.44l-6.626-6.667L24.585 5.385"/><path d="M13.897 17.773l5 5.032 10.69-10.753-5.002-5.032-10.688 10.753zm5 8.302l-8.25-8.302L24.585 3.75l8.25 8.302-13.937 14.023z" fill="#57585A"/><path d="M17.856 18.135c-.292 0-.585-.112-.81-.336-.45-.45-.452-1.183-.005-1.636l5.92-5.994c.45-.453 1.176-.455 1.626-.005.45.45.453 1.182.005 1.635l-5.92 5.994c-.223.227-.518.34-.814.34" fill="#FEFEFE" opacity=".6"/></g></svg>