<svg width="48" height="53" viewBox="0 0 48 53" xmlns="http://www.w3.org/2000/svg"><title>Page 1</title><g fill="none" fill-rule="evenodd"><path d="M39.406 43.466H8.582c-4.207 0-7.65-1.56-7.65-5.532V8.194c0-3.97 3.443-7.222 7.65-7.222h30.824c4.206 0 7.648 3.25 7.648 7.223v29.74c0 3.97-3.442 5.53-7.648 5.53" fill="#FFCD20"/><path d="M8.582 1.893c-1.793 0-3.482.662-4.756 1.866-1.264 1.192-1.96 2.767-1.96 4.435v29.74c0 1.56.596 2.7 1.822 3.483 1.154.738 2.847 1.128 4.894 1.128h30.824c2.047 0 3.74-.39 4.893-1.128 1.225-.784 1.82-1.924 1.82-3.484V8.194c0-1.667-.695-3.242-1.958-4.435-1.275-1.205-2.964-1.867-4.756-1.867H8.582zm30.824 42.493H8.582c-2.41 0-4.452-.492-5.91-1.424C.924 41.844 0 40.105 0 37.934V8.194C0 3.705 3.85.053 8.582.053h30.824c4.732 0 8.58 3.653 8.58 8.143v29.74c0 2.17-.923 3.91-2.67 5.027-1.458.932-3.502 1.424-5.91 1.424z" fill="#4C5271"/><path d="M35.725 29.497H12.377c-2.112 0-6.17.44-6.17-1.643l2.33-11.435c0-2.083 1.728-3.786 3.84-3.786h23.348c2.112 0 3.84 1.703 3.84 3.785l2.43 11.474c0 2.082-4.158 1.603-6.27 1.603" fill="#BAC1E1"/><path d="M12.377 28.577h23.348c.324 0 .686.01 1.07.02 1.25.038 3.58.106 4.173-.463.046-.043.077-.088.088-.166l-2.424-11.454v-.095c0-1.58-1.304-2.866-2.907-2.866H12.377c-1.603 0-2.907 1.285-2.907 2.865v.09L7.145 27.927c.01.09.044.14.095.187.595.572 2.898.513 4.136.48.357-.008.695-.016 1-.016m25.76 1.888c-.476 0-.948-.014-1.396-.027-.37-.01-.72-.02-1.015-.02H12.377c-.282 0-.608.007-.953.016-1.928.05-4.327.11-5.487-1.003-.434-.415-.663-.96-.663-1.576v-.09l2.33-11.44c.052-2.552 2.173-4.61 4.773-4.61h23.348c2.598 0 4.718 2.056 4.772 4.605l2.43 11.48v.094c0 .61-.228 1.148-.658 1.56-.895.856-2.537 1.01-4.133 1.01M11.363 52.98H8.035c-.722 0-1.375-.47-1.792-1.293-.32-.632-.497-1.45-.497-2.3 0-.508.418-.92.934-.92.515 0 .933.412.933.92 0 .99.325 1.613.49 1.753h3.194c.164-.14.49-.764.49-1.753 0-.508.417-.92.932-.92.515 0 .933.412.933.92 0 .85-.177 1.668-.497 2.3-.417.822-1.07 1.294-1.793 1.294M39.985 52.98h-3.33c-.72 0-1.374-.47-1.79-1.293-.32-.632-.498-1.45-.498-2.3 0-.508.418-.92.934-.92s.934.412.934.92c0 .99.325 1.613.49 1.753h3.194c.164-.14.49-.764.49-1.753 0-.508.417-.92.932-.92.516 0 .934.412.934.92 0 .85-.177 1.668-.497 2.3-.417.822-1.07 1.294-1.792 1.294" fill="#4C5271"/><path d="M37.376 48.703h-26.65c-3.638 0-6.614-.485-6.614-1.718V35.013c0-1.234 2.976-2.244 6.613-2.244h26.65c3.64 0 6.615 1.01 6.615 2.243v11.972c0 1.233-2.976 1.718-6.614 1.718" fill="#F5F3F1"/><path d="M5.045 46.925c.147.134 1.153.858 5.68.858h26.65c4.53 0 5.535-.724 5.68-.858V35.038c-.06-.12-.455-.488-1.58-.825-1.127-.338-2.582-.523-4.1-.523h-26.65c-1.517 0-2.972.185-4.097.523-1.126.337-1.52.705-1.583.825v11.887zm32.33 2.698h-26.65c-1.997 0-3.685-.145-4.883-.42-.736-.17-1.3-.386-1.723-.662-.78-.506-.942-1.125-.942-1.555V35.013c0-2.174 3.912-3.164 7.547-3.164h26.65c3.636 0 7.548.99 7.548 3.163v11.972c0 .43-.163 1.05-.94 1.556-.423.277-.987.493-1.724.662-1.2.276-2.887.42-4.884.42z" fill="#4C5271"/><path d="M37.39 46.057h-.35c-1.35 0-2.453-1.088-2.453-2.42v-.343c0-1.33 1.104-2.42 2.453-2.42h.35c1.35 0 2.453 1.09 2.453 2.42v.344c0 1.33-1.104 2.42-2.453 2.42" fill="#FEFEFE"/><path d="M37.04 41.795c-.838 0-1.52.672-1.52 1.5v.343c0 .827.682 1.5 1.52 1.5h.35c.838 0 1.52-.673 1.52-1.5v-.344c0-.827-.682-1.5-1.52-1.5h-.35zm.35 5.182h-.35c-1.867 0-3.387-1.498-3.387-3.34v-.343c0-1.84 1.52-3.34 3.387-3.34h.35c1.867 0 3.386 1.5 3.386 3.34v.344c0 1.84-1.52 3.34-3.386 3.34z" fill="#4C5271"/><path d="M11.11 46.057h-.35c-1.348 0-2.452-1.088-2.452-2.42v-.343c0-1.33 1.104-2.42 2.453-2.42h.35c1.35 0 2.454 1.09 2.454 2.42v.344c0 1.33-1.104 2.42-2.453 2.42" fill="#FEFEFE"/><path d="M10.76 41.795c-.837 0-1.52.672-1.52 1.5v.343c0 .827.683 1.5 1.52 1.5h.35c.84 0 1.52-.673 1.52-1.5v-.344c0-.827-.68-1.5-1.52-1.5h-.35zm.35 5.182h-.35c-1.866 0-3.385-1.498-3.385-3.34v-.343c0-1.84 1.52-3.34 3.386-3.34h.35c1.868 0 3.388 1.5 3.388 3.34v.344c0 1.84-1.52 3.34-3.387 3.34zM29.43 43.14H18.67c-.515 0-.933-.412-.933-.92 0-.51.417-.92.932-.92H29.43c.515 0 .933.41.933.92 0 .508-.418.92-.934.92M29.43 45.633H18.67c-.515 0-.933-.412-.933-.92s.417-.92.932-.92H29.43c.515 0 .933.412.933.92s-.418.92-.934.92M29.43 38.214H18.67c-.515 0-.933-.412-.933-.92s.417-.92.932-.92H29.43c.515 0 .933.412.933.92s-.418.92-.934.92M29.43 40.708H18.67c-.515 0-.933-.412-.933-.92 0-.51.417-.92.932-.92H29.43c.515 0 .933.41.933.92 0 .508-.418.92-.934.92M4.112 36.617c-.08 0-.158-.01-.238-.03-.5-.13-.796-.633-.665-1.125l2.095-7.842c.13-.49.642-.784 1.14-.655.5.13.796.632.665 1.124l-2.096 7.84c-.11.414-.488.687-.902.687M43.99 36.617c-.418 0-.798-.278-.905-.695L41.09 28.12c-.127-.493.176-.994.675-1.118.5-.124 1.008.175 1.134.667l1.995 7.802c.126.492-.177.993-.677 1.117-.077.018-.153.027-.23.027" fill="#4C5271"/><path d="M3.455 17.83v6.563c0 1.47 1.22 2.673 2.712 2.673l2.48-11.91c-1.492 0-5.192 1.204-5.192 2.675" fill="#F5F3F1"/><path d="M4.388 17.832v6.56c0 .712.43 1.325 1.05 1.6l2.027-9.738c-.475.114-1.01.28-1.52.498-1.23.522-1.544.99-1.557 1.08m1.78 10.154c-2.01 0-3.647-1.612-3.647-3.593V17.83c0-2.357 4.552-3.593 6.126-3.593.28 0 .546.124.724.34.177.213.247.494.19.765l-2.48 11.91c-.088.427-.47.734-.913.734" fill="#4C5271"/><path d="M39.338 15.157l2.468 11.91c1.492 0 2.712-1.204 2.712-2.674V17.83c0-1.47-3.69-2.673-5.18-2.673" fill="#F5F3F1"/><path d="M40.518 16.254l2.018 9.738c.618-.275 1.05-.89 1.05-1.6v-6.56c-.012-.087-.32-.556-1.548-1.08-.51-.216-1.045-.384-1.52-.498m1.288 11.733c-.443 0-.826-.308-.914-.736l-2.47-11.91c-.055-.27.016-.55.193-.765.177-.214.443-.338.723-.338.927 0 2.345.348 3.528.864 1.69.74 2.585 1.685 2.585 2.73v6.563c0 1.98-1.634 3.594-3.644 3.594" fill="#4C5271"/><path d="M11.09 16.004c.11-.568.682-1.033 1.268-1.033h20.968c.587 0 .627.19.09.42L10.153 25.395c-.537.232-.887-.044-.776-.612l1.712-8.778z" fill="#8C9DCF"/><path d="M3.92 9.877c-.515 0-.933-.412-.933-.92 0-3.226 2.662-5.85 5.934-5.85.516 0 .934.412.934.92 0 .51-.418.92-.933.92-2.242 0-4.066 1.8-4.066 4.01 0 .508-.418.92-.933.92" fill="#FEFEFE"/></g></svg>