<svg width="65" height="30" viewBox="0 0 65 30" xmlns="http://www.w3.org/2000/svg" xmlns:xlink="http://www.w3.org/1999/xlink"><title>Page 1</title><defs><path id="a" d="M21.088.003H0v29.443h21.088V.003z"/></defs><g fill="none" fill-rule="evenodd"><path d="M21.302 7.83V6.566c0-.695.825-1.264 1.834-1.264h20.816c1.01 0 1.834.816 1.834 1.815v8.094c0 1-.636 1.816-1.413 1.816H42.96" fill="#86AC5A"/><path d="M44.373 17.82H42.96v-1.588h1.413c.283 0 .61-.446.61-1.02V7.116c0-.563-.462-1.02-1.03-1.02H23.135c-.67 0-1.032.332-1.032.47V7.83H20.5V6.566c0-1.154 1.157-2.058 2.636-2.058h20.816c1.454 0 2.637 1.17 2.637 2.61v8.093c0 1.44-.995 2.61-2.217 2.61" fill="#57585A"/><path d="M42.96 17.74c0 .997-.826 1.814-1.835 1.814H20.31c-1.01 0-1.835-.817-1.835-1.815V9.644c0-1 .826-1.815 1.835-1.815h20.815c1.01 0 1.835.816 1.835 1.815v8.094z" fill="#86AC5A"/><path d="M20.31 8.624c-.57 0-1.032.458-1.032 1.02v8.095c0 .562.463 1.02 1.032 1.02h20.815c.57 0 1.032-.458 1.032-1.02V9.644c0-.563-.463-1.02-1.032-1.02H20.31zm20.815 11.724H20.31c-1.455 0-2.638-1.17-2.638-2.61V9.646c0-1.44 1.183-2.61 2.638-2.61h20.815c1.454 0 2.637 1.17 2.637 2.61v8.094c0 1.438-1.183 2.608-2.637 2.608z" fill="#57585A"/><path d="M34.17 13.692c0 1.887-1.545 3.416-3.453 3.416-1.907 0-3.454-1.53-3.454-3.416 0-1.887 1.547-3.417 3.454-3.417 1.908 0 3.454 1.53 3.454 3.417" fill="#F5F3F1"/><path d="M30.717 11.07c-1.462 0-2.65 1.176-2.65 2.622s1.188 2.622 2.65 2.622 2.652-1.176 2.652-2.622-1.19-2.623-2.653-2.623m0 6.832c-2.347 0-4.257-1.888-4.257-4.21s1.91-4.21 4.257-4.21c2.348 0 4.257 1.888 4.257 4.21s-1.91 4.21-4.257 4.21" fill="#57585A"/><path d="M20.285 24.193L18.137.84c-1.46.138-2.632.433-4.103.97C11.247 2.822 8.9 4.44 7.146 6.39c-.48.535-4.082-1.073-4.47-.494-.387.58 2.44 3.345 2.152 3.958-.935 1.983-1.337 4.115-1.098 6.21v-.008l-1.766.642C1.05 17.03.574 18.044.912 18.95l.728 1.957c.337.906 1.362 1.374 2.277 1.04l1.922-.698.046.125c1.324 1.714 3.047 2.678 5.098 3.235l.69 2.935c.338.906 1.363 1.374 2.278 1.04l2.24-.814c.917-.333 1.39-1.346 1.054-2.252l-.235-.632c1.07-.144 2.167-.377 3.275-.693" fill="#FFCD20"/><g transform="translate(0 .042)"><mask id="b" fill="#fff"><use xlink:href="#a"/></mask><path d="M12.444 27.268c.2.472.742.71 1.23.53l2.242-.815c.503-.183.76-.736.576-1.233l-.23-.62c-.024-.06-.04-.123-.048-.187-.05-.4.21-.775.607-.87.035-.008.068-.014.102-.018.81-.11 1.65-.276 2.503-.494L17.412 1.685c-.995.15-1.925.4-3.1.828-2.57.935-4.84 2.444-6.565 4.365-.566.63-1.608.358-3.05-.018-.24-.063-.55-.144-.842-.21.184.264.393.546.552.76.897 1.212 1.49 2.012 1.15 2.737-.888 1.88-1.244 3.875-1.032 5.77 0 .004 0 .008.002.012v.008c.045.412-.236.784-.64.863l-1.645.6c-.503.184-.762.737-.577 1.234l.728 1.957c.09.24.27.43.505.54.237.108.5.12.742.03l1.922-.7c.2-.07.42-.063.614.026.193.088.343.25.417.447l.004.01c1.11 1.397 2.57 2.306 4.582 2.854.287.072.517.297.586.59l.678 2.88zm.898 2.178c-1.05 0-2.037-.64-2.42-1.67-.012-.03-.02-.06-.03-.093L10.31 25.2c-2.002-.62-3.572-1.616-4.78-3.035l-1.335.486c-.645.235-1.344.207-1.97-.08-.626-.285-1.1-.794-1.338-1.43L.16 19.18c-.492-1.32.194-2.786 1.527-3.272l1.19-.433c-.108-1.93.28-3.92 1.134-5.808-.146-.306-.608-.93-.898-1.32C2.176 7.085 1.5 6.172 2.007 5.415c.415-.62 1.274-.487 1.598-.437.445.068.98.208 1.5.343.478.125 1.24.323 1.583.343 1.88-2.04 4.32-3.644 7.07-4.645C15.357.44 16.605.145 18.06.008c.213-.02.425.044.59.18.164.134.267.328.286.538l2.148 23.354c.035.378-.207.73-.577.834-.818.233-1.63.422-2.422.565.306 1.24-.374 2.542-1.614 2.994l-2.24.815c-.293.106-.593.156-.888.156z" fill="#57585A" mask="url(#b)"/></g><path d="M8.624 10.879999999999999c.02.023.044.045.07.063.026.017.054.032.084.043.048-.042.085-.094.107-.153-.02-.024-.044-.045-.07-.062-.026-.017-.054-.032-.084-.043-.023.02-.044.044-.062.07-.018.026-.033.054-.044.083m-.034 1.41c-.245 0-.485-.074-.69-.216-.268-.183-.447-.458-.504-.774l-.07-.39c-.12-.654.32-1.28.98-1.398l.396-.07c.32-.057.642.013.91.197.266.182.444.457.502.773l.07.392c.058.315-.013.634-.198.898-.186.264-.464.44-.783.498l-.396.07c-.072.014-.145.02-.217.02M64.158 16.477c-.025 0-.05 0-.075-.004l-2.724-.25c-.18-.016-.346-.09-.476-.21l-1.07-.992-2.797-.256c-.44-.04-.766-.427-.725-.864.04-.436.432-.757.873-.717l3.07.28c.18.018.346.092.476.213l1.07.992 2.45.224c.443.04.767.427.726.864-.038.412-.388.72-.798.72" fill="#57585A"/><path d="M39.232 24.143c.648.112 1.313.202 1.99.27 2.144.214 4.207.143 6.096-.2l-.095.935c-.1.96.615 1.825 1.586 1.922l2.375.237c.97.098 1.845-.61 1.943-1.57l-.282-3.65v.002c2.4-1.6 3.986-3.957 4.297-7.006.562-5.497-3.635-10.696-9.504-12.867L39.23 24.143z" fill="#FFCD20"/><path d="M48.116 24.3l-.095.928c-.053.527.337 1 .87 1.052l2.376.237c.51.052.973-.303 1.056-.8l-.276-3.568c-.024-.303.128-.586.38-.74 2.293-1.537 3.647-3.752 3.92-6.406.25-2.447-.507-4.91-2.185-7.125-1.484-1.958-3.616-3.58-6.06-4.624L40.333 23.51c.32.042.644.08.97.112 2.05.205 4.014.144 5.838-.184.044-.01.088-.015.134-.018.394-.02.746.244.83.627.017.084.02.17.012.253m3.25 3.81c-.087 0-.174-.004-.262-.013l-2.375-.237c-.684-.068-1.3-.397-1.737-.925-.417-.506-.62-1.134-.577-1.78-1.677.214-3.447.23-5.275.047-.695-.07-1.383-.162-2.047-.277-.235-.04-.44-.183-.56-.39-.118-.205-.137-.452-.052-.674l8.41-21.925c.156-.41.617-.615 1.03-.462 3.038 1.124 5.71 3.06 7.525 5.454.927 1.222 1.614 2.534 2.042 3.897.45 1.433.603 2.893.455 4.34-.306 2.998-1.776 5.517-4.26 7.315l.247 3.198c.002.046.002.093-.003.14-.134 1.31-1.256 2.292-2.562 2.292" fill="#57585A"/></g></svg>