<svg width="196" height="230" viewBox="0 0 196 230" xmlns="http://www.w3.org/2000/svg" xmlns:xlink="http://www.w3.org/1999/xlink"><title>Page 1</title><defs><path id="a" d="M0 229.655h195.715V.477H0z"/></defs><g fill="none" fill-rule="evenodd"><path d="M195.715 100.108c0 2.784-.08 5.58-.247 8.372-1.26 35.858-24.703 69.3-57.538 83.237-1.986.84-4.004 1.62-6.054 2.33-2.05.714-4.13 1.36-6.236 1.942-8.43 2.32-17.31 3.558-26.476 3.558-15.716 0-30.58-3.642-43.8-10.13-3.303-1.62-6.505-3.42-9.59-5.386-7.245-5.02-13.933-10.915-19.838-17.5-1.97-2.195-3.85-4.467-5.636-6.808-4.324-5.873-8.003-12.227-10.99-18.9-2.986-6.34-5.28-14.158-6.836-20.804-.778-4.06-1.37-7.29-1.77-10.81-.346-3.038-.572-4.7-.677-7.836-.148-7 .31-11.682 1.304-17.082.995-4.752 2.526-11.515 4.523-16.472 1.998-5.21 4.462-10.04 7.323-15.03 2.86-4.803 6.118-10.005 9.702-14.72 2.048-1.88 4.203-4.54 6.455-7.414 5.042-5.518 10.672-10.242 16.728-13.628 6.057-3.842 12.538-6.865 19.282-9.88 3.373-.416 6.81-2.46 10.295-3.38 5.546-1.093 11.18-1.49 16.828-2.9 5.65-.7 11.316-.374 16.927.294 11.223 1.208 22.23 4.384 32.45 9.204 10.22 4.82 19.658 11.283 27.745 19.064 2.253 2.162 4.396 4.33 6.41 6.698 5.864 7.69 10.167 16.4 13.34 25.565 1.058 3.055 1.984 6.16 2.775 9.292 1.597 5.974 2.096 12.462 2.915 18.953.358 3.865.615 7.785.688 10.17" fill="#F6F3F1"/><path d="M102.94 49.074c-.643-1.167-.988-2.335-1.257-3.504-.265-1.17-.392-2.34-.447-3.51-.055-2.344.003-4.688.19-7.033.19-2.345.51-4.69.812-7.037l.45-3.518c.072-.587.16-1.173.317-1.76.148-.588.342-1.175.648-1.763.317.582.52 1.165.678 1.75.17.584.266 1.17.348 1.754l.51 3.51c.34 2.34.702 4.682.932 7.023.227 2.34.325 4.684.31 7.027-.034 1.172-.14 2.345-.387 3.518-.25 1.174-.574 2.35-1.196 3.525-.28.53-.936.732-1.465.452-.194-.104-.344-.257-.443-.436M157.348 66.937c.297-1.275.814-2.35 1.387-3.376.576-1.022 1.256-1.952 1.99-2.834 1.505-1.726 3.096-3.378 4.783-4.942 1.688-1.563 3.474-3.04 5.245-4.528l2.656-2.234c.44-.374.89-.738 1.394-1.055.497-.323 1.028-.616 1.643-.833-.15.634-.387 1.193-.656 1.72-.26.537-.576 1.024-.902 1.5l-1.942 2.877c-1.294 1.92-2.573 3.85-3.95 5.696-1.378 1.842-2.853 3.597-4.41 5.278-.8.822-1.654 1.596-2.61 2.276-.96.678-1.975 1.306-3.21 1.734-.57.197-1.19-.104-1.386-.672-.07-.2-.076-.412-.032-.605M56.218 63.79c-1.174-.217-2.165-.638-3.09-1.132-.928-.493-1.768-1.084-2.55-1.735-1.54-1.337-3-2.76-4.375-4.277-1.374-1.52-2.66-3.137-3.96-4.74l-1.95-2.4c-.326-.4-.643-.81-.912-1.27-.276-.456-.52-.944-.69-1.517.587.108 1.097.3 1.58.528.486.22.926.493 1.356.776l2.592 1.69c1.728 1.123 3.47 2.234 5.125 3.44 1.653 1.21 3.218 2.516 4.71 3.906.73.71 1.403 1.485 1.99 2.355.588.87 1.11 1.813 1.45 2.958.177.592-.16 1.215-.752 1.39-.173.053-.355.06-.522.028" fill="#FFCC21"/><path d="M187.32 140.544c-.106 0 .22.777 0 2.174.69 1.398-.28 3.417 0 5.902.546 2.484-.04 5.435 0 8.696v5.106c.53 1.766.488 3.59 0 5.455-.226 3.194-.413 6.503 0 9.828.048 1.663.022 3.33-.003 4.987-.025 1.66-.048 3.31.004 4.94-.032 1.63.408 3.24 0 4.816-.002 1.577.106 3.12 0 4.62-.064 4-.782 7.68 0 10.81-.01 1.564.08 2.99.128 4.25.05 1.262.055 2.356-.127 3.254-.162 1.797-.258 2.81 0 2.81.082 1.927-.453 3.737-1.96 5.294-1.308 1.557-3.83 2.86-5.14 3.775-2.675.916-4.777 1.44-7.206 1.44H41.296c-2.625 0-5.346-.524-7.206-1.44-2.35-.913-3.69-2.217-5.14-3.774-1.423-1.557-2.005-3.367-1.96-5.293-.286 0 .336-.777 0-2.174-.29-1.4-.012-3.418 0-5.903v-4.057c-.052-1.456-.053-3.01 0-4.64.37-2.853-.49-5.944 0-9.17-.06-1.612-.114-3.258-.128-4.925 0-1.666-.247-3.353.128-5.047-.35-1.695.168-3.396 0-5.092.277-1.697.033-3.387 0-5.06-.157-1.67-.203-3.325-.187-4.947.127-1.623.086-3.212.187-4.758-.184-1.546.103-3.047.033-4.49.217-1.444.225-2.83-.033-4.146-.388-1.315.027-2.56 0-3.72-.14-1.162.117-2.24 0-3.22-.394-1.962-.012-3.537 0-4.622.146-1.085.345-1.68 0-1.68-.04-1.927.363-3.736 1.96-5.293 1.07-1.556 2.73-2.86 5.14-3.774 2.12-.915 4.583-1.44 7.206-1.44h131.714c1.148 0 2.64.13 3.888.377 1.446.246 2.34.605 3.32 1.063.89.457 1.898 1.012 2.697 1.647 1.146.634 1.1 1.35 2.444 2.128.46.78.664 1.62 1.44 2.51.377.887.506 1.82.52 2.784" fill="#BAC2E2"/><path d="M187.32 217.238h.004-.003zm-159.405.717c.022.084.032.17.03.26-.04 1.783.535 3.34 1.71 4.627 1.38 1.48 2.613 2.685 4.783 3.53.025.01.05.02.075.032 1.683.828 4.283 1.343 6.785 1.343h131.716c2.322 0 4.323-.514 6.774-1.346.347-.236.757-.492 1.19-.76 1.243-.777 2.79-1.742 3.653-2.768l.045-.05c1.143-1.18 1.7-2.58 1.7-4.263-.255-.496-.184-1.276-.01-3.185l.006-.08c.004-.034.01-.07.016-.103.158-.777.158-1.772.11-3.026l-.04-.94c-.045-.974-.095-2.07-.09-3.237-.536-2.256-.366-4.708-.186-7.3.082-1.18.167-2.4.187-3.637 0-.017 0-.034.003-.05.065-.94.044-1.9.02-2.916-.012-.542-.024-1.09-.023-1.64 0-.08.01-.16.03-.238.22-.852.142-1.772.06-2.745-.05-.59-.1-1.2-.09-1.827-.053-1.672-.028-3.344-.004-4.96v-.055c.025-1.59.05-3.237.006-4.846-.415-3.37-.237-6.638 0-9.968.004-.06.014-.118.028-.175.467-1.786.47-3.402.01-4.94-.027-.088-.04-.18-.04-.273v-5.106c-.015-1.225.055-2.397.124-3.53.11-1.81.213-3.523-.103-4.962-.008-.032-.013-.065-.017-.097-.14-1.24-.002-2.335.12-3.302.12-.953.223-1.777-.027-2.284-.087-.175-.118-.374-.087-.57.122-.787.042-1.338-.002-1.633-.022-.157-.05-.348-.015-.547-.026-.837-.15-1.52-.388-2.13-.532-.642-.816-1.25-1.068-1.793-.086-.186-.17-.364-.258-.532-.68-.436-1.043-.865-1.34-1.218-.262-.31-.452-.536-.855-.76-.047-.025-.09-.055-.132-.087-.757-.602-1.754-1.142-2.538-1.546-.824-.383-1.648-.733-3.044-.97-1.15-.226-2.568-.364-3.726-.364H41.298c-2.402 0-4.763.47-6.828 1.362-2.14.813-3.72 1.965-4.732 3.44-.035.05-.076.1-.12.143-1.11 1.082-1.635 2.38-1.673 4.168.282.43.2.935.09 1.61-.03.172-.06.367-.09.584-.008.33-.042.687-.077 1.06-.092.955-.195 2.036.06 3.3l.01.075c.067.555.034 1.11.002 1.646-.033.542-.064 1.054-.002 1.574.004.03.006.06.007.09.01.468-.037.927-.085 1.37-.078.736-.152 1.43.046 2.105.008.028.016.057.02.086.265 1.338.283 2.81.056 4.378.025.636-.01 1.27-.046 1.886-.048.844-.093 1.64.003 2.443.005.057.007.115.003.174-.045.69-.06 1.387-.077 2.123-.02.847-.04 1.725-.108 2.614-.016 1.756.043 3.332.183 4.818.003.023.005.046.005.07.01.465.036.934.062 1.403.067 1.198.136 2.435-.055 3.707.065.79.004 1.554-.054 2.294-.072.907-.14 1.762.028 2.575.027.13.026.268-.003.4-.24 1.09-.195 2.197-.145 3.37.02.493.04.983.04 1.47.014 1.65.07 3.32.127 4.89.002.06-.002.12-.01.18-.242 1.597-.128 3.21-.018 4.77.1 1.428.205 2.904.026 4.332-.05 1.562-.05 3.085.002 4.53v4.09c-.004.888-.04 1.723-.074 2.46-.058 1.317-.11 2.453.055 3.248.23.952.087 1.71-.01 2.13zm145.1 11.7H41.297c-2.8 0-5.633-.567-7.59-1.52-2.517-.988-3.96-2.396-5.454-3.998-1.45-1.586-2.192-3.475-2.218-5.625-.135-.33-.056-.66 0-.895.074-.318.178-.752.028-1.375-.22-1.058-.163-2.306-.1-3.75.035-.754.07-1.534.074-2.38v-4.052c-.053-1.467-.053-3.05 0-4.67 0-.03.004-.062.007-.092.163-1.252.07-2.587-.03-4-.116-1.635-.236-3.326.02-5.1-.056-1.56-.11-3.213-.124-4.865 0-.47-.02-.932-.04-1.397-.048-1.183-.1-2.404.15-3.667-.175-1.008-.098-1.973-.024-2.91.058-.728.112-1.415.047-2.08-.01-.083-.006-.166.007-.25.18-1.107.12-2.227.053-3.413-.027-.48-.054-.958-.064-1.436-.146-1.55-.207-3.19-.19-5.01l.004-.065c.067-.848.086-1.71.105-2.54.014-.697.03-1.415.075-2.12-.103-.935-.052-1.825-.004-2.687.036-.624.07-1.214.043-1.78-.003-.063 0-.126.01-.188.208-1.39.202-2.625-.02-3.78-.29-1.02-.19-1.965-.1-2.8.04-.384.08-.748.076-1.08-.076-.672-.038-1.306-.005-1.866.028-.46.054-.894.013-1.27-.3-1.525-.172-2.85-.08-3.818.036-.372.067-.694.07-.963 0-.04.003-.078.008-.117.035-.258.073-.49.106-.69.017-.106.036-.222.05-.325-.1-.147-.16-.325-.164-.517-.032-1.584.162-3.915 2.182-5.93 1.238-1.764 3.1-3.126 5.534-4.05 2.262-.977 4.884-1.502 7.544-1.502h131.716c1.272 0 2.832.152 4.07.396 1.45.246 2.4.603 3.54 1.134.875.45 1.95 1.033 2.825 1.718.663.382 1.01.794 1.318 1.16.28.332.524.62 1.07.937.143.083.26.2.345.342.178.304.318.604.453.894.236.508.46.986.882 1.47.067.077.12.163.16.256.388.914.578 1.913.597 3.144 0 .045-.002.092-.008.136.05.336.144 1 .035 1.92.35.946.22 1.984.083 3.077-.112.89-.227 1.81-.12 2.803.357 1.685.247 3.507.13 5.436-.066 1.1-.134 2.235-.12 3.403v4.98c.508 1.792.505 3.724-.01 5.746-.227 3.218-.395 6.37.002 9.557.004.03.006.06.007.09.048 1.666.022 3.348-.003 4.976v.054c-.023 1.602-.048 3.26.004 4.894v.05c-.01.538.035 1.08.084 1.654.09 1.05.182 2.137-.083 3.26 0 .497.012.99.023 1.48.023 1.006.046 2.047-.024 3.066-.022 1.28-.107 2.516-.19 3.712-.174 2.484-.336 4.83.162 6.823.02.078.03.16.03.24-.01 1.16.037 2.224.084 3.254.015.326.03.644.04.952.054 1.366.05 2.474-.134 3.426l-.002.03c-.077.847-.157 1.72-.15 2.113.094.142.152.31.16.493.098 2.337-.644 4.347-2.205 5.973-1.06 1.246-2.735 2.29-4.084 3.133-.458.284-.89.554-1.22.784-.072.05-.152.09-.237.12-2.62.895-4.9 1.49-7.516 1.49z" fill="#4B5170"/><path d="M27.052 209.862c.195-.497.428-.755.654-.983.228-.207.464-.33.7-.378.476-.058.953-.052 1.428-.076.95-.035 1.9-.054 2.85-.072 1.897-.028 3.793-.027 5.688 0 1.897.02 3.796.09 5.65.14l5.644.01 11.29.022 11.308-.013h.047l.068.006c1.868.167 3.74.244 5.61.218.935-.013 1.868-.05 2.8-.116.937-.06 1.833-.17 2.838-.27 1.927-.146 3.82-.37 5.828-.456 1.993-.086 4.068-.02 6.12.42l-.24-.03c3.83.193 7.842-.268 12.017.006l-.143-.002c3.916-.093 7.72.25 11.415.186 3.713-.115 7.612-.404 11.537-.087.49.04 1.054.085 1.51.175.484.08.914.14 1.375.197.91.113 1.822.19 2.74.236 1.833.09 3.678.048 5.522-.1 3.777-.37 7.738-.55 11.654-.035l-.14-.01c2.863.062 5.734.035 8.615-.02 2.88-.05 5.78-.137 8.688-.116 1.416.008 2.866-.046 4.316-.055l4.343-.03c1.45-.002 2.898.005 4.35.026l2.18.047c.365.02.73.004 1.1.06.183.043.365.132.545.286.09.087.18.17.268.29.045.06.085.115.13.195l.066.116c.012.024.024.048.033.07.01.015-.003.015.035.047.03.03.037.076.03.095h-.143c-.017.012-.02.052 0 .076.03.025.007.025.004.036-.01.018-.023.037-.03.055-.02.04-.05.063-.07.096-.044.066-.094.115-.138.166-.093.107-.182.176-.273.252-.18.132-.36.205-.537.235-.353.026-.71-.008-1.066-.006l-2.15-.015c-1.438 0-2.876.013-4.316.035l-4.32.092c-1.436.03-2.874.104-4.346.118-2.87.02-5.74.147-8.636.24-2.894.098-5.8.166-8.714.145h-.06l-.08-.01c-1.812-.212-3.656-.265-5.506-.213-.926.026-1.854.077-2.783.15-.94.07-1.834.163-2.82.258-1.944.176-3.907.24-5.872.16-.983-.04-1.965-.114-2.945-.226-.483-.055-.994-.125-1.45-.196-.478-.087-.863-.106-1.32-.14-1.826-.13-3.68-.124-5.555-.062-.936.03-1.877.075-2.823.124-.95.043-1.885.11-2.882.134-3.91.096-7.705-.208-11.395-.085l-.07.002-.073-.005c-3.815-.263-7.802.192-11.963-.006l-.12-.005-.12-.025c-1.716-.368-3.52-.438-5.367-.358-1.838.077-3.768.3-5.678.446-.908.09-1.923.212-2.906.274-.988.07-1.978.11-2.967.124-1.98.027-3.956-.055-5.92-.23l.114.004-11.292-.08-11.31-.128-5.653-.063c-1.913-.07-3.778-.156-5.647-.195-1.87-.043-3.742-.06-5.61-.05-.935.008-1.87.018-2.8.043-.467.005-.93.044-1.395.028-.47-.077-.934-.346-1.466-1.196M27.052 197.968c.195-.496.428-.754.654-.982.228-.206.464-.33.7-.378.476-.058.953-.05 1.428-.076.95-.034 1.9-.053 2.85-.07 1.897-.03 3.793-.03 5.688-.003 1.897.022 3.796.09 5.65.14l5.644.012 11.29.02 11.308-.012h.047l.068.006c1.868.167 3.74.244 5.61.22.935-.014 1.868-.053 2.8-.118.937-.06 1.833-.168 2.838-.27 1.927-.146 3.82-.37 5.828-.456 1.993-.086 4.068-.02 6.12.42l-.24-.03c3.83.193 7.842-.268 12.017.006l-.143-.002c3.916-.093 7.72.25 11.415.187 3.713-.116 7.612-.404 11.537-.088.49.04 1.054.087 1.51.176.484.08.914.143 1.375.2.91.11 1.822.19 2.74.234 1.833.09 3.678.05 5.522-.1 3.777-.37 7.738-.55 11.654-.034l-.14-.01c2.863.062 5.734.035 8.615-.02 2.88-.052 5.78-.138 8.688-.117 1.416.008 2.866-.046 4.316-.055l4.343-.03c1.45-.002 2.898.006 4.35.027l2.18.046c.365.02.73.006 1.1.06.183.045.365.133.545.287.09.086.18.168.268.29.045.06.085.115.13.194l.066.117c.012.024.024.047.033.07.01.014-.003.014.035.047.03.03.037.076.03.094h-.143c-.017.012-.02.053 0 .076.03.025.007.025.004.036-.01.02-.023.037-.03.056-.02.04-.05.064-.07.097-.044.066-.094.114-.138.166-.093.106-.182.174-.273.25-.18.133-.36.205-.537.236-.353.026-.71-.008-1.066-.005l-2.15-.014c-1.438 0-2.876.013-4.316.036l-4.32.09c-1.436.03-2.874.106-4.346.12-2.87.02-5.74.147-8.636.24-2.894.097-5.8.166-8.714.145h-.06l-.08-.01c-1.812-.213-3.656-.266-5.506-.214-.926.027-1.854.078-2.783.15-.94.07-1.834.163-2.82.26-1.944.174-3.907.237-5.872.16-.983-.04-1.965-.115-2.945-.227-.483-.055-.994-.125-1.45-.195-.478-.086-.863-.106-1.32-.14-1.826-.13-3.68-.124-5.555-.06-.936.03-1.877.074-2.823.122-.95.044-1.885.11-2.882.135-3.91.096-7.705-.208-11.395-.086l-.07.004-.073-.006c-3.815-.263-7.802.192-11.963-.006l-.12-.006-.12-.025c-1.716-.367-3.52-.436-5.367-.356-1.838.076-3.768.3-5.678.445-.908.09-1.923.21-2.906.273-.988.07-1.978.11-2.967.123-1.98.027-3.956-.055-5.92-.23l.114.005-11.292-.08-11.31-.128-5.653-.063c-1.913-.07-3.778-.156-5.647-.196-1.87-.043-3.742-.06-5.61-.05-.935.008-1.87.018-2.8.043-.467.004-.93.043-1.395.027-.47-.076-.934-.346-1.466-1.196M40.36 169.78c-8.034 0-14.57-4.998-14.57-11.14 0-.66.533-1.194 1.192-1.194.658 0 1.192.534 1.192 1.193 0 4.827 5.466 8.754 12.186 8.754s12.186-3.927 12.186-8.755c0-.66.534-1.194 1.192-1.194.66 0 1.192.534 1.192 1.193 0 6.142-6.536 11.14-14.57 11.14" fill="#4B5170"/><path d="M67.116 169.78c-8.034 0-14.57-4.998-14.57-11.14 0-.66.533-1.194 1.192-1.194.66 0 1.192.534 1.192 1.193 0 4.827 5.467 8.754 12.186 8.754 6.72 0 12.186-3.927 12.186-8.755 0-.66.534-1.194 1.192-1.194.66 0 1.192.534 1.192 1.193 0 6.142-6.536 11.14-14.57 11.14" fill="#4B5170"/><path d="M93.872 169.78c-8.034 0-14.57-4.998-14.57-11.14 0-.66.533-1.194 1.192-1.194.658 0 1.192.534 1.192 1.193 0 4.827 5.467 8.754 12.186 8.754 6.72 0 12.186-3.927 12.186-8.755 0-.66.534-1.194 1.192-1.194.66 0 1.193.534 1.193 1.193 0 6.142-6.536 11.14-14.57 11.14" fill="#4B5170"/><path d="M120.628 169.78c-8.034 0-14.57-4.998-14.57-11.14 0-.66.534-1.194 1.192-1.194.66 0 1.192.534 1.192 1.193 0 4.827 5.467 8.754 12.186 8.754 6.72 0 12.186-3.927 12.186-8.755 0-.66.534-1.194 1.192-1.194.66 0 1.193.534 1.193 1.193 0 6.142-6.538 11.14-14.572 11.14" fill="#4B5170"/><path d="M147.384 169.78c-8.034 0-14.57-4.998-14.57-11.14 0-.66.534-1.194 1.192-1.194.66 0 1.192.534 1.192 1.193 0 4.827 5.467 8.754 12.186 8.754 6.72 0 12.187-3.927 12.187-8.755 0-.66.534-1.194 1.193-1.194.658 0 1.192.534 1.192 1.193 0 6.142-6.536 11.14-14.57 11.14" fill="#4B5170"/><path d="M174.14 169.78c-8.034 0-14.57-4.998-14.57-11.14 0-.66.534-1.194 1.192-1.194.66 0 1.193.534 1.193 1.193 0 4.827 5.466 8.754 12.186 8.754s12.186-3.927 12.186-8.755c0-.66.534-1.194 1.193-1.194.657 0 1.19.534 1.19 1.193 0 6.142-6.535 11.14-14.57 11.14" fill="#4B5170"/><path d="M41.415 157.386c0 .692-.56 1.253-1.252 1.253s-1.254-.562-1.254-1.254c0-.693.56-1.254 1.253-1.254.692 0 1.252.56 1.252 1.254" fill="#FFCC21"/><path d="M40.163 157.208c-.1 0-.178.08-.178.178 0 .098.08.177.178.177.097 0 .177-.08.177-.177 0-.1-.08-.178-.177-.178m0 2.863c-1.48 0-2.684-1.204-2.684-2.684 0-1.48 1.202-2.686 2.683-2.686 1.48 0 2.683 1.205 2.683 2.686 0 1.48-1.204 2.685-2.683 2.685" fill="#4B5170"/><path d="M68.172 157.386c0 .692-.56 1.253-1.253 1.253-.693 0-1.254-.562-1.254-1.254 0-.693.56-1.254 1.253-1.254.69 0 1.252.56 1.252 1.254" fill="#FFCC21"/><path d="M66.92 157.208c-.1 0-.18.08-.18.178 0 .098.08.177.18.177.097 0 .176-.08.176-.177 0-.1-.08-.178-.177-.178m0 2.863c-1.48 0-2.685-1.204-2.685-2.684 0-1.48 1.204-2.686 2.684-2.686 1.48 0 2.683 1.205 2.683 2.686 0 1.48-1.204 2.685-2.684 2.685" fill="#4B5170"/><path d="M94.928 157.386c0 .692-.56 1.253-1.253 1.253-.692 0-1.253-.562-1.253-1.254 0-.693.56-1.254 1.253-1.254.692 0 1.253.56 1.253 1.254" fill="#FFCC21"/><path d="M93.675 157.208c-.098 0-.178.08-.178.178 0 .098.08.177.178.177.098 0 .177-.08.177-.177 0-.1-.08-.178-.177-.178m0 2.863c-1.48 0-2.684-1.204-2.684-2.684 0-1.48 1.205-2.686 2.685-2.686s2.683 1.205 2.683 2.686c0 1.48-1.203 2.685-2.683 2.685" fill="#4B5170"/><path d="M121.684 157.386c0 .692-.56 1.253-1.253 1.253-.69 0-1.252-.562-1.252-1.254 0-.693.56-1.254 1.253-1.254.693 0 1.254.56 1.254 1.254" fill="#FFCC21"/><path d="M120.43 157.208c-.097 0-.177.08-.177.178 0 .098.08.177.178.177.1 0 .18-.08.18-.177 0-.1-.08-.178-.18-.178m0 2.863c-1.48 0-2.683-1.204-2.683-2.684 0-1.48 1.204-2.686 2.684-2.686 1.48 0 2.685 1.205 2.685 2.686 0 1.48-1.204 2.685-2.684 2.685" fill="#4B5170"/><path d="M148.44 157.386c0 .692-.56 1.253-1.253 1.253-.692 0-1.253-.562-1.253-1.254 0-.693.56-1.254 1.253-1.254.692 0 1.253.56 1.253 1.254" fill="#FFCC21"/><path d="M147.187 157.208c-.098 0-.178.08-.178.178 0 .098.08.177.177.177.098 0 .178-.08.178-.177 0-.1-.08-.178-.178-.178m0 2.863c-1.48 0-2.684-1.204-2.684-2.684 0-1.48 1.204-2.686 2.684-2.686 1.48 0 2.684 1.205 2.684 2.686 0 1.48-1.203 2.685-2.683 2.685" fill="#4B5170"/><path d="M175.196 157.386c0 .692-.56 1.253-1.253 1.253-.692 0-1.253-.562-1.253-1.254 0-.693.56-1.254 1.253-1.254.692 0 1.253.56 1.253 1.254" fill="#FFCC21"/><path d="M173.943 157.208c-.098 0-.177.08-.177.178 0 .098.08.177.177.177.098 0 .178-.08.178-.177 0-.1-.08-.178-.177-.178m0 2.863c-1.48 0-2.683-1.204-2.683-2.684 0-1.48 1.203-2.686 2.683-2.686 1.48 0 2.684 1.205 2.684 2.686 0 1.48-1.204 2.685-2.684 2.685" fill="#4B5170"/><mask id="b" fill="#fff"><use xlink:href="#a"/></mask><path d="M50.034 128.842h7.408v-29.91h-7.408v29.91zm8.6 2.386h-9.792c-.658 0-1.192-.534-1.192-1.193V97.738c0-.658.534-1.193 1.192-1.193h9.792c.66 0 1.192.535 1.192 1.193v32.297c0 .66-.533 1.193-1.192 1.193z" fill="#4B5170" mask="url(#b)"/><path d="M49.137 131.23c-.305 0-.61-.118-.843-.35-.465-.466-.465-1.222 0-1.688l9.497-9.503c.467-.466 1.22-.466 1.687 0 .466.465.466 1.22 0 1.687l-9.496 9.502c-.233.232-.537.35-.843.35M49.137 125.282c-.305 0-.61-.117-.843-.35-.465-.465-.465-1.22 0-1.687l9.497-9.502c.467-.466 1.22-.466 1.687 0 .466.465.466 1.22 0 1.687l-9.496 9.502c-.233.233-.537.35-.843.35M49.137 119.335c-.305 0-.61-.116-.843-.35-.465-.465-.465-1.22 0-1.687l9.497-9.502c.467-.466 1.22-.466 1.687 0 .466.466.466 1.22 0 1.687l-9.496 9.503c-.233.233-.537.35-.843.35M49.137 113.388c-.305 0-.61-.116-.843-.35-.465-.465-.465-1.22 0-1.686l9.497-9.503c.467-.467 1.22-.467 1.687 0 .466.465.466 1.22 0 1.686l-9.496 9.503c-.233.232-.537.348-.843.348M49.137 107.44c-.305 0-.61-.115-.843-.348-.465-.466-.465-1.22 0-1.687l8.505-8.51c.465-.466 1.22-.466 1.685 0 .466.466.466 1.22 0 1.687l-8.504 8.51c-.233.233-.537.35-.843.35M76.79 128.842h7.407v-29.91H76.79v29.91zm8.6 2.386h-9.792c-.658 0-1.192-.534-1.192-1.193V97.738c0-.658.534-1.193 1.192-1.193h9.792c.658 0 1.192.535 1.192 1.193v32.297c0 .66-.534 1.193-1.192 1.193z" fill="#4B5170" mask="url(#b)"/><path d="M75.893 131.23c-.305 0-.61-.118-.843-.35-.465-.466-.465-1.222 0-1.688l9.497-9.503c.466-.466 1.22-.466 1.686 0 .466.465.466 1.22 0 1.687l-9.497 9.502c-.233.232-.538.35-.843.35M75.893 125.282c-.305 0-.61-.117-.843-.35-.465-.465-.465-1.22 0-1.687l9.497-9.502c.466-.466 1.22-.466 1.686 0 .466.465.466 1.22 0 1.687l-9.497 9.502c-.233.233-.538.35-.843.35M75.893 119.335c-.305 0-.61-.116-.843-.35-.465-.465-.465-1.22 0-1.687l9.497-9.502c.466-.466 1.22-.466 1.686 0 .466.466.466 1.22 0 1.687l-9.497 9.503c-.233.233-.538.35-.843.35M75.893 113.388c-.305 0-.61-.116-.843-.35-.465-.465-.465-1.22 0-1.686l9.497-9.503c.466-.467 1.22-.467 1.686 0 .466.465.466 1.22 0 1.686l-9.497 9.503c-.233.232-.538.348-.843.348M75.893 107.44c-.305 0-.61-.115-.843-.348-.465-.466-.465-1.22 0-1.687l8.505-8.51c.466-.466 1.22-.466 1.687 0 .465.466.465 1.22 0 1.687l-8.506 8.51c-.233.233-.538.35-.843.35M130.302 128.842h7.408v-29.91h-7.408v29.91zm8.6 2.386h-9.792c-.658 0-1.192-.534-1.192-1.193V97.738c0-.658.534-1.193 1.192-1.193h9.792c.66 0 1.193.535 1.193 1.193v32.297c0 .66-.534 1.193-1.193 1.193z" fill="#4B5170" mask="url(#b)"/><path d="M129.405 131.23c-.305 0-.61-.118-.843-.35-.465-.466-.465-1.222 0-1.688l9.497-9.503c.465-.466 1.22-.466 1.685 0 .466.465.466 1.22 0 1.687l-9.496 9.502c-.235.232-.54.35-.845.35M129.405 125.282c-.305 0-.61-.117-.843-.35-.465-.465-.465-1.22 0-1.687l9.497-9.502c.465-.466 1.22-.466 1.685 0 .466.465.466 1.22 0 1.687l-9.496 9.502c-.235.233-.54.35-.845.35M129.405 119.335c-.305 0-.61-.116-.843-.35-.465-.465-.465-1.22 0-1.687l9.497-9.502c.465-.466 1.22-.466 1.685 0 .466.466.466 1.22 0 1.687l-9.496 9.503c-.235.233-.54.35-.845.35M129.405 113.388c-.305 0-.61-.116-.843-.35-.465-.465-.465-1.22 0-1.686l9.497-9.503c.465-.467 1.22-.467 1.685 0 .466.465.466 1.22 0 1.686l-9.496 9.503c-.235.232-.54.348-.845.348M129.405 107.44c-.305 0-.61-.115-.843-.348-.465-.466-.465-1.22 0-1.687l8.506-8.51c.466-.466 1.22-.466 1.686 0 .465.466.465 1.22 0 1.687l-8.505 8.51c-.235.233-.54.35-.845.35M103.547 128.842h7.407v-29.91h-7.407v29.91zm8.6 2.386h-9.793c-.658 0-1.192-.534-1.192-1.193V97.738c0-.658.534-1.193 1.192-1.193h9.792c.66 0 1.193.535 1.193 1.193v32.297c0 .66-.535 1.193-1.194 1.193z" fill="#4B5170" mask="url(#b)"/><path d="M102.65 131.23c-.306 0-.61-.118-.843-.35-.466-.466-.466-1.222 0-1.688l9.496-9.503c.466-.466 1.22-.466 1.686 0 .465.465.465 1.22 0 1.687l-9.497 9.502c-.233.232-.538.35-.843.35M102.65 125.282c-.306 0-.61-.117-.843-.35-.466-.465-.466-1.22 0-1.687l9.496-9.502c.466-.466 1.22-.466 1.686 0 .465.465.465 1.22 0 1.687l-9.497 9.502c-.233.233-.538.35-.843.35M102.65 119.335c-.306 0-.61-.116-.843-.35-.466-.465-.466-1.22 0-1.687l9.496-9.502c.466-.466 1.22-.466 1.686 0 .465.466.465 1.22 0 1.687l-9.497 9.503c-.233.233-.538.35-.843.35M102.65 113.388c-.306 0-.61-.116-.843-.35-.466-.465-.466-1.22 0-1.686l9.496-9.503c.466-.467 1.22-.467 1.686 0 .465.465.465 1.22 0 1.686l-9.497 9.503c-.233.232-.538.348-.843.348M102.65 107.44c-.306 0-.61-.115-.843-.348-.466-.466-.466-1.22 0-1.687l8.504-8.51c.467-.466 1.222-.466 1.688 0 .465.466.465 1.22 0 1.687l-8.505 8.51c-.233.233-.538.35-.843.35M157.06 128.842h7.406v-29.91h-7.407v29.91zm8.6 2.386h-9.793c-.66 0-1.192-.534-1.192-1.193V97.738c0-.658.533-1.193 1.192-1.193h9.792c.657 0 1.19.535 1.19 1.193v32.297c0 .66-.533 1.193-1.19 1.193z" fill="#4B5170" mask="url(#b)"/><path d="M156.162 131.23c-.305 0-.61-.118-.843-.35-.467-.466-.467-1.222 0-1.688l9.495-9.503c.466-.466 1.22-.466 1.687 0 .465.465.465 1.22 0 1.687l-9.497 9.502c-.233.232-.538.35-.843.35M156.162 125.282c-.305 0-.61-.117-.843-.35-.467-.465-.467-1.22 0-1.687l9.495-9.502c.466-.466 1.22-.466 1.687 0 .465.465.465 1.22 0 1.687l-9.497 9.502c-.233.233-.538.35-.843.35M156.162 119.335c-.305 0-.61-.116-.843-.35-.467-.465-.467-1.22 0-1.687l9.495-9.502c.466-.466 1.22-.466 1.687 0 .465.466.465 1.22 0 1.687l-9.497 9.503c-.233.233-.538.35-.843.35M156.162 113.388c-.305 0-.61-.116-.843-.35-.467-.465-.467-1.22 0-1.686l9.495-9.503c.466-.467 1.22-.467 1.687 0 .465.465.465 1.22 0 1.686l-9.497 9.503c-.233.232-.538.348-.843.348M156.162 107.44c-.305 0-.61-.115-.843-.348-.467-.466-.467-1.22 0-1.687l8.504-8.51c.465-.466 1.22-.466 1.686 0 .465.466.465 1.22 0 1.687l-8.505 8.51c-.233.233-.538.35-.843.35" fill="#4B5170" mask="url(#b)"/><path d="M57.353 89.63c0 2.192-1.775 5.242-3.963 5.242-2.19 0-3.964-3.05-3.964-5.24 0-2.19 1.775-8.97 3.964-8.97 2.188 0 3.963 6.78 3.963 8.97" fill="#FFCC21" mask="url(#b)"/><path d="M53.39 82.137c-.91.673-2.533 5.08-2.533 7.494 0 1.674 1.42 3.81 2.533 3.81 1.112 0 2.533-2.136 2.533-3.81 0-2.412-1.623-6.82-2.533-7.493m0 14.166c-3.243 0-5.395-4.016-5.395-6.672 0-1.542 1.488-10.4 5.395-10.4 3.907 0 5.394 8.858 5.394 10.4 0 2.657-2.15 6.673-5.394 6.673" fill="#4B5170" mask="url(#b)"/><path d="M84.458 89.63c0 2.192-1.775 5.242-3.964 5.242-2.19 0-3.963-3.05-3.963-5.24 0-2.19 1.775-8.97 3.964-8.97 2.19 0 3.964 6.78 3.964 8.97" fill="#FFCC21" mask="url(#b)"/><path d="M80.494 82.137c-.91.673-2.533 5.08-2.533 7.494 0 1.674 1.42 3.81 2.534 3.81 1.113 0 2.533-2.136 2.533-3.81 0-2.412-1.623-6.82-2.533-7.493m0 14.166c-3.243 0-5.394-4.016-5.394-6.672 0-1.542 1.487-10.4 5.394-10.4s5.395 8.858 5.395 10.4c0 2.657-2.153 6.673-5.396 6.673" fill="#4B5170" mask="url(#b)"/><path d="M111.532 89.63c0 2.192-1.775 5.242-3.964 5.242-2.19 0-3.963-3.05-3.963-5.24 0-2.19 1.774-8.97 3.963-8.97 2.19 0 3.964 6.78 3.964 8.97" fill="#FFCC21" mask="url(#b)"/><path d="M107.568 82.137c-.91.673-2.533 5.08-2.533 7.494 0 1.674 1.42 3.81 2.533 3.81s2.533-2.136 2.533-3.81c0-2.412-1.622-6.82-2.532-7.493m0 14.166c-3.243 0-5.394-4.016-5.394-6.672 0-1.542 1.487-10.4 5.394-10.4s5.394 8.858 5.394 10.4c0 2.657-2.15 6.673-5.394 6.673" fill="#4B5170" mask="url(#b)"/><path d="M138.158 89.63c0 2.192-1.774 5.242-3.963 5.242-2.19 0-3.963-3.05-3.963-5.24 0-2.19 1.774-8.97 3.963-8.97 2.19 0 3.963 6.78 3.963 8.97" fill="#FFCC21" mask="url(#b)"/><path d="M134.195 82.137c-.91.672-2.533 5.08-2.533 7.494 0 1.674 1.42 3.81 2.533 3.81s2.533-2.136 2.533-3.81c0-2.412-1.623-6.82-2.533-7.493m0 14.166c-3.242 0-5.394-4.016-5.394-6.672 0-1.542 1.488-10.4 5.395-10.4 3.907 0 5.394 8.858 5.394 10.4 0 2.657-2.152 6.673-5.395 6.673" fill="#4B5170" mask="url(#b)"/><path d="M165.13 89.63c0 2.192-1.774 5.242-3.963 5.242-2.19 0-3.964-3.05-3.964-5.24 0-2.19 1.775-8.97 3.964-8.97 2.19 0 3.963 6.78 3.963 8.97" fill="#FFCC21" mask="url(#b)"/><path d="M161.167 82.137c-.91.672-2.533 5.08-2.533 7.494 0 1.674 1.42 3.81 2.533 3.81 1.112 0 2.533-2.136 2.533-3.81 0-2.412-1.624-6.82-2.533-7.493m0 14.166c-3.243 0-5.395-4.016-5.395-6.672 0-1.542 1.488-10.4 5.395-10.4 3.906 0 5.394 8.858 5.394 10.4 0 2.657-2.15 6.673-5.393 6.673" fill="#4B5170" mask="url(#b)"/><path d="M71.467 130.24c.028-.283.385-1.896.378-2.187-.088-3.92-3.335-7.026-7.253-6.938-1.526.034-2.925.553-4.064 1.4-.696-1.956-2.58-3.336-4.768-3.287-2.332.052-4.247 1.715-4.72 3.902-1.47-1.04-3.274-1.636-5.213-1.593-2.297.052-4.364.99-5.884 2.482-1.52 1.49-2.444 3.35-2.6 5.797-.035.143 2.082.23 5.333.066 3.087.477 7.427.238 11.73.145 4.19.347 8.455.398 11.73.145l5.33.066" fill="#FFF" mask="url(#b)"/><path d="M54.405 128.835c.033 0 .066.002.1.004 4.112.34 8.318.392 11.538.144.036-.003.07-.003.107-.003l4.326.054c.07-.353.16-.827.176-.99-.044-1.563-.69-3.018-1.82-4.1-1.14-1.09-2.654-1.675-4.213-1.636-1.224.027-2.393.43-3.38 1.163-.304.227-.696.295-1.058.185-.362-.11-.65-.384-.776-.74-.536-1.502-1.95-2.495-3.533-2.495h-.086c-1.74.04-3.213 1.257-3.58 2.96-.085.393-.36.716-.733.862-.374.145-.794.093-1.122-.14-1.32-.934-2.866-1.41-4.5-1.372-1.908.042-3.71.803-5.074 2.14-1.116 1.098-1.81 2.38-2.103 3.9.845.02 2.19.01 3.94-.078.083-.004.163 0 .243.012 2.438.377 5.75.286 9.26.19.75-.02 1.506-.042 2.262-.06h.025m7.182 2.69c-2.3 0-4.775-.102-7.217-.302-.73.017-1.462.037-2.188.057-3.562.096-6.93.19-9.566-.2-5.56.277-5.866-.097-6.19-.493-.193-.236-.29-.543-.27-.845.165-2.636 1.132-4.786 2.952-6.574 1.797-1.764 4.174-2.767 6.692-2.823 1.623-.035 3.19.314 4.613 1.023 1.006-1.97 3.02-3.28 5.32-3.333 2.138-.04 4.135 1.03 5.277 2.78 1.098-.56 2.306-.865 3.555-.893 2.218-.043 4.313.767 5.913 2.297 1.6 1.53 2.51 3.592 2.558 5.807.007.263-.055.625-.255 1.65-.06.306-.114.576-.128.69-.075.597-.586 1.065-1.186 1.065h-.014l-5.278-.065c-1.385.105-2.94.157-4.587.157" fill="#4B5170" mask="url(#b)"/><path d="M105.968 130.24c.03-.283.385-1.896.378-2.187-.088-3.92-3.335-7.026-7.253-6.938-1.526.034-2.925.553-4.063 1.4-.697-1.956-2.58-3.336-4.768-3.287-2.333.052-4.248 1.715-4.72 3.902-1.47-1.04-3.275-1.636-5.214-1.593-2.297.052-4.364.99-5.883 2.482-1.52 1.49-2.444 3.35-2.6 5.797-.036.143 2.08.23 5.332.066 3.087.477 7.427.238 11.73.145 4.19.347 8.455.398 11.73.145l5.33.066" fill="#FFF" mask="url(#b)"/><path d="M88.907 128.835c.032 0 .066.002.098.004 4.113.34 8.32.393 11.54.144.036-.003.072-.003.106-.003l4.328.054c.07-.353.16-.827.176-.99-.092-3.238-2.78-5.83-6.034-5.736-1.223.027-2.392.43-3.38 1.163-.302.227-.695.295-1.056.186-.36-.11-.65-.385-.777-.74-.545-1.53-1.978-2.532-3.62-2.495-1.74.04-3.212 1.257-3.58 2.96-.084.393-.36.716-.732.862-.375.145-.794.093-1.12-.14-1.323-.934-2.866-1.41-4.5-1.372-1.91.042-3.713.803-5.075 2.14-1.117 1.097-1.81 2.38-2.103 3.9.843.02 2.19.01 3.94-.078.08-.004.162 0 .242.012 2.438.377 5.75.286 9.258.19.75-.02 1.507-.042 2.263-.06h.027m7.18 2.69c-2.297 0-4.774-.102-7.216-.302-.73.017-1.46.037-2.186.057-3.564.096-6.93.19-9.567-.2-5.564.277-5.868-.097-6.19-.494-.193-.236-.29-.543-.27-.844.166-2.637 1.132-4.787 2.953-6.574 1.797-1.764 4.174-2.767 6.692-2.823 1.622-.035 3.19.314 4.612 1.023 1.006-1.97 3.02-3.28 5.32-3.333 2.17-.04 4.136 1.03 5.277 2.78 1.1-.56 2.307-.865 3.556-.893 4.57-.104 8.37 3.533 8.472 8.105.006.263-.055.625-.256 1.65-.06.306-.114.576-.128.69-.076.597-.586 1.065-1.186 1.065h-.015l-5.278-.065c-1.385.105-2.94.157-4.587.157" fill="#4B5170" mask="url(#b)"/><path d="M140.683 130.24c.028-.283.384-1.896.378-2.187-.087-3.92-3.335-7.026-7.253-6.938-1.525.034-2.924.553-4.063 1.4-.696-1.956-2.58-3.336-4.768-3.287-2.333.052-4.248 1.715-4.72 3.902-1.47-1.04-3.274-1.636-5.213-1.593-2.297.052-4.365.99-5.884 2.482-1.52 1.49-2.445 3.35-2.6 5.797-.037.143 2.08.23 5.332.066 3.086.477 7.426.238 11.73.145 4.19.347 8.455.398 11.73.145l5.33.066" fill="#FFF" mask="url(#b)"/><path d="M123.62 128.835c.034 0 .067.002.1.004 4.113.34 8.32.393 11.54.144.035-.003.07-.003.106-.003l4.326.054c.07-.353.16-.827.176-.99-.09-3.194-2.717-5.738-5.9-5.738-.044 0-.09 0-.134.002-1.223.027-2.392.43-3.38 1.163-.303.227-.695.295-1.057.185-.36-.11-.65-.384-.776-.74-.543-1.528-1.994-2.53-3.617-2.494-1.74.04-3.213 1.257-3.58 2.96-.085.393-.36.716-.733.862-.375.145-.795.093-1.122-.14-1.322-.934-2.867-1.41-4.5-1.372-1.91.042-3.712.803-5.074 2.14-1.116 1.097-1.81 2.38-2.103 3.9.846.02 2.19.01 3.94-.078.083-.004.163 0 .243.012 2.44.377 5.75.286 9.26.19.75-.02 1.507-.042 2.263-.06h.025m7.183 2.69c-2.3 0-4.775-.102-7.217-.302-.73.017-1.463.037-2.188.057-3.564.096-6.93.19-9.566-.2-5.56.277-5.867-.097-6.19-.493-.194-.236-.29-.543-.27-.845h-.002c.167-2.637 1.134-4.787 2.954-6.574 1.797-1.764 4.174-2.767 6.692-2.823 1.627-.035 3.19.314 4.612 1.023 1.006-1.97 3.02-3.28 5.322-3.333 2.172-.047 4.134 1.03 5.275 2.78 1.1-.56 2.307-.865 3.555-.893 4.583-.104 8.37 3.533 8.472 8.105.007.263-.055.625-.255 1.65-.06.306-.115.576-.13.69-.074.597-.585 1.065-1.185 1.065h-.014l-5.28-.065c-1.384.105-2.938.157-4.585.157" fill="#4B5170" mask="url(#b)"/><path d="M175.184 130.24c.028-.283.385-1.896.378-2.187-.088-3.92-3.335-7.026-7.254-6.938-1.525.034-2.924.553-4.063 1.4-.696-1.956-2.58-3.336-4.768-3.287-2.333.052-4.247 1.715-4.72 3.902-1.47-1.04-3.274-1.636-5.213-1.593-2.297.052-4.364.99-5.884 2.482-1.52 1.49-2.444 3.35-2.6 5.797-.036.143 2.08.23 5.333.066 3.087.477 7.427.238 11.73.145 4.19.347 8.455.398 11.73.145l5.33.066" fill="#FFF" mask="url(#b)"/><path d="M158.122 128.835c.033 0 .066.002.1.004 4.112.34 8.318.392 11.538.144.036-.003.072-.003.107-.003l4.327.054c.07-.353.158-.827.175-.99-.093-3.238-2.785-5.83-6.035-5.736-1.223.027-2.39.43-3.38 1.163-.302.227-.695.295-1.056.185-.362-.11-.65-.384-.777-.74-.545-1.528-1.985-2.53-3.62-2.494-1.74.04-3.212 1.257-3.58 2.96-.084.393-.36.716-.732.862-.374.145-.793.093-1.12-.14-1.322-.934-2.865-1.41-4.5-1.372-1.91.042-3.712.803-5.075 2.14-1.116 1.097-1.81 2.38-2.103 3.9.844.02 2.19.01 3.94-.078.082-.004.163 0 .242.012 2.44.377 5.752.286 9.26.19.75-.02 1.507-.042 2.263-.06h.025m7.182 2.69c-2.3 0-4.775-.102-7.217-.302-.73.017-1.462.037-2.188.057-3.564.096-6.93.19-9.567-.2-5.565.277-5.868-.097-6.192-.494-.19-.236-.287-.543-.268-.844.167-2.637 1.133-4.787 2.953-6.574 1.797-1.764 4.174-2.767 6.692-2.823 1.627-.035 3.19.314 4.613 1.023 1.006-1.97 3.02-3.28 5.32-3.333 2.17-.04 4.135 1.03 5.277 2.78 1.098-.56 2.306-.865 3.555-.893 4.572-.104 8.37 3.533 8.47 8.105.008.263-.054.625-.254 1.65-.06.306-.115.576-.13.69-.074.597-.585 1.065-1.185 1.065h-.014l-5.28-.065c-1.384.105-2.94.157-4.586.157" fill="#4B5170" mask="url(#b)"/></g></svg>