<svg width="48" height="48" viewBox="0 0 48 48" xmlns="http://www.w3.org/2000/svg" xmlns:xlink="http://www.w3.org/1999/xlink"><title>Page 1</title><defs><path id="a" d="M46.642 41.316V.034H.034v41.282z"/></defs><g fill="none" fill-rule="evenodd"><path d="M41.164 41.5H21.242c-1.344 0-3.46-.816-3.46-.816l.447-.39 27.44-23.87s.437 1.252.437 1.943v19.506c0 2.605-2.224 3.628-4.943 3.628" fill="#FFCD20"/><path d="M19.41 40.354c.624.175 1.32.327 1.832.327h19.922c1.28 0 2.334-.243 3.045-.704.725-.47 1.077-1.16 1.077-2.103V18.367c0-.124-.023-.29-.06-.47L19.41 40.353zm21.754 1.968H21.242c-1.48 0-3.664-.837-3.756-.873l-1.27-.492 29.83-25.946.398 1.142c.05.142.483 1.406.483 2.213v19.506c0 2.785-2.154 4.45-5.763 4.45z" fill="#58595B"/><path d="M38.785 32.34H27.34S39.45 21.347 39.75 21.473c.89.378 1.517 1.263 1.517 2.287l1.57 7.528c0 1.365-2.687 1.05-4.052 1.05" fill="#BAC1E1"/><path d="M29.467 31.518h9.318c.212 0 .448.007.698.015.56.016 1.194.035 1.728-.02.535-.057.733-.164.793-.207l-1.556-7.46v-.085c0-.53-.253-1.018-.667-1.328-1.388 1.085-6.42 5.572-10.313 9.086m10.91 1.673c-.317 0-.634-.008-.942-.017-.238-.007-.462-.014-.65-.014h-13.57l1.573-1.43c.03-.026 3.066-2.78 6.1-5.483 1.782-1.59 3.217-2.852 4.262-3.75.625-.54 1.12-.953 1.467-1.232.57-.458.948-.76 1.452-.546 1.197.508 1.98 1.66 2.015 2.95l1.57 7.533v.085c0 .46-.168.866-.49 1.18-.632.612-1.703.723-2.79.723" fill="#58595B"/><path d="M23.04 47.96h-2.15c-.984 0-1.698-1.084-1.698-2.575 0-.453.367-.82.82-.82.453 0 .82.367.82.82 0 .48.124.802.204.933h1.856c.08-.13.204-.452.204-.933 0-.453.367-.82.82-.82.453 0 .82.367.82.82 0 1.49-.714 2.574-1.697 2.574" fill="#4C5271"/><path d="M41.538 47.96h-2.15c-.984 0-1.697-1.084-1.697-2.575 0-.453.368-.82.82-.82.453 0 .82.367.82.82 0 .48.124.802.205.933h1.855c.08-.13.204-.452.204-.933 0-.453.368-.82.82-.82.453 0 .82.367.82.82 0 1.49-.713 2.574-1.696 2.574" fill="#58595B"/><path d="M39.852 44.936H22.627c-2.35 0-4.275-.318-4.275-1.127l-.123-3.516 6.677-5.81h14.945c2.35 0 4.275.663 4.275 1.473v7.852c0 .808-1.924 1.126-4.275 1.126" fill="#F5F3F1"/><path d="M19.168 43.66c.262.16 1.215.456 3.46.456H39.85c2.23 0 3.186-.293 3.455-.452V36.05c-.248-.247-1.454-.744-3.455-.744H25.214l-6.152 5.35.106 3.005zm20.684 2.096H22.627c-1.326 0-2.404-.094-3.205-.28-.502-.118-.89-.27-1.185-.465-.6-.396-.7-.903-.704-1.182l-.123-3.505c-.01-.248.095-.486.28-.648l6.68-5.81c.148-.128.34-.2.537-.2h14.945c2.536 0 5.095.71 5.095 2.292v7.852c0 .274-.092.795-.705 1.2-.296.196-.683.348-1.185.465-.8.187-1.88.28-3.205.28z" fill="#58595B"/><path d="M40.052 43.2h-.608c-.767 0-1.395-.627-1.395-1.395v-.608c0-.767.627-1.395 1.394-1.395h.608c.767 0 1.395.628 1.395 1.395v.608c0 .768-.628 1.396-1.395 1.396" fill="#FEFEFE"/><path d="M39.444 40.622c-.317 0-.575.258-.575.575v.608c0 .317.257.575.574.575h.608c.317 0 .575-.258.575-.575v-.608c0-.317-.258-.575-.575-.575h-.608zm.608 3.4h-.608c-1.22 0-2.215-.995-2.215-2.217v-.608c0-1.22.993-2.215 2.214-2.215h.608c1.22 0 2.214.994 2.214 2.215v.608c0 1.222-.993 2.216-2.214 2.216z" fill="#58595B"/><path d="M23.067 43.2h-.607c-.768 0-1.395-.627-1.395-1.395v-.608c0-.767.627-1.395 1.395-1.395h.607c.767 0 1.395.628 1.395 1.395v.608c0 .768-.628 1.396-1.395 1.396" fill="#FEFEFE"/><path d="M22.46 40.622c-.317 0-.575.258-.575.575v.608c0 .312.263.575.575.575h.607c.317 0 .575-.258.575-.575v-.608c0-.317-.258-.575-.575-.575h-.607zm.607 3.4h-.607c-1.222 0-2.215-.995-2.215-2.217v-.608c0-1.22.993-2.215 2.215-2.215h.607c1.22 0 2.215.994 2.215 2.215v.608c0 1.222-.994 2.216-2.215 2.216zM34.716 41.504h-6.953c-.453 0-.82-.367-.82-.82 0-.453.367-.82.82-.82h6.953c.453 0 .82.367.82.82 0 .453-.367.82-.82.82" fill="#58595B"/><path d="M34.716 43.14h-6.953c-.453 0-.82-.368-.82-.82 0-.454.367-.82.82-.82h6.953c.453 0 .82.366.82.82 0 .452-.367.82-.82.82M34.716 38.274h-6.953c-.453 0-.82-.368-.82-.82 0-.454.367-.82.82-.82h6.953c.453 0 .82.366.82.82 0 .452-.367.82-.82.82" fill="#58595B"/><path d="M34.716 39.91h-6.953c-.453 0-.82-.368-.82-.82 0-.454.367-.822.82-.822h6.953c.453 0 .82.368.82.82 0 .454-.367.82-.82.82M44.126 37.226c-.367 0-.7-.248-.794-.62l-1.29-5.118c-.11-.44.155-.885.594-.996.44-.11.885.156.996.595l1.29 5.118c.11.44-.156.885-.595.996-.067.018-.135.026-.2.026" fill="#58595B"/><path d="M41.12 22.933l1.595 7.812c.964 0 1.753-.79 1.753-1.754v-4.303c0-.964-2.384-1.754-3.348-1.754" fill="#F5F3F1"/><path d="M43.66 24.756zm-1.495-.8l1.17 5.73c.193-.17.313-.42.313-.695v-4.254c-.065-.094-.34-.35-1.014-.617-.157-.064-.315-.118-.47-.165zm.55 7.61c-.39 0-.725-.275-.803-.657l-1.595-7.812c-.05-.242.012-.493.168-.683.156-.19.39-.302.635-.302.627 0 1.578.235 2.368.586 1.488.66 1.8 1.444 1.8 1.987v4.304c0 1.42-1.154 2.575-2.573 2.575z" fill="#58595B"/><path fill="#FFCD20" d="M.82 34.02V1.016h20.203l7.176 7.18V9.96"/><path d="M1.64 1.835v30.373L27.38 9.59V8.534l-6.696-6.7H1.64zM.82 34.84c-.115 0-.23-.023-.338-.072C.188 34.635 0 34.343 0 34.02V1.016c0-.453.367-.82.82-.82h20.203c.218 0 .426.086.58.24l7.175 7.18c.154.153.24.36.24.58V9.96c0 .237-.1.462-.278.618L1.36 34.638c-.152.133-.345.203-.54.203z" fill="#57585A"/><path d="M21.023 9.014c-.453 0-.82-.367-.82-.82v-7.18c0-.452.367-.82.82-.82.453 0 .82.368.82.82v7.18c0 .453-.367.82-.82.82" fill="#57585A"/><path d="M28.2 9.014h-7.177c-.453 0-.82-.367-.82-.82 0-.453.367-.82.82-.82H28.2c.45 0 .818.367.818.82 0 .453-.367.82-.82.82M15.886 21.498H3.813c-.452 0-.82-.367-.82-.82 0-.453.368-.82.82-.82h12.073c.453 0 .82.367.82.82 0 .453-.367.82-.82.82M10.516 26.118H3.924c-.453 0-.82-.367-.82-.82 0-.454.367-.82.82-.82h6.592c.453 0 .82.366.82.82 0 .453-.367.82-.82.82M5.453 30.738h-1.53c-.452 0-.82-.368-.82-.82 0-.454.368-.82.82-.82h1.53c.453 0 .82.366.82.82 0 .452-.367.82-.82.82M5.43 7.288h.39c.308 0 .745-.083.993-.32.153-.153.26-.413.26-.66 0-.237-.095-.497-.272-.662-.188-.19-.53-.308-.98-.308h-.39v1.95zm1.147-3.533c.59 0 1.346.095 1.925.697.45.46.673 1.146.673 1.773 0 .673-.236 1.264-.626 1.642-.308.295-.72.473-1.088.543l3.52 4.74H8.817L5.43 8.61v3.026H3.39v-7.88h3.19z" fill="#57585A"/><path fill="#57585A" d="M9.152 7.787l-1.623 2.5-2.1 2.864h1.68l1.207-1.744 2.547-3.62"/><path fill="#BAC1E1" d="M21.023.867v7.18H28.2"/><path d="M21.843 7.226h4.376l-4.377-4.378v4.378zm6.356 1.64h-7.177c-.453 0-.82-.367-.82-.82V.866c0-.33.2-.63.506-.757.306-.128.658-.058.893.177l7.175 7.18c.235.233.305.586.178.893-.127.306-.426.506-.757.506z" fill="#57585A"/><g transform="translate(1.124 3.803)"><mask id="b" fill="#fff"><use xlink:href="#a"/></mask><path d="M46.28 2.296L2.36 40.89c-.504.542-1.36.57-1.9.066-.542-.505-.57-1.36-.066-1.902L44.314.46c.505-.542 1.36-.57 1.902-.066.54.505.57 1.36.065 1.902" fill="#FFCD20" mask="url(#b)"/></g></g></svg>