<svg width="35" height="36" viewBox="0 0 35 36" xmlns="http://www.w3.org/2000/svg" xmlns:xlink="http://www.w3.org/1999/xlink"><title>Page 1</title><defs><path id="a" d="M0 35.526h34.947V.022H0z"/></defs><g transform="translate(0 .096)" fill="none" fill-rule="evenodd"><mask id="b" fill="#fff"><use xlink:href="#a"/></mask><path d="M17.473 2.61C9.16 2.61 2.4 8.33 2.4 15.36c0 4.068 2.02 7.608 5.687 9.965.512.33.722 1.015.494 1.61l-1.69 4.388 5.916-3.504c.252-.15.545-.197.826-.132 1.252.286 2.473.42 3.84.42 8.313 0 15.076-5.72 15.076-12.75S25.785 2.61 17.473 2.61M4.47 35.526c-.29 0-.576-.113-.802-.33-.38-.368-.502-.953-.306-1.46l2.617-6.792C2.113 24.11 0 20.034 0 15.36c0-4.153 1.853-8.04 5.217-10.94C8.502 1.582 12.855.02 17.473.02s8.97 1.56 12.257 4.397c3.364 2.9 5.217 6.787 5.217 10.94 0 4.15-1.853 8.036-5.217 10.94-3.286 2.834-7.64 4.395-12.257 4.395-1.38 0-2.63-.12-3.896-.38l-8.53 5.052c-.182.107-.38.16-.578.16" fill="#FFF" mask="url(#b)"/></g></svg>