<svg width="296" height="153" viewBox="0 0 296 153" xmlns="http://www.w3.org/2000/svg"><title>Page 1</title><g fill="none" fill-rule="evenodd"><path d="M52.765 21.075c.41-.89.85-.892 1.284-.9l1.3-.056c.87-.028 1.737-.04 2.604-.038.867 0 1.734.018 2.6.043l2.586.102 10.377.045 5.192-.004h1.296l.163.002h.08l.11.01.323.04.638.06c.856.072 1.71.1 2.565.077.853-.02 1.707-.09 2.558-.212l.656-.1.644-.072 1.293-.16c.866-.106 1.742-.195 2.626-.19.885.002 1.778.108 2.665.366l-.063-.013c2.388.165 4.822-.222 7.298.006h-.037c2.34-.08 4.65.208 6.935.156.56-.013 1.15-.063 1.724-.092l1.74-.084c1.16-.04 2.33-.033 3.5.096l.44.055.11.015.075.013.053.012.215.05c.288.065.56.12.847.168.566.097 1.134.164 1.703.203 1.138.077 2.28.04 3.42-.088.565-.068 1.156-.147 1.735-.197.582-.053 1.165-.09 1.75-.102 1.166-.026 2.338.038 3.507.247l-.035-.003c1.75.045 3.502.016 5.256-.037 1.755-.05 3.512-.13 5.277-.12l.33.004.32-.01.66-.02 1.318-.03 2.637-.036c.88-.005 1.76-.003 2.64.012l1.32.033c.22.014.44.005.663.044.11.027.22.085.33.182.055.05.11.105.164.184.026.038.053.074.08.123.013.024.026.044.04.074l.02.045.01.023.008.015c0-.004.022.035.016.055h-.048c-.008.015.013.048.008.043l-.003.008c0 .006-.005.01-.008.016l-.02.032c-.014.024-.027.038-.042.058-.027.04-.055.068-.083.1-.055.066-.11.11-.165.15-.11.08-.22.125-.328.14-.217.016-.435-.01-.654-.01l-1.313-.017c-.876-.004-1.753.004-2.63.02l-2.63.067-1.317.05-.657.026-.34.012h-.327c-1.748.01-3.502.112-5.26.184-1.757.074-3.517.126-5.28.1h-.016l-.02-.002c-1.13-.19-2.272-.238-3.415-.198-.57.02-1.144.06-1.716.12-.576.06-1.136.14-1.724.218-1.166.146-2.337.198-3.51.132-.584-.032-1.17-.094-1.754-.187-.29-.045-.59-.102-.877-.164l-.215-.047-.054-.01-.013-.004c.007 0-.026-.005.014.002h-.007l-.026-.004-.107-.013-.425-.047c-1.136-.112-2.28-.105-3.428-.053l-1.726.105c-.58.036-1.146.092-1.74.112-2.338.08-4.648-.176-6.93-.073l-.017.002-.018-.002c-2.384-.225-4.812.16-7.285-.006l-.03-.002-.033-.01c-.82-.237-1.66-.34-2.504-.34-.845-.006-1.697.08-2.556.184l-1.296.16-.65.072-.636.098c-.874.126-1.75.196-2.624.217-.875.023-1.75-.005-2.624-.08l-.656-.06-.324-.04-.04-.004-.02-.003-.01-.002c-.03-.002.027.002.018 0h-.244l-1.297-.008-5.184-.047-10.377-.144-2.603-.126c-.862-.034-1.724-.06-2.586-.068-.862-.01-1.724-.007-2.585.012l-1.292.043c-.43.04-.854.078-1.308-.712M45.204 38.864c.36-.89.747-.892 1.127-.9l1.144-.056c.762-.027 1.523-.038 2.284-.037.762.002 1.523.02 2.284.045l2.27.1 9.11.046 4.557-.002h1.28l.07.002.097.01.284.04.562.06c.75.07 1.5.098 2.25.077.75-.02 1.498-.09 2.245-.213l.576-.1.567-.072 1.134-.16c.76-.105 1.53-.194 2.306-.19.777.002 1.56.108 2.34.366l-.055-.01c2.096.163 4.233-.224 6.407.004h-.033c2.053-.08 4.08.21 6.087.156.49-.012 1.008-.062 1.512-.09l1.526-.085c1.02-.038 2.046-.032 3.074.097l.385.054.097.015.066.012.047.013.19.05c.25.065.49.12.742.168.497.097.996.164 1.495.202 1 .077 2.002.04 3.003-.087.495-.07 1.015-.147 1.523-.198.51-.053 1.022-.09 1.534-.102 1.025-.027 2.054.038 3.08.247l-.03-.004c1.536.047 3.073.018 4.613-.036 1.54-.05 3.083-.13 4.632-.12l.29.004.28-.008.58-.02 1.157-.03 2.315-.037c.772-.005 1.543-.002 2.316.012l1.16.034c.193.013.387.004.58.043.098.027.195.085.29.183.05.05.097.105.145.184.025.037.048.073.072.123.01.024.023.044.035.073l.018.045.01.025.006.014c0-.005.02.034.015.054h-.043c-.006.016.012.048.008.043l-.003.01c0 .004-.006.01-.008.014l-.018.033c-.013.024-.025.038-.037.058-.024.04-.05.07-.073.1-.05.067-.097.112-.145.153-.096.08-.192.124-.288.14-.192.014-.383-.01-.575-.01l-1.153-.02c-.77-.003-1.54.006-2.308.02l-2.31.07-1.155.047-.578.027-.298.013h-.287c-1.535.01-3.075.112-4.618.184-1.543.074-3.09.125-4.636.1h-.014l-.017-.003c-.994-.187-1.995-.237-3-.197-.5.02-1.002.062-1.504.12-.506.06-1 .14-1.515.22-1.023.145-2.05.196-3.08.13-.514-.032-1.028-.093-1.54-.186-.255-.046-.52-.102-.77-.164l-.19-.047-.046-.012-.013-.003c.006.002-.022-.004.012.004h-.007l-.023-.004-.093-.013-.374-.048c-.997-.113-2-.105-3.01-.053l-1.514.105c-.51.036-1.007.09-1.53.112-2.05.08-4.08-.177-6.082-.074h-.032c-2.093-.226-4.224.16-6.395-.006l-.026-.003-.028-.008c-.72-.238-1.456-.34-2.198-.34-.742-.006-1.49.08-2.244.184l-1.138.16-.57.072-.56.098c-.765.125-1.534.196-2.302.217-.768.022-1.537-.006-2.303-.08l-.576-.062-.284-.037-.035-.005-.018-.002h-.01c-.025-.003.025 0 .017 0h-.214l-1.138-.01-4.552-.046-9.11-.144-2.284-.127c-.756-.034-1.513-.06-2.27-.07-.757-.007-1.514-.006-2.27.014l-1.134.043c-.378.04-.75.077-1.148-.713M38.847 56.653c.297-.89.618-.89.932-.9l.943-.055c.63-.028 1.26-.038 1.888-.037.63.002 1.26.02 1.89.044l1.874.102 7.528.044 3.767-.003h.94l.118.002h.058l.08.01.234.038.464.06c.62.073 1.24.1 1.86.078.62-.02 1.238-.09 1.855-.212l.475-.1.468-.073.938-.158c.63-.106 1.265-.194 1.907-.19.64.002 1.29.108 1.933.365l-.046-.01c1.732.164 3.498-.223 5.295.005h-.028c1.698-.08 3.374.208 5.03.155.407-.01.834-.06 1.25-.09l1.262-.085c.843-.038 1.69-.032 2.54.097l.32.054.08.014.054.014.038.012.156.05c.21.065.408.12.615.168.41.097.823.164 1.236.203.825.077 1.654.04 2.48-.088.41-.068.84-.147 1.26-.198.42-.054.844-.09 1.268-.103.848-.026 1.698.038 2.546.247l-.025-.003c1.27.047 2.54.017 3.813-.036 1.274-.05 2.548-.13 3.828-.12l.24.003.233-.007.478-.02.957-.032 1.914-.036c.64-.005 1.277-.002 1.915.012l.96.034c.158.015.32.006.48.044.08.027.16.086.24.183.04.05.078.105.118.184.02.037.04.073.058.122.01.024.02.044.03.074l.015.044.008.024.005.014c0-.004.016.035.012.055h-.035c-.006.016.01.05.006.043v.01l-.008.015-.014.033c-.01.024-.02.037-.03.058-.02.04-.04.07-.06.1-.04.067-.08.11-.12.153-.08.08-.16.123-.238.138-.158.016-.317-.01-.475-.01l-.953-.016c-.636-.004-1.27.004-1.908.02l-1.908.067-.954.05-.478.027-.246.012h-.237c-1.267.01-2.54.11-3.815.183-1.275.075-2.552.126-3.83.102h-.013l-.014-.004c-.82-.188-1.648-.237-2.477-.198-.414.02-.83.062-1.244.122-.417.058-.824.14-1.25.217-.846.147-1.696.2-2.545.133-.424-.032-.85-.094-1.273-.187-.21-.045-.43-.102-.636-.164l-.155-.047-.04-.01-.01-.005c.006.002-.018-.004.01.003h-.004l-.018-.004-.077-.014-.31-.047c-.823-.113-1.653-.106-2.486-.053l-1.253.104c-.42.037-.83.093-1.263.113-1.696.08-3.37-.177-5.026-.074h-.027c-1.728-.226-3.49.16-5.283-.007l-.023-.002-.023-.01c-.595-.237-1.203-.338-1.816-.34-.613-.005-1.23.08-1.854.185l-.94.16-.47.072-.463.098c-.634.126-1.27.196-1.904.218-.635.02-1.27-.007-1.903-.08l-.477-.063-.235-.037-.03-.005-.013-.003h-.008c-.02-.003.02 0 .013 0h-.176l-.94-.01-3.763-.046-7.526-.145-1.888-.126c-.626-.034-1.25-.06-1.877-.07-.626-.008-1.252-.006-1.877.013l-.937.043c-.313.04-.62.078-.95-.713M31.286 74.443c.338-.89.703-.892 1.062-.9l1.077-.055c.717-.028 1.435-.04 2.152-.038.717 0 1.435.018 2.152.043l2.136.102 8.583.045 4.293-.003h1.073l.134.002h.067l.09.01.268.037.528.06c.707.073 1.414.1 2.12.078.707-.02 1.413-.09 2.116-.212l.542-.1.534-.072 1.068-.16c.717-.104 1.442-.193 2.173-.188.732 0 1.47.107 2.204.365l-.05-.012c1.974.165 3.987-.222 6.035.006h-.03c1.936-.078 3.846.21 5.735.157.464-.012.95-.06 1.425-.09l1.44-.085c.96-.04 1.926-.033 2.895.097l.363.053.09.015.063.013.045.013.178.05c.238.065.464.12.7.168.47.098.94.165 1.41.204.94.077 1.885.04 2.828-.087.467-.07.956-.147 1.435-.198.482-.055.964-.09 1.447-.103.966-.027 1.935.038 2.902.247l-.03-.004c1.447.046 2.896.016 4.347-.036 1.45-.05 2.904-.13 4.364-.12l.274.003.264-.008.546-.02 1.09-.032 2.18-.036c.73-.005 1.456-.003 2.184.012l1.092.034c.183.014.365.005.55.044.09.027.18.085.272.182.045.05.09.106.135.185.023.036.045.072.067.122.01.024.022.043.033.073l.017.045.01.024.005.014c-.002-.004.016.035.012.055h-.04c-.006.016.012.048.007.043l-.004.008c0 .006-.005.01-.007.016l-.017.033c-.012.023-.023.037-.035.057-.023.04-.046.07-.07.1-.044.066-.09.11-.135.152-.09.08-.18.124-.27.14-.18.014-.362-.01-.542-.01l-1.085-.02c-.725-.003-1.45.006-2.176.02l-2.177.07-1.088.047-.543.026-.28.012h-.272c-1.446.012-2.897.112-4.35.185-1.454.074-2.91.125-4.368.1h-.013l-.017-.003c-.936-.188-1.88-.238-2.824-.198-.474.02-.947.062-1.42.12-.476.06-.94.14-1.426.22-.964.144-1.933.196-2.902.13-.484-.032-.968-.094-1.452-.187-.24-.045-.488-.1-.725-.163l-.178-.048-.044-.01-.01-.004.01.002h-.005l-.022-.004-.088-.012-.352-.048c-.94-.112-1.886-.105-2.835-.052l-1.426.104c-.48.037-.948.092-1.44.113-1.934.08-3.844-.177-5.73-.074h-.016l-.015-.002c-1.97-.225-3.98.16-6.026-.005l-.024-.003-.027-.01c-.68-.237-1.372-.34-2.07-.34-.7-.005-1.405.08-2.115.184l-1.07.16-.54.073-.525.098c-.722.125-1.446.196-2.17.217-.724.022-1.448-.006-2.17-.08l-.544-.062-.266-.038-.033-.005-.016-.002h-.01c-.022-.003.025 0 .017 0h-.201l-1.073-.01-4.29-.046-8.58-.146-2.153-.126c-.713-.033-1.426-.06-2.14-.068-.713-.01-1.426-.007-2.138.013l-1.068.043c-.357.04-.707.077-1.082-.713M21.48 92.232c.407-.89.848-.892 1.28-.9l1.3-.055c.865-.028 1.73-.038 2.595-.037.865 0 1.73.018 2.594.043l2.578.102 10.35.044 5.178-.004h1.294l.162.002h.08l.11.01.323.04.637.06c.852.072 1.704.1 2.556.077.852-.02 1.703-.09 2.552-.212l.654-.1.644-.073 1.29-.16c.863-.105 1.737-.193 2.62-.19.88.003 1.772.11 2.657.367l-.062-.012c2.38.165 4.81-.223 7.28.006h-.038c2.334-.078 4.638.21 6.917.156.558-.01 1.145-.06 1.718-.09l1.735-.084c1.158-.04 2.324-.033 3.492.096l.438.055.11.014.075.014.054.013.214.05c.286.065.56.12.845.168.564.098 1.13.165 1.7.203 1.134.078 2.273.04 3.41-.087.563-.068 1.153-.147 1.73-.198.58-.053 1.16-.09 1.744-.102 1.164-.026 2.334.038 3.5.247l-.035-.003c1.745.046 3.492.016 5.242-.037 1.75-.05 3.503-.13 5.262-.12l.33.003.32-.007.657-.02 1.315-.033 2.63-.036c.877-.003 1.754 0 2.632.013l1.318.034c.22.015.44.006.66.045.11.026.22.084.33.182.054.05.11.105.163.184.028.038.055.074.082.123.013.026.027.045.04.075l.02.044.012.023.006.015c0-.004.02.035.016.054h-.048c-.008.016.014.05.008.043l-.003.01c0 .005-.006.01-.008.015l-.02.032c-.015.023-.028.038-.042.058-.028.04-.056.068-.083.1-.055.065-.11.11-.165.152-.11.08-.218.123-.327.14-.217.013-.435-.012-.653-.012l-1.31-.017c-.873-.004-1.748.004-2.622.02l-2.624.067-1.314.048-.656.027-.337.013h-.327c-1.744.01-3.494.112-5.246.184-1.753.074-3.51.125-5.268.1h-.015l-.02-.002c-1.128-.19-2.267-.238-3.407-.198-.57.02-1.14.06-1.71.12-.574.058-1.134.14-1.72.218-1.163.146-2.33.198-3.5.132-.583-.033-1.167-.094-1.75-.187-.29-.046-.59-.102-.874-.164l-.215-.046-.053-.012-.013-.002c.007 0-.025-.006.014.002h-.007l-.025-.004-.106-.013-.426-.047c-1.133-.112-2.274-.105-3.42-.053l-1.72.105c-.58.036-1.143.092-1.737.112-2.33.08-4.635-.177-6.91-.074H70.1c-2.377-.225-4.8.16-7.266-.006l-.03-.002-.032-.01c-.82-.238-1.655-.34-2.498-.34-.843-.006-1.693.08-2.55.184l-1.292.16-.648.072-.635.098c-.872.125-1.745.196-2.618.217-.873.023-1.746-.004-2.617-.078l-.655-.062-.323-.038-.04-.005-.02-.003h-.01c-.03-.003.027 0 .018 0h-.243l-1.294-.01-5.17-.046-10.35-.144-2.597-.126c-.86-.034-1.718-.06-2.58-.068-.86-.01-1.718-.007-2.578.012l-1.288.043c-.43.04-.852.078-1.304-.713M13.918 110.022c.46-.89.96-.892 1.448-.9l1.47-.056c.98-.028 1.96-.038 2.938-.037.978 0 1.957.017 2.935.042l2.916.102 11.712.045 5.86-.004h1.647l.09.002.124.01.366.038.72.06c.964.073 1.93.1 2.893.078.964-.02 1.927-.09 2.887-.212l.74-.1.73-.072 1.457-.16c.98-.105 1.968-.194 2.966-.19.998.002 2.006.108 3.008.366l-.072-.012c2.695.165 5.443-.222 8.237.006h-.043c2.64-.08 5.248.208 7.826.156.633-.012 1.297-.06 1.945-.09l1.962-.085c1.312-.038 2.63-.032 3.952.098l.496.054.124.015.085.013.06.012.243.05c.324.065.633.12.956.168.64.097 1.28.164 1.922.203 1.284.077 2.573.04 3.86-.087.637-.07 1.304-.147 1.957-.198.657-.054 1.315-.09 1.974-.103 1.316-.026 2.64.04 3.958.247l-.04-.003c1.975.045 3.952.015 5.932-.038 1.98-.05 3.963-.13 5.954-.12l.374.004.36-.008.744-.02 1.488-.032 2.977-.035c.992-.004 1.984-.002 2.977.013l1.49.034c.25.014.5.005.75.044.124.028.248.086.372.183.062.05.124.105.185.184.03.04.062.074.092.123.015.025.03.044.045.074l.023.045.013.023.008.014c0-.004.025.035.02.055h-.056c-.008.015.015.048.01.043l-.004.008c0 .006-.007.01-.01.016l-.023.03c-.016.025-.03.04-.047.06-.03.04-.062.068-.093.1-.063.065-.125.11-.187.15-.124.08-.247.125-.37.14-.246.015-.49-.01-.738-.01l-1.482-.018c-.99-.004-1.978.005-2.968.02l-2.97.068-1.484.047-.742.028-.382.012h-.37c-1.973.012-3.953.112-5.936.184-1.983.076-3.97.127-5.96.103h-.018l-.02-.004c-1.278-.19-2.566-.24-3.856-.2-.645.02-1.29.063-1.936.122-.65.058-1.282.14-1.945.218-1.316.145-2.638.197-3.96.132-.66-.033-1.32-.095-1.98-.188-.327-.045-.668-.1-.99-.163l-.243-.047-.06-.01-.016-.004c.008 0-.03-.006.016 0h-.008l-.03-.003-.12-.012-.48-.048c-1.282-.112-2.573-.105-3.868-.052l-1.948.104c-.655.036-1.293.09-1.965.112-2.637.08-5.243-.177-7.818-.074H68.93c-2.69-.226-5.43.16-8.22-.006l-.035-.003-.037-.01c-.926-.238-1.872-.34-2.825-.34-.954-.006-1.916.08-2.885.183l-1.463.16-.733.073-.718.097c-.986.126-1.974.196-2.96.218-.99.023-1.977-.005-2.962-.08l-.742-.06-.365-.04-.045-.004-.023-.002h-.012c-.032-.003.032 0 .02 0h-.273l-1.464-.01-5.852-.046-11.71-.145-2.937-.126c-.974-.033-1.947-.06-2.92-.068-.973-.01-1.946-.008-2.918.012l-1.458.043c-.487.04-.964.077-1.476-.713M7.562 127.81c.516-.89 1.075-.89 1.622-.898l1.646-.056c1.096-.028 2.193-.038 3.288-.038 1.096.002 2.192.018 3.287.044l3.267.102 13.113.044 6.56-.003h1.64l.205.002h.102l.138.01.41.04.806.06c1.08.072 2.16.1 3.24.077 1.08-.02 2.157-.09 3.232-.213l.83-.1.814-.07 1.634-.16c1.094-.106 2.202-.195 3.32-.19 1.116.002 2.246.108 3.366.366l-.08-.012c3.018.165 6.094-.223 9.224.006h-.047c2.956-.08 5.875.208 8.762.155.708-.01 1.452-.06 2.177-.09l2.197-.085c1.468-.038 2.944-.032 4.424.097l.556.055.14.014.095.013.068.012.272.05c.363.065.71.12 1.07.168.715.097 1.433.164 2.152.202 1.44.077 2.88.04 4.323-.087.713-.068 1.46-.147 2.192-.198.735-.053 1.47-.09 2.21-.102 1.474-.026 2.955.038 4.433.247l-.045-.004c2.21.046 4.425.016 6.642-.036 2.217-.05 4.437-.13 6.667-.12l.418.003.403-.008.834-.02 1.665-.03 3.333-.037c1.11-.005 2.222-.002 3.334.012l1.67.034c.278.014.557.006.836.044.14.028.28.086.418.183.07.05.138.105.207.184.034.038.068.074.102.123.017.024.034.044.05.074l.027.044c.005.008.006.014.014.024l.01.014c-.004-.004.025.036.02.055h-.062c-.01.017.016.05.01.044l-.004.01c0 .005-.008.01-.01.015l-.027.03c-.017.025-.035.04-.052.058-.034.04-.07.07-.104.1-.07.067-.14.11-.21.152-.137.08-.276.124-.413.14-.275.014-.55-.01-.827-.01l-1.66-.02c-1.106-.002-2.215.006-3.322.022l-3.325.067-1.663.047-.83.027-.43.013h-.414c-2.21.01-4.426.112-6.646.184-2.22.075-4.446.126-6.673.102h-.02l-.025-.003c-1.43-.19-2.873-.24-4.317-.2-.722.02-1.445.062-2.168.12-.726.06-1.435.14-2.178.22-1.473.145-2.953.196-4.433.13-.74-.03-1.48-.093-2.22-.186-.364-.045-.745-.102-1.107-.164l-.27-.047-.07-.012-.016-.002.02.003h-.01l-.033-.003-.135-.013-.537-.047c-1.436-.112-2.882-.105-4.332-.053l-2.18.105c-.735.035-1.45.09-2.2.11-2.955.08-5.873-.176-8.756-.073h-.047c-3.012-.225-6.08.16-9.205-.006h-.04l-.04-.01c-1.038-.24-2.095-.34-3.164-.342-1.067-.005-2.143.08-3.23.185l-1.637.16-.82.072-.804.098c-1.105.126-2.21.196-3.317.217-1.106.022-2.212-.005-3.316-.08l-.83-.062-.41-.038-.05-.004-.026-.003h-.01c-.038-.003.034 0 .022 0h-.307l-1.64-.01-6.552-.046-13.112-.144-3.287-.127c-1.09-.033-2.18-.058-3.27-.067-1.088-.01-2.178-.01-3.267.01l-1.63.044c-.546.04-1.08.077-1.654-.713M0 145.6c.744-.89 1.548-.89 2.336-.9l2.37-.055c1.58-.027 3.158-.038 4.737-.037 1.578 0 3.156.018 4.734.043l4.704.103 18.886.044 9.448-.003h2.36l.296.002h.148l.198.012.59.037 1.162.06c1.554.073 3.11.1 4.664.078 1.555-.02 3.108-.09 4.656-.212l1.194-.1 1.174-.07 2.352-.162c1.576-.105 3.17-.193 4.78-.188 1.61 0 3.236.107 4.85.365l-.114-.012c4.345.165 8.775-.223 13.282.006l-.068-.002c4.26-.078 8.463.21 12.62.156 1.02-.01 2.09-.06 3.136-.09l3.165-.084c2.113-.04 4.24-.033 6.372.096l.8.055.2.016.136.013.097.01.392.05c.522.066 1.02.12 1.54.17 1.03.097 2.065.163 3.1.202 2.072.077 4.15.04 6.225-.087 1.027-.07 2.103-.147 3.157-.198 1.057-.054 2.118-.09 3.18-.103 2.125-.026 4.258.04 6.386.247l-.064-.002c3.184.046 6.372.016 9.564-.037 3.194-.05 6.39-.13 9.602-.118l.602.003.582-.008 1.2-.02 2.4-.032 4.8-.035c1.6-.005 3.2-.003 4.8.012l2.404.033c.402.015.804.006 1.207.045.2.027.4.085.6.182.1.05.2.105.298.184.05.038.1.074.148.124.025.024.05.043.074.073l.037.044c.007.01.01.015.02.025l.012.014c-.003-.004.038.035.03.054h-.09c-.013.017.025.05.016.044l-.006.008c0 .006-.01.01-.015.016l-.037.032c-.026.024-.05.038-.076.058-.05.04-.1.07-.152.1-.1.066-.2.11-.3.152-.2.08-.398.123-.597.14-.395.014-.793-.01-1.19-.01l-2.39-.02c-1.595-.003-3.19.006-4.786.02l-4.79.068-2.393.05-1.196.026-.616.012h-.597c-3.18.012-6.374.112-9.572.184-3.198.075-6.402.126-9.61.102h-.03l-.034-.004c-2.058-.19-4.136-.238-6.215-.198-1.04.02-2.08.06-3.122.12-1.046.06-2.067.14-3.137.22-2.12.144-4.253.196-6.384.13-1.066-.032-2.13-.094-3.195-.187-.527-.045-1.075-.1-1.596-.164l-.39-.047-.098-.012-.024-.002c.012 0-.047-.005.025.002h-.012l-.047-.004-.194-.012-.775-.048c-2.067-.112-4.15-.105-6.24-.052l-3.14.104c-1.056.037-2.085.092-3.168.113-4.254.08-8.456-.176-12.608-.073h-.069c-4.336-.226-8.755.16-13.256-.007l-.055-.002-.06-.01c-1.495-.237-3.02-.34-4.557-.34-1.538-.006-3.088.08-4.652.184l-2.357.16-1.182.073-1.158.097c-1.59.126-3.182.196-4.775.218-1.592.022-3.185-.006-4.774-.08l-1.196-.062-.59-.038-.072-.005-.037-.002-.02-.002c-.05 0 .052.003.035.003h-.148l-.295-.002-2.36-.007-9.436-.046-18.885-.144-4.736-.127c-1.57-.033-3.138-.06-4.707-.068-1.57-.01-3.138-.007-4.706.012l-2.35.043c-.784.04-1.553.078-2.38-.713" fill="#FFDD15"/><path d="M295.863 76.085c-.002 2.126-.06 4.26-.188 6.393-.96 27.384-18.836 52.92-43.87 63.565-1.515.642-3.055 1.236-4.617 1.78-1.562.544-3.148 1.04-4.755 1.482-6.427 1.772-13.197 2.718-20.186 2.718-11.983 0-23.317-2.78-33.395-7.735-2.52-1.238-4.96-2.612-7.313-4.113-5.525-3.835-10.624-8.336-15.127-13.365-1.5-1.677-2.935-3.41-4.297-5.2-3.297-4.484-6.102-9.336-8.38-14.432-2.276-4.842-4.025-10.812-5.212-15.888-.592-3.1-1.044-5.567-1.35-8.255-.262-2.32-.434-3.59-.515-5.984-.114-5.344.235-8.92.993-13.044.76-3.63 1.926-8.793 3.45-12.578 1.522-3.98 3.4-7.67 5.58-11.477 2.183-3.67 4.666-7.64 7.4-11.24 1.56-1.437 3.203-3.47 4.92-5.663 3.845-4.215 8.138-7.822 12.755-10.408 4.617-2.934 9.558-5.243 14.7-7.545 2.572-.318 5.194-1.88 7.85-2.58 4.23-.836 8.524-1.14 12.83-2.217 4.31-.533 8.63-.285 12.907.225 8.557.922 16.948 3.348 24.74 7.03 7.795 3.68 14.99 8.615 21.156 14.557 1.72 1.65 3.353 3.308 4.89 5.115 4.47 5.872 7.75 12.524 10.17 19.523.806 2.333 1.512 4.705 2.115 7.096 1.218 4.563 1.6 9.518 2.223 14.474.273 2.952.47 5.945.525 7.767" fill="#F6F3F1"/><path d="M255.8 18.68c-.09.028.386.62.57 1.89.942 1.04.66 3.042 1.547 5.13 1.105 2.023 1.39 4.736 2.28 7.56l1.338 4.44c.904 1.4 1.347 2.998 1.43 4.742.647 2.834 1.36 5.758 2.576 8.544.476 1.433.89 2.89 1.305 4.337.414 1.448.827 2.89 1.298 4.292.4 1.426 1.19 2.713 1.262 4.188.41 1.37.906 2.686 1.212 4.016.994 3.492 1.36 6.873 2.833 9.396.4 1.363.85 2.58 1.22 3.664.372 1.084.664 2.033.747 2.86.335 1.603.52 2.51.737 2.443.572 1.655.6 3.364-.25 5.098-.683 1.685-2.447 3.456-3.3 4.582-1.995 1.472-3.612 2.46-5.64 3.074l-1.763.534c-1.414.43-2.98.903-4.916 1.49l-3.6 1.09-3.916 1.186-4.59 1.39-4.967 1.504-5.37 1.627-5.67 1.717-8.488 2.57-4.506 1.365-4.252 1.287-4.416 1.338-4.41 1.335-8.69 2.632c-2.63.796-5.847 1.77-8.35 2.53l-7.812 2.365c-2.48.75-4.75 1.44-7.068 2.14l-4.852 1.47-4.184 1.267-5.982 1.812c-1.415.428-1.978.6-2.164.655-2.192.665-4.6.897-6.394.57-2.2-.2-3.66-.994-5.28-1.98-1.597-.995-2.557-2.42-3.025-4.107-.24.072.077-.76-.57-1.89-.608-1.142-.905-2.967-1.547-5.13l-1.063-3.527c-.425-1.253-.834-2.602-1.216-4.034-.438-2.574-1.965-5.044-2.403-7.97-.472-1.388-.95-2.805-1.397-4.25-.437-1.45-1.086-2.853-1.217-4.42-.737-1.385-.75-2.996-1.335-4.428-.213-1.544-.86-2.952-1.326-4.397-.57-1.414-1.04-2.84-1.452-4.255-.32-1.442-.77-2.814-1.092-4.182-.56-1.298-.713-2.676-1.15-3.913-.196-1.31-.553-2.516-1.114-3.595-.668-1.045-.647-2.232-.975-3.235-.422-.974-.49-1.975-.845-2.798-.843-1.607-.937-3.073-1.212-4.02-.162-.98-.15-1.547-.44-1.46-.537-1.665-.676-3.34.25-5.097.484-1.623 1.528-3.177 3.3-4.58 1.53-1.332 3.45-2.412 5.64-3.076L139.28 44l9.035-2.736 11.328-3.43 6.284-1.904 6.57-1.99 6.448-1.952 7.172-2.173 6.932-2.1 6.686-2.025 6.42-1.944c2.036-.616 4.073-1.233 6.435-1.95 2.155-.65 3.797-1.15 5.903-1.786 2.1-.636 3.727-1.13 5.426-1.643 1.567-.476 3.204-.97 4.76-1.442l4.275-1.295c1.16-.35 2.063-.625 3.416-1.034l2.567-.778 2.164-.655c.958-.29 2.237-.553 3.344-.655 1.27-.152 2.112-.065 3.05.085.864.172 1.85.4 2.683.75 1.124.262 1.274.895 2.6 1.232.585.56.977 1.24 1.858 1.816.547.678.9 1.457 1.165 2.29" fill="#BAC2E2"/><path d="M255.8 18.68c-.09.028.386.62.57 1.89.942 1.04.66 3.042 1.547 5.13 1.105 2.023 1.39 4.736 2.28 7.56l1.338 4.44c.904 1.4 1.347 2.998 1.43 4.742.647 2.834 1.36 5.758 2.576 8.544.476 1.433.89 2.89 1.305 4.337.414 1.448.827 2.89 1.298 4.292.4 1.426 1.19 2.713 1.262 4.188.41 1.37.906 2.686 1.212 4.016.994 3.492 1.36 6.873 2.833 9.396.4 1.363.85 2.58 1.22 3.664.372 1.084.664 2.033.747 2.86.335 1.603.52 2.51.737 2.443.572 1.655.6 3.364-.25 5.098-.683 1.685-2.447 3.456-3.3 4.582-1.995 1.472-3.612 2.46-5.64 3.074l-1.763.534c-1.414.43-2.98.903-4.916 1.49l-3.6 1.09-3.916 1.186-4.59 1.39-4.967 1.504-5.37 1.627-5.67 1.717-8.488 2.57-4.506 1.365-4.252 1.287-4.416 1.338-4.41 1.335-8.69 2.632c-2.63.796-5.847 1.77-8.35 2.53l-7.812 2.365c-2.48.75-4.75 1.44-7.068 2.14l-4.852 1.47-4.184 1.267-5.982 1.812c-1.415.428-1.978.6-2.164.655-2.192.665-4.6.897-6.394.57-2.2-.2-3.66-.994-5.28-1.98-1.597-.995-2.557-2.42-3.025-4.107-.24.072.077-.76-.57-1.89-.608-1.142-.905-2.967-1.547-5.13l-1.063-3.527c-.425-1.253-.834-2.602-1.216-4.034-.438-2.574-1.965-5.044-2.403-7.97-.472-1.388-.95-2.805-1.397-4.25-.437-1.45-1.086-2.853-1.217-4.42-.737-1.385-.75-2.996-1.335-4.428-.213-1.544-.86-2.952-1.326-4.397-.57-1.414-1.04-2.84-1.452-4.255-.32-1.442-.77-2.814-1.092-4.182-.56-1.298-.713-2.676-1.15-3.913-.196-1.31-.553-2.516-1.114-3.595-.668-1.045-.647-2.232-.975-3.235-.422-.974-.49-1.975-.845-2.798-.843-1.607-.937-3.073-1.212-4.02-.162-.98-.15-1.547-.44-1.46-.537-1.665-.676-3.34.25-5.097.484-1.623 1.528-3.177 3.3-4.58 1.53-1.332 3.45-2.412 5.64-3.076L139.28 44l9.035-2.736 11.328-3.43 6.284-1.904 6.57-1.99 6.448-1.952 7.172-2.173 6.932-2.1 6.686-2.025 6.42-1.944c2.036-.616 4.073-1.233 6.435-1.95 2.155-.65 3.797-1.15 5.903-1.786 2.1-.636 3.727-1.13 5.426-1.643 1.567-.476 3.204-.97 4.76-1.442l4.275-1.295c1.16-.35 2.063-.625 3.416-1.034l2.567-.778 2.164-.655c.958-.29 2.237-.553 3.344-.655 1.27-.152 2.112-.065 3.05.085.864.172 1.85.4 2.683.75 1.124.262 1.274.895 2.6 1.232.585.56.977 1.24 1.858 1.816.547.678.9 1.457 1.165 2.29z" stroke="#4B5170" stroke-width="4" stroke-linejoin="round"/><path d="M249.016 22.646c-.058-.032-.255.763-1.047 1.958-.3 1.46-1.8 2.997-2.844 5.317-.902 2.398-2.64 4.887-4.19 7.836-.785 1.47-1.608 3.01-2.46 4.6-.563 1.746-1.465 3.377-2.627 4.915-1.663 2.812-3.36 5.74-4.735 8.856-.776 1.512-1.593 3.005-2.406 4.492-.813 1.487-1.62 2.967-2.377 4.45-.803 1.46-1.34 3.038-2.32 4.34-.76 1.42-1.447 2.843-2.227 4.164-1.96 3.583-4.123 6.69-5.206 9.737-.76 1.405-1.4 2.718-1.98 3.868-.58 1.15-1.104 2.137-1.636 2.893-.954 1.572-1.494 2.458-1.354 2.533-.884 1.76-2.046 3.234-3.613 4.198-1.46 1.023-3.456 1.462-4.608 1.905-1.893.044-3.287-.095-4.604-.802l-1.146-.616-3.195-1.716-2.34-1.255c-.837-.45-1.71-.92-2.544-1.367l-2.982-1.602-3.228-1.733-3.49-1.874c-.92-.496-2.07-1.113-3.685-1.98l-5.516-2.963-2.93-1.573c-.96-.516-1.897-1.02-2.762-1.483l-2.87-1.54-2.865-1.54c-1.7-.91-3.866-2.076-5.647-3.032l-5.428-2.915-5.076-2.726-4.592-2.466-3.154-1.693-2.72-1.46c-1.537-.827-2.93-1.575-3.886-2.088l-1.407-.756c-1.424-.765-2.647-2.032-3.215-3.397-.834-1.51-.933-3.074-.97-4.9-.022-1.817 126.083-39.52 126.395-38.82.262.67.54 1.463.67 2.27.315.905-.054 1.536.3 2.628-.127.835-.42 1.653-.427 2.68-.224.91-.604 1.788-1.06 2.66" fill="#BAC2E2"/><path d="M249.016 22.646c-.058-.032-.255.763-1.047 1.958-.3 1.46-1.8 2.997-2.844 5.317-.902 2.398-2.64 4.887-4.19 7.836-.785 1.47-1.608 3.01-2.46 4.6-.563 1.746-1.465 3.377-2.627 4.915-1.663 2.812-3.36 5.74-4.735 8.856-.776 1.512-1.593 3.005-2.406 4.492-.813 1.487-1.62 2.967-2.377 4.45-.803 1.46-1.34 3.038-2.32 4.34-.76 1.42-1.447 2.843-2.227 4.164-1.96 3.583-4.123 6.69-5.206 9.737-.76 1.405-1.4 2.718-1.98 3.868-.58 1.15-1.104 2.137-1.636 2.893-.954 1.572-1.494 2.458-1.354 2.533-.884 1.76-2.046 3.234-3.613 4.198-1.46 1.023-3.456 1.462-4.608 1.905-1.893.044-3.287-.095-4.604-.802l-1.146-.616-3.195-1.716-2.34-1.255c-.837-.45-1.71-.92-2.544-1.367l-2.982-1.602-3.228-1.733-3.49-1.874c-.92-.496-2.07-1.113-3.685-1.98l-5.516-2.963-2.93-1.573c-.96-.516-1.897-1.02-2.762-1.483l-2.87-1.54-2.865-1.54c-1.7-.91-3.866-2.076-5.647-3.032l-5.428-2.915-5.076-2.726-4.592-2.466-3.154-1.693-2.72-1.46c-1.537-.827-2.93-1.575-3.886-2.088l-1.407-.756c-1.424-.765-2.647-2.032-3.215-3.397-.834-1.51-.933-3.074-.97-4.9-.022-1.817 126.083-39.52 126.395-38.82.262.67.54 1.463.67 2.27.315.905-.054 1.536.3 2.628-.127.835-.42 1.653-.427 2.68-.224.91-.604 1.788-1.06 2.66z" stroke="#4B5170" stroke-width="4" stroke-linejoin="round"/></g></svg>