<svg width="188" height="243" viewBox="0 0 188 243" xmlns="http://www.w3.org/2000/svg" xmlns:xlink="http://www.w3.org/1999/xlink"><title>Page 1</title><defs><path id="a" d="M176.396.41v178.907H.538V.41z"/><path id="c" d="M.666 81.926h102.78V.198H.666z"/></defs><g fill="none" fill-rule="evenodd"><g transform="translate(11.1 33.32)"><mask id="b" fill="#fff"><use xlink:href="#a"/></mask><path d="M176.396 89.95c0 2.5-.072 5.012-.22 7.523-1.134 32.226-22.2 62.28-51.702 74.806-1.785.755-3.6 1.454-5.44 2.094-1.84.64-3.71 1.222-5.604 1.744-7.575 2.085-15.552 3.2-23.79 3.2-14.12 0-27.477-3.274-39.354-9.104-2.97-1.458-5.846-3.075-8.618-4.842-6.51-4.51-12.52-9.81-17.825-15.728-1.77-1.972-3.46-4.014-5.064-6.118-3.887-5.278-7.192-10.988-9.876-16.985-2.684-5.698-4.745-12.723-6.143-18.697-.7-3.648-1.23-6.55-1.59-9.716C.86 95.4.656 93.904.56 91.087c-.133-6.292.28-10.5 1.172-15.352.894-4.272 2.27-10.35 4.064-14.804 1.795-4.68 4.008-9.023 6.58-13.506 2.57-4.317 5.496-8.993 8.717-13.23 1.84-1.688 3.776-4.082 5.8-6.662 4.53-4.96 9.59-9.206 15.03-12.25 5.442-3.452 11.265-6.17 17.326-8.877 3.03-.375 6.12-2.212 9.25-3.038 4.983-.982 10.046-1.34 15.122-2.608 5.076-.627 10.168-.335 15.21.265 10.084 1.085 19.972 3.94 29.157 8.27 9.182 4.332 17.663 10.14 24.93 17.134 2.023 1.942 3.95 3.89 5.76 6.02 5.268 6.91 9.134 14.736 11.986 22.974.95 2.747 1.782 5.537 2.493 8.35 1.433 5.37 1.882 11.202 2.618 17.035.322 3.473.553 6.995.618 9.14" fill="#F6F3F1" mask="url(#b)"/></g><path d="M89.442 79.306c0 6.687-5.417 12.107-12.097 12.107-6.682 0-12.1-5.42-12.1-12.107 0-6.687 5.418-12.107 12.1-12.107 6.68 0 12.097 5.42 12.097 12.106" fill="#BAC2E2"/><path d="M77.345 68.587c-5.907 0-10.71 4.81-10.71 10.72 0 5.91 4.803 10.718 10.71 10.718 5.905 0 10.71-4.808 10.71-10.72 0-5.91-4.805-10.718-10.71-10.718m0 24.215c-7.437 0-13.486-6.054-13.486-13.496 0-7.44 6.048-13.496 13.485-13.496 7.436 0 13.484 6.055 13.484 13.496 0 7.442-6.05 13.496-13.485 13.496" fill="#4B5170"/><path d="M119.057 91.414c0 5.254-4.257 9.513-9.506 9.513-5.25 0-9.505-4.26-9.505-9.513 0-5.254 4.256-9.513 9.506-9.513s9.507 4.26 9.507 9.514" fill="#BAC2E2"/><path d="M109.55 83.29c-4.476 0-8.118 3.644-8.118 8.124s3.642 8.125 8.12 8.125c4.475 0 8.117-3.646 8.117-8.126 0-4.48-3.643-8.125-8.12-8.125m0 19.026c-6.006 0-10.893-4.89-10.893-10.902s4.887-10.902 10.894-10.902c6.008 0 10.894 4.89 10.894 10.902 0 6.01-4.886 10.902-10.893 10.902" fill="#4B5170"/><path d="M103.468 45.577c0 6.687-5.416 12.108-12.097 12.108-6.68 0-12.097-5.42-12.097-12.108 0-6.686 5.416-12.107 12.098-12.107s12.098 5.42 12.098 12.107" fill="#BAC2E2"/><path d="M91.37 34.858c-5.906 0-10.71 4.808-10.71 10.72 0 5.91 4.804 10.72 10.71 10.72 5.907 0 10.71-4.81 10.71-10.72 0-5.912-4.803-10.72-10.71-10.72m0 24.216c-7.435 0-13.485-6.055-13.485-13.497 0-7.44 6.05-13.496 13.486-13.496 7.437 0 13.486 6.056 13.486 13.497 0 7.442-6.05 13.497-13.485 13.497" fill="#4B5170"/><path d="M107.763 140.715c0 4.53-3.67 8.203-8.196 8.203-4.527 0-8.196-3.673-8.196-8.203 0-4.53 3.67-8.202 8.197-8.202 4.526 0 8.196 3.672 8.196 8.202" fill="#BAC2E2"/><path d="M99.567 133.9c-3.755 0-6.808 3.058-6.808 6.815 0 3.758 3.052 6.815 6.807 6.815 3.754 0 6.808-3.057 6.808-6.815 0-3.757-3.054-6.814-6.808-6.814m0 16.407c-5.284 0-9.583-4.303-9.583-9.592 0-5.288 4.3-9.59 9.583-9.59 5.284 0 9.583 4.302 9.583 9.59 0 5.29-4.3 9.592-9.583 9.592" fill="#4B5170"/><path d="M100.044 109.13c0 4.53-3.67 8.202-8.195 8.202-4.528 0-8.198-3.672-8.198-8.202 0-4.53 3.67-8.202 8.197-8.202 4.525 0 8.194 3.672 8.194 8.202" fill="#BAC2E2"/><path d="M91.848 102.316c-3.754 0-6.808 3.056-6.808 6.814s3.054 6.814 6.808 6.814c3.755 0 6.81-3.056 6.81-6.814s-3.055-6.814-6.81-6.814m0 16.405c-5.284 0-9.583-4.3-9.583-9.59s4.3-9.59 9.583-9.59c5.285 0 9.584 4.3 9.584 9.59s-4.3 9.59-9.584 9.59" fill="#4B5170"/><path d="M135.532 66.13c0 4.53-3.67 8.204-8.196 8.204-4.527 0-8.197-3.673-8.197-8.203 0-4.53 3.67-8.2 8.196-8.2s8.196 3.67 8.196 8.2" fill="#BAC2E2"/><path d="M127.336 59.317c-3.755 0-6.81 3.056-6.81 6.814 0 3.76 3.055 6.815 6.81 6.815 3.754 0 6.808-3.056 6.808-6.814 0-3.757-3.054-6.813-6.808-6.813m0 16.405c-5.285 0-9.584-4.302-9.584-9.59 0-5.29 4.3-9.592 9.584-9.592s9.583 4.303 9.583 9.59c0 5.29-4.3 9.592-9.584 9.592" fill="#4B5170"/><path d="M136.842 34.76c0 5.255-4.257 9.515-9.506 9.515-5.25 0-9.506-4.26-9.506-9.514 0-5.253 4.256-9.512 9.506-9.512s9.506 4.26 9.506 9.513" fill="#BAC2E2"/><path d="M127.336 26.636c-4.477 0-8.12 3.645-8.12 8.125s3.643 8.126 8.12 8.126c4.476 0 8.118-3.645 8.118-8.125s-3.642-8.124-8.118-8.124m0 19.027c-6.007 0-10.894-4.89-10.894-10.902 0-6.01 4.887-10.9 10.894-10.9 6.007 0 10.893 4.89 10.893 10.9 0 6.013-4.887 10.903-10.894 10.903" fill="#4B5170"/><path d="M173.954 89.982l-36.063 49.475c-.676.93-1.978 1.133-2.907.455l-22.197-16.206c-.93-.678-1.132-1.98-.454-2.91l36.063-49.475c.677-.93 1.98-1.132 2.908-.454L173.5 87.072c.928.678 1.132 1.98.454 2.91" fill="#86AC5B"/><path d="M173.954 89.982h.007-.006zm-23.878-18.127c-.042 0-.078.003-.107.007-.108.017-.307.075-.454.277l-36.063 49.474c-.148.202-.142.41-.126.517.017.107.075.307.277.454L135.8 138.79c.31.227.745.157.97-.152l36.063-49.475c.226-.31.158-.744-.15-.97l-22.198-16.205c-.147-.108-.297-.133-.41-.133zm-13.87 69.844c-.71 0-1.424-.217-2.04-.666l-22.198-16.206c-.748-.546-1.24-1.353-1.382-2.268-.143-.916.08-1.834.625-2.583l36.063-49.475c.546-.75 1.35-1.24 2.267-1.384.914-.143 1.83.08 2.58.626l22.197 16.205c1.545 1.128 1.885 3.304.758 4.85l-36.062 49.474c-.68.93-1.736 1.425-2.808 1.425z" fill="#4B5170"/><path d="M175.123 97.464L139.06 146.94c-.677.93-1.978 1.133-2.907.454l-22.198-16.206c-.928-.677-1.132-1.98-.454-2.91l36.064-49.475c.678-.93 1.98-1.133 2.908-.455l22.197 16.206c.927.678 1.13 1.98.453 2.91" fill="#86AC5B"/><path d="M151.246 79.337c-.214 0-.425.1-.562.285l-36.062 49.475c-.148.202-.14.41-.125.516.017.106.075.306.276.454l22.198 16.205c.31.227.744.158.97-.152L174 96.646c.148-.202.142-.41.125-.516-.016-.107-.074-.307-.276-.454L151.655 79.47c-.123-.09-.266-.133-.408-.133m-13.874 69.847c-.73 0-1.436-.23-2.037-.667l-22.197-16.206c-.75-.546-1.24-1.352-1.383-2.268-.143-.916.08-1.833.626-2.582l36.063-49.475c1.128-1.545 3.302-1.886 4.846-.76l22.196 16.207c.75.547 1.24 1.353 1.384 2.27.143.915-.08 1.832-.626 2.58l-36.062 49.475c-.546.75-1.35 1.24-2.267 1.384-.18.03-.362.044-.543.044" fill="#4B5170"/><path d="M149.746 105.417c4.114 3.003 5.015 8.776 2.015 12.892-3 4.117-8.767 5.02-12.882 2.016-4.114-3.004-5.015-8.776-2.014-12.893 3-4.116 8.768-5.02 12.882-2.016" fill="#FFF"/><path d="M144.322 105.036c-2.42 0-4.806 1.114-6.338 3.216-2.545 3.492-1.777 8.405 1.712 10.95 3.49 2.55 8.4 1.78 10.943-1.712 2.545-3.49 1.777-8.404-1.71-10.952-1.39-1.014-3.006-1.502-4.608-1.502m-.032 18.453c-2.23 0-4.394-.703-6.23-2.042-4.725-3.45-5.765-10.104-2.318-14.834 3.448-4.727 10.095-5.768 14.822-2.32v.002c4.725 3.45 5.765 10.102 2.318 14.832-1.67 2.29-4.13 3.794-6.93 4.232-.556.087-1.11.13-1.662.13" fill="#4B5170"/><path d="M27.162 2.92l36.58 49.093c.685.922.495 2.227-.426 2.915L41.29 71.366c-.922.687-2.226.497-2.913-.425L1.797 21.847c-.685-.922-.495-2.227.427-2.915L24.25 2.495c.92-.688 2.226-.497 2.912.425" fill="#86AC5B"/><path d="M25.494 3.47c-.112 0-.266.026-.415.137L3.052 20.045c-.307.228-.37.664-.142.97L39.49 70.11c.15.2.35.257.456.273.106.014.314.02.514-.13l22.027-16.438c.307-.23.37-.665.14-.972L26.05 3.748c-.15-.2-.35-.256-.455-.27-.028-.005-.062-.008-.1-.008M40.05 73.168c-.167 0-.337-.013-.507-.037-.916-.133-1.726-.616-2.28-1.36L.685 22.676c-1.14-1.534-.824-3.714.71-4.858L23.42 1.38c1.535-1.143 3.71-.825 4.855.71l36.578 49.093c1.143 1.535.826 3.714-.707 4.858L42.12 72.48c-.606.45-1.325.688-2.068.688" fill="#4B5170"/><path d="M34.65 4.01l36.58 49.095c.686.922.496 2.228-.426 2.915L48.778 72.457c-.922.688-2.225.498-2.913-.424L9.287 22.94c-.687-.923-.497-2.23.425-2.917L31.738 3.586c.922-.688 2.226-.497 2.913.425" fill="#86AC5B"/><path d="M32.98 4.562c-.143 0-.29.044-.413.137L10.54 21.136c-.305.228-.37.664-.14.97l36.578 49.096c.23.307.664.37.97.14l22.027-16.436c.2-.15.257-.35.273-.457.014-.106.018-.314-.132-.515L33.538 4.84c-.136-.18-.345-.278-.557-.278M47.54 74.257c-1.058 0-2.104-.48-2.784-1.394L8.174 23.768c-1.142-1.534-.825-3.714.71-4.858L30.908 2.472c.74-.554 1.654-.786 2.573-.65.916.132 1.726.616 2.28 1.36L72.34 52.275c.555.743.787 1.657.653 2.575-.134.92-.616 1.73-1.36 2.284L49.61 73.57c-.62.464-1.35.687-2.07.687" fill="#4B5170"/><path d="M34.747 30.624c4.082-3.046 9.86-2.203 12.902 1.882 3.043 4.086 2.2 9.866-1.88 12.913-4.082 3.045-9.86 2.203-12.903-1.883-3.044-4.085-2.202-9.866 1.88-12.913" fill="#FFF"/><path d="M35.576 31.738c-1.677 1.25-2.767 3.08-3.068 5.153-.3 2.073.22 4.14 1.47 5.817 2.583 3.465 7.5 4.182 10.963 1.6 3.462-2.585 4.178-7.506 1.597-10.97-1.25-1.68-3.08-2.77-5.15-3.072-2.07-.305-4.134.22-5.81 1.473m4.703 16.9c-.515 0-1.033-.036-1.55-.11-2.805-.41-5.282-1.887-6.976-4.16-3.496-4.693-2.525-11.357 2.163-14.857 2.272-1.694 5.067-2.403 7.87-1.993 2.805.41 5.28 1.886 6.975 4.16 3.495 4.692 2.526 11.356-2.163 14.855-1.852 1.38-4.05 2.107-6.32 2.107" fill="#4B5170"/><path d="M71.493 223.517l-1.146 9.21c0 2.97 2.43 5.402 5.397 5.402h7.267c2.97 0 5.4-2.432 5.4-5.403v-2.074s10.502 1.658 16.194 1.658c6.56 0 18.398-2.477 18.398-2.477v2.894c0 2.97 2.43 5.402 5.398 5.402h7.266c2.97 0 5.4-2.432 5.4-5.403l-1.984-11.095c6.768-5.63 10.843-13.338 10.843-22.773 0-21-20.37-38.024-45.498-38.024-9.04 0-17.46 2.203-24.54 6-1.938 1.038-10.52-7.397-12.24-6.132-1.72 1.266 3.416 12.232 1.94 13.7-4.778 4.747-9.73 16.764-9.73 16.764h-3.15c-2.97 0-5.4 2.43-5.4 5.402v6.42c0 2.973 2.43 5.404 5.4 5.404l3.662.415c1.104 7.746 11.123 14.707 11.123 14.707" fill="#FFCD1D"/><g transform="translate(48.56 161.068)"><mask id="d" fill="#fff"><use xlink:href="#c"/></mask><path d="M76.522 68.984v5.456c0 1.83 1.488 3.32 3.317 3.32h7.266c1.774 0 3.228-1.402 3.313-3.157L88.26 62.52l.93-.776c6.603-5.492 10.093-12.813 10.093-21.17 0-19.82-19.477-35.94-43.417-35.94-8.394 0-16.54 1.988-23.558 5.75-2.088 1.12-4.7-.706-8.315-3.235-.827-.58-1.98-1.387-2.945-1.984.262 1.172.68 2.63.98 3.668 1.24 4.32 2.06 7.175.464 8.76-4.428 4.4-9.223 15.965-9.27 16.082l-.532 1.29H8.146c-1.83 0-3.318 1.488-3.318 3.318v6.42c0 1.83 1.488 3.32 3.318 3.32l.234.014 5.26.598.23 1.593c.96 6.744 10.157 13.225 10.25 13.29l1.03.72-1.28 10.313c.06 1.78 1.523 3.207 3.314 3.207h7.267c1.83 0 3.318-1.49 3.318-3.32v-4.51l2.405.38c.103.017 10.41 1.63 15.87 1.63 6.267 0 17.856-2.408 17.972-2.432l2.507-.524zm10.584 12.942H79.84c-4.125 0-7.48-3.358-7.48-7.486v-.36c-3.892.735-11.422 2.027-16.317 2.027-4.157 0-10.637-.832-14.12-1.327-.18 3.97-3.462 7.146-7.472 7.146h-7.266c-4.124 0-7.48-3.358-7.48-7.486l.016-.258.997-8.003c-2.524-1.95-8.88-7.378-10.633-13.756l-2.066-.235c-4.065-.07-7.352-3.4-7.352-7.485v-6.42c0-4.128 3.355-7.486 7.48-7.486h1.78c1.41-3.223 5.3-11.596 9.29-15.81-.04-.997-.75-3.472-1.19-5.006-1.29-4.492-2.22-7.738-.17-9.244 2.07-1.52 4.775.374 8.522 2.995 1.315.92 3.44 2.406 4.382 2.756C38.285 2.55 46.954.468 55.866.468c26.235 0 47.58 17.992 47.58 40.106 0 9.236-3.683 17.362-10.666 23.577l1.805 10.29c0 4.128-3.355 7.486-7.48 7.486z" fill="#4B5170" mask="url(#d)"/></g><path d="M79.043 188.34l.024.023.023-.024c-.007-.01-.015-.017-.023-.025-.01.008-.016.016-.024.024m.504 3.952h-.96c-1.914 0-3.47-1.558-3.47-3.472v-.96c0-1.916 1.556-3.473 3.47-3.473h.96c1.913 0 3.47 1.557 3.47 3.472v.96c0 1.914-1.557 3.472-3.47 3.472M119.942 176.345c-.047-.032-5.343-3.587-13.35-3.587-9.6 0-12.143 1.796-12.167 1.815.07-.05.096-.084.096-.084l-2.847-3.038c.714-.672 3.9-2.86 14.92-2.86 9.367 0 15.464 4.152 15.718 4.33l-2.368 3.423zM147.586 189.38l-1.818-3.745 9.083-4.416 5.186 1.096 6.848-3.33 1.818 3.748-8.13 3.953-5.186-1.097M66.492 222.997c-.766 0-1.307-.124-1.426-.153l1.01-4.04v-.002c.006 0 .954.183 1.765-.345 1.005-.654 1.224-1.07 1.226-1.073 0 0-.074.148-.086.452l4.16.163c-.03.756-.463 2.276-3.027 3.947-1.303.85-2.645 1.05-3.62 1.05" fill="#4B5170"/></g></svg>