<svg width="227" height="276" viewBox="0 0 227 276" xmlns="http://www.w3.org/2000/svg"><title>Page 1</title><g fill="none" fill-rule="evenodd"><path d="M214.61 109.144c-.003 3.05-.09 6.11-.27 9.17-1.384 39.283-27.09 75.916-63.095 91.186-2.177.92-4.39 1.772-6.638 2.553-2.247.78-4.527 1.49-6.84 2.126-9.243 2.54-18.978 3.9-29.03 3.9-17.233 0-33.533-3.99-48.027-11.097-3.624-1.777-7.134-3.748-10.517-5.902-7.945-5.5-15.278-11.957-21.753-19.17-2.16-2.405-4.222-4.894-6.18-7.46-4.742-6.43-8.776-13.393-12.05-20.702-3.276-6.946-5.792-15.51-7.497-22.792C1.86 126.51 1.21 122.97.77 119.114c-.378-3.327-.625-5.15-.74-8.584-.163-7.668.34-12.797 1.43-18.712 1.09-5.207 2.768-12.615 4.96-18.045 2.19-5.707 4.89-11 8.027-16.464 3.137-5.264 6.71-10.963 10.64-16.127 2.245-2.06 4.608-4.976 7.078-8.123 5.53-6.045 11.702-11.22 18.343-14.93 6.64-4.208 13.747-7.52 21.142-10.82 3.698-.458 7.468-2.697 11.288-3.704 6.082-1.198 12.26-1.632 18.454-3.18 6.195-.763 12.407-.407 18.56.325 12.307 1.323 24.375 4.803 35.583 10.083 11.207 5.28 21.555 12.36 30.423 20.884 2.47 2.37 4.82 4.745 7.03 7.338 6.43 8.422 11.148 17.964 14.627 28.005 1.16 3.348 2.175 6.75 3.043 10.18 1.75 6.544 2.298 13.652 3.196 20.763.393 4.234.675 8.528.755 11.14" fill="#F6F3F1"/><path d="M205.644 274.202c0-.13-1.28.265-3.585 0-2.306.835-5.635-.34-9.732 0-4.097.66-8.963-.047-14.34 0h-8.42c-2.912.64-5.92.59-8.994 0-5.268-.275-10.724-.5-16.207 0-2.74.057-5.49.025-8.224-.005-2.735-.03-5.456-.058-8.144.005-2.69-.04-5.343.494-7.943 0-2.6-.003-5.147.128-7.62 0-6.593-.078-12.662-.948-17.822 0-2.58-.015-4.933.095-7.012.155-2.078.06-3.882.066-5.364-.155-2.963-.198-4.636-.313-4.636 0-3.176.097-6.16-.55-8.728-2.373-2.567-1.585-4.717-4.64-6.225-6.225-1.507-3.24-2.374-5.785-2.374-8.725V97.402c0-3.178.867-6.474 2.375-8.725 1.51-2.844 3.66-4.467 6.226-6.223 2.568-1.723 5.552-2.428 8.728-2.374 0-.346 1.28.407 3.586 0 2.304-.35 5.634-.014 9.73 0h6.69c2.402-.063 4.962-.065 7.65 0 4.707.45 9.804-.59 15.122 0 2.66-.07 5.374-.138 8.12-.154 2.75 0 5.53-.3 8.325.154 2.793-.424 5.6.204 8.397 0 2.797.336 5.584.04 8.342 0 2.757-.19 5.483-.245 8.157-.226 2.675.154 5.297.104 7.846.226 2.548-.223 5.023.125 7.403.04 2.38.263 4.666.272 6.835-.04 2.168-.47 4.22.034 6.136 0 1.914-.17 3.692.142 5.31 0 3.234-.477 5.83-.014 7.62 0 1.79.177 2.77.42 2.77 0 3.177-.047 6.16.44 8.728 2.374 2.568 1.294 4.718 3.304 6.226 6.223 1.508 2.566 2.374 5.55 2.374 8.725V256.882c0 1.388-.216 3.193-.62 4.706-.407 1.75-1 2.83-1.754 4.02-.755 1.077-1.67 2.296-2.716 3.263-1.047 1.388-2.226 1.333-3.51 2.96-1.283.553-2.67.803-4.135 1.742-1.464.456-3.005.613-4.593.63" fill="#FFCC21"/><path d="M151.426 272.75c3.068 0 6.12.138 9.208.3.053.002.106.01.158.02 3.034.58 5.904.582 8.528.005.082-.018.165-.027.25-.027h8.417c2.008-.018 3.923.067 5.78.15 3.04.135 5.91.26 8.377-.136.03-.004.06-.008.088-.01 1.957-.163 3.72 0 5.274.144 1.685.155 3.142.29 4.16-.08.168-.06.35-.08.525-.06 1.405.16 2.384.056 2.91 0 .238-.026.482-.052.722-.01 1.55-.03 2.807-.2 3.93-.534 1.036-.64 2.026-.978 2.906-1.278.35-.12.686-.235 1.006-.362.718-.835 1.42-1.27 1.994-1.625.516-.32.923-.57 1.3-1.073.043-.055.09-.106.14-.153 1-.922 1.89-2.13 2.553-3.077.743-1.17 1.227-2.115 1.575-3.618.37-1.38.592-3.068.592-4.445V97.4c0-2.86-.766-5.674-2.215-8.14l-.03-.055c-1.316-2.547-3.24-4.472-5.72-5.723-.06-.03-.12-.066-.176-.108-1.936-1.46-4.27-2.128-7.52-2.144-.53.33-1.204.25-2.32.117-.303-.036-.645-.077-1.025-.115-.53-.007-1.116-.048-1.736-.09-1.543-.11-3.463-.245-5.652.078-.023.004-.045.006-.067.008-.85.075-1.693.038-2.583 0-.888-.04-1.804-.08-2.727 0-.027.003-.053.004-.08.004-.72.016-1.456-.044-2.165-.1-1.23-.095-2.5-.195-3.748.074l-.08.015c-2.144.31-4.514.33-7.043.056-1.033.033-2.086-.012-3.105-.054-1.362-.057-2.77-.114-4.156.006-.052.005-.104.005-.157.003-1.156-.054-2.31-.073-3.533-.094-1.405-.023-2.858-.047-4.322-.13-2.883-.02-5.522.052-8.013.224l-.062.002c-.778.012-1.558.044-2.34.077-1.965.08-3.993.163-6.047-.072-1.273.083-2.532.01-3.75-.062-1.546-.09-3.006-.175-4.446.044-.12.018-.24.017-.36-.002-1.887-.306-3.762-.25-5.746-.188-.796.025-1.59.05-2.38.05h-.012c-2.72.015-5.38.08-8.09.152-.053 0-.105 0-.157-.007-2.715-.3-5.415-.16-8.026-.026-2.44.126-4.745.247-7.037.03-2.603-.06-5.143-.06-7.552.002h-6.72c-1.445-.004-2.815-.05-4.024-.09-2.22-.072-4.135-.135-5.533.077-1.566.276-2.742.07-3.373-.04-.01 0-.02-.003-.028-.004-.12.04-.24.066-.377.056-3.12-.052-5.832.68-8.065 2.178-2.46 1.683-4.458 3.184-5.85 5.806-.017.035-.037.068-.06.1-1.364 2.04-2.178 5.06-2.178 8.084v159.48c0 2.753.835 5.14 2.188 8.07.39.42.81.914 1.25 1.434 1.286 1.513 2.886 3.397 4.613 4.462l.062.04c2.1 1.49 4.614 2.2 7.64 2.17.632-.306 1.75-.232 5.016-.013l.117.007c.03.002.062.006.093.01 1.348.2 3.037.202 5.16.142.5-.014 1.012-.03 1.54-.05 1.625-.053 3.467-.112 5.404-.105 3.636-.65 7.652-.444 11.904-.227 1.954.1 3.973.203 6.033.228 1.628.082 3.227.056 4.92.028.89-.015 1.784-.03 2.688-.028.072 0 .144.007.214.02 1.52.288 3.097.19 4.765.087.967-.06 1.97-.12 2.98-.107 2.707-.065 5.468-.034 8.14-.005l.165.002c2.618.028 5.326.058 7.98.004 2.396-.22 4.764-.3 7.124-.3zm-72.666 1.453v.003-.003zm86.465 1.613c-1.552 0-3.15-.155-4.79-.464-5.363-.28-10.62-.488-15.962 0-.028.003-.055.005-.082.005-2.704.056-5.445.026-8.093-.003l-.166-.002c-2.652-.03-5.392-.06-8.104.005-.97-.012-1.922.046-2.845.103-1.702.106-3.46.215-5.23-.103-.853 0-1.7.015-2.542.028-1.658.028-3.37.055-5.03-.03-2.06-.022-4.102-.127-6.078-.228-4.154-.212-8.078-.413-11.476.21-.072.015-.15.02-.216.02-1.936-.014-3.788.05-5.42.104-.533.02-1.05.037-1.552.05-2.222.064-4.013.06-5.52-.158l-.07-.004c-1.645-.11-3.215-.216-3.807-.18-.173.114-.378.182-.6.19-3.68.11-6.833-.752-9.402-2.566-2.024-1.26-3.744-3.284-5.128-4.913-.472-.556-.917-1.08-1.297-1.48-.086-.09-.157-.194-.21-.307-1.49-3.2-2.482-5.993-2.482-9.213V97.4c0-3.44.95-6.916 2.537-9.318 1.634-3.05 3.94-4.787 6.567-6.583 2.545-1.71 5.574-2.574 9.013-2.58.383-.15.786-.078 1.15-.015.562.1 1.41.246 2.6.036 1.638-.25 3.654-.182 5.985-.106 1.25.04 2.544.085 3.953.09h6.686c2.43-.064 5.024-.064 7.68 0 .027 0 .054.002.08.004 2.138.204 4.373.088 6.74-.035 2.676-.14 5.446-.283 8.32.03 2.695-.073 5.34-.138 8.067-.154h.01c.775 0 1.544-.025 2.316-.048 1.95-.06 3.965-.122 6.01.188 1.617-.222 3.208-.13 4.748-.04 1.235.073 2.4.14 3.56.056.074-.005.148-.003.222.005 1.906.23 3.88.15 5.786.07.792-.032 1.582-.064 2.37-.077 2.54-.174 5.232-.247 8.214-.225 1.475.083 2.904.106 4.287.13 1.158.02 2.358.038 3.527.093 1.505-.125 2.964-.064 4.374-.005 1.05.043 2.04.084 3.012.05.057-.002.113 0 .168.006 2.35.26 4.538.25 6.506-.03 1.56-.33 3.055-.213 4.374-.11.67.052 1.3.1 1.905.094 1.057-.09 2.038-.047 2.988-.005.8.035 1.558.07 2.247.01 2.423-.353 4.47-.21 6.116-.093.63.044 1.175.082 1.648.086.034 0 .07.002.105.005.416.042.79.087 1.12.126.298.036.623.075.85.092.188-.137.417-.22.667-.223 2.5-.036 6.173.19 9.357 2.544 2.87 1.47 5.098 3.707 6.626 6.65 1.647 2.814 2.517 6.023 2.517 9.283v159.48c0 1.565-.253 3.482-.66 5.004-.455 1.967-1.155 3.177-1.894 4.34-.742 1.064-1.703 2.364-2.834 3.425-.62.79-1.28 1.2-1.865 1.56-.57.353-1.06.658-1.596 1.334-.12.15-.274.27-.45.345-.477.204-.958.37-1.424.53-.872.297-1.695.58-2.545 1.124-.086.056-.18.1-.28.13-1.425.444-2.99.66-4.923.683-.067 0-.14-.004-.207-.016-.03.005-.066.008-.105.013-.54.057-1.634.175-3.16.025-1.435.437-3.046.288-4.892.117-1.448-.134-3.087-.284-4.827-.145-2.69.425-5.66.294-8.802.155-1.827-.08-3.714-.167-5.666-.148h-8.306c-1.433.306-2.926.46-4.467.46z" fill="#4B5170"/><path d="M90.628 198.932c0 .874-14.957.623-14.957 0v-14.95c0-.262 14.958.122 14.958 0v14.95z" fill="#FFF"/><path d="M77.115 197.805c2.585.274 9.562.367 12.07.075v-12.44c-.906-.004-2.16-.015-3.986-.04-2.455-.033-6.184-.085-8.085-.064v12.47zm6.952 3.136c-2.055 0-4.168-.057-5.794-.158-2.35-.146-4.046-.25-4.046-1.85v-14.95c0-.387.158-.764.433-1.035.58-.57.58-.57 10.58-.433 1.77.024 3.732.066 4.673.05.21-.122.455-.19.715-.19.797 0 1.444.645 1.444 1.443v15.116c0 1.835-2.195 2.008-8.005 2.008z" fill="#4B5170"/><path d="M112.774 198.932c0-.317-14.957.153-14.957 0v-14.95c0-.788 14.957-.033 14.957 0v14.95z" fill="#FFF"/><path d="M99.26 185.12v12.4c1.053-.01 2.59-.035 4.01-.06 4.195-.07 6.62-.106 8.06-.08v-12.04c-2.913-.146-9.572-.38-12.07-.22m13.514 15.302c-.215 0-.417-.046-.6-.13-1.287-.07-5.968.007-8.856.055-6.02.1-6.02.1-6.512-.383-.276-.27-.433-.644-.433-1.03v-14.97c0-.023 0-.046.002-.068.064-1.716 2.107-1.716 5.456-1.716 2.368 0 5.217.094 7.19.172 1.1.044 2.056.088 2.74.122 1.264.065 2.458.125 2.458 1.507v15c0 .796-.647 1.442-1.444 1.442" fill="#4B5170"/><path d="M134.92 198.932c0 2.65-14.957-1.02-14.957 0v-14.95c0-.656 14.957-1.114 14.957 0v14.95z" fill="#FFF"/><path d="M121.407 197.336c.848.063 2.007.216 3.653.44 2.306.31 6.902.935 8.416.617v-13.45c-2.405-.342-9.47-.205-12.07.13v12.263zm0 1.597v.002-.002zm0 .002c0 .02 0 .042-.002.062.002-.02.002-.04.002-.062zm-.002.063zm10.698 2.36c-1.868 0-4.343-.304-7.43-.722-1.476-.2-3.272-.443-3.997-.448-.21.12-.454.188-.713.188-.798 0-1.444-.646-1.444-1.443v-15c0-.106.01-.21.033-.31.054-.277.178-.5.36-.68.163-.174.367-.306.598-.382.756-.315 1.89-.397 3.226-.494 1.76-.126 4.033-.202 6.084-.202 1.24 0 3.013.028 4.398.16 1.155.11 3.076.295 3.144 1.87l.002.074v14.965c0 .606-.258 1.165-.725 1.573-.703.613-1.88.852-3.537.852z" fill="#4B5170"/><path d="M90.628 219.945c0 .873-14.957.622-14.957 0v-14.95c0-.263 14.958.12 14.958 0v14.95z" fill="#FFF"/><path d="M77.115 218.818c2.585.274 9.563.366 12.07.075v-12.44c-.906-.005-2.16-.016-3.986-.04-2.455-.034-6.184-.086-8.085-.065v12.47zm6.953 3.135c-2.055 0-4.168-.057-5.795-.158-2.35-.146-4.046-.252-4.046-1.85v-14.952c0-.386.158-.762.433-1.034.58-.572.58-.572 10.58-.434 1.77.024 3.732.062 4.673.05.21-.122.455-.19.715-.19.797 0 1.444.646 1.444 1.443v15.115c0 1.835-2.194 2.008-8.004 2.008z" fill="#4B5170"/><path d="M112.774 219.945c0-.317-14.957.153-14.957 0v-14.95c0-.79 14.957-.033 14.957 0v14.95z" fill="#FFF"/><path d="M99.26 206.13v12.4c1.054-.008 2.594-.033 4.015-.057 4.19-.07 6.61-.106 8.055-.08V206.35c-2.91-.143-9.572-.38-12.07-.22m13.514 15.305c-.215 0-.417-.047-.6-.13-1.287-.072-5.965.007-8.85.055-6.026.1-6.026.1-6.518-.384-.276-.27-.433-.644-.433-1.03v-14.97c0-.023 0-.045.002-.068.064-1.715 2.106-1.715 5.455-1.715 2.366 0 5.217.093 7.19.17 1.098.045 2.056.09 2.74.124 1.263.064 2.458.124 2.458 1.506v14.998c0 .798-.647 1.445-1.444 1.445" fill="#4B5170"/><path d="M156.58 198.932c0-.317-14.956.153-14.956 0v-14.95c0-.788 14.957-.033 14.957 0v14.95z" fill="#FFF"/><path d="M143.068 185.12v12.4c1.052-.01 2.59-.035 4.01-.06 4.193-.07 6.617-.106 8.06-.08v-12.04c-2.913-.146-9.573-.38-12.07-.22m13.513 15.302c-.213 0-.415-.046-.598-.13-1.287-.07-5.968.007-8.857.055-6.02.1-6.02.1-6.512-.383-.276-.27-.433-.644-.433-1.03v-14.97c0-.023 0-.046.002-.068.064-1.716 2.107-1.716 5.456-1.716 2.367 0 5.216.094 7.19.172 1.097.044 2.056.088 2.74.122 1.263.065 2.457.125 2.457 1.507v15c0 .796-.647 1.442-1.444 1.442" fill="#4B5170"/><path d="M156.58 219.945c0-.317-14.956.153-14.956 0v-14.95c0-.79 14.957-.033 14.957 0v14.95z" fill="#FFF"/><path d="M143.068 206.13v12.4c1.053-.008 2.592-.033 4.014-.057 4.19-.07 6.612-.106 8.055-.08V206.35c-2.912-.143-9.57-.38-12.07-.22m13.514 15.305c-.213 0-.415-.047-.598-.13-1.287-.072-5.965.007-8.852.055-6.026.1-6.025.1-6.517-.384-.276-.27-.433-.644-.433-1.03v-14.97c0-.023 0-.045.002-.068.064-1.715 2.106-1.715 5.455-1.715 2.367 0 5.217.093 7.19.17 1.098.045 2.056.09 2.74.124 1.264.064 2.458.124 2.458 1.506v14.998c0 .798-.647 1.445-1.444 1.445" fill="#4B5170"/><path d="M188.957 198.932c0-.317-14.957.153-14.957 0v-14.95c0-.788 14.957-.033 14.957 0v14.95z" fill="#FFF"/><path d="M175.444 185.12v12.4c1.052-.01 2.59-.035 4.01-.06 4.194-.07 6.618-.106 8.06-.08v-12.04c-2.914-.146-9.573-.38-12.07-.22m13.513 15.302c-.215 0-.417-.046-.6-.13-1.287-.07-5.968.007-8.856.055-6.018.1-6.02.1-6.51-.383-.277-.27-.434-.644-.434-1.03v-14.97c0-.023 0-.046.002-.068.064-1.716 2.107-1.716 5.456-1.716 2.367 0 5.216.094 7.19.172 1.097.044 2.055.088 2.74.122 1.263.065 2.457.125 2.457 1.507v15c0 .796-.646 1.442-1.443 1.442" fill="#4B5170"/><path d="M188.957 259.95c0-.317-14.957.153-14.957 0v-54.957c0-.787 14.957-.03 14.957 0v54.957z" fill="#FFF"/><path d="M175.444 206.13v52.405c1.052-.008 2.59-.034 4.01-.057 4.193-.07 6.616-.106 8.06-.08V206.35c-2.913-.143-9.573-.38-12.07-.22m-.028 55.287c-1.984 0-2.09-.104-2.427-.436-.277-.27-.434-.643-.434-1.03V204.973c.014-1.78 1.952-1.78 5.457-1.78 2.366 0 5.217.093 7.19.17 1.098.045 2.055.09 2.74.124 1.263.064 2.458.124 2.458 1.506v54.97c0 .797-.646 1.443-1.443 1.443-.178 0-.348-.03-.505-.09-1.134-.082-5.987 0-8.95.048-1.886.032-3.18.053-4.086.053" fill="#4B5170"/><path d="M134.92 219.945c0 2.65-14.957-1.02-14.957 0v-14.95c0-.657 14.957-1.114 14.957 0v14.95z" fill="#FFF"/><path d="M121.407 218.35c.848.062 2.007.215 3.653.438 2.306.312 6.902.935 8.416.617v-13.45c-2.405-.342-9.47-.205-12.07.13v12.264zm0 1.595v.003-.003zm0 .003c0 .02 0 .04-.002.062.002-.02.002-.042.002-.062zm-.002.062v.002-.002zm10.698 2.36c-1.868 0-4.343-.304-7.43-.722-1.476-.2-3.272-.443-3.997-.448-.21.12-.454.19-.713.19-.798 0-1.444-.647-1.444-1.445v-15c0-.106.01-.21.032-.31.055-.277.18-.5.362-.68.162-.174.367-.306.597-.382.755-.316 1.89-.398 3.226-.494 1.76-.128 4.033-.203 6.084-.203 1.24 0 3.013.027 4.398.16 1.155.11 3.077.295 3.144 1.87l.002.074v14.966c0 .605-.258 1.164-.725 1.572-.703.613-1.88.853-3.537.853z" fill="#4B5170"/><path d="M90.628 239.567c0-.442-14.957.96-14.957 0v-14.95c0 .95 14.958-.46 14.958 0v14.95z" fill="#FFF"/><path d="M77.115 238.45c1.755.082 5.612-.11 8.085-.235 1.84-.092 3.1-.153 3.984-.172V225.97c-1.04.027-2.608.106-3.956.174-4.228.21-6.652.29-8.113.236v12.07zm1.13 2.9c-2.456 0-3.067-.218-3.53-.657-.243-.232-.402-.523-.46-.84-.02-.09-.028-.182-.028-.277v-14.963c0-.798.647-1.443 1.444-1.443h.004c.317 0 .61.103.848.277 1.264.18 5.792-.048 8.56-.187 5.314-.266 5.88-.274 6.416.185.35.264.574.68.574 1.152v14.995c0 .797-.647 1.443-1.444 1.443-.198 0-.387-.04-.56-.112-.765-.022-2.94.087-4.723.176-3.345.167-5.577.25-7.1.25z" fill="#4B5170"/><path d="M112.774 239.567c0-.564-14.957.003-14.957 0v-14.95c0-.87 14.957.346 14.957 0v14.95z" fill="#FFF"/><path d="M111.49 223.954c-.1.187-.16.407-.16.654 0-.236.058-.458.16-.654zm-12.23 1.805v12.313c6.7-.225 10.19-.248 12.07-.153v-11.805c-.824-.02-1.976-.072-3.622-.145-2.423-.108-6.58-.293-8.447-.21zm13.514 15.37c-.332 0-.637-.113-.88-.3-1.404-.115-5.965-.103-13.823.173-.082.014-.167.022-.253.022-.798 0-1.444-.647-1.444-1.444v-14.995c0-.388.153-.74.402-1 .024-.028.05-.054.076-.08.738-.704 1.84-.827 10.986-.42 1.832.082 3.887.172 4.518.15.133-.04.265-.06.42-.063.797 0 1.444.646 1.444 1.443v15.07c0 .797-.647 1.444-1.444 1.444z" fill="#4B5170"/><path d="M134.92 239.567c0-.173-14.957 1.712-14.957 0v-14.95c0-.486 14.957-.986 14.957 0v14.95z" fill="#FFF"/><path d="M121.407 238.757c1.462.222 5.215.062 11.19-.473.33-.03.62-.056.88-.078V225.64c-2.463-.285-9.442-.106-12.07.15v12.967zm2.115 2.978c-2.533 0-3.78-.283-4.415-.863-.38-.346-.588-.81-.588-1.305v-14.952c0-1.566 1.466-1.654 4.39-1.83 1.89-.112 4.24-.18 6.284-.18 1.693 0 3.124.047 4.138.134 1.045.088 2.74.234 2.998 1.522.022.1.034.204.034.31v15c0 .796-.647 1.443-1.444 1.443-.064 0-.126-.004-.187-.013-.31.017-1.106.088-1.88.158-4.247.38-7.23.575-9.33.575z" fill="#4B5170"/><path d="M90.628 259.415c0-.213-14.957.18-14.957 0v-14.952c0 .39 14.958.54 14.958 0v14.952z" fill="#FFF"/><path d="M77.114 244.392zm0 .002v.002-.002zm0 .002v0zm0 .04v.002-.002zm0 .002v.002-.002zm0 .002v.002-.002zm0 .003zm0 .002v.002-.002zm0 .003zm0 .002zm0 .002v.002-.002zm0 1.658v11.91c1.374 0 3.623-.03 5.55-.055 3.26-.042 5.263-.07 6.52-.054v-11.76l-.506.024c-1.495.07-3.356.084-4.654.084-2.042 0-4.132-.036-5.735-.098-.427-.016-.818-.03-1.175-.05zm.55 14.794c-2.54 0-2.65-.108-3.005-.46-.277-.27-.433-.643-.433-1.03v-14.96c0-.797.647-1.443 1.444-1.443.22 0 .425.05.61.135 1.766.246 11.715.347 13.644.047.208-.116.45-.183.704-.183.798 0 1.444.646 1.444 1.443v14.965c0 .796-.645 1.44-1.442 1.442h-.002c-.124 0-.246-.016-.36-.046-.836-.05-4.706 0-7.567.038-2.31.03-3.91.052-5.036.052z" fill="#4B5170"/><path d="M112.774 259.415c0 .777-14.957.53-14.957 0v-14.952c0 .887 14.957 1.59 14.957 0v14.952z" fill="#FFF"/><path d="M99.26 244.455zm0 .002zm0 .002zm0 0v.003-.002zm12.07.002zm-12.07 13.78c2.613.232 9.534.323 12.07.075v-11.714l-.16.022c-1.377.19-3.14.23-4.378.23-3.625 0-5.99-.168-7.53-.43v11.817zm7.063 3.11c-2.06 0-4.19-.05-5.85-.14-2.556-.138-4.1-.22-4.1-1.797v-14.952c0-.797.647-1.443 1.444-1.443.37 0 .706.138.96.366 2.2.7 11.064.735 12.83.226.263-.36.687-.592 1.167-.592.797 0 1.444.646 1.444 1.443v15c0 .1-.01.197-.03.29-.236 1.278-1.847 1.386-3.28 1.482-1.465.097-3.302.118-4.585.118z" fill="#4B5170"/><path d="M134.92 259.415c0 .56-14.957 1.12-14.957 0v-14.952c0 1.623 14.957-1.054 14.957 0v14.952z" fill="#FFF"/><path d="M121.407 244.462zm0 13.968c2.297.267 9.287.25 12.07-.126v-12.65c-1.162.027-3.15.208-4.705.35-3.635.334-5.898.495-7.365.42v12.006zm4.318 3.075c-1.706 0-3.15-.053-4.18-.153-.916-.09-2.52-.244-2.93-1.358-.06-.16-.096-.337-.096-.52v-15.01c0-.798.645-1.444 1.443-1.444.43 0 .816.188 1.08.485 1.23.197 5.09-.158 7.466-.375 5.427-.497 6.56-.533 7.34.18.268.243.443.572.496.923.01.073.018.148.018.225v15.04c0 .763-.593 1.388-1.344 1.44-.74.206-1.765.276-3.02.362-1.878.128-4.225.205-6.275.205z" fill="#4B5170"/><path d="M156.58 239.567c0-.173-14.956 1.712-14.956 0v-14.95c0-.486 14.957-.986 14.957 0v14.95z" fill="#FFF"/><path d="M143.068 238.757c1.462.222 5.215.062 11.19-.473.33-.03.62-.056.88-.078V225.64c-2.463-.285-9.442-.106-12.07.15v12.967zm2.116 2.978c-2.534 0-3.782-.283-4.417-.863-.378-.346-.587-.81-.587-1.305v-14.952c0-1.566 1.467-1.654 4.39-1.83 1.89-.112 4.24-.18 6.286-.18 1.692 0 3.123.047 4.137.134 1.045.088 2.74.233 2.998 1.52.023.102.035.206.035.313v14.998c0 .798-.647 1.445-1.444 1.445-.062 0-.124-.004-.185-.013-.31.017-1.107.088-1.88.158-4.248.38-7.23.575-9.33.575z" fill="#4B5170"/><path d="M156.58 259.415c0 .56-14.956 1.12-14.956 0v-14.952c0 1.623 14.957-1.054 14.957 0v14.952z" fill="#FFF"/><path d="M143.068 244.462zm0 13.968c2.297.268 9.288.25 12.07-.126v-12.65c-1.162.027-3.148.208-4.705.35-3.634.334-5.897.495-7.365.42v12.006zm4.32 3.075c-1.71 0-3.153-.053-4.18-.153-.92-.09-2.522-.245-2.93-1.358-.063-.16-.098-.337-.098-.52v-15.01c0-.798.646-1.444 1.444-1.444.43 0 .816.188 1.08.485 1.23.197 5.09-.158 7.466-.375 5.428-.497 6.56-.533 7.34.18.27.243.444.57.497.923.012.073.018.148.018.225v15.04c0 .763-.593 1.388-1.343 1.44-.74.206-1.765.276-3.02.362-1.88.128-4.225.205-6.275.205z" fill="#4B5170"/><path d="M210.617 198.932c0-.317-14.957.153-14.957 0v-14.95c0-.788 14.957-.033 14.957 0v14.95z" fill="#FFF"/><path d="M197.104 185.12v12.4c1.052-.01 2.59-.035 4.01-.06 4.194-.07 6.618-.106 8.06-.08v-12.04c-2.913-.146-9.573-.38-12.07-.22m13.513 15.302c-.214 0-.417-.046-.6-.13-1.287-.07-5.968.007-8.856.055-6.017.1-6.02.1-6.51-.383-.277-.27-.434-.644-.434-1.03v-14.97c0-.023 0-.046.002-.068.064-1.716 2.107-1.716 5.456-1.716 2.367 0 5.216.094 7.19.172 1.098.044 2.055.088 2.74.122 1.263.065 2.457.125 2.457 1.507v15c0 .796-.646 1.442-1.443 1.442" fill="#4B5170"/><path d="M210.617 219.945c0-.317-14.957.153-14.957 0v-14.95c0-.79 14.957-.033 14.957 0v14.95z" fill="#FFF"/><path d="M197.104 206.13v12.4c1.053-.008 2.593-.033 4.014-.057 4.19-.07 6.61-.106 8.055-.08V206.35c-2.912-.143-9.572-.38-12.07-.22m13.514 15.305c-.214 0-.417-.047-.6-.13-1.286-.072-5.964.007-8.85.055-6.025.1-6.026.1-6.518-.384-.277-.27-.434-.644-.434-1.03v-14.97c0-.023 0-.045.002-.068.064-1.715 2.107-1.715 5.455-1.715 2.366 0 5.217.093 7.19.17 1.098.045 2.056.09 2.74.124 1.263.064 2.458.124 2.458 1.506v14.998c0 .798-.646 1.445-1.443 1.445" fill="#4B5170"/><path d="M210.617 239.567c0-.173-14.957 1.712-14.957 0v-14.95c0-.486 14.957-.986 14.957 0v14.95z" fill="#FFF"/><path d="M197.104 238.757c1.462.222 5.215.062 11.19-.473.33-.03.62-.056.88-.078V225.64c-2.463-.285-9.442-.106-12.07.15v12.967zm2.116 2.978c-2.534 0-3.78-.283-4.416-.863-.38-.346-.588-.81-.588-1.305v-14.952c0-1.566 1.467-1.654 4.39-1.83 1.89-.112 4.24-.18 6.286-.18 1.692 0 3.123.047 4.138.134 1.044.088 2.738.234 2.997 1.522.022.1.034.204.034.31v15c0 .796-.646 1.443-1.443 1.443-.064 0-.125-.004-.187-.013-.31.017-1.106.088-1.88.158-4.247.38-7.23.575-9.33.575z" fill="#4B5170"/><path d="M210.617 259.415c0 .56-14.957 1.12-14.957 0v-14.952c0 1.623 14.957-1.054 14.957 0v14.952z" fill="#FFF"/><path d="M197.104 244.462zm0 13.968c2.297.267 9.287.25 12.07-.126v-12.65c-1.162.027-3.15.208-4.705.35-3.636.334-5.9.495-7.366.42v12.006zm4.32 3.075c-1.708 0-3.153-.053-4.18-.153-.918-.09-2.522-.244-2.93-1.358-.063-.16-.098-.337-.098-.52v-15.01c0-.798.647-1.444 1.444-1.444.43 0 .816.188 1.08.485 1.228.197 5.09-.158 7.466-.375 5.428-.497 6.56-.533 7.34.18.27.243.444.572.497.923.012.073.018.148.018.225v15.04c0 .763-.592 1.388-1.343 1.44-.74.206-1.765.276-3.02.362-1.878.128-4.225.205-6.274.205z" fill="#4B5170"/><path d="M226.695 175.97c0-.15-1.13-.52-3.2 0-1.036.32-2.308.988-3.79.18-1.483.204-3.178.164-5.06-.18-1.884.492-3.956.393-6.192.254-2.235.175-4.637-.496-7.18-.253-1.27-.148-2.576-.292-3.915-.345-1.34-.054-2.71-.015-4.11.2-2.8.31-5.72.242-8.733.146-3.013.513-6.12.297-9.298 0-3.177.166-6.426-.292-9.72 0-2.06.182-4.138-.912-6.23-.038-2.09-.014-4.193-.014-6.303.04-4.22-.144-8.47-.068-12.698 0-4.23-.22-8.44-.608-12.587 0-4.148.48-8.23 0-12.202 0-3.973 0-7.834.052-11.54 0-3.705.448-7.254-.125-10.6 0-3.348.347-6.492.118-9.39 0-2.026.292-3.932.2-5.7.177-1.77.058-3.4.058-4.877-.18-2.954.335-5.297.22-6.9 0-1.605-.49-2.47.814-2.47 0v-33.909c0 .49 1.13.126 3.2 0 1.037.046 2.308.25 3.79.27 1.484.893 3.178.733 5.06-.27 1.884-.307 3.956-.27 6.19-.153 2.238-.254 4.64.22 7.18.154 2.543-.52 5.226-.445 8.028 0 2.8.09 5.72.662 8.732 0 2.678-.155 5.43-.17 8.24-.138 2.81.615 5.68.303 8.59.14 2.91-.2 5.86.2 8.835 0 2.976.088 5.977-.06 8.986 0 3.01.154 6.026.068 9.035-.014 3.01-.343 6.01-.208 8.985.013 2.975-.485 5.926-.226 8.836-.146 2.91.386 5.778.494 8.588.147 3.513-.132 6.936-.18 10.236-.172 3.3.01 6.476.076 9.5.173 3.02.41 5.888.13 8.568-.033 2.68.008 5.173.446 7.446.034 4.546.17 8.214-.144 10.745 0 2.53.665 3.925-.355 3.925 0v33.91z" fill="#BAC2E2"/><path d="M219.97 171.488c.29 0 .573.085.816.25.403.277.718.384.943.39v-31.49c-.692.058-1.576.05-2.63-.17-.49-.002-.973-.074-1.44-.143-.87-.127-1.692-.25-2.545.056-.29.105-.607.113-.904.023-1.383-.418-3.097-.41-5.39.027-2.453.638-5.027.396-7.667.04-2.16.558-4.37.357-6.508.165-.73-.066-1.487-.135-2.232-.172l-.51-.017c-2.873-.1-5.842-.2-8.93-.23-3.73-.036-7.042.045-10.128.246-.04.002-.082.003-.12.002-2.427-.044-5.11.02-8.445.197-1.744.188-3.47.062-5.136-.06-1.285-.093-2.497-.18-3.715-.138-3.13.323-6.33.167-9.16.03l-.187-.01c-2.85-.138-5.798-.283-8.645-.023-2.618.31-5.245.187-7.786.067-.464-.022-.927-.044-1.39-.063-.046-.002-.094-.007-.14-.013-1.42-.198-2.857-.11-4.38-.014-1.414.088-2.876.18-4.362.025-2.682-.113-5.37-.038-7.97.035l-.472.013c-2.98.083-5.666.137-8.306-.04-1.476.048-2.923.018-4.323-.01-1.505-.03-2.925-.06-4.318.005-.39.034-.832.077-1.27.12-2.326.224-4.728.457-7.075-.135-1.482-.136-2.96-.032-4.388.068-.774.055-1.572.11-2.352.126-2.08.498-3.968.207-5.638-.05-.317-.05-.628-.1-.935-.14-.87-.09-1.782-.008-2.663.072-.728.066-1.48.134-2.217.097-1.538.06-2.803.055-3.894-.15-.64.02-1.188.012-1.64-.005v31.174c.228-.022.5-.06.82-.124.12-.025.244-.034.37-.025l.522.034c1.575.102 3.733.243 6.35-.03l.105-.006c.448-.013.91-.045 1.385-.076 1.14-.077 2.43-.162 3.805-.04.063.007.127.016.19.03 1.714.388 3.638.273 5.306.102 2.64-.6 4.887-.606 7.042-.016.803 0 1.615-.004 2.44-.01 1.5-.01 3.047-.02 4.635.01 1.377-.003 2.813 0 4.276.007 2.256.01 4.588.018 6.96-.007 1.968-.007 3.96-.007 5.98-.005l6.136.005h.058c3.164.13 6.325.084 9.672.036.962-.013 1.926-.027 2.892-.036.036 0 .082 0 .123.004 2.19.164 4.367.095 6.672.022 1.983-.063 4.033-.13 6.08-.03 1.887-.15 3.953-.203 6.486-.165 1.284.018 2.565.057 3.842.096.858.026 1.713.052 2.567.072.744.033 1.44.118 2.113.2 1.35.165 2.623.32 3.79.008.176-.047.36-.06.538-.04.82.092 1.69-.006 2.61-.108 1.174-.132 2.388-.268 3.676-.038 1.176.228 2.37.15 3.636.066.66-.043 1.343-.088 2.034-.088 1.15-.177 2.23-.09 3.27-.008.883.07 1.715.137 2.478.023.033-.004.066-.008.1-.01 3.322-.263 6.122-.3 8.88.356 1.464-.28 2.77-.453 3.987-.528 1.398-.084 2.677-.042 3.896.132 1.836-.53 3.568-.443 5.107-.367.744.038 1.446.073 2.104.038.13-.007.256.002.38.03 2.044.44 4.033.172 6.008.338.046.004.092.01.137.018.882.162 1.78.093 2.645.026.76-.057 1.54-.118 2.323-.027.075.007.15.022.223.042 1.052.295 2.047.296 2.963.004.143-.046.29-.068.438-.068m1.77 3.53c-.57 0-1.24-.14-1.988-.534-1.23.272-2.515.233-3.836-.117-.484-.043-1.062 0-1.67.048-.98.075-2.09.16-3.31-.05-1.715-.135-3.798.115-6.122-.35-.744.028-1.488-.01-2.207-.044-1.517-.075-2.95-.147-4.404.333-.22.072-.458.09-.686.053-1.106-.183-2.283-.232-3.594-.152-1.172.07-2.453.248-3.916.54-.214.04-.433.034-.643-.02-2.466-.634-5.068-.603-8.212-.357-1.072.15-2.09.07-3.08-.01-.947-.075-1.84-.146-2.685-.002-.083.013-.167.024-.252.02-.638-.004-1.27.037-1.947.082-1.39.092-2.83.186-4.355-.108-.854-.154-1.813-.047-2.827.067-.956.107-1.942.218-2.984.133-1.61.373-3.142.185-4.625.004-.647-.08-1.257-.154-1.86-.18-.83-.02-1.693-.046-2.557-.072-1.263-.04-2.528-.078-3.797-.096-2.483-.036-4.486.015-6.304.164-.064.005-.13.007-.193.003-1.957-.1-3.98-.036-5.936.027-2.26.072-4.595.146-6.918-.025-.942.01-1.882.023-2.82.036-3.227.047-6.565.094-9.8-.035l-6.107-.005c-2.016-.002-4.005-.002-5.96.005-2.382.025-4.725.016-6.99.007-1.456-.005-2.884-.01-4.29-.007-1.58-.03-3.11-.02-4.59-.01-.903.006-1.795.013-2.666.01-.137 0-.272-.02-.402-.058-1.747-.51-3.614-.504-5.873.02-.058.014-.117.024-.177.03-1.89.197-4.105.333-6.228-.126-1.12-.09-2.21-.018-3.266.052-.492.034-.97.065-1.436.08-2.835.29-5.115.14-6.783.033l-.33-.022c-.91.166-2.7.38-3.534-.303-.333-.275-.547-.716-.547-1.15v-33.91c0-.396.174-.8.463-1.07.505-.48 1.05-.45 1.81-.405.52.03 1.302.073 2.316.034.12-.006.238.005.357.03.854.18 1.99.18 3.43.124.05-.002.097 0 .145 0 .542.034 1.18-.023 1.855-.085.972-.09 2.072-.19 3.27-.064.366.048.696.1 1.032.15 1.51.235 3.07.477 4.643.068.114-.03.23-.045.346-.047.752-.008 1.53-.063 2.356-.12 1.584-.112 3.222-.228 4.985-.052.077.007.153.02.227.04 1.884.5 3.97.298 6.177.084.45-.045.902-.088 1.358-.127 1.544-.073 3.08-.042 4.566-.01 1.384.026 2.816.056 4.238.005.05 0 .1 0 .15.003 2.535.177 5.17.123 8.102.042l.47-.013c2.666-.075 5.422-.153 8.222-.03.03 0 .06.003.09.006 1.26.134 2.553.054 3.924-.032 1.576-.098 3.204-.2 4.888.028l1.337.06c2.42.115 4.927.235 7.346-.054 3.087-.282 6.137-.133 9.088.01l.188.01c2.872.14 5.842.285 8.764-.022.032-.004.064-.006.095-.007 1.394-.054 2.762.045 4.085.142 1.623.117 3.155.23 4.65.065.027-.004.054-.005.08-.007 3.397-.18 6.143-.244 8.632-.203 3.142-.202 6.504-.284 10.283-.247 3.124.03 6.11.13 9 .23l.535.018c.826.042 1.61.113 2.37.18 2.065.188 4.013.364 5.743-.144.196-.058.402-.073.605-.045 2.46.338 4.838.598 6.877.056.033-.008.065-.016.098-.022 2.574-.495 4.615-.524 6.375-.087 1.342-.364 2.516-.19 3.48-.048.42.062.817.12 1.108.11.127-.007.254.006.377.034 1.367.31 2.288.115 2.838-.003.138-.028.3-.063.476-.08.095-.02.193-.03.293-.03.798 0 1.444.647 1.444 1.445v33.99c0 .292-.087.564-.236.79-.274.437-.73.735-1.043.9-.357.19-.902.392-1.597.392" fill="#4B5170"/><path d="M176.048 125.754c0-.246-1.902-.496-5.07 0h-12.675c-5.07 0-10.774.188-16.478 0-5.704.224-11.408 0-16.478 0H107.6v-28.08h17.747c5.07 0 10.774-.24 16.478 0 5.704.24 11.407-.032 16.478 0 2.535.117 4.91.145 7.05.13 2.14-.026 4.04-.386 5.625-.13 3.168.014 5.07-.218 5.07 0v28.08z" fill="#FFF"/><path d="M109.046 124.31h16.3c1.653 0 3.372.024 5.136.048 3.673.05 7.47.104 11.286-.047h.105c3.82.127 7.62.083 11.298.04 1.764-.02 3.48-.04 5.132-.04h12.565c.753-.114 2.33-.323 3.737-.28V99.047l-.24.008c-.845.03-2 .066-3.392.065-.076 0-.15-.008-.226-.02-.828-.135-1.835-.06-3.002.025-.754.055-1.533.112-2.374.122-2.503.017-4.835-.025-7.134-.13-1.787-.01-3.696.018-5.717.048-3.492.052-7.103.105-10.755-.048-3.812-.16-7.61-.104-11.28-.05-1.766.026-3.486.052-5.138.052h-16.3v25.19zm65.558 1.444c0 .127.016.245.043.353-.028-.113-.043-.23-.043-.353zm-38.452 1.543c-1.93 0-3.836-.026-5.71-.052-1.75-.024-3.456-.048-5.095-.048h-17.745c-.798 0-1.444-.646-1.444-1.443v-28.08c0-.796.646-1.442 1.444-1.442h17.745c1.64 0 3.344-.025 5.094-.05 3.715-.056 7.553-.113 11.445.05 3.57.15 7.14.098 10.59.046 2.038-.03 3.963-.06 5.837-.046 2.303.104 4.587.146 7.03.128.746-.008 1.48-.063 2.192-.114 1.248-.092 2.43-.18 3.557-.014 1.296.006 2.374-.035 3.172-.063 1.72-.06 2.24-.08 2.776.437.28.273.454.677.454 1.068v28.08c0 .796-.646 1.442-1.444 1.442-.288 0-.556-.084-.782-.23-.46-.065-1.825-.138-4.065.213-.073.01-.147.017-.222.017h-12.676c-1.64 0-3.346.02-5.098.04-3.692.043-7.51.088-11.375-.04-1.91.075-3.805.1-5.678.1z" fill="#4B5170"/><path d="M171.764 119.246h-59.88V21.744h38.803c5.748-.08 11.017-.068 14.85 0 3.832.25 6.227.142 6.227 0v97.501z" fill="#FFF"/><path d="M170.522 21.008c-.122.202-.202.45-.202.737 0-.27.074-.52.202-.737zm-57.193 96.794h56.99v-94.46c-1.043.028-2.575-.008-4.842-.155-4.112-.073-9.493-.073-14.77 0h-37.38v94.615zm58.434 2.887h-59.88c-.796 0-1.443-.647-1.443-1.444v-97.5c0-.8.648-1.445 1.445-1.445h38.802c5.302-.073 10.73-.074 14.876 0l.067.004c3.185.208 5.078.15 5.612.094.162-.063.338-.097.522-.097.797 0 1.444.647 1.444 1.445v97.5c0 .798-.647 1.444-1.444 1.444z" fill="#4B5170"/><path d="M180.034 45.672v.003-.003zm-1.97.005c0 .22-.05.43-.138.618.086-.18.14-.386.14-.618zm-2.682 2.887v.002-.002zm0 .003zm-3.587 1.45c-.327 0-.645-.08-.957-.342-.326-.274-.518-.685-.518-1.11 0-.82.703-1.47 1.51-1.443l.206-.036c.43-.075.868-.152 1.285-.165.197-.24.44-.526.737-.864 1.4-1.59 1.878-1.872 2.527-1.872.044 0 .088.002.13.006.405-.02.957.024 1.795.087.646.05 1.778.135 2.297.12.2-.107.43-.166.67-.166.8 0 1.445.647 1.445 1.445 0 .42-.178.824-.488 1.112-.65.602-1.513.567-4.143.37-.408-.03-.935-.072-1.237-.083-.516.505-1.51 1.656-1.787 2.06-.222.514-.732.873-1.328.873-.257 0-.5-.067-.708-.185-.235.027-.54.08-.698.108-.25.044-.496.087-.737.087zM104.63 45.672v.003-.003zm6.013 3.086c.033.12.05.246.05.377 0-.134-.018-.26-.05-.377zm.05.377v.002-.002zm0 .002v.002-.003zm0 .003v.002-.002zm-24.256 62.648l-.093-.003c-.796-.05-1.4-.738-1.35-1.533.002-.02.124-1.932.243-4.642.164-3.507.243-6.67.243-9.673 0-3.81-.148-6.4-.465-8.142-.25-1.427-.95-2.898-1.833-4.76-.403-.852-.82-1.73-1.25-2.72-.184-.384-.392-.81-.595-1.228-1.184-2.438-2.303-4.74-2.682-6.89-.403-2.136-.583-5.203-.583-9.926 0-4.047.153-8.368.282-11.28.14-3.154.28-5.385.282-5.407.048-.76.68-1.352 1.44-1.352h6.74c1.284 0 2.63.062 4.054.126 2.845.127 5.787.26 8.25-.11.048-.006.098-.012.147-.014 1.898-.087 3.552.067 4.762.177.404.037.878.08 1.193.094.105-.078.222-.142.348-.19 1.01-.376 1.238-.113 3.437 2.41.333.384.76.874 1.008 1.148.29.05.73.097 1.027.098.237-.17.53-.272.843-.272.798 0 1.444.646 1.444 1.444 0 .402-.166 1.714-2.287 1.714-.655 0-1.413-.04-2.03-.243-.15-.026-.296-.09-.455-.197-.197-.11-.365-.25-.492-.423-.318-.316-.708-.764-1.237-1.37-.312-.358-.745-.855-1.093-1.245-.517.04-1.152-.018-1.973-.094-1.11-.102-2.626-.24-4.293-.17-2.72.396-5.775.258-8.73.125-1.39-.063-2.705-.122-3.923-.122H81.44c-.055.95-.128 2.347-.2 4-.13 2.883-.28 7.158-.28 11.153 0 4.538.165 7.44.536 9.41.312 1.767 1.346 3.894 2.44 6.146.205.424.415.855.624 1.293.43.99.838 1.847 1.232 2.676.94 1.98 1.75 3.688 2.066 5.49.347 1.91.51 4.662.51 8.65 0 3.05-.08 6.256-.245 9.805-.12 2.738-.245 4.677-.246 4.696-.05.764-.684 1.352-1.44 1.352zM117.91 80.078v.002-.002zm0 .004zm21.13 1.66c-.548 0-1.133-.053-1.747-.206-2.375.17-4.65.165-6.76-.02-2.267-.07-4.61-.142-6.625.002l-.063.003c-2 .057-3.768-.05-5.06-.127-.58-.036-1.244-.073-1.583-.073-.215.128-.466.2-.735.2-.798 0-1.444-.645-1.444-1.442 0-.433.175-.836.492-1.134.64-.602 1.404-.556 3.445-.433 1.23.075 2.91.177 4.774.125 2.168-.152 4.588-.076 6.93-.002.027 0 .054.002.082.005 2.04.18 4.25.18 6.575 0 .175-.014.35.005.52.055.92.27 1.843.144 2.736.02.79-.108 1.607-.22 2.406-.045.076.016.15.04.222.067.328.13.528.06.782-.03.258-.092.94-.332 1.592.128.404.285.635.74.635 1.245 0 .828-.715 1.494-1.537 1.44-.502.155-1.347.325-2.388-.043-.305-.04-.8.027-1.318.1-.573.078-1.22.167-1.93.167zM117.91 86.13v.004-.003zm19.35 0c0 .096.01.188.026.274-.016-.088-.026-.18-.026-.273zm-19.35.004c0 .235-.056.456-.155.653.097-.192.156-.412.156-.653zm-.382.977c-.16.174-.36.307-.588.386.212-.07.42-.202.588-.385zm8.39.59c-1.223 0-2.557-.03-3.802-.13-2.703-.116-4.807-.074-5.315-.034-.106.025-.218.04-.333.04-.798 0-1.444-.647-1.444-1.445 0-.393.162-.772.447-1.044.372-.356.695-.663 6.825-.397 1.784.142 3.75.132 5.267.107.58-.01 1.167-.065 1.79-.124 1.214-.116 2.47-.235 3.713.01 5.995-.218 6.148-.073 6.636.398.283.273.448.66.448 1.05 0 .8-.646 1.445-1.444 1.445-.16 0-.314-.026-.46-.075-.45-.032-1.954-.047-5.252.074-.127.004-.252-.007-.374-.036-.855-.195-1.893-.097-2.994.008-.65.062-1.32.126-2.014.137-.52.01-1.094.016-1.692.016zM143.325 98.238v.002-.002zm-3.973 1.496c-.62 0-1.278-.015-1.96-.053h-20.925c-.798 0-1.444-.645-1.444-1.442 0-.798.646-1.444 1.444-1.444h20.965c.028 0 .055 0 .082.002 2.098.12 3.907.004 5.23-.08 1.686-.11 2.386-.153 2.985.408.307.288.483.694.483 1.114 0 .797-.646 1.443-1.444 1.443-.23 0-.446-.052-.638-.147-.29.005-.77.036-1.204.064-.913.058-2.148.137-3.576.137zM141.042 93.888c-1.066 0-2.3-.062-3.64-.25-2.885.285-6.145.182-9.3.083-1.522-.047-2.96-.092-4.297-.092h-7.338c-.798 0-1.444-.646-1.444-1.443 0-.798.646-1.444 1.444-1.444h7.338c1.384 0 2.842.047 4.387.095 3.125.098 6.355.2 9.09-.086.12-.014.24-.01.36.006 3.216.472 5.784.137 6.628.027.424-.056.95-.125 1.452.315.312.275.49.67.49 1.087 0 .794-.64 1.44-1.435 1.443l-.134.017c-.574.075-1.864.243-3.6.243M137.26 104.29c0 .26.066.49.17.682-.108-.203-.17-.435-.17-.68m1.444 1.442c-.14 0-.277-.02-.406-.058-.33-.01-1.116.003-1.88.018-.955.018-2.15.04-3.478.04h-16.473c-.798 0-1.444-.646-1.444-1.443s.646-1.443 1.444-1.443h16.473c1.307 0 2.484-.022 3.425-.04 2.574-.048 2.84-.053 3.346.443.278.272.438.653.438 1.04 0 .798-.646 1.444-1.444 1.444M144.77 111.787h-28.303c-.798 0-1.444-.646-1.444-1.443s.646-1.444 1.444-1.444h28.302c.797 0 1.443.647 1.443 1.444 0 .797-.646 1.443-1.444 1.443" fill="#4B5170"/></g></svg>