<svg width="54" height="49" viewBox="0 0 54 49" xmlns="http://www.w3.org/2000/svg" xmlns:xlink="http://www.w3.org/1999/xlink"><title>Page 1</title><defs><path id="a" d="M53.476 9.696v9.643H0V.053h53.476z"/><path id="c" d="M.033 28.414h31.21V.038H.032z"/><path id="e" d="M8.297.013H.015V5.39h8.282V.012z"/><path id="g" d="M0 48.49h53.476V.063H0z"/></defs><g fill="none" fill-rule="evenodd"><path d="M50.514 47.395H2.962c-1.033 0-1.87-.84-1.87-1.878v-13.34c0-1.036.837-1.877 1.87-1.877h47.552c1.033 0 1.87.84 1.87 1.878v13.34c0 1.036-.837 1.877-1.87 1.877z" fill="#FFCD20"/><g transform="translate(0 29.15)"><mask id="b" fill="#fff"><use xlink:href="#a"/></mask><path d="M2.962 2.244c-.43 0-.78.35-.78.783v13.34c0 .43.35.78.78.78h47.552c.43 0 .78-.35.78-.78V3.026c0-.432-.35-.783-.78-.783H2.962zM50.514 19.34H2.962C1.33 19.34 0 18.004 0 16.365V3.026C0 1.39 1.33.055 2.962.055h47.552c1.633 0 2.962 1.334 2.962 2.973v13.34c0 1.638-1.33 2.972-2.962 2.972z" fill="#57585A" mask="url(#b)"/></g><path d="M13.18 21.66c0-7.514 6.07-13.606 13.558-13.606 7.488 0 13.56 6.092 13.56 13.607" fill="#FFCD20"/><path d="M41.388 21.66h-2.182c0-6.898-5.593-12.51-12.468-12.51S14.27 14.76 14.27 21.66h-2.182c0-3.926 1.524-7.618 4.29-10.395 2.768-2.777 6.447-4.306 10.36-4.306 3.913 0 7.592 1.528 10.36 4.305 2.766 2.777 4.29 6.47 4.29 10.396" fill="#57585A"/><path d="M39.38 47.395H14.096c-1.033 0-1.87-.84-1.87-1.878v-22.43c0-1.037.837-1.877 1.87-1.877H39.38c1.034 0 1.87.84 1.87 1.877v22.43c0 1.037-.836 1.878-1.87 1.878" fill="#FFCD20"/><g transform="translate(11.1 20.076)"><mask id="d" fill="#fff"><use xlink:href="#c"/></mask><path d="M2.995 2.228c-.43 0-.78.35-.78.783v22.43c0 .432.35.783.78.783H28.28c.43 0 .78-.35.78-.782V3.01c0-.43-.35-.782-.78-.782H2.994zM28.28 28.414H2.994c-1.633 0-2.962-1.334-2.962-2.973V3.01C.033 1.373 1.363.04 2.995.04H28.28c1.633 0 2.962 1.334 2.962 2.973v22.43c0 1.64-1.33 2.974-2.963 2.974z" fill="#57585A" mask="url(#d)"/></g><path d="M26.738 9.15c-.603 0-1.09-.49-1.09-1.096V1.176c0-.605.487-1.095 1.09-1.095.603 0 1.09.49 1.09 1.096v6.878c0 .605-.487 1.095-1.09 1.095" fill="#57585A"/><path d="M32.335 3.185c.665-.17.67-.47.013-.665l-4.414-1.313c-.658-.196-1.196.207-1.196.896v1.26c0 .69.544 1.113 1.21.943l4.387-1.12z" fill="#BAC1E1"/><g transform="translate(25.632 .05)"><mask id="f" fill="#fff"><use xlink:href="#e"/></mask><path d="M6.703 3.135zM2.198 2.27v.887l1.605-.41-1.605-.478zm-.17 3.12c-.453 0-.885-.144-1.236-.418-.494-.385-.777-.99-.777-1.658v-1.26c0-.678.288-1.282.79-1.658.5-.376 1.16-.48 1.807-.29l4.414 1.315c.28.084.506.19.69.32.378.27.59.668.58 1.094-.008.426-.234.816-.62 1.07-.19.124-.42.22-.704.293l-4.388 1.12c-.186.05-.372.072-.555.072z" fill="#57585A" mask="url(#f)"/></g><path d="M29.75 41.35v5.914h-6.024V41.35c0-1.668 1.348-3.022 3.012-3.022s3.012 1.354 3.012 3.023" fill="#BAC1E1"/><path d="M24.817 46.168h3.842V41.35c0-1.062-.863-1.926-1.922-1.926-1.06 0-1.92.864-1.92 1.927v4.818zm6.025 2.19h-8.208v-7.007c0-2.27 1.84-4.117 4.104-4.117 2.263 0 4.104 1.848 4.104 4.118v7.01z" fill="#57585A"/><path d="M18.84 28.452h-2c-.342 0-.623-.282-.623-.626v-1.99c0-.345.28-.626.624-.626h2c.344 0 .624.28.624.625v1.99c0 .345-.28.627-.623.627" fill="#FEFEFE"/><mask id="h" fill="#fff"><use xlink:href="#g"/></mask><path d="M16.997 27.67h1.688V25.99h-1.688v1.677zm1.844 1.564h-2c-.773 0-1.402-.632-1.402-1.408v-1.99c0-.777.63-1.41 1.403-1.41h2c.774 0 1.404.633 1.404 1.41v1.99c0 .776-.63 1.408-1.403 1.408z" fill="#57585A" mask="url(#h)"/><path d="M36.278 28.452h-2c-.343 0-.623-.282-.623-.626v-1.99c0-.345.28-.626.623-.626h2c.343 0 .624.28.624.625v1.99c0 .345-.28.627-.624.627" fill="#FEFEFE" mask="url(#h)"/><path d="M34.434 27.67h1.688V25.99h-1.688v1.677zm1.844 1.564h-2c-.773 0-1.403-.632-1.403-1.408v-1.99c0-.777.63-1.41 1.403-1.41h2c.774 0 1.403.633 1.403 1.41v1.99c0 .776-.628 1.408-1.402 1.408z" fill="#57585A" mask="url(#h)"/><path d="M18.84 33.955h-2c-.342 0-.623-.28-.623-.625v-1.99c0-.345.28-.627.624-.627h2c.344 0 .624.282.624.626v1.99c0 .344-.28.625-.623.625" fill="#FEFEFE" mask="url(#h)"/><path d="M16.997 33.173h1.688v-1.677h-1.688v1.677zm1.844 1.565h-2c-.773 0-1.402-.632-1.402-1.408v-1.99c0-.777.63-1.41 1.403-1.41h2c.774 0 1.404.633 1.404 1.41v1.99c0 .776-.63 1.408-1.403 1.408z" fill="#57585A" mask="url(#h)"/><path d="M36.278 33.955h-2c-.343 0-.623-.28-.623-.625v-1.99c0-.345.28-.627.623-.627h2c.343 0 .624.282.624.626v1.99c0 .344-.28.625-.624.625" fill="#FEFEFE" mask="url(#h)"/><path d="M34.434 33.173h1.688v-1.677h-1.688v1.677zm1.844 1.565h-2c-.773 0-1.403-.632-1.403-1.408v-1.99c0-.777.63-1.41 1.403-1.41h2c.774 0 1.403.633 1.403 1.41v1.99c0 .776-.628 1.408-1.402 1.408z" fill="#57585A" mask="url(#h)"/><path d="M47.594 37.588h-2c-.343 0-.624-.28-.624-.626v-1.99c0-.344.28-.626.624-.626h2c.343 0 .623.282.623.626v1.99c0 .345-.28.626-.623.626" fill="#FEFEFE" mask="url(#h)"/><path d="M45.75 36.806h1.688V35.13H45.75v1.676zm1.843 1.565h-2c-.773 0-1.403-.63-1.403-1.407v-1.99c0-.777.63-1.41 1.404-1.41h2c.773 0 1.403.633 1.403 1.41v1.99c0 .776-.63 1.408-1.404 1.408z" fill="#57585A" mask="url(#h)"/><path d="M7.748 38.395h-2c-.342 0-.623-.282-.623-.626v-1.992c0-.344.28-.625.624-.625h1.998c.343 0 .624.28.624.625v1.99c0 .345-.28.627-.624.627" fill="#FEFEFE" mask="url(#h)"/><path d="M5.905 37.612h1.688v-1.677H5.905v1.677zm1.843 1.565h-2c-.773 0-1.403-.632-1.403-1.408v-1.992c0-.776.63-1.408 1.404-1.408h1.998c.774 0 1.404.632 1.404 1.408v1.99c0 .777-.63 1.41-1.404 1.41z" fill="#57585A" mask="url(#h)"/><path d="M30.466 28.452h-2c-.343 0-.624-.282-.624-.626v-1.99c0-.345.28-.626.624-.626h2c.343 0 .623.28.623.625v1.99c0 .345-.28.627-.624.627" fill="#FEFEFE" mask="url(#h)"/><path d="M28.622 27.67h1.688V25.99h-1.688v1.677zm1.844 1.564h-2c-.774 0-1.403-.632-1.403-1.408v-1.99c0-.777.63-1.41 1.403-1.41h2c.773 0 1.403.633 1.403 1.41v1.99c0 .776-.63 1.408-1.404 1.408z" fill="#57585A" mask="url(#h)"/><path d="M30.466 33.955h-2c-.343 0-.624-.28-.624-.625v-1.99c0-.345.28-.627.624-.627h2c.343 0 .623.282.623.626v1.99c0 .344-.28.625-.624.625" fill="#FEFEFE" mask="url(#h)"/><path d="M28.622 33.173h1.688v-1.677h-1.688v1.677zm1.844 1.565h-2c-.774 0-1.403-.632-1.403-1.408v-1.99c0-.777.63-1.41 1.403-1.41h2c.773 0 1.403.633 1.403 1.41v1.99c0 .776-.63 1.408-1.404 1.408z" fill="#57585A" mask="url(#h)"/><path d="M24.653 28.452h-2c-.343 0-.623-.282-.623-.626v-1.99c0-.345.28-.626.623-.626h2c.343 0 .624.28.624.625v1.99c0 .345-.28.627-.624.627" fill="#FEFEFE" mask="url(#h)"/><path d="M22.81 27.67h1.687V25.99H22.81v1.677zm1.843 1.564h-2c-.773 0-1.403-.632-1.403-1.408v-1.99c0-.777.63-1.41 1.403-1.41h2c.774 0 1.403.633 1.403 1.41v1.99c0 .776-.63 1.408-1.403 1.408z" fill="#57585A" mask="url(#h)"/><path d="M24.653 33.955h-2c-.343 0-.623-.28-.623-.625v-1.99c0-.345.28-.627.623-.627h2c.343 0 .624.282.624.626v1.99c0 .344-.28.625-.624.625" fill="#FEFEFE" mask="url(#h)"/><path d="M22.81 33.173h1.687v-1.677H22.81v1.677zm1.843 1.565h-2c-.773 0-1.403-.632-1.403-1.408v-1.99c0-.777.63-1.41 1.403-1.41h2c.774 0 1.403.633 1.403 1.41v1.99c0 .776-.63 1.408-1.403 1.408z" fill="#57585A" mask="url(#h)"/><path d="M14.788 29.026l-.69-1.016c-.378-.56.24-1.65 1.374-2.425L30.748 15.15c1.134-.775 2.694-.478 3.466.66l3.586 5.286c.772 1.14.9 2.414.284 2.835l-1.12.766" fill="#86AC5A" mask="url(#h)"/><path d="M13.886 29.642l-.69-1.016c-.423-.625-.397-1.46.073-2.29.34-.6.904-1.19 1.587-1.656l15.277-10.436c1.634-1.116 3.87-.69 4.982.95l3.586 5.286c1.15 1.696 1.15 3.57-.004 4.356l-1.12.765-1.23-1.81 1.03-.702c.024-.192-.043-.73-.48-1.375l-3.586-5.287c-.436-.64-1.31-.808-1.95-.37L16.086 26.49c-.613.42-.9.852-.982 1.055l.586.865-1.804 1.232z" fill="#57585A" mask="url(#h)"/><path d="M37.188 25.16c.772 1.138.476 2.703-.658 3.478L21.253 39.074c-1.134.775-2.693.477-3.465-.66l-3.586-5.287c-.772-1.14-.476-2.704.658-3.48l15.276-10.434c1.135-.775 2.694-.478 3.466.66l3.586 5.287z" fill="#86AC5A" mask="url(#h)"/><path d="M31.538 19.874c-.272 0-.546.08-.787.244L15.475 30.554c-.307.21-.515.53-.586.902-.07.37.007.746.216 1.054l3.586 5.287c.435.642 1.31.808 1.95.37l15.276-10.434c.64-.437.805-1.315.37-1.957L32.7 20.49c-.27-.4-.713-.616-1.162-.616M19.855 40.602c-1.148 0-2.276-.55-2.97-1.573L13.3 33.742c-.538-.792-.735-1.75-.556-2.696.18-.946.712-1.765 1.502-2.304l15.276-10.436c1.635-1.116 3.87-.69 4.982.95l3.586 5.287c1.113 1.64.688 3.883-.946 5L21.868 39.978c-.617.42-1.318.622-2.013.622" fill="#57585A" mask="url(#h)"/><path d="M28.432 27.274c1.03 1.516.638 3.583-.874 4.616-1.512 1.033-3.57.64-4.6-.877-1.03-1.517-.638-3.584.874-4.616 1.51-1.033 3.57-.64 4.6.877" fill="#F5F3F1" mask="url(#h)"/><path d="M25.692 26.917c-.43 0-.865.124-1.246.385-1.012.69-1.275 2.08-.586 3.095.69 1.015 2.072 1.28 3.084.588 1.012-.692 1.274-2.08.586-3.095-.43-.633-1.128-.973-1.838-.973m.01 6.643c-1.41 0-2.795-.676-3.646-1.93-1.366-2.014-.845-4.768 1.162-6.14 2.006-1.37 4.75-.846 6.116 1.167 1.366 2.014.845 4.767-1.162 6.138-.756.517-1.618.765-2.47.765" fill="#57585A" mask="url(#h)"/><path d="M17.206 18.677c-.16 0-.325-.036-.48-.112-.54-.266-.765-.922-.5-1.465 1.978-4.055 3.828-5.26 7.296-6.872.547-.255 1.196-.016 1.45.533.253.55.015 1.2-.532 1.455-3.126 1.454-4.567 2.39-6.253 5.848-.19.388-.578.614-.98.614" fill-opacity=".6" fill="#FEFEFE" mask="url(#h)"/></g></svg>