<svg width="306" height="312" viewBox="0 0 306 312" xmlns="http://www.w3.org/2000/svg"><title>Page 1</title><g fill="none" fill-rule="evenodd"><path d="M306 156.364c-.003 4.35-.126 8.716-.386 13.08-1.97 56.03-38.624 108.283-89.96 130.062-3.106 1.313-6.262 2.53-9.466 3.643-3.204 1.112-6.456 2.125-9.75 3.03-13.182 3.627-27.063 5.563-41.396 5.563-24.57 0-47.813-5.69-68.48-15.827-5.165-2.534-10.17-5.346-14.995-8.418-11.327-7.844-21.784-17.055-31.016-27.345-3.077-3.43-6.02-6.98-8.81-10.638-6.762-9.175-12.514-19.105-17.184-29.53-4.67-9.907-8.256-22.123-10.688-32.51-1.217-6.342-2.143-11.39-2.77-16.89C.56 165.84.21 163.24.044 158.34c-.233-10.938.483-18.254 2.038-26.69 1.556-7.428 3.95-17.995 7.072-25.74 3.123-8.14 6.976-15.69 11.448-23.482 4.473-7.508 9.566-15.636 15.17-23 3.2-2.94 6.57-7.1 10.092-11.587 7.884-8.623 16.686-16.004 26.154-21.296 9.468-6.002 19.6-10.726 30.146-15.435 5.273-.652 10.65-3.846 16.096-5.282 8.67-1.708 17.48-2.328 26.312-4.534 8.832-1.09 17.69-.582 26.465.46 17.547 1.888 34.753 6.85 50.734 14.382 15.98 7.532 30.734 17.63 43.38 29.788 3.52 3.38 6.872 6.768 10.022 10.466 9.167 12.014 15.895 25.624 20.856 39.946 1.654 4.775 3.102 9.626 4.34 14.52 2.496 9.335 3.276 19.473 4.555 29.615.56 6.04.962 12.164 1.077 15.89" fill="#F6F3F1"/><path d="M272.222 262.814c0-2.405-27.432.84-54.865 0-27.432 1.135-54.864-.63-54.864 0 0-11.422 6.14-21.897 16.07-29.82 9.928-8.598 23.644-12.477 38.794-12.353 15.15 2.105 28.867 4.152 38.795 12.353 9.93 8.397 16.07 19.128 16.07 29.82" fill="#FFCC21"/><path d="M272.222 262.814c0-2.405-27.432.84-54.865 0-27.432 1.135-54.864-.63-54.864 0 0-11.422 6.14-21.897 16.07-29.82 9.928-8.598 23.644-12.477 38.794-12.353 15.15 2.105 28.867 4.152 38.795 12.353 9.93 8.397 16.07 19.128 16.07 29.82z" stroke="#4B5170" stroke-width="4" stroke-linejoin="round"/><path d="M260.616 137.393v-34.946l-87.816.557v34.39c-5.62 0-10.175 5.897-10.175 13.172s4.556 13.173 10.175 13.173v3.873c0 12.146 4.915 24.336 12.86 33.874 6.5 7.62 11.264 10.562 20.79 12.69h.143V226.4c0 5.563 4.552 10.115 10.115 10.115 0 0 10.115-4.552 10.115-10.115v-11.92c8.06-1.81 15.27-6.035 20.933-12.995 7.945-9 12.86-20.9 12.86-33.874v-3.874c5.62 0 10.176-5.9 10.176-13.174 0-7.275-4.556-13.173-10.176-13.173" fill="#FFF"/><path d="M260.616 137.393v-34.946l-87.816.557v34.39c-5.62 0-10.175 5.897-10.175 13.172s4.556 13.173 10.175 13.173v3.873c0 12.146 4.915 24.336 12.86 33.874 6.5 7.62 11.264 10.562 20.79 12.69h.143V226.4c0 5.563 4.552 10.115 10.115 10.115 0 0 10.115-4.552 10.115-10.115v-11.92c8.06-1.81 15.27-6.035 20.933-12.995 7.945-9 12.86-20.9 12.86-33.874v-3.874c5.62 0 10.176-5.9 10.176-13.174 0-7.275-4.556-13.173-10.176-13.173z" stroke="#4B5170" stroke-width="4" stroke-linejoin="round"/><path d="M262.392 137.394s-19.94-28.24-18.45-33.26c1.49-5.017-30.98 24.227-62.022 21.677-9.12-.748-8.665 11.59-8.665 11.59s-8.523-25.134-.99-37.63c18.155-30.118 67.388-31.365 85.056-12.215 12.917 14 5.072 49.84 5.072 49.84" fill="#BAC2E2"/><path d="M262.392 137.394s-19.94-28.24-18.45-33.26c1.49-5.017-30.98 24.227-62.022 21.677-9.12-.748-8.665 11.59-8.665 11.59s-8.523-25.134-.99-37.63c18.155-30.118 67.388-31.365 85.056-12.215 12.917 14 5.072 49.84 5.072 49.84z" stroke="#4B5170" stroke-width="4" stroke-linejoin="round"/><path d="M68.997 104.897s-20.254 2.3-23.383 18.044c-3.13 15.746 4.38 38.328 0 43.973-4.38 5.646-14.395 6.273-14.395 6.273s3.355 19.446 18.888 15.682c15.533-3.764 27.653-4.87 28.478-11.844.824-6.974-9.59-72.127-9.59-72.127" fill="#BAC2E2"/><path d="M68.997 104.897s-20.254 2.3-23.383 18.044c-3.13 15.746 4.38 38.328 0 43.973-4.38 5.646-14.395 6.273-14.395 6.273s3.355 19.446 18.888 15.682c15.533-3.764 27.653-4.87 28.478-11.844.824-6.974-9.59-72.127-9.59-72.127z" stroke="#4B5170" stroke-width="4" stroke-linejoin="round"/><path d="M163.097 104.763s20.3 2.3 23.437 18.044c3.136 15.745-4.39 38.327 0 43.972 4.39 5.645 14.427 6.272 14.427 6.272s-3.363 19.446-18.93 15.682c-15.57-3.764-27.717-4.87-28.543-11.844-.826-6.974 9.61-72.127 9.61-72.127" fill="#BAC2E2"/><path d="M163.097 104.763s20.3 2.3 23.437 18.044c3.136 15.745-4.39 38.327 0 43.972 4.39 5.645 14.427 6.272 14.427 6.272s-3.363 19.446-18.93 15.682c-15.57-3.764-27.717-4.87-28.543-11.844-.826-6.974 9.61-72.127 9.61-72.127z" stroke="#4B5170" stroke-width="4" stroke-linejoin="round"/><path d="M170.305 266.3c0-2.405-27.432.84-54.865 0-27.432 1.135-54.864-.63-54.864 0 0-11.422 6.14-21.897 16.07-29.82 9.928-8.598 23.644-12.477 38.794-12.353 15.15 2.104 28.867 4.15 38.796 12.352 9.928 8.396 16.07 19.127 16.07 29.82" fill="#4B5170"/><path d="M170.305 266.3c0-2.405-27.432.84-54.865 0-27.432 1.135-54.864-.63-54.864 0 0-11.422 6.14-21.897 16.07-29.82 9.928-8.598 23.644-12.477 38.794-12.353 15.15 2.104 28.867 4.15 38.796 12.352 9.928 8.396 16.07 19.127 16.07 29.82z" stroke="#4B5170" stroke-width="4" stroke-linejoin="round"/><path d="M158.7 140.88v-34.947l-87.817.557v34.39c-5.62 0-10.175 5.897-10.175 13.172s4.556 13.173 10.175 13.173v3.874c0 12.145 4.915 24.335 12.86 33.873 6.5 7.62 11.264 10.562 20.79 12.69h.143v12.225c0 5.563 4.552 10.115 10.115 10.115 0 0 10.116-4.552 10.116-10.115v-11.92c8.06-1.81 15.27-6.035 20.933-12.995 7.944-9 12.86-20.9 12.86-33.874v-3.875c5.62 0 10.175-5.898 10.175-13.173S164.32 140.88 158.7 140.88" fill="#FFF"/><path d="M158.7 140.88v-34.947l-87.817.557v34.39c-5.62 0-10.175 5.897-10.175 13.172s4.556 13.173 10.175 13.173v3.874c0 12.145 4.915 24.335 12.86 33.873 6.5 7.62 11.264 10.562 20.79 12.69h.143v12.225c0 5.563 4.552 10.115 10.115 10.115 0 0 10.116-4.552 10.116-10.115v-11.92c8.06-1.81 15.27-6.035 20.933-12.995 7.944-9 12.86-20.9 12.86-33.874v-3.875c5.62 0 10.175-5.898 10.175-13.173S164.32 140.88 158.7 140.88z" stroke="#4B5170" stroke-width="4" stroke-linejoin="round"/><path d="M160.475 140.88s-19.94-28.24-18.45-33.258c1.49-5.02-30.98 24.225-62.022 21.676-9.12-.75-8.665 11.588-8.665 11.588s-8.523-25.133-.99-37.63c18.155-30.118 67.388-31.365 85.056-12.214 12.916 14 5.07 49.84 5.07 49.84" fill="#BAC2E2"/><path d="M160.475 140.88s-19.94-28.24-18.45-33.258c1.49-5.02-30.98 24.225-62.022 21.676-9.12-.75-8.665 11.588-8.665 11.588s-8.523-25.133-.99-37.63c18.155-30.118 67.388-31.365 85.056-12.214 12.916 14 5.07 49.84 5.07 49.84z" stroke="#4B5170" stroke-width="4" stroke-linejoin="round"/></g></svg>