<svg width="28" height="35" viewBox="0 0 28 35" xmlns="http://www.w3.org/2000/svg" xmlns:xlink="http://www.w3.org/1999/xlink"><title>Page 1</title><defs><path id="a" d="M13.996 34.85h13.996V0H0v34.85h13.996z"/></defs><g fill="none" fill-rule="evenodd"><g transform="translate(0 .09)"><mask id="b" fill="#fff"><use xlink:href="#a"/></mask><path d="M26.967 34.88H1.027C.458 34.88 0 34.424 0 33.86V1.05C0 .486.46.03 1.026.03h19.142c.567 0 1.026.457 1.026 1.02 0 .562-.46 1.018-1.026 1.018H2.052v30.774h23.89V7.802c0-.563.458-1.02 1.025-1.02.566 0 1.025.457 1.025 1.02v26.06c0 .562-.46 1.018-1.025 1.018" fill="#FFF" mask="url(#b)"/></g><path d="M21.194 6.872V3.598l3.296 3.274h-3.296zm6.793.918c0-.015-.004-.03-.006-.043l-.007-.056-.013-.048c-.004-.016-.007-.032-.012-.047-.005-.017-.01-.032-.017-.048-.004-.016-.01-.03-.016-.046l-.02-.043-.023-.047c-.006-.014-.015-.027-.023-.04l-.027-.045-.033-.045-.027-.035c-.022-.026-.044-.05-.068-.075L20.894.42c-.024-.025-.05-.048-.076-.07-.01-.01-.023-.016-.034-.025-.016-.01-.03-.023-.046-.034-.015-.008-.03-.016-.043-.025L20.65.24c-.013-.008-.028-.014-.043-.02-.016-.01-.03-.016-.047-.023L20.516.18l-.05-.016-.044-.012c-.018-.004-.036-.01-.054-.012-.016-.004-.033-.006-.05-.008l-.05-.007c-.03-.003-.06-.004-.09-.005h-.02c-.03 0-.06.002-.09.005l-.05.007c-.016.002-.033.004-.05.008-.018.003-.036.008-.053.013l-.044.01-.05.018c-.015.007-.03.01-.044.017L19.73.22c-.015.006-.03.012-.045.02l-.043.025L19.6.29l-.048.035c-.01.01-.023.017-.034.026-.052.043-.1.09-.143.143l-.027.035-.033.045c-.01.014-.018.03-.027.044l-.025.04-.022.048-.02.044c-.006.014-.01.03-.017.045l-.016.048c-.005.015-.01.03-.013.047l-.012.05c-.004.018-.006.036-.008.055l-.007.043c-.003.034-.005.067-.005.1v6.753c0 .563.46 1.02 1.026 1.02h6.8c.032 0 .066-.002.1-.006.015 0 .03-.004.045-.006l.054-.008c.017-.004.034-.01.05-.013.017-.004.032-.007.047-.012.017-.005.033-.01.05-.017l.045-.016.044-.02.046-.023.043-.026c.014-.01.03-.017.043-.026.016-.01.03-.022.046-.034l.035-.025c.052-.044.1-.092.143-.144.01-.01.017-.023.026-.035.012-.014.023-.028.034-.044.01-.014.018-.03.027-.044l.024-.04c.01-.016.016-.032.024-.048l.02-.044c.007-.015.012-.03.017-.046.007-.016.013-.03.018-.048.005-.015.008-.03.012-.046.005-.017.01-.033.013-.05l.008-.056c.003-.014.006-.028.007-.043.007-.066.007-.133 0-.2zM3.862 6.605h12.49c.568 0 1.027-.456 1.027-1.02 0-.56-.46-1.018-1.027-1.018H3.863c-.567 0-1.027.457-1.027 1.02 0 .562.46 1.018 1.026 1.018M16.458 8.912H3.968c-.568 0-1.027.457-1.027 1.02 0 .562.46 1.018 1.027 1.018h12.49c.568 0 1.027-.456 1.027-1.02 0-.56-.46-1.018-1.026-1.018M16.458 13.257H3.968c-.568 0-1.027.457-1.027 1.02 0 .562.46 1.018 1.027 1.018h12.49c.568 0 1.027-.456 1.027-1.02 0-.56-.46-1.018-1.026-1.018M11.23 28.102V25.36c.727.164 1.173.59 1.322 1.15 0 .87-.595 1.296-1.323 1.592zM9.36 22.93c-.876-.28-1.454-.592-1.454-1.314 0-.87.578-1.265 1.455-1.413v2.726zm1.87.41v-2.99c.446.132.727.28 1.008.395 1.04.74 2.215-.87 1.04-1.708-.594-.426-1.32-.607-2.05-.738v-.396c0-1.46-1.867-1.46-1.867 0v.263c-1.735.263-3.322 1.166-3.488 3.022-.297 2.593 1.604 3.184 3.49 3.595v3.317c-.745-.148-1.456-.427-1.886-.723-.562-.412-1.19-.15-1.44.18-.296.394-.296 1.116.117 1.543.877.608 1.87 1.018 3.208 1.166v.262c0 1.46 1.87 1.46 1.87 0v-.41c1.917-.28 3.455-1.446 3.455-3.482 0-2.118-1.72-2.857-3.456-3.3z" fill="#FFF"/></g></svg>