<svg width="60" height="42" viewBox="0 0 60 42" xmlns="http://www.w3.org/2000/svg"><title>Page 1 Copy 2</title><g stroke="#FFCB3B" stroke-width="2" fill="none" fill-rule="evenodd"><path d="M15.07 5.522c0 2.344-2.036 4.244-4.545 4.244-2.512 0-4.546-1.9-4.546-4.244s2.033-4.244 4.545-4.244c2.51 0 4.544 1.9 4.544 4.244zM17.456 11.69H3.592L1.266 24.717H5.06l1.47 16.19H14.518l1.468-16.19h3.794z" fill="#FFCB3B"/><path d="M36.616 5.522c0 2.344-2.034 4.244-4.544 4.244s-4.546-1.9-4.546-4.244 2.035-4.244 4.546-4.244c2.51 0 4.544 1.9 4.544 4.244zM39.004 11.69H25.14l-2.326 13.028h3.794l1.47 16.19h7.989l1.47-16.19h3.793zM54.43 14.773c0 1.734-1.507 3.14-3.363 3.14s-3.36-1.406-3.36-3.14c0-1.733 1.504-3.14 3.36-3.14 1.856 0 3.362 1.407 3.362 3.14zM56.194 19.334H45.94l-1.72 9.634h2.807l1.087 11.974h5.907l1.088-11.974h2.806z"/></g></svg>