<svg width="73" height="55" viewBox="0 0 73 55" xmlns="http://www.w3.org/2000/svg" xmlns:xlink="http://www.w3.org/1999/xlink"><title>Page 1</title><defs><path id="a" d="M37.226 73.95H0V.075h37.226z"/></defs><g fill="none" fill-rule="evenodd"><path d="M60.613 17.67l-2.658-2.7-4.73 2.003-3.42-4.43-4.508 2.804-7.617-1.157c-1.3-6.182-6.31-11.204-12.924-12.208C16.25.69 8.312 6.534 7.026 15.036c-.107.722-.167 1.44-.175 2.152l3.193 18.97L36.775 23.46l27.36 4.153 6.216-3.955-4.65-6.407-5.087.42z" fill="#F5F3F1"/><path d="M63.79 25.995l4.34-2.76-3.172-4.37-4.94.41-2.428-2.467-4.862 2.057-3.292-4.267-3.805 2.366-9.246-1.404-.22-1.053c-.583-2.77-1.975-5.276-4.026-7.247-2.096-2.013-4.73-3.31-7.614-3.747C16.876 2.35 9.714 7.625 8.558 15.27c-.09.61-.143 1.218-.155 1.802L11.23 33.88l25.307-12.02.47.07 26.784 4.065zm8.782-1.914l-8.095 5.15-27.464-4.166L8.856 38.437 5.3 17.307l.002-.138c.008-.766.073-1.56.19-2.36C6.906 5.47 15.65-.97 24.988.45c3.522.535 6.737 2.118 9.297 4.578 2.24 2.15 3.834 4.826 4.655 7.787l6.023.916 5.213-3.242 3.544 4.593 4.6-1.945 2.887 2.933 5.233-.432 6.132 8.445z" fill="#57585A"/><path d="M20.637 26.054c-1.616 2.8-5.194 3.756-7.995 2.138-2.802-1.617-3.762-5.194-2.147-7.993 1.616-2.8 5.194-3.756 7.996-2.14 2.802 1.62 3.763 5.196 2.147 7.994M28.05 10.63C19.88 5.912 9.437 8.706 4.725 16.87c-4.712 8.16-1.91 18.598 6.26 23.316 6.903 3.986 15.427 2.61 20.75-2.833l26.277 15.17 7.93-1.55-2.187-8.396-5.363-1.607-1.632-3.818-5.633.155-1.718-5.888-5.728 1.057-7.317-4.224c1.147-6.828-1.962-13.956-8.315-17.623" fill="#FFCD20"/><g transform="rotate(-60 24.87 21.272)"><mask id="b" fill="#fff"><use xlink:href="#a"/></mask><path d="M18.613 9.836c-2.372 0-4.3 1.932-4.3 4.306s1.928 4.305 4.3 4.305c2.37 0 4.3-1.93 4.3-4.305 0-2.374-1.93-4.306-4.3-4.306zm0 11.71c-4.08 0-7.398-3.32-7.398-7.404 0-4.083 3.32-7.405 7.398-7.405 4.078 0 7.397 3.322 7.397 7.405s-3.32 7.405-7.397 7.405zM15.925 65.02l3.846 4.412 4.385-4.324-1.256-5.305 2.292-3.06-3.025-4.922 4.1-4.283-3.243-3.8V33.64l1.008-.376c2.934-1.094 5.445-3.032 7.26-5.605 1.856-2.628 2.837-5.725 2.837-8.955 0-8.564-6.962-15.532-15.52-15.532-8.554 0-15.514 6.968-15.514 15.532 0 7.104 4.797 13.293 11.664 15.05l1.165.3v30.964zm3.675 8.93l-6.772-7.77V36.42C5.218 33.937 0 26.818 0 18.705 0 13.727 1.936 9.05 5.452 5.53 8.967 2.01 13.64.074 18.612.074c4.972 0 9.646 1.937 13.162 5.456 3.515 3.518 5.452 8.197 5.452 13.175 0 3.875-1.177 7.59-3.404 10.744-1.967 2.783-4.614 4.95-7.7 6.31v6.834l4.318 5.062-4.382 4.58 2.876 4.68-2.688 3.585 1.324 5.59-7.97 7.86z" fill="#57585A" mask="url(#b)"/></g></g></svg>