<svg width="70" height="46" viewBox="0 0 70 46" xmlns="http://www.w3.org/2000/svg" xmlns:xlink="http://www.w3.org/1999/xlink"><title>Page 1 Copy 12</title><defs><path id="a" d="M69.977 23.79V.02H0v45.52h69.977V23.79H0V.02h69.977v23.77z"/></defs><g fill="none" fill-rule="evenodd"><path d="M36.045 22.67c-.58.2-1.532.2-2.113 0L1.437 11.48c-.58-.2-.574-.507.015-.682l32.465-9.605c.59-.174 1.554-.174 2.143 0l32.465 9.605c.59.175.596.48.015.68L36.045 22.67z" fill="#FFCD20"/><path d="M34.99 1.09c-.387 0-.772.043-1.065.13L1.46 10.825c-.27.08-.424.19-.427.305-.002.114.148.232.413.323l32.495 11.19c.58.2 1.52.2 2.096 0l32.495-11.19c.266-.09.416-.21.414-.323-.003-.114-.158-.225-.427-.305L36.052 1.22c-.293-.087-.678-.13-1.063-.13m0 21.757c-.387 0-.773-.05-1.067-.15L1.428 11.506c-.293-.102-.453-.236-.45-.378.003-.144.168-.27.466-.358L33.91 1.166c.594-.176 1.563-.176 2.158 0l32.465 9.606c.298.088.464.214.467.357.003.14-.157.275-.45.376l-32.496 11.19-.01-.027.01.026c-.293.1-.68.15-1.065.15" fill="#FFCD20"/><path d="M1.692 10.528zm66.594 0zM1.666 11.76zm66.647 0zm-64.72-.574L34.25 21.743c.373.13 1.105.13 1.477 0l30.658-10.557-30.602-9.054c-.408-.12-1.18-.12-1.59 0l-30.6 9.054zm31.396 12.61c-.493 0-.984-.066-1.376-.2L1.12 12.405C.115 12.06.02 11.382.027 11.107c.006-.276.13-.948 1.147-1.25L33.64.255c.77-.227 1.928-.227 2.697 0L68.802 9.86c1.017.3 1.14.972 1.147 1.248.005.275-.09.952-1.092 1.297l-32.495 11.19-.318-.926.318.925c-.392.135-.883.202-1.374.202z" fill="#57585A"/><g transform="translate(0 .036)"><mask id="b" fill="#fff"><use xlink:href="#a"/></mask><path d="M18.35 11.873c-.028 0-.05-.022-.05-.05 0-.028.022-.05.05-.05.028 0 .05.022.05.05 0 .028-.022.05-.05.05zm33.323 0c-.028 0-.05-.022-.05-.05 0-.028.022-.05.05-.05.028 0 .05.022.05.05 0 .028-.022.05-.05.05zm-47.99-.72L34.26 21.68c.367.128 1.09.128 1.458 0l30.575-10.528-30.518-9.03c-.404-.12-1.168-.12-1.573 0l-30.518 9.03zM34.99 21.83c-.28 0-.56-.03-.75-.096L3.5 11.148l30.686-9.08c.413-.12 1.193-.12 1.605 0l30.687 9.08-30.74 10.586c-.19.065-.47.097-.748.097zm0-21.754c-.48 0-.96.056-1.342.17L1.183 9.85c-1 .296-1.12.953-1.127 1.222-.006.27.087.93 1.072 1.27l32.495 11.19c.376.13.86.2 1.366.2.49 0 .966-.067 1.338-.19l-.31-.9.054-.018.31.9 32.467-11.18c.985-.34 1.077-1.003 1.07-1.272-.005-.27-.126-.926-1.126-1.222L36.33.245c-.383-.113-.862-.17-1.34-.17zm0 23.713c-.512 0-1.003-.073-1.385-.205L1.11 12.395C.09 12.045-.006 11.352 0 11.07c.006-.28.133-.967 1.167-1.273L33.632.19c.774-.227 1.94-.227 2.713 0L68.81 9.798c1.035.306 1.16.993 1.167 1.274.006.282-.09.974-1.11 1.325l-32.52 11.2c-.38.125-.86.194-1.358.194z" fill="#FFCD20" mask="url(#b)"/></g><path d="M49.532 28.124S44.548 31.82 34.99 31.82c-9.215 0-14.545-3.696-14.545-3.696v-10.07l14.544 5.203 14.542-5.203v10.07z" fill="#FFCD20"/><path d="M21.423 27.58c.56.326 1.666.916 3.253 1.5 2.18.804 5.736 1.76 10.313 1.76 4.742 0 8.286-.953 10.423-1.752 1.554-.58 2.61-1.167 3.142-1.493v-8.152L35.318 24.18c-.213.075-.446.075-.658 0l-13.237-4.737v8.136zm13.566 5.218c-4.906 0-8.727-1.038-11.07-1.91-2.568-.954-3.973-1.92-4.032-1.96-.263-.182-.42-.483-.42-.804v-10.07c0-.32.154-.617.414-.8.26-.184.592-.23.892-.122l14.215 5.085 14.213-5.085c.3-.108.633-.062.893.12.26.185.414.483.414.8v10.072c0 .31-.147.602-.396.787-.214.16-5.356 3.888-15.125 3.888zM59.407 15.604c-.036 0-.072-.002-.108-.006l-24.417-2.67c-.537-.06-.925-.542-.866-1.08.058-.537.54-.925 1.078-.867l24.416 2.672c.538.058.926.542.867 1.08-.054.5-.478.872-.97.872" fill="#57585A"/><path d="M23.57 27.48c-.54 0-.978-.437-.978-.978v-4.628c0-.54.438-.98.978-.98s.977.44.977.98v4.628c0 .54-.437.98-.977.98" fill="#FEFEFE" opacity=".6"/><path d="M27.128 30.14v-1.558c0-.857 1.006-1.56 2.235-1.56h25.35c1.23 0 2.235 1.008 2.235 2.24v9.98c0 1.23-.775 2.238-1.722 2.238h-1.72" fill="#86AC5A"/><path d="M55.226 42.46h-1.72V40.5h1.72c.344 0 .744-.55.744-1.258v-9.98c0-.695-.564-1.26-1.257-1.26h-25.35c-.817 0-1.257.412-1.257.58v1.558H26.15v-1.558c0-1.423 1.41-2.538 3.213-2.538h25.35c1.77 0 3.212 1.443 3.212 3.217v9.982c0 1.774-1.21 3.217-2.7 3.217" fill="#57585A"/><path d="M53.505 42.36c0 1.23-1.006 2.237-2.235 2.237H25.92c-1.23 0-2.235-1.007-2.235-2.238v-9.982c0-1.23 1.006-2.238 2.235-2.238h25.35c1.23 0 2.235 1.007 2.235 2.238v9.98z" fill="#86AC5A"/><path d="M25.92 31.12c-.693 0-1.257.564-1.257 1.258v9.98c0 .695.564 1.26 1.257 1.26h25.35c.693 0 1.257-.565 1.257-1.26v-9.98c0-.694-.564-1.26-1.257-1.26H25.92zm25.35 14.456H25.92c-1.77 0-3.212-1.443-3.212-3.217v-9.982c0-1.774 1.44-3.217 3.212-3.217h25.35c1.772 0 3.213 1.444 3.213 3.218v9.98c0 1.775-1.44 3.218-3.213 3.218z" fill="#57585A"/><path d="M42.802 37.37c0 2.325-1.883 4.21-4.207 4.21-2.323 0-4.207-1.885-4.207-4.21 0-2.328 1.884-4.214 4.207-4.214 2.324 0 4.207 1.886 4.207 4.213" fill="#F5F3F1"/><path d="M38.595 34.135c-1.78 0-3.23 1.45-3.23 3.234 0 1.782 1.45 3.232 3.23 3.232s3.23-1.45 3.23-3.233c0-1.785-1.45-3.235-3.23-3.235m0 8.425c-2.86 0-5.184-2.33-5.184-5.19 0-2.864 2.326-5.193 5.185-5.193 2.86 0 5.185 2.33 5.185 5.192 0 2.86-2.326 5.19-5.185 5.19M59.405 27.37c-.54 0-.977-.44-.977-.98V14.625c0-.54.437-.98.977-.98s.978.44.978.98V26.39c0 .54-.438.98-.978.98" fill="#57585A"/><path d="M57.406 26.673c-.18 0-.362-.05-.525-.154-.454-.292-.588-.898-.297-1.353l1.998-3.133c.292-.456.897-.59 1.352-.298.455.29.588.896.297 1.352l-2 3.133c-.186.293-.502.453-.824.453" fill="#57585A"/><path d="M61.542 26.785c-.318 0-.63-.155-.817-.44l-2.136-3.246c-.298-.452-.173-1.06.277-1.357.45-.297 1.058-.173 1.355.28l2.135 3.244c.297.45.173 1.058-.278 1.356-.167.11-.353.162-.538.162" fill="#57585A"/></g></svg>