<svg width="53" height="50" viewBox="0 0 53 50" xmlns="http://www.w3.org/2000/svg" xmlns:xlink="http://www.w3.org/1999/xlink"><title>Page 1</title><defs><path id="a" d="M44.216.067H.076v33.24h44.14V.066z"/><path id="c" d="M.07 15.51h15.51V.05H.07v15.46z"/><path id="e" d="M0 .04v16.794h14.82V.04H0z"/></defs><g fill="none" fill-rule="evenodd"><path d="M48.306 31.86l-37.17-.16c-1.524-2.867-1.565-6.144-1.565-9.615h20.607V1.543c6.944 0 11.45 4.633 16.82 8.672 2.112 5.134 3.786 7.448 3.786 11.87 0 3.538-.897 6.867-2.477 9.774" fill="#BAC1E1"/><g transform="translate(8.03 .016)"><mask id="b" fill="#fff"><use xlink:href="#a"/></mask><path d="M4.035 30.23l35.347.15c1.25-2.575 1.906-5.43 1.906-8.31 0-3.045-.885-5.01-2.225-7.985-.394-.875-.836-1.856-1.3-2.963-.776-.592-1.538-1.194-2.277-1.78-3.905-3.087-7.327-5.795-11.876-6.28V23.53H3.01c.025 2.33.172 4.66 1.025 6.7zm37.11 3.076l-38.92-.166-.412-.772C.076 29.102.076 25.366.076 22.068V20.61h20.606V.067h1.464c6.323 0 10.816 3.554 15.16 6.99.826.653 1.68 1.33 2.542 1.977l.32.24.152.37c.5 1.216.986 2.294 1.414 3.245 1.44 3.198 2.482 5.51 2.482 9.18 0 3.654-.918 7.274-2.654 10.468l-.417.768z" fill="#57585A" mask="url(#b)"/></g><path d="M22.73 41.488c0 3.463-2.815 6.27-6.29 6.27-3.473 0-6.29-2.807-6.29-6.27 0-3.463 2.817-6.27 6.29-6.27 3.475 0 6.29 2.807 6.29 6.27" fill="#FFCD20"/><g transform="translate(8.616 33.707)"><mask id="d" fill="#fff"><use xlink:href="#c"/></mask><path d="M7.825 2.97C5.165 2.97 3 5.128 3 7.78c0 2.654 2.164 4.812 4.825 4.812 2.66 0 4.826-2.158 4.826-4.81 0-2.654-2.164-4.812-4.825-4.812m0 12.54C3.55 15.51.07 12.045.07 7.78.07 3.52 3.55.05 7.826.05s7.754 3.47 7.754 7.73c0 4.264-3.48 7.73-7.755 7.73" fill="#57585A" mask="url(#d)"/></g><path d="M47.603 42.487c0 2.912-2.367 5.272-5.288 5.272-2.92 0-5.288-2.36-5.288-5.273 0-2.912 2.367-5.272 5.288-5.272 2.92 0 5.288 2.36 5.288 5.272" fill="#FFCD20"/><path d="M42.315 38.674c-2.11 0-3.824 1.71-3.824 3.813 0 2.102 1.716 3.812 3.825 3.812 2.11 0 3.824-1.71 3.824-3.813 0-2.102-1.716-3.813-3.825-3.813m0 10.544c-3.723 0-6.752-3.02-6.752-6.73 0-3.713 3.03-6.732 6.752-6.732 3.723 0 6.752 3.02 6.752 6.73 0 3.713-3.03 6.732-6.752 6.732" fill="#57585A"/><g transform="translate(0 5.02)"><mask id="f" fill="#fff"><use xlink:href="#e"/></mask><path d="M13.356 16.834c-.61 0-1.177-.382-1.385-.988L8.15 4.716c-.122-.354-.664-.807-1.035-.864l-5.876-.91C.44 2.816-.108 2.07.017 1.273.142.478.89-.066 1.688.057l5.877.91c1.44.224 2.883 1.43 3.355 2.804l3.82 11.13c.263.764-.145 1.594-.91 1.855-.157.053-.317.08-.474.08" fill="#57585A" mask="url(#f)"/></g></g></svg>