<svg width="57" height="53" viewBox="0 0 57 53" xmlns="http://www.w3.org/2000/svg" xmlns:xlink="http://www.w3.org/1999/xlink"><title>Page 1</title><defs><path id="a" d="M5.52 16.992V.03H.027V16.99H5.52z"/><path id="c" d="M0 .03V16.99h5.495V.03H0z"/></defs><g fill="none" fill-rule="evenodd"><g transform="translate(51.082 10.274)"><mask id="b" fill="#fff"><use xlink:href="#a"/></mask><path d="M1.146 16.992c-.62 0-1.12-.508-1.12-1.135s.5-1.135 1.12-1.135c1.177 0 2.134-.97 2.134-2.163V4.462C3.28 3.27 2.323 2.3 1.146 2.3c-.62 0-1.12-.51-1.12-1.136C.026.537.526.03 1.146.03 3.558.03 5.52 2.017 5.52 4.462v8.096c0 2.443-1.962 4.432-4.374 4.432" fill="#57585A" mask="url(#b)"/></g><g transform="translate(0 10.274)"><mask id="d" fill="#fff"><use xlink:href="#c"/></mask><path d="M4.375 16.992C1.963 16.992 0 15.002 0 12.56V4.462C0 2.018 1.963.03 4.375.03c.62 0 1.12.507 1.12 1.134 0 .627-.5 1.135-1.12 1.135-1.177 0-2.135.97-2.135 2.163v8.096c0 1.192.958 2.162 2.135 2.162.62 0 1.12.508 1.12 1.135s-.5 1.135-1.12 1.135" fill="#57585A" mask="url(#d)"/></g><path d="M13.065 52.96H9.07c-.866 0-1.65-.583-2.15-1.597-.386-.78-.597-1.788-.597-2.838 0-.627.5-1.135 1.12-1.135.618 0 1.12.508 1.12 1.135 0 1.22.39 1.99.587 2.164h3.835c.196-.175.587-.944.587-2.165 0-.627.502-1.135 1.12-1.135.62 0 1.12.508 1.12 1.135 0 1.05-.21 2.058-.596 2.838-.5 1.014-1.285 1.596-2.15 1.596M47.417 52.96h-3.995c-.866 0-1.65-.583-2.15-1.597-.386-.78-.597-1.788-.597-2.838 0-.627.5-1.135 1.12-1.135.62 0 1.12.508 1.12 1.135 0 1.22.39 1.99.587 2.164h3.835c.196-.175.587-.944.587-2.165 0-.627.502-1.135 1.12-1.135.62 0 1.12.508 1.12 1.135 0 1.05-.21 2.058-.596 2.838-.5 1.014-1.285 1.596-2.15 1.596" fill="#57585A"/><path d="M44.286 48.525H12.298c-4.365 0-7.937-1.737-7.937-6.16V9.244C4.36 4.82 7.934 1.2 12.3 1.2h31.988c4.366 0 7.938 3.62 7.938 8.044v33.12c0 4.424-3.572 6.16-7.938 6.16" fill="#FFCD20"/><path d="M12.298 2.335c-1.812 0-3.52.72-4.814 2.03C6.192 5.676 5.48 7.41 5.48 9.246v33.12c0 1.706.603 2.95 1.84 3.8 1.17.8 2.89 1.225 4.978 1.225h31.988c2.088 0 3.81-.424 4.978-1.226 1.238-.85 1.84-2.093 1.84-3.8V9.244c0-1.836-.712-3.57-2.004-4.878-1.292-1.31-3-2.03-4.814-2.03H12.298zM44.286 49.66H12.298c-5.67 0-9.057-2.727-9.057-7.296V9.244c0-5.06 4.064-9.18 9.058-9.18h31.988c4.995 0 9.058 4.12 9.058 9.18v33.12c0 4.57-3.386 7.296-9.058 7.296z" fill="#57585A"/><path d="M44.302 44.417h-.42c-1.62 0-2.944-1.343-2.944-2.984v-.425c0-1.642 1.325-2.984 2.945-2.984h.42c1.62 0 2.944 1.342 2.944 2.984v.425c0 1.64-1.325 2.984-2.945 2.984" fill="#FEFEFE"/><path d="M43.883 39.16c-1.006 0-1.825.828-1.825 1.848v.425c0 1.02.82 1.85 1.825 1.85h.42c1.005 0 1.824-.83 1.824-1.85v-.425c0-1.02-.82-1.85-1.825-1.85h-.42zm.42 6.392h-.42c-2.242 0-4.065-1.848-4.065-4.12v-.424c0-2.272 1.823-4.12 4.065-4.12h.42c2.24 0 4.064 1.848 4.064 4.12v.425c0 2.27-1.823 4.12-4.065 4.12z" fill="#57585A"/><path d="M12.762 44.417h-.42c-1.62 0-2.945-1.343-2.945-2.984v-.425c0-1.642 1.326-2.984 2.945-2.984h.42c1.62 0 2.944 1.342 2.944 2.984v.425c0 1.64-1.325 2.984-2.944 2.984" fill="#FEFEFE"/><path d="M12.342 39.16c-1.006 0-1.824.828-1.824 1.848v.425c0 1.02.818 1.85 1.824 1.85h.42c1.006 0 1.824-.83 1.824-1.85v-.425c0-1.02-.818-1.85-1.824-1.85h-.42zm.42 6.392h-.42c-2.24 0-4.065-1.848-4.065-4.12v-.424c0-2.272 1.824-4.12 4.065-4.12h.42c2.24 0 4.065 1.848 4.065 4.12v.425c0 2.27-1.824 4.12-4.065 4.12zM34.748 40.817h-12.91c-.62 0-1.122-.508-1.122-1.135s.502-1.135 1.12-1.135H34.75c.62 0 1.12.508 1.12 1.135s-.5 1.135-1.12 1.135M34.748 43.894h-12.91c-.62 0-1.122-.51-1.122-1.136 0-.626.502-1.135 1.12-1.135H34.75c.62 0 1.12.51 1.12 1.135 0 .627-.5 1.136-1.12 1.136" fill="#57585A"/><path d="M42.304 32.243H14.28c-2.534 0-4.608-2.102-4.608-4.67V16.107c0-2.57 2.074-4.67 4.61-4.67h28.022c2.535 0 4.61 2.1 4.61 4.67v11.464c0 2.57-2.075 4.67-4.61 4.67" fill="#BAC1E1"/><path d="M14.28 12.573c-1.923 0-3.488 1.586-3.488 3.535v11.464c0 1.95 1.565 3.536 3.49 3.536h28.022c1.924 0 3.49-1.586 3.49-3.536V16.108c0-1.95-1.566-3.535-3.49-3.535H14.28zm28.024 20.805H14.28c-3.16 0-5.73-2.604-5.73-5.806V16.108c0-3.2 2.57-5.806 5.73-5.806h28.024c3.16 0 5.73 2.605 5.73 5.806v11.464c0 3.202-2.57 5.806-5.73 5.806z" fill="#57585A"/><path d="M7.89 9.61c-.618 0-1.12-.508-1.12-1.135 0-2.615 2.1-4.744 4.682-4.744.62 0 1.12.51 1.12 1.137s-.5 1.135-1.12 1.135c-1.346 0-2.44 1.11-2.44 2.473 0 .627-.502 1.136-1.12 1.136" fill="#FEFEFE"/><path d="M12.526 15.928c.014-.714.602-1.298 1.306-1.298h27.442c.705 0 .753.234.107.52L13.464 27.49c-.646.286-1.162-.064-1.148-.778l.21-10.784z" fill="#8C9DCF"/></g></svg>