<svg width="43" height="49" viewBox="0 0 43 49" xmlns="http://www.w3.org/2000/svg" xmlns:xlink="http://www.w3.org/1999/xlink"><title>Page 1</title><defs><path id="a" d="M0 48.633h35.012V.06H0v48.573z"/></defs><g fill="none" fill-rule="evenodd"><path d="M30.622 47.126l2.926-2.936-26.2-26.283c-2.886-2.894-2.886-7.585 0-10.478 2.883-2.895 7.56-2.895 10.444 0l2.916-2.947C16.208-.03 8.91-.03 4.41 4.483c-4.5 4.515-4.5 11.835 0 16.35l26.212 26.293" fill="#BAC1E1"/><g><mask id="b" fill="#fff"><use xlink:href="#a"/></mask><path d="M5.14 20.1c.07.067.163.16.296.293l25.186 25.265 1.463-1.468-25.15-25.23-.32-.32c-3.283-3.293-3.283-8.652 0-11.945 3.035-3.045 7.828-3.275 11.13-.692l1.467-1.482c-1.87-1.545-4.197-2.385-6.653-2.385-2.803 0-5.437 1.094-7.418 3.082-1.982 1.987-3.073 4.63-3.073 7.44 0 2.81 1.09 5.453 3.072 7.44l-.002.002zm25.443 28.533S8.35 26.25 4.41 22.3l-.732-.734C1.306 19.186 0 16.022 0 12.656 0 9.293 1.306 6.13 3.678 3.75 6.05 1.37 9.204.06 12.558.06c3.356 0 6.51 1.31 8.882 3.69l.73.73-4.376 4.42-.734-.738c-2.476-2.484-6.506-2.484-8.982 0-2.476 2.484-2.476 6.526 0 9.01l.075.076 26.86 26.942-4.43 4.443z" fill="#57585A" mask="url(#b)"/></g><path d="M12.312 47.165L9.386 44.23l26.24-26.323c2.885-2.894 2.885-7.585 0-10.478-2.884-2.895-7.56-2.895-10.445 0l-2.915-2.947c4.5-4.515 11.798-4.515 16.298 0 4.5 4.515 4.5 11.835 0 16.35l-26.25 26.332" fill="#FFCD20"/><path d="M10.85 44.23l1.462 1.467 25.5-25.58.02-.018v-.002c4.09-4.102 4.09-10.778 0-14.88-3.844-3.857-9.954-4.09-14.07-.697l1.467 1.484c3.3-2.584 8.094-2.353 11.128.69 3.284 3.294 3.284 8.653 0 11.947l-.32.322-25.19 25.268zm1.462 4.403l-4.39-4.403L34.82 17.248l.076-.074c2.475-2.485 2.475-6.527 0-9.01-2.477-2.485-6.507-2.485-8.983 0l-.734.735-4.376-4.42.73-.73c4.896-4.913 12.864-4.913 17.76 0 4.898 4.91 4.898 12.904 0 17.816l-.73.734-25.52 25.6-.732.733z" fill="#57585A"/></g></svg>