<svg width="58" height="43" viewBox="0 0 58 43" xmlns="http://www.w3.org/2000/svg" xmlns:xlink="http://www.w3.org/1999/xlink"><title>Page 1</title><defs><path id="a" d="M0 41.95h56.195V0H0z"/></defs><g transform="translate(1 1)" fill="none" fill-rule="evenodd"><path d="M11.845 32.794H2.63c-.917 0-1.66-.74-1.66-1.65V2.613c0-.91.743-1.65 1.66-1.65h9.215c.918 0 1.66.74 1.66 1.65v28.53c0 .91-.742 1.65-1.66 1.65z" fill="#FFCD20"/><path d="M11.845 32.794H2.63c-.917 0-1.66-.74-1.66-1.65V2.613c0-.91.743-1.65 1.66-1.65h9.215c.918 0 1.66.74 1.66 1.65v28.53c0 .91-.742 1.65-1.66 1.65z" stroke="#434C78" stroke-width=".01"/><path d="M2.63 1.927c-.382 0-.692.31-.692.688v28.528c0 .38.31.688.692.688h9.215c.382 0 .693-.308.693-.687V2.615c0-.38-.31-.688-.693-.688H2.63zm9.215 31.83H2.63c-1.45 0-2.63-1.173-2.63-2.614V2.615C0 1.173 1.18 0 2.63 0h9.215c1.45 0 2.63 1.173 2.63 2.615v28.528c0 1.44-1.18 2.614-2.63 2.614z" fill="#57585A"/><path d="M2.63 1.927c-.382 0-.692.31-.692.688v28.528c0 .38.31.688.692.688h9.215c.382 0 .693-.308.693-.687V2.615c0-.38-.31-.688-.693-.688H2.63zm9.215 31.83H2.63c-1.45 0-2.63-1.173-2.63-2.614V2.615C0 1.173 1.18 0 2.63 0h9.215c1.45 0 2.63 1.173 2.63 2.615v28.528c0 1.44-1.18 2.614-2.63 2.614z" stroke="#434C78" stroke-width=".01"/><path d="M53.565 32.794H44.35c-.918 0-1.662-.74-1.662-1.65V2.613c0-.91.744-1.65 1.66-1.65h9.217c.917 0 1.66.74 1.66 1.65v28.53c0 .91-.743 1.65-1.66 1.65" fill="#FFCD20"/><path d="M53.565 32.794H44.35c-.918 0-1.662-.74-1.662-1.65V2.613c0-.91.744-1.65 1.66-1.65h9.217c.917 0 1.66.74 1.66 1.65v28.53c0 .91-.743 1.65-1.66 1.65z" stroke="#434C78" stroke-width=".01"/><path d="M44.35 1.927c-.382 0-.693.31-.693.688v28.528c0 .38.31.688.692.688h9.215c.38 0 .692-.308.692-.687V2.615c0-.38-.31-.688-.692-.688H44.35zm9.215 31.83H44.35c-1.45 0-2.63-1.173-2.63-2.614V2.615C41.72 1.173 42.9 0 44.35 0h9.215c1.45 0 2.63 1.173 2.63 2.615v28.528c0 1.44-1.18 2.614-2.63 2.614z" fill="#57585A"/><path d="M44.35 1.927c-.382 0-.693.31-.693.688v28.528c0 .38.31.688.692.688h9.215c.38 0 .692-.308.692-.687V2.615c0-.38-.31-.688-.692-.688H44.35zm9.215 31.83H44.35c-1.45 0-2.63-1.173-2.63-2.614V2.615C41.72 1.173 42.9 0 44.35 0h9.215c1.45 0 2.63 1.173 2.63 2.615v28.528c0 1.44-1.18 2.614-2.63 2.614z" stroke="#434C78" stroke-width=".01"/><path d="M41.012 32.794H15.167c-.917 0-1.66-.74-1.66-1.65V2.613c0-.91.743-1.65 1.66-1.65h25.845c.917 0 1.66.74 1.66 1.65v28.53c0 .91-.743 1.65-1.66 1.65" fill="#FEFEFE"/><path d="M15.167 1.927c-.38 0-.692.31-.692.688v28.528c0 .38.31.688.692.688h25.845c.38 0 .692-.308.692-.687V2.615c0-.38-.31-.688-.692-.688H15.167zm25.845 31.83H15.167c-1.45 0-2.63-1.173-2.63-2.614V2.615c0-1.442 1.18-2.615 2.63-2.615h25.845c1.45 0 2.63 1.173 2.63 2.615v28.528c0 1.44-1.18 2.614-2.63 2.614z" fill="#57585A"/><mask id="b" fill="#fff"><use xlink:href="#a"/></mask><path fill="#57585A" mask="url(#b)" d="M26.8 28.853h1.938v-5.285H26.8"/><path fill="#FFCD20" mask="url(#b)" d="M27.704 23.624l-5.66 1.635v-2.59l-4.597-2.112 2.862-2.862-2.516-4.293 5.03.272-.433-2.725 2.74.136 2.64-4.225 2.64 4.226 2.737-.136-.434 2.725 5.03-.272-2.514 4.293 2.86 2.862-4.596 2.112v2.59l-5.66-1.636"/><path d="M27.566 22.66h.406l4.553 1.316v-1.922l3.903-1.793-2.41-2.41 1.985-3.388-4.434.24.434-2.73-2.117.104-2.118-3.39-2.12 3.39-2.116-.105.435 2.732-4.435-.24 1.986 3.388-2.41 2.41 3.903 1.794v1.922l4.553-1.315zm6.897 3.882l-6.694-1.934-6.695 1.934v-3.256l-5.292-2.432 3.314-3.313-3.045-5.196 5.628.304-.432-2.72 3.36.167 3.16-5.06 3.162 5.06 3.36-.167-.432 2.72 5.628-.304-3.045 5.197 3.315 3.314-5.292 2.432v3.256z" fill="#57585A" mask="url(#b)"/><path d="M16.48 27.724l-.757-1.337c-.416-.735.112-1.822 1.173-2.416L38.79 11.72c1.06-.595 2.418-.218 3.015.838l4.845 8.557c.597 1.056.417 2.293-.4 2.75-.818.46-1.487.833-1.487.833" fill="#86AC5A" mask="url(#b)"/><path d="M15.635 28.196l-.756-1.336c-.692-1.22-.015-2.858 1.54-3.73l21.894-12.25c.74-.414 1.597-.516 2.418-.288.82.228 1.502.758 1.917 1.493l4.844 8.558c.86 1.52.516 3.343-.77 4.063l-1.486.83-.95-1.677 1.487-.833c.296-.167.375-.83.03-1.44l-4.844-8.557c-.16-.286-.428-.493-.75-.583-.322-.09-.658-.05-.946.11L17.372 24.81c-.706.395-.886.96-.805 1.105l.757 1.336-1.69.946z" fill="#57585A" mask="url(#b)"/><path d="M45.19 25.452c.597 1.055.218 2.405-.844 3L22.454 40.7c-1.062.595-2.42.217-3.017-.838l-4.844-8.558c-.598-1.055-.218-2.405.843-3l21.893-12.25c1.06-.595 2.418-.217 3.015.838l4.845 8.558z" fill="#86AC5A" mask="url(#b)"/><path d="M38.41 16.737c-.212 0-.42.053-.606.158L15.912 29.147c-.288.16-.496.426-.587.746-.09.32-.05.655.112.94l4.845 8.56c.337.594 1.098.805 1.696.47L43.87 27.61c.6-.334.813-1.09.476-1.686L39.5 17.367c-.16-.287-.428-.493-.75-.583-.113-.032-.227-.047-.34-.047M21.372 41.95c-1.114 0-2.196-.582-2.78-1.613l-4.845-8.558c-.416-.736-.518-1.59-.29-2.406.23-.816.764-1.493 1.503-1.906l21.894-12.252c.74-.414 1.597-.516 2.418-.287.82.227 1.502.757 1.918 1.492l4.844 8.557c.86 1.52.317 3.454-1.212 4.31L22.93 41.542c-.493.276-1.03.407-1.557.407" fill="#57585A" mask="url(#b)"/><path d="M33.524 26.346c1.13 1.995.42 4.522-1.588 5.645-2.006 1.124-4.548.417-5.678-1.578s-.418-4.522 1.588-5.645c2.007-1.123 4.55-.416 5.678 1.58" fill="#F5F3F1" mask="url(#b)"/><path d="M29.886 25.196c-.542 0-1.078.138-1.564.41-.745.417-1.282 1.098-1.513 1.916-.23.818-.127 1.677.293 2.418.42.74 1.103 1.274 1.926 1.503.822.23 1.686.126 2.43-.29 1.54-.862 2.086-2.806 1.22-4.335-.42-.74-1.103-1.274-1.927-1.503-.286-.08-.577-.12-.867-.12m.013 8.295c-.465 0-.933-.064-1.393-.19-1.32-.37-2.42-1.226-3.093-2.415-.673-1.19-.84-2.568-.47-3.882s1.23-2.406 2.427-3.076c1.197-.67 2.584-.835 3.905-.468 1.322.367 2.42 1.224 3.094 2.413 1.388 2.455.51 5.576-1.958 6.958-.78.437-1.642.66-2.513.66" fill="#57585A" mask="url(#b)"/></g></svg>