<svg width="58" height="32" viewBox="0 0 58 32" xmlns="http://www.w3.org/2000/svg"><title>Page 1</title><g fill="none" fill-rule="evenodd"><path d="M3.725 26.29c-.066.758-2.765.37-2.765 1.842 1.523 1.308 8.764.876 14.69.77 4.77-.087 14.07-3.302 22.094-3.732 10.252-.548 18.493 7.538 19.242 5.487.612-1.676-8.3-4.687-9.54-8.285-3.89-11.302-8.33-20.53-21.38-20.41-2.377.022-7.05.46-9.208 1.097 0 0-7.017 0-10.142.273-2.8.246-2.77 20.425-2.99 22.957" fill="#FFCD20"/><path d="M3.725 26.29c-.066.758-2.765.37-2.765 1.842 1.523 1.308 8.764.876 14.69.77 4.77-.087 14.07-3.302 22.094-3.732 10.252-.548 18.493 7.538 19.242 5.487.612-1.676-8.3-4.687-9.54-8.285-3.89-11.302-8.33-20.53-21.38-20.41-2.377.022-7.05.46-9.208 1.097 0 0-7.017 0-10.142.273-2.8.246-2.77 20.425-2.99 22.957z" stroke="#FFCD20"/><path d="M38.768 24.183c2.537 0 5.144.477 7.934 1.448 2.658.927 4.915 2.103 6.73 3.048l.012.007-.47-.287c-2.65-1.612-5.65-3.44-6.434-5.713-2.068-6.007-4.063-10.716-7.072-14.17-1.616-1.855-3.412-3.205-5.49-4.127-2.29-1.015-4.875-1.494-7.902-1.466-2.253.02-6.86.443-8.948 1.058l-.132.04h-.138c-.07 0-6.86.002-9.957.26-.195.213-.968 1.414-1.515 7.512-.358 3.99-.495 8.53-.585 11.537-.044 1.478-.076 2.547-.12 3.043l-.955-.083.955.083c-.025.29-.175.824-.9 1.146-.272.12-.573.192-.89.27l-.07.016c.582.104 1.425.2 2.645.25 2.125.084 4.78.016 7.348-.05.935-.023 1.902-.048 2.82-.065 2.093-.036 5.144-.715 8.677-1.5 4.2-.934 8.962-1.992 13.383-2.228.357-.02.715-.03 1.075-.03m17.69 7.77c-.9 0-2.073-.61-3.913-1.57-3.494-1.82-8.775-4.573-14.75-4.253-4.262.227-8.94 1.267-13.07 2.185-3.633.808-6.77 1.505-9.056 1.546-.913.018-1.876.043-2.808.066-6.82.175-11.065.19-12.527-1.065L0 28.575v-.442c0-.727.37-1.34 1.043-1.723.446-.256.95-.378 1.393-.486.106-.026.24-.06.357-.092.03-.556.057-1.468.09-2.56.097-3.244.244-8.145.657-12.352.59-6.004 1.456-8.4 3.092-8.543C9.56 2.12 15.705 2.1 16.722 2.1c2.33-.65 6.965-1.077 9.337-1.1C32.34.947 37.2 2.99 40.913 7.253c3.213 3.69 5.298 8.587 7.44 14.807.558 1.618 3.48 3.398 5.616 4.697 1.046.637 2.033 1.238 2.734 1.79.398.314 1.61 1.27 1.183 2.44-.147.402-.44.706-.828.857-.19.073-.388.108-.603.108" fill="#57585A"/><path d="M38.768 24.183c2.537 0 5.144.477 7.934 1.448 2.658.927 4.915 2.103 6.73 3.048l.012.007-.47-.287c-2.65-1.612-5.65-3.44-6.434-5.713-2.068-6.007-4.063-10.716-7.072-14.17-1.616-1.855-3.412-3.205-5.49-4.127-2.29-1.015-4.875-1.494-7.902-1.466-2.253.02-6.86.443-8.948 1.058l-.132.04h-.138c-.07 0-6.86.002-9.957.26-.195.213-.968 1.414-1.515 7.512-.358 3.99-.495 8.53-.585 11.537-.044 1.478-.076 2.547-.12 3.043l-.955-.083.955.083c-.025.29-.175.824-.9 1.146-.272.12-.573.192-.89.27l-.07.016c.582.104 1.425.2 2.645.25 2.125.084 4.78.016 7.348-.05.935-.023 1.902-.048 2.82-.065 2.093-.036 5.144-.715 8.677-1.5 4.2-.934 8.962-1.992 13.383-2.228.357-.02.715-.03 1.075-.03zm17.69 7.77c-.9 0-2.073-.612-3.913-1.57-3.494-1.822-8.775-4.574-14.75-4.254-4.262.227-8.94 1.267-13.07 2.185-3.633.808-6.77 1.505-9.056 1.546-.913.018-1.876.043-2.808.066-6.82.175-11.065.19-12.527-1.065L0 28.575v-.442c0-.727.37-1.34 1.043-1.723.446-.256.95-.378 1.393-.486.106-.026.24-.06.357-.092.03-.556.057-1.468.09-2.56.097-3.244.244-8.145.657-12.352.59-6.004 1.456-8.4 3.092-8.543C9.56 2.12 15.705 2.1 16.722 2.1c2.33-.65 6.965-1.077 9.337-1.1C32.34.947 37.2 2.99 40.913 7.253c3.213 3.69 5.298 8.587 7.44 14.807.558 1.618 3.48 3.398 5.616 4.697 1.046.637 2.033 1.238 2.734 1.79.398.314 1.61 1.27 1.183 2.44-.147.402-.44.706-.828.857-.19.073-.388.108-.603.108z" stroke="#57585A" stroke-width=".01"/><path d="M27.227 24.155c-.507 0-.93-.398-.957-.91L25.274 3.93c-.028-.528.38-.98.908-1.007.53-.028.98.38 1.008.91l.996 19.313c.027.53-.38.98-.91 1.008h-.05M39.552 23.333c-.445 0-.844-.312-.938-.766-1.262-6.094-3.623-10.438-5.38-13.01-1.908-2.788-3.54-4.153-3.556-4.166-.407-.337-.466-.94-.13-1.35.338-.41.94-.468 1.35-.132.072.06 1.813 1.506 3.867 4.49 1.876 2.727 4.392 7.33 5.728 13.78.107.52-.226 1.027-.745 1.134-.066.014-.13.02-.196.02M11.595 26.68c-.53 0-.96-.43-.96-.96 0-4.093.526-7.802 1.563-11.023.838-2.606 2.012-4.902 3.487-6.825 2.557-3.332 5.147-4.4 5.256-4.442.493-.198 1.05.04 1.248.533.197.49-.04 1.05-.53 1.247-.04.018-2.303.983-4.535 3.94-1.32 1.752-2.374 3.85-3.13 6.236-.955 3.007-1.44 6.484-1.44 10.333 0 .53-.428.96-.958.96" fill="#57585A"/><path d="M7.133 12.687c-.528-.046-.918-.51-.873-1.04.05-.558.088-1.074.123-1.53.176-2.304.273-3.573 1.092-4.416.91-.937 2.375-.926 4.504-.8.528.03.932.484.9 1.013-.03.53-.483.934-1.012.903-1.34-.078-2.678-.126-3.017.224-.334.344-.426 1.552-.554 3.224-.035.46-.075.982-.124 1.55-.043.5-.462.877-.955.877-.028 0-.056 0-.084-.003z" fill="#FEFEFE" opacity=".6"/></g></svg>