<svg width="59" height="47" viewBox="0 0 59 47" xmlns="http://www.w3.org/2000/svg" xmlns:xlink="http://www.w3.org/1999/xlink"><title>Page 1</title><defs><path id="a" d="M10.925.048H.035V11.04h10.89V.048z"/><path id="c" d="M7.754 25.212h7.748V.026H.007v25.186z"/><path id="e" d="M10.897.048H.007V11.04h10.89V.048z"/></defs><g fill="none" fill-rule="evenodd"><path d="M35.41 5.547c0 2.536-2.035 4.592-4.547 4.592-2.513 0-4.55-2.057-4.55-4.593 0-2.535 2.037-4.59 4.55-4.59 2.512 0 4.548 2.055 4.548 4.59" fill="#BAC1E1"/><g transform="translate(25.382 .004)"><mask id="b" fill="#fff"><use xlink:href="#a"/></mask><path d="M5.48 1.856c-2.014 0-3.653 1.655-3.653 3.688 0 2.033 1.64 3.687 3.654 3.687 2.015 0 3.654-1.653 3.654-3.686S7.494 1.856 5.48 1.856m0 9.184c-3 0-5.444-2.466-5.444-5.496C.036 2.514 2.48.048 5.48.048c3.003 0 5.445 2.465 5.445 5.496 0 3.03-2.442 5.496-5.444 5.496" fill="#57585A" mask="url(#b)"/></g><path fill="#BAC1E1" d="M37.8 13.483H23.926l-2.328 14.095h3.798l1.47 17.516h7.996l1.47-17.516h3.798"/><path d="M27.688 44.19h6.35l1.4-16.688c.04-.468.427-.828.893-.828h2.74l-2.028-12.287h-12.36l-2.028 12.287h2.74c.466 0 .854.36.893.828l1.4 16.687zm7.173 1.808h-7.995c-.466 0-.853-.36-.893-.828l-1.4-16.688h-2.975c-.263 0-.513-.117-.683-.32-.17-.202-.244-.47-.2-.733l2.328-14.096c.072-.436.445-.755.883-.755H37.8c.438 0 .812.318.884.754l2.328 14.095c.043.262-.03.53-.2.733-.17.202-.42.32-.684.32h-2.974l-1.4 16.687c-.04.468-.428.828-.893.828z" fill="#57585A"/><path d="M54.41 15.138c0 1.876-1.506 3.397-3.363 3.397-1.858 0-3.365-1.52-3.365-3.397 0-1.875 1.507-3.396 3.365-3.396 1.857 0 3.364 1.52 3.364 3.396" fill="#FFCD20"/><path d="M51.047 12.646c-1.362 0-2.47 1.118-2.47 2.492 0 1.375 1.108 2.493 2.47 2.493 1.36 0 2.468-1.117 2.468-2.492 0-1.374-1.107-2.492-2.468-2.492m0 6.793c-2.35 0-4.26-1.93-4.26-4.302 0-2.37 1.91-4.3 4.26-4.3 2.348 0 4.26 1.93 4.26 4.3 0 2.372-1.912 4.3-4.26 4.3" fill="#57585A"/><path fill="#FFCD20" d="M56.178 21.754H45.916l-1.72 9.735h2.807L48.09 45.13h5.913L55.09 31.49h2.81"/><g transform="translate(43.292 20.824)"><mask id="d" fill="#fff"><use xlink:href="#c"/></mask><path d="M5.625 23.404h4.26l1.02-12.81c.038-.47.426-.833.893-.833h1.74l-1.403-7.926H3.373l-1.4 7.927H3.71c.467 0 .856.363.893.833l1.022 12.81zm5.086 1.808H4.8c-.467 0-.855-.362-.893-.832l-1.02-12.81H.9c-.265 0-.516-.12-.687-.325-.17-.205-.24-.475-.195-.74L1.742.772c.076-.43.447-.744.88-.744h10.263c.434 0 .806.314.882.745l1.72 9.736c.048.264-.024.534-.194.74-.17.205-.42.323-.686.323h-1.983l-1.02 12.81c-.038.47-.427.832-.893.832z" fill="#57585A" mask="url(#d)"/></g><path d="M28.715 6.15c-.494 0-.895-.404-.895-.903 0-1.525 1.228-2.766 2.74-2.766.493 0 .894.406.894.905 0 .5-.4.904-.895.904-.524 0-.95.43-.95.957 0 .5-.4.904-.895.904M49.964 15.85c-.494 0-.895-.404-.895-.903 0-1.012.814-1.835 1.816-1.835.495 0 .896.405.896.904 0 .5-.4.904-.896.904-.014 0-.026.012-.026.027 0 .5-.4.904-.896.904M25.55 21.214c-.05 0-.1-.004-.15-.013-.49-.082-.817-.55-.734-1.04l.843-5.028h3.618c.495 0 .896.404.896.904s-.4.904-.896.904h-2.106l-.59 3.52c-.075.442-.454.754-.882.754" fill="#FEFEFE" opacity=".6"/><path d="M14.71 5.547c0 2.536-2.037 4.592-4.548 4.592-2.514 0-4.55-2.057-4.55-4.593 0-2.535 2.036-4.59 4.55-4.59 2.51 0 4.548 2.055 4.548 4.59" fill="#BAC1E1"/><g transform="translate(4.708 .004)"><mask id="f" fill="#fff"><use xlink:href="#e"/></mask><path d="M5.454 1.856C3.44 1.856 1.8 3.51 1.8 5.544c0 2.033 1.64 3.687 3.654 3.687 2.014 0 3.652-1.653 3.652-3.686S7.468 1.856 5.454 1.856m0 9.184C2.45 11.04.008 8.574.008 5.544.008 2.514 2.45.048 5.454.048c3 0 5.443 2.465 5.443 5.496 0 3.03-2.442 5.496-5.443 5.496" fill="#57585A" mask="url(#f)"/></g><path fill="#BAC1E1" d="M17.1 13.483H3.222L.896 27.578h3.797l1.47 17.516h7.998l1.47-17.516h3.797"/><path d="M6.986 44.19h6.35l1.4-16.688c.04-.468.428-.828.893-.828h2.74l-2.03-12.287H3.982l-2.03 12.287h2.74c.466 0 .854.36.894.828l1.4 16.687zm7.173 1.808H6.162c-.465 0-.853-.36-.892-.828l-1.4-16.688H.896c-.264 0-.514-.117-.684-.32-.17-.202-.243-.47-.2-.733L2.34 13.333c.072-.436.446-.755.883-.755H17.1c.437 0 .81.318.882.754L20.31 27.43c.043.262-.03.53-.2.733-.17.202-.42.32-.683.32h-2.975l-1.4 16.687c-.04.468-.427.828-.893.828z" fill="#57585A"/><path d="M8.014 6.15c-.495 0-.896-.404-.896-.903 0-1.525 1.23-2.766 2.74-2.766.494 0 .895.406.895.905 0 .5-.4.904-.896.904-.522 0-.948.43-.948.957 0 .5-.402.904-.896.904M4.848 21.214c-.05 0-.1-.004-.15-.013-.488-.082-.817-.55-.734-1.04l.714-4.255.095-.773h3.654c.494 0 .895.404.895.904s-.4.904-.895.904H6.32l-.59 3.52c-.074.442-.453.754-.882.754M47.41 28.02c-.05 0-.1-.004-.152-.013-.488-.083-.816-.55-.733-1.042l.504-3.007.095-.772h2.817c.495 0 .896.404.896.904s-.4.904-.896.904h-1.27l-.382 2.273c-.074.44-.453.753-.88.753" fill="#FEFEFE" opacity=".6"/></g></svg>