<svg width="61" height="59" viewBox="0 0 61 59" xmlns="http://www.w3.org/2000/svg" xmlns:xlink="http://www.w3.org/1999/xlink"><title>Page 1</title><defs><path id="a" d="M0 58.974h60.988V0H0z"/></defs><g fill="none" fill-rule="evenodd"><path d="M30.596 57.71H10.933c-2.717 0-3.47-.886-3.47-3.6V16.637c0-2.714 2.223-4.934 4.94-4.934L30.596 57.71z" fill="#FEFEFE"/><path d="M30.596 58.974H10.933c-1.194 0-2.692-.134-3.677-1.18-.934-.992-1.06-2.42-1.06-3.684V16.637c0-3.418 2.784-6.2 6.207-6.2v2.53c-2.026 0-3.674 1.647-3.674 3.67V54.11c0 1.032.124 1.688.37 1.95.24.256.857.385 1.833.385h19.663v2.53z" fill="#57585A"/><path d="M30.494 57.71h19.663c2.717 0 3.47-.886 3.47-3.6V16.637c0-2.714-2.223-4.934-4.94-4.934" fill="#FEFEFE"/><path d="M50.157 58.974H30.494v-2.53h19.663c.975 0 1.592-.128 1.832-.383.246-.262.37-.918.37-1.95V16.637c0-2.023-1.647-3.67-3.673-3.67v-2.53c3.422 0 6.207 2.782 6.207 6.2V54.11c0 1.265-.126 2.692-1.06 3.684-.986 1.046-2.483 1.18-3.677 1.18" fill="#57585A"/><path d="M47.914 57.71H36.207c-.342 0-.622-.28-.622-.622v-18.5c0-.343.28-.622.622-.622h11.707c.342 0 .622.28.622.62V57.09c0 .342-.28.622-.622.622" fill="#FEFEFE"/><mask id="b" fill="#fff"><use xlink:href="#a"/></mask><path d="M36.852 56.445H47.27V39.23H36.852v17.215zm10.67 2.53H36.6c-1.257 0-2.28-1.022-2.28-2.277v-17.72c0-1.256 1.023-2.277 2.28-2.277h10.925c1.257 0 2.28 1.022 2.28 2.278v17.72c0 1.255-1.023 2.276-2.28 2.276z" fill="#57585A" mask="url(#b)"/><path d="M31.365 39.947V51.64c0 .342-.28.62-.622.62H12.22c-.343 0-.623-.278-.623-.62V39.947c0-.342.28-.62.622-.62h18.523c.342 0 .622.278.622.62" fill="#BAC1E1" mask="url(#b)"/><path d="M12.864 50.996H30.1V40.59H12.863v10.406zm17.488 2.53H12.61c-1.257 0-2.28-1.02-2.28-2.277V40.337c0-1.256 1.023-2.277 2.28-2.277h17.742c1.257 0 2.28 1.022 2.28 2.278v10.91c0 1.257-1.023 2.278-2.28 2.278z" fill="#57585A" mask="url(#b)"/><path d="M8.573 1.265L1.266 26.963c0 2.737 3.288 4.976 7.307 4.976 4.02 0 7.307-2.24 7.307-4.977l3.722-25.698H8.572z" fill="#BAC1E1" mask="url(#b)"/><path d="M2.538 27.12c.082 1.122 1.02 1.925 1.588 2.312 1.16.79 2.78 1.242 4.447 1.242 1.668 0 3.288-.453 4.447-1.242.596-.405 1.594-1.265 1.594-2.47v-.09L18.14 2.53H9.53L2.538 27.12zm6.035 6.084c-2.195 0-4.28-.597-5.874-1.682C.96 30.337 0 28.718 0 26.962v-.175L7.616 0h13.45l-3.92 27.06c-.035 1.718-.99 3.3-2.7 4.462-1.59 1.085-3.677 1.682-5.873 1.682z" fill="#57585A" mask="url(#b)"/><path d="M30.494 1.265v25.698c0 2.737-3.288 4.976-7.307 4.976-4.02 0-7.307-2.24-7.307-4.977l3.722-25.698h10.892z" fill="#FFCD20" mask="url(#b)"/><path d="M17.148 27.044c.043 1.162 1.01 1.992 1.592 2.388 1.16.79 2.78 1.242 4.447 1.242 1.667 0 3.288-.453 4.447-1.242.595-.405 1.594-1.265 1.594-2.47V2.53h-8.53l-3.55 24.514zm6.04 6.16c-2.196 0-4.283-.597-5.875-1.682-1.74-1.185-2.7-2.804-2.7-4.56v-.09L18.507 0H31.76v26.963c0 1.755-.958 3.374-2.7 4.56-1.59 1.084-3.677 1.68-5.873 1.68z" fill="#57585A" mask="url(#b)"/><path d="M41.386 1.265l3.722 25.698c0 2.737-3.288 4.976-7.307 4.976-4.018 0-7.306-2.24-7.306-4.977V1.265h10.892z" fill="#BAC1E1" mask="url(#b)"/><path d="M31.76 2.53v24.433c0 1.204 1 2.064 1.594 2.47 1.16.788 2.78 1.24 4.447 1.24 1.668 0 3.29-.452 4.448-1.24.582-.397 1.55-1.227 1.592-2.39L40.29 2.53h-8.53zm6.04 30.674c-2.195 0-4.28-.597-5.873-1.682-1.74-1.185-2.7-2.804-2.7-4.56V0h13.256l3.89 26.872v.09c0 1.756-.957 3.375-2.698 4.56-1.592 1.085-3.678 1.682-5.874 1.682z" fill="#57585A" mask="url(#b)"/><path d="M52.415 1.265l7.307 25.698c0 2.737-3.288 4.976-7.307 4.976-4.02 0-7.307-2.24-7.307-4.977L41.386 1.265h11.03z" fill="#FFCD20" mask="url(#b)"/><path d="M42.85 2.53l3.524 24.342v.09c0 1.205 1 2.065 1.594 2.47 1.16.79 2.78 1.242 4.447 1.242 1.667 0 3.288-.453 4.447-1.242.57-.387 1.507-1.19 1.588-2.313L51.458 2.53h-8.61zm9.565 30.674c-2.196 0-4.282-.597-5.874-1.682-1.707-1.163-2.662-2.744-2.697-4.46L39.923 0h13.45l7.615 26.787v.176c0 1.755-.96 3.374-2.7 4.56-1.592 1.084-3.678 1.68-5.873 1.68z" fill="#57585A" mask="url(#b)"/></g></svg>